<?xml version="1.0" encoding="UTF-8"?>
<svg width="109px" height="109px" viewBox="0 0 109 109" version="1.1" xmlns="http://www.w3.org/2000/svg" xmlns:xlink="http://www.w3.org/1999/xlink">
    <!-- Generator: Sketch 51.3 (57544) - http://www.bohemiancoding.com/sketch -->
    <title>Group 14</title>
    <desc>Created with Sketch.</desc>
    <defs>
        <polygon id="path-1" points="0.0005 0.881 108.1185 0.881 108.1185 109 0.0005 109"></polygon>
    </defs>
    <g id="Page-1" stroke="none" stroke-width="1" fill="none" fill-rule="evenodd">
        <g id="Careers" transform="translate(-236.000000, -2854.000000)">
            <g id="Group-14" transform="translate(236.000000, 2853.000000)">
                <g id="Group-3" transform="translate(0.000000, 0.119000)">
                    <mask id="mask-2" fill="white">
                        <use xlink:href="#path-1"></use>
                    </mask>
                    <g id="Clip-2"></g>
                    <path d="M108.1185,54.9406 C108.1185,84.7966 83.9155,109.0006 54.0595,109.0006 C24.2035,109.0006 0.0005,84.7966 0.0005,54.9406 C0.0005,25.0846 24.2035,0.8806 54.0595,0.8806 C83.9155,0.8806 108.1185,25.0846 108.1185,54.9406" id="Fill-1" fill="#19E69B" mask="url(#mask-2)"></path>
                </g>
                <path d="M78.723,45.4278 C78.723,59.0128 67.71,70.0268 54.124,70.0268 C40.538,70.0268 29.525,59.0128 29.525,45.4278 C29.525,31.8418 40.538,20.8288 54.124,20.8288 C67.71,20.8288 78.723,31.8418 78.723,45.4278 Z" id="Stroke-4" stroke="#11193A" stroke-width="1.189" stroke-linecap="round" stroke-linejoin="round"></path>
                <path d="M62.7308,50.1461 C62.7308,52.0471 62.0708,53.6131 60.7498,54.8421 C59.4288,56.0721 57.6868,56.7551 55.5248,56.8921 L55.5248,59.9651 L54.0558,59.9651 L54.0558,56.8921 C51.6758,56.7661 49.8038,56.0381 48.4368,54.7061 C47.0718,53.3741 46.3878,51.6261 46.3878,49.4631 L48.1128,49.4631 C48.1128,51.2281 48.7248,52.6311 49.9488,53.6721 C51.1718,54.7141 52.7808,55.2351 54.7728,55.2351 C56.5838,55.2351 58.0718,54.7661 59.2388,53.8261 C60.4058,52.8871 60.9898,51.6661 60.9898,50.1631 C60.9898,49.6961 60.9228,49.2671 60.7928,48.8741 C60.6618,48.4811 60.5018,48.1461 60.3148,47.8661 C60.1268,47.5871 59.8508,47.3261 59.4868,47.0811 C59.1218,46.8361 58.7918,46.6401 58.4958,46.4921 C58.1998,46.3441 57.7878,46.1931 57.2568,46.0391 C56.7278,45.8851 56.2948,45.7691 55.9598,45.6891 C55.6238,45.6091 55.1488,45.5011 54.5348,45.3651 C53.8388,45.2171 53.3068,45.1001 52.9368,45.0151 C52.5668,44.9291 52.0668,44.7901 51.4338,44.5961 C50.8018,44.4031 50.3098,44.2121 49.9578,44.0241 C49.6038,43.8361 49.2028,43.5831 48.7528,43.2641 C48.3038,42.9451 47.9618,42.6011 47.7288,42.2311 C47.4958,41.8611 47.2928,41.4111 47.1228,40.8821 C46.9518,40.3531 46.8668,39.7691 46.8668,39.1311 C46.8668,37.2991 47.4958,35.8181 48.7528,34.6911 C50.0108,33.5641 51.7098,32.9381 53.8508,32.8131 L53.8508,29.9101 L55.3708,29.9101 L55.3708,32.8131 C57.4548,32.9611 59.0958,33.6471 60.2968,34.8711 C61.4988,36.0951 62.0988,37.7081 62.0988,39.7121 L60.3908,39.7121 C60.3908,38.0841 59.8558,36.7981 58.7868,35.8531 C57.7158,34.9081 56.3038,34.4351 54.5508,34.4351 C52.7628,34.4351 51.3208,34.8561 50.2218,35.6991 C49.1238,36.5421 48.5738,37.6631 48.5738,39.0631 C48.5738,39.6781 48.6908,40.2191 48.9238,40.6861 C49.1578,41.1521 49.4598,41.5341 49.8298,41.8301 C50.1988,42.1261 50.6678,42.3911 51.2378,42.6241 C51.8068,42.8571 52.3648,43.0481 52.9118,43.1961 C53.4588,43.3441 54.0898,43.4981 54.8068,43.6571 C54.8868,43.6681 54.9498,43.6801 54.9948,43.6911 C55.9738,43.9081 56.7308,44.0861 57.2658,44.2291 C57.8008,44.3721 58.4728,44.6131 59.2818,44.9551 C60.0888,45.2961 60.7048,45.6721 61.1258,46.0821 C61.5458,46.4921 61.9188,47.0441 62.2448,47.7381 C62.5688,48.4331 62.7308,49.2351 62.7308,50.1461" id="Fill-6" fill="#FFFFFF"></path>
                <path d="M53.8665,92.3043 L53.8665,70.0273" id="Stroke-8" stroke="#11193A" stroke-width="1.189" stroke-linecap="round" stroke-linejoin="round"></path>
                <path d="M36.5374,79.8116 L44.1944,79.8116 C44.1944,79.8116 53.7314,79.1396 53.7314,88.4086 L45.5384,88.4086 C45.5384,88.4086 36.5374,88.4086 36.5374,79.8116 Z" id="Stroke-10" stroke="#11193A" stroke-width="1.189" stroke-linecap="round" stroke-linejoin="round"></path>
                <path d="M54.0013,82.0845 L61.6573,82.0845 C61.6573,82.0845 71.1953,82.7555 71.1953,73.4865 L63.0013,73.4865 C63.0013,73.4865 54.0013,73.4865 54.0013,82.0845 Z" id="Stroke-12" stroke="#11193A" stroke-width="1.189" stroke-linecap="round" stroke-linejoin="round"></path>
            </g>
        </g>
    </g>
</svg>