<?xml version="1.0" encoding="UTF-8"?>
<svg width="43px" height="62px" viewBox="0 0 43 62" version="1.1" xmlns="http://www.w3.org/2000/svg" xmlns:xlink="http://www.w3.org/1999/xlink">
    <!-- Generator: Sketch 51.3 (57544) - http://www.bohemiancoding.com/sketch -->
    <title>Group 6</title>
    <desc>Created with Sketch.</desc>
    <defs>
        <polygon id="path-1" points="0.0005 0.4992 42.966 0.4992 42.966 62 0.0005 62"></polygon>
    </defs>
    <g id="Page-1" stroke="none" stroke-width="1" fill="none" fill-rule="evenodd">
        <g id="Careers" transform="translate(-175.000000, -2495.000000)">
            <g id="Group-6" transform="translate(175.000000, 2494.000000)">
                <path d="M28.5452,24.2627 C28.2582,23.6507 27.9212,23.1537 27.5442,22.7857 C27.1642,22.4167 26.6122,22.0777 25.9052,21.7797 C25.2232,21.4907 24.6442,21.2827 24.1842,21.1597 C23.7352,21.0407 23.1022,20.8897 22.2882,20.7107 C22.2422,20.6997 22.1782,20.6877 22.1242,20.6807 C21.5332,20.5497 21.0132,20.4227 20.5632,20.3007 C20.1212,20.1817 19.6662,20.0257 19.2102,19.8387 C18.7672,19.6577 18.4002,19.4517 18.1202,19.2257 C17.8532,19.0117 17.6292,18.7297 17.4582,18.3877 C17.2882,18.0477 17.2022,17.6437 17.2022,17.1877 C17.2022,16.1247 17.6072,15.2967 18.4412,14.6577 C19.2912,14.0057 20.4352,13.6757 21.8382,13.6757 C23.2062,13.6757 24.3162,14.0437 25.1392,14.7697 C25.9612,15.4957 26.3602,16.4637 26.3602,17.7287 L26.3602,18.0657 L28.4552,18.0657 L28.4552,17.7287 C28.4552,15.9777 27.9192,14.5427 26.8602,13.4637 C25.8672,12.4527 24.5232,11.8537 22.8582,11.6797 L22.8582,9.2357 L20.9182,9.2357 L20.9182,11.6747 C19.2132,11.8257 17.8252,12.3717 16.7892,13.3007 C15.6732,14.3007 15.1072,15.6277 15.1072,17.2447 C15.1072,17.8087 15.1852,18.3337 15.3372,18.8047 C15.4862,19.2677 15.6682,19.6717 15.8772,20.0037 C16.0942,20.3477 16.4112,20.6687 16.8192,20.9587 C17.2052,21.2327 17.5552,21.4527 17.8572,21.6137 C18.1702,21.7797 18.6042,21.9487 19.1472,22.1137 C19.6832,22.2787 20.1072,22.3967 20.4192,22.4687 C20.7292,22.5397 21.1732,22.6377 21.7512,22.7607 C22.2612,22.8737 22.6542,22.9637 22.9332,23.0287 C23.2082,23.0947 23.5632,23.1897 23.9962,23.3167 C24.4152,23.4377 24.7422,23.5567 24.9702,23.6707 C25.2012,23.7857 25.4592,23.9397 25.7572,24.1377 C26.0222,24.3167 26.2232,24.5057 26.3542,24.7007 C26.4922,24.9067 26.6122,25.1607 26.7122,25.4577 C26.8092,25.7477 26.8582,26.0737 26.8582,26.4237 C26.8582,27.5757 26.4232,28.4877 25.5262,29.2077 C24.6232,29.9357 23.4432,30.3057 22.0242,30.3057 C20.4552,30.3057 19.1782,29.8957 18.2282,29.0867 C17.2792,28.2797 16.8192,27.2177 16.8192,25.8407 L16.8192,25.5037 L14.7092,25.5037 L14.7092,25.8407 C14.7092,27.7267 15.3172,29.2757 16.5172,30.4437 C17.6462,31.5447 19.1832,32.1807 21.0892,32.3367 L21.0892,34.9157 L22.9852,34.9157 L22.9852,32.3327 C24.7132,32.1687 26.1382,31.5747 27.2262,30.5627 C28.3912,29.4777 28.9822,28.0807 28.9822,26.4087 C28.9822,25.6057 28.8352,24.8837 28.5452,24.2627" id="Fill-1" fill="#50E29D"></path>
                <g id="Group-5" transform="translate(0.000000, 0.500700)">
                    <mask id="mask-2" fill="white">
                        <use xlink:href="#path-1"></use>
                    </mask>
                    <g id="Clip-4"></g>
                    <path d="M2.0335,21.9822 C2.0335,11.2582 10.7585,2.5332 21.4835,2.5332 C32.2075,2.5332 40.9315,11.2582 40.9315,21.9822 C40.9315,32.7072 32.2075,41.4312 21.4835,41.4312 C10.7585,41.4312 2.0335,32.7072 2.0335,21.9822 Z M34.6145,46.3442 C34.4485,47.7962 33.9105,48.9552 33.0135,49.7942 C31.1285,51.5542 28.1235,51.4772 27.7515,51.4632 L22.4605,51.4632 C23.1085,46.4322 28.6285,46.3452 28.8685,46.3442 L34.6145,46.3442 Z M20.0855,56.7262 L14.3405,56.7262 C14.0975,56.7262 8.5755,56.6662 7.9305,51.6062 L13.2975,51.6042 C13.3255,51.6022 16.4825,51.4102 18.4795,53.2712 C19.3805,54.1102 19.9195,55.2712 20.0855,56.7262 Z M35.6855,44.3112 L28.8685,44.3112 C28.8095,44.3112 24.7755,44.3582 22.2855,47.0492 L22.2855,43.4452 C33.7605,43.0212 42.9665,33.5592 42.9665,21.9822 C42.9665,10.1362 33.3295,0.4992 21.4835,0.4992 C9.6375,0.4992 0.0005,10.1362 0.0005,21.9822 C0.0005,33.4152 8.9765,42.7872 20.2515,43.4272 L20.2515,52.1862 C20.1275,52.0482 20.0035,51.9112 19.8665,51.7832 C17.1955,49.2922 13.2235,49.5702 13.2215,49.5722 L6.8515,49.5722 C6.2905,49.5722 5.8345,50.0292 5.8345,50.5892 C5.8345,58.6662 14.2545,58.7592 14.3405,58.7592 L20.2515,58.7592 L20.2515,60.9832 C20.2515,61.5442 20.7075,62.0002 21.2675,62.0002 C21.8295,62.0002 22.2855,61.5442 22.2855,60.9832 L22.2855,53.4972 L27.6765,53.4942 C27.7085,53.4972 27.8665,53.5072 28.1195,53.5072 C29.2905,53.5072 32.2445,53.2912 34.3945,51.2872 C35.9275,49.8592 36.7035,47.8542 36.7035,45.3272 C36.7035,44.7672 36.2475,44.3112 35.6855,44.3112 Z" id="Fill-3" fill="#11193A" mask="url(#mask-2)"></path>
                </g>
            </g>
        </g>
    </g>
</svg>