<?xml version="1.0" encoding="UTF-8"?>
<svg width="46px" height="60px" viewBox="0 0 46 60" version="1.1" xmlns="http://www.w3.org/2000/svg" xmlns:xlink="http://www.w3.org/1999/xlink">
    <!-- Generator: Sketch 51.3 (57544) - http://www.bohemiancoding.com/sketch -->
    <title>Group 7</title>
    <desc>Created with Sketch.</desc>
    <defs>
        <polygon id="path-1" points="0.881581573 0.015 21.2013268 0.015 21.2013268 16.4649 0.881581573 16.4649"></polygon>
        <polygon id="path-3" points="0 0.8041 45.195 0.8041 45.195 46 0 46"></polygon>
    </defs>
    <g id="Page-1" stroke="none" stroke-width="1" fill="none" fill-rule="evenodd">
        <g id="Careers" transform="translate(-1004.000000, -2494.000000)">
            <g id="Group-7" transform="translate(1004.000000, 2493.000000)">
                <g id="Group-3" transform="translate(8.000000, 0.984900)">
                    <mask id="mask-2" fill="white">
                        <use xlink:href="#path-1"></use>
                    </mask>
                    <g id="Clip-2"></g>
                    <path d="M14.2031,9.4229 C12.8311,10.0649 8.9391,11.5679 6.0411,9.6129 C2.8961,7.4919 2.5181,3.9639 2.4921,2.6679 C3.8171,2.0609 7.6081,0.6629 10.8691,2.6669 C13.7491,4.4379 14.1551,8.0769 14.2031,9.4229 M21.1591,5.5109 C21.0911,5.3069 20.9441,5.1419 20.7521,5.0469 C20.5581,4.9529 20.3431,4.9379 20.1421,5.0059 C18.3981,5.5909 16.8771,6.5749 15.6601,7.8329 C15.3481,5.8509 14.4201,2.9639 11.7101,1.2979 C6.9591,-1.6211 1.5331,1.3359 1.3051,1.4649 C1.0701,1.5959 0.9181,1.8339 0.8951,2.1019 C0.8781,2.3339 0.5061,7.8169 5.1441,10.9449 C6.3701,11.7729 7.8221,12.1929 9.4611,12.1929 C10.8941,12.1929 12.2451,11.8699 13.2981,11.5159 C12.7911,12.8109 12.5161,14.2129 12.5271,15.6679 C12.5321,16.1069 12.8911,16.4649 13.3301,16.4649 L13.3351,16.4649 L13.3361,16.4649 C13.5511,16.4629 13.7521,16.3779 13.9031,16.2249 C14.0541,16.0719 14.1351,15.8699 14.1331,15.6559 C14.1031,11.5149 16.7241,7.8469 20.6531,6.5289 C21.0731,6.3879 21.3011,5.9319 21.1591,5.5109" id="Fill-1" fill="#50E29D" mask="url(#mask-2)"></path>
                </g>
                <g id="Group-6" transform="translate(0.000000, 14.984900)">
                    <mask id="mask-4" fill="white">
                        <use xlink:href="#path-3"></use>
                    </mask>
                    <g id="Clip-5"></g>
                    <path d="M22.5986,43.9981 C11.2416,43.9981 2.0016,34.7591 2.0016,23.4021 C2.0016,12.0451 11.2416,2.8061 22.5986,2.8061 C33.9546,2.8061 43.1946,12.0451 43.1946,23.4021 C43.1946,34.7591 33.9546,43.9981 22.5986,43.9981 M22.5986,0.8041 C10.1376,0.8041 -0.0004,10.9411 -0.0004,23.4021 C-0.0004,35.8621 10.1376,46.0001 22.5986,46.0001 C35.0586,46.0001 45.1956,35.8621 45.1956,23.4021 C45.1956,10.9411 35.0586,0.8041 22.5986,0.8041" id="Fill-4" fill="#11193A" mask="url(#mask-4)"></path>
                </g>
            </g>
        </g>
    </g>
</svg>