<?xml version="1.0" encoding="UTF-8"?>
<svg width="109px" height="109px" viewBox="0 0 109 109" version="1.1" xmlns="http://www.w3.org/2000/svg" xmlns:xlink="http://www.w3.org/1999/xlink">
    <!-- Generator: Sketch 51.3 (57544) - http://www.bohemiancoding.com/sketch -->
    <title>Group 9</title>
    <desc>Created with Sketch.</desc>
    <defs>
        <polygon id="path-1" points="0 0.881 108.1189 0.881 108.1189 109 0 109"></polygon>
    </defs>
    <g id="Page-1" stroke="none" stroke-width="1" fill="none" fill-rule="evenodd">
        <g id="Careers" transform="translate(-662.000000, -3058.000000)">
            <g id="Group-9" transform="translate(662.000000, 3057.000000)">
                <g id="Group-10">
                    <g id="Group-3" transform="translate(0.000000, 0.119000)">
                        <mask id="mask-2" fill="white">
                            <use xlink:href="#path-1"></use>
                        </mask>
                        <g id="Clip-2"></g>
                        <path d="M108.1189,54.9406 C108.1189,84.7966 83.9159,109.0006 54.0589,109.0006 C24.2029,109.0006 -0.0001,84.7966 -0.0001,54.9406 C-0.0001,25.0846 24.2029,0.8806 54.0589,0.8806 C83.9159,0.8806 108.1189,25.0846 108.1189,54.9406" id="Fill-1" fill="#19E69B" mask="url(#mask-2)"></path>
                    </g>
                    <path d="M52.3669,39.5103 C52.3239,33.6903 55.9869,28.2483 61.8049,26.2973" id="Stroke-4" stroke="#FFFFFF" stroke-width="1.189" stroke-linecap="round" stroke-linejoin="round"></path>
                    <path d="M36.8298,21.4859 C36.8298,21.4859 43.7528,17.6249 49.6398,21.2419 C54.9638,24.5139 54.6088,31.8409 54.6088,31.8409 C54.6088,31.8409 47.3328,35.8969 42.0328,32.3219 C36.2778,28.4399 36.8298,21.4859 36.8298,21.4859 Z" id="Stroke-6" stroke="#FFFFFF" stroke-width="1.189" stroke-linecap="round" stroke-linejoin="round"></path>
                    <path d="M78.6589,64.0797 C78.6589,77.6657 67.6449,88.6787 54.0589,88.6787 C40.4729,88.6787 29.4609,77.6657 29.4609,64.0797 C29.4609,50.4947 40.4729,39.4807 54.0589,39.4807 C67.6449,39.4807 78.6589,50.4947 78.6589,64.0797 Z" id="Stroke-8" stroke="#11193A" stroke-width="1.189" stroke-linecap="round" stroke-linejoin="round"></path>
                </g>
            </g>
        </g>
    </g>
</svg>