<?xml version="1.0" encoding="UTF-8"?>
<svg width="95px" height="182px" viewBox="0 0 95 182" version="1.1" xmlns="http://www.w3.org/2000/svg" xmlns:xlink="http://www.w3.org/1999/xlink">
    <!-- Generator: Sketch 51.3 (57544) - http://www.bohemiancoding.com/sketch -->
    <title>Group 6</title>
    <desc>Created with Sketch.</desc>
    <defs>
        <polygon id="path-1" points="0 0.805 94.1977618 0.805 94.1977618 161.8146 0 161.8146"></polygon>
    </defs>
    <g id="Page-1" stroke="none" stroke-width="1" fill="none" fill-rule="evenodd">
        <g id="Careers" transform="translate(-1157.000000, -1478.000000)">
            <g id="Group-6" transform="translate(1157.000000, 1477.000000)">
                <path d="M68.4138,160.8804 C68.4138,172.6514 58.8708,182.1944 47.0998,182.1944 C35.3268,182.1944 25.7838,172.6514 25.7838,160.8804 C25.7838,149.1084 35.3268,139.5654 47.0998,139.5654 C58.8708,139.5654 68.4138,149.1084 68.4138,160.8804" id="Fill-1" fill="#50E29D"></path>
                <g id="Group-5" transform="translate(0.000000, 0.195000)">
                    <mask id="mask-2" fill="white">
                        <use xlink:href="#path-1"></use>
                    </mask>
                    <g id="Clip-4"></g>
                    <path d="M2.2478,159.9876 L3.0628,158.5056 C9.9428,145.9936 27.6408,137.5876 47.0988,137.5876 C66.5568,137.5876 84.2528,145.9936 91.1328,158.5056 L91.9478,159.9876 L2.2478,159.9876 Z M46.1848,21.5236 L46.1848,35.2936 L44.5148,33.7886 C42.5948,32.0576 40.1248,29.1066 39.2688,24.8736 C38.0378,18.7946 40.3988,11.8216 46.2868,4.1496 L47.0788,3.1166 L47.8728,4.1486 C50.4238,7.4646 56.2348,16.0596 55.0898,24.2486 C54.5858,27.8556 52.7608,31.0466 49.6658,33.7306 L48.0108,35.1656 L48.0108,21.5236 C48.0108,21.0196 47.6018,20.6106 47.0978,20.6106 C46.5938,20.6106 46.1848,21.0196 46.1848,21.5236 Z M26.1578,86.5336 C25.7938,86.1846 25.2148,86.2006 24.8658,86.5616 C24.5188,86.9246 24.5308,87.5036 24.8938,87.8516 L38.4638,100.8516 L35.7128,100.6636 C19.5598,99.5616 15.5758,85.7896 14.6388,77.6786 L14.4978,76.4606 L15.7198,76.5686 C19.7488,76.9216 29.7378,78.4516 35.4598,85.0066 C38.2908,88.2476 39.7488,92.3656 39.7918,97.2446 L39.8118,99.6166 L26.1578,86.5336 Z M26.1468,47.7616 C25.7808,47.4146 25.2038,47.4296 24.8558,47.7946 C24.5098,48.1596 24.5238,48.7386 24.8888,49.0846 L38.6068,62.1186 L35.7988,61.9006 C28.8818,61.3616 16.9508,57.6596 14.7518,38.9126 L14.6078,37.6916 L15.8328,37.7996 C19.8678,38.1566 29.8708,39.6956 35.5988,46.2586 C38.4328,49.5076 39.8898,53.6326 39.9298,58.5186 L39.9488,60.8746 L26.1468,47.7616 Z M54.2678,58.5186 C54.3078,53.6376 55.7608,49.5176 58.5868,46.2726 C64.2938,39.7186 74.3158,38.1666 78.3598,37.8026 L79.5868,37.6936 L79.4428,38.9156 C77.2448,57.6606 65.3138,61.3616 58.3968,61.9006 L55.5888,62.1186 L69.3078,49.0846 C69.6718,48.7376 69.6868,48.1596 69.3408,47.7946 C69.1728,47.6176 68.9458,47.5166 68.7018,47.5106 C68.4688,47.5056 68.2268,47.5936 68.0498,47.7616 L54.2478,60.8756 L54.2678,58.5186 Z M54.4038,97.2446 C54.4478,92.3706 55.9018,88.2576 58.7248,85.0196 C64.4268,78.4766 74.4358,76.9316 78.4758,76.5716 L79.6988,76.4626 L79.5578,77.6826 C78.6198,85.7926 74.6358,99.5616 58.4838,100.6646 L55.7328,100.8526 L69.3028,87.8526 C69.6658,87.5046 69.6778,86.9256 69.3288,86.5626 C69.1608,86.3856 68.9338,86.2856 68.6898,86.2806 C68.4678,86.2746 68.2148,86.3656 68.0388,86.5346 L54.3828,99.6166 L54.4038,97.2446 Z M94.1308,160.5566 C91.2718,153.5196 85.0938,147.1926 76.7338,142.7386 C68.6928,138.4556 59.0978,136.0516 48.9848,135.7866 L48.0118,135.7616 L48.0118,108.2496 L54.0798,102.4346 L54.5298,102.4726 C55.1768,102.5276 55.8638,102.5546 56.5728,102.5546 C59.6758,102.5546 65.6728,101.9886 70.9768,98.1956 C77.2658,93.6996 80.8348,86.0966 81.5858,75.5986 C81.6028,75.3466 81.5148,75.0956 81.3428,74.9106 C81.1698,74.7256 80.9268,74.6196 80.6748,74.6196 C80.0508,74.6196 65.2888,74.7246 57.3598,83.8056 C53.5708,88.1456 52.0198,93.8096 52.7528,100.6396 L52.8058,101.1286 L48.0118,105.7206 L48.0118,69.3206 L53.9418,63.6856 L54.3888,63.7226 C55.0378,63.7776 55.7198,63.8046 56.4158,63.8046 C59.5208,63.8046 65.5248,63.2386 70.8388,59.4466 C77.1438,54.9466 80.7228,47.3376 81.4748,36.8286 C81.4918,36.5766 81.4028,36.3256 81.2308,36.1406 C81.0598,35.9566 80.8158,35.8506 80.5628,35.8506 C79.9388,35.8516 65.1468,35.9776 57.2238,45.0586 C53.4358,49.4006 51.8848,55.0626 52.6148,61.8866 L52.6678,62.3776 L48.0118,66.8006 L48.0118,37.2446 L48.4538,36.9476 C53.3678,33.6476 56.2098,29.4546 56.9018,24.4876 C58.4918,13.0556 48.1748,1.5836 47.7338,1.1006 C47.5558,0.9056 47.3038,0.8006 47.0458,0.8046 C46.7738,0.8116 46.5258,0.9316 46.3578,1.1346 C39.0228,9.9906 36.0358,18.0996 37.4798,25.2366 C38.8318,31.9146 43.7008,35.7076 45.7308,37.0286 L46.1858,37.3246 L46.1858,66.8006 L41.5298,62.3776 L41.5828,61.8856 C42.3128,55.0616 40.7628,49.4006 36.9748,45.0596 C29.0518,35.9786 14.2608,35.8516 13.6348,35.8506 C13.3828,35.8506 13.1388,35.9566 12.9668,36.1416 C12.7948,36.3266 12.7058,36.5776 12.7238,36.8286 C13.4758,47.3376 17.0538,54.9466 23.3588,59.4466 C28.6728,63.2386 34.6768,63.8046 37.7818,63.8046 C38.4848,63.8046 39.1668,63.7776 39.8088,63.7236 L40.2558,63.6856 L46.1858,69.3206 L46.1858,105.7216 L41.3938,101.1296 L41.4458,100.6406 C42.1778,93.8106 40.6268,88.1466 36.8378,83.8066 C28.9088,74.7256 14.1478,74.6206 13.5238,74.6206 C13.2708,74.6206 13.0278,74.7266 12.8558,74.9116 C12.6838,75.0966 12.5948,75.3486 12.6118,75.6006 C13.3628,86.0976 16.9328,93.7006 23.2218,98.1966 C28.5258,101.9896 34.5228,102.5566 37.6258,102.5566 C38.3298,102.5566 39.0178,102.5286 39.6678,102.4736 L40.1178,102.4356 L46.1858,108.2506 L46.1858,135.7626 L45.2128,135.7886 C35.1018,136.0526 25.5068,138.4556 17.4638,142.7396 C9.1038,147.1936 2.9258,153.5206 0.0668,160.5576 C-0.0472,160.8396 -0.0152,161.1586 0.1548,161.4106 C0.3248,161.6636 0.6078,161.8146 0.9128,161.8146 L93.2858,161.8146 C93.5908,161.8146 93.8738,161.6636 94.0428,161.4126 C94.2118,161.1586 94.2448,160.8396 94.1308,160.5566 Z" id="Fill-3" fill="#242F4E" mask="url(#mask-2)"></path>
                </g>
            </g>
        </g>
    </g>
</svg>