<?xml version="1.0" encoding="UTF-8"?>
<svg width="55px" height="55px" viewBox="0 0 55 55" version="1.1" xmlns="http://www.w3.org/2000/svg" xmlns:xlink="http://www.w3.org/1999/xlink">
    <!-- Generator: Sketch 51.3 (57544) - http://www.bohemiancoding.com/sketch -->
    <title>Group 6</title>
    <desc>Created with Sketch.</desc>
    <defs>
        <polygon id="path-1" points="0.0004 0.0254 54.974 0.0254 54.974 55 0.0004 55"></polygon>
    </defs>
    <g id="Page-1" stroke="none" stroke-width="1" fill="none" fill-rule="evenodd">
        <g id="Careers" transform="translate(-379.000000, -2497.000000)">
            <g id="Group-6" transform="translate(379.000000, 2496.000000)">
                <g id="Group-3" transform="translate(0.000000, 0.974700)">
                    <mask id="mask-2" fill="white">
                        <use xlink:href="#path-1"></use>
                    </mask>
                    <g id="Clip-2"></g>
                    <path d="M52.9404,27.5124 C52.9404,41.5474 41.5224,52.9664 27.4874,52.9664 C13.4524,52.9664 2.0334,41.5474 2.0334,27.5124 C2.0334,13.4774 13.4524,2.0584 27.4874,2.0584 C41.5224,2.0584 52.9404,13.4774 52.9404,27.5124 M27.4874,0.0254 C12.3314,0.0254 0.0004,12.3564 0.0004,27.5124 C0.0004,42.6694 12.3314,55.0004 27.4874,55.0004 C42.6434,55.0004 54.9744,42.6694 54.9744,27.5124 C54.9744,12.3564 42.6434,0.0254 27.4874,0.0254" id="Fill-1" fill="#11193A" mask="url(#mask-2)"></path>
                </g>
                <path d="M22.6279,32.3294 L15.3719,32.3294 L15.3719,24.6444 L22.6279,24.6444 C23.1889,24.6444 23.6449,24.1874 23.6449,23.6274 L23.6449,16.3714 L31.3299,16.3714 L31.3299,23.6274 C31.3299,24.1874 31.7859,24.6444 32.3469,24.6444 L39.6029,24.6444 L39.6029,32.3294 L32.3469,32.3294 C31.7859,32.3294 31.3299,32.7864 31.3299,33.3464 L31.3299,40.6024 L23.6449,40.6024 L23.6449,33.3464 C23.6449,32.7864 23.1889,32.3294 22.6279,32.3294 M40.1989,22.6104 L33.3629,22.6104 L33.3629,15.7754 C33.3629,14.9824 32.7189,14.3384 31.9269,14.3384 L23.0479,14.3384 C22.2559,14.3384 21.6099,14.9824 21.6099,15.7754 L21.6099,22.6104 L14.7739,22.6104 C13.9819,22.6104 13.3379,23.2554 13.3379,24.0474 L13.3379,32.9264 C13.3379,33.7184 13.9819,34.3634 14.7739,34.3634 L21.6099,34.3634 L21.6099,41.1984 C21.6099,41.9914 22.2559,42.6364 23.0479,42.6364 L31.9269,42.6364 C32.7189,42.6364 33.3629,41.9914 33.3629,41.1984 L33.3629,34.3634 L40.1989,34.3634 C40.9919,34.3634 41.6359,33.7184 41.6359,32.9264 L41.6359,24.0474 C41.6359,23.2554 40.9919,22.6104 40.1989,22.6104" id="Fill-4" fill="#50E29D"></path>
            </g>
        </g>
    </g>
</svg>