<?xml version="1.0" encoding="UTF-8"?>
<svg width="109px" height="109px" viewBox="0 0 109 109" version="1.1" xmlns="http://www.w3.org/2000/svg" xmlns:xlink="http://www.w3.org/1999/xlink">
    <!-- Generator: Sketch 51.3 (57544) - http://www.bohemiancoding.com/sketch -->
    <title>Group 4</title>
    <desc>Created with Sketch.</desc>
    <defs>
        <polygon id="path-1" points="0 0.881 108.1189 0.881 108.1189 109 0 109"></polygon>
    </defs>
    <g id="Page-1" stroke="none" stroke-width="1" fill="none" fill-rule="evenodd">
        <g id="Careers" transform="translate(-662.000000, -2855.000000)">
            <g id="Group-4" transform="translate(662.000000, 2854.000000)">
                <g id="Group-8">
                    <g id="Group-3" transform="translate(0.000000, 0.119000)">
                        <mask id="mask-2" fill="white">
                            <use xlink:href="#path-1"></use>
                        </mask>
                        <g id="Clip-2"></g>
                        <path d="M108.1189,54.9406 C108.1189,84.7966 83.9159,109.0006 54.0589,109.0006 C24.2029,109.0006 -0.0001,84.7966 -0.0001,54.9406 C-0.0001,25.0846 24.2029,0.8806 54.0589,0.8806 C83.9159,0.8806 108.1189,25.0846 108.1189,54.9406" id="Fill-1" fill="#19E69B" mask="url(#mask-2)"></path>
                    </g>
                    <path d="M85.8757,55.0596 C85.8757,72.6306 71.6307,86.8756 54.0597,86.8756 C36.4877,86.8756 22.2427,72.6306 22.2427,55.0596 C22.2427,37.4876 36.4877,23.2436 54.0597,23.2436 C71.6307,23.2436 85.8757,37.4876 85.8757,55.0596 Z" id="Stroke-4" stroke="#11193A" stroke-width="1.189" stroke-linecap="round" stroke-linejoin="round"></path>
                    <path d="M69.3386,49.2183 L59.9006,49.2183 L59.9006,39.7803 C59.9006,39.5013 59.6746,39.2753 59.3956,39.2753 L48.7236,39.2753 C48.4446,39.2753 48.2186,39.5013 48.2186,39.7803 L48.2186,49.2183 L38.7806,49.2183 C38.5016,49.2183 38.2756,49.4453 38.2756,49.7233 L38.2756,60.3953 C38.2756,60.6743 38.5016,60.9003 38.7806,60.9003 L48.2186,60.9003 L48.2186,70.3383 C48.2186,70.6173 48.4446,70.8433 48.7236,70.8433 L59.3956,70.8433 C59.6746,70.8433 59.9006,70.6173 59.9006,70.3383 L59.9006,60.9003 L69.3386,60.9003 C69.6166,60.9003 69.8436,60.6743 69.8436,60.3953 L69.8436,49.7233 C69.8436,49.4453 69.6166,49.2183 69.3386,49.2183 Z" id="Stroke-6" stroke="#FFFFFF" stroke-width="1.189" stroke-linecap="round" stroke-linejoin="round"></path>
                </g>
            </g>
        </g>
    </g>
</svg>