<?xml version="1.0" encoding="UTF-8"?>
<svg width="65px" height="69px" viewBox="0 0 65 69" version="1.1" xmlns="http://www.w3.org/2000/svg" xmlns:xlink="http://www.w3.org/1999/xlink">
    <!-- Generator: Sketch 51.3 (57544) - http://www.bohemiancoding.com/sketch -->
    <title>Group 20</title>
    <desc>Created with Sketch.</desc>
    <defs>
        <polygon id="path-1" points="0.601 0.6735 10.08 0.6735 10.08 2.7075 0.601 2.7075"></polygon>
    </defs>
    <g id="Page-1" stroke="none" stroke-width="1" fill="none" fill-rule="evenodd">
        <g id="Careers" transform="translate(-581.000000, -2489.000000)">
            <g id="Group-20" transform="translate(581.000000, 2489.000000)">
                <path d="M38.5914,50.1808 C38.1754,50.3198 37.8974,50.7068 37.8974,51.1448 L37.8974,53.3008 L26.8554,53.3008 L26.8554,51.1448 C26.8554,50.7068 26.5764,50.3198 26.1614,50.1808 C18.2464,47.5138 12.9274,40.1058 12.9274,31.7458 C12.9274,21.0218 21.6524,12.2968 32.3754,12.2968 C43.1004,12.2968 51.8244,21.0218 51.8244,31.7458 C51.8244,40.1058 46.5064,47.5138 38.5914,50.1808 M28.4774,62.1298 L26.8554,62.1298 L26.8554,55.3348 L37.8974,55.3348 L37.8974,62.1298 L36.2754,62.1298 C35.7134,62.1298 35.2574,62.5868 35.2574,63.1408 L35.2124,66.3118 L29.4944,66.2668 L29.4944,63.1468 C29.4944,62.5868 29.0384,62.1298 28.4774,62.1298 M32.3754,10.2628 C20.5294,10.2628 10.8934,19.8998 10.8934,31.7458 C10.8934,40.6868 16.4764,48.7298 24.8204,51.8628 L24.8204,53.9088 C24.7654,54.0338 24.7314,54.1718 24.7314,54.3178 C24.7314,54.4638 24.7654,54.6008 24.8204,54.7268 L24.8204,62.3458 C24.8204,63.3478 25.6364,64.1638 26.6404,64.1638 L27.4614,64.1638 L27.4614,66.7138 C27.4614,67.6158 28.1954,68.3488 29.0964,68.3488 L35.6554,68.3488 C36.5574,68.3488 37.2904,67.6158 37.2904,66.7138 L37.2904,64.1638 L38.1124,64.1638 C39.1144,64.1638 39.9314,63.3478 39.9314,62.3458 L39.9314,51.8628 C48.2754,48.7308 53.8594,40.6868 53.8594,31.7458 C53.8594,19.8998 44.2214,10.2628 32.3754,10.2628" id="Fill-1" fill="#11193A"></path>
                <path d="M32.4156,17.2882 C24.2746,17.2882 17.6526,23.9112 17.6526,32.0512 C17.6526,32.6112 18.1076,33.0682 18.6696,33.0682 C19.2296,33.0682 19.6866,32.6112 19.6866,32.0512 C19.6866,25.0322 25.3966,19.3222 32.4156,19.3222 C32.9776,19.3222 33.4336,18.8662 33.4336,18.3052 C33.4336,17.7452 32.9776,17.2882 32.4156,17.2882" id="Fill-3" fill="#50E29D"></path>
                <path d="M14.3931,48.2481 L9.3831,53.2571 C9.1921,53.4491 9.0851,53.7051 9.0851,53.9771 C9.0851,54.2481 9.1921,54.5041 9.3831,54.6951 C9.5761,54.8881 9.8311,54.9941 10.1031,54.9941 C10.3741,54.9941 10.6301,54.8881 10.8231,54.6951 L15.8311,49.6861 C16.0251,49.4951 16.1311,49.2391 16.1311,48.9671 C16.1311,48.6941 16.0251,48.4391 15.8321,48.2481 C15.4501,47.8641 14.7761,47.8641 14.3931,48.2481" id="Fill-5" fill="#50E29D"></path>
                <path d="M9.48,32.0392 C9.48,31.4782 9.024,31.0222 8.463,31.0222 L1.017,31.0222 C0.456,31.0222 0,31.4782 0,32.0392 C0,32.6002 0.456,33.0562 1.017,33.0562 L8.463,33.0562 C9.024,33.0562 9.48,32.6002 9.48,32.0392" id="Fill-7" fill="#50E29D"></path>
                <path d="M10.8228,9.3844 C10.4388,8.9994 9.7658,9.0004 9.3838,9.3834 C9.1918,9.5754 9.0858,9.8304 9.0858,10.1034 C9.0858,10.3754 9.1918,10.6304 9.3838,10.8214 L14.6478,16.0854 C14.8408,16.2784 15.0948,16.3834 15.3678,16.3834 C15.6348,16.3834 15.8978,16.2754 16.0878,16.0864 C16.2788,15.8944 16.3848,15.6394 16.3848,15.3674 C16.3848,15.0944 16.2788,14.8394 16.0878,14.6484 L10.8228,9.3844 Z" id="Fill-9" fill="#50E29D"></path>
                <path d="M32.0406,0.0001 C31.4786,0.0001 31.0226,0.4561 31.0226,1.0171 L31.0226,8.4621 C31.0226,9.0221 31.4786,9.4791 32.0406,9.4791 C32.6016,9.4791 33.0576,9.0221 33.0576,8.4621 L33.0576,1.0171 C33.0576,0.4561 32.6016,0.0001 32.0406,0.0001" id="Fill-11" fill="#50E29D"></path>
                <path d="M48.7134,16.3834 C48.9854,16.3834 49.2404,16.2784 49.4334,16.0854 L54.6974,10.8214 C54.8894,10.6304 54.9954,10.3754 54.9954,10.1034 C54.9954,9.8304 54.8894,9.5754 54.6974,9.3834 C54.2994,8.9864 53.6534,8.9884 53.2574,9.3834 L47.9934,14.6474 C47.8024,14.8394 47.6954,15.0944 47.6954,15.3674 C47.6954,15.6394 47.8024,15.8944 47.9934,16.0854 C48.1864,16.2784 48.4414,16.3834 48.7134,16.3834" id="Fill-13" fill="#50E29D"></path>
                <g id="Group-17" transform="translate(54.000000, 30.349100)">
                    <mask id="mask-2" fill="white">
                        <use xlink:href="#path-1"></use>
                    </mask>
                    <g id="Clip-16"></g>
                    <path d="M9.064,0.6735 L1.618,0.6735 C1.057,0.6735 0.601,1.1295 0.601,1.6905 C0.601,2.2505 1.057,2.7075 1.618,2.7075 L9.064,2.7075 C9.625,2.7075 10.081,2.2505 10.081,1.6905 C10.081,1.1295 9.625,0.6735 9.064,0.6735" id="Fill-15" fill="#50E29D" mask="url(#mask-2)"></path>
                </g>
                <path d="M49.4332,47.9938 C49.0362,47.5968 48.3912,47.5978 47.9942,47.9938 C47.8022,48.1848 47.6962,48.4408 47.6962,48.7128 C47.6962,48.9848 47.8022,49.2398 47.9942,49.4308 L53.2582,54.6968 C53.4522,54.8888 53.7062,54.9938 53.9772,54.9938 C54.2472,54.9938 54.5032,54.8888 54.6982,54.6958 C54.8892,54.5038 54.9952,54.2488 54.9952,53.9768 C54.9952,53.7048 54.8892,53.4498 54.6982,53.2578 L49.4332,47.9938 Z" id="Fill-18" fill="#50E29D"></path>
            </g>
        </g>
    </g>
</svg>