<?xml version="1.0" encoding="UTF-8"?>
<svg width="109px" height="109px" viewBox="0 0 109 109" version="1.1" xmlns="http://www.w3.org/2000/svg" xmlns:xlink="http://www.w3.org/1999/xlink">
    <!-- Generator: Sketch 51.3 (57544) - http://www.bohemiancoding.com/sketch -->
    <title>Group 24</title>
    <desc>Created with Sketch.</desc>
    <defs>
        <polygon id="path-1" points="0.0006 0.881 108.1186 0.881 108.1186 109 0.0006 109"></polygon>
    </defs>
    <g id="Page-1" stroke="none" stroke-width="1" fill="none" fill-rule="evenodd">
        <g id="Careers" transform="translate(-1094.000000, -2854.000000)">
            <g id="Group-24" transform="translate(1094.000000, 2853.000000)">
                <g id="Group-3" transform="translate(0.000000, 0.119000)">
                    <mask id="mask-2" fill="white">
                        <use xlink:href="#path-1"></use>
                    </mask>
                    <g id="Clip-2"></g>
                    <path d="M108.1186,54.9406 C108.1186,84.7966 83.9156,109.0006 54.0586,109.0006 C24.2036,109.0006 0.0006,84.7966 0.0006,54.9406 C0.0006,25.0846 24.2036,0.8806 54.0586,0.8806 C83.9156,0.8806 108.1186,25.0846 108.1186,54.9406" id="Fill-1" fill="#19E69B" mask="url(#mask-2)"></path>
                </g>
                <path d="M78.6586,47.1168 C78.6586,33.5318 67.6446,22.5178 54.0586,22.5178 C40.4736,22.5178 29.4606,33.5318 29.4606,47.1168 C29.4606,57.9548 36.4696,67.1548 46.2006,70.4338 L46.2006,83.8958 C46.2006,84.4278 46.6326,84.8588 47.1636,84.8588 L49.3736,84.8588 L49.3736,89.1458 C49.3736,89.5568 49.7056,89.8898 50.1166,89.8898 L58.0026,89.8898 C58.4126,89.8898 58.7456,89.5568 58.7456,89.1458 L58.7456,84.8588 L60.9546,84.8588 C61.4866,84.8588 61.9186,84.4278 61.9186,83.8958 L61.9186,70.4338 C71.6496,67.1548 78.6586,57.9548 78.6586,47.1168 Z" id="Stroke-4" stroke="#11193A" stroke-width="1.189" stroke-linecap="round" stroke-linejoin="round"></path>
                <path d="M46.0922,74.2467 L61.6742,74.2467" id="Stroke-6" stroke="#11193A" stroke-width="1.189" stroke-linecap="round" stroke-linejoin="round"></path>
                <path d="M37.5854,47.484 C37.5854,38.359 44.9824,30.962 54.1074,30.962" id="Stroke-8" stroke="#FFFFFF" stroke-width="1.189" stroke-linecap="round" stroke-linejoin="round"></path>
                <path d="M27.2895,73.837 L33.3105,67.816" id="Stroke-10" stroke="#FFFFFF" stroke-width="1.189" stroke-linecap="round" stroke-linejoin="round"></path>
                <path d="M16.3686,47.4703 L25.3176,47.4703" id="Stroke-12" stroke="#FFFFFF" stroke-width="1.189" stroke-linecap="round" stroke-linejoin="round"></path>
                <path d="M27.2895,21.1031 L33.6165,27.4301" id="Stroke-14" stroke="#FFFFFF" stroke-width="1.189" stroke-linecap="round" stroke-linejoin="round"></path>
                <path d="M53.6557,10.1822 L53.6557,19.1312" id="Stroke-16" stroke="#FFFFFF" stroke-width="1.189" stroke-linecap="round" stroke-linejoin="round"></path>
                <path d="M80.0229,21.1031 L73.6959,27.4301" id="Stroke-18" stroke="#FFFFFF" stroke-width="1.189" stroke-linecap="round" stroke-linejoin="round"></path>
                <path d="M90.9438,47.4703 L81.9948,47.4703" id="Stroke-20" stroke="#FFFFFF" stroke-width="1.189" stroke-linecap="round" stroke-linejoin="round"></path>
                <path d="M80.0229,73.837 L73.6959,67.51" id="Stroke-22" stroke="#FFFFFF" stroke-width="1.189" stroke-linecap="round" stroke-linejoin="round"></path>
            </g>
        </g>
    </g>
</svg>