<?xml version="1.0" encoding="UTF-8"?>
<svg width="109px" height="109px" viewBox="0 0 109 109" version="1.1" xmlns="http://www.w3.org/2000/svg" xmlns:xlink="http://www.w3.org/1999/xlink">
    <!-- Generator: Sketch 51.3 (57544) - http://www.bohemiancoding.com/sketch -->
    <title>Group 2</title>
    <desc>Created with Sketch.</desc>
    <defs>
        <polygon id="path-1" points="0.0002 0.881 108.119 0.881 108.119 109 0.0002 109"></polygon>
    </defs>
    <g id="Page-1" stroke="none" stroke-width="1" fill="none" fill-rule="evenodd">
        <g id="Careers" transform="translate(-234.000000, -3060.000000)">
            <g id="Group-2" transform="translate(234.000000, 3059.000000)">
                <g id="Group-14">
                    <g id="Group-3" transform="translate(0.000000, 0.119000)">
                        <mask id="mask-2" fill="white">
                            <use xlink:href="#path-1"></use>
                        </mask>
                        <g id="Clip-2"></g>
                        <path d="M108.1192,54.9406 C108.1192,84.7966 83.9162,109.0006 54.0592,109.0006 C24.2032,109.0006 0.0002,84.7966 0.0002,54.9406 C0.0002,25.0846 24.2032,0.8806 54.0592,0.8806 C83.9162,0.8806 108.1192,25.0846 108.1192,54.9406" id="Fill-1" fill="#19E69B" mask="url(#mask-2)"></path>
                    </g>
                    <path d="M77.0665,32.9747 C71.1765,39.7467 62.4965,44.0287 52.8165,44.0287 C43.5915,44.0287 35.2745,40.1407 29.4165,33.9137" id="Stroke-4" stroke="#FFFFFF" stroke-width="1.189" stroke-linecap="round" stroke-linejoin="round"></path>
                    <path d="M29.0674,75.8804 C34.9424,69.4344 43.4074,65.3884 52.8164,65.3884 C62.6694,65.3884 71.4854,69.8234 77.3784,76.8064" id="Stroke-6" stroke="#FFFFFF" stroke-width="1.189" stroke-linecap="round" stroke-linejoin="round"></path>
                    <path d="M21.4151,54.3135 L85.7671,54.3135" id="Stroke-8" stroke="#FFFFFF" stroke-width="1.189" stroke-linecap="round" stroke-linejoin="round"></path>
                    <path d="M52.6641,22.9493 L52.6641,87.1563" id="Stroke-10" stroke="#FFFFFF" stroke-width="1.189" stroke-linecap="round" stroke-linejoin="round"></path>
                    <path d="M85.876,55.0596 C85.876,72.8016 71.493,87.1846 53.751,87.1846 C36.009,87.1846 21.626,72.8016 21.626,55.0596 C21.626,37.3176 36.009,22.9346 53.751,22.9346 C71.493,22.9346 85.876,37.3176 85.876,55.0596 Z" id="Stroke-12" stroke="#11193A" stroke-width="1.189" stroke-linecap="round" stroke-linejoin="round"></path>
                </g>
            </g>
        </g>
    </g>
</svg>