<?xml version="1.0" encoding="UTF-8"?>
<svg width="51px" height="51px" viewBox="0 0 51 51" version="1.1" xmlns="http://www.w3.org/2000/svg" xmlns:xlink="http://www.w3.org/1999/xlink">
    <!-- Generator: Sketch 51.3 (57544) - http://www.bohemiancoding.com/sketch -->
    <title>Group 7</title>
    <desc>Created with Sketch.</desc>
    <defs>
        <polygon id="path-1" points="0 0.6936 50.2809 0.6936 50.2809 50.8666 0 50.8666"></polygon>
        <polygon id="path-3" points="0.0461 0.5702 50.477 0.5702 50.477 51 0.0461 51"></polygon>
    </defs>
    <g id="Page-1" stroke="none" stroke-width="1" fill="none" fill-rule="evenodd">
        <g id="Careers" transform="translate(-792.000000, -2499.000000)">
            <g id="Group-7" transform="translate(792.000000, 2498.000000)">
                <g id="Group-3" transform="translate(0.000000, 0.429600)">
                    <mask id="mask-2" fill="white">
                        <use xlink:href="#path-1"></use>
                    </mask>
                    <g id="Clip-2"></g>
                    <path d="M49.4299,24.3696 L25.2919,24.3696 L25.2919,18.2896 C32.2879,18.0846 38.8929,14.9756 43.5029,9.6726 C43.6529,9.5006 43.7269,9.2816 43.7109,9.0546 C43.6959,8.8276 43.5929,8.6196 43.4199,8.4696 C43.2469,8.3206 43.0229,8.2506 42.7989,8.2636 C42.5739,8.2796 42.3669,8.3836 42.2179,8.5546 C37.9299,13.4856 31.7939,16.3816 25.2919,16.5866 L25.2919,1.5456 C25.2919,1.0756 24.9099,0.6936 24.4409,0.6936 C23.9699,0.6936 23.5879,1.0756 23.5879,1.5456 L23.5879,16.5826 C17.4379,16.3356 11.7589,13.7536 7.5109,9.2386 C7.3559,9.0726 7.1449,8.9776 6.9169,8.9706 C6.6999,8.9686 6.4719,9.0456 6.3069,9.2016 C6.1399,9.3586 6.0449,9.5706 6.0389,9.7986 C6.0329,10.0256 6.1149,10.2416 6.2709,10.4056 C10.8429,15.2666 16.9619,18.0386 23.5879,18.2856 L23.5879,24.3696 L0.8509,24.3696 C0.3819,24.3696 -0.0001,24.7516 -0.0001,25.2216 C-0.0001,25.6916 0.3819,26.0736 0.8509,26.0736 L23.5879,26.0736 L23.5879,32.7566 C16.8929,33.0166 10.5279,35.9576 5.9979,40.9286 C5.8439,41.0966 5.7659,41.3146 5.7769,41.5426 C5.7879,41.7696 5.8869,41.9796 6.0539,42.1316 C6.2219,42.2846 6.4519,42.3696 6.6669,42.3536 C6.8949,42.3426 7.1049,42.2446 7.2589,42.0756 C11.4649,37.4586 17.3719,34.7196 23.5879,34.4596 L23.5879,50.0146 C23.5879,50.4836 23.9699,50.8666 24.4409,50.8666 C24.9099,50.8666 25.2919,50.4836 25.2919,50.0146 L25.2919,34.4546 C31.9249,34.6616 38.1439,37.6536 42.4469,42.7526 C42.6099,42.9436 42.8469,43.0536 43.0969,43.0536 C43.2979,43.0536 43.4929,42.9816 43.6469,42.8516 C43.8209,42.7046 43.9269,42.4996 43.9469,42.2726 C43.9649,42.0456 43.8949,41.8256 43.7469,41.6516 C39.1209,36.1706 32.4289,32.9586 25.2919,32.7506 L25.2919,26.0736 L49.4299,26.0736 C49.8989,26.0736 50.2809,25.6916 50.2809,25.2216 C50.2809,24.7516 49.8989,24.3696 49.4299,24.3696" id="Fill-1" fill="#50E29D" mask="url(#mask-2)"></path>
                </g>
                <g id="Group-6" transform="translate(0.000000, 0.429600)">
                    <mask id="mask-4" fill="white">
                        <use xlink:href="#path-3"></use>
                    </mask>
                    <g id="Clip-5"></g>
                    <path d="M48.5471,25.7852 C48.5471,38.6252 38.1011,49.0712 25.2611,49.0712 C12.4211,49.0712 1.9761,38.6252 1.9761,25.7852 C1.9761,12.9452 12.4211,2.4992 25.2611,2.4992 C38.1011,2.4992 48.5471,12.9452 48.5471,25.7852 M25.2611,0.5702 C11.3581,0.5702 0.0461,11.8822 0.0461,25.7852 C0.0461,39.6882 11.3581,51.0002 25.2611,51.0002 C39.1641,51.0002 50.4771,39.6882 50.4771,25.7852 C50.4771,11.8822 39.1641,0.5702 25.2611,0.5702" id="Fill-4" fill="#11193A" mask="url(#mask-4)"></path>
                </g>
            </g>
        </g>
    </g>
</svg>