<?xml version="1.0" encoding="UTF-8"?>
<svg width="50px" height="50px" viewBox="0 0 50 50" version="1.1" xmlns="http://www.w3.org/2000/svg" xmlns:xlink="http://www.w3.org/1999/xlink">
    <!-- Generator: Sketch 51.3 (57544) - http://www.bohemiancoding.com/sketch -->
    <title>Group 10</title>
    <desc>Created with Sketch.</desc>
    <defs>
        <polygon id="path-1" points="0.0002 0.404 49.597 0.404 49.597 50 0.0002 50"></polygon>
    </defs>
    <g id="Page-1" stroke="none" stroke-width="1" fill="none" fill-rule="evenodd">
        <g id="Careers" transform="translate(-1211.000000, -2499.000000)">
            <g id="Group-10" transform="translate(1211.000000, 2498.000000)">
                <g id="Group-3" transform="translate(0.000000, 0.595900)">
                    <mask id="mask-2" fill="white">
                        <use xlink:href="#path-1"></use>
                    </mask>
                    <g id="Clip-2"></g>
                    <path d="M47.5872,25.202 C47.5872,37.767 37.3632,47.99 24.7982,47.99 C12.2332,47.99 2.0102,37.767 2.0102,25.202 C2.0102,12.637 12.2332,2.414 24.7982,2.414 C37.3632,2.414 47.5872,12.637 47.5872,25.202 M24.7982,0.404 C11.1242,0.404 0.0002,11.528 0.0002,25.202 C0.0002,38.876 11.1242,50 24.7982,50 C38.4732,50 49.5972,38.876 49.5972,25.202 C49.5972,11.528 38.4732,0.404 24.7982,0.404" id="Fill-1" fill="#11193A" mask="url(#mask-2)"></path>
                </g>
                <path d="M35.7972,32.0601 C35.5592,32.0721 35.3402,32.1761 35.1782,32.3521 C32.5802,35.2241 28.8702,36.8701 24.9992,36.8701 C20.8632,36.8701 16.9872,35.0301 14.3652,31.8201 C14.0542,31.4391 13.4912,31.3841 13.1102,31.6941 C12.7302,32.0061 12.6712,32.5691 12.9842,32.9511 C15.9432,36.5761 20.3232,38.6551 24.9992,38.6551 C29.3722,38.6551 33.5662,36.7951 36.5042,33.5501 C36.8342,33.1851 36.8052,32.6201 36.4412,32.2901 C36.2642,32.1301 36.0362,32.0531 35.7972,32.0601" id="Fill-4" fill="#50E29D"></path>
                <path d="M16.4329,18.9092 C18.7349,18.9092 20.6079,20.7822 20.6079,23.0842 C20.6079,23.5762 21.0079,23.9762 21.4999,23.9762 C21.9919,23.9762 22.3929,23.5762 22.3929,23.0842 C22.3929,19.7982 19.7189,17.1242 16.4329,17.1242 C13.1469,17.1242 10.4739,19.7982 10.4739,23.0842 C10.4739,23.5762 10.8739,23.9762 11.3669,23.9762 C11.8579,23.9762 12.2589,23.5762 12.2589,23.0842 C12.2589,20.7822 14.1309,18.9092 16.4329,18.9092" id="Fill-6" fill="#50E29D"></path>
                <path d="M33.1937,17.1246 C29.9077,17.1246 27.2347,19.7976 27.2347,23.0836 C27.2347,23.5766 27.6347,23.9766 28.1277,23.9766 C28.6197,23.9766 29.0197,23.5766 29.0197,23.0836 C29.0197,20.7826 30.8927,18.9096 33.1937,18.9096 C35.4967,18.9096 37.3697,20.7826 37.3697,23.0836 C37.3697,23.5766 37.7697,23.9766 38.2617,23.9766 C38.7537,23.9766 39.1547,23.5766 39.1547,23.0836 C39.1547,19.7976 36.4797,17.1246 33.1937,17.1246" id="Fill-8" fill="#50E29D"></path>
            </g>
        </g>
    </g>
</svg>