<?xml version="1.0" encoding="UTF-8"?>
<svg width="109px" height="109px" viewBox="0 0 109 109" version="1.1" xmlns="http://www.w3.org/2000/svg" xmlns:xlink="http://www.w3.org/1999/xlink">
    <!-- Generator: Sketch 51.3 (57544) - http://www.bohemiancoding.com/sketch -->
    <title>Group 13</title>
    <desc>Created with Sketch.</desc>
    <defs>
        <polygon id="path-1" points="0 0.881 108.1189 0.881 108.1189 109 0 109"></polygon>
    </defs>
    <g id="Page-1" stroke="none" stroke-width="1" fill="none" fill-rule="evenodd">
        <g id="Careers" transform="translate(-1094.000000, -3058.000000)">
            <g id="Group-13" transform="translate(1094.000000, 3057.000000)">
                <g id="Group-12">
                    <g id="Group-3" transform="translate(0.000000, 0.119000)">
                        <mask id="mask-2" fill="white">
                            <use xlink:href="#path-1"></use>
                        </mask>
                        <g id="Clip-2"></g>
                        <path d="M108.1189,54.9406 C108.1189,84.7966 83.9159,109.0006 54.0589,109.0006 C24.2029,109.0006 -0.0001,84.7966 -0.0001,54.9406 C-0.0001,25.0846 24.2029,0.8806 54.0589,0.8806 C83.9159,0.8806 108.1189,25.0846 108.1189,54.9406" id="Fill-1" fill="#19E69B" mask="url(#mask-2)"></path>
                    </g>
                    <path d="M85.8757,55.1485 C85.8757,72.6975 71.6487,86.9235 54.1007,86.9235 C36.5507,86.9235 22.3247,72.6975 22.3247,55.1485 C22.3247,37.5995 36.5507,23.3735 54.1007,23.3735 C71.6487,23.3735 85.8757,37.5995 85.8757,55.1485 Z" id="Stroke-4" stroke="#11193A" stroke-width="1.189" stroke-linecap="round" stroke-linejoin="round"></path>
                    <path d="M68.8474,62.2994 C65.2754,66.2454 60.1124,68.7244 54.3704,68.7244 C48.2704,68.7244 42.8244,65.9264 39.2434,61.5444" id="Stroke-6" stroke="#FFFFFF" stroke-width="1.189" stroke-linecap="round" stroke-linejoin="round"></path>
                    <path d="M36.1619,51.5245 C36.1619,47.7875 39.1909,44.7575 42.9299,44.7575 C46.6669,44.7575 49.6959,47.7875 49.6959,51.5245" id="Stroke-8" stroke="#FFFFFF" stroke-width="1.189" stroke-linecap="round" stroke-linejoin="round"></path>
                    <path d="M58.5457,51.5245 C58.5457,47.7875 61.5757,44.7575 65.3137,44.7575 C69.0507,44.7575 72.0807,47.7875 72.0807,51.5245" id="Stroke-10" stroke="#FFFFFF" stroke-width="1.189" stroke-linecap="round" stroke-linejoin="round"></path>
                </g>
            </g>
        </g>
    </g>
</svg>