<?xml version="1.0" encoding="UTF-8"?>
<svg width="91px" height="128px" viewBox="0 0 91 128" version="1.1" xmlns="http://www.w3.org/2000/svg" xmlns:xlink="http://www.w3.org/1999/xlink">
    <!-- Generator: Sketch 51.3 (57544) - http://www.bohemiancoding.com/sketch -->
    <title>Group 6</title>
    <desc>Created with Sketch.</desc>
    <defs>
        <polygon id="path-1" points="0 0.776 90.02 0.776 90.02 128 0 128"></polygon>
    </defs>
    <g id="Page-1" stroke="none" stroke-width="1" fill="none" fill-rule="evenodd">
        <g id="Careers" transform="translate(-595.000000, -1610.000000)">
            <g id="Group-6" transform="translate(595.000000, 1609.000000)">
                <path d="M48.849,96.6309 C48.849,108.4029 39.306,117.9459 27.535,117.9459 C15.763,117.9459 6.22,108.4029 6.22,96.6309 C6.22,84.8599 15.763,75.3169 27.535,75.3169 C39.306,75.3169 48.849,84.8599 48.849,96.6309" id="Fill-1" fill="#50E29D"></path>
                <g id="Group-5" transform="translate(0.000000, 0.224000)">
                    <mask id="mask-2" fill="white">
                        <use xlink:href="#path-1"></use>
                    </mask>
                    <g id="Clip-4"></g>
                    <path d="M30.268,44.046 C42.533,45.256 52.314,55.037 53.526,67.302 L53.688,68.949 L28.621,68.949 L28.621,43.883 L30.268,44.046 Z M53.648,100.315 C53.631,114.573 42.018,126.186 27.76,126.202 C13.425,126.187 1.812,114.573 1.795,100.315 L1.795,70.747 L53.648,70.747 L53.648,100.315 Z M1.92,67.302 C3.131,55.037 12.912,45.256 25.176,44.046 L26.824,43.883 L26.824,68.949 L1.758,68.949 L1.92,67.302 Z M90.02,29.671 L90.02,17.049 L88.223,17.049 L88.223,29.673 C88.246,34.043 86.563,38.167 83.484,41.278 C80.405,44.389 76.298,46.115 71.92,46.138 L71.834,46.138 C62.837,46.138 55.495,38.843 55.448,29.836 L55.448,15.167 C55.467,11.337 53.997,7.735 51.307,5.019 C48.618,2.302 45.032,0.795 41.208,0.776 L41.134,0.776 C37.339,0.776 33.767,2.245 31.068,4.917 C28.351,7.607 26.844,11.193 26.825,15.015 L26.825,42.11 L25.448,42.223 C11.197,43.395 0.019,55.515 0,69.814 L0,100.313 C0.017,115.562 12.438,127.983 27.69,128 C43.01,127.983 55.431,115.562 55.448,100.311 L55.448,69.812 C55.429,55.515 44.251,43.396 30,42.223 L28.623,42.11 L28.623,15.167 C28.603,11.834 29.886,8.683 32.235,6.306 C34.584,3.928 37.719,2.608 41.062,2.588 L41.139,2.588 C44.453,2.588 47.573,3.868 49.932,6.199 C52.31,8.548 53.63,11.683 53.65,15.026 L53.65,29.672 C53.662,39.687 61.82,47.846 71.836,47.859 C81.85,47.847 90.009,39.688 90.02,29.671 Z" id="Fill-3" fill="#242F4E" mask="url(#mask-2)"></path>
                </g>
            </g>
        </g>
    </g>
</svg>