<?xml version="1.0" encoding="UTF-8"?>
<svg width="64px" height="64px" viewBox="0 0 64 64" version="1.1" xmlns="http://www.w3.org/2000/svg" xmlns:xlink="http://www.w3.org/1999/xlink">
    <!-- Generator: Sketch 51.3 (57544) - http://www.bohemiancoding.com/sketch -->
    <title>Group 8</title>
    <desc>Created with Sketch.</desc>
    <defs>
        <polygon id="path-1" points="0.896906185 0.401 32.6711 0.401 32.6711 52.0190219 0.896906185 52.0190219"></polygon>
    </defs>
    <g id="Page-1" stroke="none" stroke-width="1" fill="none" fill-rule="evenodd">
        <g id="Group-8" transform="translate(0.000000, -1.000000)">
            <g id="Group-5" transform="translate(15.000000, 0.599400)">
                <mask id="mask-2" fill="white">
                    <use xlink:href="#path-1"></use>
                </mask>
                <g id="Clip-4"></g>
                <path d="M17.6681,48.2903 L17.5331,35.1463 L17.6861,35.1003 C17.8251,35.0573 17.9441,35.0133 18.0611,34.9633 L18.1261,34.9333 C18.2531,34.8733 18.3381,34.8303 18.4211,34.7823 L18.5191,34.7233 C18.6091,34.6673 18.6961,34.6063 18.7801,34.5423 L18.9711,34.6663 L18.8381,34.4993 C18.9391,34.4183 19.0361,34.3323 19.1271,34.2403 L19.1821,34.1803 C19.2501,34.1073 19.3151,34.0323 19.3771,33.9543 C19.4031,33.9203 19.4281,33.8873 19.4521,33.8533 C19.5081,33.7763 19.5581,33.7023 19.6041,33.6253 L19.6671,33.5223 C19.7281,33.4133 19.7841,33.3023 19.8321,33.1873 L19.8481,33.1453 C19.9001,33.0073 19.9341,32.9113 19.9621,32.8143 L19.9981,32.6783 C20.0131,32.6183 20.0251,32.5613 20.0361,32.5023 C20.0471,32.4503 20.0561,32.3973 20.0641,32.3443 C20.0691,32.2913 20.0761,32.2363 20.0811,32.1813 C20.0871,32.1233 20.0911,32.0643 20.0931,32.0063 C20.0951,31.9583 20.0951,31.9103 20.0951,31.8613 C20.0941,31.7983 20.0931,31.7333 20.0881,31.6693 C20.0861,31.6253 20.0821,31.5843 20.0771,31.5433 C20.0701,31.4713 20.0611,31.4003 20.0491,31.3303 L20.0281,31.2203 C20.0141,31.1453 19.9951,31.0723 19.9761,30.9983 L20.1671,30.8813 L19.9641,30.9453 L19.9441,30.8923 C19.9231,30.8233 19.8991,30.7563 19.8741,30.6893 C19.8581,30.6483 19.8431,30.6083 19.8261,30.5693 C19.8021,30.5113 19.7741,30.4553 19.7471,30.4003 C19.7251,30.3533 19.7011,30.3083 19.6781,30.2633 C19.6511,30.2173 19.6241,30.1713 19.5951,30.1253 C19.5651,30.0763 19.5361,30.0293 19.5051,29.9843 C19.4771,29.9433 19.4461,29.9033 19.4161,29.8643 C19.3691,29.8023 19.3411,29.7653 19.3111,29.7283 C19.2761,29.6873 19.2411,29.6493 19.2061,29.6113 C19.1481,29.5503 19.1231,29.5223 19.0951,29.4953 C19.0491,29.4493 19.0011,29.4073 18.9521,29.3653 L18.8591,29.2843 C18.8051,29.2393 18.7481,29.1993 18.6911,29.1583 L18.5991,29.0933 C18.5421,29.0553 18.4821,29.0203 18.4231,28.9853 L18.3181,28.9263 C18.2621,28.8963 18.2051,28.8693 18.1471,28.8433 C18.1021,28.8223 18.0571,28.8013 18.0101,28.7823 C17.9611,28.7623 17.9091,28.7443 17.8581,28.7263 C17.8021,28.7053 17.7431,28.6863 17.6861,28.6693 L17.6781,28.4423 L17.6231,28.6483 L17.5481,28.6323 C17.4841,28.6163 17.4201,28.6033 17.3561,28.5913 C17.3111,28.5823 17.2651,28.5743 17.2181,28.5683 C17.1561,28.5593 17.0951,28.5523 17.0321,28.5473 C16.9811,28.5423 16.9321,28.5393 16.8801,28.5373 C16.8251,28.5353 16.7701,28.5353 16.7121,28.5353 C16.6541,28.5353 16.5991,28.5373 16.5421,28.5403 C16.4921,28.5433 16.4421,28.5483 16.3921,28.5533 C16.3291,28.5603 16.2681,28.5683 16.2061,28.5783 C16.1601,28.5853 16.1141,28.5953 16.0681,28.6043 C16.0051,28.6173 15.9411,28.6323 15.8781,28.6493 L15.8321,28.6613 L15.7441,28.4623 L15.7851,28.6743 L15.7391,28.6893 C15.6841,28.7073 15.6261,28.7283 15.5691,28.7493 C15.5191,28.7683 15.4681,28.7883 15.4181,28.8093 C15.3721,28.8293 15.3281,28.8503 15.2831,28.8723 C15.2261,28.8993 15.1691,28.9283 15.1151,28.9583 C15.0791,28.9783 15.0451,28.9983 15.0111,29.0193 C14.9511,29.0563 14.8931,29.0923 14.8361,29.1313 L14.7751,29.1763 C14.6891,29.2403 14.6341,29.2823 14.5811,29.3273 L14.4741,29.4243 C14.4321,29.4633 14.3891,29.5023 14.3501,29.5433 C14.3201,29.5723 14.2931,29.6033 14.2661,29.6343 L14.0681,29.5353 L14.2281,29.6773 C14.1971,29.7103 14.1671,29.7453 14.1391,29.7803 C14.1081,29.8173 14.0811,29.8553 14.0531,29.8943 L13.8471,29.8153 L14.0201,29.9403 C13.9951,29.9743 13.9711,30.0073 13.9481,30.0413 C13.9201,30.0863 13.8911,30.1343 13.8621,30.1823 C13.8351,30.2303 13.8071,30.2773 13.7811,30.3253 C13.7591,30.3693 13.7371,30.4153 13.7161,30.4613 C13.6891,30.5183 13.6641,30.5743 13.6411,30.6323 C13.6241,30.6723 13.6091,30.7123 13.5951,30.7523 C13.5711,30.8203 13.5481,30.8893 13.5271,30.9583 L13.3061,30.9513 L13.5121,31.0063 L13.2921,31.0133 L13.4991,31.0653 C13.4811,31.1393 13.4641,31.2123 13.4511,31.2883 L13.4331,31.3983 C13.4231,31.4683 13.4141,31.5403 13.4081,31.6123 L13.4001,31.7373 C13.3971,31.8003 13.3971,31.8653 13.3981,31.9303 C13.3981,31.9793 13.3991,32.0273 13.4021,32.0763 C13.4061,32.1323 13.4111,32.1913 13.4181,32.2503 C13.4241,32.3043 13.4321,32.3593 13.4391,32.4143 C13.4481,32.4653 13.4581,32.5173 13.4691,32.5703 C13.4811,32.6273 13.4951,32.6853 13.5111,32.7423 L13.5221,32.7903 L13.3251,32.8853 L13.5351,32.8383 C13.5801,32.9773 13.6151,33.0723 13.6541,33.1653 L13.6721,33.2123 C13.7381,33.3643 13.7961,33.4743 13.8591,33.5823 L13.9011,33.6473 C13.9741,33.7603 14.0241,33.8333 14.0771,33.9043 C14.1041,33.9393 14.1301,33.9733 14.1571,34.0063 C14.2221,34.0843 14.2881,34.1583 14.3581,34.2293 L14.2661,34.4423 L14.4141,34.2893 C14.5071,34.3783 14.6051,34.4633 14.7091,34.5423 L14.6421,34.7563 L14.7681,34.5843 C14.8531,34.6463 14.9401,34.7053 15.0311,34.7593 L15.1321,34.8163 C15.2151,34.8623 15.3011,34.9043 15.3901,34.9423 L15.4961,34.9903 C15.6121,35.0373 15.7321,35.0793 15.8571,35.1133 L16.0121,35.1563 L16.0271,35.3213 L16.1611,48.3063 L2.6741,25.7973 L2.9601,25.5883 C4.5871,24.4683 6.0081,23.1063 7.1871,21.5373 C10.2391,17.5603 10.7901,13.3113 10.9391,10.4603 L10.9481,10.2603 L22.0991,10.1453 L22.1131,10.3463 C22.3201,13.1923 22.9581,17.4293 26.0901,21.3413 C27.3021,22.8873 28.7501,24.2203 30.3961,25.3033 L30.6911,25.5093 L17.6681,48.2903 Z M16.8211,33.7393 C16.8041,33.7423 16.7861,33.7453 16.7671,33.7453 L16.7661,33.7453 L16.7091,33.7413 C15.9901,33.7253 15.3401,33.2913 15.0551,32.6353 C14.9561,32.4083 14.9041,32.1673 14.9021,31.9203 C14.8921,30.9493 15.6471,30.1343 16.6191,30.0673 C16.6731,30.0593 16.6921,30.0533 16.7311,30.0563 C16.7581,30.0563 16.7851,30.0593 16.8121,30.0623 C17.8111,30.1123 18.5811,30.9113 18.5901,31.8823 C18.5931,32.1303 18.5471,32.3713 18.4531,32.6003 C18.1811,33.2623 17.5401,33.7093 16.8211,33.7393 Z M8.2641,8.7813 L8.2521,8.7813 C6.7721,8.7883 5.5581,7.5923 5.5411,6.1123 L5.5001,2.1393 L27.3801,1.9153 L27.4211,5.8883 C27.4341,7.3723 26.2371,8.5943 24.7531,8.6123 L8.2641,8.7813 Z M32.4611,25.1983 C32.4591,25.1603 32.4511,25.1213 32.4421,25.0813 C32.3891,24.8663 32.2671,24.7043 32.0971,24.6023 L31.9341,24.5093 C31.8561,24.4653 31.8081,24.4373 31.7581,24.4053 C29.5381,22.9373 27.7791,21.2313 26.4941,19.3113 C25.7711,18.2133 25.1761,17.0303 24.7281,15.7953 L24.6921,15.6983 C24.6251,15.5103 24.5631,15.3183 24.5021,15.1263 C24.4641,15.0043 24.4261,14.8823 24.3921,14.7613 L24.3561,14.6373 C23.9891,13.3323 23.7511,11.9333 23.6301,10.3583 L23.6121,10.1303 L24.7691,10.1193 C27.0831,10.0923 28.9491,8.1873 28.9291,5.8723 L28.9291,5.8443 L28.8801,1.1463 C28.8781,0.9453 28.7981,0.7573 28.6541,0.6163 C28.5101,0.4753 28.3251,0.3943 28.1191,0.4003 L4.7301,0.6403 C4.5281,0.6433 4.3411,0.7233 4.1991,0.8663 C4.0591,1.0103 3.9821,1.2003 3.9841,1.4013 L4.0331,6.1243 C4.0601,8.4353 5.9531,10.2973 8.2591,10.2883 L8.2791,10.2883 L9.4361,10.2763 L9.4231,10.5033 C9.3331,12.0823 9.1241,13.4863 8.7831,14.7963 L8.7511,14.9233 C8.7191,15.0433 8.6841,15.1653 8.6481,15.2883 C8.5921,15.4823 8.5331,15.6743 8.4701,15.8653 L8.4471,15.9313 C8.0141,17.2063 7.4431,18.4003 6.7431,19.5133 C5.4981,21.4593 3.7731,23.2013 1.6201,24.6903 L1.5791,24.7183 C1.5371,24.7473 1.4891,24.7753 1.4431,24.8023 L1.2471,24.9203 C1.0811,25.0243 0.9631,25.1883 0.9171,25.3823 C0.9061,25.4523 0.8981,25.4873 0.8971,25.5233 C0.8961,25.5613 0.8991,25.5983 0.9031,25.6353 C0.9191,25.7673 0.9531,25.8603 1.0041,25.9463 L16.2971,51.4633 L16.5091,51.7353 L16.1981,51.8323 C16.1381,51.8443 16.0781,51.8583 16.0171,51.8753 C16.7311,52.0453 17.3961,52.0643 18.0521,51.9333 C17.9301,51.8923 17.8071,51.8593 17.6831,51.8333 L17.3431,51.7623 L17.5611,51.4903 L17.7431,51.5443 L17.7451,51.5353 L17.5971,51.4503 L32.3621,25.6253 C32.4131,25.5373 32.4451,25.4433 32.4571,25.3443 L32.6711,25.2953 L32.4581,25.2883 C32.4611,25.2313 32.4631,25.2153 32.4611,25.1983 Z" id="Fill-3" fill="#748494" mask="url(#mask-2)"></path>
            </g>
            <path d="M5.8195,38.3418 L5.9145,38.7228 C8.2945,48.3448 15.7505,55.8008 25.3725,58.1838 L25.7275,58.2718 L25.7485,58.6378 C25.9315,62.0018 28.7065,64.6128 32.0705,64.5988 L32.1045,64.5988 C35.4855,64.5668 38.2265,61.8948 38.3465,58.5168 L38.3595,58.1508 L38.7125,58.0558 C48.2805,55.4698 55.5825,47.8588 57.7695,38.1908 L57.8565,37.8078 L62.8455,37.7578 C63.2305,37.7348 63.5515,37.3988 63.5545,36.9918 L63.4515,26.9428 C63.4495,26.7318 63.3405,26.5928 63.2505,26.5138 C63.1155,26.3958 62.9265,26.3288 62.7335,26.3298 L62.7285,26.3298 L52.6725,26.4328 C52.4935,26.4308 52.3225,26.4918 52.2045,26.6088 C52.0875,26.7258 52.0205,26.8878 52.0245,27.0538 L52.1275,37.1168 C52.1325,37.5148 52.4385,37.8618 52.7865,37.8608 L52.7895,37.8608 L56.4675,37.8228 L56.3125,38.4448 C54.1235,47.2268 47.3515,54.2078 38.6395,56.6628 L38.1805,56.7918 L38.0335,56.3388 C37.1825,53.7208 34.7695,51.9778 32.0205,51.9888 L31.9765,51.9888 C29.2095,52.0198 26.8145,53.8208 26.0165,56.4698 L25.8795,56.9268 L25.4175,56.8068 C16.6515,54.5318 9.7365,47.6888 7.3715,38.9458 L7.2035,38.3278 L10.8845,38.2898 C11.1075,38.2878 11.2595,38.1518 11.3315,38.0708 C11.4605,37.9238 11.5325,37.7278 11.5305,37.5338 L11.4265,27.4758 C11.4275,27.3038 11.3585,27.1428 11.2385,27.0288 C11.1185,26.9148 10.9565,26.8518 10.7885,26.8628 L0.7115,26.9658 C0.3585,26.9698 -0.0035,27.2048 0.0005,27.5928 L0.1035,37.6508 C0.1155,38.0488 0.4435,38.3788 0.8505,38.3928 L5.8195,38.3418 Z" id="Fill-6" fill="#C0C6CE"></path>
        </g>
    </g>
</svg>