<?xml version="1.0" encoding="UTF-8"?>
<svg width="64px" height="64px" viewBox="0 0 64 64" version="1.1" xmlns="http://www.w3.org/2000/svg" xmlns:xlink="http://www.w3.org/1999/xlink">
    <!-- Generator: Sketch 51.3 (57544) - http://www.bohemiancoding.com/sketch -->
    <title>Group 9</title>
    <desc>Created with Sketch.</desc>
    <defs>
        <polygon id="path-1" points="0.896906185 0.401 32.6711 0.401 32.6711 52.0183219 0.896906185 52.0183219"></polygon>
        <polygon id="path-3" points="0.000467151667 0.7303 63.5545 0.7303 63.5545 39 0.000467151667 39"></polygon>
    </defs>
    <g id="Page-1" stroke="none" stroke-width="1" fill="none" fill-rule="evenodd">
        <g id="Group-9" transform="translate(0.000000, -1.000000)">
            <g id="Group-5" transform="translate(15.000000, 0.599400)">
                <mask id="mask-2" fill="white">
                    <use xlink:href="#path-1"></use>
                </mask>
                <g id="Clip-4"></g>
                <path d="M17.6681,48.2906 L17.5331,35.1466 L17.6861,35.1006 C17.8251,35.0576 17.9441,35.0136 18.0611,34.9636 L18.1261,34.9336 C18.2531,34.8736 18.3381,34.8296 18.4211,34.7826 L18.5191,34.7236 C18.6091,34.6666 18.6961,34.6066 18.7801,34.5426 L18.9711,34.6666 L18.8381,34.4996 C18.9391,34.4186 19.0361,34.3326 19.1271,34.2406 L19.1821,34.1796 C19.2501,34.1076 19.3151,34.0326 19.3771,33.9546 C19.4031,33.9196 19.4281,33.8876 19.4521,33.8536 C19.5081,33.7766 19.5581,33.7026 19.6041,33.6256 L19.6671,33.5216 C19.7281,33.4136 19.7841,33.3016 19.8321,33.1876 L19.8481,33.1456 C19.9001,33.0066 19.9341,32.9116 19.9621,32.8136 L19.9981,32.6786 C20.0131,32.6186 20.0251,32.5606 20.0361,32.5026 C20.0471,32.4496 20.0561,32.3966 20.0641,32.3446 C20.0691,32.2916 20.0761,32.2366 20.0811,32.1816 C20.0871,32.1226 20.0911,32.0646 20.0931,32.0066 C20.0951,31.9586 20.0951,31.9106 20.0951,31.8616 C20.0941,31.7986 20.0931,31.7336 20.0881,31.6686 C20.0861,31.6246 20.0821,31.5846 20.0771,31.5436 C20.0701,31.4716 20.0611,31.4006 20.0491,31.3306 L20.0281,31.2206 C20.0141,31.1456 19.9951,31.0716 19.9761,30.9986 L20.1671,30.8816 L19.9641,30.9456 L19.9441,30.8916 C19.9231,30.8236 19.8991,30.7556 19.8741,30.6896 C19.8581,30.6486 19.8431,30.6076 19.8261,30.5696 C19.8021,30.5106 19.7741,30.4556 19.7471,30.4006 C19.7251,30.3536 19.7011,30.3086 19.6781,30.2636 C19.6511,30.2166 19.6241,30.1716 19.5951,30.1256 C19.5651,30.0766 19.5361,30.0296 19.5051,29.9836 C19.4771,29.9426 19.4461,29.9036 19.4161,29.8646 C19.3691,29.8026 19.3411,29.7646 19.3111,29.7286 C19.2761,29.6866 19.2411,29.6496 19.2061,29.6116 C19.1481,29.5506 19.1231,29.5216 19.0951,29.4956 C19.0491,29.4496 19.0011,29.4066 18.9521,29.3646 L18.8591,29.2846 C18.8051,29.2396 18.7481,29.1986 18.6911,29.1586 L18.5991,29.0926 C18.5421,29.0556 18.4821,29.0196 18.4231,28.9856 L18.3181,28.9256 C18.2621,28.8956 18.2051,28.8696 18.1471,28.8436 C18.1021,28.8216 18.0571,28.8016 18.0101,28.7826 C17.9611,28.7626 17.9091,28.7436 17.8581,28.7256 C17.8021,28.7056 17.7431,28.6866 17.6861,28.6686 L17.6781,28.4426 L17.6231,28.6486 L17.5481,28.6326 C17.4841,28.6166 17.4201,28.6036 17.3561,28.5906 C17.3111,28.5826 17.2651,28.5746 17.2181,28.5676 C17.1561,28.5596 17.0951,28.5526 17.0321,28.5466 C16.9811,28.5426 16.9321,28.5396 16.8801,28.5376 C16.8251,28.5356 16.7701,28.5356 16.7121,28.5346 C16.6541,28.5356 16.5991,28.5376 16.5421,28.5406 C16.4921,28.5436 16.4421,28.5486 16.3921,28.5536 C16.3291,28.5606 16.2681,28.5676 16.2061,28.5786 C16.1601,28.5856 16.1141,28.5946 16.0681,28.6036 C16.0051,28.6176 15.9411,28.6326 15.8781,28.6496 L15.8321,28.6606 L15.7441,28.4626 L15.7851,28.6736 L15.7391,28.6896 C15.6841,28.7076 15.6261,28.7276 15.5691,28.7486 C15.5191,28.7686 15.4681,28.7876 15.4181,28.8096 C15.3721,28.8286 15.3281,28.8506 15.2831,28.8726 C15.2261,28.8996 15.1691,28.9276 15.1151,28.9576 C15.0791,28.9786 15.0451,28.9986 15.0111,29.0196 C14.9511,29.0566 14.8931,29.0926 14.8361,29.1316 L14.7751,29.1756 C14.6891,29.2406 14.6341,29.2826 14.5811,29.3266 L14.4741,29.4246 C14.4321,29.4636 14.3891,29.5016 14.3501,29.5426 C14.3201,29.5726 14.2931,29.6036 14.2661,29.6346 L14.0681,29.5356 L14.2281,29.6766 C14.1971,29.7106 14.1671,29.7456 14.1391,29.7806 C14.1081,29.8176 14.0811,29.8556 14.0531,29.8936 L13.8471,29.8156 L14.0201,29.9406 C13.9951,29.9746 13.9711,30.0066 13.9481,30.0406 C13.9201,30.0856 13.8911,30.1346 13.8621,30.1826 C13.8351,30.2296 13.8071,30.2766 13.7811,30.3256 C13.7591,30.3696 13.7371,30.4156 13.7161,30.4616 C13.6891,30.5186 13.6641,30.5746 13.6411,30.6316 C13.6241,30.6716 13.6091,30.7126 13.5951,30.7526 C13.5711,30.8206 13.5481,30.8896 13.5271,30.9586 L13.3061,30.9516 L13.5121,31.0066 L13.2921,31.0136 L13.4991,31.0656 C13.4811,31.1386 13.4641,31.2126 13.4511,31.2876 L13.4331,31.3986 C13.4231,31.4686 13.4141,31.5406 13.4081,31.6116 L13.4001,31.7366 C13.3971,31.8006 13.3971,31.8646 13.3981,31.9306 C13.3981,31.9796 13.3991,32.0276 13.4021,32.0756 C13.4061,32.1326 13.4111,32.1916 13.4181,32.2496 C13.4241,32.3046 13.4321,32.3586 13.4391,32.4146 C13.4481,32.4656 13.4581,32.5176 13.4691,32.5696 C13.4811,32.6266 13.4951,32.6846 13.5111,32.7426 L13.5221,32.7906 L13.3251,32.8856 L13.5351,32.8386 C13.5801,32.9776 13.6151,33.0716 13.6541,33.1656 L13.6721,33.2116 C13.7381,33.3636 13.7961,33.4746 13.8591,33.5826 L13.9011,33.6476 C13.9741,33.7596 14.0241,33.8326 14.0771,33.9046 C14.1041,33.9386 14.1301,33.9736 14.1571,34.0066 C14.2221,34.0846 14.2881,34.1586 14.3581,34.2296 L14.2661,34.4416 L14.4141,34.2886 C14.5071,34.3786 14.6051,34.4636 14.7091,34.5426 L14.6421,34.7566 L14.7681,34.5836 C14.8531,34.6466 14.9401,34.7056 15.0311,34.7596 L15.1321,34.8166 C15.2151,34.8616 15.3011,34.9036 15.3901,34.9426 L15.4961,34.9906 C15.6121,35.0366 15.7321,35.0796 15.8571,35.1136 L16.0121,35.1566 L16.0271,35.3216 L16.1611,48.3056 L2.6741,25.7976 L2.9601,25.5886 C4.5871,24.4686 6.0081,23.1056 7.1871,21.5376 C10.2391,17.5606 10.7901,13.3116 10.9391,10.4606 L10.9481,10.2606 L22.0991,10.1456 L22.1131,10.3466 C22.3201,13.1926 22.9581,17.4296 26.0901,21.3416 C27.3021,22.8876 28.7501,24.2196 30.3961,25.3036 L30.6911,25.5096 L17.6681,48.2906 Z M16.8211,33.7396 C16.8041,33.7426 16.7861,33.7446 16.7671,33.7456 L16.7661,33.7456 L16.7091,33.7416 C15.9901,33.7256 15.3401,33.2906 15.0551,32.6356 C14.9561,32.4076 14.9041,32.1676 14.9021,31.9206 C14.8921,30.9486 15.6471,30.1346 16.6191,30.0666 C16.6731,30.0596 16.6921,30.0536 16.7311,30.0566 C16.7581,30.0556 16.7851,30.0586 16.8121,30.0616 C17.8111,30.1126 18.5811,30.9116 18.5901,31.8826 C18.5931,32.1296 18.5471,32.3716 18.4531,32.6006 C18.1811,33.2626 17.5401,33.7096 16.8211,33.7396 Z M8.2641,8.7816 L8.2521,8.7816 C6.7721,8.7876 5.5581,7.5926 5.5411,6.1126 L5.5001,2.1396 L27.3801,1.9156 L27.4211,5.8876 C27.4341,7.3726 26.2371,8.5946 24.7531,8.6126 L8.2641,8.7816 Z M32.4611,25.1986 C32.4591,25.1606 32.4511,25.1206 32.4421,25.0816 C32.3891,24.8666 32.2671,24.7046 32.0971,24.6026 L31.9341,24.5086 C31.8561,24.4656 31.8081,24.4376 31.7581,24.4046 C29.5381,22.9376 27.7791,21.2316 26.4941,19.3116 C25.7711,18.2126 25.1761,17.0306 24.7281,15.7946 L24.6921,15.6986 C24.6251,15.5096 24.5631,15.3176 24.5021,15.1256 C24.4641,15.0036 24.4261,14.8826 24.3921,14.7616 L24.3561,14.6376 C23.9891,13.3326 23.7511,11.9336 23.6301,10.3576 L23.6121,10.1306 L24.7691,10.1186 C27.0831,10.0926 28.9491,8.1866 28.9291,5.8726 L28.9291,5.8446 L28.8801,1.1456 C28.8781,0.9446 28.7981,0.7566 28.6541,0.6166 C28.5101,0.4756 28.3251,0.3946 28.1191,0.4006 L4.7301,0.6406 C4.5281,0.6426 4.3411,0.7226 4.1991,0.8666 C4.0591,1.0106 3.9821,1.2006 3.9841,1.4016 L4.0331,6.1246 C4.0601,8.4346 5.9531,10.2976 8.2591,10.2886 C8.2661,10.2886 8.2721,10.2876 8.2791,10.2876 L9.4361,10.2756 L9.4231,10.5036 C9.3331,12.0826 9.1241,13.4856 8.7831,14.7966 L8.7511,14.9236 C8.7191,15.0436 8.6841,15.1656 8.6481,15.2886 C8.5921,15.4816 8.5331,15.6746 8.4701,15.8646 L8.4471,15.9316 C8.0141,17.2056 7.4431,18.4006 6.7431,19.5126 C5.4981,21.4596 3.7731,23.2016 1.6201,24.6906 L1.5791,24.7186 C1.5371,24.7476 1.4891,24.7746 1.4431,24.8026 L1.2471,24.9206 C1.0811,25.0236 0.9631,25.1886 0.9171,25.3826 C0.9061,25.4516 0.8981,25.4876 0.8971,25.5236 C0.8961,25.5606 0.8991,25.5976 0.9031,25.6356 C0.9191,25.7666 0.9531,25.8606 1.0041,25.9466 L16.2971,51.4636 L16.5091,51.7356 L16.1981,51.8326 C16.1381,51.8446 16.0781,51.8586 16.0171,51.8746 C16.7311,52.0446 17.3961,52.0636 18.0521,51.9326 C17.9301,51.8926 17.8071,51.8586 17.6831,51.8326 L17.3431,51.7616 L17.5611,51.4906 L17.7431,51.5446 L17.7451,51.5346 L17.5971,51.4496 L32.3621,25.6246 C32.4131,25.5376 32.4451,25.4436 32.4571,25.3446 L32.6711,25.2946 L32.4581,25.2876 C32.4611,25.2316 32.4631,25.2146 32.4611,25.1986 Z" id="Fill-3" fill="#11193A" mask="url(#mask-2)"></path>
            </g>
            <g id="Group-8" transform="translate(0.000000, 25.599400)">
                <mask id="mask-4" fill="white">
                    <use xlink:href="#path-3"></use>
                </mask>
                <g id="Clip-7"></g>
                <path d="M5.8195,12.7423 L5.9145,13.1233 C8.2945,22.7453 15.7505,30.2013 25.3725,32.5843 L25.7275,32.6723 L25.7485,33.0383 C25.9315,36.4023 28.7065,39.0133 32.0705,39.0003 C32.0825,39.0003 32.0935,39.0003 32.1045,38.9993 C35.4855,38.9673 38.2265,36.2963 38.3465,32.9173 L38.3595,32.5513 L38.7125,32.4563 C48.2805,29.8703 55.5825,22.2593 57.7695,12.5913 L57.8565,12.2093 L62.8455,12.1583 C63.2305,12.1363 63.5515,11.7993 63.5545,11.3923 L63.4515,1.3433 C63.4495,1.1323 63.3405,0.9933 63.2505,0.9143 C63.1155,0.7973 62.9265,0.7303 62.7335,0.7303 L62.7285,0.7303 L52.6725,0.8343 C52.4935,0.8313 52.3225,0.8923 52.2045,1.0093 C52.0875,1.1263 52.0205,1.2893 52.0245,1.4553 L52.1275,11.5173 C52.1325,11.9163 52.4385,12.2623 52.7865,12.2613 L52.7895,12.2613 L56.4675,12.2233 L56.3125,12.8463 C54.1235,21.6283 47.3515,28.6083 38.6395,31.0633 L38.1805,31.1923 L38.0335,30.7393 C37.1825,28.1213 34.7695,26.3783 32.0205,26.3893 C32.0055,26.3893 31.9915,26.3893 31.9765,26.3893 C29.2095,26.4203 26.8145,28.2213 26.0165,30.8703 L25.8795,31.3273 L25.4175,31.2073 C16.6515,28.9323 9.7365,22.0893 7.3715,13.3473 L7.2035,12.7283 L10.8845,12.6903 C11.1075,12.6883 11.2595,12.5523 11.3315,12.4713 C11.4605,12.3253 11.5325,12.1293 11.5305,11.9343 L11.4265,1.8763 C11.4275,1.7043 11.3585,1.5443 11.2385,1.4293 C11.1185,1.3153 10.9565,1.2533 10.7885,1.2633 L0.7115,1.3663 C0.3585,1.3703 -0.0035,1.6063 0.0005,1.9933 L0.1035,12.0513 C0.1155,12.4493 0.4435,12.7793 0.8505,12.7933 L5.8195,12.7423 Z" id="Fill-6" fill="#50E29D" mask="url(#mask-4)"></path>
            </g>
        </g>
    </g>
</svg>