<?xml version="1.0" encoding="UTF-8"?>
<svg width="61px" height="66px" viewBox="0 0 61 66" version="1.1" xmlns="http://www.w3.org/2000/svg" xmlns:xlink="http://www.w3.org/1999/xlink">
    <!-- Generator: Sketch 51.3 (57544) - http://www.bohemiancoding.com/sketch -->
    <title>Group 10</title>
    <desc>Created with Sketch.</desc>
    <defs>
        <polygon id="path-1" points="0 0.925713341 60.561 0.925713341 60.561 67 0 67"></polygon>
    </defs>
    <g id="Page-1" stroke="none" stroke-width="1" fill="none" fill-rule="evenodd">
        <g id="Group-10" transform="translate(0.000000, -1.000000)">
            <path d="M41.5239,24.527 C41.5239,34.451 33.4789,42.497 23.5539,42.497 C13.6299,42.497 5.5859,34.451 5.5859,24.527 C5.5859,14.603 13.6299,6.557 23.5539,6.557 C33.4789,6.557 41.5239,14.603 41.5239,24.527" id="Fill-1" fill="#50E29D"></path>
            <path d="M33.7729,24.8327 C33.7729,30.2057 29.4179,34.5607 24.0439,34.5607 C18.6719,34.5607 14.3169,30.2057 14.3169,24.8327 C14.3169,19.4597 18.6719,15.1047 24.0439,15.1047 C29.4179,15.1047 33.7729,19.4597 33.7729,24.8327" id="Fill-3" fill="#50E29D"></path>
            <g id="Group-7" transform="translate(0.000000, 0.074800)">
                <mask id="mask-2" fill="white">
                    <use xlink:href="#path-1"></use>
                </mask>
                <g id="Clip-6"></g>
                <path d="M58.7563,62.6324 L55.7533,65.1944 L41.4353,48.4144 L44.4373,45.8524 L58.7563,62.6324 Z M9.3413,7.7984 L9.3903,7.7564 C13.9363,3.8924 19.7073,2.0244 25.6593,2.4954 C31.6213,2.9664 37.0433,5.7324 40.9273,10.2824 C44.8093,14.8324 46.6883,20.6224 46.2153,26.5844 C45.7433,32.5474 42.9783,37.9694 38.4283,41.8514 L38.2203,42.0284 C33.7043,45.7894 27.9913,47.6044 22.1263,47.1414 C16.1643,46.6694 10.7423,43.9034 6.8593,39.3544 C2.9773,34.8034 1.0983,29.0144 1.5693,23.0514 C2.0413,17.0954 4.8013,11.6794 9.3413,7.7984 Z M60.3823,62.2304 L45.0903,44.3114 C44.9613,44.1584 44.7793,44.0654 44.5793,44.0494 C44.3833,44.0334 44.1923,44.0954 44.0373,44.2234 L42.5333,45.5074 L39.9633,42.4964 L40.1543,42.3194 C44.5523,38.2414 47.2353,32.6954 47.7093,26.7024 C48.2123,20.3404 46.2083,14.1634 42.0673,9.3104 C37.9243,4.4564 32.1393,1.5054 25.7773,1.0024 C19.5193,0.5044 13.4243,2.4444 8.6083,6.4574 L8.3853,6.6444 C3.5303,10.7874 0.5793,16.5714 0.0753,22.9334 C-0.4277,29.2954 1.5763,35.4724 5.7193,40.3254 C9.8603,45.1804 15.6473,48.1314 22.0083,48.6344 C28.0033,49.1094 33.9003,47.3314 38.6183,43.6304 L38.8233,43.4684 L41.3933,46.4804 L39.8933,47.7614 C39.7393,47.8914 39.6473,48.0724 39.6313,48.2724 C39.6163,48.4724 39.6793,48.6664 39.8093,48.8174 L55.1003,66.7364 C55.2303,66.8884 55.4103,66.9814 55.6113,66.9974 C55.6323,66.9994 55.6523,67.0004 55.6733,67.0004 C55.8563,67.0004 56.0283,66.9364 56.1493,66.8264 L60.2983,63.2854 C60.4493,63.1564 60.5423,62.9754 60.5593,62.7744 C60.5743,62.5744 60.5113,62.3814 60.3823,62.2304 Z" id="Fill-5" fill="#11193A" mask="url(#mask-2)"></path>
            </g>
            <path d="M37.6359,26.5322 L36.8379,26.5322 L35.6989,26.5322 L35.5779,26.5322 C35.2989,26.5562 35.0819,26.7502 35.0209,27.0172 C34.7299,28.4692 34.1619,29.8382 33.3259,31.0732 C33.1799,31.2792 33.1929,31.5572 33.3259,31.7632 C33.3749,31.8352 33.4349,31.9082 33.5189,31.9812 C33.8709,32.3202 34.2219,32.6712 34.5729,33.0222 L34.8269,33.2762 C34.1249,34.1722 33.3139,34.9842 32.4059,35.6862 C32.2359,35.5172 32.0539,35.3352 31.8849,35.1652 C31.6189,34.8992 31.3639,34.6442 31.0979,34.3782 C31.0249,34.3062 30.9529,34.2332 30.8679,34.1842 C30.6619,34.0512 30.4079,34.0512 30.2019,34.1842 C28.9659,35.0082 27.6109,35.5652 26.1699,35.8432 C25.9399,35.8922 25.7579,36.0612 25.6979,36.2912 C25.6729,36.4002 25.6619,36.5212 25.6619,36.6552 C25.6729,37.0902 25.6729,37.5142 25.6729,37.9502 L25.6729,38.4472 C24.5719,38.5802 23.4329,38.5802 22.3189,38.4472 L22.3189,37.9502 C22.3189,37.5142 22.3189,37.0902 22.3319,36.6552 C22.3319,36.5212 22.3189,36.4002 22.2959,36.2912 C22.2349,36.0612 22.0529,35.8802 21.8229,35.8432 C20.3699,35.5652 19.0139,35.0082 17.7909,34.1842 C17.5849,34.0512 17.3309,34.0512 17.1249,34.1842 C17.0409,34.2332 16.9669,34.3062 16.8949,34.3782 C16.6399,34.6442 16.3749,34.9112 16.1079,35.1652 C15.9379,35.3352 15.7559,35.5042 15.5879,35.6862 C14.6789,34.9842 13.8679,34.1722 13.1659,33.2762 L13.4199,33.0222 C13.7709,32.6712 14.1099,32.3202 14.4729,31.9812 C14.5459,31.9082 14.6059,31.8352 14.6549,31.7632 C14.7999,31.5572 14.7999,31.2902 14.6549,31.0732 C13.8189,29.8382 13.2509,28.4692 12.9599,27.0172 C12.9119,26.7502 12.6809,26.5442 12.4029,26.5322 C12.3669,26.5322 12.3179,26.5202 12.2689,26.5322 L11.1429,26.5322 L10.3439,26.5322 C10.2719,25.9632 10.2349,25.3822 10.2349,24.8132 C10.2349,24.2312 10.2719,23.6502 10.3439,23.0812 L10.4289,23.0812 C10.9739,23.0812 11.5429,23.0812 12.0999,23.0932 C12.2569,23.0932 12.3899,23.0812 12.5109,23.0572 C12.7419,22.9972 12.9119,22.8152 12.9479,22.5852 C13.2379,21.1562 13.7959,19.8122 14.6059,18.5892 C14.7399,18.3832 14.7399,18.1292 14.6189,17.9232 C14.5339,17.7902 14.4239,17.6812 14.2799,17.5362 L14.0379,17.2932 L13.1299,16.3852 C13.8429,15.4532 14.6669,14.6422 15.5879,13.9272 C15.6959,14.0372 15.8169,14.1582 15.9259,14.2672 C16.2289,14.5692 16.5319,14.8722 16.8219,15.1752 C16.9069,15.2592 17.0409,15.3802 17.2219,15.4652 C17.4159,15.5502 17.6329,15.5262 17.8029,15.4172 C19.0259,14.6052 20.3699,14.0482 21.8109,13.7702 C22.0409,13.7222 22.2219,13.5522 22.2829,13.3342 C22.3069,13.2252 22.3189,13.1162 22.3189,12.9832 C22.3069,12.7052 22.3069,12.4382 22.3189,12.1602 L22.3189,11.7842 L22.3189,11.7112 L22.3189,11.4452 L22.3189,11.1552 C23.4329,11.0212 24.5589,11.0212 25.6729,11.1552 L25.6729,11.4452 L25.6729,11.7112 L25.6729,11.7842 L25.6729,12.1602 L25.6729,12.9832 C25.6729,13.1162 25.6849,13.2252 25.7099,13.3342 C25.7699,13.5522 25.9519,13.7342 26.1819,13.7702 C27.6229,14.0482 28.9659,14.6052 30.1899,15.4172 C30.3589,15.5262 30.5769,15.5502 30.7709,15.4652 C30.9529,15.3802 31.0859,15.2592 31.1709,15.1752 C31.4619,14.8722 31.7639,14.5692 32.0669,14.2672 C32.1749,14.1582 32.2969,14.0372 32.4059,13.9272 C33.3259,14.6422 34.1489,15.4532 34.8509,16.3612 L33.9429,17.2692 L33.7009,17.5122 C33.5559,17.6572 33.4469,17.7662 33.3619,17.8992 C33.2289,18.1052 33.2409,18.3592 33.3749,18.5652 C34.1849,19.7882 34.7429,21.1322 35.0329,22.5602 C35.0819,22.7902 35.2509,22.9722 35.4689,23.0332 C35.5899,23.0692 35.7229,23.0812 35.8799,23.0692 C36.4379,23.0452 37.0059,23.0572 37.5509,23.0572 L37.6359,23.0572 C37.7089,23.6262 37.7459,24.2192 37.7459,24.7892 C37.7459,25.3942 37.7089,25.9632 37.6359,26.5322 Z M38.7619,22.3672 C38.7139,22.0882 38.4719,21.8712 38.1929,21.8582 L38.1209,21.8582 L37.5639,21.8582 L36.1229,21.8582 C35.8199,20.5992 35.3239,19.4132 34.6449,18.2982 L34.8149,18.1292 C35.2389,17.7052 35.6629,17.2692 36.0979,16.8572 C36.3169,16.6522 36.3399,16.3132 36.1719,16.0712 C35.2139,14.7392 34.0519,13.5882 32.7199,12.6322 C32.4779,12.4622 32.1389,12.4862 31.9329,12.7052 C31.7039,12.9472 31.4619,13.1772 31.2309,13.4072 C30.9769,13.6492 30.7349,13.9032 30.4929,14.1582 C29.3789,13.4792 28.1789,12.9952 26.9209,12.6922 L26.9209,12.1722 L26.9209,11.8812 L26.9209,11.8092 L26.9209,11.4572 L26.9209,10.6462 C26.9209,10.3432 26.7029,10.0892 26.4119,10.0402 C24.8379,9.7872 23.2039,9.7872 21.6299,10.0402 C21.3269,10.0892 21.1089,10.3682 21.1209,10.6832 C21.1319,10.9362 21.1319,11.2032 21.1209,11.4572 L21.1209,11.8092 L21.1209,11.8812 L21.1209,12.1722 L21.1209,12.6922 C19.8609,12.9952 18.6629,13.4792 17.5479,14.1582 C17.3059,13.9032 17.0519,13.6612 16.8099,13.4072 C16.5799,13.1772 16.3379,12.9342 16.1079,12.7052 C15.9019,12.4862 15.5629,12.4622 15.3209,12.6322 C13.9889,13.5882 12.8269,14.7512 11.8699,16.0712 C11.6879,16.3132 11.7239,16.6522 11.9429,16.8572 C12.3789,17.2812 12.8019,17.7052 13.2259,18.1292 L13.3949,18.2982 C12.7169,19.4002 12.2209,20.5992 11.9189,21.8582 C11.4339,21.8462 10.9499,21.8462 10.4769,21.8582 L9.9209,21.8582 L9.8479,21.8582 C9.5569,21.8712 9.3149,22.0882 9.2789,22.3672 C9.1449,23.1662 9.0849,23.9892 9.0849,24.8132 C9.0849,25.6242 9.1449,26.4472 9.2789,27.2472 C9.3269,27.5252 9.5459,27.7312 9.8239,27.7552 C9.8719,27.7552 9.9319,27.7672 9.9809,27.7672 L11.2039,27.7672 L11.9299,27.7672 C12.2329,29.0382 12.7419,30.2492 13.4319,31.3632 C13.1539,31.6302 12.8749,31.9082 12.6089,32.1862 L12.1479,32.6472 C12.0759,32.7202 12.0149,32.7802 11.9659,32.8292 C11.7729,33.0462 11.7489,33.3612 11.9189,33.5912 C12.8749,34.9112 14.0249,36.0492 15.3449,37.0062 C15.5749,37.1752 15.9019,37.1512 16.1079,36.9572 C16.1319,36.9332 16.1559,36.9092 16.1689,36.8972 C16.4469,36.6062 16.7249,36.3282 17.0039,36.0492 C17.1849,35.8682 17.3799,35.6742 17.5609,35.4922 C18.6739,36.1702 19.8739,36.6672 21.1449,36.9702 L21.1449,37.9982 L21.1449,38.9792 L21.1449,39.0642 C21.1569,39.3432 21.3749,39.5852 21.6539,39.6212 C22.4279,39.7422 23.2399,39.8152 24.0389,39.8152 C24.8379,39.8152 25.6369,39.7542 26.4239,39.6212 C26.7029,39.5732 26.9209,39.3432 26.9319,39.0642 L26.9319,38.9672 L26.9319,37.9982 L26.9319,36.9702 C28.2039,36.6672 29.4029,36.1702 30.5159,35.4922 C30.6979,35.6862 30.8919,35.8682 31.0739,36.0492 C31.3519,36.3282 31.6299,36.6062 31.9089,36.8852 C31.9329,36.9092 31.9579,36.9332 31.9819,36.9572 C32.1999,37.1512 32.5139,37.1752 32.7449,37.0062 C34.0639,36.0612 35.2269,34.9112 36.1719,33.5912 C36.3399,33.3612 36.3169,33.0342 36.1229,32.8292 C36.0749,32.7802 36.0139,32.7072 35.9409,32.6472 L35.4809,32.1862 C35.2139,31.9202 34.9359,31.6422 34.6579,31.3632 C35.3479,30.2492 35.8439,29.0382 36.1589,27.7672 L36.8849,27.7672 L38.0959,27.7672 L38.2659,27.7672 C38.5449,27.7432 38.7619,27.5372 38.8109,27.2592 C38.9439,26.4592 39.0049,25.6482 39.0049,24.8252 C38.9559,23.9892 38.8949,23.1782 38.7619,22.3672 Z" id="Fill-8" fill="#11193A"></path>
        </g>
    </g>
</svg>