<?xml version="1.0" encoding="UTF-8"?>
<svg width="61px" height="66px" viewBox="0 0 61 66" version="1.1" xmlns="http://www.w3.org/2000/svg" xmlns:xlink="http://www.w3.org/1999/xlink">
    <!-- Generator: Sketch 51.3 (57544) - http://www.bohemiancoding.com/sketch -->
    <title>Group 8</title>
    <desc>Created with Sketch.</desc>
    <defs>
        <polygon id="path-1" points="0 0.925413341 60.561 0.925413341 60.561 67 0 67"></polygon>
    </defs>
    <g id="Page-1" stroke="none" stroke-width="1" fill="none" fill-rule="evenodd">
        <g id="Group-8" transform="translate(0.000000, -1.000000)">
            <path d="M41.5239,24.5272 C41.5239,34.4512 33.4789,42.4962 23.5539,42.4962 C13.6299,42.4962 5.5859,34.4512 5.5859,24.5272 C5.5859,14.6032 13.6299,6.5572 23.5539,6.5572 C33.4789,6.5572 41.5239,14.6032 41.5239,24.5272" id="Fill-1" fill="#C0C6CE"></path>
            <g id="Group-5" transform="translate(0.000000, 0.074800)">
                <mask id="mask-2" fill="white">
                    <use xlink:href="#path-1"></use>
                </mask>
                <g id="Clip-4"></g>
                <path d="M58.7563,62.6321 L55.7533,65.1951 L41.4353,48.4151 L44.4373,45.8531 L58.7563,62.6321 Z M9.3413,7.7981 L9.3903,7.7571 C13.9363,3.8921 19.7073,2.0241 25.6593,2.4951 C31.6213,2.9671 37.0433,5.7331 40.9273,10.2821 C44.8093,14.8331 46.6883,20.6221 46.2153,26.5841 L46.2153,26.5851 C45.7433,32.5471 42.9783,37.9691 38.4283,41.8521 L38.2203,42.0281 C33.7043,45.7891 27.9913,47.6051 22.1263,47.1411 C16.1643,46.6691 10.7423,43.9031 6.8593,39.3541 C2.9773,34.8031 1.0983,29.0141 1.5693,23.0511 C2.0413,17.0961 4.8013,11.6801 9.3413,7.7981 Z M60.3823,62.2301 L45.0903,44.3111 C44.9613,44.1581 44.7793,44.0651 44.5793,44.0491 C44.3833,44.0331 44.1923,44.0951 44.0373,44.2241 L42.5333,45.5071 L39.9633,42.4961 L40.1543,42.3191 C44.5523,38.2411 47.2353,32.6951 47.7093,26.7031 C48.2123,20.3401 46.2083,14.1641 42.0673,9.3101 C37.9243,4.4561 32.1393,1.5051 25.7773,1.0021 C19.5193,0.5041 13.4243,2.4441 8.6083,6.4571 L8.3853,6.6451 C3.5303,10.7871 0.5793,16.5721 0.0753,22.9331 C-0.4277,29.2951 1.5763,35.4721 5.7193,40.3261 C9.8603,45.1801 15.6473,48.1311 22.0083,48.6341 C28.0033,49.1091 33.9003,47.3311 38.6183,43.6301 L38.8233,43.4691 L41.3933,46.4801 L39.8933,47.7611 C39.7393,47.8911 39.6473,48.0731 39.6313,48.2731 C39.6163,48.4721 39.6793,48.6661 39.8093,48.8171 L55.1003,66.7361 C55.2303,66.8891 55.4103,66.9811 55.6113,66.9981 C55.6323,66.9991 55.6523,67.0001 55.6733,67.0001 C55.8563,67.0001 56.0283,66.9361 56.1493,66.8261 L60.2983,63.2851 C60.4493,63.1561 60.5423,62.9751 60.5593,62.7751 C60.5743,62.5751 60.5113,62.3811 60.3823,62.2301 Z" id="Fill-3" fill="#748494" mask="url(#mask-2)"></path>
            </g>
            <path d="M37.6359,26.5319 L36.8379,26.5319 L35.6989,26.5319 L35.5779,26.5319 C35.2989,26.5569 35.0819,26.7499 35.0209,27.0169 C34.7299,28.4699 34.1619,29.8379 33.3259,31.0729 C33.1799,31.2789 33.1929,31.5579 33.3259,31.7629 C33.3749,31.8359 33.4349,31.9089 33.5189,31.9809 C33.8709,32.3199 34.2219,32.6709 34.5729,33.0219 L34.8269,33.2769 C34.1249,34.1729 33.3139,34.9839 32.4059,35.6859 C32.2359,35.5169 32.0539,35.3349 31.8849,35.1649 C31.6189,34.8989 31.3639,34.6449 31.0979,34.3779 C31.0249,34.3059 30.9529,34.2329 30.8679,34.1849 C30.6619,34.0519 30.4079,34.0519 30.2019,34.1849 C28.9659,35.0079 27.6109,35.5649 26.1699,35.8439 C25.9399,35.8919 25.7579,36.0609 25.6979,36.2909 C25.6729,36.4009 25.6619,36.5219 25.6619,36.6549 C25.6729,37.0909 25.6729,37.5149 25.6729,37.9509 L25.6729,38.4469 C24.5719,38.5799 23.4329,38.5799 22.3189,38.4469 L22.3189,37.9509 C22.3189,37.5149 22.3189,37.0909 22.3319,36.6549 C22.3319,36.5219 22.3189,36.4009 22.2959,36.2909 C22.2349,36.0609 22.0529,35.8799 21.8229,35.8439 C20.3699,35.5649 19.0139,35.0079 17.7909,34.1849 C17.5849,34.0519 17.3309,34.0519 17.1249,34.1849 C17.0409,34.2329 16.9669,34.3059 16.8949,34.3779 C16.6399,34.6449 16.3749,34.9119 16.1079,35.1649 C15.9379,35.3349 15.7559,35.5049 15.5879,35.6859 C14.6789,34.9839 13.8679,34.1729 13.1659,33.2769 L13.4199,33.0219 C13.7709,32.6709 14.1099,32.3199 14.4729,31.9809 C14.5459,31.9089 14.6059,31.8359 14.6549,31.7629 C14.7999,31.5579 14.7999,31.2909 14.6549,31.0729 C13.8189,29.8379 13.2509,28.4699 12.9599,27.0169 C12.9119,26.7499 12.6809,26.5439 12.4029,26.5319 C12.3669,26.5319 12.3179,26.5199 12.2689,26.5319 L11.1429,26.5319 L10.3439,26.5319 C10.2719,25.9629 10.2349,25.3819 10.2349,24.8129 C10.2349,24.2319 10.2719,23.6509 10.3439,23.0809 L10.4289,23.0809 C10.9739,23.0809 11.5429,23.0809 12.0999,23.0939 C12.2569,23.0939 12.3899,23.0809 12.5109,23.0579 C12.7419,22.9969 12.9119,22.8149 12.9479,22.5849 C13.2379,21.1559 13.7959,19.8119 14.6059,18.5889 C14.7399,18.3839 14.7399,18.1289 14.6189,17.9229 C14.5339,17.7899 14.4239,17.6809 14.2799,17.5359 L14.0379,17.2939 L13.1299,16.3859 C13.8429,15.4539 14.6669,14.6419 15.5879,13.9279 C15.6959,14.0369 15.8169,14.1579 15.9259,14.2669 C16.2289,14.5689 16.5319,14.8719 16.8219,15.1749 C16.9069,15.2599 17.0409,15.3809 17.2219,15.4649 C17.4159,15.5499 17.6329,15.5259 17.8029,15.4169 C19.0259,14.6059 20.3699,14.0489 21.8109,13.7699 C22.0409,13.7219 22.2219,13.5519 22.2829,13.3339 C22.3069,13.2259 22.3189,13.1169 22.3189,12.9829 C22.3069,12.7049 22.3069,12.4379 22.3189,12.1599 L22.3189,11.7849 L22.3189,11.7119 L22.3189,11.4459 L22.3189,11.1549 C23.4329,11.0219 24.5589,11.0219 25.6729,11.1549 L25.6729,11.4459 L25.6729,11.7119 L25.6729,11.7849 L25.6729,12.1599 L25.6729,12.9829 C25.6729,13.1169 25.6849,13.2259 25.7099,13.3339 C25.7699,13.5519 25.9519,13.7339 26.1819,13.7699 C27.6229,14.0489 28.9659,14.6059 30.1899,15.4169 C30.3589,15.5259 30.5769,15.5499 30.7709,15.4649 C30.9529,15.3809 31.0859,15.2599 31.1709,15.1749 C31.4619,14.8719 31.7639,14.5689 32.0669,14.2669 C32.1749,14.1579 32.2969,14.0369 32.4059,13.9279 C33.3259,14.6419 34.1489,15.4539 34.8509,16.3609 L33.9429,17.2689 L33.7009,17.5119 C33.5559,17.6569 33.4469,17.7659 33.3619,17.8989 C33.2289,18.1049 33.2409,18.3589 33.3749,18.5649 C34.1849,19.7879 34.7429,21.1319 35.0329,22.5609 C35.0819,22.7909 35.2509,22.9729 35.4689,23.0329 C35.5899,23.0689 35.7229,23.0809 35.8799,23.0689 C36.4379,23.0449 37.0059,23.0579 37.5509,23.0579 L37.6359,23.0579 C37.7089,23.6259 37.7459,24.2199 37.7459,24.7889 C37.7459,25.3939 37.7089,25.9629 37.6359,26.5319 Z M38.7619,22.3669 C38.7139,22.0889 38.4719,21.8709 38.1929,21.8589 L38.1209,21.8589 L37.5639,21.8589 L36.1229,21.8589 C35.8199,20.5999 35.3239,19.4129 34.6449,18.2989 L34.8149,18.1289 C35.2389,17.7049 35.6629,17.2689 36.0979,16.8579 C36.3169,16.6519 36.3399,16.3129 36.1719,16.0709 C35.2139,14.7389 34.0519,13.5889 32.7199,12.6319 C32.4779,12.4629 32.1389,12.4869 31.9329,12.7049 C31.7039,12.9469 31.4619,13.1769 31.2309,13.4069 C30.9769,13.6489 30.7349,13.9029 30.4929,14.1579 C29.3789,13.4799 28.1789,12.9959 26.9209,12.6929 L26.9209,12.1719 L26.9209,11.8809 L26.9209,11.8089 L26.9209,11.4569 L26.9209,10.6459 C26.9209,10.3439 26.7029,10.0889 26.4119,10.0409 C24.8379,9.7869 23.2039,9.7869 21.6299,10.0409 C21.3269,10.0889 21.1089,10.3679 21.1209,10.6829 C21.1319,10.9369 21.1319,11.2039 21.1209,11.4569 L21.1209,11.8089 L21.1209,11.8809 L21.1209,12.1719 L21.1209,12.6929 C19.8609,12.9959 18.6629,13.4799 17.5479,14.1579 C17.3059,13.9029 17.0519,13.6609 16.8099,13.4069 C16.5799,13.1769 16.3379,12.9349 16.1079,12.7049 C15.9019,12.4869 15.5629,12.4629 15.3209,12.6319 C13.9889,13.5889 12.8269,14.7509 11.8699,16.0709 C11.6879,16.3129 11.7239,16.6519 11.9429,16.8579 C12.3789,17.2819 12.8019,17.7049 13.2259,18.1289 L13.3949,18.2989 C12.7169,19.4009 12.2209,20.5999 11.9189,21.8589 C11.4339,21.8469 10.9499,21.8469 10.4769,21.8589 L9.9209,21.8589 L9.8479,21.8589 C9.5569,21.8709 9.3149,22.0889 9.2789,22.3669 C9.1449,23.1659 9.0849,23.9899 9.0849,24.8129 C9.0849,25.6239 9.1449,26.4479 9.2789,27.2469 C9.3269,27.5249 9.5459,27.7309 9.8239,27.7549 C9.8719,27.7549 9.9319,27.7679 9.9809,27.7679 L11.2039,27.7679 L11.9299,27.7679 C12.2329,29.0389 12.7419,30.2489 13.4319,31.3639 C13.1539,31.6299 12.8749,31.9089 12.6089,32.1869 L12.1479,32.6469 C12.0759,32.7199 12.0149,32.7799 11.9659,32.8289 C11.7729,33.0469 11.7489,33.3609 11.9189,33.5919 C12.8749,34.9119 14.0249,36.0499 15.3449,37.0059 C15.5749,37.1759 15.9019,37.1509 16.1079,36.9569 C16.1319,36.9339 16.1559,36.9089 16.1689,36.8969 C16.4469,36.6059 16.7249,36.3279 17.0039,36.0499 C17.1849,35.8679 17.3799,35.6739 17.5609,35.4929 C18.6739,36.1699 19.8739,36.6669 21.1449,36.9699 L21.1449,37.9989 L21.1449,38.9799 L21.1449,39.0639 C21.1569,39.3429 21.3749,39.5849 21.6539,39.6219 C22.4279,39.7429 23.2399,39.8149 24.0389,39.8149 C24.8379,39.8149 25.6369,39.7549 26.4239,39.6219 C26.7029,39.5729 26.9209,39.3429 26.9319,39.0639 L26.9319,38.9679 L26.9319,37.9989 L26.9319,36.9699 C28.2039,36.6669 29.4029,36.1699 30.5159,35.4929 C30.6979,35.6859 30.8919,35.8679 31.0739,36.0499 C31.3519,36.3279 31.6299,36.6059 31.9089,36.8849 C31.9329,36.9089 31.9579,36.9339 31.9819,36.9569 C32.1999,37.1509 32.5139,37.1759 32.7449,37.0059 C34.0639,36.0609 35.2269,34.9119 36.1719,33.5919 C36.3399,33.3609 36.3169,33.0349 36.1229,32.8289 C36.0749,32.7799 36.0139,32.7069 35.9409,32.6469 L35.4809,32.1869 L34.6579,31.3639 C35.3479,30.2489 35.8439,29.0389 36.1589,27.7679 L36.8849,27.7679 L38.0959,27.7679 L38.2659,27.7679 C38.5449,27.7429 38.7619,27.5379 38.8109,27.2589 C38.9439,26.4599 39.0049,25.6479 39.0049,24.8249 C38.9559,23.9899 38.8949,23.1789 38.7619,22.3669 Z" id="Fill-6" fill="#748494"></path>
        </g>
    </g>
</svg>