<?xml version="1.0" encoding="UTF-8"?>
<svg width="65px" height="65px" viewBox="0 0 65 65" version="1.1" xmlns="http://www.w3.org/2000/svg" xmlns:xlink="http://www.w3.org/1999/xlink">
    <!-- Generator: Sketch 51.3 (57544) - http://www.bohemiancoding.com/sketch -->
    <title>Group 15</title>
    <desc>Created with Sketch.</desc>
    <defs>
        <polygon id="path-1" points="0 0.0954 64.9047 0.0954 64.9047 65 0 65"></polygon>
    </defs>
    <g id="Page-1" stroke="none" stroke-width="1" fill="none" fill-rule="evenodd">
        <g id="Group-15" transform="translate(0.000000, -1.000000)">
            <polygon id="Fill-1" fill="#11193A" points="50.727 55.3365 52.222 55.3365 52.222 53.8415 50.727 53.8415"></polygon>
            <polygon id="Fill-2" fill="#11193A" points="54.955 55.3365 56.45 55.3365 56.45 53.8415 54.955 53.8415"></polygon>
            <polygon id="Fill-3" fill="#11193A" points="59.182 55.3365 60.677 55.3365 60.677 53.8415 59.182 53.8415"></polygon>
            <polygon id="Fill-4" fill="#11193A" points="10.568 6.7225 12.063 6.7225 12.063 5.2275 10.568 5.2275"></polygon>
            <polygon id="Fill-5" fill="#11193A" points="14.795 6.7225 16.29 6.7225 16.29 5.2275 14.795 5.2275"></polygon>
            <polygon id="Fill-6" fill="#11193A" points="19.023 6.7225 20.518 6.7225 20.518 5.2275 19.023 5.2275"></polygon>
            <g id="Group-14" transform="translate(0.000000, 0.904500)">
                <g id="Group-9">
                    <mask id="mask-2" fill="white">
                        <use xlink:href="#path-1"></use>
                    </mask>
                    <g id="Clip-8"></g>
                    <path d="M63.4097,48.7094 L1.4947,48.7094 L1.4947,19.8654 C1.4947,17.9474 3.0557,16.3864 4.9747,16.3864 L6.3417,16.3864 L6.3417,39.6364 L21.4377,39.6364 C21.1967,39.1224 20.9317,38.6214 20.6447,38.1414 L7.8357,38.1414 L7.8357,10.0444 L57.0687,10.0444 L57.0687,38.1414 L44.7317,38.1414 C44.4087,38.6394 44.0367,39.1084 43.6757,39.5624 C43.6547,39.5874 43.6367,39.6114 43.6167,39.6364 L58.5627,39.6364 L58.5627,16.3864 L59.9307,16.3864 C61.8477,16.3864 63.4097,17.9474 63.4097,19.8654 L63.4097,48.7094 Z M63.4097,53.6844 C63.4097,55.6034 61.8477,57.1644 59.9307,57.1644 L4.9747,57.1644 C3.0557,57.1644 1.4947,55.6034 1.4947,53.6844 L1.4947,50.2044 L63.4097,50.2044 L63.4097,53.6844 Z M20.5187,63.5054 L44.3867,63.5054 L44.3867,58.6594 L20.5187,58.6594 L20.5187,63.5054 Z M7.8357,8.5504 L57.0687,8.5504 L57.0687,1.5904 L7.8357,1.5904 L7.8357,8.5504 Z M64.9047,19.8654 C64.9047,17.1224 62.6727,14.8914 59.9307,14.8914 L58.5627,14.8914 L58.5627,0.0954 L6.3417,0.0954 L6.3417,14.8914 L4.9747,14.8914 C2.2317,14.8914 -0.0003,17.1224 -0.0003,19.8654 L-0.0003,53.6844 C-0.0003,56.4274 2.2317,58.6594 4.9747,58.6594 L19.0227,58.6594 L19.0227,63.5054 L14.7957,63.5054 L14.7957,65.0004 L50.1087,65.0004 L50.1087,63.5054 L45.8817,63.5054 L45.8817,58.6594 L59.9307,58.6594 C62.6727,58.6594 64.9047,56.4274 64.9047,53.6844 L64.9047,19.8654 Z" id="Fill-7" fill="#11193A" mask="url(#mask-2)"></path>
                </g>
                <path d="M32.7163,43.6429 C26.4053,43.6429 21.2723,38.5089 21.2723,32.1989 C21.2723,25.8889 26.4053,20.7549 32.7163,20.7549 C39.0263,20.7549 44.1593,25.8889 44.1593,32.1989 C44.1593,38.5089 39.0263,43.6429 32.7163,43.6429" id="Fill-10" fill="#50E29D"></path>
                <path d="M40.8384,27.848 C40.5314,27.542 40.0354,27.542 39.7304,27.848 L30.3404,37.237 L26.7324,33.628 C26.4254,33.322 25.9294,33.322 25.6234,33.628 C25.3174,33.934 25.3174,34.431 25.6234,34.737 L29.7864,38.9 C30.0924,39.205 30.5884,39.205 30.8954,38.9 L40.8384,28.956 C41.1444,28.65 41.1444,28.154 40.8384,27.848" id="Fill-12" fill="#11193A"></path>
            </g>
        </g>
    </g>
</svg>