<?xml version="1.0" encoding="UTF-8"?>
<svg width="65px" height="65px" viewBox="0 0 65 65" version="1.1" xmlns="http://www.w3.org/2000/svg" xmlns:xlink="http://www.w3.org/1999/xlink">
    <!-- Generator: Sketch 51.3 (57544) - http://www.bohemiancoding.com/sketch -->
    <title>Group 15</title>
    <desc>Created with Sketch.</desc>
    <defs>
        <polygon id="path-1" points="0 0.0955 64.9047 0.0955 64.9047 65 0 65"></polygon>
    </defs>
    <g id="Page-1" stroke="none" stroke-width="1" fill="none" fill-rule="evenodd">
        <g id="Group-15" transform="translate(0.000000, -1.000000)">
            <polygon id="Fill-1" fill="#748494" points="50.727 55.3365 52.222 55.3365 52.222 53.8415 50.727 53.8415"></polygon>
            <polygon id="Fill-2" fill="#748494" points="54.955 55.3365 56.45 55.3365 56.45 53.8415 54.955 53.8415"></polygon>
            <polygon id="Fill-3" fill="#748494" points="59.182 55.3365 60.677 55.3365 60.677 53.8415 59.182 53.8415"></polygon>
            <polygon id="Fill-4" fill="#748494" points="10.568 6.7225 12.063 6.7225 12.063 5.2275 10.568 5.2275"></polygon>
            <polygon id="Fill-5" fill="#748494" points="14.795 6.7225 16.29 6.7225 16.29 5.2275 14.795 5.2275"></polygon>
            <polygon id="Fill-6" fill="#748494" points="19.023 6.7225 20.518 6.7225 20.518 5.2275 19.023 5.2275"></polygon>
            <g id="Group-14" transform="translate(0.000000, 0.904500)">
                <g id="Group-9">
                    <mask id="mask-2" fill="white">
                        <use xlink:href="#path-1"></use>
                    </mask>
                    <g id="Clip-8"></g>
                    <path d="M63.4097,48.7095 L1.4947,48.7095 L1.4947,19.8655 C1.4947,17.9475 3.0557,16.3855 4.9747,16.3855 L6.3417,16.3855 L6.3417,39.6365 L21.4377,39.6365 C21.1967,39.1225 20.9317,38.6215 20.6447,38.1415 L7.8357,38.1415 L7.8357,10.0445 L57.0687,10.0445 L57.0687,38.1415 L44.7317,38.1415 C44.4087,38.6395 44.0367,39.1075 43.6757,39.5625 C43.6547,39.5865 43.6367,39.6115 43.6167,39.6365 L58.5627,39.6365 L58.5627,16.3855 L59.9307,16.3855 C61.8477,16.3855 63.4097,17.9475 63.4097,19.8655 L63.4097,48.7095 Z M63.4097,53.6845 C63.4097,55.6035 61.8477,57.1645 59.9307,57.1645 L4.9747,57.1645 C3.0557,57.1645 1.4947,55.6035 1.4947,53.6845 L1.4947,50.2045 L63.4097,50.2045 L63.4097,53.6845 Z M20.5187,63.5045 L44.3867,63.5045 L44.3867,58.6585 L20.5187,58.6585 L20.5187,63.5045 Z M7.8357,8.5495 L57.0687,8.5495 L57.0687,1.5905 L7.8357,1.5905 L7.8357,8.5495 Z M64.9047,19.8655 C64.9047,17.1225 62.6727,14.8915 59.9307,14.8915 L58.5627,14.8915 L58.5627,0.0955 L6.3417,0.0955 L6.3417,14.8915 L4.9747,14.8915 C2.2317,14.8915 -0.0003,17.1225 -0.0003,19.8655 L-0.0003,53.6845 C-0.0003,56.4275 2.2317,58.6595 4.9747,58.6595 L19.0227,58.6595 L19.0227,63.5045 L14.7957,63.5045 L14.7957,65.0005 L50.1087,65.0005 L50.1087,63.5045 L45.8817,63.5045 L45.8817,58.6595 L59.9307,58.6595 C62.6727,58.6595 64.9047,56.4275 64.9047,53.6845 L64.9047,19.8655 Z" id="Fill-7" fill="#748494" mask="url(#mask-2)"></path>
                </g>
                <path d="M32.7163,43.6431 C26.4053,43.6431 21.2723,38.5091 21.2723,32.1991 C21.2723,25.8891 26.4053,20.7551 32.7163,20.7551 C39.0263,20.7551 44.1593,25.8891 44.1593,32.1991 C44.1593,38.5091 39.0263,43.6431 32.7163,43.6431" id="Fill-10" fill="#C0C6CE"></path>
                <path d="M40.8384,27.8482 C40.5314,27.5422 40.0354,27.5422 39.7304,27.8482 L30.3404,37.2372 L26.7324,33.6282 C26.4254,33.3222 25.9294,33.3222 25.6234,33.6282 C25.3174,33.9342 25.3174,34.4302 25.6234,34.7362 L29.7864,38.8992 C30.0924,39.2052 30.5884,39.2052 30.8954,38.8992 L40.8384,28.9562 C41.1444,28.6502 41.1444,28.1542 40.8384,27.8482" id="Fill-12" fill="#748494"></path>
            </g>
        </g>
    </g>
</svg>