<?xml version="1.0" encoding="UTF-8"?>
<svg width="89px" height="48px" viewBox="0 0 89 48" version="1.1" xmlns="http://www.w3.org/2000/svg" xmlns:xlink="http://www.w3.org/1999/xlink">
    <!-- Generator: Sketch 51.3 (57544) - http://www.bohemiancoding.com/sketch -->
    <title>Group 15</title>
    <desc>Created with Sketch.</desc>
    <defs></defs>
    <g id="Page-1" stroke="none" stroke-width="1" fill="none" fill-rule="evenodd">
        <g id="Group-15">
            <path d="M62.1973,23.957 C62.1973,33.881 54.1513,41.927 44.2273,41.927 C34.3023,41.927 26.2583,33.881 26.2583,23.957 C26.2583,14.033 34.3023,5.987 44.2273,5.987 C54.1513,5.987 62.1973,14.033 62.1973,23.957" id="Fill-1" fill="#50E29D"></path>
            <path d="M7.5752,24.3964 L0.7032,24.3964 C0.3152,24.3964 0.0002,24.0814 0.0002,23.6924 C0.0002,23.3044 0.3152,22.9894 0.7032,22.9894 L7.5752,22.9894 C7.9632,22.9894 8.2782,23.3044 8.2782,23.6924 C8.2782,24.0814 7.9632,24.3964 7.5752,24.3964" id="Fill-3" fill="#11193A"></path>
            <path d="M87.751,24.3964 L80.515,24.3964 C80.127,24.3964 79.812,24.0814 79.812,23.6924 C79.812,23.3044 80.127,22.9894 80.515,22.9894 L87.751,22.9894 C88.14,22.9894 88.455,23.3044 88.455,23.6924 C88.455,24.0814 88.14,24.3964 87.751,24.3964" id="Fill-5" fill="#11193A"></path>
            <path d="M76.8965,24.3964 L11.3445,24.3964 C10.9575,24.3964 10.6415,24.0814 10.6415,23.6924 C10.6415,23.3044 10.9575,22.9894 11.3445,22.9894 L76.8965,22.9894 C77.2855,22.9894 77.6005,23.3044 77.6005,23.6924 C77.6005,24.0814 77.2855,24.3964 76.8965,24.3964" id="Fill-7" fill="#11193A"></path>
            <path d="M10.7061,24.6093 C10.5991,24.6093 10.4901,24.5853 10.3891,24.5333 C10.0421,24.3573 9.9031,23.9343 10.0791,23.5883 C10.1991,23.3503 22.2841,0.0003 44.2951,0.0003 C44.4531,0.0003 44.6111,0.0013 44.7691,0.0033 C65.9091,0.3253 78.0391,23.1373 78.1591,23.3673 C78.3391,23.7123 78.2051,24.1363 77.8601,24.3163 C77.5181,24.4963 77.0921,24.3633 76.9111,24.0183 C76.7951,23.7953 65.0421,1.7193 44.7491,1.4103 C44.5991,1.4083 44.4451,1.4073 44.2961,1.4073 C23.1531,1.4073 11.4511,23.9943 11.3341,24.2233 C11.2101,24.4683 10.9631,24.6093 10.7061,24.6093" id="Fill-9" fill="#11193A"></path>
            <path d="M43.9473,47.914 C43.7893,47.914 43.6313,47.913 43.4713,47.911 C22.3333,47.588 10.2033,24.777 10.0833,24.546 C9.9033,24.202 10.0373,23.777 10.3813,23.598 C10.7253,23.419 11.1503,23.551 11.3303,23.896 C11.4463,24.119 23.2013,46.194 43.4933,46.503 C43.6433,46.506 43.7983,46.507 43.9473,46.507 C65.1073,46.507 76.7913,23.92 76.9083,23.69 C77.0833,23.344 77.5093,23.206 77.8533,23.381 C78.2003,23.557 78.3393,23.98 78.1633,24.327 C78.0433,24.564 65.9593,47.914 43.9473,47.914" id="Fill-11" fill="#11193A"></path>
            <path d="M44.2617,10.7226 C37.1107,10.7226 31.2917,16.5406 31.2917,23.6926 C31.2917,30.8446 37.1107,36.6626 44.2617,36.6626 C51.4127,36.6626 57.2327,30.8446 57.2327,23.6926 C57.2327,16.5406 51.4127,10.7226 44.2617,10.7226 M44.2617,38.0696 C36.3347,38.0696 29.8847,31.6206 29.8847,23.6926 C29.8847,15.7646 36.3347,9.3156 44.2617,9.3156 C52.1897,9.3156 58.6397,15.7646 58.6397,23.6926 C58.6397,31.6206 52.1897,38.0696 44.2617,38.0696" id="Fill-13" fill="#11193A"></path>
        </g>
    </g>
</svg>