<?xml version="1.0" encoding="UTF-8"?>
<svg width="89px" height="48px" viewBox="0 0 89 48" version="1.1" xmlns="http://www.w3.org/2000/svg" xmlns:xlink="http://www.w3.org/1999/xlink">
    <!-- Generator: Sketch 51.3 (57544) - http://www.bohemiancoding.com/sketch -->
    <title>Group 16</title>
    <desc>Created with Sketch.</desc>
    <defs>
        <polygon id="path-1" points="0.00326955536 0.390992649 68.2395691 0.390992649 68.2395691 25 0.00326955536 25"></polygon>
    </defs>
    <g id="Page-1" stroke="none" stroke-width="1" fill="none" fill-rule="evenodd">
        <g id="Group-16">
            <path d="M62.1973,23.9572 C62.1973,33.8812 54.1513,41.9262 44.2273,41.9262 C34.3023,41.9262 26.2583,33.8812 26.2583,23.9572 C26.2583,14.0332 34.3023,5.9872 44.2273,5.9872 C54.1513,5.9872 62.1973,14.0332 62.1973,23.9572" id="Fill-1" fill="#C0C6CE"></path>
            <path d="M7.5752,24.3961 L0.7032,24.3961 C0.3152,24.3961 0.0002,24.0811 0.0002,23.6921 C0.0002,23.3041 0.3152,22.9891 0.7032,22.9891 L7.5752,22.9891 C7.9632,22.9891 8.2782,23.3041 8.2782,23.6921 C8.2782,24.0811 7.9632,24.3961 7.5752,24.3961" id="Fill-3" fill="#748494"></path>
            <path d="M87.751,24.3961 L80.515,24.3961 C80.127,24.3961 79.812,24.0811 79.812,23.6921 C79.812,23.3041 80.127,22.9891 80.515,22.9891 L87.751,22.9891 C88.14,22.9891 88.455,23.3041 88.455,23.6921 C88.455,24.0811 88.14,24.3961 87.751,24.3961" id="Fill-5" fill="#748494"></path>
            <path d="M76.8965,24.3961 L11.3445,24.3961 C10.9575,24.3961 10.6415,24.0811 10.6415,23.6921 C10.6415,23.3041 10.9575,22.9891 11.3445,22.9891 L76.8965,22.9891 C77.2855,22.9891 77.6005,23.3041 77.6005,23.6921 C77.6005,24.0811 77.2855,24.3961 76.8965,24.3961" id="Fill-7" fill="#748494"></path>
            <path d="M10.7061,24.609 C10.5991,24.609 10.4901,24.585 10.3891,24.533 C10.0421,24.358 9.9031,23.934 10.0791,23.588 C10.1991,23.35 22.2841,0 44.2951,0 C44.4531,0 44.6111,0.001 44.7691,0.004 C65.9091,0.325 78.0391,23.137 78.1591,23.367 C78.3391,23.712 78.2051,24.137 77.8601,24.317 C77.5181,24.496 77.0921,24.363 76.9111,24.018 C76.7951,23.795 65.0421,1.719 44.7491,1.41 C44.5991,1.408 44.4451,1.407 44.2961,1.407 C23.1531,1.407 11.4511,23.994 11.3341,24.224 C11.2101,24.468 10.9631,24.609 10.7061,24.609" id="Fill-9" fill="#748494"></path>
            <g id="Group-13" transform="translate(10.000000, 22.914000)">
                <mask id="mask-2" fill="white">
                    <use xlink:href="#path-1"></use>
                </mask>
                <g id="Clip-12"></g>
                <path d="M33.9473,25.0002 C33.7893,25.0002 33.6313,24.9992 33.4713,24.9972 C12.3333,24.6742 0.2033,1.8632 0.0833,1.6322 C-0.0967,1.2882 0.0373,0.8632 0.3813,0.6842 C0.7253,0.5042 1.1503,0.6372 1.3303,0.9812 C1.4463,1.2052 13.2013,23.2802 33.4933,23.5892 C33.6433,23.5912 33.7983,23.5932 33.9473,23.5932 C55.1073,23.5932 66.7913,1.0062 66.9083,0.7762 C67.0833,0.4302 67.5093,0.2922 67.8533,0.4662 C68.2003,0.6422 68.3393,1.0662 68.1633,1.4122 C68.0433,1.6502 55.9593,25.0002 33.9473,25.0002" id="Fill-11" fill="#748494" mask="url(#mask-2)"></path>
            </g>
            <path d="M44.2617,10.7228 C37.1107,10.7228 31.2917,16.5408 31.2917,23.6928 C31.2917,30.8448 37.1107,36.6628 44.2617,36.6628 C51.4127,36.6628 57.2327,30.8448 57.2327,23.6928 C57.2327,16.5408 51.4127,10.7228 44.2617,10.7228 M44.2617,38.0698 C36.3347,38.0698 29.8847,31.6198 29.8847,23.6928 C29.8847,15.7648 36.3347,9.3158 44.2617,9.3158 C52.1897,9.3158 58.6397,15.7648 58.6397,23.6928 C58.6397,31.6198 52.1897,38.0698 44.2617,38.0698" id="Fill-14" fill="#748494"></path>
        </g>
    </g>
</svg>