<?xml version="1.0" encoding="UTF-8"?>
<svg width="19px" height="19px" viewBox="0 0 19 19" version="1.1" xmlns="http://www.w3.org/2000/svg" xmlns:xlink="http://www.w3.org/1999/xlink">
    <!-- Generator: Sketch 51.3 (57544) - http://www.bohemiancoding.com/sketch -->
    <title>Group 3</title>
    <desc>Created with Sketch.</desc>
    <defs>
        <polygon id="path-1" points="0 0 19 0 19 19 0 19"></polygon>
    </defs>
    <g id="Page-1" stroke="none" stroke-width="1" fill="none" fill-rule="evenodd">
        <g id="About-us" transform="translate(-853.000000, -2989.000000)">
            <g id="Group-3" transform="translate(862.500000, 2998.500000) scale(-1, 1) translate(-862.500000, -2998.500000) translate(853.000000, 2989.000000)">
                <mask id="mask-2" fill="white">
                    <use xlink:href="#path-1"></use>
                </mask>
                <g id="Clip-2"></g>
                <path d="M7.48698167,15.6567984 L4.40708167,17.5225829 L4.44840667,14.4570372 C3.3706,13.7849501 2.47357833,12.8981743 1.84958667,11.8869001 C1.18338333,10.8072332 0.83125,9.58545103 0.83125,8.35361583 C0.83125,6.34051409 1.73675833,4.449581 3.38098667,3.02922695 C5.01682333,1.61602174 7.18994833,0.837755169 9.5,0.837755169 C11.8100833,0.837755169 13.9832083,1.61602174 15.619045,3.02922695 C17.2632733,4.449581 18.16875,6.34051409 18.16875,8.35361583 C18.16875,10.3667176 17.2632733,12.2576187 15.619045,13.6780047 C13.9832083,15.091178 11.8100833,15.8694765 9.5,15.8694765 C8.84418333,15.8694765 8.16734,15.7979561 7.48698167,15.6567984 M9.5,16.7072317 C12.0423583,16.7072317 14.431355,15.8352322 16.226855,14.2518271 C18.0151667,12.6748049 19,10.5800978 19,8.35361583 C19,6.12713386 18.0151667,4.03245871 16.226855,2.45543646 C14.431355,0.872031323 12.0423583,0 9.5,0 C6.95786333,0 4.56899333,0.872031323 2.77336667,2.45543646 C0.98496,4.03252254 0,6.12719769 0,8.35361583 C0,10.8918385 1.29500833,13.2638824 3.55293667,14.8614895 L3.63375,14.9186483 L3.63375,19 L7.65012833,16.5438295 L7.71951,16.5553506 C8.32561,16.6561047 8.92468,16.7072317 9.5,16.7072317" id="Fill-1" fill="#50E29D" mask="url(#mask-2)"></path>
            </g>
        </g>
    </g>
</svg>