<?xml version="1.0" encoding="UTF-8"?>
<svg width="18px" height="16px" viewBox="0 0 18 16" version="1.1" xmlns="http://www.w3.org/2000/svg" xmlns:xlink="http://www.w3.org/1999/xlink">
    <!-- Generator: Sketch 51.3 (57544) - http://www.bohemiancoding.com/sketch -->
    <title>Shape</title>
    <desc>Created with Sketch.</desc>
    <defs></defs>
    <g id="Page-1" stroke="none" stroke-width="1" fill="none" fill-rule="evenodd">
        <g id="About-us" transform="translate(-783.000000, -2991.000000)" fill="#50E29D" fill-rule="nonzero">
            <path d="M800.970248,2995.77104 C800.7075,2993.00625 798.660563,2991.00033 796.098862,2991.00033 C794.392216,2991.00033 792.829579,2991.87835 791.950292,2993.28557 C791.078968,2991.86015 789.580373,2991 787.901074,2991 C785.33972,2991 783.292437,2993.00592 783.030035,2995.77071 C783.009265,2995.89283 782.924106,2996.53555 783.183045,2997.58368 C783.556222,2999.09548 784.4182,3000.4706 785.675164,3001.55944 L791.946138,3007 L798.324772,3001.55977 C799.581737,3000.4706 800.443714,2999.09581 800.816892,2997.58368 C801.075831,2996.53588 800.990672,2995.89316 800.970248,2995.77104 Z M800.142888,2997.4321 C799.802251,2998.81285 799.012624,3000.0708 797.861589,3001.06764 L791.950292,3006.10973 L786.140424,3001.06896 C784.987313,3000.07014 784.198032,2998.81251 783.857049,2997.43177 C783.611957,2996.4399 783.712694,2995.87959 783.71304,2995.87595 L783.718233,2995.84253 C783.943247,2993.42027 785.702166,2991.66191 787.901074,2991.66191 C789.5236,2991.66191 790.951921,2992.61506 791.629733,2994.14903 L791.948561,2994.87151 L792.267389,2994.14903 C792.93447,2992.63856 794.438257,2991.66224 796.099209,2991.66224 C798.297771,2991.66224 800.057036,2993.4206 800.28655,2995.8743 C800.287243,2995.87959 800.38798,2996.44023 800.142888,2997.4321 Z" id="Shape"></path>
        </g>
    </g>
</svg>