<?xml version="1.0" encoding="UTF-8"?>
<svg width="511px" height="363px" viewBox="0 0 511 363" version="1.1" xmlns="http://www.w3.org/2000/svg" xmlns:xlink="http://www.w3.org/1999/xlink">
    <!-- Generator: Sketch 51.3 (57544) - http://www.bohemiancoding.com/sketch -->
    <title>Group 37</title>
    <desc>Created with Sketch.</desc>
    <defs>
        <polygon id="path-1" points="0 0.8512 459.2887 0.8512 459.2887 65.1792 0 65.1792"></polygon>
        <path d="M10.313,108.942 C3.66,126.91 0.017,146.335 0.017,166.613 C0.017,205.182 13.191,240.652 35.237,268.851 C65.654,307.759 112.99,332.8 166.205,332.8 C257.985,332.8 332.39,258.396 332.39,166.613 C332.39,74.831 257.985,0.427 166.205,0.427 C94.701,0.427 33.757,45.59 10.313,108.942 M63.967,166.613 C63.967,145.215 70.55,125.36 81.789,108.942 C100.205,82.038 131.137,64.376 166.205,64.376 C222.667,64.376 268.443,110.15 268.443,166.613 C268.443,221.969 224.44,267.017 169.512,268.768 L169.512,268.851 L166.205,268.851 C109.74,268.851 63.967,223.078 63.967,166.613" id="path-3"></path>
        <polygon id="path-5" points="0.5975 0.574778904 245.094 0.574778904 245.094 90.9999952 0.5975 90.9999952"></polygon>
    </defs>
    <g id="Page-1" stroke="none" stroke-width="1" fill="none" fill-rule="evenodd">
        <g id="Design" transform="translate(-798.000000, -2274.000000)">
            <g id="Group-37" transform="translate(798.000000, 2273.000000)">
                <g id="Group-3" transform="translate(0.000000, 281.123000)">
                    <mask id="mask-2" fill="white">
                        <use xlink:href="#path-1"></use>
                    </mask>
                    <g id="Clip-2"></g>
                    <path d="M459.2887,27.0542 L459.2887,65.1792 L-0.0003,65.1792 L-0.0003,0.8512 L328.3747,0.8512 L394.4387,8.2872 L449.5237,15.8562 C455.1197,16.6252 459.2887,21.4062 459.2887,27.0542" id="Fill-1" fill="#19E69B" mask="url(#mask-2)"></path>
                </g>
                <g id="Group-6" transform="translate(105.000000, 13.123000)">
                    <mask id="mask-4" fill="white">
                        <use xlink:href="#path-3"></use>
                    </mask>
                    <g id="Clip-5"></g>
                    <path d="M10.313,108.942 C3.66,126.91 0.017,146.335 0.017,166.613 C0.017,205.182 13.191,240.652 35.237,268.851 C65.654,307.759 112.99,332.8 166.205,332.8 C257.985,332.8 332.39,258.396 332.39,166.613 C332.39,74.831 257.985,0.427 166.205,0.427 C94.701,0.427 33.757,45.59 10.313,108.942 M63.967,166.613 C63.967,145.215 70.55,125.36 81.789,108.942 C100.205,82.038 131.137,64.376 166.205,64.376 C222.667,64.376 268.443,110.15 268.443,166.613 C268.443,221.969 224.44,267.017 169.512,268.768 L169.512,268.851 L166.205,268.851 C109.74,268.851 63.967,223.078 63.967,166.613" id="Fill-4" mask="url(#mask-4)"></path>
                </g>
                <g id="Group-36" transform="translate(105.000000, 0.123000)">
                    <path d="M10.3112,121.9424 L81.7892,121.9424 C100.2062,95.0374 131.1372,77.3764 166.2042,77.3764 C222.6672,77.3764 268.4412,123.1494 268.4412,179.6134 C268.4412,234.9684 224.4412,280.0174 169.5112,281.7674 L169.5112,281.8514 L166.2042,281.8514 L35.2372,281.8514 C65.6542,320.7594 112.9902,345.8004 166.2042,345.8004 C257.9862,345.8004 332.3902,271.3964 332.3902,179.6134 C332.3902,87.8314 257.9862,13.4274 166.2042,13.4274 C94.7012,13.4274 33.7562,58.5904 10.3112,121.9424" id="Fill-7" fill="#19E69B"></path>
                    <path d="M166.2038,13.4272 C159.8378,13.4272 153.5598,13.8012 147.3808,14.4982 L147.3978,14.5532 L166.8048,77.3912 C222.9898,77.7162 268.4408,123.3512 268.4408,179.6142 C268.4408,234.9692 224.4408,280.0172 169.5128,281.7672 L169.5128,281.8512 L166.2038,281.8512 L35.2368,281.8512 C65.6538,320.7592 112.9898,345.8002 166.2038,345.8002 C257.9858,345.8002 332.3908,271.3962 332.3908,179.6142 C332.3908,87.8312 257.9858,13.4272 166.2038,13.4272" id="Fill-9" fill="#19E69B"></path>
                    <path d="M63.9664,179.6137 C63.9664,158.2157 70.5504,138.3607 81.7884,121.9427 C94.1204,103.9267 117.3034,83.2507 152.1354,78.3377 L121.6444,52.8607 L140.7474,14.8367 C70.4944,28.0087 28.4244,72.9967 10.3114,121.9427 C3.6604,139.9097 0.0174,159.3347 0.0174,179.6137 C0.0174,218.1817 13.1924,253.6517 35.2374,281.8507 L166.2034,281.8507 C109.7384,281.8507 63.9664,236.0777 63.9664,179.6137" id="Fill-11" fill="#00D090"></path>
                    <path d="M110.4899,52.0864 L154.3869,90.7714 C155.4339,91.6934 157.0769,90.9164 157.0279,89.5224 L153.9289,2.4134 C153.8789,0.9954 152.1359,0.3484 151.1729,1.3904 L110.1649,45.7254 C108.4679,47.5614 108.6139,50.4334 110.4899,52.0864" id="Fill-13" fill="#19E69B"></path>
                    <g id="Group-17" transform="translate(160.000000, 272.000000)">
                        <mask id="mask-6" fill="white">
                            <use xlink:href="#path-5"></use>
                        </mask>
                        <g id="Clip-16"></g>
                        <path d="M243.6325,42.4922 L201.8595,1.0212 C200.8035,0.0352 199.0805,0.7902 199.0895,2.2342 L199.0895,17.4802 L130.8415,17.4802 C100.3885,51.9992 55.8545,73.8002 6.2035,73.8002 C4.3205,73.8002 2.4645,73.6982 0.5975,73.6362 L0.5975,74.1792 L199.0895,74.1792 L199.0895,89.3622 C199.0995,90.8302 200.8815,91.5522 201.9095,90.5032 L243.7775,49.0832 C245.5885,47.2352 245.5235,44.2592 243.6325,42.4922" id="Fill-15" fill="#00D090" mask="url(#mask-6)"></path>
                    </g>
                    <path d="M177.4401,44.9731 C247.3151,50.8201 302.2031,109.3871 302.2031,180.7731" id="Stroke-18" stroke="#11193A" stroke-width="2.086" stroke-linecap="round" stroke-linejoin="round"></path>
                    <path d="M29.6442,180.7729 C29.6442,109.3869 84.5322,50.8199 154.4072,44.9729" id="Stroke-20" stroke="#11193A" stroke-width="2.086" stroke-linecap="round" stroke-linejoin="round"></path>
                    <path d="M177.3961,45.5 C177.3961,51.836 172.2591,56.972 165.9231,56.972 C159.5871,56.972 154.4511,51.836 154.4511,45.5 C154.4511,39.164 159.5871,34.027 165.9231,34.027 C172.2591,34.027 177.3961,39.164 177.3961,45.5 Z" id="Stroke-22" stroke="#11193A" stroke-width="2.086" stroke-linecap="round" stroke-linejoin="round"></path>
                    <path d="M40.733,193.0107 C40.733,199.3467 35.596,204.4827 29.26,204.4827 C22.924,204.4827 17.789,199.3467 17.789,193.0107 C17.789,186.6747 22.924,181.5377 29.26,181.5377 C35.596,181.5377 40.733,186.6747 40.733,193.0107 Z" id="Stroke-24" stroke="#11193A" stroke-width="2.086" stroke-linecap="round" stroke-linejoin="round"></path>
                    <path d="M314.0797,193.0107 C314.0797,199.3467 308.9427,204.4827 302.6067,204.4827 C296.2707,204.4827 291.1347,199.3467 291.1347,193.0107 C291.1347,186.6747 296.2707,181.5377 302.6067,181.5377 C308.9427,181.5377 314.0797,186.6747 314.0797,193.0107 Z" id="Stroke-26" stroke="#11193A" stroke-width="2.086" stroke-linecap="round" stroke-linejoin="round"></path>
                    <path d="M180.7926,159.2334 C180.7926,167.2154 174.3216,173.6864 166.3396,173.6864 C158.3566,173.6864 151.8866,167.2154 151.8866,159.2334 C151.8866,151.2514 158.3566,144.7794 166.3396,144.7794 C174.3216,144.7794 180.7926,151.2514 180.7926,159.2334 Z" id="Stroke-28" stroke="#11193A" stroke-width="2.086" stroke-linecap="round" stroke-linejoin="round"></path>
                    <path d="M133.7204,266.6963 C133.7204,209.1333 91.4534,190.6163 91.4534,190.6163 L166.3394,56.9723 L166.3394,144.5923" id="Stroke-30" stroke="#11193A" stroke-width="2.086" stroke-linecap="round" stroke-linejoin="round"></path>
                    <path d="M197.7243,266.6963 C197.7243,209.1333 239.9913,190.6163 239.9913,190.6163 L166.3393,56.9723" id="Stroke-32" stroke="#11193A" stroke-width="2.086" stroke-linecap="round" stroke-linejoin="round"></path>
                    <path d="M222.2799,309.7685 L106.3469,309.7685 L106.3469,283.6305 C106.3469,274.9455 113.3879,267.9045 122.0739,267.9045 L206.5529,267.9045 C215.2389,267.9045 222.2799,274.9455 222.2799,283.6305 L222.2799,309.7685 Z" id="Stroke-34" stroke="#11193A" stroke-width="2.086" stroke-linecap="round" stroke-linejoin="round"></path>
                </g>
            </g>
        </g>
    </g>
</svg>