<?xml version="1.0" encoding="UTF-8"?>
<svg width="511px" height="385px" viewBox="0 0 511 385" version="1.1" xmlns="http://www.w3.org/2000/svg" xmlns:xlink="http://www.w3.org/1999/xlink">
    <!-- Generator: Sketch 51.3 (57544) - http://www.bohemiancoding.com/sketch -->
    <title>Group 22 Copy</title>
    <desc>Created with Sketch.</desc>
    <defs>
        <path d="M10.313,108.732 C3.661,126.7 0.016,146.124 0.016,166.404 C0.016,204.972 13.192,240.442 35.236,268.641 C65.654,307.549 112.99,332.59 166.204,332.59 C257.985,332.59 332.391,258.187 332.391,166.404 C332.391,74.622 257.985,0.217 166.204,0.217 C94.7,0.217 33.757,45.38 10.313,108.732 M63.966,166.404 C63.966,145.006 70.549,125.151 81.789,108.732 C100.205,81.827 131.137,64.166 166.204,64.166 C222.667,64.166 268.442,109.94 268.442,166.404 C268.442,221.758 224.44,266.807 169.511,268.558 L169.511,268.641 L166.204,268.641 C109.739,268.641 63.966,222.868 63.966,166.404" id="path-1"></path>
        <polygon id="path-3" points="0.0497 0.574657649 372.076117 0.574657649 372.076117 341 0.0497 341"></polygon>
    </defs>
    <g id="Page-1" stroke="none" stroke-width="1" fill="none" fill-rule="evenodd">
        <g id="Design" transform="translate(-798.000000, -1446.000000)">
            <g id="Group-22-Copy" transform="translate(798.000000, 1445.000000)">
                <path d="M459.2882,308.1772 L459.2882,346.3022 L0.0002,346.3022 L0.0002,281.9742 L328.3742,281.9742 L394.4392,289.4102 L449.5242,296.9792 C455.1192,297.7482 459.2882,302.5292 459.2882,308.1772" id="Fill-1" fill="#19E69B"></path>
                <g id="Group-5" transform="translate(105.000000, 13.333000)">
                    <mask id="mask-2" fill="white">
                        <use xlink:href="#path-1"></use>
                    </mask>
                    <g id="Clip-4"></g>
                    <path d="M10.313,108.732 C3.661,126.7 0.016,146.124 0.016,166.404 C0.016,204.972 13.192,240.442 35.236,268.641 C65.654,307.549 112.99,332.59 166.204,332.59 C257.985,332.59 332.391,258.187 332.391,166.404 C332.391,74.622 257.985,0.217 166.204,0.217 C94.7,0.217 33.757,45.38 10.313,108.732 M63.966,166.404 C63.966,145.006 70.549,125.151 81.789,108.732 C100.205,81.827 131.137,64.166 166.204,64.166 C222.667,64.166 268.442,109.94 268.442,166.404 C268.442,221.758 224.44,266.807 169.511,268.558 L169.511,268.641 L166.204,268.641 C109.739,268.641 63.966,222.868 63.966,166.404" id="Fill-3" mask="url(#mask-2)"></path>
                </g>
                <g id="Group-21" transform="translate(32.000000, 0.333000)">
                    <path d="M83.3106,121.7324 L154.7896,121.7324 C173.2066,94.8274 204.1376,77.1664 239.2036,77.1664 C295.6676,77.1664 341.4416,122.9394 341.4416,179.4034 C341.4416,234.7584 297.4416,279.8074 242.5116,281.5574 L242.5116,281.6414 L239.2036,281.6414 L108.2376,281.6414 C138.6536,320.5494 185.9896,345.5904 239.2036,345.5904 C330.9856,345.5904 405.3896,271.1864 405.3896,179.4034 C405.3896,87.6214 330.9856,13.2174 239.2036,13.2174 C167.7006,13.2174 106.7566,58.3804 83.3106,121.7324" id="Fill-6" fill="#19E69B"></path>
                    <path d="M239.2032,13.2173 C232.8382,13.2173 226.5602,13.5913 220.3812,14.2883 L220.3972,14.3423 L239.8042,77.1813 C295.9902,77.5063 341.4412,123.1413 341.4412,179.4043 C341.4412,234.7593 297.4412,279.8073 242.5122,281.5573 L242.5122,281.6413 L239.2032,281.6413 L108.2372,281.6413 C138.6542,320.5493 185.9892,345.5903 239.2032,345.5903 C330.9852,345.5903 405.3902,271.1863 405.3902,179.4043 C405.3902,87.6213 330.9852,13.2173 239.2032,13.2173" id="Fill-8" fill="#19E69B"></path>
                    <path d="M136.9659,179.4038 C136.9659,158.0058 143.5509,138.1508 154.7889,121.7328 C167.1209,103.7168 190.3029,83.0408 225.1359,78.1278 L194.6439,52.6508 L213.7469,14.6268 C143.4949,27.7988 101.4249,72.7868 83.3109,121.7328 C76.6609,139.6998 73.0179,159.1248 73.0179,179.4038 C73.0179,217.9718 86.1929,253.4418 108.2369,281.6408 L239.2029,281.6408 C182.7389,281.6408 136.9659,235.8678 136.9659,179.4038" id="Fill-10" fill="#00D090"></path>
                    <path d="M183.4893,51.8764 L227.3873,90.5614 C228.4343,91.4834 230.0773,90.7064 230.0273,89.3114 L226.9283,2.2034 C226.8783,0.7854 225.1363,0.1384 224.1733,1.1804 L183.1653,45.5154 C181.4683,47.3504 181.6143,50.2234 183.4893,51.8764" id="Fill-12" fill="#19E69B"></path>
                    <path d="M476.6319,314.2822 L434.8589,272.8112 C433.8029,271.8252 432.0799,272.5802 432.0899,274.0242 L432.0899,289.2702 L363.8409,289.2702 C333.3889,323.7892 288.8549,345.5902 239.2029,345.5902 C237.3209,345.5902 235.4639,345.4882 233.5979,345.4262 L233.5979,345.9692 L432.0899,345.9692 L432.0899,361.1522 C432.0989,362.6202 433.8819,363.3422 434.9099,362.2932 L476.7769,320.8732 C478.5879,319.0252 478.5229,316.0482 476.6319,314.2822" id="Fill-14" fill="#00D090"></path>
                    <g id="Group-18" transform="translate(0.000000, 44.000000)">
                        <mask id="mask-4" fill="white">
                            <use xlink:href="#path-3"></use>
                        </mask>
                        <g id="Clip-17"></g>
                        <path d="M122.6417,252.3061 L21.3547,338.7381 L2.3117,316.4221 L103.5987,229.9901 L122.6417,252.3061 Z M107.1787,123.7821 C109.9547,88.7111 126.2227,56.8191 152.9827,33.9821 C179.7447,11.1451 213.7957,0.0961 248.8707,2.8721 C283.8937,5.6431 315.7547,21.8761 338.5847,48.5781 L338.8247,48.8581 C361.5597,75.6051 372.5497,109.5911 369.7797,144.5621 C367.0037,179.6301 350.7377,211.5221 323.9757,234.3631 C299.9197,254.8891 269.9757,265.8901 238.7027,265.8911 C235.1787,265.8911 231.6417,265.7521 228.0897,265.4711 C193.0197,262.6971 161.1267,246.4311 138.2887,219.6671 L137.2687,218.4591 C115.1347,191.8871 104.4537,158.2681 107.1787,123.7821 Z M137.4227,221.6431 L140.6277,225.1061 C163.4217,249.6891 194.4317,264.6891 227.9427,267.3431 C263.5217,270.1601 298.0527,258.9491 325.1917,235.7891 C352.3347,212.6261 368.8337,180.2811 371.6487,144.7101 C374.4267,109.7441 363.5947,75.6501 341.1467,48.7071 L340.0827,47.4451 C316.9347,20.3171 284.5877,3.8171 249.0157,1.0001 C213.4367,-1.8129 178.9067,9.3931 151.7677,32.5541 C124.6237,55.7141 108.1247,88.0591 105.3097,123.6331 C102.6567,157.1371 112.5937,190.1201 133.2907,216.5091 L136.2017,220.2211 L113.9387,239.2151 L104.4167,228.0621 C104.2467,227.8611 104.0347,227.7531 103.7797,227.7331 C103.7507,227.7311 103.7237,227.7301 103.6967,227.7301 C103.4717,227.7301 103.2727,227.8031 103.1017,227.9481 L0.3827,315.6031 C0.1837,315.7721 0.0727,315.9911 0.0517,316.2531 L0.0497,316.3341 C0.0497,316.6011 0.1417,316.7681 0.1647,316.7981 L0.2417,316.8831 L20.5377,340.6711 C20.7027,340.8631 20.9237,340.9741 21.1947,340.9971 C21.4407,341.0161 21.6607,340.9421 21.8507,340.7781 L21.8567,340.7731 L124.5677,253.1221 C124.7707,252.9511 124.8777,252.7411 124.8977,252.4911 C124.9197,252.2271 124.8417,251.9981 124.6657,251.7861 L115.1557,240.6431 L137.4227,221.6431 Z" id="Fill-16" fill="#11193A" mask="url(#mask-4)"></path>
                    </g>
                    <path d="M319.9503,188.0342 L319.7143,190.0062 L307.2483,190.0062 C306.6993,190.0062 306.2463,190.0492 305.7883,190.1472 C305.3513,190.2852 305.0083,190.6442 304.9473,191.0322 C303.2953,199.5862 300.0083,207.5882 295.1623,214.8932 C294.9383,215.2412 294.8983,215.6992 295.0693,216.0912 C295.3873,216.7692 295.9063,217.3362 296.2693,217.6992 C298.0003,219.3582 299.7663,221.1242 301.4723,222.8322 L304.8123,226.1702 L303.6013,227.7302 C299.3213,233.2422 294.4953,238.0932 289.2533,242.1472 L287.6953,243.3522 L279.7093,235.3662 C278.9603,234.6172 278.4223,234.0812 277.8683,233.7282 C277.2773,233.3462 276.6933,233.6442 276.4693,233.7892 C269.2493,238.5762 261.2773,241.8862 252.7943,243.6112 C252.3203,243.7112 251.9233,244.0672 251.7993,244.5142 C251.6563,244.9922 251.6173,245.4832 251.6653,246.1062 C251.7763,248.6382 251.7623,251.1232 251.7503,253.5272 C251.7453,254.3092 251.7413,255.0862 251.7413,255.8542 L251.7413,258.3102 L249.7883,258.5592 C246.4953,258.9802 242.9653,259.2022 239.5783,259.2022 C236.0493,259.2022 232.6863,258.9922 229.3003,258.5592 L227.3463,258.3102 L227.3463,244.6602 C227.2673,244.0892 226.8783,243.6592 226.3113,243.5312 C217.7043,241.8102 209.6073,238.4272 202.3033,233.4862 C201.8873,233.1932 201.2773,233.2142 200.8163,233.5112 C200.5453,233.6932 200.2933,233.9172 200.0523,234.1992 L199.9623,234.2972 C197.9593,236.3712 195.8383,238.4922 193.9653,240.3642 L191.1063,243.2222 L189.5463,241.9992 C184.2183,237.8232 179.4403,233.0212 175.3453,227.7262 L174.1393,226.1682 L183.0283,217.2802 C183.3333,216.9742 183.6483,216.6592 183.7813,216.4302 L183.8423,216.3292 C184.1273,215.8882 184.1273,215.3822 183.8423,214.9402 C178.9813,207.6512 175.6703,199.6002 174.0143,191.0382 C173.9183,190.5752 173.5623,190.2002 173.0753,190.0712 C172.6963,189.9892 172.1593,189.9372 171.5623,189.9372 C169.0953,190.0062 166.6853,190.0062 164.1363,190.0062 L159.3073,190.0062 L159.0693,188.0372 C158.2813,181.5162 158.2813,174.8682 159.0683,168.2792 L159.3043,166.3062 L164.1363,166.3062 C166.6853,166.3062 169.0953,166.3062 171.6253,166.3772 C172.1603,166.3762 172.6963,166.3242 173.1573,166.2212 C173.5663,166.1122 173.9383,165.7542 174.0023,165.3502 C175.6703,156.6412 178.9833,148.5872 183.8653,141.3372 C184.1273,140.9312 184.1273,140.4252 183.8423,139.9842 L183.7803,139.8822 C183.6493,139.6552 183.3343,139.3392 183.0283,139.0332 C181.5133,137.5872 179.9713,136.0442 178.4813,134.4842 C178.1873,134.1922 177.8563,133.8542 177.5243,133.5132 C176.8943,132.8692 176.2573,132.2152 175.5883,131.5902 L174.0963,130.1992 L175.3453,128.5862 C179.4393,123.2922 184.2173,118.4902 189.5463,114.3132 L191.1063,113.0902 L195.4593,117.4332 C196.9533,118.9152 198.4983,120.4472 199.9883,122.0432 C200.2453,122.2992 200.5513,122.5542 200.8433,122.7492 C201.3153,123.0822 201.8333,123.0702 202.3153,122.7502 C209.6063,117.8182 217.7033,114.4332 226.3693,112.7002 C226.9303,112.5972 227.3263,112.1402 227.3483,111.6062 C227.3463,111.5752 227.3553,111.4452 227.3683,111.3022 L227.3463,111.2162 L227.3463,97.9322 L229.3013,97.6832 C236.0263,96.8252 243.0133,96.8372 249.6473,97.6832 L251.6023,97.9322 L251.6023,100.3892 C251.6023,103.5402 251.6023,106.7992 251.5323,110.0152 C251.5323,110.6722 251.5813,111.2752 251.6833,111.8112 C251.8163,112.2502 252.1403,112.5492 252.5583,112.6152 C261.1403,114.3582 269.1133,117.6672 276.3503,122.4692 C276.7763,122.7452 277.3253,122.7512 277.7963,122.4742 C278.2843,122.1622 278.8223,121.6242 279.5673,120.8802 L287.5503,112.8972 L289.1063,114.0902 C294.4213,118.1622 299.2983,123.0382 303.6013,128.5822 L304.8113,130.1412 L301.4723,133.4812 C299.7323,135.2212 297.9733,136.9802 296.2343,138.6492 C295.9063,138.9782 295.3873,139.5442 295.0483,140.2692 C294.8983,140.6142 294.9383,141.0722 295.1793,141.4462 C300.0083,148.7242 303.2953,156.7262 304.9333,165.2042 C305.0263,165.6432 305.3623,166.0292 305.7903,166.1662 C306.2473,166.2632 306.6993,166.3062 307.2483,166.3062 C308.8043,166.2382 310.4133,166.2382 312.0643,166.3092 L319.7143,166.3062 L319.9503,168.2792 C320.7333,174.8332 320.7333,181.4802 319.9503,188.0342 M321.9063,191.6352 C323.3153,182.9112 323.3153,173.6792 321.9033,164.9442 C321.8063,164.3362 321.1953,163.8902 320.5203,163.9092 C319.0173,163.9812 317.4083,163.9812 315.8873,163.9082 L307.1503,163.9102 L306.7383,162.1962 C305.0313,155.0982 302.2943,148.4262 298.6043,142.3622 L297.6683,140.8232 L298.9713,139.5782 C299.6833,138.9012 300.3783,138.2062 301.0723,137.5122 C301.8013,136.7842 302.5293,136.0552 303.2763,135.3442 L307.2623,131.3582 C307.7273,130.9172 307.7793,130.2142 307.4283,129.7122 C302.1243,122.3262 295.6623,115.8412 288.2363,110.4602 C287.7423,110.0892 287.0803,110.1622 286.6653,110.6002 C284.2443,113.0922 281.8443,115.4932 279.4443,117.8922 L277.1113,120.2242 L275.6063,119.2982 C269.5043,115.5432 262.8573,112.7852 255.8503,111.1012 L254.0923,110.6782 L254.1373,108.8692 C254.2073,106.1322 254.2073,103.3922 254.1373,100.7242 L254.1373,97.0572 C254.1153,96.5812 253.6883,96.0822 253.1703,96.0132 C248.7893,95.2852 244.1963,94.9222 239.4393,94.9222 C234.7283,94.9222 230.1603,95.2852 225.8573,96.0022 C225.2903,96.1012 224.8793,96.5142 224.8083,97.0612 C224.8023,97.2382 224.7853,97.4282 224.7623,97.6182 C224.7553,97.6922 224.7443,97.7652 224.7423,97.8332 L224.7423,110.7622 L223.0223,111.1722 C216.0113,112.8412 209.2993,115.6442 203.0713,119.5032 L201.5293,120.4592 L200.2753,119.1482 C198.7663,117.5712 197.2023,116.0072 195.6263,114.4982 L191.9703,110.8422 C191.5023,110.4542 190.8823,110.4072 190.4483,110.7272 C183.1663,116.0062 176.7483,122.4462 171.3613,129.8802 C171.0313,130.3272 171.0793,131.0052 171.4563,131.4062 L171.7633,131.7102 C173.3873,133.2652 174.9823,134.8612 176.5773,136.4562 L181.0513,140.9302 L180.1373,142.4312 C176.3603,148.6352 173.6003,155.3292 171.9333,162.3302 L171.5253,164.0492 L157.7513,164.0492 C157.3243,164.0702 156.8433,164.5052 156.7763,165.0172 C156.0503,169.6742 155.6853,174.1582 155.6853,178.3992 C155.6853,182.9902 156.0483,187.4652 156.7633,191.6992 C156.8643,192.2712 157.3303,192.7292 157.8483,192.7522 L171.5253,192.7492 L171.9333,194.4692 C173.6003,201.4692 176.3603,208.1642 180.1373,214.3672 L181.0823,215.9202 L179.7553,217.1632 C179.0353,217.8382 178.3453,218.5442 177.6653,219.2392 C177.3133,219.5992 176.9643,219.9562 176.6143,220.3052 L171.4663,225.4542 C171.0783,225.9192 171.0293,226.5382 171.3503,226.9732 C176.7103,234.4632 183.1213,240.8972 190.4243,246.1232 C190.8813,246.4612 191.5603,246.4112 191.9613,246.0352 C192.0143,245.9802 192.1333,245.8692 192.2603,245.7502 C192.4353,245.5872 192.6393,245.4032 192.8183,245.1902 L192.9533,245.0422 L201.5643,236.4312 L203.0713,237.3652 C209.1183,241.1122 215.8383,243.9172 223.0423,245.7012 L224.7423,246.1222 L224.7423,259.8292 C224.8193,260.3722 225.2213,260.7672 225.8043,260.8682 C230.0703,261.5792 234.6173,261.9422 239.3063,261.9462 C244.4323,261.6472 248.7413,261.3012 253.0843,260.5892 C253.6433,260.4882 254.1153,259.9722 254.1383,259.4352 L254.1373,255.9242 L254.1373,245.9012 L255.8503,245.4892 C262.7483,243.8312 269.3963,241.0722 275.6153,237.2862 L277.1163,236.3722 L281.1663,240.4122 C282.9883,242.2212 284.8733,244.0922 286.6653,245.9902 C287.0603,246.4092 287.7633,246.4612 288.2663,246.1092 C295.5923,240.8472 302.0523,234.3652 307.4423,226.8572 C307.7793,226.3772 307.7273,225.6732 307.3073,225.2782 C306.3573,224.3752 305.4443,223.4462 304.5403,222.5262 C304.1043,222.0822 303.6713,221.6412 303.2373,221.2072 C301.8423,219.7452 300.3843,218.3552 298.9723,217.0122 L297.6683,215.7682 L298.6043,214.2282 C302.2943,208.1652 305.0313,201.4922 306.7383,194.3942 L307.1503,192.6802 L320.6423,192.6802 C321.2733,192.6802 321.8043,192.2412 321.9063,191.6352" id="Fill-19" fill="#11193A"></path>
                </g>
            </g>
        </g>
    </g>
</svg>