<?xml version="1.0" encoding="UTF-8"?>
<svg width="511px" height="363px" viewBox="0 0 511 363" version="1.1" xmlns="http://www.w3.org/2000/svg" xmlns:xlink="http://www.w3.org/1999/xlink">
    <!-- Generator: Sketch 51.3 (57544) - http://www.bohemiancoding.com/sketch -->
    <title>Group 37</title>
    <desc>Created with Sketch.</desc>
    <defs>
        <polygon id="path-1" points="0 0.8512 459.2887 0.8512 459.2887 65.1792 0 65.1792"></polygon>
        <path d="M10.313,108.942 C3.66,126.91 0.017,146.335 0.017,166.614 C0.017,205.182 13.191,240.652 35.237,268.852 C65.654,307.759 112.99,332.8 166.205,332.8 C257.985,332.8 332.39,258.396 332.39,166.614 C332.39,74.831 257.985,0.427 166.205,0.427 C94.701,0.427 33.757,45.59 10.313,108.942 M63.967,166.614 C63.967,145.215 70.55,125.36 81.789,108.942 C100.205,82.038 131.137,64.376 166.205,64.376 C222.667,64.376 268.443,110.15 268.443,166.614 C268.443,221.969 224.44,267.017 169.512,268.768 L169.512,268.852 L166.205,268.852 C109.74,268.852 63.967,223.078 63.967,166.614" id="path-3"></path>
        <polygon id="path-5" points="0.5975 0.574778904 245.094 0.574778904 245.094 90.9999952 0.5975 90.9999952"></polygon>
    </defs>
    <g id="Page-1" stroke="none" stroke-width="1" fill="none" fill-rule="evenodd">
        <g id="Design" transform="translate(-798.000000, -2693.000000)">
            <g id="Group-37" transform="translate(798.000000, 2692.000000)">
                <g id="Group-3" transform="translate(0.000000, 281.123000)">
                    <mask id="mask-2" fill="white">
                        <use xlink:href="#path-1"></use>
                    </mask>
                    <g id="Clip-2"></g>
                    <path d="M459.2887,27.0542 L459.2887,65.1792 L-0.0003,65.1792 L-0.0003,0.8512 L328.3747,0.8512 L394.4387,8.2872 L449.5237,15.8562 C455.1197,16.6252 459.2887,21.4062 459.2887,27.0542" id="Fill-1" fill="#19E69B" mask="url(#mask-2)"></path>
                </g>
                <g id="Group-6" transform="translate(105.000000, 13.123000)">
                    <mask id="mask-4" fill="white">
                        <use xlink:href="#path-3"></use>
                    </mask>
                    <g id="Clip-5"></g>
                    <path d="M10.313,108.942 C3.66,126.91 0.017,146.335 0.017,166.614 C0.017,205.182 13.191,240.652 35.237,268.852 C65.654,307.759 112.99,332.8 166.205,332.8 C257.985,332.8 332.39,258.396 332.39,166.614 C332.39,74.831 257.985,0.427 166.205,0.427 C94.701,0.427 33.757,45.59 10.313,108.942 M63.967,166.614 C63.967,145.215 70.55,125.36 81.789,108.942 C100.205,82.038 131.137,64.376 166.205,64.376 C222.667,64.376 268.443,110.15 268.443,166.614 C268.443,221.969 224.44,267.017 169.512,268.768 L169.512,268.852 L166.205,268.852 C109.74,268.852 63.967,223.078 63.967,166.614" id="Fill-4" mask="url(#mask-4)"></path>
                </g>
                <g id="Group-36" transform="translate(105.000000, 0.123000)">
                    <path d="M10.3112,121.9424 L81.7892,121.9424 C100.2062,95.0374 131.1372,77.3764 166.2042,77.3764 C222.6672,77.3764 268.4412,123.1494 268.4412,179.6134 C268.4412,234.9684 224.4412,280.0174 169.5112,281.7674 L169.5112,281.8514 L166.2042,281.8514 L35.2372,281.8514 C65.6542,320.7594 112.9902,345.8004 166.2042,345.8004 C257.9862,345.8004 332.3902,271.3964 332.3902,179.6134 C332.3902,87.8314 257.9862,13.4274 166.2042,13.4274 C94.7012,13.4274 33.7562,58.5904 10.3112,121.9424" id="Fill-7" fill="#19E69B"></path>
                    <path d="M166.2038,13.4273 C159.8378,13.4273 153.5598,13.8013 147.3808,14.4983 L147.3978,14.5533 L166.8048,77.3913 C222.9898,77.7163 268.4408,123.3513 268.4408,179.6143 C268.4408,234.9683 224.4408,280.0173 169.5128,281.7673 L169.5128,281.8513 L166.2038,281.8513 L35.2368,281.8513 C65.6538,320.7593 112.9898,345.8003 166.2038,345.8003 C257.9858,345.8003 332.3908,271.3963 332.3908,179.6143 C332.3908,87.8313 257.9858,13.4273 166.2038,13.4273" id="Fill-9" fill="#19E69B"></path>
                    <path d="M63.9664,179.6138 C63.9664,158.2158 70.5504,138.3608 81.7884,121.9428 C94.1204,103.9268 117.3034,83.2508 152.1354,78.3378 L121.6444,52.8608 L140.7474,14.8368 C70.4944,28.0088 28.4244,72.9968 10.3114,121.9428 C3.6604,139.9098 0.0174,159.3348 0.0174,179.6138 C0.0174,218.1818 13.1924,253.6518 35.2374,281.8508 L166.2034,281.8508 C109.7384,281.8508 63.9664,236.0778 63.9664,179.6138" id="Fill-11" fill="#00D090"></path>
                    <path d="M110.4899,52.0865 L154.3869,90.7715 C155.4339,91.6935 157.0769,90.9165 157.0279,89.5225 L153.9289,2.4135 C153.8789,0.9955 152.1359,0.3485 151.1729,1.3905 L110.1649,45.7255 C108.4679,47.5605 108.6139,50.4335 110.4899,52.0865" id="Fill-13" fill="#19E69B"></path>
                    <g id="Group-17" transform="translate(160.000000, 272.000000)">
                        <mask id="mask-6" fill="white">
                            <use xlink:href="#path-5"></use>
                        </mask>
                        <g id="Clip-16"></g>
                        <path d="M243.6325,42.4922 L201.8595,1.0212 C200.8035,0.0352 199.0805,0.7902 199.0895,2.2342 L199.0895,17.4802 L130.8415,17.4802 C100.3885,51.9992 55.8545,73.8002 6.2035,73.8002 C4.3205,73.8002 2.4645,73.6982 0.5975,73.6362 L0.5975,74.1792 L199.0895,74.1792 L199.0895,89.3622 C199.0995,90.8302 200.8815,91.5522 201.9095,90.5032 L243.7775,49.0832 C245.5885,47.2352 245.5235,44.2592 243.6325,42.4922" id="Fill-15" fill="#00D090" mask="url(#mask-6)"></path>
                    </g>
                    <path d="M29.525,170.585 C34.202,104.374 86.674,51.36 152.648,45.837" id="Stroke-18" stroke="#11193A" stroke-width="1.975" stroke-linecap="round" stroke-linejoin="round"></path>
                    <path d="M152.6217,314.6128 C88.0437,309.1948 36.4077,258.2728 29.8827,194.0158" id="Stroke-20" stroke="#11193A" stroke-width="1.975" stroke-linecap="round" stroke-linejoin="round"></path>
                    <path d="M298.2672,193.5205 C291.9562,258.0105 240.2222,309.1805 175.4782,314.6125" id="Stroke-22" stroke="#11193A" stroke-width="1.975" stroke-linecap="round" stroke-linejoin="round"></path>
                    <path d="M175.4518,45.8374 C241.4378,51.3614 293.9178,104.3934 298.5768,170.6224" id="Stroke-24" stroke="#11193A" stroke-width="1.975" stroke-linecap="round" stroke-linejoin="round"></path>
                    <path d="M175.5221,44.9912 C175.5221,51.3272 170.3861,56.4632 164.0491,56.4632 C157.7131,56.4632 152.5781,51.3272 152.5781,44.9912 C152.5781,38.6552 157.7131,33.5182 164.0491,33.5182 C170.3861,33.5182 175.5221,38.6552 175.5221,44.9912 Z" id="Stroke-26" stroke="#11193A" stroke-width="2.086" stroke-linecap="round" stroke-linejoin="round"></path>
                    <path d="M175.5221,315.1382 C175.5221,321.4742 170.3861,326.6102 164.0491,326.6102 C157.7131,326.6102 152.5781,321.4742 152.5781,315.1382 C152.5781,308.8022 157.7131,303.6652 164.0491,303.6652 C170.3861,303.6652 175.5221,308.8022 175.5221,315.1382 Z" id="Stroke-28" stroke="#11193A" stroke-width="2.086" stroke-linecap="round" stroke-linejoin="round"></path>
                    <path d="M40.6246,182.0313 C40.6246,188.3673 35.4876,193.5033 29.1516,193.5033 C22.8156,193.5033 17.6796,188.3673 17.6796,182.0313 C17.6796,175.6953 22.8156,170.5583 29.1516,170.5583 C35.4876,170.5583 40.6246,175.6953 40.6246,182.0313 Z" id="Stroke-30" stroke="#11193A" stroke-width="2.086" stroke-linecap="round" stroke-linejoin="round"></path>
                    <path d="M299.4792,170.5586 C305.8162,170.5586 310.9522,175.6946 310.9522,182.0316 C310.9522,188.3676 305.8162,193.5036 299.4792,193.5036 C293.1432,193.5036 288.0072,188.3676 288.0072,182.0316 C288.0072,175.6946 293.1432,170.5586 299.4792,170.5586" id="Stroke-32" stroke="#11193A" stroke-width="2.086" stroke-linecap="round" stroke-linejoin="round"></path>
                    <polyline id="Stroke-34" stroke="#11193A" stroke-width="2.086" stroke-linecap="round" stroke-linejoin="round" points="104.3883 188.6353 143.6213 227.8013 230.4023 140.1763"></polyline>
                </g>
            </g>
        </g>
    </g>
</svg>