<?xml version="1.0" encoding="UTF-8"?>
<svg width="511px" height="363px" viewBox="0 0 511 363" version="1.1" xmlns="http://www.w3.org/2000/svg" xmlns:xlink="http://www.w3.org/1999/xlink">
    <!-- Generator: Sketch 51.3 (57544) - http://www.bohemiancoding.com/sketch -->
    <title>Group 29</title>
    <desc>Created with Sketch.</desc>
    <defs>
        <path d="M10.313,108.942 C3.661,126.91 0.016,146.335 0.016,166.613 C0.016,205.182 13.192,240.652 35.236,268.851 C65.654,307.759 112.99,332.8 166.204,332.8 C257.985,332.8 332.391,258.396 332.391,166.613 C332.391,74.831 257.985,0.427 166.204,0.427 C94.7,0.427 33.757,45.59 10.313,108.942 M63.966,166.613 C63.966,145.215 70.549,125.36 81.789,108.942 C100.205,82.038 131.137,64.376 166.204,64.376 C222.667,64.376 268.442,110.15 268.442,166.613 C268.442,221.969 224.44,267.017 169.511,268.768 L169.511,268.851 L166.204,268.851 C109.739,268.851 63.966,223.078 63.966,166.613" id="path-1"></path>
    </defs>
    <g id="Page-1" stroke="none" stroke-width="1" fill="none" fill-rule="evenodd">
        <g id="Design" transform="translate(-798.000000, -1882.000000)">
            <g id="Group-29" transform="translate(798.000000, 1881.000000)">
                <path d="M459.2882,308.1772 L459.2882,346.3022 L0.0002,346.3022 L0.0002,281.9742 L328.3742,281.9742 L394.4392,289.4102 L449.5242,296.9792 C455.1192,297.7482 459.2882,302.5292 459.2882,308.1772" id="Fill-1" fill="#19E69B"></path>
                <g id="Group-5" transform="translate(105.000000, 13.123000)">
                    <mask id="mask-2" fill="white">
                        <use xlink:href="#path-1"></use>
                    </mask>
                    <g id="Clip-4"></g>
                    <path d="M10.313,108.942 C3.661,126.91 0.016,146.335 0.016,166.613 C0.016,205.182 13.192,240.652 35.236,268.851 C65.654,307.759 112.99,332.8 166.204,332.8 C257.985,332.8 332.391,258.396 332.391,166.613 C332.391,74.831 257.985,0.427 166.204,0.427 C94.7,0.427 33.757,45.59 10.313,108.942 M63.966,166.613 C63.966,145.215 70.549,125.36 81.789,108.942 C100.205,82.038 131.137,64.376 166.204,64.376 C222.667,64.376 268.442,110.15 268.442,166.613 C268.442,221.969 224.44,267.017 169.511,268.768 L169.511,268.851 L166.204,268.851 C109.739,268.851 63.966,223.078 63.966,166.613" id="Fill-3" mask="url(#mask-2)"></path>
                </g>
                <g id="Group-28" transform="translate(35.000000, 0.123000)">
                    <path d="M80.3106,121.9424 L151.7896,121.9424 C170.2066,95.0374 201.1376,77.3764 236.2036,77.3764 C292.6676,77.3764 338.4416,123.1494 338.4416,179.6134 C338.4416,234.9684 294.4416,280.0174 239.5116,281.7674 L239.5116,281.8514 L236.2036,281.8514 L105.2376,281.8514 C135.6536,320.7594 182.9896,345.8004 236.2036,345.8004 C327.9856,345.8004 402.3896,271.3964 402.3896,179.6134 C402.3896,87.8314 327.9856,13.4274 236.2036,13.4274 C164.7006,13.4274 103.7566,58.5904 80.3106,121.9424" id="Fill-6" fill="#19E69B"></path>
                    <path d="M236.2032,13.4272 C229.8382,13.4272 223.5602,13.8012 217.3812,14.4982 L217.3972,14.5532 L236.8042,77.3912 C292.9902,77.7162 338.4412,123.3512 338.4412,179.6142 C338.4412,234.9692 294.4412,280.0172 239.5122,281.7672 L239.5122,281.8512 L236.2032,281.8512 L105.2372,281.8512 C135.6542,320.7592 182.9892,345.8002 236.2032,345.8002 C327.9852,345.8002 402.3902,271.3962 402.3902,179.6142 C402.3902,87.8312 327.9852,13.4272 236.2032,13.4272" id="Fill-8" fill="#19E69B"></path>
                    <path d="M133.9659,179.6137 C133.9659,158.2157 140.5509,138.3607 151.7889,121.9427 C164.1209,103.9267 187.3029,83.2507 222.1359,78.3377 L191.6439,52.8607 L210.7469,14.8367 C140.4949,28.0087 98.4249,72.9967 80.3109,121.9427 C73.6609,139.9097 70.0179,159.3347 70.0179,179.6137 C70.0179,218.1817 83.1929,253.6517 105.2369,281.8507 L236.2029,281.8507 C179.7389,281.8507 133.9659,236.0777 133.9659,179.6137" id="Fill-10" fill="#00D090"></path>
                    <path d="M180.4893,52.0864 L224.3873,90.7714 C225.4343,91.6934 227.0773,90.9164 227.0273,89.5224 L223.9283,2.4134 C223.8783,0.9954 222.1363,0.3484 221.1733,1.3904 L180.1653,45.7254 C178.4683,47.5614 178.6143,50.4334 180.4893,52.0864" id="Fill-12" fill="#19E69B"></path>
                    <path d="M473.6319,314.4922 L431.8589,273.0212 C430.8029,272.0352 429.0799,272.7902 429.0899,274.2342 L429.0899,289.4802 L360.8409,289.4802 C330.3889,323.9992 285.8549,345.8002 236.2029,345.8002 C234.3209,345.8002 232.4639,345.6982 230.5979,345.6362 L230.5979,346.1792 L429.0899,346.1792 L429.0899,361.3622 C429.0989,362.8302 430.8819,363.5522 431.9099,362.5032 L473.7769,321.0832 C475.5879,319.2352 475.5229,316.2592 473.6319,314.4922" id="Fill-14" fill="#00D090"></path>
                    <path d="M0.7071,176.4121 L39.4751,176.4121" id="Stroke-16" stroke="#11193A" stroke-width="2.086" stroke-linecap="round" stroke-linejoin="round"></path>
                    <path d="M432.2218,177.455 L473.0478,177.455" id="Stroke-18" stroke="#11193A" stroke-width="2.086" stroke-linecap="round" stroke-linejoin="round"></path>
                    <path d="M423.7569,177.455 L46.7109,177.455" id="Stroke-20" stroke="#11193A" stroke-width="2.086" stroke-linecap="round" stroke-linejoin="round"></path>
                    <path d="M46.711,177.6128 C46.711,177.6128 113.97,44.8258 238.836,46.7278 C357.113,48.5288 423.757,176.4118 423.757,176.4118" id="Stroke-22" stroke="#11193A" stroke-width="2.086" stroke-linecap="round" stroke-linejoin="round"></path>
                    <path d="M423.7569,178.1928 C423.7569,178.1928 356.4979,310.9798 231.6319,309.0778 C113.3549,307.2768 46.7109,178.3508 46.7109,178.3508" id="Stroke-24" stroke="#11193A" stroke-width="2.086" stroke-linecap="round" stroke-linejoin="round"></path>
                    <path d="M313.1768,176.4121 C313.1768,219.0181 278.6378,253.5581 236.0308,253.5581 C193.4238,253.5581 158.8848,219.0181 158.8848,176.4121 C158.8848,133.8051 193.4238,99.2661 236.0308,99.2661 C278.6378,99.2661 313.1768,133.8051 313.1768,176.4121 Z" id="Stroke-26" stroke="#11193A" stroke-width="2.086" stroke-linecap="round" stroke-linejoin="round"></path>
                </g>
            </g>
        </g>
    </g>
</svg>