<?xml version="1.0" encoding="UTF-8"?>
<svg width="536px" height="659px" viewBox="0 0 536 659" version="1.1" xmlns="http://www.w3.org/2000/svg" xmlns:xlink="http://www.w3.org/1999/xlink">
    <!-- Generator: Sketch 51.3 (57544) - http://www.bohemiancoding.com/sketch -->
    <title>Group 117</title>
    <desc>Created with Sketch.</desc>
    <defs>
        <polygon id="path-1" points="0 0.908571768 535.76 0.908571768 535.76 543.197782 0 543.197782"></polygon>
        <polygon id="path-3" points="0.4588 0.6423 168.0978 0.6423 168.0978 20 0.4588 20"></polygon>
    </defs>
    <g id="Page-1" stroke="none" stroke-width="1" fill="none" fill-rule="evenodd">
        <g id="Design" transform="translate(-91.000000, -671.000000)">
            <g id="Group-117" transform="translate(91.000000, 671.000000)">
                <g id="Group-3" transform="translate(0.000000, 59.925000)">
                    <mask id="mask-2" fill="white">
                        <use xlink:href="#path-1"></use>
                    </mask>
                    <g id="Clip-2"></g>
                    <path d="M325.5958,56.3887 C274.0508,54.8687 260.9178,-1.6623 215.1468,0.9997 C186.0318,2.6937 154.2078,28.7207 143.3628,56.9927 C130.8078,89.7137 146.2688,112.2357 125.8628,137.6497 C123.1508,141.0277 113.6268,152.7287 97.4578,158.9547 C71.2978,169.0287 50.1108,154.0917 24.2768,185.2217 C-10.5912,227.2357 -2.4092,326.3457 14.7488,385.2757 C35.2498,455.6867 81.9388,514.6597 135.0198,525.5117 C141.0038,526.7357 147.6398,526.3297 160.7898,526.2207 C213.9508,525.7747 250.4698,514.1937 266.6808,510.3647 C352.3208,490.1317 392.7728,563.6817 447.1208,537.4847 C496.6158,513.6267 513.3468,428.5967 504.8768,370.5137 C497.1768,317.7027 472.6088,314.3587 472.3398,270.9817 C471.8858,197.5827 542.0488,177.8937 535.3038,121.5977 C529.0558,69.4537 461.0908,21.6267 407.5278,25.4077 C368.2288,28.1807 362.9388,57.4907 325.5958,56.3887" id="Fill-1" fill="#F3F6FD" mask="url(#mask-2)"></path>
                </g>
                <path d="M408.9269,610.4191 C408.9269,617.8831 353.7839,623.9351 285.7629,623.9351 C217.7409,623.9351 162.5989,617.8831 162.5989,610.4191 C162.5989,602.9551 217.7409,596.9031 285.7629,596.9031 C353.7839,596.9031 408.9269,602.9551 408.9269,610.4191" id="Fill-4" fill="#F3F6FD"></path>
                <g id="Group-8" transform="translate(86.000000, 638.925000)">
                    <mask id="mask-4" fill="white">
                        <use xlink:href="#path-3"></use>
                    </mask>
                    <g id="Clip-7"></g>
                    <path d="M168.0978,10.3213 C168.0978,15.6673 130.5708,20.0003 84.2788,20.0003 C37.9868,20.0003 0.4588,15.6673 0.4588,10.3213 C0.4588,4.9753 37.9868,0.6423 84.2788,0.6423 C130.5708,0.6423 168.0978,4.9753 168.0978,10.3213" id="Fill-6" fill="#F3F6FD" mask="url(#mask-4)"></path>
                </g>
                <path d="M87.1417,597.9875 C87.1417,601.2025 74.3127,603.8085 58.4877,603.8085 C42.6617,603.8085 29.8317,601.2025 29.8317,597.9875 C29.8317,594.7735 42.6617,592.1675 58.4877,592.1675 C74.3127,592.1675 87.1417,594.7735 87.1417,597.9875" id="Fill-9" fill="#F3F6FD"></path>
                <path d="M388.3781,610.8644 L183.3251,610.8644 C171.8781,610.8644 162.5991,601.5844 162.5991,590.1364 L162.5991,151.0004 C162.5991,139.5524 171.8781,130.2734 183.3251,130.2734 L388.3781,130.2734 C399.8251,130.2734 409.1061,139.5524 409.1061,151.0004 L409.1061,590.1364 C409.1061,601.5844 399.8251,610.8644 388.3781,610.8644" id="Fill-11" fill="#19E69B"></path>
                <path d="M383.9181,582.9006 L187.9471,582.9006 C182.6481,582.9006 178.3531,578.6046 178.3531,573.3056 L178.3531,165.1916 C178.3531,159.8926 182.6481,155.5966 187.9471,155.5966 L383.9181,155.5966 C389.2171,155.5966 393.5131,159.8926 393.5131,165.1916 L393.5131,573.3056 C393.5131,578.6046 389.2171,582.9006 383.9181,582.9006" id="Fill-13" fill="#FFFFFF"></path>
                <path d="M303.9044,145.3547 L267.7094,145.3547 C266.3274,145.3547 265.1964,144.2237 265.1964,142.8407 C265.1964,141.4587 266.3274,140.3277 267.7094,140.3277 L303.9044,140.3277 C305.2874,140.3277 306.4184,141.4587 306.4184,142.8407 C306.4184,144.2237 305.2874,145.3547 303.9044,145.3547" id="Fill-15" fill="#91EDC1"></path>
                <path d="M331.0968,381.1252 L243.6248,381.1252 C238.6268,381.1252 234.5758,377.0742 234.5758,372.0762 C234.5758,367.0792 238.6268,363.0272 243.6248,363.0272 L331.0968,363.0272 C336.0938,363.0272 340.1458,367.0792 340.1458,372.0762 C340.1458,377.0742 336.0938,381.1252 331.0968,381.1252" id="Fill-17" fill="#242F4E"></path>
                <path d="M346.3087,549.0305 L224.3907,549.0305 C211.9117,549.0305 201.7947,538.9145 201.7947,526.4345 C201.7947,513.9555 211.9117,503.8395 224.3907,503.8395 L346.3087,503.8395 C358.7877,503.8395 368.9047,513.9555 368.9047,526.4345 C368.9047,538.9145 358.7877,549.0305 346.3087,549.0305" id="Fill-19" fill="#A2ACB8"></path>
                <path d="M365.1466,405.1056 L205.5526,405.1056 C203.8126,405.1056 202.4026,403.6996 202.4026,401.9646 C202.4026,400.2306 203.8126,398.8256 205.5526,398.8256 L365.1466,398.8256 C366.8866,398.8256 368.2966,400.2306 368.2966,401.9646 C368.2966,403.6996 366.8866,405.1056 365.1466,405.1056" id="Fill-21" fill="#242F4E"></path>
                <path d="M359.5577,421.1916 L205.4447,421.1916 C203.7647,421.1916 202.4027,419.7866 202.4027,418.0516 C202.4027,416.3176 203.7647,414.9116 205.4447,414.9116 L359.5577,414.9116 C361.2377,414.9116 362.5997,416.3176 362.5997,418.0516 C362.5997,419.7866 361.2377,421.1916 359.5577,421.1916" id="Fill-23" fill="#242F4E"></path>
                <path d="M310.3917,455.5539 C306.7307,455.5539 303.7627,458.5219 303.7627,462.1829 C303.7627,465.8439 306.7307,468.8119 310.3917,468.8119 C314.0527,468.8119 317.0207,465.8439 317.0207,462.1829 C317.0207,458.5219 314.0527,455.5539 310.3917,455.5539 M310.3917,457.3579 C313.0517,457.3579 315.2167,459.5229 315.2167,462.1829 C315.2167,464.8439 313.0517,467.0079 310.3917,467.0079 C307.7307,467.0079 305.5667,464.8439 305.5667,462.1829 C305.5667,459.5229 307.7307,457.3579 310.3917,457.3579" id="Fill-25" fill="#242F4E"></path>
                <path d="M285.3497,455.5539 C281.6887,455.5539 278.7207,458.5219 278.7207,462.1829 C278.7207,465.8439 281.6887,468.8119 285.3497,468.8119 C289.0107,468.8119 291.9787,465.8439 291.9787,462.1829 C291.9787,458.5219 289.0107,455.5539 285.3497,455.5539 M285.3497,457.3579 C288.0107,457.3579 290.1747,459.5229 290.1747,462.1829 C290.1747,464.8439 288.0107,467.0079 285.3497,467.0079 C282.6897,467.0079 280.5247,464.8439 280.5247,462.1829 C280.5247,459.5229 282.6897,457.3579 285.3497,457.3579" id="Fill-27" fill="#242F4E"></path>
                <path d="M266.9366,462.1828 C266.9366,465.8438 263.9686,468.8118 260.3076,468.8118 C256.6466,468.8118 253.6786,465.8438 253.6786,462.1828 C253.6786,458.5218 256.6466,455.5538 260.3076,455.5538 C263.9686,455.5538 266.9366,458.5218 266.9366,462.1828" id="Fill-29" fill="#242F4E"></path>
                <path d="M351.2052,255.9504 C351.2052,291.2114 322.6212,319.7954 287.3602,319.7954 C252.1002,319.7954 223.5172,291.2114 223.5172,255.9504 C223.5172,220.6904 252.1002,192.1064 287.3602,192.1064 C322.6212,192.1064 351.2052,220.6904 351.2052,255.9504" id="Fill-31" fill="#E9EEF8"></path>
                <path d="M287.3605,192.1066 C253.0455,192.1066 225.0615,219.1826 223.5885,253.1346 C233.9905,247.0966 244.5235,240.5796 255.6895,236.5916 C274.1575,228.8156 294.5045,234.1956 311.2795,240.0116 C311.1235,240.5116 311.0395,241.0426 311.0395,241.5906 L311.0395,266.4796 C311.0395,269.4146 313.4405,271.8156 316.3745,271.8156 C319.3085,271.8156 321.7105,269.4146 321.7105,266.4796 L321.7105,258.5486 C322.6775,259.5226 324.0155,260.1276 325.4885,260.1276 C328.4225,260.1276 330.8235,257.7266 330.8235,254.7926 L330.8235,250.1046 C337.5265,254.0116 344.3415,257.3086 351.1915,256.4776 C351.1925,256.3006 351.2055,256.1276 351.2055,255.9506 C351.2055,220.6906 322.6215,192.1066 287.3605,192.1066" id="Fill-33" fill="#19E69B"></path>
                <path d="M136.3517,427.7082 C136.8117,426.9752 137.9407,427.2532 137.9987,428.1162 C138.6077,437.0772 139.6357,465.4642 129.9357,482.2072 C123.2517,493.7452 103.5107,513.9732 90.7807,519.3682 C78.0487,524.7652 71.9197,541.9012 71.9197,541.9012 C71.9197,541.9012 62.8647,498.8682 91.1607,470.6142 C104.7597,456.4332 108.8317,449.2382 119.2587,444.7242 C127.0827,441.3362 133.5907,432.1042 136.3517,427.7082" id="Fill-35" fill="#19E69B"></path>
                <path d="M82.1691,421.215 C81.8631,420.673 80.9951,420.806 80.9451,421.402 C80.6181,425.31 79.2241,434.237 73.2971,442.513 C65.7201,453.091 52.3971,473.984 49.9281,490.397 C47.4581,506.811 67.8171,532.925 87.1061,536.166 C87.1061,536.166 75.7501,520.013 77.7621,500.102 C79.7731,480.19 92.2521,463.782 89.9601,446.29 C88.2571,433.287 84.1601,424.744 82.1691,421.215" id="Fill-37" fill="#33D894"></path>
                <path d="M16.0304,421.4269 C15.7004,420.9169 16.2974,420.3229 16.8044,420.6559 C23.4324,424.9979 41.5514,437.8449 49.1944,453.1029 C58.6374,471.9519 54.2874,524.5239 70.5714,537.6859 C70.5714,537.6859 44.9174,534.4499 32.1654,512.4779 C19.4134,490.5039 19.8264,439.2269 19.6004,431.4269 C19.4864,427.4839 17.5294,423.7369 16.0304,421.4269" id="Fill-39" fill="#19E69B"></path>
                <path d="M80.1769,595.2961 L43.2209,595.2961 C41.5719,595.2961 40.1579,594.1161 39.8639,592.4941 L30.1369,538.9951 L93.2619,538.9951 L83.5339,592.4941 C83.2399,594.1161 81.8259,595.2961 80.1769,595.2961" id="Fill-41" fill="#A2ACB8"></path>
                <path d="M92.4083,540.7014 L32.6953,540.7014 C27.5353,540.7014 23.3123,536.4784 23.3123,531.3174 C23.3123,526.1574 27.5353,521.9344 32.6953,521.9344 L92.4083,521.9344 C97.5693,521.9344 101.7923,526.1574 101.7923,531.3174 C101.7923,536.4784 97.5693,540.7014 92.4083,540.7014" id="Fill-43" fill="#C0C6CE"></path>
                <path d="M145.6485,349.4074 L146.7775,350.7614 C145.1295,348.7864 145.9015,345.5214 148.4995,343.4704 C148.4995,343.4704 184.6225,310.6534 197.2055,300.2854 C210.0055,289.7384 250.9725,261.5254 250.9725,261.5254 C253.5715,259.4744 257.1165,265.0124 254.5175,267.0634 C254.5175,267.0634 218.3985,300.2894 205.6175,310.3774 C192.8365,320.4664 153.3355,349.2724 153.3355,349.2724 C150.7365,351.3234 147.2945,351.3844 145.6485,349.4074" id="Fill-45" fill="#363D5A"></path>
                <path d="M240.1202,280.1887 C236.5732,277.6287 235.8792,275.1037 234.7282,272.7877 C235.2812,272.3977 251.3492,261.2477 251.3492,261.2477 C253.3772,259.6457 257.0502,265.0467 255.0212,266.6477 C255.0212,266.6477 240.5432,279.7597 240.1202,280.1887" id="Fill-47" fill="#363D5A"></path>
                <path d="M284.1007,244.4025 C270.9047,236.3345 230.8217,251.1015 246.4467,269.8475 C251.4137,275.8065 265.6257,276.2915 272.2467,264.7425 C278.6477,253.5755 272.8297,255.0885 284.4027,245.7575 C284.9107,245.3485 284.6597,244.7445 284.1007,244.4025" id="Fill-49" fill="#C0C6CE"></path>
                <path d="M272.2462,264.7424 C278.6472,253.5754 272.8302,255.0884 284.4022,245.7584 C284.9102,245.3484 284.6592,244.7444 284.1002,244.4024 C276.8902,239.9934 261.6512,242.4034 251.8602,248.5554 C254.4132,251.3104 257.7002,253.7804 261.0962,255.3024 C264.9922,257.0484 267.5292,256.8824 269.4392,259.4244 C271.3062,261.9064 270.9782,264.8514 270.3502,267.4864 C271.0312,266.6584 271.6692,265.7494 272.2462,264.7424" id="Fill-51" fill="#19E69B"></path>
                <path d="M170.6446,268.7316 C170.6446,268.7316 178.0356,278.9266 171.1396,295.8536 C170.6046,297.1686 161.1196,295.5496 161.1196,295.5496 C161.1196,295.5496 161.9336,300.5336 162.9656,303.6566 C163.3526,304.8256 164.3486,307.9836 164.0266,309.0966 C162.8186,313.2646 140.4386,314.7296 144.3906,306.6096 C147.7826,299.6436 148.2146,294.0706 148.2146,294.0706 C148.2146,294.0706 148.5996,257.7096 170.6446,268.7316" id="Fill-53" fill="#C0C6CE"></path>
                <path d="M128.4982,537.3224 L128.4982,546.7424 C128.4982,547.9244 129.2892,548.8814 130.2642,548.8814 L156.7862,548.8814 L156.7862,547.6964 C156.7862,546.7544 156.1652,545.9264 155.2582,545.6704 C151.4602,544.5994 146.5012,541.4974 141.5942,537.0654 C133.5502,529.8004 128.4982,537.3224 128.4982,537.3224" id="Fill-55" fill="#000947"></path>
                <path d="M175.5597,537.3224 L175.5597,546.7424 C175.5597,547.9244 176.3507,548.8814 177.3257,548.8814 L208.8017,548.8814 L208.8017,547.6964 C208.8017,546.7544 208.1797,545.9264 207.2737,545.6704 C203.4757,544.5994 193.5627,541.4974 188.6557,537.0654 C180.6117,529.8004 175.5597,537.3224 175.5597,537.3224" id="Fill-57" fill="#000947"></path>
                <polygon id="Fill-59" fill="#242F4E" points="125.9425 379.2424 128.4985 537.3224 141.5935 537.0654 159.1685 395.6744 156.8565 361.1944"></polygon>
                <path d="M151.6085,324.6809 L142.1925,311.2689 C142.1925,311.2689 120.3095,332.3689 120.1715,337.5489 C119.9215,346.9419 154.0985,362.6509 154.0985,362.6509 C154.0985,362.6509 161.0315,376.3729 161.2505,378.8429 C161.4675,381.3139 163.8405,367.6769 165.0725,362.8049 C165.8285,359.8119 170.9905,363.6169 172.1905,362.5779 C173.3895,361.5409 162.4085,353.0789 159.9765,354.3279 C158.2995,355.1919 134.2845,340.3709 134.2085,338.3749 C134.1135,335.9009 151.6085,324.6809 151.6085,324.6809" id="Fill-61" fill="#C0C6CE"></path>
                <polygon id="Fill-63" fill="#363D5A" points="139.755 379.6779 175.56 537.3549 188.994 537.3549 180.001 379.2419"></polygon>
                <path d="M161.4454,303.09 C161.4454,303.09 168.7664,300.932 175.4914,321.242 C182.2154,341.553 180.3554,380.582 180.3554,380.582 L125.9644,380.582 C125.9644,380.582 121.5184,313.014 146.1364,303.915 C146.1364,303.915 148.8144,307.123 153.3344,306.876 C157.8534,306.628 161.4454,303.09 161.4454,303.09" id="Fill-65" fill="#19E69B"></path>
                <path d="M208.8585,308.1018 C208.6555,311.1678 199.2835,334.2568 197.3085,334.5578 C194.8605,334.9308 182.8205,319.1968 182.8205,319.1968 L170.5545,330.0638 C170.5545,330.0638 193.9865,349.4288 199.1485,348.9828 C208.2105,348.2008 214.7775,313.3178 215.8075,311.4128 C212.8065,309.4428 208.8585,308.1018 208.8585,308.1018" id="Fill-67" fill="#C0C6CE"></path>
                <path d="M173.8692,334.9855 C173.8692,334.9855 152.8612,317.2895 160.2452,310.5405 C167.6292,303.7915 185.7702,321.3155 185.7702,321.3155 C185.7702,321.3155 179.5292,331.7525 173.8692,334.9855" id="Fill-69" fill="#33D894"></path>
                <path d="M174.9464,257.5402 C174.4444,261.5152 173.2324,267.5422 170.4684,268.7072 C170.4564,268.7122 170.4504,268.7152 170.4374,268.7112 C170.0614,268.5782 160.7274,265.4022 154.8444,275.4022 C149.1604,285.0642 149.4424,293.4532 149.4424,293.4532 C148.8934,292.2822 137.0564,290.1562 137.0564,275.0422 C137.0564,270.4182 141.1984,269.3342 141.7624,268.5192 C142.3834,267.6242 141.9914,264.2422 142.8364,263.2342 C148.0094,257.0722 160.6704,259.2712 164.4674,255.8872 C167.2594,253.3992 175.6144,252.2542 174.9464,257.5402" id="Fill-71" fill="#000947"></path>
                <path d="M154.7208,277.4143 C154.6628,277.0713 154.4328,276.7863 154.1088,276.6623 C152.9858,276.2313 150.3878,275.5673 149.6138,278.2463 C148.7648,281.1883 152.0948,283.5803 154.5798,283.7503 C155.2048,283.7923 155.6988,283.2203 155.5938,282.6013 L154.7208,277.4143 Z" id="Fill-73" fill="#C0C6CE"></path>
                <path d="M215.0577,301.9455 C212.9537,303.1475 214.6607,297.2725 213.6597,296.5325 C213.0717,296.0975 211.5137,299.9965 209.5667,303.0235 C208.2047,305.1395 208.8937,307.8595 208.8587,308.1015 C210.6347,310.0375 213.4087,310.3375 215.8437,311.4125 C215.9627,310.8965 215.8067,310.1185 217.1097,309.6325 C217.9247,309.3265 219.9277,308.3165 220.3277,307.5435 C221.7107,304.8605 221.5857,299.4215 221.6107,296.5475 C221.6147,296.1575 218.3637,300.0585 215.0577,301.9455" id="Fill-75" fill="#C0C6CE"></path>
                <path d="M339.8966,16.7912 C339.8966,16.7912 336.9566,37.7532 330.8276,38.7512 C324.6996,39.7492 311.8086,29.9312 311.8086,29.9312 L323.7156,9.6862 L339.8966,16.7912 Z" id="Fill-77" fill="#C0C6CE"></path>
                <path d="M314.673,74.9104 C314.673,74.9104 313.954,92.6604 317.531,95.8274 C321.109,98.9944 352.327,85.7964 352.327,85.7964 L350.151,80.1674 C350.151,80.1674 325.11,87.8924 324.014,87.0414 C322.917,86.1894 327.194,69.9224 327.194,69.9224 L314.673,74.9104 Z" id="Fill-79" fill="#C0C6CE"></path>
                <path d="M308.1349,32.3068 C308.1349,32.3068 300.9539,30.1248 298.0679,34.6108 C295.1799,39.0968 293.6329,48.1968 288.2609,49.9548 C282.8889,51.7138 279.7299,61.4938 282.2809,67.9598 C284.8319,74.4258 285.7849,77.0138 284.8219,80.5768 C283.8569,84.1378 295.0689,88.9548 301.1389,81.2638 C307.2099,73.5718 318.0309,49.2148 314.6229,40.5058 C311.2149,31.7958 308.1349,32.3068 308.1349,32.3068" id="Fill-81" fill="#000947"></path>
                <path d="M313.2726,34.1379 C313.7816,33.2029 313.4366,32.0329 312.5026,31.5239 L310.0016,30.1599 C309.0666,29.6509 307.8966,29.9949 307.3866,30.9299 C306.8776,31.8649 307.2226,33.0349 308.1576,33.5439 L310.6586,34.9079 C311.5926,35.4169 312.7626,35.0729 313.2726,34.1379" id="Fill-83" fill="#A2ACB8"></path>
                <path d="M315.0167,29.6691 C315.0167,29.6691 308.2017,42.5581 306.0987,43.6511 C305.8237,43.7951 307.6707,51.3771 314.1887,52.0061 C323.2627,52.8811 323.6807,47.1461 323.6807,47.1461 C323.6807,47.1461 321.5857,44.9581 321.4927,44.7501 C320.3267,42.1591 323.2197,33.8411 323.2197,33.8411 L315.0167,29.6691 Z" id="Fill-85" fill="#C0C6CE"></path>
                <path d="M381.755,201.5979 L381.479,208.7849 C381.444,209.6849 382.02,210.4389 382.763,210.4669 L406.775,211.3889 L406.81,210.4849 C406.837,209.7659 406.388,209.1169 405.703,208.8949 C402.837,207.9659 395.562,205.5129 391.948,201.9889 C386.025,196.2099 381.755,201.5979 381.755,201.5979" id="Fill-87" fill="#242F4E"></path>
                <path d="M293.839,66.3332 C295.997,48.1412 296.928,45.1452 306.099,43.6512 C306.099,43.6512 312.651,51.3472 318.217,50.7472 C321.277,50.4172 321.492,44.7502 321.492,44.7502 C321.492,44.7502 322.845,46.0452 326.494,49.6022 C332.328,55.2872 338.216,63.5072 331.499,69.2232 C329.47,70.9502 334.823,99.2662 334.823,99.2662 L302.586,102.7422 C302.586,102.7422 292.507,77.5622 293.839,66.3332" id="Fill-89" fill="#19E69B"></path>
                <path d="M334.8234,99.2658 C334.8234,99.2658 370.2214,110.1188 383.4104,116.2598 C386.0754,117.5008 388.1234,119.9208 388.5254,122.8338 C390.6264,138.0678 391.9484,201.9888 391.9484,201.9888 L381.7554,201.5978 L374.5704,141.8988 L310.0114,101.9418 L334.8234,99.2658 Z" id="Fill-91" fill="#242F4E"></path>
                <path d="M294.2697,76.9816 C294.2697,76.9816 296.2457,94.7926 300.5257,96.9146 C304.8057,99.0366 331.9067,79.5106 331.9067,79.5106 L329.0717,74.5836 C329.0717,74.5836 306.3817,87.1896 305.1007,86.6546 C303.8197,86.1196 305.0517,68.8936 305.0517,68.8936 L294.2697,76.9816 Z" id="Fill-93" fill="#C0C6CE"></path>
                <path d="M300.6993,46.9836 C305.0533,48.8916 306.0523,58.5536 305.6113,74.7806 C305.6023,75.0936 305.3863,75.3696 305.0833,75.4456 L293.9703,77.3176 C293.7013,77.3846 293.4333,77.2056 293.4013,76.9286 C293.0263,73.6976 291.6433,56.7016 294.6633,51.4986 C295.9703,49.2476 298.3153,45.9386 300.6993,46.9836" id="Fill-95" fill="#33D894"></path>
                <path d="M337.1681,4.9064 C333.4721,5.8024 333.1881,-1.1106 321.4411,0.1554 C313.2851,1.0354 310.6841,4.7834 306.6461,14.5604 C301.0691,28.0644 310.8571,33.9854 314.3261,32.7934 C322.7931,29.8834 322.2411,24.7644 322.2411,24.7644 C322.2411,24.7644 324.8931,19.3844 325.4391,19.5284 C331.8911,21.2384 339.2161,17.2844 339.2161,17.2844 C339.2161,17.2844 339.5471,22.1154 342.3381,21.6254 C345.1291,21.1344 344.8641,15.1584 344.4561,12.5484 C344.0481,9.9374 340.9261,3.9954 337.1681,4.9064" id="Fill-97" fill="#000947"></path>
                <path d="M357.5568,85.5852 L336.2838,87.8792 C335.8978,87.9202 335.6528,87.4762 335.8948,87.1722 L359.8528,58.1722 C359.9248,58.0802 360.0318,58.0222 360.1478,58.0092 L381.4208,55.7162 C381.8078,55.6742 382.0518,56.1182 381.8108,56.4222 L357.8528,85.4222 C357.7798,85.5142 357.6728,85.5722 357.5568,85.5852" id="Fill-99" fill="#000947"></path>
                <path d="M363.255,79.6252 C363.612,78.7172 362.304,76.8172 362.304,76.8172 C362.232,76.6602 361.968,76.7212 361.724,76.9542 C360.822,77.8182 358.679,79.8152 358.635,80.2642 C358.465,82.0112 359.014,84.0092 359.413,83.8592 C360.527,83.4442 362.971,80.3502 363.255,79.6252" id="Fill-101" fill="#C0C6CE"></path>
                <path d="M330.8126,80.5383 C327.3996,82.7183 324.8336,77.3483 328.5516,74.6723 C330.3496,73.3783 333.2796,67.5173 342.0606,70.5443 C342.6406,70.7443 342.8286,73.4593 342.9406,74.6083 C342.9706,74.9193 342.7326,75.1873 342.4206,75.1983 C342.4206,75.1983 334.1316,74.5723 335.2876,75.9433 C335.3926,76.0683 341.3746,76.7283 336.2496,77.9543 C331.0546,79.1983 332.0816,79.7283 330.8126,80.5383" id="Fill-103" fill="#C0C6CE"></path>
                <path d="M337.6837,194.6682 L333.4397,200.6832 C332.9027,201.4072 332.9517,202.3542 333.5487,202.7972 L352.8447,217.1172 L353.3847,216.3912 C353.8137,215.8142 353.8087,215.0232 353.3697,214.4542 C351.5287,212.0692 346.9097,205.9372 345.9167,200.9872 C344.2907,192.8732 337.6837,194.6682 337.6837,194.6682" id="Fill-105" fill="#242F4E"></path>
                <path d="M325.8654,20.8098 C325.9554,20.5318 325.8934,20.2278 325.6994,20.0088 C325.0254,19.2488 323.3374,17.7418 321.7154,19.4488 C319.9344,21.3238 321.5014,24.4098 323.2974,25.5028 C323.7494,25.7778 324.3414,25.5398 324.5034,25.0378 L325.8654,20.8098 Z" id="Fill-107" fill="#C0C6CE"></path>
                <path d="M303.1241,102.6838 C302.7951,102.7198 302.5241,102.9538 302.4391,103.2738 C301.4571,107.0028 296.3521,129.1138 313.0631,130.2438 C333.3321,131.6138 352.8051,136.1378 357.0411,137.1668 C357.4991,137.2788 357.7541,137.7588 357.5981,138.2038 L337.8811,194.1098 C337.7641,194.4418 337.8781,194.8098 338.1621,195.0168 L345.2181,200.1688 C345.6051,200.4528 346.1531,200.3298 346.3851,199.9108 L378.2501,141.9748 C378.2711,141.9358 378.2871,141.9028 378.3021,141.8608 C378.6261,140.9448 382.3991,129.5378 371.2341,123.4658 C360.1191,117.4198 328.5951,101.7558 325.7861,100.3618 C325.6501,100.2938 325.5061,100.2708 325.3541,100.2878 L303.1241,102.6838 Z" id="Fill-109" fill="#363D5A"></path>
                <path d="M156.3526,650.0451 C155.6906,650.0451 155.0946,649.5851 154.9476,648.9111 L126.5166,552.2961 C126.3466,551.5201 126.8386,550.7521 127.6156,550.5831 C128.3906,550.4111 129.1596,550.9051 129.3296,551.6821 L157.7596,648.2981 C157.9296,649.0741 157.4376,649.8411 156.6616,650.0111 C156.5576,650.0331 156.4546,650.0451 156.3526,650.0451" id="Fill-111" fill="#11193A"></path>
                <path d="M238.1554,650.0451 C237.4864,650.0451 236.8874,649.5751 236.7474,648.8951 L209.5424,550.3621 C209.3824,549.5831 209.8834,548.8211 210.6614,548.6611 C211.4454,548.5041 212.2024,549.0031 212.3624,549.7811 L239.5674,648.3141 C239.7274,649.0931 239.2254,649.8551 238.4474,650.0151 C238.3494,650.0341 238.2524,650.0451 238.1554,650.0451" id="Fill-113" fill="#11193A"></path>
                <path d="M190.131,611.5031 L112.639,611.5031 L120.18,583.3351 C120.267,583.3501 120.356,583.3621 120.446,583.3621 L199.19,583.3621 L190.648,611.5971 C190.485,611.5401 190.314,611.5031 190.131,611.5031 Z M128.596,551.8981 L208.709,551.8981 L200.191,580.0531 C200.164,580.0521 200.138,580.0441 200.11,580.0441 L121.061,580.0441 L128.596,551.8981 Z M212.614,550.2151 C212.604,549.2971 211.847,548.5491 210.933,548.5721 L128.119,548.5721 C128.049,548.5731 127.983,548.5831 127.915,548.5901 C127.907,548.5891 127.902,548.5851 127.894,548.5841 C127.114,548.4251 126.358,548.9401 126.205,549.7211 L100,647.6081 C99.848,648.3881 100.357,649.1441 101.137,649.2961 C101.238,649.3161 101.34,649.3241 101.44,649.3231 C102.105,649.3121 102.693,648.8371 102.826,648.1581 L111.745,614.8411 L189.666,614.8411 L179.547,648.2881 C179.373,649.0641 179.86,649.8341 180.635,650.0091 C180.742,650.0321 180.849,650.0441 180.953,650.0441 C181.611,650.0441 182.205,649.5901 182.357,648.9211 L211.778,551.6691 C212.281,551.3781 212.622,550.8381 212.614,550.2151 Z" id="Fill-115" fill="#11193A"></path>
            </g>
        </g>
    </g>
</svg>