<?xml version="1.0" encoding="UTF-8"?>
<svg width="418px" height="514px" viewBox="0 0 418 514" version="1.1" xmlns="http://www.w3.org/2000/svg" xmlns:xlink="http://www.w3.org/1999/xlink">
    <!-- Generator: Sketch 51.3 (57544) - http://www.bohemiancoding.com/sketch -->
    <title>Group 144</title>
    <desc>Created with Sketch.</desc>
    <defs>
        <polygon id="path-1" points="0 0.453282803 417.999595 0.453282803 417.999595 423.470274 0 423.470274"></polygon>
        <polygon id="path-3" points="0.4548 0.8991 131.2468 0.8991 131.2468 16 0.4548 16"></polygon>
        <polygon id="path-5" points="0.933151046 0 31.9418905 0 31.9418905 25.697285 0.933151046 25.697285"></polygon>
    </defs>
    <g id="Page-1" stroke="none" stroke-width="1" fill="none" fill-rule="evenodd">
        <g id="Design" transform="translate(-121.000000, -704.000000)">
            <g id="Group-144" transform="translate(121.000000, 704.000000)">
                <g id="Group-3" transform="translate(0.000000, 47.000000)">
                    <mask id="mask-2" fill="white">
                        <use xlink:href="#path-1"></use>
                    </mask>
                    <g id="Clip-2"></g>
                    <path d="M254.03,43.7314 C213.814,42.5454 203.568,-1.5526 167.857,0.5244 C145.141,1.8464 120.313,22.1484 111.851,44.2024 C102.056,69.7274 114.119,87.2944 98.198,107.1194 C96.082,109.7534 88.652,118.8814 76.037,123.7384 C55.627,131.5964 39.096,119.9454 18.94,144.2284 C-8.263,177.0024 -1.88,254.3134 11.507,300.2824 C27.502,355.2074 63.928,401.2094 105.343,409.6744 C110.011,410.6284 115.188,410.3134 125.448,410.2274 C166.925,409.8794 195.416,400.8454 208.064,397.8584 C274.88,382.0764 306.441,439.4494 348.843,419.0134 C387.459,400.4044 400.512,334.0754 393.905,288.7674 C387.897,247.5724 368.729,244.9624 368.519,211.1264 C368.165,153.8714 422.906,138.5114 417.643,94.5974 C412.768,53.9224 359.743,16.6144 317.953,19.5634 C287.292,21.7274 283.164,44.5904 254.03,43.7314" id="Fill-1" fill="#F3F6FD" mask="url(#mask-2)"></path>
                </g>
                <path d="M174.3855,37.1313 C174.1995,37.1313 174.0145,37.0663 173.8645,36.9333 C173.5405,36.6453 173.5115,36.1503 173.7985,35.8263 C175.5595,33.8433 178.0895,32.7063 180.7395,32.7063 C183.2185,32.7063 185.5485,33.6713 187.3015,35.4233 C187.6085,35.7293 187.6085,36.2263 187.3015,36.5323 C186.9955,36.8393 186.4985,36.8393 186.1925,36.5323 C184.7365,35.0763 182.7995,34.2743 180.7395,34.2743 C178.5375,34.2743 176.4355,35.2193 174.9725,36.8673 C174.8175,37.0423 174.6015,37.1313 174.3855,37.1313" id="Fill-4" fill="#242F4E"></path>
                <path d="M165.9675,30.3774 C165.7725,30.3774 165.5765,30.3054 165.4245,30.1604 C165.1125,29.8604 165.1005,29.3644 165.4005,29.0504 C169.4875,24.7794 174.9915,22.4274 180.9025,22.4274 C186.6315,22.4274 192.0175,24.6574 196.0685,28.7084 C196.3745,29.0154 196.3745,29.5114 196.0685,29.8174 C195.7615,30.1244 195.2655,30.1244 194.9585,29.8174 C191.2045,26.0634 186.2125,23.9964 180.9025,23.9964 C175.4245,23.9964 170.3215,26.1764 166.5335,30.1354 C166.3795,30.2964 166.1735,30.3774 165.9675,30.3774" id="Fill-6" fill="#242F4E"></path>
                <path d="M158.4196,22.9687 C158.2246,22.9687 158.0276,22.8957 157.8756,22.7497 C157.5646,22.4487 157.5546,21.9527 157.8556,21.6407 C163.9546,15.3077 172.1556,11.8207 180.9466,11.8207 C189.5096,11.8207 197.5606,15.1547 203.6156,21.2087 C203.9216,21.5147 203.9216,22.0117 203.6156,22.3177 C203.3096,22.6237 202.8126,22.6237 202.5066,22.3177 C196.7466,16.5597 189.0906,13.3887 180.9466,13.3887 C172.5856,13.3887 164.7866,16.7057 158.9846,22.7287 C158.8306,22.8887 158.6256,22.9687 158.4196,22.9687" id="Fill-8" fill="#242F4E"></path>
                <path d="M180.6736,45.3686 C179.2876,45.3686 178.1616,46.4946 178.1616,47.8806 C178.1616,49.2656 179.2876,50.3926 180.6736,50.3926 C182.0596,50.3926 183.1866,49.2656 183.1866,47.8806 C183.1866,46.4946 182.0596,45.3686 180.6736,45.3686 M180.6736,51.9616 C178.4236,51.9616 176.5926,50.1306 176.5926,47.8806 C176.5926,45.6306 178.4236,43.7996 180.6736,43.7996 C182.9246,43.7996 184.7546,45.6306 184.7546,47.8806 C184.7546,50.1306 182.9246,51.9616 180.6736,51.9616" id="Fill-10" fill="#242F4E"></path>
                <path d="M319.0437,476.163 C319.0437,481.985 276.0227,486.705 222.9517,486.705 C169.8817,486.705 126.8587,481.985 126.8587,476.163 C126.8587,470.34 169.8817,465.62 222.9517,465.62 C276.0227,465.62 319.0437,470.34 319.0437,476.163" id="Fill-12" fill="#F3F6FD"></path>
                <g id="Group-16" transform="translate(67.000000, 498.000000)">
                    <mask id="mask-4" fill="white">
                        <use xlink:href="#path-3"></use>
                    </mask>
                    <g id="Clip-15"></g>
                    <path d="M131.2468,8.4501 C131.2468,12.6201 101.9688,16.0001 65.8508,16.0001 C29.7338,16.0001 0.4548,12.6201 0.4548,8.4501 C0.4548,4.2801 29.7338,0.8991 65.8508,0.8991 C101.9688,0.8991 131.2468,4.2801 131.2468,8.4501" id="Fill-14" fill="#F3F6FD" mask="url(#mask-4)"></path>
                </g>
                <path d="M67.988,466.4658 C67.988,468.9728 57.978,471.0058 45.632,471.0058 C33.285,471.0058 23.275,468.9728 23.275,466.4658 C23.275,463.9578 33.285,461.9248 45.632,461.9248 C57.978,461.9248 67.988,463.9578 67.988,466.4658" id="Fill-17" fill="#F3F6FD"></path>
                <path d="M303.0134,476.5097 L143.0294,476.5097 C134.0984,476.5097 126.8594,469.2707 126.8594,460.3397 L126.8594,117.7897 C126.8594,108.8607 134.0984,101.6197 143.0294,101.6197 L303.0134,101.6197 C311.9444,101.6197 319.1834,108.8607 319.1834,117.7897 L319.1834,460.3397 C319.1834,469.2707 311.9444,476.5097 303.0134,476.5097" id="Fill-19" fill="#19E69B"></path>
                <path d="M299.5329,454.6962 L146.6359,454.6962 C142.5019,454.6962 139.1509,451.3452 139.1509,447.2122 L139.1509,128.8592 C139.1509,124.7252 142.5019,121.3752 146.6359,121.3752 L299.5329,121.3752 C303.6679,121.3752 307.0179,124.7252 307.0179,128.8592 L307.0179,447.2122 C307.0179,451.3452 303.6679,454.6962 299.5329,454.6962" id="Fill-21" fill="#FFFFFF"></path>
                <path d="M237.1062,113.3847 L208.8672,113.3847 C207.7882,113.3847 206.9062,112.5027 206.9062,111.4237 C206.9062,110.3457 207.7882,109.4627 208.8672,109.4627 L237.1062,109.4627 C238.1852,109.4627 239.0672,110.3457 239.0672,111.4237 C239.0672,112.5027 238.1852,113.3847 237.1062,113.3847" id="Fill-23" fill="#91EDC1"></path>
                <path d="M258.322,297.2998 L190.075,297.2998 C186.176,297.2998 183.016,294.1398 183.016,290.2408 C183.016,286.3428 186.176,283.1828 190.075,283.1828 L258.322,283.1828 C262.22,283.1828 265.381,286.3428 265.381,290.2408 C265.381,294.1398 262.22,297.2998 258.322,297.2998" id="Fill-25" fill="#242F4E"></path>
                <path d="M270.1902,428.2763 L175.0692,428.2763 C165.3332,428.2763 157.4402,420.3843 157.4402,410.6503 C157.4402,400.9153 165.3332,393.0233 175.0692,393.0233 L270.1902,393.0233 C279.9262,393.0233 287.8192,400.9153 287.8192,410.6503 C287.8192,420.3843 279.9262,428.2763 270.1902,428.2763" id="Fill-27" fill="#A2ACB8"></path>
                <path d="M284.8874,316.0058 L160.3714,316.0058 C159.0144,316.0058 157.9144,314.9088 157.9144,313.5568 C157.9144,312.2028 159.0144,311.1068 160.3714,311.1068 L284.8874,311.1068 C286.2444,311.1068 287.3454,312.2028 287.3454,313.5568 C287.3454,314.9088 286.2444,316.0058 284.8874,316.0058" id="Fill-29" fill="#242F4E"></path>
                <path d="M280.5271,328.5546 L160.2881,328.5546 C158.9771,328.5546 157.9151,327.4576 157.9151,326.1046 C157.9151,324.7516 158.9771,323.6556 160.2881,323.6556 L280.5271,323.6556 C281.8381,323.6556 282.9001,324.7516 282.9001,326.1046 C282.9001,327.4576 281.8381,328.5546 280.5271,328.5546" id="Fill-31" fill="#242F4E"></path>
                <path d="M242.1677,355.3584 C239.3117,355.3584 236.9957,357.6734 236.9957,360.5294 C236.9957,363.3854 239.3117,365.7004 242.1677,365.7004 C245.0227,365.7004 247.3397,363.3854 247.3397,360.5294 C247.3397,357.6734 245.0227,355.3584 242.1677,355.3584 M242.1677,356.7654 C244.2427,356.7654 245.9327,358.4544 245.9327,360.5294 C245.9327,362.6054 244.2427,364.2944 242.1677,364.2944 C240.0917,364.2944 238.4027,362.6054 238.4027,360.5294 C238.4027,358.4544 240.0917,356.7654 242.1677,356.7654" id="Fill-33" fill="#242F4E"></path>
                <path d="M222.6296,355.3584 C219.7736,355.3584 217.4576,357.6734 217.4576,360.5294 C217.4576,363.3854 219.7736,365.7004 222.6296,365.7004 C225.4856,365.7004 227.8016,363.3854 227.8016,360.5294 C227.8016,357.6734 225.4856,355.3584 222.6296,355.3584 M222.6296,356.7654 C224.7056,356.7654 226.3946,358.4544 226.3946,360.5294 C226.3946,362.6054 224.7056,364.2944 222.6296,364.2944 C220.5536,364.2944 218.8646,362.6054 218.8646,360.5294 C218.8646,358.4544 220.5536,356.7654 222.6296,356.7654" id="Fill-35" fill="#242F4E"></path>
                <path d="M208.2634,360.5293 C208.2634,363.3853 205.9484,365.7003 203.0914,365.7003 C200.2364,365.7003 197.9204,363.3853 197.9204,360.5293 C197.9204,357.6743 200.2364,355.3593 203.0914,355.3593 C205.9484,355.3593 208.2634,357.6743 208.2634,360.5293" id="Fill-37" fill="#242F4E"></path>
                <path d="M274.0095,199.6562 C274.0095,227.1612 251.7085,249.4592 224.1985,249.4592 C196.6885,249.4592 174.3875,227.1612 174.3875,199.6562 C174.3875,172.1512 196.6885,149.8542 224.1985,149.8542 C251.7085,149.8542 274.0095,172.1512 274.0095,199.6562" id="Fill-39" fill="#E9EEF8"></path>
                <path d="M224.1989,149.8545 C197.4259,149.8545 175.5939,170.9745 174.4429,197.4595 C182.5589,192.7505 190.7769,187.6665 199.4889,184.5545 C213.8969,178.4895 229.7709,182.6855 242.8599,187.2235 C242.7379,187.6135 242.6729,188.0265 242.6729,188.4555 L242.6729,207.8705 C242.6729,210.1595 244.5459,212.0325 246.8359,212.0325 C249.1249,212.0325 250.9979,210.1595 250.9979,207.8705 L250.9979,201.6835 C251.7539,202.4425 252.7969,202.9155 253.9449,202.9155 C256.2349,202.9155 258.1079,201.0425 258.1079,198.7525 L258.1079,195.0965 C263.3379,198.1445 268.6549,200.7155 273.9999,200.0675 C274.0009,199.9295 274.0099,199.7935 274.0099,199.6565 C274.0099,172.1515 251.7089,149.8545 224.1989,149.8545" id="Fill-41" fill="#19E69B"></path>
                <path d="M106.3816,333.6367 C106.7406,333.0657 107.6206,333.2827 107.6666,333.9547 C108.1416,340.9467 108.9446,363.0897 101.3756,376.1497 C96.1606,385.1497 80.7596,400.9287 70.8266,405.1377 C60.8936,409.3467 56.1116,422.7147 56.1116,422.7147 C56.1116,422.7147 49.0466,389.1467 71.1236,367.1067 C81.7336,356.0447 84.9106,350.4317 93.0456,346.9097 C99.1506,344.2677 104.2276,337.0667 106.3816,333.6367" id="Fill-43" fill="#19E69B"></path>
                <path d="M64.1081,328.5722 C63.8701,328.1492 63.1921,328.2532 63.1531,328.7182 C62.8981,331.7662 61.8101,338.7302 57.1861,345.1852 C51.2741,353.4372 40.8791,369.7352 38.9531,382.5382 C37.0271,395.3422 52.9111,415.7132 67.9601,418.2412 C67.9601,418.2412 59.1001,405.6402 60.6701,390.1082 C62.2381,374.5762 71.9751,361.7772 70.1871,348.1332 C68.8581,337.9892 65.6621,331.3252 64.1081,328.5722" id="Fill-45" fill="#33D894"></path>
                <path d="M12.5066,328.7373 C12.2486,328.3403 12.7146,327.8773 13.1106,328.1353 C18.2816,331.5233 32.4176,341.5443 38.3816,353.4463 C45.7486,368.1503 42.3546,409.1593 55.0596,419.4253 C55.0596,419.4253 35.0446,416.9023 25.0956,399.7613 C15.1466,382.6223 15.4686,342.6223 15.2926,336.5383 C15.2036,333.4633 13.6766,330.5393 12.5066,328.7373" id="Fill-47" fill="#19E69B"></path>
                <path d="M62.5544,464.3652 L33.7214,464.3652 C32.4344,464.3652 31.3314,463.4452 31.1014,462.1792 L23.5124,420.4472 L72.7624,420.4472 L65.1734,462.1792 C64.9434,463.4452 63.8404,464.3652 62.5544,464.3652" id="Fill-49" fill="#A2ACB8"></path>
                <path d="M72.0974,421.7783 L25.5094,421.7783 C21.4834,421.7783 18.1884,418.4843 18.1884,414.4593 C18.1884,410.4333 21.4834,407.1393 25.5094,407.1393 L72.0974,407.1393 C76.1234,407.1393 79.4174,410.4333 79.4174,414.4593 C79.4174,418.4843 76.1234,421.7783 72.0974,421.7783" id="Fill-51" fill="#C0C6CE"></path>
                <path d="M113.6345,272.5585 L114.5155,273.6155 C113.2305,272.0735 113.8315,269.5275 115.8595,267.9275 C115.8595,267.9275 144.0425,242.3275 153.8605,234.2405 C163.8465,226.0125 195.8095,204.0045 195.8095,204.0045 C197.8355,202.4055 200.6025,206.7245 198.5745,208.3255 C198.5745,208.3255 170.3945,234.2435 160.4225,242.1125 C150.4505,249.9815 119.6315,272.4535 119.6315,272.4535 C117.6045,274.0525 114.9195,274.0995 113.6345,272.5585" id="Fill-53" fill="#363D5A"></path>
                <path d="M187.3415,218.5634 C184.5745,216.5674 184.0325,214.5964 183.1345,212.7894 C183.5665,212.4864 196.1025,203.7884 196.1025,203.7884 C197.6845,202.5394 200.5505,206.7514 198.9675,208.0004 C198.9675,208.0004 187.6715,218.2284 187.3415,218.5634" id="Fill-55" fill="#363D5A"></path>
                <path d="M221.655,190.6484 C211.359,184.3544 180.087,195.8744 192.278,210.4974 C196.153,215.1454 207.241,215.5224 212.406,206.5144 C217.4,197.8024 212.862,198.9834 221.89,191.7054 C222.287,191.3854 222.091,190.9144 221.655,190.6484" id="Fill-57" fill="#C0C6CE"></path>
                <path d="M212.406,206.5146 C217.4,197.8036 212.862,198.9836 221.89,191.7046 C222.287,191.3856 222.091,190.9136 221.655,190.6486 C216.029,187.2086 204.14,189.0886 196.502,193.8866 C198.493,196.0356 201.057,197.9636 203.707,199.1506 C206.747,200.5126 208.726,200.3826 210.217,202.3656 C211.673,204.3026 211.417,206.5996 210.927,208.6556 C211.459,208.0086 211.956,207.2996 212.406,206.5146" id="Fill-59" fill="#19E69B"></path>
                <path d="M133.1364,209.6259 C133.1364,209.6259 138.9034,217.5789 133.5234,230.7829 C133.1054,231.8089 125.7044,230.5459 125.7044,230.5459 C125.7044,230.5459 126.3404,234.4339 127.1464,236.8689 C127.4474,237.7809 128.2254,240.2449 127.9734,241.1129 C127.0314,244.3639 109.5704,245.5069 112.6544,239.1739 C115.2994,233.7389 115.6374,229.3919 115.6374,229.3919 C115.6374,229.3919 115.9374,201.0279 133.1364,209.6259" id="Fill-61" fill="#C0C6CE"></path>
                <path d="M100.2546,419.1425 L100.2546,426.4915 C100.2546,427.4125 100.8706,428.1595 101.6316,428.1595 L122.3236,428.1595 L122.3236,427.2345 C122.3236,426.4995 121.8396,425.8545 121.1316,425.6555 C118.1686,424.8195 114.2996,422.3995 110.4716,418.9425 C104.1946,413.2745 100.2546,419.1425 100.2546,419.1425" id="Fill-63" fill="#000947"></path>
                <path d="M136.9714,419.1425 L136.9714,426.4915 C136.9714,427.4125 137.5884,428.1595 138.3494,428.1595 L162.9074,428.1595 L162.9074,427.2345 C162.9074,426.4995 162.4214,425.8545 161.7144,425.6555 C158.7514,424.8195 151.0174,422.3995 147.1894,418.9425 C140.9124,413.2745 136.9714,419.1425 136.9714,419.1425" id="Fill-65" fill="#000947"></path>
                <polygon id="Fill-67" fill="#242F4E" points="98.2595 295.831 100.2545 419.143 110.4715 418.942 124.1825 308.648 122.3785 281.753"></polygon>
                <path d="M118.2849,253.2695 L110.9379,242.8075 C110.9379,242.8075 93.8659,259.2665 93.7579,263.3075 C93.5619,270.6345 120.2269,282.8885 120.2269,282.8885 C120.2269,282.8885 125.6369,293.5925 125.8069,295.5195 C125.9769,297.4475 127.8289,286.8095 128.7889,283.0085 C129.3789,280.6745 133.4069,283.6415 134.3429,282.8325 C135.2789,282.0235 126.7109,275.4215 124.8139,276.3975 C123.5059,277.0695 104.7679,265.5095 104.7089,263.9535 C104.6359,262.0215 118.2849,253.2695 118.2849,253.2695" id="Fill-69" fill="#C0C6CE"></path>
                <polygon id="Fill-71" fill="#363D5A" points="109.0368 296.1709 136.9718 419.1679 147.4528 419.1679 140.4358 295.8309"></polygon>
                <path d="M125.9597,236.4277 C125.9597,236.4277 131.6717,234.7437 136.9177,250.5877 C142.1637,266.4317 140.7137,296.8757 140.7137,296.8757 L98.2767,296.8757 C98.2767,296.8757 94.8087,244.1687 114.0167,237.0717 C114.0167,237.0717 116.1047,239.5737 119.6307,239.3807 C123.1567,239.1877 125.9597,236.4277 125.9597,236.4277" id="Fill-73" fill="#A2ACB8"></path>
                <path d="M162.9519,240.3379 C162.7929,242.7299 155.4799,260.7399 153.9399,260.9749 C152.0299,261.2659 142.6369,248.9919 142.6369,248.9919 L133.0669,257.4689 C133.0669,257.4689 151.3479,272.5749 155.3759,272.2269 C162.4459,271.6159 167.5689,244.4059 168.3739,242.9199 C166.0319,241.3829 162.9519,240.3379 162.9519,240.3379" id="Fill-75" fill="#C0C6CE"></path>
                <path d="M135.6521,261.3085 C135.6521,261.3085 119.2621,247.5035 125.0231,242.2395 C130.7841,236.9745 144.9381,250.6445 144.9381,250.6445 C144.9381,250.6445 140.0681,258.7865 135.6521,261.3085" id="Fill-77" fill="#A2ACB8"></path>
                <path d="M136.4929,200.8965 C136.1009,203.9975 135.1559,208.6985 132.9999,209.6065 C132.9899,209.6115 132.9849,209.6135 132.9749,209.6105 C132.6809,209.5065 125.3989,207.0295 120.8089,214.8305 C116.3749,222.3675 116.5949,228.9115 116.5949,228.9115 C116.1669,227.9975 106.9309,226.3385 106.9309,214.5485 C106.9309,210.9415 110.1629,210.0955 110.6029,209.4595 C111.0879,208.7615 110.7809,206.1245 111.4409,205.3385 C115.4759,200.5315 125.3549,202.2475 128.3179,199.6065 C130.4949,197.6665 137.0139,196.7725 136.4929,200.8965" id="Fill-79" fill="#000947"></path>
                <path d="M120.7126,216.3994 C120.6676,216.1314 120.4876,215.9094 120.2346,215.8124 C119.3586,215.4764 117.3316,214.9584 116.7286,217.0484 C116.0666,219.3434 118.6636,221.2094 120.6036,221.3404 C121.0916,221.3754 121.4756,220.9274 121.3946,220.4464 L120.7126,216.3994 Z" id="Fill-81" fill="#C0C6CE"></path>
                <path d="M167.7878,235.5351 C166.1458,236.4721 167.4778,231.8891 166.6968,231.3121 C166.2378,230.9731 165.0228,234.0141 163.5038,236.3761 C162.4408,238.0261 162.9778,240.1481 162.9518,240.3381 C164.3378,241.8471 166.5008,242.0811 168.4008,242.9201 C168.4938,242.5171 168.3728,241.9111 169.3888,241.5301 C170.0248,241.2931 171.5878,240.5051 171.8988,239.9011 C172.9788,237.8081 172.8808,233.5651 172.8998,231.3241 C172.9028,231.0191 170.3668,234.0631 167.7878,235.5351" id="Fill-83" fill="#C0C6CE"></path>
                <path d="M265.1872,13.0981 C265.1872,13.0981 262.8932,29.4491 258.1122,30.2281 C253.3302,31.0061 243.2732,23.3481 243.2732,23.3481 L252.5632,7.5561 L265.1872,13.0981 Z" id="Fill-85" fill="#C0C6CE"></path>
                <path d="M245.5075,58.4341 C245.5075,58.4341 244.9465,72.2801 247.7375,74.7501 C250.5285,77.2211 274.8855,66.9261 274.8855,66.9261 L273.1875,62.5351 C273.1875,62.5351 253.6505,68.5611 252.7945,67.8971 C251.9405,67.2331 255.2775,54.5431 255.2775,54.5431 L245.5075,58.4341 Z" id="Fill-87" fill="#C0C6CE"></path>
                <path d="M240.407,25.2007 C240.407,25.2007 234.804,23.4987 232.552,26.9977 C230.3,30.4977 229.093,37.5957 224.901,38.9677 C220.71,40.3397 218.245,47.9677 220.235,53.0127 C222.226,58.0567 222.97,60.0757 222.218,62.8537 C221.465,65.6327 230.213,69.3897 234.949,63.3897 C239.685,57.3897 248.128,38.3907 245.469,31.5967 C242.809,24.8027 240.407,25.2007 240.407,25.2007" id="Fill-89" fill="#000947"></path>
                <path d="M244.4148,26.6289 C244.8118,25.8999 244.5438,24.9869 243.8138,24.5899 L241.8628,23.5259 C241.1338,23.1289 240.2208,23.3979 239.8228,24.1269 C239.4258,24.8559 239.6948,25.7689 240.4238,26.1669 L242.3758,27.2299 C243.1038,27.6269 244.0178,27.3579 244.4148,26.6289" id="Fill-91" fill="#A2ACB8"></path>
                <path d="M245.7761,23.1435 C245.7761,23.1435 240.4591,33.1975 238.8181,34.0505 C238.6031,34.1625 240.0451,40.0765 245.1301,40.5675 C252.2091,41.2505 252.5361,36.7755 252.5361,36.7755 C252.5361,36.7755 250.9011,35.0695 250.8281,34.9075 C249.9191,32.8865 252.1751,26.3975 252.1751,26.3975 L245.7761,23.1435 Z" id="Fill-93" fill="#C0C6CE"></path>
                <path d="M297.8445,157.2578 L297.6295,162.8628 C297.6025,163.5668 298.0515,164.1538 298.6315,164.1768 L317.3655,164.8958 L317.3925,164.1898 C317.4135,163.6288 317.0635,163.1228 316.5295,162.9488 C314.2935,162.2258 308.6165,160.3128 305.7975,157.5628 C301.1755,153.0558 297.8445,157.2578 297.8445,157.2578" id="Fill-95" fill="#242F4E"></path>
                <path d="M229.2527,51.7436 C230.9367,37.5526 231.6627,35.2146 238.8177,34.0506 C238.8177,34.0506 243.9297,40.0536 248.2727,39.5856 C250.6607,39.3276 250.8277,34.9076 250.8277,34.9076 C250.8277,34.9076 251.8837,35.9176 254.7317,38.6916 C259.2827,43.1266 263.8757,49.5386 258.6357,53.9976 C257.0527,55.3446 261.2297,77.4326 261.2297,77.4326 L236.0777,80.1446 C236.0777,80.1446 228.2137,60.5026 229.2527,51.7436" id="Fill-97" fill="#A2ACB8"></path>
                <path d="M261.2292,77.4331 C261.2292,77.4331 288.8472,85.8981 299.1362,90.6891 C301.2152,91.6571 302.8132,93.5461 303.1262,95.8171 C304.7662,107.7011 305.7972,157.5621 305.7972,157.5621 L297.8442,157.2581 L292.2392,110.6881 L241.8712,79.5201 L261.2292,77.4331 Z" id="Fill-99" fill="#242F4E"></path>
                <path d="M229.5896,60.0503 C229.5896,60.0503 231.1306,73.9433 234.4696,75.5983 C237.8096,77.2543 258.9536,62.0223 258.9536,62.0223 L256.7416,58.1793 C256.7416,58.1793 239.0386,68.0123 238.0396,67.5953 C237.0396,67.1773 238.0016,53.7413 238.0016,53.7413 L229.5896,60.0503 Z" id="Fill-101" fill="#C0C6CE"></path>
                <path d="M234.6052,36.6494 C238.0012,38.1384 238.7822,45.6754 238.4372,58.3334 C238.4312,58.5774 238.2622,58.7924 238.0252,58.8514 L229.3562,60.3124 C229.1452,60.3644 228.9362,60.2244 228.9122,60.0084 C228.6192,57.4884 227.5412,44.2304 229.8962,40.1714 C230.9162,38.4154 232.7462,35.8344 234.6052,36.6494" id="Fill-103" fill="#A2ACB8"></path>
                <g id="Group-107" transform="translate(237.000000, 0.000000)">
                    <mask id="mask-6" fill="white">
                        <use xlink:href="#path-5"></use>
                    </mask>
                    <g id="Clip-106"></g>
                    <path d="M26.0583,3.8266 C23.1743,4.5256 22.9533,-0.8664 13.7883,0.1206 C7.4253,0.8066 5.3953,3.7316 2.2453,11.3576 C-2.1057,21.8916 5.5313,26.5106 8.2373,25.5806 C14.8423,23.3106 14.4123,19.3176 14.4123,19.3176 C14.4123,19.3176 16.4813,15.1196 16.9083,15.2326 C21.9413,16.5666 27.6563,13.4826 27.6563,13.4826 C27.6563,13.4826 27.9133,17.2506 30.0913,16.8686 C32.2693,16.4856 32.0633,11.8246 31.7453,9.7876 C31.4263,7.7516 28.9903,3.1166 26.0583,3.8266" id="Fill-105" fill="#000947" mask="url(#mask-6)"></path>
                </g>
                <path d="M278.9655,66.7612 L262.3675,68.5502 C262.0675,68.5832 261.8755,68.2362 262.0645,67.9992 L280.7565,45.3772 C280.8135,45.3052 280.8965,45.2602 280.9865,45.2502 L297.5845,43.4612 C297.8855,43.4282 298.0765,43.7752 297.8885,44.0122 L279.1955,66.6342 C279.1395,66.7052 279.0565,66.7512 278.9655,66.7612" id="Fill-108" fill="#000947"></path>
                <path d="M283.4118,62.1123 C283.6898,61.4043 282.6688,59.9223 282.6688,59.9223 C282.6128,59.7993 282.4068,59.8463 282.2168,60.0293 C281.5138,60.7023 279.8408,62.2603 279.8068,62.6103 C279.6738,63.9723 280.1018,65.5313 280.4138,65.4153 C281.2828,65.0913 283.1888,62.6773 283.4118,62.1123" id="Fill-110" fill="#C0C6CE"></path>
                <path d="M258.1003,62.8247 C255.4373,64.5247 253.4353,60.3357 256.3353,58.2477 C257.7393,57.2397 260.0243,52.6677 266.8753,55.0287 C267.3283,55.1847 267.4743,57.3017 267.5623,58.1987 C267.5853,58.4407 267.4003,58.6507 267.1573,58.6587 C267.1573,58.6587 260.6893,58.1707 261.5903,59.2407 C261.6723,59.3377 266.3393,59.8527 262.3413,60.8087 C258.2883,61.7787 259.0893,62.1927 258.1003,62.8247" id="Fill-112" fill="#C0C6CE"></path>
                <path d="M263.4607,151.8525 L260.1487,156.5435 C259.7307,157.1095 259.7687,157.8475 260.2347,158.1935 L275.2897,169.3645 L275.7107,168.7975 C276.0447,168.3465 276.0417,167.7305 275.6987,167.2875 C274.2627,165.4265 270.6577,160.6425 269.8847,156.7815 C268.6157,150.4525 263.4607,151.8525 263.4607,151.8525" id="Fill-114" fill="#242F4E"></path>
                <path d="M254.24,16.2329 C254.31,16.0149 254.262,15.7789 254.11,15.6079 C253.585,15.0149 252.267,13.8389 251.002,15.1709 C249.613,16.6329 250.835,19.0409 252.236,19.8939 C252.589,20.1079 253.051,19.9229 253.178,19.5299 L254.24,16.2329 Z" id="Fill-116" fill="#C0C6CE"></path>
                <path d="M236.4978,80.0991 C236.2408,80.1271 236.0288,80.3091 235.9638,80.5591 C235.1968,83.4681 231.2138,100.7161 244.2518,101.5981 C260.0658,102.6661 275.2588,106.1951 278.5628,106.9981 C278.9208,107.0851 279.1198,107.4601 278.9968,107.8071 L263.6138,151.4171 C263.5228,151.6761 263.6118,151.9631 263.8338,152.1251 L269.3388,156.1431 C269.6418,156.3641 270.0678,156.2691 270.2488,155.9411 L295.1098,110.7481 C295.1268,110.7181 295.1398,110.6921 295.1508,110.6591 C295.4038,109.9451 298.3488,101.0471 289.6368,96.3101 C280.9648,91.5951 256.3698,79.3751 254.1788,78.2871 C254.0718,78.2351 253.9598,78.2171 253.8418,78.2291 L236.4978,80.0991 Z" id="Fill-118" fill="#363D5A"></path>
                <path d="M121.9861,507.0732 C121.4691,507.0732 121.0051,506.7142 120.8901,506.1892 L98.7081,430.8232 C98.5761,430.2182 98.9601,429.6192 99.5661,429.4862 C100.1711,429.3522 100.7701,429.7382 100.9021,430.3442 L123.0851,505.7102 C123.2161,506.3152 122.8331,506.9142 122.2261,507.0472 C122.1461,507.0642 122.0651,507.0732 121.9861,507.0732" id="Fill-120" fill="#11193A"></path>
                <path d="M185.8093,507.0732 C185.2873,507.0732 184.8193,506.7072 184.7093,506.1762 L163.4853,429.3142 C163.3603,428.7072 163.7503,428.1132 164.3583,427.9882 C164.9693,427.8652 165.5593,428.2552 165.6843,428.8612 L186.9103,505.7222 C187.0353,506.3302 186.6443,506.9252 186.0373,507.0502 C185.9603,507.0652 185.8833,507.0732 185.8093,507.0732" id="Fill-122" fill="#11193A"></path>
                <path d="M148.3405,477.0078 L87.8805,477.0078 L93.7645,455.0348 C93.8325,455.0468 93.9015,455.0568 93.9725,455.0568 L155.4075,455.0568 L148.7425,477.0808 C148.6155,477.0368 148.4825,477.0078 148.3405,477.0078 Z M100.3305,430.5118 L162.8345,430.5118 L156.1895,452.4758 C156.1675,452.4738 156.1475,452.4688 156.1255,452.4688 L94.4505,452.4688 L100.3305,430.5118 Z M165.8815,429.1998 C165.8725,428.4838 165.2815,427.9008 164.5695,427.9178 L99.9585,427.9178 C99.9035,427.9188 99.8525,427.9268 99.7995,427.9328 C99.7935,427.9318 99.7885,427.9288 99.7825,427.9278 C99.1745,427.8038 98.5835,428.2058 98.4655,428.8148 L78.0195,505.1718 C77.9015,505.7808 78.2985,506.3698 78.9065,506.4888 C78.9865,506.5048 79.0655,506.5108 79.1435,506.5098 C79.6615,506.5008 80.1205,506.1308 80.2245,505.6018 L87.1835,479.6118 L147.9775,479.6118 L140.0825,505.7018 C139.9465,506.3078 140.3255,506.9078 140.9315,507.0448 C141.0145,507.0638 141.0975,507.0728 141.1795,507.0728 C141.6935,507.0728 142.1565,506.7188 142.2745,506.1958 L165.2295,430.3338 C165.6215,430.1078 165.8875,429.6858 165.8815,429.1998 Z" id="Fill-124" fill="#11193A"></path>
                <path d="M64.5388,178.6318 C63.6308,178.3198 62.9878,177.8538 62.5578,177.4348 C61.6028,176.5088 61.2648,175.4518 61.2648,174.7718 C61.2648,174.4898 61.3178,174.0168 61.6778,174.0168 C62.2108,174.0168 62.6648,174.2368 63.0668,174.6908 C63.7848,175.4998 64.2508,176.9208 64.5388,178.6318 M69.3038,178.5858 C69.5638,176.6838 69.9948,175.1438 70.6738,174.4008 C70.9868,174.0568 71.2558,174.0168 71.4308,174.0168 C72.1538,174.0168 72.2628,174.6718 72.2628,175.0628 C72.2628,175.7168 71.9318,176.7188 71.0028,177.5698 C70.6208,177.9188 70.0688,178.3048 69.3038,178.5858 M74.3888,184.5308 C74.0518,185.1348 73.7758,185.6258 73.6038,185.9698 C72.8058,187.5678 72.3278,190.3008 72.1468,191.4968 L69.2158,191.4968 C68.9988,188.7348 68.7978,183.9298 69.1428,180.0368 C70.4278,179.6898 71.3208,179.0878 71.9038,178.5538 C72.9648,177.5818 73.5978,176.2778 73.5978,175.0628 C73.5978,173.6388 72.7268,172.6828 71.4308,172.6828 C70.7688,172.6828 70.1838,172.9568 69.6878,173.4998 C68.7488,174.5288 68.2088,176.5598 67.9158,178.9228 C67.3068,179.0038 66.5588,179.0128 65.9318,178.9418 C65.6128,176.7848 65.0398,174.9038 64.0658,173.8058 C63.4058,173.0608 62.6018,172.6828 61.6778,172.6828 C60.6318,172.6828 59.9298,173.5228 59.9298,174.7718 C59.9298,175.9878 60.5798,177.3748 61.6278,178.3918 C62.2668,179.0128 63.2698,179.7178 64.7348,180.0808 C65.1518,183.9818 64.8678,188.7878 64.5838,191.4968 L61.5138,191.4968 C61.3328,190.3008 60.8548,187.5678 60.0568,185.9698 C59.8838,185.6258 59.6088,185.1348 59.2708,184.5308 C57.6818,181.6928 54.7208,176.4068 54.7208,172.5108 C54.7208,167.3788 57.8928,161.3868 66.8298,161.3868 C75.7678,161.3868 78.9398,167.3788 78.9398,172.5108 C78.9398,176.4068 75.9788,181.6928 74.3888,184.5308 M66.0978,180.2978 C66.6398,180.3408 67.2468,180.3338 67.7758,180.2818 C67.4188,184.5598 67.7178,189.4508 67.8758,191.4968 L65.9248,191.4968 C66.1218,189.5308 66.5208,184.6058 66.0978,180.2978 M66.8298,160.0518 C62.2698,160.0518 58.6098,161.5358 56.2458,164.3428 C54.4288,166.5008 53.3868,169.4778 53.3868,172.5108 C53.3868,176.7558 56.4568,182.2378 58.1068,185.1838 C58.4318,185.7638 58.6968,186.2358 58.8618,186.5668 C59.7818,188.4058 60.2668,192.2088 60.2708,192.2468 C60.3128,192.5808 60.5968,192.8318 60.9338,192.8318 L72.7268,192.8318 C73.0638,192.8318 73.3478,192.5808 73.3898,192.2468 C73.3938,192.2088 73.8778,188.4078 74.7988,186.5668 C74.9638,186.2358 75.2278,185.7638 75.5538,185.1838 C77.2038,182.2378 80.2738,176.7558 80.2738,172.5108 C80.2738,169.4778 79.2318,166.5008 77.4148,164.3428 C75.0508,161.5358 71.3908,160.0518 66.8298,160.0518" id="Fill-126" fill="#242F4E"></path>
                <path d="M72.4763,194.1133 L61.1843,194.1133 C60.6853,194.1133 60.2783,194.5203 60.2783,195.0193 C60.2783,195.5173 60.6853,195.9253 61.1843,195.9253 L72.4763,195.9253 C72.9743,195.9253 73.3823,195.5173 73.3823,195.0193 C73.3823,194.5203 72.9743,194.1133 72.4763,194.1133" id="Fill-128" fill="#242F4E"></path>
                <path d="M72.4763,197.874 L61.1843,197.874 C60.6853,197.874 60.2783,198.282 60.2783,198.78 C60.2783,199.278 60.6853,199.686 61.1843,199.686 L72.4763,199.686 C72.9743,199.686 73.3823,199.278 73.3823,198.78 C73.3823,198.282 72.9743,197.874 72.4763,197.874" id="Fill-130" fill="#242F4E"></path>
                <path d="M66.9392,204.8974 C70.3792,204.8974 71.3622,201.6344 71.3622,201.6344 L62.0252,201.6344 C62.0252,201.6344 63.5002,204.8974 66.9392,204.8974" id="Fill-132" fill="#242F4E"></path>
                <path d="M66.9392,152.9521 C67.3082,152.9521 67.6072,152.6531 67.6072,152.2841 L67.6072,140.9841 C67.6072,140.6151 67.3082,140.3161 66.9392,140.3161 C66.5712,140.3161 66.2722,140.6151 66.2722,140.9841 L66.2722,152.2841 C66.2722,152.6531 66.5712,152.9521 66.9392,152.9521" id="Fill-134" fill="#242F4E"></path>
                <path d="M53.3952,156.583 L46.1292,147.927 C45.8922,147.645 45.4712,147.607 45.1892,147.844 C44.9072,148.081 44.8702,148.502 45.1072,148.784 L52.3722,157.44 C52.5042,157.598 52.6942,157.679 52.8832,157.679 C53.0362,157.679 53.1872,157.628 53.3122,157.523 C53.5942,157.286 53.6312,156.865 53.3952,156.583" id="Fill-136" fill="#242F4E"></path>
                <path d="M45.7107,169.2148 L34.5797,167.2518 C34.2127,167.1898 33.8707,167.4308 33.8067,167.7928 C33.7427,168.1558 33.9847,168.5018 34.3487,168.5668 L45.4797,170.5288 C45.5187,170.5358 45.5577,170.5388 45.5957,170.5388 C45.9137,170.5388 46.1947,170.3118 46.2517,169.9868 C46.3157,169.6248 46.0737,169.2778 45.7107,169.2148" id="Fill-138" fill="#242F4E"></path>
                <path d="M98.8933,167.7363 L87.7623,169.6983 C87.3993,169.7623 87.1573,170.1083 87.2203,170.4713 C87.2783,170.7953 87.5593,171.0223 87.8773,171.0223 C87.9153,171.0223 87.9553,171.0193 87.9943,171.0123 L99.1243,169.0503 C99.4883,168.9863 99.7303,168.6393 99.6653,168.2773 C99.6023,167.9143 99.2563,167.6733 98.8933,167.7363" id="Fill-140" fill="#242F4E"></path>
                <path d="M88.574,148.1601 C88.293,147.9231 87.871,147.9591 87.635,148.2421 L80.369,156.8991 C80.133,157.1811 80.169,157.6021 80.451,157.8391 C80.576,157.9441 80.728,157.9951 80.88,157.9951 C81.07,157.9951 81.26,157.9141 81.391,157.7571 L88.657,149.0991 C88.893,148.8171 88.857,148.3961 88.574,148.1601" id="Fill-142" fill="#242F4E"></path>
            </g>
        </g>
    </g>
</svg>