<?xml version="1.0" encoding="UTF-8"?>
<svg width="510px" height="384px" viewBox="0 0 510 384" version="1.1" xmlns="http://www.w3.org/2000/svg" xmlns:xlink="http://www.w3.org/1999/xlink">
    <!-- Generator: Sketch 51.3 (57544) - http://www.bohemiancoding.com/sketch -->
    <title>Group 22</title>
    <desc>Created with Sketch.</desc>
    <defs>
        <path d="M11.079,109.264 C4.44,127.195 0.804,146.581 0.804,166.819 C0.804,205.309 13.952,240.707 35.954,268.85 C66.309,307.68 113.55,332.67 166.656,332.67 C258.252,332.67 332.507,258.416 332.507,166.819 C332.507,75.222 258.252,0.968 166.656,0.968 C95.297,0.968 34.477,46.04 11.079,109.264 M64.625,166.819 C64.625,145.464 71.196,125.648 82.412,109.264 C100.791,82.414 131.66,64.788 166.656,64.788 C223.005,64.788 268.688,110.469 268.688,166.819 C268.688,222.062 224.775,267.02 169.956,268.766 L169.956,268.85 L166.656,268.85 C110.306,268.85 64.625,223.17 64.625,166.819" id="path-1"></path>
        <polygon id="path-3" points="0.9852 0.262793357 372.259649 0.262793357 372.259649 340 0.9852 340"></polygon>
    </defs>
    <g id="Page-1" stroke="none" stroke-width="1" fill="none" fill-rule="evenodd">
        <g id="Design" transform="translate(-761.000000, -1546.000000)">
            <g id="Group-22" transform="translate(761.000000, 1545.000000)">
                <path d="M458.3605,307.5569 L458.3605,345.6049 L0.0005,345.6049 L0.0005,281.4069 L327.7115,281.4069 L393.6425,288.8279 L448.6165,296.3819 C454.2005,297.1489 458.3605,301.9209 458.3605,307.5569" id="Fill-1" fill="#19E69B"></path>
                <g id="Group-5" transform="translate(104.000000, 12.557000)">
                    <mask id="mask-2" fill="white">
                        <use xlink:href="#path-1"></use>
                    </mask>
                    <g id="Clip-4"></g>
                    <path d="M11.079,109.264 C4.44,127.195 0.804,146.581 0.804,166.819 C0.804,205.309 13.952,240.707 35.954,268.85 C66.309,307.68 113.55,332.67 166.656,332.67 C258.252,332.67 332.507,258.416 332.507,166.819 C332.507,75.222 258.252,0.968 166.656,0.968 C95.297,0.968 34.477,46.04 11.079,109.264 M64.625,166.819 C64.625,145.464 71.196,125.648 82.412,109.264 C100.791,82.414 131.66,64.788 166.656,64.788 C223.005,64.788 268.688,110.469 268.688,166.819 C268.688,222.062 224.775,267.02 169.956,268.766 L169.956,268.85 L166.656,268.85 C110.306,268.85 64.625,223.17 64.625,166.819" id="Fill-3" mask="url(#mask-2)"></path>
                </g>
                <g id="Group-21" transform="translate(31.000000, 0.557000)">
                    <path d="M84.0782,121.2641 L155.4122,121.2641 C173.7912,94.4141 204.6602,76.7881 239.6552,76.7881 C296.0062,76.7881 341.6862,122.4691 341.6862,178.8191 C341.6862,234.0621 297.7752,279.0191 242.9572,280.7661 L242.9572,280.8501 L239.6552,280.8501 L108.9542,280.8501 C139.3082,319.6801 186.5492,344.6701 239.6552,344.6701 C331.2522,344.6701 405.5072,270.4161 405.5072,178.8191 C405.5072,87.2221 331.2522,12.9681 239.6552,12.9681 C168.2972,12.9681 107.4762,58.0401 84.0782,121.2641" id="Fill-6" fill="#19E69B"></path>
                    <path d="M239.6554,12.9682 C233.3024,12.9682 227.0384,13.3422 220.8714,14.0372 L220.8874,14.0922 L240.2554,76.8032 C296.3274,77.1272 341.6864,122.6702 341.6864,178.8192 C341.6864,234.0622 297.7754,279.0192 242.9574,280.7662 L242.9574,280.8502 L239.6554,280.8502 L108.9544,280.8502 C139.3094,319.6792 186.5494,344.6702 239.6554,344.6702 C331.2534,344.6702 405.5074,270.4162 405.5074,178.8192 C405.5074,87.2222 331.2534,12.9682 239.6554,12.9682" id="Fill-8" fill="#19E69B"></path>
                    <path d="M137.6251,178.8193 C137.6251,157.4643 144.1951,137.6493 155.4121,121.2643 C167.7191,103.2853 190.8541,82.6513 225.6161,77.7473 L195.1871,52.3213 L214.2511,14.3743 C144.1411,27.5203 102.1551,72.4183 84.0781,121.2643 C77.4411,139.1953 73.8051,158.5803 73.8051,178.8193 C73.8051,217.3093 86.9531,252.7073 108.9541,280.8503 L239.6551,280.8503 C183.3061,280.8503 137.6251,235.1693 137.6251,178.8193" id="Fill-10" fill="#00D090"></path>
                    <path d="M184.0548,51.5493 L227.8638,90.1553 C228.9088,91.0763 230.5478,90.3003 230.4978,88.9093 L227.4058,1.9763 C227.3558,0.5613 225.6178,-0.0837 224.6558,0.9553 L183.7308,45.2013 C182.0358,47.0323 182.1828,49.9003 184.0548,51.5493" id="Fill-12" fill="#19E69B"></path>
                    <path d="M476.6046,313.4252 L434.9156,272.0382 C433.8626,271.0542 432.1426,271.8072 432.1526,273.2482 L432.1526,288.4632 L364.0416,288.4632 C333.6506,322.9132 289.2066,344.6702 239.6556,344.6702 C237.7776,344.6702 235.9236,344.5672 234.0606,344.5062 L234.0606,345.0482 L432.1526,345.0482 L432.1526,360.2002 C432.1616,361.6662 433.9406,362.3852 434.9666,361.3392 L476.7496,320.0022 C478.5566,318.1582 478.4916,315.1882 476.6046,313.4252" id="Fill-14" fill="#00D090"></path>
                    <g id="Group-18" transform="translate(0.000000, 44.000000)">
                        <mask id="mask-4" fill="white">
                            <use xlink:href="#path-3"></use>
                        </mask>
                        <g id="Clip-17"></g>
                        <path d="M123.3292,251.4853 L22.2472,337.7423 L3.2422,315.4723 L104.3252,229.2143 L123.3292,251.4853 Z M107.8982,123.2203 C110.6692,88.2203 126.9032,56.3933 153.6082,33.6023 C180.3162,10.8113 214.3002,-0.2157 249.3032,2.5553 C284.2552,5.3203 316.0532,21.5213 338.8362,48.1693 L339.0752,48.4483 C361.7642,75.1413 372.7322,109.0583 369.9682,143.9593 C367.1982,178.9553 350.9642,210.7833 324.2572,233.5793 C300.2502,254.0633 270.3662,265.0423 239.1552,265.0433 C235.6392,265.0433 232.1082,264.9043 228.5642,264.6233 C193.5642,261.8553 161.7362,245.6213 138.9452,218.9123 L137.9272,217.7073 C115.8382,191.1873 105.1782,157.6373 107.8982,123.2203 Z M138.0812,220.8843 L141.2792,224.3403 C164.0272,248.8733 194.9752,263.8433 228.4172,266.4923 C263.9252,269.3023 298.3872,258.1143 325.4702,235.0023 C352.5592,211.8853 369.0242,179.6053 371.8332,144.1073 C374.6052,109.2123 363.7952,75.1863 341.3932,48.2983 L340.3312,47.0383 C317.2302,19.9653 284.9482,3.4983 249.4472,0.6873 C213.9412,-2.1197 179.4802,9.0633 152.3962,32.1773 C125.3082,55.2903 108.8422,87.5703 106.0322,123.0723 C103.3842,156.5083 113.3022,189.4253 133.9572,215.7603 L136.8612,219.4643 L114.6432,238.4213 L105.1422,227.2903 C104.9722,227.0893 104.7592,226.9813 104.5052,226.9623 C104.4762,226.9603 104.4492,226.9583 104.4222,226.9583 C104.1972,226.9583 103.9992,227.0313 103.8292,227.1763 L1.3172,314.6543 C1.1192,314.8233 1.0082,315.0413 0.9872,315.3023 L0.9852,315.3833 C0.9852,315.6513 1.0762,315.8173 1.1002,315.8473 L1.1762,315.9323 L21.4332,339.6723 C21.5962,339.8633 21.8172,339.9743 22.0872,339.9973 C22.3332,340.0163 22.5522,339.9423 22.7422,339.7783 L22.7472,339.7743 L125.2512,252.2993 C125.4542,252.1283 125.5602,251.9193 125.5802,251.6693 C125.6032,251.4063 125.5242,251.1773 125.3502,250.9663 L115.8582,239.8463 L138.0812,220.8843 Z" id="Fill-16" fill="#11193A" mask="url(#mask-4)"></path>
                    </g>
                    <path d="M320.2394,187.4321 L320.0044,189.4001 L307.5624,189.4001 C307.0144,189.4001 306.5624,189.4431 306.1054,189.5401 C305.6704,189.6791 305.3274,190.0361 305.2664,190.4231 C303.6184,198.9601 300.3374,206.9461 295.5024,214.2371 C295.2784,214.5841 295.2374,215.0401 295.4094,215.4321 C295.7244,216.1091 296.2444,216.6741 296.6064,217.0361 C298.3334,218.6931 300.0954,220.4551 301.7994,222.1601 L305.1324,225.4911 L303.9244,227.0481 C299.6524,232.5491 294.8354,237.3901 289.6044,241.4351 L288.0504,242.6381 L280.0794,234.6681 C279.3314,233.9211 278.7954,233.3861 278.2424,233.0341 C277.6524,232.6521 277.0704,232.9501 276.8454,233.0941 C269.6404,237.8721 261.6844,241.1751 253.2184,242.8961 C252.7464,242.9961 252.3484,243.3521 252.2254,243.7981 C252.0834,244.2751 252.0454,244.7651 252.0924,245.3871 C252.2034,247.9131 252.1894,250.3931 252.1764,252.7921 C252.1724,253.5731 252.1684,254.3491 252.1684,255.1161 L252.1684,257.5661 L250.2184,257.8151 C246.9324,258.2351 243.4094,258.4571 240.0294,258.4571 C236.5074,258.4571 233.1524,258.2471 229.7724,257.8151 L227.8224,257.5661 L227.8224,243.9441 C227.7444,243.3731 227.3544,242.9451 226.7904,242.8161 C218.2004,241.0991 210.1194,237.7231 202.8304,232.7921 C202.4164,232.4991 201.8054,232.5201 201.3454,232.8171 C201.0754,232.9981 200.8244,233.2231 200.5834,233.5041 L200.4934,233.6011 C198.4954,235.6711 196.3784,237.7881 194.5094,239.6561 L191.6554,242.5091 L190.0984,241.2881 C184.7814,237.1201 180.0134,232.3281 175.9264,227.0441 L174.7234,225.4901 L183.5934,216.6191 C183.8984,216.3141 184.2134,215.9981 184.3444,215.7701 L184.4064,215.6701 C184.6904,215.2291 184.6904,214.7241 184.4064,214.2841 C179.5554,207.0091 176.2514,198.9741 174.5984,190.4311 C174.5024,189.9681 174.1474,189.5931 173.6614,189.4651 C173.2834,189.3831 172.7464,189.3311 172.1514,189.3311 C169.6884,189.4001 167.2844,189.4001 164.7394,189.4001 L159.9214,189.4001 L159.6834,187.4351 C158.8964,180.9281 158.8964,174.2931 159.6824,167.7171 L159.9184,165.7481 L164.7394,165.7481 C167.2844,165.7481 169.6884,165.7481 172.2134,165.8191 C172.7484,165.8181 173.2834,165.7651 173.7434,165.6631 C174.1504,165.5551 174.5224,165.1971 174.5864,164.7941 C176.2514,156.1021 179.5574,148.0641 184.4284,140.8291 C184.6904,140.4241 184.6904,139.9191 184.4064,139.4791 L184.3434,139.3771 C184.2144,139.1501 183.8994,138.8351 183.5934,138.5301 C182.0824,137.0871 180.5424,135.5471 179.0554,133.9911 C178.7624,133.6991 178.4324,133.3611 178.1004,133.0211 C177.4724,132.3781 176.8364,131.7251 176.1694,131.1021 L174.6804,129.7141 L175.9264,128.1041 C180.0124,122.8211 184.7804,118.0291 190.0984,113.8601 L191.6554,112.6391 L195.9994,116.9741 C197.4904,118.4531 199.0324,119.9811 200.5194,121.5741 C200.7754,121.8291 201.0814,122.0841 201.3724,122.2791 C201.8444,122.6111 202.3614,122.5991 202.8424,122.2801 C210.1184,117.3571 218.1984,113.9801 226.8464,112.2501 C227.4074,112.1481 227.8014,111.6921 227.8254,111.1581 C227.8224,111.1271 227.8314,110.9971 227.8444,110.8551 L227.8224,110.7691 L227.8224,97.5131 L229.7734,97.2641 C236.4854,96.4081 243.4594,96.4191 250.0794,97.2641 L252.0294,97.5131 L252.0294,99.9641 C252.0294,103.1091 252.0294,106.3611 251.9604,109.5711 C251.9604,110.2261 252.0094,110.8281 252.1104,111.3641 C252.2434,111.8011 252.5664,112.0991 252.9834,112.1651 C261.5494,113.9051 269.5054,117.2071 276.7274,121.9991 C277.1534,122.2751 277.7004,122.2811 278.1704,122.0051 C278.6574,121.6931 279.1944,121.1571 279.9374,120.4131 L287.9044,112.4471 L289.4584,113.6381 C294.7614,117.7021 299.6284,122.5671 303.9244,128.1001 L305.1314,129.6571 L301.7994,132.9901 C300.0624,134.7261 298.3064,136.4811 296.5714,138.1461 C296.2444,138.4751 295.7244,139.0391 295.3864,139.7641 C295.2374,140.1081 295.2784,140.5651 295.5184,140.9381 C300.3374,148.2011 303.6184,156.1881 305.2534,164.6481 C305.3454,165.0861 305.6804,165.4721 306.1084,165.6081 C306.5634,165.7051 307.0144,165.7481 307.5624,165.7481 C309.1154,165.6801 310.7204,165.6801 312.3694,165.7511 L320.0044,165.7481 L320.2394,167.7171 C321.0204,174.2581 321.0204,180.8911 320.2394,187.4321 M322.1904,191.0251 C323.5974,182.3201 323.5974,173.1061 322.1884,164.3891 C322.0924,163.7821 321.4824,163.3371 320.8084,163.3551 C319.3084,163.4271 317.7024,163.4271 316.1844,163.3541 L307.4664,163.3571 L307.0544,161.6461 C305.3504,154.5631 302.6194,147.9041 298.9374,141.8521 L298.0024,140.3161 L299.3034,139.0751 C300.0134,138.3981 300.7074,137.7051 301.3994,137.0121 C302.1264,136.2851 302.8534,135.5571 303.5994,134.8491 L307.5764,130.8701 C308.0414,130.4311 308.0934,129.7281 307.7424,129.2271 C302.4494,121.8561 296.0004,115.3851 288.5894,110.0151 C288.0964,109.6441 287.4354,109.7171 287.0214,110.1551 C284.6054,112.6411 282.2104,115.0371 279.8154,117.4321 L277.4864,119.7591 L275.9854,118.8351 C269.8944,115.0871 263.2614,112.3351 256.2694,110.6551 L254.5134,110.2321 L254.5594,108.4271 C254.6294,105.6961 254.6294,102.9611 254.5594,100.2991 L254.5584,96.6391 C254.5374,96.1641 254.1124,95.6651 253.5934,95.5981 C249.2214,94.8701 244.6384,94.5081 239.8914,94.5081 C235.1894,94.5081 230.6304,94.8701 226.3374,95.5861 C225.7704,95.6841 225.3594,96.0971 225.2904,96.6421 C225.2834,96.8191 225.2654,97.0091 225.2444,97.1991 C225.2364,97.2721 225.2254,97.3451 225.2234,97.4131 L225.2234,110.3161 L223.5074,110.7251 C216.5094,112.3911 209.8104,115.1881 203.5964,119.0401 L202.0574,119.9931 L200.8064,118.6851 C199.3014,117.1111 197.7394,115.5501 196.1664,114.0451 L192.5164,110.3961 C192.0504,110.0091 191.4314,109.9611 190.9994,110.2811 C183.7314,115.5491 177.3274,121.9761 171.9504,129.3951 C171.6214,129.8421 171.6694,130.5181 172.0464,130.9181 L172.3504,131.2221 C173.9714,132.7741 175.5634,134.3671 177.1554,135.9581 L181.6204,140.4231 L180.7084,141.9221 C176.9394,148.1121 174.1854,154.7931 172.5214,161.7801 L172.1144,163.4951 L158.3684,163.4951 C157.9414,163.5161 157.4624,163.9501 157.3954,164.4611 C156.6704,169.1091 156.3054,173.5841 156.3054,177.8171 C156.3054,182.3981 156.6684,186.8641 157.3824,191.0901 C157.4824,191.6611 157.9484,192.1181 158.4654,192.1401 L172.1144,192.1381 L172.5214,193.8531 C174.1854,200.8401 176.9394,207.5211 180.7084,213.7121 L181.6524,215.2621 L180.3274,216.5021 C179.6084,217.1761 178.9204,217.8801 178.2414,218.5741 C177.8904,218.9331 177.5424,219.2891 177.1924,219.6381 L172.0554,224.7761 C171.6684,225.2411 171.6194,225.8581 171.9394,226.2921 C177.2894,233.7671 183.6864,240.1881 190.9734,245.4041 C191.4304,245.7411 192.1094,245.6911 192.5084,245.3161 C192.5624,245.2611 192.6804,245.1501 192.8064,245.0321 C192.9824,244.8691 193.1864,244.6841 193.3644,244.4731 L193.4994,244.3251 L202.0934,235.7321 L203.5964,236.6631 C209.6314,240.4031 216.3384,243.2021 223.5274,244.9831 L225.2234,245.4031 L225.2234,259.0821 C225.3014,259.6241 225.7014,260.0181 226.2834,260.1191 C230.5414,260.8281 235.0784,261.1911 239.7584,261.1941 C244.8744,260.8971 249.1744,260.5511 253.5084,259.8411 C254.0664,259.7401 254.5374,259.2241 254.5614,258.6891 L254.5584,255.1851 L254.5584,245.1821 L256.2694,244.7711 C263.1524,243.1171 269.7884,240.3631 275.9944,236.5851 L277.4924,235.6731 L281.5344,239.7041 C283.3524,241.5101 285.2334,243.3771 287.0214,245.2711 C287.4164,245.6891 288.1184,245.7411 288.6194,245.3901 C295.9294,240.1391 302.3774,233.6691 307.7574,226.1771 C308.0934,225.6971 308.0414,224.9951 307.6224,224.6001 C306.6744,223.6991 305.7624,222.7721 304.8604,221.8541 C304.4264,221.4121 303.9934,220.9711 303.5594,220.5381 C302.1684,219.0791 300.7124,217.6921 299.3044,216.3511 L298.0024,215.1101 L298.9374,213.5741 C302.6194,207.5221 305.3504,200.8631 307.0544,193.7791 L307.4664,192.0691 L320.9304,192.0691 C321.5594,192.0691 322.0904,191.6301 322.1904,191.0251" id="Fill-19" fill="#11193A"></path>
                </g>
            </g>
        </g>
    </g>
</svg>