<?xml version="1.0" encoding="UTF-8"?>
<svg width="62px" height="76px" viewBox="0 0 62 76" version="1.1" xmlns="http://www.w3.org/2000/svg" xmlns:xlink="http://www.w3.org/1999/xlink">
    <!-- Generator: Sketch 51.3 (57544) - http://www.bohemiancoding.com/sketch -->
    <title>Group 14</title>
    <desc>Created with Sketch.</desc>
    <defs>
        <polygon id="path-1" points="0.4043 0.865 19.34 0.865 19.34 19.799 0.4043 19.799"></polygon>
    </defs>
    <g id="Page-1" stroke="none" stroke-width="1" fill="none" fill-rule="evenodd">
        <g id="Group-14">
            <path d="M46.6292,50.6402 C46.6292,59.5502 39.4062,66.7722 30.4962,66.7722 C21.5872,66.7722 14.3642,59.5502 14.3642,50.6402 C14.3642,41.7302 21.5872,34.5082 30.4962,34.5082 C39.4062,34.5082 46.6292,41.7302 46.6292,50.6402" id="Fill-1" fill="#50E29D"></path>
            <path d="M14.2073,74.1416 L46.8603,74.1416 C46.6453,70.6726 44.9233,63.0096 33.9773,63.0096 L27.0923,63.0096 C16.1443,63.0096 14.4233,70.6726 14.2073,74.1416 M47.7483,75.8626 L13.3203,75.8626 C12.8453,75.8626 12.4603,75.4776 12.4603,75.0026 C12.4603,68.3726 16.3033,61.2886 27.0923,61.2886 L33.9773,61.2886 C44.7663,61.2886 48.6083,68.3726 48.6083,75.0026 C48.6083,75.4776 48.2243,75.8626 47.7483,75.8626" id="Fill-3" fill="#11193A"></path>
            <path d="M30.5344,43.4199 C26.2634,43.4199 22.7874,46.8949 22.7874,51.1669 C22.7874,55.4389 26.2634,58.9129 30.5344,58.9129 C34.8054,58.9129 38.2804,55.4389 38.2804,51.1669 C38.2804,46.8949 34.8054,43.4199 30.5344,43.4199 M30.5344,60.6339 C25.3134,60.6339 21.0664,56.3869 21.0664,51.1669 C21.0664,45.9459 25.3134,41.6989 30.5344,41.6989 C35.7554,41.6989 40.0024,45.9459 40.0024,51.1669 C40.0024,56.3869 35.7554,60.6339 30.5344,60.6339" id="Fill-5" fill="#11193A"></path>
            <path d="M30.5344,1.7207 C26.2634,1.7207 22.7874,5.1957 22.7874,9.4677 C22.7874,13.7397 26.2634,17.2137 30.5344,17.2137 C34.8054,17.2137 38.2804,13.7397 38.2804,9.4677 C38.2804,5.1957 34.8054,1.7207 30.5344,1.7207 M30.5344,18.9347 C25.3134,18.9347 21.0664,14.6877 21.0664,9.4677 C21.0664,4.2467 25.3134,-0.0003 30.5344,-0.0003 C35.7554,-0.0003 40.0024,4.2467 40.0024,9.4677 C40.0024,14.6877 35.7554,18.9347 30.5344,18.9347" id="Fill-7" fill="#11193A"></path>
            <path d="M9.4671,22.4487 C5.1961,22.4487 1.7211,25.9237 1.7211,30.1957 C1.7211,34.4667 5.1961,37.9417 9.4671,37.9417 C13.7381,37.9417 17.2141,34.4667 17.2141,30.1957 C17.2141,25.9237 13.7381,22.4487 9.4671,22.4487 M9.4671,39.6617 C4.2461,39.6617 0.0001,35.4157 0.0001,30.1957 C0.0001,24.9747 4.2461,20.7277 9.4671,20.7277 C14.6881,20.7277 18.9351,24.9747 18.9351,30.1957 C18.9351,35.4157 14.6881,39.6617 9.4671,39.6617" id="Fill-9" fill="#11193A"></path>
            <g id="Group-13" transform="translate(42.000000, 19.862700)">
                <mask id="mask-2" fill="white">
                    <use xlink:href="#path-1"></use>
                </mask>
                <g id="Clip-12"></g>
                <path d="M9.8723,2.586 C5.6013,2.586 2.1263,6.061 2.1263,10.333 C2.1263,14.604 5.6013,18.079 9.8723,18.079 C14.1433,18.079 17.6193,14.604 17.6193,10.333 C17.6193,6.061 14.1433,2.586 9.8723,2.586 M9.8723,19.799 C4.6513,19.799 0.4043,15.553 0.4043,10.333 C0.4043,5.112 4.6513,0.865 9.8723,0.865 C15.0933,0.865 19.3403,5.112 19.3403,10.333 C19.3403,15.553 15.0933,19.799 9.8723,19.799" id="Fill-11" fill="#11193A" mask="url(#mask-2)"></path>
            </g>
        </g>
    </g>
</svg>