<?xml version="1.0" encoding="UTF-8"?>
<svg width="62px" height="76px" viewBox="0 0 62 76" version="1.1" xmlns="http://www.w3.org/2000/svg" xmlns:xlink="http://www.w3.org/1999/xlink">
    <!-- Generator: Sketch 51.3 (57544) - http://www.bohemiancoding.com/sketch -->
    <title>Group 13 Copy</title>
    <desc>Created with Sketch.</desc>
    <defs>
        <polygon id="path-1" points="0.4603 0.4261 36.6083 0.4261 36.6083 15 0.4603 15"></polygon>
        <polygon id="path-3" points="0.4043 0.8647 19.34 0.8647 19.34 19.7997 0.4043 19.7997"></polygon>
    </defs>
    <g id="Page-1" stroke="none" stroke-width="1" fill="none" fill-rule="evenodd">
        <g id="Group-13-Copy">
            <g id="Group-3" transform="translate(12.000000, 60.862700)">
                <mask id="mask-2" fill="white">
                    <use xlink:href="#path-1"></use>
                </mask>
                <g id="Clip-2"></g>
                <path d="M2.2073,13.2791 L34.8603,13.2791 C34.6453,9.8101 32.9233,2.1471 21.9773,2.1471 L15.0923,2.1471 C4.1443,2.1471 2.4233,9.8101 2.2073,13.2791 M35.7483,15.0001 L1.3203,15.0001 C0.8453,15.0001 0.4603,14.6141 0.4603,14.1391 C0.4603,7.5101 4.3033,0.4261 15.0923,0.4261 L21.9773,0.4261 C32.7663,0.4261 36.6083,7.5101 36.6083,14.1391 C36.6083,14.6141 36.2243,15.0001 35.7483,15.0001" id="Fill-1" fill="#11193A" mask="url(#mask-2)"></path>
            </g>
            <path d="M30.5344,43.4201 C26.2634,43.4201 22.7874,46.8951 22.7874,51.1671 C22.7874,55.4381 26.2634,58.9131 30.5344,58.9131 C34.8054,58.9131 38.2804,55.4381 38.2804,51.1671 C38.2804,46.8951 34.8054,43.4201 30.5344,43.4201 M30.5344,60.6341 C25.3134,60.6341 21.0664,56.3871 21.0664,51.1671 C21.0664,45.9461 25.3134,41.6991 30.5344,41.6991 C35.7554,41.6991 40.0024,45.9461 40.0024,51.1671 C40.0024,56.3871 35.7554,60.6341 30.5344,60.6341" id="Fill-4" fill="#11193A"></path>
            <path d="M30.5344,1.7209 C26.2634,1.7209 22.7874,5.1959 22.7874,9.4679 C22.7874,13.7389 26.2634,17.2139 30.5344,17.2139 C34.8054,17.2139 38.2804,13.7389 38.2804,9.4679 C38.2804,5.1959 34.8054,1.7209 30.5344,1.7209 M30.5344,18.9349 C25.3134,18.9349 21.0664,14.6879 21.0664,9.4679 C21.0664,4.2469 25.3134,-0.0001 30.5344,-0.0001 C35.7554,-0.0001 40.0024,4.2469 40.0024,9.4679 C40.0024,14.6879 35.7554,18.9349 30.5344,18.9349" id="Fill-6" fill="#11193A"></path>
            <path d="M9.4671,22.4484 C5.1961,22.4484 1.7211,25.9234 1.7211,30.1954 C1.7211,34.4664 5.1961,37.9414 9.4671,37.9414 C13.7381,37.9414 17.2141,34.4664 17.2141,30.1954 C17.2141,25.9234 13.7381,22.4484 9.4671,22.4484 M9.4671,39.6624 C4.2461,39.6624 0.0001,35.4154 0.0001,30.1954 C0.0001,24.9744 4.2461,20.7274 9.4671,20.7274 C14.6881,20.7274 18.9351,24.9744 18.9351,30.1954 C18.9351,35.4154 14.6881,39.6624 9.4671,39.6624" id="Fill-8" fill="#11193A"></path>
            <g id="Group-12" transform="translate(42.000000, 19.862700)">
                <mask id="mask-4" fill="white">
                    <use xlink:href="#path-3"></use>
                </mask>
                <g id="Clip-11"></g>
                <path d="M9.8723,2.5857 C5.6013,2.5857 2.1263,6.0607 2.1263,10.3327 C2.1263,14.6037 5.6013,18.0787 9.8723,18.0787 C14.1433,18.0787 17.6193,14.6037 17.6193,10.3327 C17.6193,6.0607 14.1433,2.5857 9.8723,2.5857 M9.8723,19.7997 C4.6513,19.7997 0.4043,15.5527 0.4043,10.3327 C0.4043,5.1117 4.6513,0.8647 9.8723,0.8647 C15.0933,0.8647 19.3403,5.1117 19.3403,10.3327 C19.3403,15.5527 15.0933,19.7997 9.8723,19.7997" id="Fill-10" fill="#11193A" mask="url(#mask-4)"></path>
            </g>
        </g>
    </g>
</svg>