<?xml version="1.0" encoding="UTF-8"?>
<svg width="86px" height="65px" viewBox="0 0 86 65" version="1.1" xmlns="http://www.w3.org/2000/svg" xmlns:xlink="http://www.w3.org/1999/xlink">
    <!-- Generator: Sketch 51.3 (57544) - http://www.bohemiancoding.com/sketch -->
    <title>Group 20</title>
    <desc>Created with Sketch.</desc>
    <defs>
        <polygon id="path-1" points="0 0.5777 8.3236 0.5777 8.3236 2.2987 0 2.2987"></polygon>
    </defs>
    <g id="Page-1" stroke="none" stroke-width="1" fill="none" fill-rule="evenodd">
        <g id="Group-20">
            <path d="M58.6775,32.2955 C58.6775,41.2055 51.4545,48.4275 42.5445,48.4275 C33.6355,48.4275 26.4125,41.2055 26.4125,32.2955 C26.4125,23.3855 33.6355,16.1635 42.5445,16.1635 C51.4545,16.1635 58.6775,23.3855 58.6775,32.2955" id="Fill-1" fill="#50E29D"></path>
            <path d="M17.4265,64.9195 L7.6105,64.9195 C7.1345,64.9195 6.7485,64.5345 6.7485,64.0595 L6.7485,0.8605 C6.7485,0.3855 7.1345,0.0005 7.6105,0.0005 L17.4265,0.0005 C17.9025,0.0005 18.2865,0.3855 18.2865,0.8605 C18.2865,1.3355 17.9025,1.7205 17.4265,1.7205 L8.4705,1.7205 L8.4705,63.1985 L17.4265,63.1985 C17.9025,63.1985 18.2865,63.5845 18.2865,64.0595 C18.2865,64.5345 17.9025,64.9195 17.4265,64.9195" id="Fill-3" fill="#11193A"></path>
            <path d="M77.3201,64.9195 L67.5031,64.9195 C67.0271,64.9195 66.6421,64.5345 66.6421,64.0595 C66.6421,63.5845 67.0271,63.1985 67.5031,63.1985 L76.4601,63.1985 L76.4601,1.7205 L67.5031,1.7205 C67.0271,1.7205 66.6421,1.3355 66.6421,0.8605 C66.6421,0.3855 67.0271,0.0005 67.5031,0.0005 L77.3201,0.0005 C77.7961,0.0005 78.1801,0.3855 78.1801,0.8605 L78.1801,64.0595 C78.1801,64.5345 77.7961,64.9195 77.3201,64.9195" id="Fill-5" fill="#11193A"></path>
            <g id="Group-9" transform="translate(0.000000, 30.919600)">
                <mask id="mask-2" fill="white">
                    <use xlink:href="#path-1"></use>
                </mask>
                <g id="Clip-8"></g>
                <path d="M7.4636,2.2987 L0.8596,2.2987 C0.3846,2.2987 -0.0004,1.9137 -0.0004,1.4377 C-0.0004,0.9627 0.3846,0.5777 0.8596,0.5777 L7.4636,0.5777 C7.9396,0.5777 8.3236,0.9627 8.3236,1.4377 C8.3236,1.9137 7.9396,2.2987 7.4636,2.2987" id="Fill-7" fill="#11193A" mask="url(#mask-2)"></path>
            </g>
            <path d="M84.5115,33.2183 L77.5575,33.2183 C77.0815,33.2183 76.6975,32.8333 76.6975,32.3573 C76.6975,31.8823 77.0815,31.4973 77.5575,31.4973 L84.5115,31.4973 C84.9875,31.4973 85.3715,31.8823 85.3715,32.3573 C85.3715,32.8333 84.9875,33.2183 84.5115,33.2183" id="Fill-10" fill="#11193A"></path>
            <path d="M74.0808,33.2183 L11.0868,33.2183 C10.6108,33.2183 10.2258,32.8333 10.2258,32.3573 C10.2258,31.8823 10.6108,31.4973 11.0868,31.4973 L74.0808,31.4973 C74.5568,31.4973 74.9408,31.8823 74.9408,32.3573 C74.9408,32.8333 74.5568,33.2183 74.0808,33.2183" id="Fill-12" fill="#11193A"></path>
            <path d="M10.4714,33.4229 C10.3404,33.4229 10.2074,33.3929 10.0834,33.3299 C9.6594,33.1149 9.4904,32.5969 9.7054,32.1729 C9.8214,31.9439 21.4864,9.4049 42.7514,9.4049 C42.9044,9.4049 43.0564,9.4059 43.2104,9.4079 C63.6334,9.7189 75.3404,31.7369 75.4564,31.9599 C75.6764,32.3809 75.5134,32.9009 75.0914,33.1199 C74.6704,33.3399 74.1514,33.1759 73.9314,32.7559 C73.8204,32.5419 62.5724,11.4239 43.1844,11.1289 C22.7454,10.8089 11.3524,32.7299 11.2404,32.9509 C11.0884,33.2509 10.7854,33.4229 10.4714,33.4229" id="Fill-14" fill="#11193A"></path>
            <path d="M42.4157,55.8179 C42.2637,55.8179 42.1107,55.8169 41.9567,55.8149 C21.5337,55.5039 9.8257,33.4859 9.7097,33.2629 C9.4897,32.8419 9.6527,32.3229 10.0747,32.1029 C10.4967,31.8819 11.0157,32.0469 11.2347,32.4679 C11.3467,32.6809 22.5957,53.7989 41.9827,54.0939 C62.4767,54.3689 73.8137,32.4929 73.9267,32.2719 C74.1417,31.8479 74.6597,31.6779 75.0827,31.8939 C75.5067,32.1089 75.6767,32.6259 75.4617,33.0499 C75.3457,33.2789 63.6817,55.8179 42.4157,55.8179" id="Fill-16" fill="#11193A"></path>
            <path d="M42.7195,20.0777 C35.9485,20.0777 30.4395,25.5867 30.4395,32.3577 C30.4395,39.1287 35.9485,44.6377 42.7195,44.6377 C49.4905,44.6377 54.9985,39.1287 54.9985,32.3577 C54.9985,25.5867 49.4905,20.0777 42.7195,20.0777 M42.7195,46.3577 C34.9995,46.3577 28.7185,40.0777 28.7185,32.3577 C28.7185,24.6377 34.9995,18.3567 42.7195,18.3567 C50.4395,18.3567 56.7205,24.6377 56.7205,32.3577 C56.7205,40.0777 50.4395,46.3577 42.7195,46.3577" id="Fill-18" fill="#11193A"></path>
        </g>
    </g>
</svg>