<?xml version="1.0" encoding="UTF-8"?>
<svg width="86px" height="65px" viewBox="0 0 86 65" version="1.1" xmlns="http://www.w3.org/2000/svg" xmlns:xlink="http://www.w3.org/1999/xlink">
    <!-- Generator: Sketch 51.3 (57544) - http://www.bohemiancoding.com/sketch -->
    <title>Group 20 Copy</title>
    <desc>Created with Sketch.</desc>
    <defs>
        <polygon id="path-1" points="0.7485 0.0801 12.2865 0.0801 12.2865 65 0.7485 65"></polygon>
        <polygon id="path-3" points="0.6421 0.0801 12.1801 0.0801 12.1801 65 0.6421 65"></polygon>
        <polygon id="path-5" points="0 0.5774 8.3236 0.5774 8.3236 2.2984 0 2.2984"></polygon>
    </defs>
    <g id="Page-1" stroke="none" stroke-width="1" fill="none" fill-rule="evenodd">
        <g id="Group-20-Copy" transform="translate(0.000000, -1.000000)">
            <g id="Group-3" transform="translate(6.000000, 0.919600)">
                <mask id="mask-2" fill="white">
                    <use xlink:href="#path-1"></use>
                </mask>
                <g id="Clip-2"></g>
                <path d="M11.4265,65.0001 L1.6105,65.0001 C1.1345,65.0001 0.7485,64.6151 0.7485,64.1401 L0.7485,0.9411 C0.7485,0.4651 1.1345,0.0801 1.6105,0.0801 L11.4265,0.0801 C11.9025,0.0801 12.2865,0.4651 12.2865,0.9411 C12.2865,1.4161 11.9025,1.8011 11.4265,1.8011 L2.4705,1.8011 L2.4705,63.2791 L11.4265,63.2791 C11.9025,63.2791 12.2865,63.6641 12.2865,64.1401 C12.2865,64.6151 11.9025,65.0001 11.4265,65.0001" id="Fill-1" fill="#11193A" mask="url(#mask-2)"></path>
            </g>
            <g id="Group-6" transform="translate(66.000000, 0.919600)">
                <mask id="mask-4" fill="white">
                    <use xlink:href="#path-3"></use>
                </mask>
                <g id="Clip-5"></g>
                <path d="M11.3201,65.0001 L1.5031,65.0001 C1.0271,65.0001 0.6421,64.6151 0.6421,64.1401 C0.6421,63.6641 1.0271,63.2791 1.5031,63.2791 L10.4601,63.2791 L10.4601,1.8011 L1.5031,1.8011 C1.0271,1.8011 0.6421,1.4161 0.6421,0.9411 C0.6421,0.4651 1.0271,0.0801 1.5031,0.0801 L11.3201,0.0801 C11.7961,0.0801 12.1801,0.4651 12.1801,0.9411 L12.1801,64.1401 C12.1801,64.6151 11.7961,65.0001 11.3201,65.0001" id="Fill-4" fill="#11193A" mask="url(#mask-4)"></path>
            </g>
            <g id="Group-9" transform="translate(0.000000, 31.919600)">
                <mask id="mask-6" fill="white">
                    <use xlink:href="#path-5"></use>
                </mask>
                <g id="Clip-8"></g>
                <path d="M7.4636,2.2984 L0.8596,2.2984 C0.3846,2.2984 -0.0004,1.9134 -0.0004,1.4384 C-0.0004,0.9634 0.3846,0.5774 0.8596,0.5774 L7.4636,0.5774 C7.9396,0.5774 8.3236,0.9634 8.3236,1.4384 C8.3236,1.9134 7.9396,2.2984 7.4636,2.2984" id="Fill-7" fill="#11193A" mask="url(#mask-6)"></path>
            </g>
            <path d="M84.5115,34.218 L77.5575,34.218 C77.0815,34.218 76.6975,33.833 76.6975,33.358 C76.6975,32.883 77.0815,32.497 77.5575,32.497 L84.5115,32.497 C84.9875,32.497 85.3715,32.883 85.3715,33.358 C85.3715,33.833 84.9875,34.218 84.5115,34.218" id="Fill-10" fill="#11193A"></path>
            <path d="M74.0808,34.218 L11.0868,34.218 C10.6108,34.218 10.2258,33.833 10.2258,33.358 C10.2258,32.883 10.6108,32.497 11.0868,32.497 L74.0808,32.497 C74.5568,32.497 74.9408,32.883 74.9408,33.358 C74.9408,33.833 74.5568,34.218 74.0808,34.218" id="Fill-12" fill="#11193A"></path>
            <path d="M10.4714,34.4226 C10.3404,34.4226 10.2074,34.3926 10.0834,34.3296 C9.6594,34.1146 9.4904,33.5966 9.7054,33.1736 C9.8214,32.9436 21.4864,10.4046 42.7514,10.4046 C42.9044,10.4046 43.0564,10.4056 43.2104,10.4086 C63.6334,10.7186 75.3404,32.7376 75.4564,32.9606 C75.6764,33.3806 75.5134,33.9016 75.0914,34.1206 C74.6704,34.3406 74.1514,34.1756 73.9314,33.7556 C73.8204,33.5426 62.5724,12.4236 43.1844,12.1296 C22.7454,11.8086 11.3524,33.7296 11.2404,33.9516 C11.0884,34.2506 10.7854,34.4226 10.4714,34.4226" id="Fill-14" fill="#11193A"></path>
            <path d="M42.4157,56.8181 C42.2637,56.8181 42.1107,56.8171 41.9567,56.8151 C21.5337,56.5041 9.8257,34.4851 9.7097,34.2631 C9.4897,33.8421 9.6527,33.3231 10.0747,33.1031 C10.4967,32.8821 11.0157,33.0471 11.2347,33.4671 C11.3467,33.6811 22.5957,54.7991 41.9827,55.0941 C62.4767,55.3691 73.8137,33.4931 73.9267,33.2721 C74.1417,32.8481 74.6597,32.6781 75.0827,32.8941 C75.5067,33.1091 75.6767,33.6261 75.4617,34.0491 C75.3457,34.2791 63.6817,56.8181 42.4157,56.8181" id="Fill-16" fill="#11193A"></path>
            <path d="M42.7195,21.0779 C35.9485,21.0779 30.4395,26.5869 30.4395,33.3579 C30.4395,40.1289 35.9485,45.6369 42.7195,45.6369 C49.4905,45.6369 54.9985,40.1289 54.9985,33.3579 C54.9985,26.5869 49.4905,21.0779 42.7195,21.0779 M42.7195,47.3579 C34.9995,47.3579 28.7185,41.0779 28.7185,33.3579 C28.7185,25.6379 34.9995,19.3569 42.7195,19.3569 C50.4395,19.3569 56.7205,25.6379 56.7205,33.3579 C56.7205,41.0779 50.4395,47.3579 42.7195,47.3579" id="Fill-18" fill="#11193A"></path>
        </g>
    </g>
</svg>