<?xml version="1.0" encoding="UTF-8"?>
<svg width="100px" height="76px" viewBox="0 0 100 76" version="1.1" xmlns="http://www.w3.org/2000/svg" xmlns:xlink="http://www.w3.org/1999/xlink">
    <!-- Generator: Sketch 51.3 (57544) - http://www.bohemiancoding.com/sketch -->
    <title>Group 19</title>
    <desc>Created with Sketch.</desc>
    <defs></defs>
    <g id="Page-1" stroke="none" stroke-width="1" fill="none" fill-rule="evenodd">
        <g id="Support-Copy" transform="translate(-841.000000, -2393.000000)">
            <g id="Group-19" transform="translate(842.000000, 2394.000000)">
                <path d="M67.1942,36.5333 C67.1942,46.8873 58.7992,55.2823 48.4452,55.2823 C38.0902,55.2823 29.6972,46.8873 29.6972,36.5333 C29.6972,26.1793 38.0902,17.7843 48.4452,17.7843 C58.7992,17.7843 67.1942,26.1793 67.1942,36.5333" id="Fill-1" fill="#50E29D"></path>
                <polyline id="Stroke-3" stroke="#11193A" stroke-width="2" stroke-linecap="round" stroke-linejoin="round" points="19.2538 73.4479 7.8438 73.4479 7.8438 -0.0001 19.2538 -0.0001"></polyline>
                <polyline id="Stroke-5" stroke="#11193A" stroke-width="2" stroke-linecap="round" stroke-linejoin="round" points="77.4501 0.0001 88.8591 0.0001 88.8591 73.4481 77.4501 73.4481"></polyline>
                <path d="M-0.0001,36.6051 L7.6739,36.6051" id="Stroke-7" stroke="#11193A" stroke-width="2" stroke-linecap="round" stroke-linejoin="round"></path>
                <path d="M89.1356,36.6051 L97.2176,36.6051" id="Stroke-9" stroke="#11193A" stroke-width="2" stroke-linecap="round" stroke-linejoin="round"></path>
                <path d="M85.0956,36.6051 L11.8846,36.6051" id="Stroke-11" stroke="#11193A" stroke-width="2" stroke-linecap="round" stroke-linejoin="round"></path>
                <path d="M11.1718,36.8429 C11.1718,36.8429 24.4848,10.5579 49.2028,10.9339 C72.6158,11.2909 85.8088,36.6049 85.8088,36.6049" id="Stroke-13" stroke="#11193A" stroke-width="2" stroke-linecap="round" stroke-linejoin="round"></path>
                <path d="M85.8085,36.9577 C85.8085,36.9577 72.4945,63.2427 47.7775,62.8667 C24.3645,62.5097 11.1715,37.1957 11.1715,37.1957" id="Stroke-15" stroke="#11193A" stroke-width="2" stroke-linecap="round" stroke-linejoin="round"></path>
                <path d="M63.9188,36.6051 C63.9188,45.0391 57.0818,51.8761 48.6478,51.8761 C40.2138,51.8761 33.3768,45.0391 33.3768,36.6051 C33.3768,28.1711 40.2138,21.3341 48.6478,21.3341 C57.0818,21.3341 63.9188,28.1711 63.9188,36.6051 Z" id="Stroke-17" stroke="#11193A" stroke-width="2" stroke-linecap="round" stroke-linejoin="round"></path>
            </g>
        </g>
    </g>
</svg>