<?xml version="1.0" encoding="UTF-8"?>
<svg width="93px" height="81px" viewBox="0 0 93 81" version="1.1" xmlns="http://www.w3.org/2000/svg" xmlns:xlink="http://www.w3.org/1999/xlink">
    <!-- Generator: Sketch 51.3 (57544) - http://www.bohemiancoding.com/sketch -->
    <title>Group 12</title>
    <desc>Created with Sketch.</desc>
    <defs>
        <polygon id="path-1" points="0 80.7561 92.614 80.7561 92.614 0.0001 0 0.0001"></polygon>
    </defs>
    <g id="Page-1" stroke="none" stroke-width="1" fill="none" fill-rule="evenodd">
        <g id="Support-Copy" transform="translate(-492.000000, -2390.000000)">
            <g id="Group-12" transform="translate(492.000000, 2390.000000)">
                <path d="M65.0313,53.1963 C65.0313,63.5503 56.6373,71.9453 46.2833,71.9453 C35.9283,71.9453 27.5343,63.5503 27.5343,53.1963 C27.5343,42.8423 35.9283,34.4473 46.2833,34.4473 C56.6373,34.4473 65.0313,42.8423 65.0313,53.1963" id="Fill-1" fill="#50E29D"></path>
                <mask id="mask-2" fill="white">
                    <use xlink:href="#path-1"></use>
                </mask>
                <g id="Clip-4"></g>
                <polygon id="Stroke-3" stroke="#242F4E" stroke-width="2" stroke-linecap="round" stroke-linejoin="round" mask="url(#mask-2)" points="1 79.7561 91.614 79.7561 91.614 1.0001 1 1.0001"></polygon>
                <path d="M1.2579,22.6733 L91.3089,22.6733" id="Stroke-5" stroke="#242F4E" stroke-width="2" stroke-linecap="round" stroke-linejoin="round" mask="url(#mask-2)"></path>
                <path d="M40.0255,64.4932 L52.3885,40.4542" id="Stroke-6" stroke="#11193A" stroke-width="2" stroke-linecap="round" stroke-linejoin="round" mask="url(#mask-2)"></path>
                <polyline id="Stroke-7" stroke="#11193A" stroke-width="2" stroke-linecap="round" stroke-linejoin="round" mask="url(#mask-2)" points="20.4102 40.4546 8.2762 52.5886 20.1812 64.2646"></polyline>
                <polyline id="Stroke-8" stroke="#11193A" stroke-width="2" stroke-linecap="round" stroke-linejoin="round" mask="url(#mask-2)" points="72.8057 64.2642 84.9397 52.1302 73.0347 40.4542"></polyline>
                <path d="M53.9483,11.8071 C53.9483,12.5621 53.3363,13.1751 52.5813,13.1751 C51.8253,13.1751 51.2133,12.5621 51.2133,11.8071 C51.2133,11.0521 51.8253,10.4391 52.5813,10.4391 C53.3363,10.4391 53.9483,11.0521 53.9483,11.8071" id="Fill-9" fill="#11193A" mask="url(#mask-2)"></path>
                <path d="M67.0782,11.8071 C67.0782,12.5621 66.4662,13.1751 65.7112,13.1751 C64.9552,13.1751 64.3432,12.5621 64.3432,11.8071 C64.3432,11.0521 64.9552,10.4391 65.7112,10.4391 C66.4662,10.4391 67.0782,11.0521 67.0782,11.8071" id="Fill-10" fill="#11193A" mask="url(#mask-2)"></path>
                <path d="M81.0284,11.8071 C81.0284,12.5621 80.4164,13.1751 79.6614,13.1751 C78.9054,13.1751 78.2934,12.5621 78.2934,11.8071 C78.2934,11.0521 78.9054,10.4391 79.6614,10.4391 C80.4164,10.4391 81.0284,11.0521 81.0284,11.8071" id="Fill-11" fill="#11193A" mask="url(#mask-2)"></path>
            </g>
        </g>
    </g>
</svg>