<?xml version="1.0" encoding="UTF-8"?>
<svg width="76px" height="67px" viewBox="0 0 76 67" version="1.1" xmlns="http://www.w3.org/2000/svg" xmlns:xlink="http://www.w3.org/1999/xlink">
    <!-- Generator: Sketch 51.3 (57544) - http://www.bohemiancoding.com/sketch -->
    <title>Group 12</title>
    <desc>Created with Sketch.</desc>
    <defs>
        <polygon id="path-1" points="0 66.0874 75.792 66.0874 75.792 0.0004 0 0.0004"></polygon>
    </defs>
    <g id="Page-1" stroke="none" stroke-width="1" fill="none" fill-rule="evenodd">
        <g id="Group-12">
            <path d="M53.2194,43.5334 C53.2194,52.0074 46.3504,58.8764 37.8764,58.8764 C29.4034,58.8764 22.5324,52.0074 22.5324,43.5334 C22.5324,35.0594 29.4034,28.1904 37.8764,28.1904 C46.3504,28.1904 53.2194,35.0594 53.2194,43.5334" id="Fill-1" fill="#50E29D"></path>
            <mask id="mask-2" fill="white">
                <use xlink:href="#path-1"></use>
            </mask>
            <g id="Clip-4"></g>
            <path d="M1.636,64.4504 L74.155,64.4504 L74.155,1.6364 L1.636,1.6364 L1.636,64.4504 Z M74.973,66.0874 L0.818,66.0874 C0.366,66.0874 0,65.7204 0,65.2694 L0,0.8184 C0,0.3664 0.366,0.0004 0.818,0.0004 L74.973,0.0004 C75.425,0.0004 75.792,0.3664 75.792,0.8184 L75.792,65.2694 C75.792,65.7204 75.425,66.0874 74.973,66.0874 Z" id="Fill-3" fill="#11193A" mask="url(#mask-2)"></path>
            <path d="M74.7243,19.3727 L1.0303,19.3727 C0.5783,19.3727 0.2113,19.0067 0.2113,18.5547 C0.2113,18.1027 0.5783,17.7357 1.0303,17.7357 L74.7243,17.7357 C75.1763,17.7357 75.5423,18.1027 75.5423,18.5547 C75.5423,19.0067 75.1763,19.3727 74.7243,19.3727" id="Fill-5" fill="#11193A" mask="url(#mask-2)"></path>
            <path d="M32.7555,53.5968 C32.6285,53.5968 32.5015,53.5678 32.3815,53.5068 C31.9805,53.2998 31.8215,52.8058 32.0275,52.4048 L42.1455,32.7318 C42.3525,32.3298 42.8445,32.1718 43.2465,32.3788 C43.6495,32.5848 43.8075,33.0778 43.6015,33.4808 L33.4845,53.1528 C33.3385,53.4348 33.0525,53.5968 32.7555,53.5968" id="Fill-6" fill="#11193A" mask="url(#mask-2)"></path>
            <path d="M16.5163,53.4098 C16.3093,53.4098 16.1023,53.3318 15.9433,53.1758 L6.2003,43.6198 C6.0443,43.4668 5.9553,43.2588 5.9543,43.0398 C5.9533,42.8218 6.0403,42.6118 6.1943,42.4568 L16.1243,32.5278 C16.4443,32.2078 16.9613,32.2078 17.2823,32.5278 C17.6013,32.8478 17.6013,33.3648 17.2823,33.6848 L7.9363,43.0308 L17.0883,52.0068 C17.4123,52.3238 17.4163,52.8418 17.1003,53.1638 C16.9403,53.3278 16.7273,53.4098 16.5163,53.4098" id="Fill-7" fill="#11193A" mask="url(#mask-2)"></path>
            <path d="M59.5817,53.4098 C59.3717,53.4098 59.1627,53.3298 59.0027,53.1698 C58.6837,52.8498 58.6837,52.3318 59.0027,52.0128 L68.3487,42.6668 L59.1957,33.6898 C58.8737,33.3738 58.8687,32.8558 59.1857,32.5328 C59.5007,32.2098 60.0197,32.2048 60.3427,32.5218 L70.0837,42.0768 C70.2397,42.2298 70.3287,42.4388 70.3297,42.6578 C70.3307,42.8758 70.2437,43.0858 70.0897,43.2398 L60.1597,53.1698 C59.9997,53.3298 59.7907,53.4098 59.5817,53.4098" id="Fill-8" fill="#11193A" mask="url(#mask-2)"></path>
            <path d="M44.1491,9.6623 C44.1491,10.2803 43.6481,10.7813 43.0301,10.7813 C42.4121,10.7813 41.9111,10.2803 41.9111,9.6623 C41.9111,9.0443 42.4121,8.5433 43.0301,8.5433 C43.6481,8.5433 44.1491,9.0443 44.1491,9.6623" id="Fill-9" fill="#11193A" mask="url(#mask-2)"></path>
            <path d="M54.8942,9.6623 C54.8942,10.2803 54.3932,10.7813 53.7752,10.7813 C53.1572,10.7813 52.6562,10.2803 52.6562,9.6623 C52.6562,9.0443 53.1572,8.5433 53.7752,8.5433 C54.3932,8.5433 54.8942,9.0443 54.8942,9.6623" id="Fill-10" fill="#11193A" mask="url(#mask-2)"></path>
            <path d="M66.3112,9.6623 C66.3112,10.2803 65.8102,10.7813 65.1922,10.7813 C64.5742,10.7813 64.0732,10.2803 64.0732,9.6623 C64.0732,9.0443 64.5742,8.5433 65.1922,8.5433 C65.8102,8.5433 66.3112,9.0443 66.3112,9.6623" id="Fill-11" fill="#11193A" mask="url(#mask-2)"></path>
        </g>
    </g>
</svg>