<?xml version="1.0" encoding="UTF-8"?>
<svg width="76px" height="67px" viewBox="0 0 76 67" version="1.1" xmlns="http://www.w3.org/2000/svg" xmlns:xlink="http://www.w3.org/1999/xlink">
    <!-- Generator: Sketch 51.3 (57544) - http://www.bohemiancoding.com/sketch -->
    <title>Group 10 Copy</title>
    <desc>Created with Sketch.</desc>
    <defs>
        <polygon id="path-1" points="0 0.0004 75.792 0.0004 75.792 66.0874 0 66.0874"></polygon>
    </defs>
    <g id="Page-1" stroke="none" stroke-width="1" fill="none" fill-rule="evenodd">
        <g id="Group-10-Copy">
            <mask id="mask-2" fill="white">
                <use xlink:href="#path-1"></use>
            </mask>
            <g id="Clip-2"></g>
            <path d="M1.636,64.4504 L74.155,64.4504 L74.155,1.6364 L1.636,1.6364 L1.636,64.4504 Z M74.973,66.0874 L0.818,66.0874 C0.366,66.0874 0,65.7214 0,65.2684 L0,0.8184 C0,0.3664 0.366,-0.0006 0.818,-0.0006 L74.973,-0.0006 C75.425,-0.0006 75.792,0.3664 75.792,0.8184 L75.792,65.2684 C75.792,65.7214 75.425,66.0874 74.973,66.0874 Z" id="Fill-1" fill="#11193A" mask="url(#mask-2)"></path>
            <path d="M74.7243,19.3729 L1.0303,19.3729 C0.5783,19.3729 0.2113,19.0069 0.2113,18.5549 C0.2113,18.1029 0.5783,17.7359 1.0303,17.7359 L74.7243,17.7359 C75.1763,17.7359 75.5423,18.1029 75.5423,18.5549 C75.5423,19.0069 75.1763,19.3729 74.7243,19.3729" id="Fill-3" fill="#11193A" mask="url(#mask-2)"></path>
            <path d="M32.7555,53.597 C32.6285,53.597 32.5015,53.568 32.3815,53.506 C31.9805,53.3 31.8215,52.806 32.0275,52.404 L42.1455,32.732 C42.3525,32.329 42.8445,32.172 43.2465,32.378 C43.6495,32.585 43.8075,33.078 43.6015,33.48 L33.4845,53.153 C33.3385,53.435 33.0525,53.597 32.7555,53.597" id="Fill-4" fill="#11193A" mask="url(#mask-2)"></path>
            <path d="M16.5163,53.4095 C16.3093,53.4095 16.1023,53.3315 15.9433,53.1755 L6.2003,43.6195 C6.0443,43.4675 5.9553,43.2585 5.9543,43.0395 C5.9533,42.8215 6.0403,42.6115 6.1943,42.4575 L16.1243,32.5275 C16.4443,32.2075 16.9613,32.2075 17.2823,32.5275 C17.6013,32.8465 17.6013,33.3655 17.2823,33.6845 L7.9363,43.0305 L17.0883,52.0075 C17.4123,52.3235 17.4163,52.8415 17.1003,53.1645 C16.9403,53.3275 16.7273,53.4095 16.5163,53.4095" id="Fill-5" fill="#11193A" mask="url(#mask-2)"></path>
            <path d="M59.5817,53.4095 C59.3717,53.4095 59.1627,53.3295 59.0027,53.1695 C58.6837,52.8505 58.6837,52.3325 59.0027,52.0125 L68.3487,42.6665 L59.1957,33.6905 C58.8737,33.3735 58.8687,32.8555 59.1857,32.5335 C59.5007,32.2095 60.0197,32.2055 60.3427,32.5215 L70.0837,42.0775 C70.2397,42.2305 70.3287,42.4395 70.3297,42.6575 C70.3307,42.8755 70.2437,43.0855 70.0897,43.2405 L60.1597,53.1695 C59.9997,53.3295 59.7907,53.4095 59.5817,53.4095" id="Fill-6" fill="#11193A" mask="url(#mask-2)"></path>
            <path d="M44.1491,9.6619 C44.1491,10.2799 43.6481,10.7819 43.0301,10.7819 C42.4121,10.7819 41.9111,10.2799 41.9111,9.6619 C41.9111,9.0439 42.4121,8.5429 43.0301,8.5429 C43.6481,8.5429 44.1491,9.0439 44.1491,9.6619" id="Fill-7" fill="#11193A" mask="url(#mask-2)"></path>
            <path d="M54.8942,9.6619 C54.8942,10.2799 54.3932,10.7819 53.7752,10.7819 C53.1572,10.7819 52.6562,10.2799 52.6562,9.6619 C52.6562,9.0439 53.1572,8.5429 53.7752,8.5429 C54.3932,8.5429 54.8942,9.0439 54.8942,9.6619" id="Fill-8" fill="#11193A" mask="url(#mask-2)"></path>
            <path d="M66.3112,9.6619 C66.3112,10.2799 65.8102,10.7819 65.1922,10.7819 C64.5742,10.7819 64.0732,10.2799 64.0732,9.6619 C64.0732,9.0439 64.5742,8.5429 65.1922,8.5429 C65.8102,8.5429 66.3112,9.0439 66.3112,9.6619" id="Fill-9" fill="#11193A" mask="url(#mask-2)"></path>
        </g>
    </g>
</svg>