<?xml version="1.0" encoding="UTF-8"?>
<svg width="91px" height="91px" viewBox="0 0 91 91" version="1.1" xmlns="http://www.w3.org/2000/svg" xmlns:xlink="http://www.w3.org/1999/xlink">
    <!-- Generator: Sketch 51.3 (57544) - http://www.bohemiancoding.com/sketch -->
    <title>Group 20</title>
    <desc>Created with Sketch.</desc>
    <defs>
        <polygon id="path-1" points="0.0004 0.0863 90.915 0.0863 90.915 91 0.0004 91"></polygon>
    </defs>
    <g id="Page-1" stroke="none" stroke-width="1" fill="none" fill-rule="evenodd">
        <g id="Support-Copy" transform="translate(-1203.000000, -2386.000000)">
            <g id="Group-20" transform="translate(1203.000000, 2385.000000)">
                <path d="M62.7949,53.5939 C58.8539,63.1689 47.8969,67.7359 38.3209,63.7949 C28.7459,59.8529 24.1789,48.8959 28.1199,39.3209 C32.0619,29.7459 43.0199,25.1779 52.5949,29.1199 C62.1689,33.0609 66.7359,44.0189 62.7949,53.5939" id="Fill-1" fill="#50E29D"></path>
                <g id="Group-5" transform="translate(0.000000, 0.914100)">
                    <mask id="mask-2" fill="white">
                        <use xlink:href="#path-1"></use>
                    </mask>
                    <g id="Clip-4"></g>
                    <path d="M88.9414,51.3253 L88.1734,51.3253 C87.8694,51.5873 87.4994,51.7563 87.0954,51.8183 L78.8534,53.1923 C78.4624,53.2583 78.1454,53.5473 78.0484,53.9273 C77.2534,57.0053 76.0424,59.9243 74.4454,62.6063 C74.2404,62.9543 74.2584,63.3803 74.4944,63.7153 L79.3504,70.5583 C79.9484,71.4123 79.8454,72.6063 79.1124,73.3383 L73.2514,79.1993 C72.9624,79.4903 72.4604,79.8373 71.7164,79.8373 C71.2504,79.8373 70.8074,79.6893 70.4354,79.4083 L63.6424,74.5753 C63.3234,74.3433 62.8874,74.3273 62.5334,74.5343 C59.8544,76.1283 56.9384,77.3383 53.8664,78.1323 C53.4824,78.2283 53.1874,78.5433 53.1304,78.9183 L51.7294,87.2073 C51.5684,88.2483 50.6724,89.0073 49.6004,89.0073 L41.3164,89.0073 C40.2424,89.0073 39.3444,88.2413 39.1824,87.1843 L37.8094,78.9383 C37.7434,78.5473 37.4544,78.2303 37.0734,78.1343 C34.1424,77.3763 31.2904,76.2073 28.5944,74.6613 C28.2654,74.4733 27.7904,74.4893 27.5144,74.6943 L20.6024,79.6123 C19.5804,80.2433 18.5994,80.1553 17.8204,79.3743 L11.9594,73.5123 C11.2354,72.7933 11.1184,71.6783 11.6764,70.8013 L16.5644,63.9433 C16.7964,63.6143 16.8124,63.1703 16.6034,62.8143 C14.9684,60.0903 13.7454,57.1803 12.9664,54.1683 C12.8634,53.7943 12.5344,53.4933 12.1484,53.4263 L3.8314,52.0103 C2.7924,51.8503 2.0334,50.9543 2.0334,49.8823 L2.0334,41.5973 C2.0334,40.5253 2.7994,39.6283 3.8564,39.4653 L12.0404,38.0913 C12.4444,38.0223 12.7694,37.7283 12.8674,37.3423 C13.6454,34.2443 14.8374,31.3183 16.4074,28.6453 C16.6044,28.3083 16.5844,27.8833 16.3524,27.5613 L11.4484,20.6673 C10.8474,19.8153 10.9504,18.6203 11.6854,17.8863 L17.5464,12.0243 C17.8364,11.7343 18.3374,11.3863 19.0804,11.3863 C19.5454,11.3863 19.9894,11.5343 20.3624,11.8153 L27.1164,16.6303 C27.4474,16.8623 27.8914,16.8773 28.2454,16.6693 C30.9694,15.0353 33.8794,13.8113 36.8924,13.0323 C37.2664,12.9293 37.5664,12.6003 37.6334,12.2153 L39.0494,3.8963 C39.2104,2.8573 40.1044,2.0983 41.1774,2.0983 L49.4624,2.0983 C50.5404,2.0983 51.4364,2.8683 51.5954,3.9293 L52.9684,12.1063 C53.0374,12.5113 53.3314,12.8343 53.7154,12.9303 C56.8414,13.7173 59.8284,14.9423 62.5924,16.5723 C62.9454,16.7783 63.3734,16.7623 63.7094,16.5263 L70.4834,11.6553 C71.5314,11.0173 72.4854,11.1023 73.2674,11.8853 L79.1344,17.7503 C79.8534,18.4733 79.9704,19.5863 79.4194,20.4573 L74.5084,27.3583 C74.2764,27.6803 74.2604,28.1163 74.4684,28.4693 C76.0584,31.1383 77.2684,34.0543 78.0664,37.1343 C78.1634,37.5183 78.4794,37.8143 78.8544,37.8713 L87.1424,39.2733 C88.1824,39.4303 88.9414,40.3253 88.9414,41.4013 L88.9414,51.3253 Z M90.9154,49.6853 L90.9154,41.4013 C90.9434,39.3473 89.4924,37.6133 87.4624,37.2733 L79.8534,35.9823 L79.5554,35.0193 C78.8964,32.8883 78.0424,30.8253 77.0164,28.8863 L76.5434,27.9903 L81.0284,21.7143 C82.2224,20.0393 82.0334,17.7773 80.5794,16.3363 L74.7094,10.4673 C73.3014,9.0603 70.9474,8.8603 69.3494,10.0083 L63.0484,14.4953 L62.1554,14.0243 C60.0894,12.9333 57.9514,12.0543 55.7994,11.4103 L54.8224,11.1183 L53.5504,3.5793 C53.2124,1.5543 51.4744,0.0863 49.4214,0.0863 L41.1384,0.0863 C39.0864,0.0863 37.3504,1.5543 37.0114,3.5773 L35.7004,11.2623 L34.7404,11.5623 C32.6464,12.2163 30.5914,13.0823 28.6344,14.1363 L27.7324,14.6233 L21.4884,10.1273 C19.8944,8.9813 17.4854,9.1813 16.1194,10.5753 L10.2234,16.4513 C8.7734,17.9013 8.5834,20.1653 9.7714,21.8353 L14.2914,28.1853 L13.8234,29.0763 C12.8124,31.0053 11.9714,33.0733 11.3234,35.2233 L11.0304,36.1983 L3.4934,37.4693 C1.4684,37.8093 0.0004,39.5453 0.0004,41.5973 L0.0004,49.8823 C0.0004,51.9343 1.4684,53.6703 3.4934,54.0103 L11.1764,55.3213 L11.4754,56.2793 C12.1294,58.3733 12.9974,60.4293 14.0504,62.3873 L14.5364,63.2903 L10.0614,69.5123 C8.8704,71.1863 9.0594,73.4473 10.5134,74.8873 L16.3834,80.7563 C17.7944,82.1663 20.1464,82.3663 21.7414,81.2153 L28.0994,76.6903 L28.9924,77.1583 C30.8354,78.1253 32.8344,78.9483 34.9364,79.6033 L35.8994,79.9033 L37.1684,87.5113 C37.5074,89.5323 39.2444,91.0003 41.2964,91.0003 L49.6004,91.0003 C51.6524,91.0003 53.3874,89.5323 53.7274,87.5093 L55.0194,79.9003 L55.9824,79.6023 C58.1154,78.9403 60.1784,78.0863 62.1144,77.0623 L63.0104,76.5883 L69.2854,81.0743 C70.8954,82.2303 73.2584,82.0303 74.6694,80.6183 L80.5334,74.7553 C81.9844,73.3043 82.1754,71.0383 80.9874,69.3693 L76.5054,63.0783 L76.9734,62.1863 C78.0454,60.1383 78.9004,58.0753 79.5144,56.0563 L79.8104,55.0823 L87.4254,53.8123 C89.4474,53.4743 90.9154,51.7383 90.9154,49.6853 Z" id="Fill-3" fill="#242F4E" mask="url(#mask-2)"></path>
                </g>
                <path d="M25.7266,32.3629 C31.1246,24.8929 40.5766,20.8609 50.1906,22.8319 C57.2376,24.2769 62.9336,28.6509 66.2716,34.4249" id="Stroke-6" stroke="#242F4E" stroke-width="2" stroke-linecap="round" stroke-linejoin="round"></path>
                <path d="M42.3691,70.5118 C41.7411,70.4328 41.1101,70.3298 40.4791,70.1998 C27.3991,67.5188 18.9701,54.7408 21.6511,41.6608 C22.1151,39.3958 22.8831,37.2698 23.9011,35.3168" id="Stroke-8" stroke="#242F4E" stroke-width="2" stroke-linecap="round" stroke-linejoin="round"></path>
                <path d="M67.4551,36.753 C69.4181,41.189 70.0671,46.257 69.0191,51.372 C66.7241,62.571 57.0251,70.362 46.0741,70.687" id="Stroke-10" stroke="#242F4E" stroke-width="2" stroke-linecap="round" stroke-linejoin="round"></path>
                <polyline id="Stroke-12" stroke="#242F4E" stroke-width="2" stroke-linecap="round" stroke-linejoin="round" points="20.3047 36.1778 23.8647 35.2978 25.0747 38.8088"></polyline>
                <polyline id="Stroke-14" stroke="#242F4E" stroke-width="2" stroke-linecap="round" stroke-linejoin="round" points="67.0146 30.6681 66.2626 34.4291 62.2436 33.7931"></polyline>
                <path d="M46.0732,70.6505 L48.4282,67.5915" id="Stroke-16" stroke="#242F4E" stroke-width="2" stroke-linecap="round" stroke-linejoin="round"></path>
                <path d="M49.0869,73.4308 L46.0729,70.6508" id="Stroke-18" stroke="#242F4E" stroke-width="2" stroke-linecap="round" stroke-linejoin="round"></path>
            </g>
        </g>
    </g>
</svg>