<?xml version="1.0" encoding="UTF-8"?>
<svg width="78px" height="75px" viewBox="0 0 78 75" version="1.1" xmlns="http://www.w3.org/2000/svg" xmlns:xlink="http://www.w3.org/1999/xlink">
    <!-- Generator: Sketch 51.3 (57544) - http://www.bohemiancoding.com/sketch -->
    <title>Group 18</title>
    <desc>Created with Sketch.</desc>
    <defs>
        <polygon id="path-1" points="0.01655 0.369 56.27 0.369 56.27 70.6599 0.01655 70.6599"></polygon>
        <polygon id="path-3" points="0 0.4858 42.9868 0.4858 42.9868 43.4728 0 43.4728"></polygon>
        <polygon id="path-5" points="0.839165815 0.303995549 13.1116625 0.303995549 13.1116625 22 0.839165815 22"></polygon>
    </defs>
    <g id="Page-1" stroke="none" stroke-width="1" fill="none" fill-rule="evenodd">
        <g id="Group-18" transform="translate(0.000000, -1.000000)">
            <path d="M60.4645,34.1575 C60.4645,43.0665 53.2415,50.2895 44.3315,50.2895 C35.4225,50.2895 28.1995,43.0665 28.1995,34.1575 C28.1995,25.2475 35.4225,18.0255 44.3315,18.0255 C53.2415,18.0255 60.4645,25.2475 60.4645,34.1575" id="Fill-1" fill="#50E29D"></path>
            <path d="M64.4772,37.8763 C64.4352,37.8763 64.3912,37.8733 64.3472,37.8663 C63.8772,37.7943 63.5542,37.3553 63.6262,36.8863 C63.7742,35.9123 63.8502,34.9153 63.8502,33.9233 C63.8502,23.2023 55.1262,14.4793 44.4062,14.4793 C41.6892,14.4793 39.0612,15.0273 36.5962,16.1103 C36.1602,16.3023 35.6542,16.1033 35.4612,15.6683 C35.2712,15.2333 35.4692,14.7263 35.9042,14.5343 C38.5892,13.3553 41.4502,12.7573 44.4062,12.7573 C56.0772,12.7573 65.5712,22.2523 65.5712,33.9233 C65.5712,35.0023 65.4892,36.0863 65.3272,37.1453 C65.2622,37.5713 64.8962,37.8763 64.4772,37.8763" id="Fill-3" fill="#11193A"></path>
            <path d="M44.4059,55.0892 C42.1009,55.0892 39.8379,54.7212 37.6749,53.9962 C37.2239,53.8452 36.9809,53.3572 37.1329,52.9062 C37.2839,52.4562 37.7719,52.2152 38.2219,52.3642 C40.2079,53.0302 42.2879,53.3682 44.4059,53.3682 C50.8759,53.3682 56.9029,50.1632 60.5289,44.7952 C60.7959,44.4012 61.3289,44.2962 61.7239,44.5632 C62.1179,44.8292 62.2209,45.3642 61.9559,45.7572 C58.0099,51.6002 51.4479,55.0892 44.4059,55.0892" id="Fill-5" fill="#11193A"></path>
            <path d="M64.5475,38.5662 C64.5335,38.5662 64.5205,38.5662 64.5075,38.5662 C64.2735,38.5542 64.0545,38.4482 63.9005,38.2732 L58.1935,31.7602 C57.8805,31.4032 57.9165,30.8592 58.2745,30.5462 C58.6305,30.2332 59.1745,30.2682 59.4875,30.6262 L64.6065,36.4672 L70.1805,31.2012 C70.5265,30.8752 71.0705,30.8912 71.3965,31.2362 C71.7235,31.5822 71.7075,32.1262 71.3615,32.4532 L65.1385,38.3312 C64.9785,38.4832 64.7665,38.5662 64.5475,38.5662" id="Fill-7" fill="#11193A"></path>
            <g id="Group-11" transform="translate(21.000000, 0.631400)">
                <mask id="mask-2" fill="white">
                    <use xlink:href="#path-1"></use>
                </mask>
                <g id="Clip-10"></g>
                <path d="M46.1208,70.6599 C45.9428,70.6599 45.7658,70.6049 45.6148,70.4949 L35.9778,63.4889 C27.9788,66.7909 19.1828,66.8229 11.1508,63.5659 C8.2288,62.3819 5.5078,60.7959 3.0608,58.8529 C2.6888,58.5569 2.6278,58.0159 2.9228,57.6429 C3.2178,57.2719 3.7598,57.2089 4.1328,57.5049 C6.4498,59.3459 9.0278,60.8489 11.7988,61.9719 C19.5528,65.1159 28.0588,65.0249 35.7518,61.7169 C36.0298,61.5969 36.3508,61.6329 36.5978,61.8109 L44.8398,67.8049 L42.8688,58.0529 C42.8068,57.7399 42.9218,57.4179 43.1688,57.2159 C47.1708,53.9449 50.3178,49.6689 52.2708,44.8519 C58.7098,28.9719 51.0298,10.8159 35.1508,4.3779 C23.5498,-0.3261 10.3358,2.3559 1.4848,11.2069 C1.1488,11.5429 0.6038,11.5429 0.2678,11.2069 C-0.0672,10.8709 -0.0672,10.3259 0.2678,9.9899 C9.6088,0.6469 23.5568,-2.1801 35.7988,2.7829 C52.5568,9.5779 60.6618,28.7399 53.8658,45.4979 C51.8708,50.4199 48.6918,54.8069 44.6578,58.2159 L46.9648,69.6289 C47.0348,69.9769 46.8848,70.3319 46.5858,70.5229 C46.4438,70.6149 46.2828,70.6599 46.1208,70.6599" id="Fill-9" fill="#11193A" mask="url(#mask-2)"></path>
            </g>
            <g id="Group-14" transform="translate(0.000000, 13.631400)">
                <mask id="mask-4" fill="white">
                    <use xlink:href="#path-3"></use>
                </mask>
                <g id="Clip-13"></g>
                <path d="M21.4938,2.2068 C10.5908,2.2068 1.7218,11.0768 1.7218,21.9798 C1.7218,32.8828 10.5908,41.7518 21.4938,41.7518 C32.3958,41.7518 41.2658,32.8828 41.2658,21.9798 C41.2658,11.0768 32.3958,2.2068 21.4938,2.2068 M21.4938,43.4728 C9.6418,43.4728 -0.0002,33.8318 -0.0002,21.9798 C-0.0002,10.1278 9.6418,0.4858 21.4938,0.4858 C33.3458,0.4858 42.9868,10.1278 42.9868,21.9798 C42.9868,33.8318 33.3458,43.4728 21.4938,43.4728" id="Fill-12" fill="#11193A" mask="url(#mask-4)"></path>
            </g>
            <g id="Group-17" transform="translate(0.000000, 53.631400)">
                <mask id="mask-6" fill="white">
                    <use xlink:href="#path-5"></use>
                </mask>
                <g id="Clip-16"></g>
                <path d="M1.6989,22.0002 C1.5639,22.0002 1.4269,21.9682 1.2989,21.9002 C0.8779,21.6782 0.7169,21.1582 0.9389,20.7372 L11.4909,0.7632 C11.7119,0.3432 12.2329,0.1812 12.6529,0.4042 C13.0729,0.6262 13.2339,1.1462 13.0119,1.5672 L2.4609,21.5422 C2.3059,21.8332 2.0089,22.0002 1.6989,22.0002" id="Fill-15" fill="#11193A" mask="url(#mask-6)"></path>
            </g>
        </g>
    </g>
</svg>