<?xml version="1.0" encoding="UTF-8"?>
<svg width="78px" height="75px" viewBox="0 0 78 75" version="1.1" xmlns="http://www.w3.org/2000/svg" xmlns:xlink="http://www.w3.org/1999/xlink">
    <!-- Generator: Sketch 51.3 (57544) - http://www.bohemiancoding.com/sketch -->
    <title>Group 15</title>
    <desc>Created with Sketch.</desc>
    <defs>
        <polygon id="path-1" points="0.01655 0.369 56.27 0.369 56.27 70.6601 0.01655 70.6601"></polygon>
        <polygon id="path-3" points="0 0.4859 42.9868 0.4859 42.9868 43.4729 0 43.4729"></polygon>
    </defs>
    <g id="Page-1" stroke="none" stroke-width="1" fill="none" fill-rule="evenodd">
        <g id="Group-15" transform="translate(0.000000, -1.000000)">
            <path d="M64.4772,37.8759 C64.4352,37.8759 64.3912,37.8729 64.3472,37.8669 C63.8772,37.7939 63.5542,37.3549 63.6262,36.8859 C63.7742,35.9129 63.8502,34.9159 63.8502,33.9229 C63.8502,23.2019 55.1262,14.4789 44.4062,14.4789 C41.6892,14.4789 39.0612,15.0279 36.5962,16.1099 C36.1602,16.3029 35.6542,16.1029 35.4612,15.6679 C35.2712,15.2329 35.4692,14.7259 35.9042,14.5349 C38.5892,13.3559 41.4502,12.7579 44.4062,12.7579 C56.0772,12.7579 65.5712,22.2529 65.5712,33.9229 C65.5712,35.0019 65.4892,36.0859 65.3272,37.1459 C65.2622,37.5709 64.8962,37.8759 64.4772,37.8759" id="Fill-1" fill="#11193A"></path>
            <path d="M44.4059,55.0888 C42.1009,55.0888 39.8379,54.7208 37.6749,53.9958 C37.2239,53.8448 36.9809,53.3568 37.1329,52.9068 C37.2839,52.4568 37.7719,52.2158 38.2219,52.3638 C40.2079,53.0298 42.2879,53.3678 44.4059,53.3678 C50.8759,53.3678 56.9029,50.1628 60.5289,44.7948 C60.7959,44.4008 61.3289,44.2958 61.7239,44.5628 C62.1179,44.8288 62.2209,45.3638 61.9559,45.7578 C58.0099,51.6008 51.4479,55.0888 44.4059,55.0888" id="Fill-3" fill="#11193A"></path>
            <path d="M64.5475,38.5664 C64.5335,38.5664 64.5205,38.5664 64.5075,38.5654 C64.2735,38.5544 64.0545,38.4484 63.9005,38.2734 L58.1935,31.7604 C57.8805,31.4024 57.9165,30.8594 58.2745,30.5464 C58.6305,30.2334 59.1745,30.2674 59.4875,30.6264 L64.6065,36.4664 L70.1805,31.2014 C70.5265,30.8754 71.0705,30.8914 71.3965,31.2364 C71.7235,31.5824 71.7075,32.1264 71.3615,32.4534 L65.1385,38.3314 C64.9785,38.4834 64.7665,38.5664 64.5475,38.5664" id="Fill-5" fill="#11193A"></path>
            <g id="Group-9" transform="translate(21.000000, 0.631400)">
                <mask id="mask-2" fill="white">
                    <use xlink:href="#path-1"></use>
                </mask>
                <g id="Clip-8"></g>
                <path d="M46.1208,70.6601 C45.9428,70.6601 45.7658,70.6051 45.6148,70.4951 L35.9778,63.4891 C27.9788,66.7911 19.1828,66.8221 11.1508,63.5661 C8.2288,62.3821 5.5078,60.7961 3.0608,58.8521 C2.6888,58.5571 2.6278,58.0151 2.9228,57.6431 C3.2178,57.2721 3.7598,57.2091 4.1328,57.5051 C6.4498,59.3461 9.0278,60.8481 11.7988,61.9721 C19.5528,65.1151 28.0588,65.0251 35.7518,61.7171 C36.0298,61.5971 36.3508,61.6331 36.5978,61.8111 L44.8398,67.8041 L42.8688,58.0531 C42.8068,57.7401 42.9218,57.4181 43.1688,57.2161 C47.1708,53.9451 50.3178,49.6691 52.2708,44.8521 C58.7098,28.9721 51.0298,10.8161 35.1508,4.3781 C23.5498,-0.3269 10.3358,2.3551 1.4848,11.2071 C1.1488,11.5431 0.6038,11.5431 0.2678,11.2071 C-0.0672,10.8701 -0.0672,10.3261 0.2678,9.9901 C9.6088,0.6471 23.5568,-2.1799 35.7988,2.7831 C52.5568,9.5781 60.6618,28.7401 53.8658,45.4981 C51.8708,50.4201 48.6918,54.8071 44.6578,58.2161 L46.9648,69.6291 C47.0348,69.9771 46.8848,70.3321 46.5858,70.5231 C46.4438,70.6151 46.2828,70.6601 46.1208,70.6601" id="Fill-7" fill="#11193A" mask="url(#mask-2)"></path>
            </g>
            <g id="Group-12" transform="translate(0.000000, 13.631400)">
                <mask id="mask-4" fill="white">
                    <use xlink:href="#path-3"></use>
                </mask>
                <g id="Clip-11"></g>
                <path d="M21.4938,2.2069 C10.5908,2.2069 1.7218,11.0769 1.7218,21.9799 C1.7218,32.8819 10.5908,41.7519 21.4938,41.7519 C32.3958,41.7519 41.2658,32.8819 41.2658,21.9799 C41.2658,11.0769 32.3958,2.2069 21.4938,2.2069 M21.4938,43.4729 C9.6418,43.4729 -0.0002,33.8309 -0.0002,21.9799 C-0.0002,10.1279 9.6418,0.4859 21.4938,0.4859 C33.3458,0.4859 42.9868,10.1279 42.9868,21.9799 C42.9868,33.8309 33.3458,43.4729 21.4938,43.4729" id="Fill-10" fill="#11193A" mask="url(#mask-4)"></path>
            </g>
            <path d="M1.6989,75.6313 C1.5639,75.6313 1.4269,75.5993 1.2989,75.5313 C0.8779,75.3103 0.7169,74.7893 0.9389,74.3693 L11.4909,54.3943 C11.7119,53.9743 12.2329,53.8133 12.6529,54.0353 C13.0729,54.2573 13.2339,54.7773 13.0119,55.1983 L2.4609,75.1733 C2.3059,75.4643 2.0089,75.6313 1.6989,75.6313" id="Fill-13" fill="#11193A"></path>
        </g>
    </g>
</svg>