<?xml version="1.0" encoding="UTF-8"?>
<svg width="448px" height="500px" viewBox="0 0 448 500" version="1.1" xmlns="http://www.w3.org/2000/svg" xmlns:xlink="http://www.w3.org/1999/xlink">
    <!-- Generator: sketchtool 51.3 (57544) - http://www.bohemiancoding.com/sketch -->
    <title>69ECF445-7EBB-4536-8854-B9D5D53D181E</title>
    <desc>Created with sketchtool.</desc>
    <defs>
        <polygon id="path-1" points="0.576601307 0.534066667 99.8896732 0.534066667 99.8896732 16 0.576601307 16"></polygon>
        <polygon id="path-3" points="0 500 448 500 448 0 0 0"></polygon>
    </defs>
    <g id="Page-1" stroke="none" stroke-width="1" fill="none" fill-rule="evenodd">
        <g id="About-us" transform="translate(-86.000000, -722.000000)">
            <g id="Group-142" transform="translate(86.000000, 722.000000)">
                <path d="M151,482.499677 C151,486.641666 121.673983,490 85.499669,490 C49.3253548,490 20,486.641666 20,482.499677 C20,478.357688 49.3253548,475 85.499669,475 C121.673983,475 151,478.357688 151,482.499677" id="Fill-1" fill="#F3F6FD"></path>
                <g id="Group-5" transform="translate(296.000000, 484.000000)">
                    <mask id="mask-2" fill="white">
                        <use xlink:href="#path-1"></use>
                    </mask>
                    <g id="Clip-4"></g>
                    <path d="M99.8896732,8.2674 C99.8896732,12.5374 77.6576471,16.0000667 50.2328105,16.0000667 C22.8079739,16.0000667 0.576601307,12.5374 0.576601307,8.2674 C0.576601307,3.99673333 22.8079739,0.534066667 50.2328105,0.534066667 C77.6576471,0.534066667 99.8896732,3.99673333 99.8896732,8.2674" id="Fill-3" fill="#F3F6FD" mask="url(#mask-2)"></path>
                </g>
                <path d="M330,442.5 C330,451.060918 280.751095,458 220,458 C159.248248,458 110,451.060918 110,442.5 C110,433.939082 159.248248,427 220,427 C280.751095,427 330,433.939082 330,442.5" id="Fill-6" fill="#F3F6FD"></path>
                <path d="M266.22899,58.5133501 C228.514757,57.403199 218.906253,16.1221696 185.416357,18.0665802 C164.113902,19.3031543 140.830236,38.3087311 132.893523,58.9531965 C123.708575,82.8484425 135.020536,99.2952724 120.089882,117.853101 C118.105374,120.319665 111.137824,128.864405 99.3073045,133.41102 C80.1668281,140.767253 64.664177,129.859327 45.7625277,152.591745 C20.2515687,183.272346 26.2367611,255.646167 38.7916786,298.67868 C53.7916052,350.096588 87.9518006,393.160049 126.789577,401.085185 C131.168294,401.978046 136.024006,401.683059 145.645704,401.602728 C184.542197,401.276794 211.261806,392.820287 223.122014,390.023839 C285.782466,375.24882 315.379875,428.958143 355.145251,409.828119 C391.358568,392.40612 403.600767,330.314037 397.403797,287.899811 C391.770248,249.335557 373.794218,246.893356 373.596955,215.217175 C373.264444,161.618473 424.60172,147.241159 419.665519,106.131328 C415.094817,68.0543288 365.366656,33.1286842 326.175917,35.8889177 C297.421659,37.914318 293.550944,59.3173208 266.22899,58.5133501" id="Fill-8" fill="#F3F6FD"></path>
                <path d="M434.773355,260.857698 C433.471424,267.635788 426.920243,272.075266 420.142029,270.773358 C413.363814,269.471451 408.924254,262.921061 410.226855,256.142971 C411.528117,249.364211 418.078628,244.924733 424.856843,246.22664 C431.635727,247.529218 436.075287,254.079608 434.773355,260.857698" id="Fill-10" fill="#FFFFFF"></path>
                <path d="M420.442638,246.767183 C416.064439,247.915083 412.501188,251.47893 411.591495,256.213332 C410.330282,262.778746 414.646691,269.147122 421.212273,270.408302 C427.779228,271.668795 434.146393,267.353184 435.408292,260.78777 C436.668818,254.22167 432.353783,247.853981 425.786828,246.592114 C423.955083,246.240604 422.137757,246.322989 420.442638,246.767183 M426.903176,271.561008 C425.01582,272.056692 422.993898,272.148003 420.953439,271.755986 C413.644312,270.352692 408.839758,263.263446 410.243775,255.953819 C411.647106,248.644879 418.735161,243.839762 426.046348,245.243743 C433.356162,246.648411 438.160715,253.736971 436.756011,261.046597 C435.744021,266.315817 431.777072,270.283351 426.903176,271.561008" id="Fill-12" fill="#242F4E"></path>
                <path d="M444.95441,265.358296 C440.146094,266.651535 430.361766,265.882363 420.873214,264.0136 C407.968729,261.471134 395.292018,256.831727 396.030794,252.883626 C396.668558,249.479228 406.110235,249.811678 411.681096,250.312723 L411.565559,251.66216 C401.492719,250.755539 397.532774,252.048777 397.327448,253.138889 C397.013188,254.820775 404.695403,259.447318 421.122773,262.683799 C437.549484,265.918925 446.356038,264.540374 446.671619,262.859164 C446.871003,261.792751 443.755467,259.137212 434.352082,256.193233 L434.737645,254.897963 C439.94803,256.529746 448.595474,259.766903 447.967613,263.115104 C447.772851,264.159851 446.685484,264.893137 444.95441,265.358296" id="Fill-14" fill="#242F4E"></path>
                <path d="M29.7847518,186.571079 C28.9065435,186.276399 28.2854713,185.835375 27.8684754,185.43892 C26.9460506,184.562861 26.618168,183.563741 26.618168,182.920499 C26.618168,182.653756 26.6698674,182.206746 27.0181576,182.206746 C27.5331101,182.206746 27.9732346,182.414952 28.3609796,182.844001 C29.0555192,183.609639 29.5058476,184.952664 29.7847518,186.571079 M34.391434,186.527842 C34.6438084,184.728494 35.060124,183.272386 35.7172497,182.569277 C36.0199628,182.243997 36.27982,182.206746 36.4485231,182.206746 C37.1478245,182.206746 37.2532639,182.826041 37.2532639,183.195889 C37.2532639,183.813853 36.9328641,184.761754 36.0349284,185.565972 C35.6662306,185.896573 35.1315507,186.261099 34.391434,186.527842 M39.3089924,192.15072 C38.9824704,192.720791 38.7171712,193.185761 38.5505089,193.51104 C37.77774,195.021694 37.3158473,197.606635 37.141022,198.738128 L34.305722,198.738128 C34.0975642,196.125249 33.9030114,191.581315 34.236336,187.89947 C35.4784804,187.57153 36.3430836,187.002124 36.9063342,186.497243 C37.9314775,185.578611 38.5437063,184.344012 38.5437063,183.195889 C38.5437063,181.848872 37.7015515,180.944875 36.4485231,180.944875 C35.809084,180.944875 35.2424322,181.204965 34.7635331,181.717829 C33.8547134,182.691007 33.3329583,184.61142 33.0499725,186.846469 C32.4608723,186.922301 31.737762,186.931614 31.1309751,186.863764 C30.8228199,184.824947 30.2690929,183.045555 29.3276209,182.007188 C28.6888621,181.302084 27.9120117,180.944875 27.0181576,180.944875 C26.0066194,180.944875 25.3270453,181.73845 25.3270453,182.920499 C25.3270453,184.070618 25.9562806,185.382379 26.9691792,186.344248 C27.5875304,186.931614 28.5568928,187.598137 29.9745428,187.942042 C30.3779336,191.629874 30.1024306,196.175804 29.8276079,198.738128 L26.858978,198.738128 C26.6841527,197.606635 26.2229403,195.021694 25.4501714,193.51104 C25.2835091,193.185761 25.0175296,192.720791 24.6916878,192.15072 C23.1536328,189.466 20.2911227,184.467738 20.2911227,180.782568 C20.2911227,175.929318 23.3577091,170.261872 32.0003401,170.261872 C40.6429711,170.261872 43.7095576,175.929318 43.7095576,180.782568 C43.7095576,184.467738 40.8470474,189.466 39.3089924,192.15072 M31.2921954,188.146922 C31.8159912,188.187499 32.4030507,188.180847 32.9146019,188.132288 C32.5690327,192.176662 32.8581408,196.803747 33.011198,198.738128 L31.1241726,198.738128 C31.3146438,196.878913 31.7010282,192.220565 31.2921954,188.146922 M32.0003401,169 C27.5902514,169 24.0515685,170.402893 21.7652338,173.058344 C20.0081369,175.098492 19,177.913589 19,180.782568 C19,184.797009 21.9699903,189.981525 23.5651867,192.767354 C23.8794642,193.316138 24.1352398,193.763148 24.2957798,194.075124 C25.1848722,195.814604 25.6535674,199.411304 25.6583292,199.447224 C25.6977839,199.763191 25.9726067,200 26.2977682,200 L37.702912,200 C38.0280736,200 38.3022161,199.763191 38.3423511,199.447224 C38.3471128,199.411304 38.8137673,195.8166 39.7049004,194.075124 C39.8647602,193.763148 40.1212161,193.316138 40.4348133,192.767354 C42.0306899,189.981525 45,184.797009 45,180.782568 C45,177.913589 43.9925434,175.098492 42.2354465,173.058344 C39.9484315,170.402893 36.4097486,169 32.0003401,169" id="Fill-16" fill="#242F4E"></path>
                <path d="M37.1010898,201 L25.8989102,201 C25.4040908,201 25,201.225068 25,201.500194 C25,201.774932 25.4040908,202 25.8989102,202 L37.1010898,202 C37.5959092,202 38,201.774932 38,201.500194 C38,201.225068 37.5959092,201 37.1010898,201" id="Fill-18" fill="#242F4E"></path>
                <path d="M37.1010898,205 L25.8989102,205 C25.4040908,205 25,205.224767 25,205.5 C25,205.775233 25.4040908,206 25.8989102,206 L37.1010898,206 C37.5959092,206 38,205.775233 38,205.5 C38,205.224767 37.5959092,205 37.1010898,205" id="Fill-20" fill="#242F4E"></path>
                <path d="M31.7366637,211 C35.0526673,211 36,208 36,208 L27,208 C27,208 28.42066,211 31.7366637,211" id="Fill-22" fill="#242F4E"></path>
                <path d="M30.5,163 C30.7758439,163 31,162.716083 31,162.366698 L31,151.633302 C31,151.283917 30.7758439,151 30.5,151 C30.2241561,151 30,151.283917 30,151.633302 L30,162.366698 C30,162.716083 30.2241561,163 30.5,163" id="Fill-24" fill="#242F4E"></path>
                <path d="M18.8547786,166.903165 L12.0967277,158.238305 C11.8761929,157.956 11.4835493,157.919392 11.2217869,158.155937 C10.9593701,158.393186 10.9246865,158.814883 11.1452214,159.097188 L17.9032723,167.761343 C18.0256462,167.918336 18.2023358,168 18.3790255,168 C18.5203772,168 18.6617289,167.948608 18.7782131,167.843712 C19.0406299,167.606463 19.0753135,167.184765 18.8547786,166.903165" id="Fill-26" fill="#242F4E"></path>
                <path d="M11.4688653,178.393019 L0.754130261,176.011991 C0.400629334,175.936037 0.0715077804,176.228758 0.00988213978,176.668267 C-0.0517435008,177.108629 0.181214965,177.528509 0.531329868,177.607024 L11.2453877,179.988052 C11.2839883,179.995733 11.3205574,180 11.3578037,180 C11.6639003,180 11.9347822,179.724347 11.990313,179.331776 C12.0512614,178.89056 11.818303,178.47068 11.4688653,178.393019" id="Fill-28" fill="#242F4E"></path>
                <path d="M61.2460453,177.012453 L50.5313289,179.392352 C50.1812146,179.470857 49.9482566,179.890689 50.0098821,180.331 C50.0647356,180.723526 50.3362943,181 50.6423903,181 C50.6789593,181 50.7162055,180.995733 50.7548062,180.9872 L61.4688453,178.606448 C61.8189596,178.527943 62.0512405,178.108965 61.9902921,177.668653 C61.9286666,177.228342 61.5961596,176.934801 61.2460453,177.012453" id="Fill-30" fill="#242F4E"></path>
                <path d="M51.7779924,158.156461 C51.5162226,157.919208 51.1235679,157.955817 50.9036813,158.238831 L44.14544,166.903849 C43.9248989,167.185455 43.958929,167.60716 44.2220076,167.844413 C44.3378407,167.949311 44.4798508,168 44.6198977,168 C44.7972467,168 44.9739413,167.919038 45.0963187,167.762043 L51.85456,159.097025 C52.0751011,158.814715 52.041071,158.393714 51.7779924,158.156461" id="Fill-32" fill="#242F4E"></path>
                <path d="M251.756744,52.5876415 C251.756744,52.5876415 246.642071,71.9885878 263.006642,81.1229166 C264.277368,81.831764 273.03148,75.2894293 273.03148,75.2894293 C273.03148,75.2894293 273.984524,79.5398463 275.166564,82.7166563 C275.609333,83.9049592 272.722402,83.905626 273.211499,84.9945703 C278.564433,96.9156096 301.550678,84.3157306 293.18705,80.3513866 C286.010756,76.9505195 283.447463,67.7368371 283.447463,67.7368371 C283.447463,67.7368371 264.91604,41.9082521 251.756744,52.5876415" id="Fill-34" fill="#C0C6CE"></path>
                <path d="M251.836018,56.4602863 C251.836018,56.4602863 253.016158,53.9293552 256.083348,52.4172674 C262.11851,49.4419542 271.93234,55.3173064 271.93234,55.3173064 C274.17317,59.2586391 277.974683,64.0590224 283.748753,67 C287.870757,63.7632078 288.873354,60.966836 288.988888,58.9634848 C289.117476,56.7362918 288.096603,56.2318224 287.655356,52.218517 C287.162543,47.733097 288.261091,46.785566 287.155363,44.9677592 C285.761779,42.6765171 283.821859,43.8577944 281.321242,41.0891552 C279.40025,38.9623278 279.569961,37.1887612 277.487092,36.198971 C276.806292,35.8754238 275.968837,35.8107144 274.320035,35.6931809 C270.843583,35.4462286 270.702593,35.9170227 268.652361,35.6931809 C265.426558,35.3405806 264.879568,34.0761055 261.484055,34.0067739 C260.752342,33.991587 259.884208,33.9797016 258.786965,34.2325966 C256.228254,34.8215845 255.572258,36.4901634 253.50375,37.2699781 C248.907861,39.0019458 246.67617,37.4931596 245.319792,39.3162488 C243.885739,41.2423448 246.153331,43.2291885 244.7245,46.7849057 C243.674907,49.3957332 241.884462,49.7371084 242.00587,51.5106751 C242.156651,53.693628 245.005828,55.1172354 245.898113,55.5635985 C248.389592,56.8089249 250.768148,56.6167775 251.836018,56.4602863" id="Fill-36" fill="#242F4E"></path>
                <path d="M270.124753,55.0436183 C269.95726,54.7493086 269.957897,54.3927411 270.129847,54.100318 C270.724668,53.0897289 272.307246,51.001262 274.555972,52.5583364 C277.025686,54.2688543 275.948769,58.1118598 274.146476,59.7569756 C273.693674,60.1701411 272.961931,60.0368214 272.659426,59.5060577 L270.124753,55.0436183 Z" id="Fill-38" fill="#C0C6CE"></path>
                <path d="M250,103.34347 C250,103.34347 257.405919,78.7220633 274.184758,83.7715244 C274.184758,83.7715244 275.756909,87.4989621 284.342106,87.4989621 C292.926644,87.4989621 293.367637,80.0311323 293.367637,80.0311323 C293.367637,80.0311323 308.161677,79.1843283 311.865625,86.3235272 C315.569573,93.4620443 317,107 317,107 L250,103.34347 Z" id="Fill-40" fill="#A2ACB8"></path>
                <path d="M152.977937,441 C152.697674,441 152.413454,440.940734 152.141764,440.8143 C151.151942,440.353341 150.723964,439.177239 151.186233,438.188154 L201.228647,331.140439 C201.690916,330.152013 202.867361,329.72398 203.857843,330.186255 C204.848325,330.647214 205.276302,331.822658 204.813374,332.811743 L154.771619,439.860116 C154.435963,440.577894 153.722447,441 152.977937,441" id="Fill-42" fill="#19E69B"></path>
                <path d="M288.022619,441 C287.277451,441 286.564596,440.577894 286.228281,439.860116 L236.186626,332.811743 C235.723698,331.822658 236.151675,330.647214 237.142155,330.186255 C238.133294,329.72398 239.309077,330.152013 239.771345,331.140439 L289.81366,438.188154 C290.275928,439.177239 289.84861,440.353341 288.858131,440.8143 C288.5871,440.940734 288.302881,441 288.022619,441" id="Fill-44" fill="#19E69B"></path>
                <path d="M113.981818,361 C112.887855,361 112,360.115606 112,359.025907 L112,108.974093 C112,107.883736 112.887855,107 113.981818,107 L328.018182,107 C329.112806,107 330,107.883736 330,108.974093 L330,359.025907 C330,360.115606 329.112806,361 328.018182,361 L113.981818,361 Z" id="Fill-46" fill="#FFFFFF"></path>
                <path d="M328.035714,105 L113.964286,105 C111.775339,105 110,106.767827 110,108.94898 L110,359.05102 C110,361.231515 111.775339,363 113.964286,363 L328.035714,363 C330.224661,363 332,361.231515 332,359.05102 L332,108.94898 C332,106.767827 330.224661,105 328.035714,105 Z M113.964286,359.05102 L328.035714,359.05102 L328.035714,108.94898 L113.964286,108.94898 L113.964286,359.05102 Z" id="Fill-48" fill="#19E69B"></path>
                <path d="M323.393939,117 L118.606061,117 C114.972727,117 112,113.896266 112,110.102814 L112,108.897186 C112,105.103734 114.972727,102 118.606061,102 L323.393939,102 C327.027273,102 330,105.103734 330,108.897186 L330,110.102814 C330,113.896266 327.027273,117 323.393939,117" id="Fill-50" fill="#FFFFFF"></path>
                <path d="M118.589286,104.108552 C116.039589,104.108552 113.964286,106.258695 113.964286,108.901863 L113.964286,110.098137 C113.964286,112.741305 116.039589,114.891448 118.589286,114.891448 L323.410714,114.891448 C325.961071,114.891448 328.035714,112.741305 328.035714,110.098137 L328.035714,108.901863 C328.035714,106.258695 325.961071,104.108552 323.410714,104.108552 L118.589286,104.108552 Z M323.410714,119 L118.589286,119 C113.853286,119 110,115.007172 110,110.098137 L110,108.901863 C110,103.993513 113.853286,100 118.589286,100 L323.410714,100 C328.146714,100 332,103.993513 332,108.901863 L332,110.098137 C332,115.007172 328.146714,119 323.410714,119 Z" id="Fill-52" fill="#19E69B"></path>
                <path d="M243.658561,173 C243.55506,173 243.449581,172.975343 243.351354,172.922698 C243.029644,172.750767 242.906366,172.347597 243.07645,172.021728 L262.253123,135.35519 C262.367172,135.136612 262.591973,135 262.835893,135 L309.340759,135 C309.705319,135 310,135.298546 310,135.666398 C310,136.034249 309.705319,136.332796 309.340759,136.332796 L263.232756,136.332796 L244.242648,172.64481 C244.123985,172.871385 243.895228,173 243.658561,173" id="Fill-54" fill="#242F4E"></path>
                <path d="M310.331724,127 L262.668276,127 C262.298719,127 262,126.776 262,126.5 C262,126.2235 262.298719,126 262.668276,126 L310.331724,126 C310.700612,126 311,126.2235 311,126.5 C311,126.776 310.700612,127 310.331724,127" id="Fill-56" fill="#242F4E"></path>
                <path d="M289.351867,132 L262.648133,132 C262.290364,132 262,131.7765 262,131.5 C262,131.224 262.290364,131 262.648133,131 L289.351867,131 C289.709636,131 290,131.224 290,131.5 C290,131.7765 289.709636,132 289.351867,132" id="Fill-58" fill="#242F4E"></path>
                <path d="M153.754122,335 L134.657003,335 C134.293681,335 134,334.703993 134,334.339271 C134,333.973887 134.293681,333.678541 134.657003,333.678541 L153.382915,333.678541 L175.780161,296.320236 C175.968064,296.007051 176.372121,295.90662 176.68157,296.094928 C176.992989,296.283235 177.092854,296.690245 176.905608,297.002109 L154.316517,334.680207 C154.197599,334.878426 153.98473,335 153.754122,335" id="Fill-60" fill="#242F4E"></path>
                <path d="M151.301134,325 L134.698866,325 C134.312393,325 134,324.776 134,324.5 C134,324.2235 134.312393,324 134.698866,324 L151.301134,324 C151.686908,324 152,324.2235 152,324.5 C152,324.776 151.686908,325 151.301134,325" id="Fill-62" fill="#242F4E"></path>
                <path d="M150.309729,330 L134.690271,330 C134.308551,330 134,329.7765 134,329.5 C134,329.224 134.308551,329 134.690271,329 L150.309729,329 C150.691449,329 151,329.224 151,329.5 C151,329.7765 150.691449,330 150.309729,330" id="Fill-64" fill="#242F4E"></path>
                <path d="M304.315031,341 L280.684969,341 C280.306181,341 280,340.776 280,340.5 C280,340.2235 280.306181,340 280.684969,340 L304.315031,340 C304.693819,340 305,340.2235 305,340.5 C305,340.776 304.693819,341 304.315031,341" id="Fill-66" fill="#242F4E"></path>
                <path d="M314.353026,346 L280.646974,346 C280.289844,346 280,345.776 280,345.5 C280,345.2235 280.289844,345 280.646974,345 L314.353026,345 C314.710803,345 315,345.2235 315,345.5 C315,345.776 314.710803,346 314.353026,346" id="Fill-68" fill="#242F4E"></path>
                <mask id="mask-4" fill="white">
                    <use xlink:href="#path-3"></use>
                </mask>
                <g id="Clip-71"></g>
                <path d="M275.315482,349.651439 L317.684518,349.651439 L317.684518,336.348561 L275.315482,336.348561 L275.315482,349.651439 Z M318.342259,351 L274.657741,351 C274.294668,351 274,350.698597 274,350.32572 L274,335.67428 C274,335.302078 274.294668,335 274.657741,335 L318.342259,335 C318.705332,335 319,335.302078 319,335.67428 L319,350.32572 C319,350.698597 318.705332,351 318.342259,351 Z" id="Fill-70" fill="#242F4E" mask="url(#mask-4)"></path>
                <path d="M177.453439,313 C177.015571,313 176.573051,312.916142 176.147807,312.743805 C174.824898,312.207644 173.981054,310.941856 174.000323,309.519578 C174.494005,271.363691 192.900437,243.279305 193.086482,243 L194.748921,244.092791 C194.566863,244.367474 176.479364,271.993614 175.993656,309.545329 C175.981031,310.465122 176.685342,310.822343 176.901286,310.910162 C177.113908,310.996 177.860744,311.227104 178.491301,310.57077 C186.244036,302.496005 193.553586,296.042268 200.837223,290.842434 L202,292.451577 C194.818688,297.579438 187.600166,303.953279 179.933145,311.938904 C179.268036,312.630894 178.371701,313 177.453439,313" id="Fill-72" fill="#19E69B" mask="url(#mask-4)"></path>
                <path d="M263.613263,313 C262.712905,313 261.834698,312.630894 261.181905,311.938904 C256.453397,306.915369 248.143,299.175375 239,292.518267 L240.140106,290.909785 C249.391905,297.646128 257.80654,305.483186 262.595637,310.57077 C263.2139,311.227104 263.946174,310.996 264.155302,310.910162 C264.367036,310.822343 265.057615,310.465122 265.045236,309.545329 C264.568346,271.964561 246.834158,244.367474 246.65565,244.093451 L248.285676,243 C248.467442,243.279305 266.514996,271.363691 266.999704,309.519578 C267.017946,310.941856 266.191206,312.207644 264.893439,312.743805 C264.476486,312.916142 264.042595,313 263.613263,313" id="Fill-73" fill="#19E69B" mask="url(#mask-4)"></path>
                <path d="M214.987736,292 L199.970702,291.914404 L199.774472,291.171904 C198.942539,288.028058 198.009085,283.717048 197,278.358974 L199.010675,278 C199.933227,282.899569 200.79037,286.908005 201.561663,289.933077 L215,290.009384 L214.987736,292 Z" id="Fill-74" fill="#19E69B" mask="url(#mask-4)"></path>
                <path d="M239.926764,292 L225,291.911807 L225.011301,289.907416 L238.399121,289.986256 C239.190198,286.948936 240.078332,282.922115 241.043579,278 L243,278.387516 C241.945009,283.769304 240.978432,288.098788 240.127525,291.255035 L239.926764,292 Z" id="Fill-75" fill="#19E69B" mask="url(#mask-4)"></path>
                <path d="M207.2961,155.829739 L234.724017,155.993982 C230.98013,149.111665 226.615182,142.829365 221.733008,137.299404 C221.554542,137.096749 221.306637,136.996746 221.042507,136.986812 C220.775782,136.987474 220.530473,137.100723 220.352007,137.30404 C218.446642,139.488209 212.828539,145.926805 207.2961,155.829739 Z M238,158 L204,157.797345 L204.787845,156.335051 C210.675918,145.406922 216.864461,138.314003 218.898322,135.98281 C219.440858,135.360938 220.220267,135.002649 221.036667,135 L221.045752,135 C221.857609,135 222.635071,135.35299 223.179554,135.969564 C228.512111,142.010136 233.239182,148.926891 237.227081,156.528434 L238,158 Z" id="Fill-76" fill="#19E69B" mask="url(#mask-4)"></path>
                <path d="M243.380815,278 L241.451425,277.633489 C245.329845,257.072075 248.943114,224.22925 249.034116,208.728713 C249.135594,191.239294 244.822456,173.889781 236.21451,157.15309 L206.400955,156.977716 C197.58809,173.65989 193.068068,190.957514 192.965935,208.399641 C192.869695,224.985261 196.587714,258.070457 199.985587,277.390462 L198.051615,277.733327 C194.639338,258.330562 190.904951,225.079188 191.001846,208.388475 C191.106598,190.438618 195.798805,172.652969 204.94753,155.523494 L205.22774,155 L237.409986,155.189167 L237.682994,155.715288 C246.62287,172.902565 251.102956,190.742731 250.998205,208.740536 C250.907202,224.334343 247.276257,257.345973 243.380815,278" id="Fill-77" fill="#19E69B" mask="url(#mask-4)"></path>
                <path d="M243.228843,280 L227.148682,279.904505 L227.160466,277.91502 L241.602561,278.000568 C245.422753,257.197187 248.944401,224.692983 249.034095,209.246622 C249.135574,191.588617 244.823045,174.071866 236.214355,157.173181 L206.400487,156.99678 C197.587529,173.839096 193.068114,191.304121 192.96598,208.914378 C192.870394,225.427766 196.485664,258.143519 199.844291,277.753208 L214.05593,277.83743 L214.0448,279.826915 L198.193784,279.733409 L198.051059,278.915731 C194.638747,259.325936 190.90432,225.754041 191.001871,208.902441 C191.106624,190.780223 195.79888,172.823132 204.947046,155.52854 L205.227259,155 L237.409843,155.190991 L237.682854,155.722183 C246.623479,173.075134 251.102957,191.087267 250.998205,209.257896 C250.907856,225.002016 247.276872,258.331857 243.380735,279.184974 L243.228843,280 Z" id="Fill-78" fill="#19E69B" mask="url(#mask-4)"></path>
                <path d="M220.616006,244.973425 C220.306455,244.973425 220.015151,245.095777 219.794229,245.318116 C219.569397,245.545718 219.443621,245.849625 219.441666,246.173924 L219.424722,246.352848 C219.380407,246.587686 215.00107,269.967504 214.955452,277.750691 C214.910485,285.537166 219.016766,309.397185 219.057822,309.636627 L219.073463,309.724115 L219.072811,309.811604 C219.070856,310.136561 219.19207,310.441784 219.414947,310.671359 C219.635217,310.898961 219.927825,311.024602 220.239983,311.026575 C220.547579,311.03118 220.846052,310.905539 221.068277,310.681226 C221.293761,310.454282 221.418885,310.150375 221.42084,309.826076 L221.439087,309.64452 C221.484054,309.405736 225.998942,285.68912 226.04456,277.909222 C226.089527,270.130641 221.848998,246.60742 221.805987,246.371267 L221.789695,246.279832 L221.790346,246.188396 C221.794257,245.522037 221.2703,244.977371 220.623175,244.973425 L220.616006,244.973425 Z M220.247803,313 L220.228252,313 C219.390834,312.994738 218.605551,312.658598 218.018381,312.052098 C217.454672,311.470596 217.1373,310.708854 217.119053,309.896461 C216.812108,308.115116 212.955424,285.550322 213.00039,277.739508 C213.046008,269.930667 217.158154,247.830285 217.48856,246.064728 C217.517234,245.254309 217.843077,244.495856 218.412652,243.921589 C219.003081,243.326931 219.785105,243 220.615355,243 L220.634253,243 C222.326685,243.009867 223.701093,244.391264 223.744105,246.098934 C224.06669,247.887515 228.044588,270.114853 227.999622,277.921063 C227.954004,285.728588 223.71543,308.143402 223.373295,309.936587 C223.34462,310.747007 223.019428,311.504144 222.449854,312.077753 C221.859425,312.673069 221.078052,313 220.247803,313 Z" id="Fill-79" fill="#19E69B" mask="url(#mask-4)"></path>
                <path d="M221.500327,182.959875 C214.034013,182.959875 207.959834,189.034182 207.959834,196.5 C207.959834,203.965818 214.034013,210.040125 221.500327,210.040125 C228.965987,210.040125 235.040166,203.965818 235.040166,196.5 C235.040166,189.034182 228.965987,182.959875 221.500327,182.959875 M221.500327,212 C212.953491,212 206,205.047016 206,196.5 C206,187.953637 212.953491,181 221.500327,181 C230.046509,181 237,187.953637 237,196.5 C237,205.047016 230.046509,212 221.500327,212" id="Fill-80" fill="#19E69B" mask="url(#mask-4)"></path>
                <path d="M133,136 L221,136" id="Stroke-81" stroke="#50E29D" mask="url(#mask-4)"></path>
                <path d="M134,292 L134,137" id="Stroke-82" stroke="#50E29D" mask="url(#mask-4)"></path>
                <path d="M202,292 L134,292" id="Stroke-83" stroke="#50E29D" mask="url(#mask-4)"></path>
                <path d="M220,182 L308,182" id="Stroke-84" stroke="#50E29D" mask="url(#mask-4)"></path>
                <path d="M224,210 L308,210" id="Stroke-85" stroke="#50E29D" mask="url(#mask-4)"></path>
                <path d="M308,182 L308,210" id="Stroke-86" stroke="#50E29D" mask="url(#mask-4)"></path>
                <path d="M220,244 L307,244" id="Stroke-87" stroke="#50E29D" mask="url(#mask-4)"></path>
                <path d="M220,312 L308,312" id="Stroke-88" stroke="#50E29D" stroke-width="2" mask="url(#mask-4)"></path>
                <path d="M308,244 L308,312" id="Stroke-89" stroke="#50E29D" mask="url(#mask-4)"></path>
                <path d="M175,334 L175,309" id="Stroke-90" stroke="#50E29D" mask="url(#mask-4)"></path>
                <path d="M266,334 L266,309" id="Stroke-91" stroke="#50E29D" mask="url(#mask-4)"></path>
                <path d="M175,335 L266,335" id="Stroke-92" stroke="#50E29D" mask="url(#mask-4)"></path>
                <path d="M218,312 L307,312" id="Stroke-93" stroke="#50E29D" mask="url(#mask-4)"></path>
                <path d="M137,135.999667 C137,137.104378 136.104378,138 135.000333,138 C133.895622,138 133,137.104378 133,135.999667 C133,134.895622 133.895622,134 135.000333,134 C136.104378,134 137,134.895622 137,135.999667" id="Fill-94" fill="#19E69B" mask="url(#mask-4)"></path>
                <path d="M137,290.999667 C137,292.104378 136.104378,293 135.000333,293 C133.895622,293 133,292.104378 133,290.999667 C133,289.895622 133.895622,289 135.000333,289 C136.104378,289 137,289.895622 137,290.999667" id="Fill-95" fill="#19E69B" mask="url(#mask-4)"></path>
                <path d="M177,334.999667 C177,336.104378 176.104229,337 175,337 C173.895105,337 173,336.104378 173,334.999667 C173,333.895622 173.895105,333 175,333 C176.104229,333 177,333.895622 177,334.999667" id="Fill-96" fill="#19E69B" mask="url(#mask-4)"></path>
                <path d="M268,334.999667 C268,336.104378 267.104378,337 265.999667,337 C264.895622,337 264,336.104378 264,334.999667 C264,333.895622 264.895622,333 265.999667,333 C267.104378,333 268,333.895622 268,334.999667" id="Fill-97" fill="#19E69B" mask="url(#mask-4)"></path>
                <path d="M310,310.999667 C310,312.104378 309.104378,313 307.999667,313 C306.895622,313 306,312.104378 306,310.999667 C306,309.895622 306.895622,309 307.999667,309 C309.104378,309 310,309.895622 310,310.999667" id="Fill-98" fill="#19E69B" mask="url(#mask-4)"></path>
                <path d="M310,244 C310,245.104229 309.104378,246 307.999667,246 C306.895622,246 306,245.104229 306,244 C306,242.895105 306.895622,242 307.999667,242 C309.104378,242 310,242.895105 310,244" id="Fill-99" fill="#19E69B" mask="url(#mask-4)"></path>
                <path d="M310,209.999667 C310,211.104378 309.104378,212 307.999667,212 C306.895622,212 306,211.104378 306,209.999667 C306,208.895622 306.895622,208 307.999667,208 C309.104378,208 310,208.895622 310,209.999667" id="Fill-100" fill="#19E69B" mask="url(#mask-4)"></path>
                <path d="M310,183.000333 C310,184.104378 309.104378,185 307.999667,185 C306.895622,185 306,184.104378 306,183.000333 C306,181.895622 306.895622,181 307.999667,181 C309.104378,181 310,181.895622 310,183.000333" id="Fill-101" fill="#19E69B" mask="url(#mask-4)"></path>
                <path d="M85,257.063742 L136.228482,218.14839 C136.228482,218.14839 143.722267,207.549366 147.449088,209.521277 C147.449088,209.521277 152.994238,204.693815 153.885306,205.01538 C154.775715,205.336945 150.189416,209.795006 150.189416,209.795006 C150.189416,209.795006 155.140961,213.753446 152.91066,216.323309 C150.681017,218.893836 143.4893,224.04685 142.144143,223.65353 C140.799645,223.260211 91.3138118,271 91.3138118,271 L85,257.063742 Z" id="Fill-102" fill="#C0C6CE" mask="url(#mask-4)"></path>
                <path d="M72.0683812,219 C72.0683812,219 86.8436258,229.754135 80.3510269,245.560923 C79.8466565,246.788261 69.8281469,247.183663 69.8281469,247.183663 C69.8281469,247.183663 68.4963146,253.807971 69.4682646,256.723729 C69.8321605,257.815728 73.2316441,260.811096 72.9279515,261.851348 C71.7907768,265.742342 50.7182598,267.110989 54.4401658,259.528694 C57.6336201,253.023139 58.0409962,247.818562 58.0409962,247.818562 C58.0409962,247.818562 56.5252092,219 72.0683812,219" id="Fill-103" fill="#C0C6CE" mask="url(#mask-4)"></path>
                <path d="M41,471.196927 L41,480.000857 C41,481.105 41.7374012,482 42.6463988,482 L72,482 L72,480.891873 C72,480.010816 71.4209446,479.237319 70.5748878,478.998962 C67.0336397,477.997731 57.78863,475.09894 53.2131652,470.957242 C45.7106219,464.166397 41,471.196927 41,471.196927" id="Fill-104" fill="#242F4E" mask="url(#mask-4)"></path>
                <path d="M98,471.196927 L98,480.000857 C98,481.105 98.7374012,482 99.6463988,482 L129,482 L129,480.891873 C129,480.010816 128.420945,479.237319 127.57555,478.998962 C124.03364,477.997731 114.78863,475.09894 110.213165,470.957242 C102.710622,464.166397 98,471.196927 98,471.196927" id="Fill-105" fill="#242F4E" mask="url(#mask-4)"></path>
                <path d="M71.8289697,203.124463 C73.3352144,205.283027 80.8644835,215.374911 74.4512166,221.597709 C74.4512166,221.597709 72.5312758,219.045532 69.509014,219.749123 C63.563517,221.133074 59.5900799,232.450933 59.5900799,232.450933 C60.2246311,236.560302 60.2246311,241.553144 57.7971796,247 C57.7971796,247 46,245.320674 46,230.857233 C46,216.393791 62.2403409,211.649862 65.1928933,210.60775 C67.7037354,209.722288 70.5416256,204.657096 71.3364433,203.157651 C71.4393787,202.963168 71.7038836,202.944582 71.8289697,203.124463" id="Fill-106" fill="#242F4E" mask="url(#mask-4)"></path>
                <polygon id="Fill-107" fill="#242F4E" mask="url(#mask-4)" points="41 325.89257 41 471 53.3247274 471 67 358.085566 49.2844579 318"></polygon>
                <path d="M42.0037439,326.539858 C63.7597922,358.803863 97.761854,468.146214 97.8084044,472 L110,471.233723 C110,471.233723 96.7751183,354.716835 86.2272081,321 C86.2272081,321 41.5297173,325.837492 42.0037439,326.539858" id="Fill-108" fill="#363D5A" mask="url(#mask-4)"></path>
                <path d="M73,261.709388 C73,261.709388 81.1315852,256.957436 85.8488668,255 L93,269.944583 L78.3603008,282 L73,261.709388 Z" id="Fill-109" fill="#19E69B" mask="url(#mask-4)"></path>
                <path d="M55.8755675,255 C55.8755675,255 44.4723926,265.511334 41.0892238,289.08433 C36.9196751,318.132256 40.0198006,324.392157 41.5711985,325.931628 C43.1225964,327.4711 87.6044577,327.007404 88.3748161,326.613924 C91.5750749,324.977739 81.997663,261.854757 70.8441537,257.197921 C69.9149171,256.809741 64.8728741,262.852366 55.8755675,255" id="Fill-110" fill="#19E69B" mask="url(#mask-4)"></path>
                <path d="M62.1317037,230.078097 C62.0753708,229.758111 61.8500395,229.491234 61.5322111,229.375057 C60.4333733,228.97275 57.8893552,228.351366 57.1326871,230.855491 C56.3002132,233.604584 59.5612578,235.83984 61.9946967,235.997842 C62.6060121,236.038338 63.0879707,235.502593 62.9864325,234.925689 L62.1317037,230.078097 Z" id="Fill-111" fill="#C0C6CE" mask="url(#mask-4)"></path>
                <path d="M70.0561279,290 C70.0561279,290 75.6772825,335.930564 82.828927,353.772888 C84.1374174,357.037312 89.1683149,365.408929 85.9330005,368.063696 C85.9330005,368.063696 79.8404237,371.862884 78.3869807,368.817884 C76.9328849,365.772226 76.9054614,357.351995 75.9998346,356.292322 C66.4003206,345.069508 55,290.383007 55,290.383007 L70.0561279,290 Z" id="Fill-112" fill="#C0C6CE" mask="url(#mask-4)"></path>
                <path d="M55.3377317,293.848863 C55.3377317,293.848863 50.3396485,267.652043 59.6654212,267.012372 C68.9911938,266.373391 72,290.698171 72,290.698171 C72,290.698171 61.3540166,294.831857 55.3377317,293.848863" id="Fill-113" fill="#19E69B" mask="url(#mask-4)"></path>
                <path d="M387.579068,288.192747 C387.579068,288.192747 402.968852,313.021254 400.788402,317.137958 C398.608611,321.255313 357,324 357,324 L357.884448,317.215447 C357.884448,317.215447 387.970177,313.525911 388.679845,312.372687 C389.389514,311.218812 374.304439,288 374.304439,288 L387.579068,288.192747 Z" id="Fill-114" fill="#C0C6CE" mask="url(#mask-4)"></path>
                <polygon id="Fill-115" fill="#A2ACB8" mask="url(#mask-4)" points="399 308.083172 386.655236 312 378 291.869108 390.102683 289"></polygon>
                <polygon id="Fill-116" fill="#242F4E" mask="url(#mask-4)" points="284.708233 245 286 243.29667 277.291767 237 276 238.70333"></polygon>
                <path d="M401.373692,339.121869 L410.57128,326.789266 C411.288874,325.827519 411.0846,324.469297 410.115947,323.756819 L309.796476,250 L298,265.817791 L398.318153,339.573956 C399.288124,340.286433 400.65544,340.084925 401.373692,339.121869" id="Fill-117" fill="#19E69B" mask="url(#mask-4)"></path>
                <polygon id="Fill-118" fill="#19E69B" mask="url(#mask-4)" points="309 250.452739 284.202361 240 281 244.620339 297.531973 267"></polygon>
                <polygon id="Fill-119" fill="#19E69B" mask="url(#mask-4)" points="338.254779 296 350 280.024515 309.744564 250 298 265.976147"></polygon>
                <path d="M402.142568,340.080329 L411.560028,327.190371 C412.2962,326.181758 412.087314,324.759971 411.092231,324.013104 L399.08431,315 L387,331.540698 L399.007921,340.553802 C400.003004,341.299983 401.40572,341.088942 402.142568,340.080329" id="Fill-120" fill="#242F4E" mask="url(#mask-4)"></path>
                <path d="M376.815959,269 C381.234753,269 387.123209,275.775808 385.814372,286.799893 C384.505536,297.824635 380.08805,323 380.08805,323 L349.493836,323 C349.493836,323 344.749468,279.066727 348.348441,275.611426 C351.948068,272.155468 356.365554,269 356.365554,269 L376.815959,269" id="Fill-121" fill="#A2ACB8" mask="url(#mask-4)"></path>
                <path d="M347,295.720118 C347,295.720118 326.491045,315.872626 322.26228,313.85849 C318.034827,311.84501 304,278.076261 304,278.076261 L309.271349,277 C309.271349,277 324.311337,301.441155 325.500328,302.103571 C326.688663,302.766642 346.70784,282.521657 346.70784,282.521657 L347,295.720118 Z" id="Fill-122" fill="#C0C6CE" mask="url(#mask-4)"></path>
                <path d="M362.251684,268.790666 C351.20847,263.489186 340.068926,286.072586 326,300.021602 L331.005838,311 L363.908032,280.458789 C363.908032,280.458789 364.587697,269.912374 362.251684,268.790666" id="Fill-123" fill="#A2ACB8" mask="url(#mask-4)"></path>
                <path d="M343.997307,238.313107 C343.997307,238.313107 340.622114,248.120505 346.290066,258.556938 C346.635112,259.19194 351.028791,258.466792 352.510225,260.12522 C353.992325,261.784311 356.16585,269 356.16585,269 L364,252.246691 L352.510225,234 L343.997307,238.313107 Z" id="Fill-124" fill="#C0C6CE" mask="url(#mask-4)"></path>
                <path d="M349.412059,227.519832 C353.474818,225.940945 357.142523,224.72998 359.336905,225.052242 C362.030583,225.446633 366.16837,227.801729 369.448323,230.881419 C371.472731,232.781907 374.817088,232.089076 376.866727,233.579954 C378.523303,234.785625 378.877856,238.131331 380.576925,239.859107 C384.267868,243.613762 388.497282,242.934827 389.980564,245.917243 C391.848942,249.67653 387.834651,252.483588 389.05899,258.502682 C389.754818,261.92581 390.987788,260.618232 393.046723,265.943833 C395.379871,271.983441 389.38433,274.402063 392.152371,276.718779 C394.308243,278.521993 398.244187,278.737717 399.330422,280.562106 C400.634436,282.755078 400.122524,287.125803 397.007897,288.556463 C394.707946,289.611922 391.804457,289.439872 389.742867,290.297474 C386.729825,291.55079 387.909015,293.809274 384.508885,295.844755 C382.203622,297.225785 376.087904,297.737302 374.291234,295.265079 C372.40692,292.673746 374.080095,290.149247 372.297367,288.641164 C369.979489,286.681783 366.009684,289.981167 363.82327,288.144205 C361.517343,286.208646 364.394274,281.250305 361.995393,279.202913 C359.861432,277.381171 355.94939,279.905008 355.016529,278.540521 C353.93295,276.95237 352.879912,273.427335 353.571092,268.107028 C353.962828,265.098143 356.633267,266.319034 354.102923,258.833547 C352.348082,253.641615 354.58562,251.588268 352.856673,248.566809 C351.281765,245.814675 349.762629,243.381495 347.540361,242.108327 C342.330281,239.125249 342.357504,240.943021 341.131837,235.815938 C340.062864,231.34463 345.736387,228.947845 349.412059,227.519832" id="Fill-125" fill="#242F4E" mask="url(#mask-4)"></path>
                <path d="M351.008514,247.743488 C350.966006,247.445263 351.084471,247.150472 351.323492,246.962879 C352.152052,246.316265 354.155509,245.093813 355.508103,247.107869 C356.993797,249.320512 354.830064,252.159842 352.791068,252.943888 C352.278183,253.141102 351.715125,252.796149 351.639168,252.258106 L351.008514,247.743488 Z" id="Fill-126" fill="#C0C6CE" mask="url(#mask-4)"></path>
                <path d="M364,324 L379.412187,324 C379.412187,324 390.356086,336.689424 388.859371,348.142172 C387.269277,360.312692 385.033477,484 385.033477,484 L375.145226,483.807058 L367.141114,386.018158 L364,324" id="Fill-127" fill="#C0C6CE" mask="url(#mask-4)"></path>
                <path d="M375,349.630124 C369.761498,364.502183 349.009198,483 349.009198,483 L339,483 L352.4159,324 L375,349.630124 Z" id="Fill-128" fill="#C0C6CE" mask="url(#mask-4)"></path>
                <path d="M380.158991,324 C380.158991,324 390.000655,332.466166 390,346.411493 C390,360.49015 387.581186,397.022753 388.193751,405.918761 C388.233715,406.507141 387.777076,407 387.194648,407 L344.263976,407 C343.526277,407 342.945159,406.362533 343.004122,405.617606 L349.499935,324 L380.158991,324 Z" id="Fill-129" fill="#242F4E" mask="url(#mask-4)"></path>
                <path d="M368,487.904237 C370.754898,486.62441 373.618203,484.976288 375.513974,483.037366 C375.89882,482.64375 376.275535,482.29924 376.643442,482 L380,483.262179 C380,483.262179 373.37903,488.788146 368,487.904237" id="Fill-130" fill="#C0C6CE" mask="url(#mask-4)"></path>
                <path d="M361.195071,490.499886 C362.680335,490.083314 365.359983,489.270658 368.149397,488.131573 C372.015884,488.690872 375.608644,486.372411 377.366949,484.982017 C378.16412,484.351013 379.143091,484 380.161851,484 L386,484 L386,491.335079 C386,492.254268 385.381883,493 384.619014,493 L382.528668,493 C381.795298,493 381.200507,492.407922 381.200507,491.67858 L381.200507,489.738448 C381.200507,489.738448 379.737882,491.538584 376.603393,492.752789 C376.154727,492.926929 375.671073,493 375.188791,493 L360,493 L360,492.077396 C360,491.343273 360.485712,490.699294 361.195071,490.499886" id="Fill-131" fill="#242F4E" mask="url(#mask-4)"></path>
                <path d="M332,487.904237 C334.813451,486.62441 337.736203,484.976288 339.671791,483.037366 C340.065411,482.64375 340.450038,482.29924 340.824981,482 L350,483.262179 C350,483.262179 337.492006,488.788146 332,487.904237" id="Fill-132" fill="#C0C6CE" mask="url(#mask-4)"></path>
                <path d="M325.195103,490.499886 C326.679719,490.083314 329.360125,489.270658 332.148926,488.131573 C336.438123,488.750967 342.033564,485.832916 344.217953,484.564762 C344.850493,484.197359 345.566046,484 346.298749,484 L350,484 L350,491.335079 C350,492.254268 349.381867,493 348.618977,493 L346.529263,493 C345.795187,493 345.201066,492.407922 345.201066,491.67858 L345.201066,489.738448 C345.201066,489.738448 343.737717,491.538584 340.603831,492.752789 C340.155153,492.926929 339.670801,493 339.188506,493 L324,493 L324,492.077396 C324,491.343273 324.485725,490.699294 325.195103,490.499886" id="Fill-133" fill="#242F4E" mask="url(#mask-4)"></path>
                <path d="M305.778346,271.031531 C307.288596,272.139038 307.319106,267.845551 308.258381,267.578674 C309.197656,267.311107 310.087534,276.433905 309.993098,276.869046 C308.040452,277.111787 306.251979,277.861389 304.159858,278 C304.210709,277.607614 303.042608,276.591135 302.207939,275.918079 C301.684909,275.49742 301.344939,274.911944 301.255588,274.265783 C300.946128,272.028701 300.131073,266.822176 299.180175,266.129122 C297.96413,265.242288 303.208234,269.146838 305.778346,271.031531" id="Fill-134" fill="#C0C6CE" mask="url(#mask-4)"></path>
                <path d="M185.870469,0.364215046 C170.466779,1.19706772 162.745408,3.44427224 157.346074,10.7016163 C150.278023,20.2016067 151.887166,35.2580723 161.763771,44.3452178 C172.434687,54.1636327 187.005011,52.0375467 192.445385,51.2444157 C196.044941,50.7189176 219.982186,47.2266667 223.564532,30.5474732 C225.877965,19.7776918 218.629209,8.52408751 209.977168,3.38241063 C203.312231,-0.578686184 196.954428,-0.234865846 185.870469,0.364215046" id="Fill-135" fill="#19E69B" mask="url(#mask-4)"></path>
                <path d="M177,26.5 C177,28.4331476 175.433303,30 173.500348,30 C171.567393,30 170,28.4331476 170,26.5 C170,24.5668524 171.567393,23 173.500348,23 C175.433303,23 177,24.5668524 177,26.5" id="Fill-136" fill="#FFFFFF" mask="url(#mask-4)"></path>
                <path d="M191,26.5 C191,28.4331476 189.433303,30 187.500348,30 C185.566697,30 184,28.4331476 184,26.5 C184,24.5668524 185.566697,23 187.500348,23 C189.433303,23 191,24.5668524 191,26.5" id="Fill-137" fill="#FFFFFF" mask="url(#mask-4)"></path>
                <path d="M203,26.5 C203,28.4331476 201.433303,30 199.500348,30 C197.566697,30 196,28.4331476 196,26.5 C196,24.5668524 197.566697,23 199.500348,23 C201.433303,23 203,24.5668524 203,26.5" id="Fill-138" fill="#FFFFFF" mask="url(#mask-4)"></path>
                <path d="M202.196126,45.632499 C202.196126,45.632499 199.045484,55.4815256 218,56 C218,56 213.389053,47.9361674 217.227059,36 L202.196126,45.632499 Z" id="Fill-139" fill="#19E69B" mask="url(#mask-4)"></path>
                <path d="M295.606256,98.7365269 C293.968029,99.5431337 293.022305,104.777365 293.022305,104.777365 C292.899193,105.148927 293.298608,105.509286 293.902276,105.564055 C296.137177,105.768197 301.376428,106.342033 302.024864,105.715294 C304.551456,103.272446 306.546429,99.1933552 305.865116,98.7365269 C303.970172,97.4650009 296.912222,98.0929841 295.606256,98.7365269" id="Fill-140" fill="#C0C6CE" mask="url(#mask-4)"></path>
                <path d="M237.605758,98.7365397 C235.968228,99.5431605 235.022503,104.777482 235.022503,104.777482 C234.898692,105.149051 235.298806,105.509416 235.902475,105.564186 C238.137378,105.767709 243.376634,106.342177 244.025071,105.715428 C246.551666,103.272537 248.545941,99.1933758 247.865327,98.7365397 C245.970381,97.4649916 238.912424,98.0929857 237.605758,98.7365397" id="Fill-141" fill="#C0C6CE" mask="url(#mask-4)"></path>
            </g>
        </g>
    </g>
</svg>