<?xml version="1.0" encoding="UTF-8"?>
<svg width="596px" height="616px" viewBox="0 0 596 616" version="1.1" xmlns="http://www.w3.org/2000/svg" xmlns:xlink="http://www.w3.org/1999/xlink">
    <!-- Generator: Sketch 51.3 (57544) - http://www.bohemiancoding.com/sketch -->
    <title>Fill 1</title>
    <desc>Created with Sketch.</desc>
    <defs></defs>
    <g id="Page-1" stroke="none" stroke-width="1" fill="none" fill-rule="evenodd">
        <g id="About-us" transform="translate(-708.000000, -1534.000000)" fill="#19E69B">
            <path d="M1289.35447,1836.75615 C1288.55092,1837.42423 1287.87175,1838.23289 1287.33191,1839.16222 L1286.97367,1839.77929 L1071.9789,1782.30471 L1072.05727,1781.5172 C1072.08339,1781.23727 1072.1008,1780.95487 1072.1008,1780.66748 C1072.1008,1775.73839 1068.09051,1771.72743 1063.16099,1771.72743 C1062.84131,1771.72743 1062.5266,1771.74609 1062.21563,1771.77844 L1061.43198,1771.86179 L1041.44395,1700.09382 L1000.02374,1551.3638 L1000.73773,1551.02914 C1001.23902,1550.79152 1001.71419,1550.51284 1002.14955,1550.19933 L1002.79264,1549.73777 L1026.4775,1573.34194 L1290.14309,1836.10051 L1289.35447,1836.75615 Z M1008.88644,2131.4456 C1008.28316,2132.0465 1007.64007,2132.64988 1006.98827,2133.25451 L1004.21191,2135.78127 L1003.58624,2135.08706 C1002.70432,2134.10921 1001.65945,2133.35529 1000.48025,2132.8477 L999.798599,2132.55285 L999.930451,2131.82256 L1042.21143,1899.58531 L1065.67986,1894.52932 L1286.72862,1846.91168 L1287.04954,1847.56483 C1287.61551,1848.70939 1288.3917,1849.6972 1289.35447,1850.49964 L1290.14185,1851.15528 L1008.88644,2131.4456 Z M997.621796,2132.15474 C997.011047,2132.1087 996.507272,2132.11119 995.785818,2132.20574 L994.942462,2132.31771 L948.601432,1928.18327 L949.331594,1927.88344 C952.703773,1926.49504 954.883064,1923.25044 954.883064,1919.6152 C954.883064,1919.53558 954.878089,1919.4572 954.873113,1919.37883 L954.824601,1918.41092 L1040.7536,1899.89882 L1040.02343,1903.91351 L998.458932,2132.21694 L997.621796,2132.15474 Z M992.740781,2133.17987 C991.939717,2133.61032 991.205824,2134.16643 990.556514,2134.83202 L989.867401,2135.53991 L969.595766,2113.38013 L723.48018,1844.32396 L723.969028,1843.70192 C724.267561,1843.31998 724.530021,1842.92809 724.748946,1842.5362 L725.132063,1841.84698 L912.687912,1908.52536 C916.112334,1909.74333 919.622584,1911.11432 923.014666,1912.44052 C927.413052,1914.15986 931.961949,1915.93767 936.463578,1917.43804 L937.19374,1917.68064 L937.092985,1918.44451 C937.034522,1918.89363 937.005913,1919.26561 937.005913,1919.6152 C937.005913,1924.54305 941.016206,1928.55401 945.944488,1928.55401 C946.017878,1928.55401 946.091267,1928.54903 946.1659,1928.54406 L947.10006,1928.49927 L947.389886,1929.58661 C947.749369,1930.93023 948.105121,1932.26389 948.401166,1933.57143 L974.616096,2049.04064 C976.948385,2059.31312 979.207285,2069.81077 981.394039,2079.96256 C985.088385,2097.11984 988.90712,2114.86185 993.204751,2132.13234 L993.380139,2132.8365 L992.740781,2133.17987 Z M986.002642,1555.49916 C987.174384,1554.26378 988.494149,1552.99978 989.769134,1551.77808 L991.540429,1550.07368 L992.161129,1550.47054 C992.851487,1550.91219 993.579161,1551.25308 994.32425,1551.48323 L995.079289,1551.71712 L961.889883,1796.79963 L725.642057,1836.05697 L725.38706,1835.31051 C725.081063,1834.42099 724.636996,1833.5862 724.066051,1832.82979 L723.588398,1832.19904 L986.002642,1555.49916 Z M947.381178,1903.93466 C947.168474,1905.50595 946.879892,1907.14566 946.598773,1908.73064 L946.26168,1910.66147 L945.515347,1910.69755 C942.410604,1910.8456 939.650418,1912.55871 938.135363,1915.2783 L937.749757,1915.96752 L849.361598,1884.54423 L749.744865,1849.12865 C746.362735,1847.92561 742.925874,1846.64171 739.600963,1845.40011 C735.275966,1843.78403 730.802946,1842.11446 726.378438,1840.59293 L725.642057,1840.34038 L725.760226,1839.57029 C725.839835,1839.04777 725.877151,1838.61358 725.877151,1838.20179 L725.877151,1837.41054 L961.69708,1798.22536 L947.381178,1903.93466 Z M1060.74162,1790.11512 L1041.02228,1898.42333 L954.538507,1917.05362 L954.247438,1916.32085 C953.251084,1913.82271 951.131499,1911.85953 948.575311,1911.07078 L947.821515,1910.83689 L963.102673,1797.99147 L1054.45502,1782.81105 L1054.71126,1783.55751 C1055.58322,1786.0967 1057.612,1788.15816 1060.14083,1789.07008 L1060.88218,1789.33756 L1060.74162,1790.11512 Z M1286.20121,1844.73576 L1286.30943,1845.58423 L1042.48136,1898.10858 L1055.66656,1825.68373 L1062.23802,1789.59136 L1063.17218,1789.60877 C1066.64387,1789.60877 1069.83444,1787.5498 1071.2873,1784.36617 L1071.61569,1783.64833 L1286.45372,1841.07937 L1286.28953,1841.93282 C1286.17882,1842.50883 1286.12285,1843.07863 1286.12285,1843.62852 C1286.12285,1844.00423 1286.15519,1844.37124 1286.20121,1844.73576 Z M996.328153,1553.57953 L996.616734,1551.89254 L997.507358,1551.85273 C997.63921,1551.84651 997.771062,1551.84153 997.900426,1551.82909 L998.685319,1551.74449 L1018.67335,1623.51371 L1060.09356,1772.24373 L1059.38081,1772.57963 C1056.24746,1774.05264 1054.22365,1777.22632 1054.22365,1780.66624 L1054.22365,1781.45748 L963.296719,1796.56698 L995.519626,1558.61935 C995.744769,1556.96222 996.040815,1555.24164 996.328153,1553.57953 Z M1291.70293,1851.92164 L1292.21914,1852.09581 C1293.14957,1852.40932 1294.10487,1852.56732 1295.06142,1852.56732 C1299.99095,1852.56732 1304,1848.55761 1304,1843.62852 C1304,1838.69942 1299.99095,1834.68722 1295.06142,1834.68722 C1294.03397,1834.68722 1293.00652,1834.87259 1292.00892,1835.23711 L1291.45042,1835.44239 L1197.07916,1741.39521 L1009.8716,1554.82984 C1008.61279,1553.57455 1007.38756,1552.22471 1006.09018,1550.79525 C1005.56029,1550.20928 1005.02541,1549.62083 1004.48557,1549.03486 L1003.98801,1548.49492 L1004.39476,1547.88407 C1005.37495,1546.4148 1005.89365,1544.70542 1005.89365,1542.94005 C1005.89365,1538.00971 1001.8846,1534 996.956316,1534 C992.028033,1534 988.01774,1538.00971 988.01774,1542.94005 C988.01774,1544.88581 988.644659,1546.742 989.830084,1548.3108 L990.306493,1548.9428 L727.891005,1825.64143 C726.716776,1826.88054 725.450498,1828.08731 724.108343,1829.36624 L722.342023,1831.05821 L721.722567,1830.66383 C720.284633,1829.74569 718.630263,1829.26049 716.937332,1829.26049 C712.009049,1829.26049 708,1833.27145 708,1838.20054 C708,1843.13088 712.009049,1847.14059 716.937332,1847.14059 C718.66136,1847.14059 720.341852,1846.64047 721.795957,1845.69495 L722.458949,1845.26201 L985.016239,2132.29034 C986.166835,2133.54936 987.28509,2134.91911 988.470515,2136.36972 L988.981753,2136.99426 L988.755365,2137.51553 C988.265274,2138.64268 988.01774,2139.83452 988.01774,2141.05995 C988.01774,2145.99029 992.028033,2150 996.956316,2150 C1001.8846,2150 1005.89365,2145.99029 1005.89365,2141.05995 C1005.89365,2139.95146 1005.68343,2138.85666 1005.27046,2137.80416 L1005.0478,2137.23437 L1286.74852,1856.4999 C1288.00609,1855.2471 1289.35944,1854.03038 1290.79116,1852.7415 L1291.70293,1851.92164 Z" id="Fill-1"></path>
        </g>
    </g>
</svg>