<?xml version="1.0" encoding="UTF-8"?>
<svg width="330px" height="106px" viewBox="0 0 330 106" version="1.1" xmlns="http://www.w3.org/2000/svg" xmlns:xlink="http://www.w3.org/1999/xlink">
    <!-- Generator: Sketch 51.3 (57544) - http://www.bohemiancoding.com/sketch -->
    <title>Group 24</title>
    <desc>Created with Sketch.</desc>
    <defs>
        <polygon id="path-1" points="0.0845403931 0.688 37.3023 0.688 37.3023 66.0283649 0.0845403931 66.0283649"></polygon>
        <polygon id="path-3" points="0.5171 0.2973 34.1861 0.2973 34.1861 46 0.5171 46"></polygon>
        <polygon id="path-5" points="0.8003 0.2973 34.4693 0.2973 34.4693 46 0.8003 46"></polygon>
    </defs>
    <g id="Page-1" stroke="none" stroke-width="1" fill="none" fill-rule="evenodd">
        <g id="Artboard-Copy-11" transform="translate(-99.000000, -737.000000)">
            <g id="Group-24" transform="translate(99.000000, 736.000000)">
                <path d="M70.3223,1.8075 C69.8143,1.1915 69.1563,1.2165 68.8533,1.8825 L28.4663,90.5115 C28.1603,91.1735 28.5493,91.6775 29.3493,91.6455 L79.2533,91.7475 C80.0593,91.7165 80.9623,91.1455 81.2603,90.4775 L103.8273,41.3045 C104.1323,40.6445 103.9643,39.5865 103.4573,38.9725 L70.3223,1.8075 Z" id="Fill-1" fill="#39C1D7"></path>
                <path d="M9.0186,55.3217 L30.7026,7.7387 L25.5716,1.4847 C25.0576,0.8917 24.3916,0.9347 24.0996,1.5897 L0.0936,54.2617 C-0.2034,54.9137 0.2356,55.5847 1.0146,55.7287 L9.0186,55.3217 Z" id="Fill-3" fill="#006D92"></path>
                <g id="Group-7" transform="translate(8.000000, 0.312000)">
                    <mask id="mask-2" fill="white">
                        <use xlink:href="#path-1"></use>
                    </mask>
                    <g id="Clip-6"></g>
                    <path d="M29.2393,1.1972 L0.1923,64.9352 C-0.1047,65.5752 0.2283,66.0552 0.9933,66.0272 L11.5133,65.7262 L37.3023,9.1392 L30.7143,1.1042 C30.2003,0.5102 29.5433,0.5612 29.2393,1.1972" id="Fill-5" fill="#0D82A3" mask="url(#mask-2)"></path>
                </g>
                <path d="M52.1455,2.078 L17.8775,77.283 C17.5805,77.934 17.9195,78.412 18.7035,78.388 L30.3755,77.884 L60.8545,10.993 L53.5975,2.003 C53.0955,1.399 52.4425,1.436 52.1455,2.078" id="Fill-8" fill="#289EBB"></path>
                <path d="M129.3828,60.1859 L123.9108,74.9529 L134.7288,74.9529 L129.3828,60.1859 Z M140.9288,91.7279 L137.5878,83.2779 L120.9328,83.2779 L117.7728,91.7279 L106.4698,91.7279 L124.5188,48.6969 L134.6088,48.6969 L152.4768,91.7279 L140.9288,91.7279 Z" id="Fill-10" fill="#404041"></path>
                <g id="Group-14" transform="translate(155.000000, 60.312000)">
                    <mask id="mask-4" fill="white">
                        <use xlink:href="#path-3"></use>
                    </mask>
                    <g id="Clip-13"></g>
                    <path d="M17.4131,8.4413 C12.9151,8.4413 10.1181,12.3933 10.1181,16.2193 C10.1181,20.1703 12.9151,23.9993 17.4131,23.9993 C22.1521,23.9993 24.5241,20.1113 24.5241,16.1593 C24.5241,12.2733 22.1521,8.4413 17.4131,8.4413 M19.7811,32.2623 C16.0741,32.2623 12.4891,30.6863 10.6031,28.0723 L10.4831,28.0723 L10.4831,46.0003 L0.5171,46.0003 L0.5171,1.1463 L9.9981,1.1463 L9.9981,4.8573 L10.1791,4.8573 C12.0031,2.4243 15.4051,0.2973 19.8421,0.2973 C28.6541,0.2973 34.1861,7.7133 34.1861,16.1593 C34.1861,24.6093 28.8981,32.2623 19.7811,32.2623" id="Fill-12" fill="#404041" mask="url(#mask-4)"></path>
                </g>
                <g id="Group-17" transform="translate(191.000000, 60.312000)">
                    <mask id="mask-6" fill="white">
                        <use xlink:href="#path-5"></use>
                    </mask>
                    <g id="Clip-16"></g>
                    <path d="M17.6953,8.4413 C13.1973,8.4413 10.4033,12.3933 10.4033,16.2193 C10.4033,20.1703 13.1973,23.9993 17.6953,23.9993 C22.4363,23.9993 24.8063,20.1113 24.8063,16.1593 C24.8063,12.2733 22.4363,8.4413 17.6953,8.4413 M20.0633,32.2623 C16.3573,32.2623 12.7733,30.6863 10.8893,28.0723 L10.7663,28.0723 L10.7663,46.0003 L0.8003,46.0003 L0.8003,1.1463 L10.2823,1.1463 L10.2823,4.8573 L10.4633,4.8573 C12.2873,2.4243 15.6903,0.2973 20.1273,0.2973 C28.9403,0.2973 34.4693,7.7133 34.4693,16.1593 C34.4693,24.6093 29.1813,32.2623 20.0633,32.2623" id="Fill-15" fill="#404041" mask="url(#mask-6)"></path>
                </g>
                <path d="M247.1074,70.3949 C245.5274,68.8739 243.2174,67.6599 240.7854,67.6599 C238.9024,67.6599 237.0184,68.3279 237.0184,70.0889 C237.0184,71.7919 238.6604,72.2779 242.5474,73.1259 C247.1674,74.1619 252.2114,76.4719 252.2114,82.3659 C252.2114,90.0259 245.4644,92.6979 239.2674,92.6979 C234.3444,92.6979 229.2394,91.0599 226.0774,88.0199 L231.6694,82.1229 C233.4314,84.0709 236.1664,85.5259 239.0844,85.5259 C240.7244,85.5259 242.6704,84.8599 242.6704,82.9119 C242.6704,81.0279 240.7854,80.4229 236.6544,79.4509 C232.4594,78.4779 227.8404,76.3529 227.8404,70.6359 C227.8404,63.4059 234.6484,60.4899 240.4204,60.4899 C244.9194,60.4899 249.5964,61.9469 252.5774,64.7419 L247.1074,70.3949 Z" id="Fill-18" fill="#404041"></path>
                <path d="M278.4687,92.8788 C265.2177,92.8788 255.3137,83.6458 255.3137,70.1488 C255.3137,56.3538 265.5257,47.5438 278.6487,47.5438 C284.6667,47.5438 291.1687,49.7308 294.7557,53.8628 L287.7057,60.9118 C285.7597,58.2398 282.2967,56.9618 279.0137,56.9618 C271.7817,56.9618 266.6157,62.5558 266.6157,70.1488 C266.6157,77.9908 271.6617,83.3388 278.8337,83.3388 C282.9027,83.3388 286.1247,81.5188 287.9487,78.9618 L295.1807,85.7728 C291.4127,90.1458 285.7007,92.8788 278.4687,92.8788" id="Fill-20" fill="#404041"></path>
                <path d="M312.3828,68.7533 C307.7008,68.7533 305.2698,72.5853 305.2698,76.4713 C305.2698,80.3613 307.7628,84.3113 312.4418,84.3113 C317.1228,84.3113 319.6138,80.3613 319.6138,76.4713 C319.6138,72.5853 317.0608,68.7533 312.3828,68.7533 M312.3828,92.6973 C303.2658,92.6973 295.6098,86.3773 295.6098,76.4713 C295.6098,66.5663 303.2658,60.4903 312.3828,60.4903 C321.5578,60.4903 329.2158,66.5663 329.2158,76.4713 C329.2158,86.3773 321.5578,92.6973 312.3828,92.6973" id="Fill-22" fill="#404041"></path>
            </g>
        </g>
    </g>
</svg>