<?xml version="1.0" encoding="UTF-8"?>
<svg width="77px" height="75px" viewBox="0 0 77 75" version="1.1" xmlns="http://www.w3.org/2000/svg" xmlns:xlink="http://www.w3.org/1999/xlink">
    <!-- Generator: Sketch 51.3 (57544) - http://www.bohemiancoding.com/sketch -->
    <title>Group 21 Copy</title>
    <desc>Created with Sketch.</desc>
    <defs></defs>
    <g id="Page-1" stroke="none" stroke-width="1" fill="none" fill-rule="evenodd">
        <g id="Artboard-Copy-11" transform="translate(-325.000000, -2098.000000)">
            <g id="Group-21-Copy" transform="translate(326.000000, 2099.000000)">
                <path d="M58.2056,33.685 C58.2056,44.039 49.8106,52.434 39.4566,52.434 C29.1016,52.434 20.7076,44.039 20.7076,33.685 C20.7076,23.331 29.1016,14.936 39.4566,14.936 C49.8106,14.936 58.2056,23.331 58.2056,33.685" id="Fill-1" fill="#50E29D"></path>
                <path d="M7.8638,20.5337 C13.3218,8.4277 25.4968,-0.0003 39.6388,-0.0003 C50.0048,-0.0003 59.3118,4.5267 65.6938,11.7107" id="Stroke-3" stroke="#11193A" stroke-width="2" stroke-linecap="round" stroke-linejoin="round"></path>
                <path d="M42.397,69.5693 C41.487,69.6403 40.568,69.6763 39.639,69.6763 C20.399,69.6763 4.8,54.0793 4.8,34.8383 C4.8,31.5063 5.269,28.2833 6.142,25.2323" id="Stroke-5" stroke="#11193A" stroke-width="2" stroke-linecap="round" stroke-linejoin="round"></path>
                <path d="M68.0387,14.6548 C72.0937,20.3488 74.4777,27.3158 74.4777,34.8388 C74.4777,51.3128 63.0427,65.1158 47.6777,68.7448" id="Stroke-7" stroke="#11193A" stroke-width="2" stroke-linecap="round" stroke-linejoin="round"></path>
                <polyline id="Stroke-9" stroke="#11193A" stroke-width="2" stroke-linecap="round" stroke-linejoin="round" points="-0.0004 28.2998 6.0836 25.2158 9.9486 31.0218"></polyline>
                <polyline id="Stroke-11" stroke="#11193A" stroke-width="2" stroke-linecap="round" stroke-linejoin="round" points="65.5094 5.3994 65.6834 11.7194 59.2214 11.8754"></polyline>
                <path d="M47.6646,68.6933 L50.3986,63.1193" id="Stroke-13" stroke="#11193A" stroke-width="2" stroke-linecap="round" stroke-linejoin="round"></path>
                <path d="M53.4967,72.1289 L47.6647,68.6929" id="Stroke-15" stroke="#11193A" stroke-width="2" stroke-linecap="round" stroke-linejoin="round"></path>
                <path d="M53.4527,34.3481 C53.4527,26.6191 47.1867,20.3541 39.4577,20.3541 C31.7287,20.3541 25.4637,26.6191 25.4637,34.3481 C25.4637,39.4861 28.2407,43.9651 32.3677,46.3981 L32.3677,48.9131 C32.3677,49.5361 32.8727,50.0421 33.4957,50.0421 L45.4197,50.0421 C46.0437,50.0421 46.5487,49.5361 46.5487,48.9131 L46.5487,46.3981 C50.6757,43.9651 53.4527,39.4861 53.4527,34.3481 Z" id="Stroke-17" stroke="#11193A" stroke-width="2" stroke-linecap="round" stroke-linejoin="round"></path>
                <polygon id="Stroke-19" stroke="#11193A" stroke-width="2" stroke-linecap="round" stroke-linejoin="round" points="44.7203 57.1318 42.5463 57.1318 42.0263 58.8338 36.8733 58.8338 36.0233 57.1318 34.2273 57.1318 34.2273 50.0198 44.7203 50.0198"></polygon>
            </g>
        </g>
    </g>
</svg>