<?xml version="1.0" encoding="UTF-8"?>
<svg width="73px" height="73px" viewBox="0 0 73 73" version="1.1" xmlns="http://www.w3.org/2000/svg" xmlns:xlink="http://www.w3.org/1999/xlink">
    <!-- Generator: Sketch 51.3 (57544) - http://www.bohemiancoding.com/sketch -->
    <title>Group 8</title>
    <desc>Created with Sketch.</desc>
    <defs>
        <polygon id="path-1" points="0 0.546 72.455 0.546 72.455 73 0 73"></polygon>
    </defs>
    <g id="Page-1" stroke="none" stroke-width="1" fill="none" fill-rule="evenodd">
        <g id="Artboard-Copy-11" transform="translate(-327.000000, -2493.000000)">
            <g id="Group-8" transform="translate(327.000000, 2492.000000)">
                <path d="M54.9766,37.2271 C54.9766,47.5811 46.5826,55.9761 36.2276,55.9761 C25.8726,55.9761 17.4796,47.5811 17.4796,37.2271 C17.4796,26.8731 25.8726,18.4781 36.2276,18.4781 C46.5826,18.4781 54.9766,26.8731 54.9766,37.2271" id="Fill-1" fill="#50E29D"></path>
                <g id="Group-5" transform="translate(0.000000, 0.454100)">
                    <mask id="mask-2" fill="white">
                        <use xlink:href="#path-1"></use>
                    </mask>
                    <g id="Clip-4"></g>
                    <path d="M70.3018,41.047 L69.8758,41.047 C69.6708,41.252 69.4018,41.393 69.0948,41.44 L62.5758,42.526 C62.1518,42.599 61.8068,42.913 61.7008,43.327 C61.0798,45.733 60.1328,48.013 58.8858,50.109 C58.6638,50.485 58.6828,50.946 58.9368,51.307 L62.7768,56.717 C63.1678,57.278 63.0988,58.056 62.6198,58.533 L57.9868,63.167 C57.7978,63.356 57.4688,63.584 56.9838,63.584 C56.6798,63.584 56.3918,63.487 56.1498,63.305 L50.7738,59.479 C50.4228,59.227 49.9538,59.21 49.5738,59.434 C47.4828,60.678 45.2018,61.625 42.7998,62.246 C42.3808,62.35 42.0628,62.696 41.9988,63.109 L40.8928,69.656 C40.7878,70.332 40.2018,70.832 39.5018,70.832 L32.9538,70.832 C32.2528,70.832 31.6668,70.332 31.5608,69.643 L30.4748,63.121 C30.4028,62.697 30.0878,62.352 29.6738,62.247 C27.3818,61.654 25.1538,60.741 23.0458,59.532 C22.6828,59.325 22.1778,59.348 21.8678,59.577 L16.4088,63.461 C15.6528,63.928 15.0428,63.757 14.5918,63.305 L9.9588,58.672 C9.4868,58.202 9.4098,57.472 9.7768,56.898 L13.6308,51.489 C13.8808,51.135 13.8998,50.656 13.6758,50.275 C12.3988,48.146 11.4408,45.869 10.8328,43.517 C10.7198,43.107 10.3718,42.785 9.9498,42.712 L3.3738,41.593 C2.6998,41.489 2.1998,40.903 2.1998,40.203 L2.1998,33.654 C2.1998,32.954 2.6998,32.368 3.3898,32.262 L9.8628,31.175 C10.2988,31.101 10.6488,30.782 10.7538,30.363 C11.3638,27.941 12.2938,25.654 13.5208,23.567 C13.7368,23.199 13.7138,22.736 13.4628,22.387 L9.5868,16.939 C9.1938,16.38 9.2618,15.601 9.7418,15.122 L14.3758,10.488 C14.5648,10.299 14.8938,10.071 15.3778,10.071 C15.6828,10.071 15.9708,10.168 16.2128,10.35 L21.5578,14.16 C21.9158,14.412 22.3928,14.43 22.7728,14.206 C24.9018,12.929 27.1778,11.971 29.5308,11.362 C29.9408,11.25 30.2618,10.902 30.3348,10.481 L31.4548,3.904 C31.5588,3.23 32.1448,2.73 32.8448,2.73 L39.3928,2.73 C40.0968,2.73 40.6828,3.232 40.7858,3.924 L41.8718,10.392 C41.9468,10.828 42.2648,11.178 42.6838,11.283 C45.1258,11.897 47.4598,12.855 49.6208,14.129 C50.0008,14.351 50.4618,14.335 50.8238,14.08 L56.1818,10.228 C56.9738,9.746 57.5528,9.931 57.9998,10.378 L62.6368,15.014 C63.1078,15.487 63.1828,16.215 62.8218,16.786 L58.9488,22.227 C58.6968,22.578 58.6798,23.047 58.9038,23.427 C60.1458,25.513 61.0928,27.794 61.7158,30.2 C61.8218,30.619 62.1668,30.939 62.5798,31.002 L69.1268,32.109 C69.8008,32.211 70.3018,32.797 70.3018,33.499 L70.3018,41.047 Z M72.4548,40.047 L72.4548,33.499 C72.4798,31.727 71.2278,30.237 69.4798,29.944 L69.4778,29.943 L63.6448,28.954 L63.4628,28.367 C62.9368,26.666 62.2538,25.018 61.4348,23.468 L61.1458,22.922 L64.5848,18.11 C65.6138,16.667 65.4498,14.717 64.1978,13.477 L59.5588,8.839 C58.3378,7.618 56.3178,7.454 54.9398,8.445 L50.1098,11.885 L49.5648,11.597 C47.9118,10.725 46.2038,10.023 44.4878,9.509 L43.8918,9.331 L42.9168,3.554 C42.6248,1.811 41.1298,0.546 39.3618,0.546 L32.8138,0.546 C31.0458,0.546 29.5508,1.811 29.2588,3.553 L28.2528,9.448 L27.6678,9.63 C25.9918,10.154 24.3518,10.846 22.7898,11.687 L22.2388,11.984 L17.4538,8.539 C16.0758,7.547 14.0178,7.712 12.8258,8.925 L8.1678,13.568 C6.9188,14.817 6.7548,16.767 7.7788,18.205 L11.2448,23.076 L10.9598,23.62 C10.1518,25.163 9.4798,26.816 8.9628,28.53 L8.7838,29.125 L3.0078,30.099 C1.2648,30.392 -0.0002,31.887 -0.0002,33.654 L-0.0002,40.203 C-0.0002,41.97 1.2648,43.465 3.0078,43.758 L8.9018,44.763 L9.0838,45.348 C9.6078,47.021 10.2998,48.663 11.1418,50.228 L11.4378,50.778 L8.0088,55.547 C6.9828,56.988 7.1458,58.938 8.3988,60.178 L13.0368,64.817 C14.2588,66.038 16.2808,66.202 17.6558,65.21 L22.5308,61.74 L23.0748,62.025 C24.5468,62.797 26.1448,63.455 27.8228,63.978 L28.4098,64.161 L29.3828,69.994 C29.6748,71.735 31.1698,73 32.9388,73 L39.5018,73 C41.2698,73 42.7648,71.735 43.0568,69.993 L44.0468,64.159 L44.6338,63.978 C46.3348,63.45 47.9838,62.768 49.5318,61.949 L50.0788,61.66 L54.8898,65.099 C56.2648,66.088 58.2998,65.935 59.5278,64.708 L64.1618,60.073 C65.4118,58.823 65.5758,56.872 64.5528,55.434 L61.1158,50.61 L61.4018,50.066 C62.2568,48.432 62.9398,46.785 63.4308,45.169 L63.6118,44.575 L69.4488,43.602 C71.1908,43.31 72.4548,41.815 72.4548,40.047 Z" id="Fill-3" fill="#242F4E" mask="url(#mask-2)"></path>
                </g>
                <path d="M36.2354,50.0865 C29.1404,50.0865 23.3684,44.3145 23.3684,37.2195 C23.3684,30.1245 29.1404,24.3525 36.2354,24.3525 C43.3304,24.3525 49.1024,30.1245 49.1024,37.2195 C49.1024,44.3145 43.3304,50.0865 36.2354,50.0865 M36.2354,22.1525 C27.9274,22.1525 21.1694,28.9115 21.1694,37.2195 C21.1694,45.5275 27.9274,52.2865 36.2354,52.2865 C44.5434,52.2865 51.3014,45.5275 51.3014,37.2195 C51.3014,28.9115 44.5434,22.1525 36.2354,22.1525" id="Fill-6" fill="#242F4E"></path>
            </g>
        </g>
    </g>
</svg>