<?xml version="1.0" encoding="UTF-8"?>
<svg width="472px" height="368px" viewBox="0 0 472 368" version="1.1" xmlns="http://www.w3.org/2000/svg" xmlns:xlink="http://www.w3.org/1999/xlink">
    <!-- Generator: Sketch 51.3 (57544) - http://www.bohemiancoding.com/sketch -->
    <title>Group 164</title>
    <desc>Created with Sketch.</desc>
    <defs>
        <polygon id="path-1" points="0 367.031 471.082 367.031 471.082 0 0 0"></polygon>
    </defs>
    <g id="Page-1" stroke="none" stroke-width="1" fill="none" fill-rule="evenodd">
        <g id="Teams" transform="translate(-95.000000, -758.000000)">
            <g id="Group-164" transform="translate(95.000000, 758.000000)">
                <path d="M470.6428,183.5155 C470.6428,284.6265 388.6768,366.5925 287.5668,366.5925 C186.4558,366.5925 104.4898,284.6265 104.4898,183.5155 C104.4898,82.4055 186.4558,0.4385 287.5668,0.4385 C388.6768,0.4385 470.6428,82.4055 470.6428,183.5155 Z" id="Stroke-1" stroke="#19E69B" stroke-width="0.877" stroke-linecap="round" stroke-linejoin="round"></path>
                <path d="M366.592,183.5155 C366.592,284.6265 284.626,366.5925 183.516,366.5925 C82.405,366.5925 0.439,284.6265 0.439,183.5155 C0.439,82.4055 82.405,0.4385 183.516,0.4385 C284.626,0.4385 366.592,82.4055 366.592,183.5155 Z" id="Stroke-3" stroke="#19E69B" stroke-width="0.877" stroke-linecap="round" stroke-linejoin="round"></path>
                <path d="M212.4279,119.7943 C213.2499,119.7943 213.9259,119.5273 214.4559,118.9953 C214.9859,118.4623 215.2499,117.7883 215.2499,116.9723 C215.2499,116.4353 215.1309,115.9523 214.8929,115.5233 C214.6549,115.0953 214.3209,114.7603 213.8909,114.5193 C213.4599,114.2773 212.9729,114.1563 212.4279,114.1563 L210.9219,114.1563 L210.9219,119.7943 L212.4279,119.7943 Z M212.4589,113.2883 C213.1719,113.2883 213.8139,113.4453 214.3839,113.7603 C214.9539,114.0763 215.3989,114.5143 215.7169,115.0763 C216.0359,115.6383 216.1959,116.2703 216.1959,116.9723 C216.1959,117.6753 216.0359,118.3073 215.7169,118.8693 C215.3989,119.4313 214.9539,119.8693 214.3839,120.1853 C213.8139,120.5003 213.1719,120.6573 212.4589,120.6573 L210.0019,120.6573 L210.0019,113.2883 L212.4589,113.2883 Z" id="Fill-5" fill="#748494"></path>
                <polygon id="Fill-7" fill="#748494" points="218.4259 119.7738 221.7919 119.7738 221.7919 120.6578 217.5059 120.6578 217.5059 113.2878 221.6799 113.2878 221.6799 114.1668 218.4259 114.1668 218.4259 116.4428 221.4029 116.4428 221.4029 117.2968 218.4259 117.2968"></polygon>
                <polygon id="Fill-9" fill="#748494" points="227.965 113.2879 228.977 113.2879 226.048 120.6579 225.194 120.6579 222.214 113.2879 223.236 113.2879 225.621 119.2699"></polygon>
                <polygon id="Fill-11" fill="#748494" points="230.9142 119.7738 234.2802 119.7738 234.2802 120.6578 229.9942 120.6578 229.9942 113.2878 234.1682 113.2878 234.1682 114.1668 230.9142 114.1668 230.9142 116.4428 233.8912 116.4428 233.8912 117.2968 230.9142 117.2968"></polygon>
                <polygon id="Fill-13" fill="#748494" points="236.5217 119.7943 239.7597 119.7943 239.7597 120.6573 235.6017 120.6573 235.6017 113.2883 236.5217 113.2883"></polygon>
                <path d="M243.6867,119.8763 C244.2387,119.8763 244.7367,119.7503 245.1817,119.4993 C245.6267,119.2473 245.9747,118.8993 246.2247,118.4553 C246.4747,118.0113 246.6007,117.5173 246.6007,116.9723 C246.6007,116.4283 246.4747,115.9343 246.2247,115.4903 C245.9747,115.0463 245.6267,114.6983 245.1817,114.4463 C244.7367,114.1953 244.2387,114.0693 243.6867,114.0693 C243.1377,114.0693 242.6417,114.1953 242.1967,114.4493 C241.7497,114.7033 241.4027,115.0503 241.1527,115.4923 C240.9027,115.9343 240.7777,116.4283 240.7777,116.9723 C240.7777,117.5173 240.9027,118.0113 241.1527,118.4533 C241.4027,118.8953 241.7497,119.2423 242.1967,119.4963 C242.6417,119.7503 243.1377,119.8763 243.6867,119.8763 M245.6697,120.2853 C245.0817,120.6153 244.4187,120.7813 243.6867,120.7813 C242.9537,120.7813 242.2927,120.6153 241.7057,120.2853 C241.1177,119.9543 240.6587,119.4993 240.3287,118.9183 C239.9977,118.3373 239.8327,117.6883 239.8327,116.9723 C239.8327,116.2563 239.9977,115.6083 240.3287,115.0273 C240.6587,114.4463 241.1177,113.9913 241.7057,113.6603 C242.2927,113.3303 242.9537,113.1643 243.6867,113.1643 C244.4187,113.1643 245.0817,113.3303 245.6697,113.6603 C246.2587,113.9913 246.7187,114.4463 247.0497,115.0273 C247.3807,115.6083 247.5457,116.2563 247.5457,116.9723 C247.5457,117.6883 247.3807,118.3373 247.0497,118.9183 C246.7187,119.4993 246.2587,119.9543 245.6697,120.2853" id="Fill-15" fill="#748494"></path>
                <path d="M251.4367,117.1165 C251.8887,117.1165 252.2607,116.9775 252.5517,116.7005 C252.8427,116.4225 252.9887,116.0735 252.9887,115.6515 C252.9887,115.2305 252.8427,114.8805 252.5517,114.6005 C252.2607,114.3215 251.8887,114.1815 251.4367,114.1815 L249.7657,114.1815 L249.7657,117.1165 L251.4367,117.1165 Z M251.4877,113.2875 C252.1837,113.2875 252.7647,113.5125 253.2327,113.9635 C253.7007,114.4145 253.9337,114.9765 253.9337,115.6515 C253.9337,116.3265 253.7017,116.8885 253.2357,117.3375 C252.7697,117.7865 252.1867,118.0115 251.4877,118.0115 L249.7657,118.0115 L249.7657,120.6575 L248.8457,120.6575 L248.8457,113.2875 L251.4877,113.2875 Z" id="Fill-17" fill="#748494"></path>
                <polygon id="Fill-19" fill="#748494" points="255.9738 119.7738 259.3398 119.7738 259.3398 120.6578 255.0538 120.6578 255.0538 113.2878 259.2278 113.2878 259.2278 114.1668 255.9738 114.1668 255.9738 116.4428 258.9508 116.4428 258.9508 117.2968 255.9738 117.2968"></polygon>
                <path d="M261.5812,114.1668 L261.5812,116.9008 L263.4062,116.9008 C263.8542,116.9008 264.2182,116.7728 264.4952,116.5178 C264.7732,116.2628 264.9122,115.9348 264.9122,115.5338 C264.9122,115.1358 264.7722,114.8088 264.4932,114.5518 C264.2142,114.2948 263.8522,114.1668 263.4062,114.1668 L261.5812,114.1668 Z M264.9532,120.6578 L263.2622,117.7738 L261.5812,117.7738 L261.5812,120.6578 L260.6612,120.6578 L260.6612,113.2878 L263.4522,113.2878 C264.1442,113.2878 264.7172,113.4998 265.1712,113.9248 C265.6252,114.3498 265.8522,114.8898 265.8522,115.5438 C265.8522,116.0578 265.7052,116.5038 265.4102,116.8828 C265.1152,117.2618 264.7222,117.5228 264.2282,117.6668 L265.9912,120.6578 L264.9532,120.6578 Z" id="Fill-21" fill="#748494"></path>
                <path d="M269.4201,120.7498 C268.6051,120.7498 267.9471,120.5358 267.4481,120.1078 C266.9501,119.6798 266.7011,119.1048 266.7011,118.3858 L267.6421,118.3858 C267.6421,118.8348 267.8061,119.1898 268.1351,119.4528 C268.4641,119.7148 268.8891,119.8458 269.4091,119.8458 C269.8821,119.8458 270.2761,119.7298 270.5911,119.4988 C270.9061,119.2678 271.0651,118.9598 271.0651,118.5758 C271.0651,118.4838 271.0521,118.3958 271.0281,118.3118 C271.0041,118.2278 270.9771,118.1538 270.9461,118.0908 C270.9151,118.0268 270.8661,117.9658 270.8001,117.9078 C270.7321,117.8498 270.6731,117.7998 270.6191,117.7588 C270.5661,117.7178 270.4881,117.6758 270.3861,117.6328 C270.2831,117.5898 270.2001,117.5558 270.1371,117.5298 C270.0731,117.5048 269.9771,117.4748 269.8461,117.4398 C269.7161,117.4058 269.6181,117.3808 269.5531,117.3628 C269.4881,117.3458 269.3821,117.3208 269.2341,117.2858 C268.6081,117.1358 268.1581,116.9968 267.8881,116.8698 C267.2951,116.5858 266.9541,116.1588 266.8651,115.5898 C266.8481,115.4808 266.8401,115.3658 266.8401,115.2458 C266.8401,114.6118 267.0661,114.1118 267.5181,113.7458 C267.9711,113.3788 268.5801,113.1948 269.3481,113.1948 C270.1081,113.1948 270.7091,113.3918 271.1491,113.7838 C271.5891,114.1758 271.8101,114.7078 271.8101,115.3798 L270.8951,115.3798 C270.8951,114.9788 270.7481,114.6618 270.4551,114.4288 C270.1621,114.1958 269.7861,114.0798 269.3271,114.0798 C268.8711,114.0798 268.4971,114.1818 268.2041,114.3848 C267.9111,114.5888 267.7651,114.8618 267.7651,115.2048 C267.7651,115.3178 267.7821,115.4218 267.8181,115.5158 C267.8551,115.6098 267.8991,115.6918 267.9491,115.7628 C268.0011,115.8328 268.0761,115.8988 268.1761,115.9628 C268.2751,116.0258 268.3661,116.0778 268.4481,116.1168 C268.5301,116.1568 268.6451,116.1988 268.7901,116.2428 C268.9361,116.2878 269.0571,116.3218 269.1521,116.3458 C269.2481,116.3698 269.3821,116.4018 269.5531,116.4428 C270.1801,116.5978 270.6291,116.7378 270.8991,116.8648 C271.5101,117.1458 271.8691,117.5688 271.9791,118.1338 C272.0061,118.2708 272.0201,118.4158 272.0201,118.5658 C272.0201,119.0178 271.9041,119.4118 271.6731,119.7458 C271.4411,120.0798 271.1321,120.3308 270.7431,120.4988 C270.3541,120.6658 269.9131,120.7498 269.4201,120.7498" id="Fill-23" fill="#748494"></path>
                <path d="M36.0217,156.6297 C36.4737,156.6297 36.8457,156.4907 37.1367,156.2137 C37.4277,155.9357 37.5737,155.5867 37.5737,155.1647 C37.5737,154.7437 37.4277,154.3937 37.1367,154.1137 C36.8457,153.8347 36.4737,153.6947 36.0217,153.6947 L34.3507,153.6947 L34.3507,156.6297 L36.0217,156.6297 Z M36.0727,152.8007 C36.7687,152.8007 37.3497,153.0257 37.8177,153.4767 C38.2857,153.9277 38.5187,154.4897 38.5187,155.1647 C38.5187,155.8397 38.2867,156.4017 37.8207,156.8507 C37.3547,157.2997 36.7717,157.5247 36.0727,157.5247 L34.3507,157.5247 L34.3507,160.1707 L33.4307,160.1707 L33.4307,152.8007 L36.0727,152.8007 Z" id="Fill-25" fill="#748494"></path>
                <path d="M41.7677,154.0755 L40.3547,157.5595 L43.2057,157.5595 L41.7677,154.0755 Z M44.2807,160.1705 L43.5507,158.4085 L40.0097,158.4085 L39.2897,160.1705 L38.3087,160.1705 L41.3207,152.8015 L42.1837,152.8015 L45.2837,160.1705 L44.2807,160.1705 Z" id="Fill-27" fill="#748494"></path>
                <path d="M47.1789,153.68 L47.1789,156.414 L49.0039,156.414 C49.4519,156.414 49.8159,156.286 50.0929,156.031 C50.3709,155.776 50.5099,155.448 50.5099,155.047 C50.5099,154.649 50.3699,154.322 50.0909,154.065 C49.8119,153.808 49.4499,153.68 49.0039,153.68 L47.1789,153.68 Z M50.5509,160.171 L48.8599,157.287 L47.1789,157.287 L47.1789,160.171 L46.2589,160.171 L46.2589,152.801 L49.0499,152.801 C49.7419,152.801 50.3149,153.013 50.7689,153.438 C51.2229,153.863 51.4499,154.403 51.4499,155.057 C51.4499,155.571 51.3029,156.017 51.0079,156.396 C50.7129,156.775 50.3199,157.036 49.8259,157.18 L51.5889,160.171 L50.5509,160.171 Z" id="Fill-29" fill="#748494"></path>
                <polygon id="Fill-31" fill="#748494" points="57.3244 152.8011 57.3244 153.6701 55.0834 153.6701 55.0834 160.1711 54.1584 160.1711 54.1584 153.6701 51.9174 153.6701 51.9174 152.8011"></polygon>
                <polygon id="Fill-33" fill="#748494" points="63.3117 152.8011 64.2167 152.8011 64.2167 160.1711 63.4407 160.1711 59.2477 154.4201 59.2477 160.1711 58.3417 160.1711 58.3417 152.8011 59.1747 152.8011 63.3117 158.4851"></polygon>
                <polygon id="Fill-35" fill="#748494" points="66.9299 159.287 70.2959 159.287 70.2959 160.171 66.0099 160.171 66.0099 152.801 70.1839 152.801 70.1839 153.68 66.9299 153.68 66.9299 155.956 69.9069 155.956 69.9069 156.81 66.9299 156.81"></polygon>
                <path d="M72.5363,153.68 L72.5363,156.414 L74.3613,156.414 C74.8093,156.414 75.1733,156.286 75.4503,156.031 C75.7283,155.776 75.8673,155.448 75.8673,155.047 C75.8673,154.649 75.7273,154.322 75.4483,154.065 C75.1693,153.808 74.8073,153.68 74.3613,153.68 L72.5363,153.68 Z M75.9083,160.171 L74.2173,157.287 L72.5363,157.287 L72.5363,160.171 L71.6163,160.171 L71.6163,152.801 L74.4073,152.801 C75.0993,152.801 75.6723,153.013 76.1263,153.438 C76.5803,153.863 76.8073,154.403 76.8073,155.057 C76.8073,155.571 76.6603,156.017 76.3653,156.396 C76.0703,156.775 75.6773,157.036 75.1833,157.18 L76.9463,160.171 L75.9083,160.171 Z" id="Fill-37" fill="#748494"></path>
                <path d="M34.7658,248.1336 C33.9508,248.1336 33.2928,247.9196 32.7938,247.4916 C32.2958,247.0636 32.0468,246.4886 32.0468,245.7696 L32.9878,245.7696 C32.9878,246.2186 33.1518,246.5736 33.4808,246.8366 C33.8098,247.0986 34.2348,247.2296 34.7548,247.2296 C35.2278,247.2296 35.6218,247.1136 35.9368,246.8826 C36.2518,246.6516 36.4108,246.3436 36.4108,245.9596 C36.4108,245.8676 36.3978,245.7796 36.3738,245.6956 C36.3498,245.6116 36.3228,245.5376 36.2918,245.4746 C36.2608,245.4106 36.2118,245.3496 36.1458,245.2916 C36.0778,245.2336 36.0188,245.1836 35.9648,245.1426 C35.9118,245.1016 35.8338,245.0596 35.7318,245.0166 C35.6288,244.9736 35.5458,244.9396 35.4828,244.9136 C35.4188,244.8886 35.3228,244.8586 35.1918,244.8236 C35.0618,244.7896 34.9638,244.7646 34.8988,244.7466 C34.8338,244.7296 34.7278,244.7046 34.5798,244.6696 C33.9538,244.5196 33.5038,244.3806 33.2338,244.2536 C32.6408,243.9696 32.2998,243.5426 32.2108,242.9736 C32.1938,242.8646 32.1858,242.7496 32.1858,242.6296 C32.1858,241.9956 32.4118,241.4956 32.8638,241.1296 C33.3168,240.7626 33.9258,240.5786 34.6938,240.5786 C35.4538,240.5786 36.0548,240.7756 36.4948,241.1676 C36.9348,241.5596 37.1558,242.0916 37.1558,242.7636 L36.2408,242.7636 C36.2408,242.3626 36.0938,242.0456 35.8008,241.8126 C35.5078,241.5796 35.1318,241.4636 34.6728,241.4636 C34.2168,241.4636 33.8428,241.5656 33.5498,241.7686 C33.2568,241.9726 33.1108,242.2456 33.1108,242.5886 C33.1108,242.7016 33.1278,242.8056 33.1638,242.8996 C33.2008,242.9936 33.2448,243.0756 33.2948,243.1466 C33.3468,243.2166 33.4218,243.2826 33.5218,243.3466 C33.6208,243.4096 33.7118,243.4616 33.7938,243.5006 C33.8758,243.5406 33.9908,243.5826 34.1358,243.6266 C34.2818,243.6716 34.4028,243.7056 34.4978,243.7296 C34.5938,243.7536 34.7278,243.7856 34.8988,243.8266 C35.5258,243.9816 35.9748,244.1216 36.2448,244.2486 C36.8558,244.5296 37.2148,244.9526 37.3248,245.5176 C37.3518,245.6546 37.3658,245.7996 37.3658,245.9496 C37.3658,246.4016 37.2498,246.7956 37.0188,247.1296 C36.7868,247.4636 36.4778,247.7146 36.0888,247.8826 C35.6998,248.0496 35.2588,248.1336 34.7658,248.1336" id="Fill-39" fill="#748494"></path>
                <polygon id="Fill-41" fill="#748494" points="44.0265 240.6717 41.3075 245.1017 41.3075 248.0417 40.3575 248.0417 40.3575 245.1017 37.6595 240.6717 38.6665 240.6717 40.8355 244.2337 43.0135 240.6717"></polygon>
                <path d="M47.0334,248.1336 C46.2184,248.1336 45.5604,247.9196 45.0614,247.4916 C44.5634,247.0636 44.3144,246.4886 44.3144,245.7696 L45.2554,245.7696 C45.2554,246.2186 45.4194,246.5736 45.7484,246.8366 C46.0774,247.0986 46.5024,247.2296 47.0224,247.2296 C47.4954,247.2296 47.8894,247.1136 48.2044,246.8826 C48.5194,246.6516 48.6784,246.3436 48.6784,245.9596 C48.6784,245.8676 48.6654,245.7796 48.6414,245.6956 C48.6174,245.6116 48.5904,245.5376 48.5594,245.4746 C48.5284,245.4106 48.4794,245.3496 48.4134,245.2916 C48.3454,245.2336 48.2864,245.1836 48.2324,245.1426 C48.1794,245.1016 48.1014,245.0596 47.9994,245.0166 C47.8964,244.9736 47.8134,244.9396 47.7504,244.9136 C47.6864,244.8886 47.5904,244.8586 47.4594,244.8236 C47.3294,244.7896 47.2314,244.7646 47.1664,244.7466 C47.1014,244.7296 46.9954,244.7046 46.8474,244.6696 C46.2214,244.5196 45.7714,244.3806 45.5014,244.2536 C44.9084,243.9696 44.5674,243.5426 44.4784,242.9736 C44.4614,242.8646 44.4534,242.7496 44.4534,242.6296 C44.4534,241.9956 44.6794,241.4956 45.1314,241.1296 C45.5844,240.7626 46.1934,240.5786 46.9614,240.5786 C47.7214,240.5786 48.3224,240.7756 48.7624,241.1676 C49.2024,241.5596 49.4234,242.0916 49.4234,242.7636 L48.5084,242.7636 C48.5084,242.3626 48.3614,242.0456 48.0684,241.8126 C47.7754,241.5796 47.3994,241.4636 46.9404,241.4636 C46.4844,241.4636 46.1104,241.5656 45.8174,241.7686 C45.5244,241.9726 45.3784,242.2456 45.3784,242.5886 C45.3784,242.7016 45.3954,242.8056 45.4314,242.8996 C45.4684,242.9936 45.5124,243.0756 45.5624,243.1466 C45.6144,243.2166 45.6894,243.2826 45.7894,243.3466 C45.8884,243.4096 45.9794,243.4616 46.0614,243.5006 C46.1434,243.5406 46.2584,243.5826 46.4034,243.6266 C46.5494,243.6716 46.6704,243.7056 46.7654,243.7296 C46.8614,243.7536 46.9954,243.7856 47.1664,243.8266 C47.7934,243.9816 48.2424,244.1216 48.5124,244.2486 C49.1234,244.5296 49.4824,244.9526 49.5924,245.5176 C49.6194,245.6546 49.6334,245.7996 49.6334,245.9496 C49.6334,246.4016 49.5174,246.7956 49.2864,247.1296 C49.0544,247.4636 48.7454,247.7146 48.3564,247.8826 C47.9674,248.0496 47.5264,248.1336 47.0334,248.1336" id="Fill-43" fill="#748494"></path>
                <polygon id="Fill-45" fill="#748494" points="55.4113 240.6717 55.4113 241.5407 53.1703 241.5407 53.1703 248.0417 52.2453 248.0417 52.2453 241.5407 50.0043 241.5407 50.0043 240.6717"></polygon>
                <polygon id="Fill-47" fill="#748494" points="57.3478 247.1576 60.7138 247.1576 60.7138 248.0416 56.4278 248.0416 56.4278 240.6716 60.6018 240.6716 60.6018 241.5506 57.3478 241.5506 57.3478 243.8266 60.3248 243.8266 60.3248 244.6806 57.3478 244.6806"></polygon>
                <polygon id="Fill-49" fill="#748494" points="70.6291 248.0413 69.6881 248.0413 68.7271 242.2853 66.1891 247.8513 65.9421 247.8513 63.3981 242.2903 62.4321 248.0413 61.4911 248.0413 62.7301 240.6713 63.6241 240.6713 66.0551 246.0783 68.5011 240.6713 69.4101 240.6713"></polygon>
                <path d="M37.4552,254.5765 L36.0422,258.0605 L38.8932,258.0605 L37.4552,254.5765 Z M39.9682,260.6715 L39.2382,258.9095 L35.6972,258.9095 L34.9772,260.6715 L33.9962,260.6715 L37.0082,253.3025 L37.8712,253.3025 L40.9712,260.6715 L39.9682,260.6715 Z" id="Fill-51" fill="#748494"></path>
                <path d="M44.3722,259.8084 C45.1942,259.8084 45.8702,259.5414 46.4002,259.0094 C46.9302,258.4764 47.1942,257.8024 47.1942,256.9864 C47.1942,256.4494 47.0752,255.9664 46.8372,255.5374 C46.5992,255.1094 46.2652,254.7744 45.8352,254.5334 C45.4042,254.2914 44.9172,254.1704 44.3722,254.1704 L42.8662,254.1704 L42.8662,259.8084 L44.3722,259.8084 Z M44.4032,253.3024 C45.1162,253.3024 45.7582,253.4594 46.3282,253.7744 C46.8982,254.0904 47.3432,254.5284 47.6612,255.0904 C47.9802,255.6524 48.1402,256.2844 48.1402,256.9864 C48.1402,257.6894 47.9802,258.3214 47.6612,258.8834 C47.3432,259.4454 46.8982,259.8834 46.3282,260.1994 C45.7582,260.5144 45.1162,260.6714 44.4032,260.6714 L41.9462,260.6714 L41.9462,253.3024 L44.4032,253.3024 Z" id="Fill-53" fill="#748494"></path>
                <polygon id="Fill-55" fill="#748494" points="57.9826 260.6717 57.0416 260.6717 56.0806 254.9157 53.5426 260.4817 53.2956 260.4817 50.7516 254.9207 49.7856 260.6717 48.8446 260.6717 50.0836 253.3017 50.9776 253.3017 53.4086 258.7087 55.8546 253.3017 56.7636 253.3017"></polygon>
                <mask id="mask-2" fill="white">
                    <use xlink:href="#path-1"></use>
                </mask>
                <g id="Clip-58"></g>
                <polygon id="Fill-57" fill="#748494" mask="url(#mask-2)" points="59.246 260.672 60.166 260.672 60.166 253.302 59.246 253.302"></polygon>
                <polygon id="Fill-59" fill="#748494" mask="url(#mask-2)" points="66.9396 253.3021 67.8446 253.3021 67.8446 260.6721 67.0686 260.6721 62.8756 254.9211 62.8756 260.6721 61.9696 260.6721 61.9696 253.3021 62.8026 253.3021 66.9396 258.9861"></polygon>
                <path d="M391.9328,243.3309 C392.3848,243.3309 392.7568,243.1919 393.0478,242.9149 C393.3388,242.6369 393.4848,242.2879 393.4848,241.8659 C393.4848,241.4449 393.3388,241.0949 393.0478,240.8149 C392.7568,240.5359 392.3848,240.3959 391.9328,240.3959 L390.2618,240.3959 L390.2618,243.3309 L391.9328,243.3309 Z M391.9838,239.5019 C392.6798,239.5019 393.2608,239.7269 393.7288,240.1779 C394.1968,240.6289 394.4298,241.1909 394.4298,241.8659 C394.4298,242.5409 394.1978,243.1029 393.7318,243.5519 C393.2658,244.0009 392.6828,244.2259 391.9838,244.2259 L390.2618,244.2259 L390.2618,246.8719 L389.3418,246.8719 L389.3418,239.5019 L391.9838,239.5019 Z" id="Fill-60" fill="#748494" mask="url(#mask-2)"></path>
                <path d="M396.4699,240.3812 L396.4699,243.1152 L398.2949,243.1152 C398.7429,243.1152 399.1069,242.9872 399.3839,242.7322 C399.6619,242.4772 399.8009,242.1492 399.8009,241.7482 C399.8009,241.3502 399.6609,241.0232 399.3819,240.7662 C399.1029,240.5092 398.7409,240.3812 398.2949,240.3812 L396.4699,240.3812 Z M399.8419,246.8722 L398.1509,243.9882 L396.4699,243.9882 L396.4699,246.8722 L395.5499,246.8722 L395.5499,239.5022 L398.3409,239.5022 C399.0329,239.5022 399.6059,239.7142 400.0599,240.1392 C400.5139,240.5642 400.7409,241.1042 400.7409,241.7582 C400.7409,242.2722 400.5939,242.7182 400.2989,243.0972 C400.0039,243.4762 399.6109,243.7372 399.1169,243.8812 L400.8799,246.8722 L399.8419,246.8722 Z" id="Fill-61" fill="#748494" mask="url(#mask-2)"></path>
                <path d="M405.465,246.0907 C406.017,246.0907 406.515,245.9647 406.96,245.7137 C407.405,245.4617 407.753,245.1137 408.003,244.6697 C408.253,244.2257 408.379,243.7317 408.379,243.1867 C408.379,242.6427 408.253,242.1487 408.003,241.7047 C407.753,241.2607 407.405,240.9127 406.96,240.6607 C406.515,240.4097 406.017,240.2837 405.465,240.2837 C404.916,240.2837 404.42,240.4097 403.975,240.6637 C403.528,240.9177 403.181,241.2647 402.931,241.7067 C402.681,242.1487 402.556,242.6427 402.556,243.1867 C402.556,243.7317 402.681,244.2257 402.931,244.6677 C403.181,245.1097 403.528,245.4567 403.975,245.7107 C404.42,245.9647 404.916,246.0907 405.465,246.0907 M407.448,246.4997 C406.86,246.8297 406.197,246.9957 405.465,246.9957 C404.732,246.9957 404.071,246.8297 403.484,246.4997 C402.896,246.1687 402.437,245.7137 402.107,245.1327 C401.776,244.5517 401.611,243.9027 401.611,243.1867 C401.611,242.4707 401.776,241.8227 402.107,241.2417 C402.437,240.6607 402.896,240.2057 403.484,239.8747 C404.071,239.5447 404.732,239.3787 405.465,239.3787 C406.197,239.3787 406.86,239.5447 407.448,239.8747 C408.037,240.2057 408.497,240.6607 408.828,241.2417 C409.159,241.8227 409.324,242.4707 409.324,243.1867 C409.324,243.9027 409.159,244.5517 408.828,245.1327 C408.497,245.7137 408.037,246.1687 407.448,246.4997" id="Fill-62" fill="#748494" mask="url(#mask-2)"></path>
                <path d="M413.05,246.0086 C413.872,246.0086 414.548,245.7416 415.078,245.2096 C415.608,244.6766 415.872,244.0026 415.872,243.1866 C415.872,242.6496 415.753,242.1666 415.515,241.7376 C415.277,241.3096 414.943,240.9746 414.513,240.7336 C414.082,240.4916 413.595,240.3706 413.05,240.3706 L411.544,240.3706 L411.544,246.0086 L413.05,246.0086 Z M413.081,239.5026 C413.794,239.5026 414.436,239.6596 415.006,239.9746 C415.576,240.2906 416.021,240.7286 416.339,241.2906 C416.658,241.8526 416.818,242.4846 416.818,243.1866 C416.818,243.8896 416.658,244.5216 416.339,245.0836 C416.021,245.6456 415.576,246.0836 415.006,246.3996 C414.436,246.7146 413.794,246.8716 413.081,246.8716 L410.624,246.8716 L410.624,239.5026 L413.081,239.5026 Z" id="Fill-63" fill="#748494" mask="url(#mask-2)"></path>
                <path d="M420.9396,246.9954 C420.1036,246.9954 419.4116,246.7264 418.8636,246.1884 C418.3156,245.6504 418.0416,244.9634 418.0416,244.1274 L418.0416,239.5024 L418.9766,239.5024 L418.9766,244.0604 C418.9766,244.6634 419.1596,245.1524 419.5236,245.5284 C419.8886,245.9034 420.3606,246.0904 420.9396,246.0904 C421.5116,246.0904 421.9806,245.9034 422.3446,245.5284 C422.7106,245.1524 422.8926,244.6634 422.8926,244.0604 L422.8926,239.5024 L423.8286,239.5024 L423.8286,244.1274 C423.8286,244.6794 423.7036,245.1744 423.4536,245.6124 C423.2026,246.0514 422.8576,246.3914 422.4176,246.6334 C421.9766,246.8744 421.4846,246.9954 420.9396,246.9954" id="Fill-64" fill="#748494" mask="url(#mask-2)"></path>
                <path d="M428.8078,246.9852 C428.0878,246.9852 427.4408,246.8232 426.8648,246.4992 C426.2888,246.1752 425.8398,245.7242 425.5158,245.1452 C425.1928,244.5662 425.0308,243.9132 425.0308,243.1872 C425.0308,242.4612 425.1928,241.8082 425.5158,241.2292 C425.8398,240.6502 426.2888,240.1982 426.8648,239.8752 C427.4408,239.5512 428.0878,239.3892 428.8078,239.3892 C429.6608,239.3892 430.4028,239.6252 431.0328,240.0962 C431.6628,240.5672 432.0838,241.2002 432.2968,241.9952 L431.3568,241.9952 C431.1618,241.4642 430.8378,241.0472 430.3878,240.7462 C429.9378,240.4442 429.4108,240.2942 428.8078,240.2942 C427.9818,240.2942 427.3038,240.5642 426.7728,241.1062 C426.2418,241.6472 425.9758,242.3402 425.9758,243.1872 C425.9758,244.0332 426.2418,244.7272 426.7728,245.2682 C427.3038,245.8102 427.9818,246.0802 428.8078,246.0802 C429.4278,246.0802 429.9658,245.9202 430.4208,245.6002 C430.8768,245.2792 431.2008,244.8372 431.3928,244.2712 L432.3328,244.2712 C432.1238,245.1042 431.7018,245.7642 431.0668,246.2532 C430.4308,246.7412 429.6778,246.9852 428.8078,246.9852" id="Fill-65" fill="#748494" mask="url(#mask-2)"></path>
                <polygon id="Fill-66" fill="#748494" mask="url(#mask-2)" points="437.9924 239.5023 437.9924 240.3713 435.7514 240.3713 435.7514 246.8723 434.8264 246.8723 434.8264 240.3713 432.5854 240.3713 432.5854 239.5023"></polygon>
                <path d="M397.9484,258.721 C398.5004,258.721 398.9984,258.595 399.4434,258.344 C399.8884,258.092 400.2364,257.744 400.4864,257.3 C400.7364,256.856 400.8624,256.362 400.8624,255.817 C400.8624,255.273 400.7364,254.779 400.4864,254.335 C400.2364,253.891 399.8884,253.543 399.4434,253.291 C398.9984,253.04 398.5004,252.914 397.9484,252.914 C397.3994,252.914 396.9034,253.04 396.4584,253.294 C396.0114,253.548 395.6644,253.895 395.4144,254.337 C395.1644,254.779 395.0394,255.273 395.0394,255.817 C395.0394,256.362 395.1644,256.856 395.4144,257.298 C395.6644,257.74 396.0114,258.087 396.4584,258.341 C396.9034,258.595 397.3994,258.721 397.9484,258.721 M399.9314,259.13 C399.3434,259.46 398.6804,259.626 397.9484,259.626 C397.2154,259.626 396.5544,259.46 395.9674,259.13 C395.3794,258.799 394.9204,258.344 394.5904,257.763 C394.2594,257.182 394.0944,256.533 394.0944,255.817 C394.0944,255.101 394.2594,254.453 394.5904,253.872 C394.9204,253.291 395.3794,252.836 395.9674,252.505 C396.5544,252.175 397.2154,252.009 397.9484,252.009 C398.6804,252.009 399.3434,252.175 399.9314,252.505 C400.5204,252.836 400.9804,253.291 401.3114,253.872 C401.6424,254.453 401.8074,255.101 401.8074,255.817 C401.8074,256.533 401.6424,257.182 401.3114,257.763 C400.9804,258.344 400.5204,258.799 399.9314,259.13" id="Fill-67" fill="#748494" mask="url(#mask-2)"></path>
                <polygon id="Fill-68" fill="#748494" mask="url(#mask-2)" points="411.5471 252.1327 412.5241 252.1327 410.2001 259.5027 409.3831 259.5027 407.3591 254.2657 405.3801 259.5027 404.5681 259.5027 402.1931 252.1327 403.1751 252.1327 405.0101 257.9867 407.1681 252.2767 407.5381 252.2767 409.7581 257.9917"></polygon>
                <polygon id="Fill-69" fill="#748494" mask="url(#mask-2)" points="418.5363 252.1327 419.4413 252.1327 419.4413 259.5027 418.6653 259.5027 414.4723 253.7517 414.4723 259.5027 413.5663 259.5027 413.5663 252.1327 414.3993 252.1327 418.5363 257.8167"></polygon>
                <polygon id="Fill-70" fill="#748494" mask="url(#mask-2)" points="422.1545 258.6185 425.5205 258.6185 425.5205 259.5025 421.2345 259.5025 421.2345 252.1325 425.4085 252.1325 425.4085 253.0115 422.1545 253.0115 422.1545 255.2875 425.1315 255.2875 425.1315 256.1415 422.1545 256.1415"></polygon>
                <path d="M427.7609,253.0116 L427.7609,255.7456 L429.5859,255.7456 C430.0339,255.7456 430.3979,255.6176 430.6749,255.3626 C430.9529,255.1076 431.0919,254.7796 431.0919,254.3786 C431.0919,253.9806 430.9519,253.6536 430.6729,253.3966 C430.3939,253.1396 430.0319,253.0116 429.5859,253.0116 L427.7609,253.0116 Z M431.1329,259.5026 L429.4419,256.6186 L427.7609,256.6186 L427.7609,259.5026 L426.8409,259.5026 L426.8409,252.1326 L429.6319,252.1326 C430.3239,252.1326 430.8969,252.3446 431.3509,252.7696 C431.8049,253.1946 432.0319,253.7346 432.0319,254.3886 C432.0319,254.9026 431.8849,255.3486 431.5899,255.7276 C431.2949,256.1066 430.9019,256.3676 430.4079,256.5116 L432.1709,259.5026 L431.1329,259.5026 Z" id="Fill-71" fill="#748494" mask="url(#mask-2)"></path>
                <polygon id="Fill-72" fill="#748494" mask="url(#mask-2)" points="410.2092 151.8475 410.2092 152.7165 407.9682 152.7165 407.9682 159.2175 407.0432 159.2175 407.0432 152.7165 404.8022 152.7165 404.8022 151.8475"></polygon>
                <polygon id="Fill-73" fill="#748494" mask="url(#mask-2)" points="412.1457 158.3333 415.5117 158.3333 415.5117 159.2173 411.2257 159.2173 411.2257 151.8473 415.3997 151.8473 415.3997 152.7263 412.1457 152.7263 412.1457 155.0023 415.1227 155.0023 415.1227 155.8563 412.1457 155.8563"></polygon>
                <path d="M419.465,153.1219 L418.052,156.6059 L420.903,156.6059 L419.465,153.1219 Z M421.978,159.2169 L421.248,157.4549 L417.707,157.4549 L416.987,159.2169 L416.006,159.2169 L419.018,151.8479 L419.881,151.8479 L422.981,159.2169 L421.978,159.2169 Z" id="Fill-74" fill="#748494" mask="url(#mask-2)"></path>
                <polygon id="Fill-75" fill="#748494" mask="url(#mask-2)" points="432.55 159.2171 431.609 159.2171 430.648 153.4611 428.11 159.0271 427.863 159.0271 425.319 153.4661 424.353 159.2171 423.412 159.2171 424.651 151.8471 425.545 151.8471 427.976 157.2541 430.422 151.8471 431.331 151.8471"></polygon>
                <polygon id="Fill-76" fill="#748494" mask="url(#mask-2)" points="401.8312 170.9842 405.0692 170.9842 405.0692 171.8472 400.9112 171.8472 400.9112 164.4782 401.8312 164.4782"></polygon>
                <polygon id="Fill-77" fill="#748494" mask="url(#mask-2)" points="407.007 170.9637 410.373 170.9637 410.373 171.8477 406.087 171.8477 406.087 164.4777 410.261 164.4777 410.261 165.3567 407.007 165.3567 407.007 167.6327 409.984 167.6327 409.984 168.4867 407.007 168.4867"></polygon>
                <path d="M414.3254,165.7523 L412.9124,169.2363 L415.7634,169.2363 L414.3254,165.7523 Z M416.8384,171.8473 L416.1084,170.0853 L412.5674,170.0853 L411.8474,171.8473 L410.8664,171.8473 L413.8784,164.4783 L414.7414,164.4783 L417.8414,171.8473 L416.8384,171.8473 Z" id="Fill-78" fill="#748494" mask="url(#mask-2)"></path>
                <path d="M421.2433,170.9842 C422.0653,170.9842 422.7413,170.7172 423.2713,170.1852 C423.8013,169.6522 424.0653,168.9782 424.0653,168.1622 C424.0653,167.6252 423.9463,167.1422 423.7083,166.7132 C423.4703,166.2852 423.1363,165.9502 422.7063,165.7092 C422.2753,165.4672 421.7883,165.3462 421.2433,165.3462 L419.7373,165.3462 L419.7373,170.9842 L421.2433,170.9842 Z M421.2743,164.4782 C421.9873,164.4782 422.6293,164.6352 423.1993,164.9502 C423.7693,165.2662 424.2143,165.7042 424.5323,166.2662 C424.8513,166.8282 425.0113,167.4602 425.0113,168.1622 C425.0113,168.8652 424.8513,169.4972 424.5323,170.0592 C424.2143,170.6212 423.7693,171.0592 423.1993,171.3752 C422.6293,171.6902 421.9873,171.8472 421.2743,171.8472 L418.8173,171.8472 L418.8173,164.4782 L421.2743,164.4782 Z" id="Fill-79" fill="#748494" mask="url(#mask-2)"></path>
                <polygon id="Fill-80" fill="#748494" mask="url(#mask-2)" points="427.2404 170.9637 430.6064 170.9637 430.6064 171.8477 426.3204 171.8477 426.3204 164.4777 430.4944 164.4777 430.4944 165.3567 427.2404 165.3567 427.2404 167.6327 430.2174 167.6327 430.2174 168.4867 427.2404 168.4867"></polygon>
                <path d="M432.8478,165.3568 L432.8478,168.0908 L434.6728,168.0908 C435.1208,168.0908 435.4848,167.9628 435.7618,167.7078 C436.0398,167.4528 436.1788,167.1248 436.1788,166.7238 C436.1788,166.3258 436.0388,165.9988 435.7598,165.7418 C435.4808,165.4848 435.1188,165.3568 434.6728,165.3568 L432.8478,165.3568 Z M436.2198,171.8478 L434.5288,168.9638 L432.8478,168.9638 L432.8478,171.8478 L431.9278,171.8478 L431.9278,164.4778 L434.7188,164.4778 C435.4108,164.4778 435.9838,164.6898 436.4378,165.1148 C436.8918,165.5398 437.1188,166.0798 437.1188,166.7338 C437.1188,167.2478 436.9718,167.6938 436.6768,168.0728 C436.3818,168.4518 435.9888,168.7128 435.4948,168.8568 L437.2578,171.8478 L436.2198,171.8478 Z" id="Fill-81" fill="#748494" mask="url(#mask-2)"></path>
                <path d="M135.4006,194.0116 C135.7706,194.0116 136.0776,193.8956 136.3206,193.6646 C136.5636,193.4326 136.6846,193.1426 136.6846,192.7936 C136.6846,192.4476 136.5626,192.1576 136.3176,191.9246 C136.0726,191.6916 135.7666,191.5756 135.4006,191.5756 L133.3756,191.5756 L133.3756,194.0116 L135.4006,194.0116 Z M136.5046,189.5656 C136.5046,189.2546 136.3936,188.9916 136.1716,188.7796 C135.9486,188.5676 135.6736,188.4606 135.3486,188.4606 L133.3756,188.4606 L133.3756,190.6706 L135.3536,190.6706 C135.6796,190.6706 135.9526,190.5636 136.1736,190.3496 C136.3946,190.1356 136.5046,189.8746 136.5046,189.5656 Z M136.5416,191.1026 C136.8796,191.2496 137.1486,191.4846 137.3456,191.8066 C137.5426,192.1286 137.6406,192.4916 137.6406,192.8966 C137.6406,193.4686 137.4266,193.9496 136.9986,194.3406 C136.5706,194.7306 136.0416,194.9266 135.4106,194.9266 L132.4606,194.9266 L132.4606,187.5566 L135.3696,187.5566 C135.9686,187.5566 136.4646,187.7366 136.8576,188.0956 C137.2496,188.4556 137.4456,188.9046 137.4456,189.4426 C137.4456,189.7786 137.3636,190.0986 137.1996,190.4036 C137.0346,190.7086 136.8156,190.9416 136.5416,191.1026 Z" id="Fill-82" fill="#748494" mask="url(#mask-2)"></path>
                <path d="M141.8449,195.0496 C141.0089,195.0496 140.3169,194.7806 139.7689,194.2426 C139.2209,193.7046 138.9469,193.0176 138.9469,192.1816 L138.9469,187.5566 L139.8819,187.5566 L139.8819,192.1146 C139.8819,192.7176 140.0649,193.2066 140.4289,193.5826 C140.7939,193.9576 141.2659,194.1446 141.8449,194.1446 C142.4169,194.1446 142.8859,193.9576 143.2499,193.5826 C143.6159,193.2066 143.7979,192.7176 143.7979,192.1146 L143.7979,187.5566 L144.7339,187.5566 L144.7339,192.1816 C144.7339,192.7336 144.6089,193.2286 144.3589,193.6666 C144.1079,194.1056 143.7629,194.4456 143.3229,194.6876 C142.8819,194.9286 142.3899,195.0496 141.8449,195.0496" id="Fill-83" fill="#748494" mask="url(#mask-2)"></path>
                <path d="M148.6349,195.0184 C147.8199,195.0184 147.1619,194.8044 146.6629,194.3764 C146.1649,193.9484 145.9159,193.3734 145.9159,192.6544 L146.8569,192.6544 C146.8569,193.1034 147.0209,193.4584 147.3499,193.7214 C147.6789,193.9834 148.1039,194.1144 148.6239,194.1144 C149.0969,194.1144 149.4909,193.9984 149.8059,193.7674 C150.1209,193.5364 150.2799,193.2284 150.2799,192.8444 C150.2799,192.7524 150.2669,192.6644 150.2429,192.5804 C150.2189,192.4964 150.1919,192.4224 150.1609,192.3594 C150.1299,192.2954 150.0809,192.2344 150.0149,192.1764 C149.9469,192.1184 149.8879,192.0684 149.8339,192.0274 C149.7809,191.9864 149.7029,191.9444 149.6009,191.9014 C149.4979,191.8584 149.4149,191.8244 149.3519,191.7984 C149.2879,191.7734 149.1919,191.7434 149.0609,191.7084 C148.9309,191.6744 148.8329,191.6494 148.7679,191.6314 C148.7029,191.6144 148.5969,191.5894 148.4489,191.5544 C147.8229,191.4044 147.3729,191.2654 147.1029,191.1384 C146.5099,190.8544 146.1689,190.4274 146.0799,189.8584 C146.0629,189.7494 146.0549,189.6344 146.0549,189.5144 C146.0549,188.8804 146.2809,188.3804 146.7329,188.0144 C147.1859,187.6474 147.7949,187.4634 148.5629,187.4634 C149.3229,187.4634 149.9239,187.6604 150.3639,188.0524 C150.8039,188.4444 151.0249,188.9764 151.0249,189.6484 L150.1099,189.6484 C150.1099,189.2474 149.9629,188.9304 149.6699,188.6974 C149.3769,188.4644 149.0009,188.3484 148.5419,188.3484 C148.0859,188.3484 147.7119,188.4504 147.4189,188.6534 C147.1259,188.8574 146.9799,189.1304 146.9799,189.4734 C146.9799,189.5864 146.9969,189.6904 147.0329,189.7844 C147.0699,189.8784 147.1139,189.9604 147.1639,190.0314 C147.2159,190.1014 147.2909,190.1674 147.3909,190.2314 C147.4899,190.2944 147.5809,190.3464 147.6629,190.3854 C147.7449,190.4254 147.8599,190.4674 148.0049,190.5114 C148.1509,190.5564 148.2719,190.5904 148.3669,190.6144 C148.4629,190.6384 148.5969,190.6704 148.7679,190.7114 C149.3949,190.8664 149.8439,191.0064 150.1139,191.1334 C150.7249,191.4144 151.0839,191.8374 151.1939,192.4024 C151.2209,192.5394 151.2349,192.6844 151.2349,192.8344 C151.2349,193.2864 151.1189,193.6804 150.8879,194.0144 C150.6559,194.3484 150.3469,194.5994 149.9579,194.7674 C149.5689,194.9344 149.1279,195.0184 148.6349,195.0184" id="Fill-84" fill="#748494" mask="url(#mask-2)"></path>
                <polygon id="Fill-85" fill="#748494" mask="url(#mask-2)" points="152.509 194.926 153.429 194.926 153.429 187.556 152.509 187.556"></polygon>
                <polygon id="Fill-86" fill="#748494" mask="url(#mask-2)" points="160.2023 187.5565 161.1073 187.5565 161.1073 194.9265 160.3313 194.9265 156.1383 189.1755 156.1383 194.9265 155.2323 194.9265 155.2323 187.5565 156.0653 187.5565 160.2023 193.2405"></polygon>
                <polygon id="Fill-87" fill="#748494" mask="url(#mask-2)" points="163.8205 194.0423 167.1865 194.0423 167.1865 194.9263 162.9005 194.9263 162.9005 187.5563 167.0745 187.5563 167.0745 188.4353 163.8205 188.4353 163.8205 190.7113 166.7975 190.7113 166.7975 191.5653 163.8205 191.5653"></polygon>
                <path d="M170.7033,195.0184 C169.8883,195.0184 169.2303,194.8044 168.7313,194.3764 C168.2333,193.9484 167.9843,193.3734 167.9843,192.6544 L168.9253,192.6544 C168.9253,193.1034 169.0893,193.4584 169.4183,193.7214 C169.7473,193.9834 170.1723,194.1144 170.6923,194.1144 C171.1653,194.1144 171.5593,193.9984 171.8743,193.7674 C172.1893,193.5364 172.3483,193.2284 172.3483,192.8444 C172.3483,192.7524 172.3353,192.6644 172.3113,192.5804 C172.2873,192.4964 172.2603,192.4224 172.2293,192.3594 C172.1983,192.2954 172.1493,192.2344 172.0833,192.1764 C172.0153,192.1184 171.9563,192.0684 171.9023,192.0274 C171.8493,191.9864 171.7713,191.9444 171.6693,191.9014 C171.5663,191.8584 171.4833,191.8244 171.4203,191.7984 C171.3563,191.7734 171.2603,191.7434 171.1293,191.7084 C170.9993,191.6744 170.9013,191.6494 170.8363,191.6314 C170.7713,191.6144 170.6653,191.5894 170.5173,191.5544 C169.8913,191.4044 169.4413,191.2654 169.1713,191.1384 C168.5783,190.8544 168.2373,190.4274 168.1483,189.8584 C168.1313,189.7494 168.1233,189.6344 168.1233,189.5144 C168.1233,188.8804 168.3493,188.3804 168.8013,188.0144 C169.2543,187.6474 169.8633,187.4634 170.6313,187.4634 C171.3913,187.4634 171.9923,187.6604 172.4323,188.0524 C172.8723,188.4444 173.0933,188.9764 173.0933,189.6484 L172.1783,189.6484 C172.1783,189.2474 172.0313,188.9304 171.7383,188.6974 C171.4453,188.4644 171.0693,188.3484 170.6103,188.3484 C170.1543,188.3484 169.7803,188.4504 169.4873,188.6534 C169.1943,188.8574 169.0483,189.1304 169.0483,189.4734 C169.0483,189.5864 169.0653,189.6904 169.1013,189.7844 C169.1383,189.8784 169.1823,189.9604 169.2323,190.0314 C169.2843,190.1014 169.3593,190.1674 169.4593,190.2314 C169.5583,190.2944 169.6493,190.3464 169.7313,190.3854 C169.8133,190.4254 169.9283,190.4674 170.0733,190.5114 C170.2193,190.5564 170.3403,190.5904 170.4353,190.6144 C170.5313,190.6384 170.6653,190.6704 170.8363,190.7114 C171.4633,190.8664 171.9123,191.0064 172.1823,191.1334 C172.7933,191.4144 173.1523,191.8374 173.2623,192.4024 C173.2893,192.5394 173.3033,192.6844 173.3033,192.8344 C173.3033,193.2864 173.1873,193.6804 172.9563,194.0144 C172.7243,194.3484 172.4153,194.5994 172.0263,194.7674 C171.6373,194.9344 171.1963,195.0184 170.7033,195.0184" id="Fill-88" fill="#748494" mask="url(#mask-2)"></path>
                <path d="M176.7726,195.0184 C175.9576,195.0184 175.2996,194.8044 174.8006,194.3764 C174.3026,193.9484 174.0536,193.3734 174.0536,192.6544 L174.9946,192.6544 C174.9946,193.1034 175.1586,193.4584 175.4876,193.7214 C175.8166,193.9834 176.2416,194.1144 176.7616,194.1144 C177.2346,194.1144 177.6286,193.9984 177.9436,193.7674 C178.2586,193.5364 178.4176,193.2284 178.4176,192.8444 C178.4176,192.7524 178.4046,192.6644 178.3806,192.5804 C178.3566,192.4964 178.3296,192.4224 178.2986,192.3594 C178.2676,192.2954 178.2186,192.2344 178.1526,192.1764 C178.0846,192.1184 178.0256,192.0684 177.9716,192.0274 C177.9186,191.9864 177.8406,191.9444 177.7386,191.9014 C177.6356,191.8584 177.5526,191.8244 177.4896,191.7984 C177.4256,191.7734 177.3296,191.7434 177.1986,191.7084 C177.0686,191.6744 176.9706,191.6494 176.9056,191.6314 C176.8406,191.6144 176.7346,191.5894 176.5866,191.5544 C175.9606,191.4044 175.5106,191.2654 175.2406,191.1384 C174.6476,190.8544 174.3066,190.4274 174.2176,189.8584 C174.2006,189.7494 174.1926,189.6344 174.1926,189.5144 C174.1926,188.8804 174.4186,188.3804 174.8706,188.0144 C175.3236,187.6474 175.9326,187.4634 176.7006,187.4634 C177.4606,187.4634 178.0616,187.6604 178.5016,188.0524 C178.9416,188.4444 179.1626,188.9764 179.1626,189.6484 L178.2476,189.6484 C178.2476,189.2474 178.1006,188.9304 177.8076,188.6974 C177.5146,188.4644 177.1386,188.3484 176.6796,188.3484 C176.2236,188.3484 175.8496,188.4504 175.5566,188.6534 C175.2636,188.8574 175.1176,189.1304 175.1176,189.4734 C175.1176,189.5864 175.1346,189.6904 175.1706,189.7844 C175.2076,189.8784 175.2516,189.9604 175.3016,190.0314 C175.3536,190.1014 175.4286,190.1674 175.5286,190.2314 C175.6276,190.2944 175.7186,190.3464 175.8006,190.3854 C175.8826,190.4254 175.9976,190.4674 176.1426,190.5114 C176.2886,190.5564 176.4096,190.5904 176.5046,190.6144 C176.6006,190.6384 176.7346,190.6704 176.9056,190.7114 C177.5326,190.8664 177.9816,191.0064 178.2516,191.1334 C178.8626,191.4144 179.2216,191.8374 179.3316,192.4024 C179.3586,192.5394 179.3726,192.6844 179.3726,192.8344 C179.3726,193.2864 179.2566,193.6804 179.0256,194.0144 C178.7936,194.3484 178.4846,194.5994 178.0956,194.7674 C177.7066,194.9344 177.2656,195.0184 176.7726,195.0184" id="Fill-89" fill="#748494" mask="url(#mask-2)"></path>
                <path d="M137.259,201.4613 L135.846,204.9453 L138.697,204.9453 L137.259,201.4613 Z M139.772,207.5563 L139.042,205.7943 L135.501,205.7943 L134.781,207.5563 L133.8,207.5563 L136.812,200.1873 L137.675,200.1873 L140.775,207.5563 L139.772,207.5563 Z" id="Fill-90" fill="#748494" mask="url(#mask-2)"></path>
                <polygon id="Fill-91" fill="#748494" mask="url(#mask-2)" points="146.7199 200.1869 147.6249 200.1869 147.6249 207.5569 146.8489 207.5569 142.6559 201.8059 142.6559 207.5569 141.7499 207.5569 141.7499 200.1869 142.5829 200.1869 146.7199 205.8709"></polygon>
                <path d="M152.05,201.4613 L150.637,204.9453 L153.488,204.9453 L152.05,201.4613 Z M154.563,207.5563 L153.833,205.7943 L150.292,205.7943 L149.572,207.5563 L148.591,207.5563 L151.603,200.1873 L152.466,200.1873 L155.566,207.5563 L154.563,207.5563 Z" id="Fill-92" fill="#748494" mask="url(#mask-2)"></path>
                <polygon id="Fill-93" fill="#748494" mask="url(#mask-2)" points="157.4611 206.6932 160.6991 206.6932 160.6991 207.5562 156.5411 207.5562 156.5411 200.1872 157.4611 200.1872"></polygon>
                <polygon id="Fill-94" fill="#748494" mask="url(#mask-2)" points="166.4299 200.1869 163.7109 204.6169 163.7109 207.5569 162.7609 207.5569 162.7609 204.6169 160.0629 200.1869 161.0699 200.1869 163.2389 203.7489 165.4169 200.1869"></polygon>
                <path d="M169.4377,207.6488 C168.6227,207.6488 167.9647,207.4348 167.4657,207.0068 C166.9677,206.5788 166.7187,206.0038 166.7187,205.2848 L167.6597,205.2848 C167.6597,205.7338 167.8237,206.0888 168.1527,206.3518 C168.4817,206.6138 168.9067,206.7448 169.4267,206.7448 C169.8997,206.7448 170.2937,206.6288 170.6087,206.3978 C170.9237,206.1668 171.0827,205.8588 171.0827,205.4748 C171.0827,205.3828 171.0697,205.2948 171.0457,205.2108 C171.0217,205.1268 170.9947,205.0528 170.9637,204.9898 C170.9327,204.9258 170.8837,204.8648 170.8177,204.8068 C170.7497,204.7488 170.6907,204.6988 170.6367,204.6578 C170.5837,204.6168 170.5057,204.5748 170.4037,204.5318 C170.3007,204.4888 170.2177,204.4548 170.1547,204.4288 C170.0907,204.4038 169.9947,204.3738 169.8637,204.3388 C169.7337,204.3048 169.6357,204.2798 169.5707,204.2618 C169.5057,204.2448 169.3997,204.2198 169.2517,204.1848 C168.6257,204.0348 168.1757,203.8958 167.9057,203.7688 C167.3127,203.4848 166.9717,203.0578 166.8827,202.4888 C166.8657,202.3798 166.8577,202.2648 166.8577,202.1448 C166.8577,201.5108 167.0837,201.0108 167.5357,200.6448 C167.9887,200.2778 168.5977,200.0938 169.3657,200.0938 C170.1257,200.0938 170.7267,200.2908 171.1667,200.6828 C171.6067,201.0748 171.8277,201.6068 171.8277,202.2788 L170.9127,202.2788 C170.9127,201.8778 170.7657,201.5608 170.4727,201.3278 C170.1797,201.0948 169.8037,200.9788 169.3447,200.9788 C168.8887,200.9788 168.5147,201.0808 168.2217,201.2838 C167.9287,201.4878 167.7827,201.7608 167.7827,202.1038 C167.7827,202.2168 167.7997,202.3208 167.8357,202.4148 C167.8727,202.5088 167.9167,202.5908 167.9667,202.6618 C168.0187,202.7318 168.0937,202.7978 168.1937,202.8618 C168.2927,202.9248 168.3837,202.9768 168.4657,203.0158 C168.5477,203.0558 168.6627,203.0978 168.8077,203.1418 C168.9537,203.1868 169.0747,203.2208 169.1697,203.2448 C169.2657,203.2688 169.3997,203.3008 169.5707,203.3418 C170.1977,203.4968 170.6467,203.6368 170.9167,203.7638 C171.5277,204.0448 171.8867,204.4678 171.9967,205.0328 C172.0237,205.1698 172.0377,205.3148 172.0377,205.4648 C172.0377,205.9168 171.9217,206.3108 171.6907,206.6448 C171.4587,206.9788 171.1497,207.2298 170.7607,207.3978 C170.3717,207.5648 169.9307,207.6488 169.4377,207.6488" id="Fill-95" fill="#748494" mask="url(#mask-2)"></path>
                <polygon id="Fill-96" fill="#748494" mask="url(#mask-2)" points="177.8146 200.1869 177.8146 201.0559 175.5736 201.0559 175.5736 207.5569 174.6486 207.5569 174.6486 201.0559 172.4076 201.0559 172.4076 200.1869"></polygon>
                <path d="M198.0588,302.2035 C198.5038,302.2035 198.9118,302.1225 199.2818,301.9615 L197.5598,299.9525 L198.6858,299.9525 L200.0168,301.4995 C200.3178,301.2325 200.5528,300.9095 200.7208,300.5305 C200.8888,300.1525 200.9728,299.7425 200.9728,299.2995 C200.9728,298.7555 200.8468,298.2615 200.5968,297.8175 C200.3468,297.3735 199.9988,297.0255 199.5538,296.7735 C199.1088,296.5225 198.6108,296.3965 198.0588,296.3965 C197.5098,296.3965 197.0138,296.5225 196.5688,296.7765 C196.1218,297.0305 195.7748,297.3775 195.5248,297.8195 C195.2748,298.2615 195.1498,298.7555 195.1498,299.2995 C195.1498,299.8445 195.2748,300.3385 195.5248,300.7805 C195.7748,301.2225 196.1218,301.5695 196.5688,301.8235 C197.0138,302.0775 197.5098,302.2035 198.0588,302.2035 Z M202.0458,303.8635 L200.9208,303.8635 L199.9038,302.6815 C199.3418,302.9665 198.7268,303.1085 198.0588,303.1085 C197.3258,303.1085 196.6648,302.9425 196.0778,302.6125 C195.4898,302.2815 195.0308,301.8265 194.7008,301.2455 C194.3698,300.6645 194.2048,300.0155 194.2048,299.2995 C194.2048,298.5835 194.3698,297.9355 194.7008,297.3545 C195.0308,296.7735 195.4898,296.3185 196.0778,295.9875 C196.6648,295.6575 197.3258,295.4915 198.0588,295.4915 C198.7908,295.4915 199.4538,295.6575 200.0418,295.9875 C200.6308,296.3185 201.0908,296.7735 201.4218,297.3545 C201.7528,297.9355 201.9178,298.5835 201.9178,299.2995 C201.9178,299.8895 201.8048,300.4335 201.5798,300.9335 C201.3528,301.4345 201.0348,301.8595 200.6228,302.2085 L202.0458,303.8635 Z" id="Fill-97" fill="#748494" mask="url(#mask-2)"></path>
                <path d="M205.1974,296.2059 C204.8824,296.2059 204.6264,296.2869 204.4284,296.4479 C204.2314,296.6089 204.1334,296.8189 204.1334,297.0799 C204.1334,297.4189 204.3734,297.9159 204.8524,298.5699 C205.0274,298.4669 205.1704,298.3809 205.2814,298.3099 C205.3924,298.2409 205.5154,298.1529 205.6494,298.0489 C205.7834,297.9439 205.8874,297.8449 205.9654,297.7499 C206.0424,297.6559 206.1064,297.5469 206.1584,297.4209 C206.2094,297.2959 206.2354,297.1669 206.2354,297.0339 C206.2354,296.7899 206.1374,296.5919 205.9444,296.4369 C205.7514,296.2829 205.5024,296.2059 205.1974,296.2059 M204.9864,302.2909 C205.5864,302.2909 206.1064,302.1019 206.5494,301.7259 C205.6754,300.7699 205.0374,300.0519 204.6364,299.5719 C204.2804,299.8019 204.0064,300.0349 203.8144,300.2709 C203.6224,300.5079 203.5264,300.7869 203.5264,301.1089 C203.5264,301.4619 203.6604,301.7469 203.9274,301.9649 C204.1944,302.1819 204.5484,302.2909 204.9864,302.2909 M208.7274,302.9849 L207.7154,302.9849 C207.4994,302.7519 207.2944,302.5309 207.0984,302.3219 C206.5124,302.8389 205.7834,303.0979 204.9094,303.0979 C204.2374,303.0979 203.6984,302.9189 203.2904,302.5609 C202.8834,302.2029 202.6784,301.7289 202.6784,301.1399 C202.6784,300.8829 202.7174,300.6449 202.7944,300.4249 C202.8714,300.2059 202.9844,300.0089 203.1344,299.8339 C203.2824,299.6599 203.4364,299.5069 203.5954,299.3769 C203.7554,299.2469 203.9444,299.1129 204.1644,298.9759 C203.8514,298.5609 203.6354,298.2129 203.5164,297.9299 C203.3964,297.6479 203.3374,297.3639 203.3374,297.0799 C203.3374,296.5929 203.5064,296.2089 203.8454,295.9259 C204.1844,295.6439 204.6354,295.5019 205.1974,295.5019 C205.7414,295.5019 206.1834,295.6439 206.5224,295.9259 C206.8624,296.2089 207.0314,296.5779 207.0314,297.0339 C207.0314,297.2389 206.9974,297.4349 206.9284,297.6199 C206.8604,297.8049 206.7784,297.9629 206.6814,298.0949 C206.5864,298.2269 206.4544,298.3629 206.2864,298.5029 C206.1184,298.6439 205.9674,298.7589 205.8324,298.8479 C205.6964,298.9369 205.5244,299.0429 205.3154,299.1659 C205.7634,299.7179 206.3384,300.3789 207.0374,301.1499 C207.2944,300.7259 207.4224,300.2439 207.4224,299.7059 L208.1824,299.7059 C208.1824,300.4939 207.9854,301.1789 207.5924,301.7619 C207.6534,301.8269 208.0324,302.2339 208.7274,302.9849" id="Fill-98" fill="#748494" mask="url(#mask-2)"></path>
                <path d="M212.1916,296.8895 L210.7786,300.3735 L213.6296,300.3735 L212.1916,296.8895 Z M214.7046,302.9845 L213.9746,301.2225 L210.4336,301.2225 L209.7136,302.9845 L208.7326,302.9845 L211.7446,295.6155 L212.6076,295.6155 L215.7076,302.9845 L214.7046,302.9845 Z" id="Fill-99" fill="#748494" mask="url(#mask-2)"></path>
                <path d="M261.4299,305.3905 C260.6149,305.3905 259.9569,305.1765 259.4579,304.7485 C258.9599,304.3205 258.7109,303.7455 258.7109,303.0265 L259.6519,303.0265 C259.6519,303.4755 259.8159,303.8305 260.1449,304.0935 C260.4739,304.3555 260.8989,304.4865 261.4189,304.4865 C261.8919,304.4865 262.2859,304.3705 262.6009,304.1395 C262.9159,303.9085 263.0749,303.6005 263.0749,303.2165 C263.0749,303.1245 263.0619,303.0365 263.0379,302.9525 C263.0139,302.8685 262.9869,302.7945 262.9559,302.7315 C262.9249,302.6675 262.8759,302.6065 262.8099,302.5485 C262.7419,302.4905 262.6829,302.4405 262.6289,302.3995 C262.5759,302.3585 262.4979,302.3165 262.3959,302.2735 C262.2929,302.2305 262.2099,302.1965 262.1469,302.1705 C262.0829,302.1455 261.9869,302.1155 261.8559,302.0805 C261.7259,302.0465 261.6279,302.0215 261.5629,302.0035 C261.4979,301.9865 261.3919,301.9615 261.2439,301.9265 C260.6179,301.7765 260.1679,301.6375 259.8979,301.5105 C259.3049,301.2265 258.9639,300.7995 258.8749,300.2305 C258.8579,300.1215 258.8499,300.0065 258.8499,299.8865 C258.8499,299.2525 259.0759,298.7525 259.5279,298.3865 C259.9809,298.0195 260.5899,297.8355 261.3579,297.8355 C262.1179,297.8355 262.7189,298.0325 263.1589,298.4245 C263.5989,298.8165 263.8199,299.3485 263.8199,300.0205 L262.9049,300.0205 C262.9049,299.6195 262.7579,299.3025 262.4649,299.0695 C262.1719,298.8365 261.7959,298.7205 261.3369,298.7205 C260.8809,298.7205 260.5069,298.8225 260.2139,299.0255 C259.9209,299.2295 259.7749,299.5025 259.7749,299.8455 C259.7749,299.9585 259.7919,300.0625 259.8279,300.1565 C259.8649,300.2505 259.9089,300.3325 259.9589,300.4035 C260.0109,300.4735 260.0859,300.5395 260.1859,300.6035 C260.2849,300.6665 260.3759,300.7185 260.4579,300.7575 C260.5399,300.7975 260.6549,300.8395 260.7999,300.8835 C260.9459,300.9285 261.0669,300.9625 261.1619,300.9865 C261.2579,301.0105 261.3919,301.0425 261.5629,301.0835 C262.1899,301.2385 262.6389,301.3785 262.9089,301.5055 C263.5199,301.7865 263.8789,302.2095 263.9889,302.7745 C264.0159,302.9115 264.0299,303.0565 264.0299,303.2065 C264.0299,303.6585 263.9139,304.0525 263.6829,304.3865 C263.4509,304.7205 263.1419,304.9715 262.7529,305.1395 C262.3639,305.3065 261.9229,305.3905 261.4299,305.3905" id="Fill-100" fill="#748494" mask="url(#mask-2)"></path>
                <path d="M268.1154,305.4217 C267.2794,305.4217 266.5874,305.1527 266.0394,304.6147 C265.4914,304.0767 265.2174,303.3897 265.2174,302.5537 L265.2174,297.9287 L266.1524,297.9287 L266.1524,302.4867 C266.1524,303.0897 266.3354,303.5787 266.6994,303.9547 C267.0644,304.3297 267.5364,304.5167 268.1154,304.5167 C268.6874,304.5167 269.1564,304.3297 269.5204,303.9547 C269.8864,303.5787 270.0684,303.0897 270.0684,302.4867 L270.0684,297.9287 L271.0044,297.9287 L271.0044,302.5537 C271.0044,303.1057 270.8794,303.6007 270.6294,304.0387 C270.3784,304.4777 270.0334,304.8177 269.5934,305.0597 C269.1524,305.3007 268.6604,305.4217 268.1154,305.4217" id="Fill-101" fill="#748494" mask="url(#mask-2)"></path>
                <path d="M275.301,301.7572 C275.753,301.7572 276.125,301.6182 276.416,301.3412 C276.707,301.0632 276.853,300.7142 276.853,300.2922 C276.853,299.8712 276.707,299.5212 276.416,299.2412 C276.125,298.9622 275.753,298.8222 275.301,298.8222 L273.63,298.8222 L273.63,301.7572 L275.301,301.7572 Z M275.352,297.9282 C276.048,297.9282 276.629,298.1532 277.097,298.6042 C277.565,299.0552 277.798,299.6172 277.798,300.2922 C277.798,300.9672 277.566,301.5292 277.1,301.9782 C276.634,302.4272 276.051,302.6522 275.352,302.6522 L273.63,302.6522 L273.63,305.2982 L272.71,305.2982 L272.71,297.9282 L275.352,297.9282 Z" id="Fill-102" fill="#748494" mask="url(#mask-2)"></path>
                <path d="M281.509,301.7572 C281.961,301.7572 282.333,301.6182 282.624,301.3412 C282.915,301.0632 283.061,300.7142 283.061,300.2922 C283.061,299.8712 282.915,299.5212 282.624,299.2412 C282.333,298.9622 281.961,298.8222 281.509,298.8222 L279.838,298.8222 L279.838,301.7572 L281.509,301.7572 Z M281.56,297.9282 C282.256,297.9282 282.837,298.1532 283.305,298.6042 C283.773,299.0552 284.006,299.6172 284.006,300.2922 C284.006,300.9672 283.774,301.5292 283.308,301.9782 C282.842,302.4272 282.259,302.6522 281.56,302.6522 L279.838,302.6522 L279.838,305.2982 L278.918,305.2982 L278.918,297.9282 L281.56,297.9282 Z" id="Fill-103" fill="#748494" mask="url(#mask-2)"></path>
                <path d="M288.4787,304.5169 C289.0307,304.5169 289.5287,304.3909 289.9737,304.1399 C290.4187,303.8879 290.7667,303.5399 291.0167,303.0959 C291.2667,302.6519 291.3927,302.1579 291.3927,301.6129 C291.3927,301.0689 291.2667,300.5749 291.0167,300.1309 C290.7667,299.6869 290.4187,299.3389 289.9737,299.0869 C289.5287,298.8359 289.0307,298.7099 288.4787,298.7099 C287.9297,298.7099 287.4337,298.8359 286.9887,299.0899 C286.5417,299.3439 286.1947,299.6909 285.9447,300.1329 C285.6947,300.5749 285.5697,301.0689 285.5697,301.6129 C285.5697,302.1579 285.6947,302.6519 285.9447,303.0939 C286.1947,303.5359 286.5417,303.8829 286.9887,304.1369 C287.4337,304.3909 287.9297,304.5169 288.4787,304.5169 M290.4617,304.9259 C289.8737,305.2559 289.2107,305.4219 288.4787,305.4219 C287.7457,305.4219 287.0847,305.2559 286.4977,304.9259 C285.9097,304.5949 285.4507,304.1399 285.1207,303.5589 C284.7897,302.9779 284.6247,302.3289 284.6247,301.6129 C284.6247,300.8969 284.7897,300.2489 285.1207,299.6679 C285.4507,299.0869 285.9097,298.6319 286.4977,298.3009 C287.0847,297.9709 287.7457,297.8049 288.4787,297.8049 C289.2107,297.8049 289.8737,297.9709 290.4617,298.3009 C291.0507,298.6319 291.5107,299.0869 291.8417,299.6679 C292.1727,300.2489 292.3377,300.8969 292.3377,301.6129 C292.3377,302.3289 292.1727,302.9779 291.8417,303.5589 C291.5107,304.1399 291.0507,304.5949 290.4617,304.9259" id="Fill-104" fill="#748494" mask="url(#mask-2)"></path>
                <path d="M294.5578,298.8075 L294.5578,301.5415 L296.3828,301.5415 C296.8308,301.5415 297.1948,301.4135 297.4718,301.1585 C297.7498,300.9035 297.8888,300.5755 297.8888,300.1745 C297.8888,299.7765 297.7488,299.4495 297.4698,299.1925 C297.1908,298.9355 296.8288,298.8075 296.3828,298.8075 L294.5578,298.8075 Z M297.9298,305.2985 L296.2388,302.4145 L294.5578,302.4145 L294.5578,305.2985 L293.6378,305.2985 L293.6378,297.9285 L296.4288,297.9285 C297.1208,297.9285 297.6938,298.1405 298.1478,298.5655 C298.6018,298.9905 298.8288,299.5305 298.8288,300.1845 C298.8288,300.6985 298.6818,301.1445 298.3868,301.5235 C298.0918,301.9025 297.6988,302.1635 297.2048,302.3075 L298.9678,305.2985 L297.9298,305.2985 Z" id="Fill-105" fill="#748494" mask="url(#mask-2)"></path>
                <polygon id="Fill-106" fill="#748494" mask="url(#mask-2)" points="304.7033 297.9286 304.7033 298.7976 302.4623 298.7976 302.4623 305.2986 301.5373 305.2986 301.5373 298.7976 299.2963 298.7976 299.2963 297.9286"></polygon>
                <polygon id="Fill-107" fill="#748494" mask="url(#mask-2)" points="314.6633 185.8895 314.6633 186.7585 312.4223 186.7585 312.4223 193.2595 311.4973 193.2595 311.4973 186.7585 309.2563 186.7585 309.2563 185.8895"></polygon>
                <polygon id="Fill-108" fill="#748494" mask="url(#mask-2)" points="316.5998 192.3753 319.9658 192.3753 319.9658 193.2593 315.6798 193.2593 315.6798 185.8893 319.8538 185.8893 319.8538 186.7683 316.5998 186.7683 316.5998 189.0443 319.5768 189.0443 319.5768 189.8983 316.5998 189.8983"></polygon>
                <path d="M323.9191,187.1639 L322.5061,190.6479 L325.3571,190.6479 L323.9191,187.1639 Z M326.4321,193.2589 L325.7021,191.4969 L322.1611,191.4969 L321.4411,193.2589 L320.4601,193.2589 L323.4721,185.8899 L324.3351,185.8899 L327.4351,193.2589 L326.4321,193.2589 Z" id="Fill-109" fill="#748494" mask="url(#mask-2)"></path>
                <polygon id="Fill-110" fill="#748494" mask="url(#mask-2)" points="337.0041 193.2591 336.0631 193.2591 335.1021 187.5031 332.5641 193.0691 332.3171 193.0691 329.7731 187.5081 328.8071 193.2591 327.8661 193.2591 329.1051 185.8891 329.9991 185.8891 332.4301 191.2961 334.8761 185.8891 335.7851 185.8891"></polygon>
                <polygon id="Fill-111" fill="#748494" mask="url(#mask-2)" points="306.2853 205.0262 309.5233 205.0262 309.5233 205.8892 305.3653 205.8892 305.3653 198.5202 306.2853 198.5202"></polygon>
                <polygon id="Fill-112" fill="#748494" mask="url(#mask-2)" points="311.4611 205.0057 314.8271 205.0057 314.8271 205.8897 310.5411 205.8897 310.5411 198.5197 314.7151 198.5197 314.7151 199.3987 311.4611 199.3987 311.4611 201.6747 314.4381 201.6747 314.4381 202.5287 311.4611 202.5287"></polygon>
                <path d="M318.7795,199.7943 L317.3665,203.2783 L320.2175,203.2783 L318.7795,199.7943 Z M321.2925,205.8893 L320.5625,204.1273 L317.0215,204.1273 L316.3015,205.8893 L315.3205,205.8893 L318.3325,198.5203 L319.1955,198.5203 L322.2955,205.8893 L321.2925,205.8893 Z" id="Fill-113" fill="#748494" mask="url(#mask-2)"></path>
                <path d="M325.6974,205.0262 C326.5194,205.0262 327.1954,204.7592 327.7254,204.2272 C328.2554,203.6942 328.5194,203.0202 328.5194,202.2042 C328.5194,201.6672 328.4004,201.1842 328.1624,200.7552 C327.9244,200.3272 327.5904,199.9922 327.1604,199.7512 C326.7294,199.5092 326.2424,199.3882 325.6974,199.3882 L324.1914,199.3882 L324.1914,205.0262 L325.6974,205.0262 Z M325.7284,198.5202 C326.4414,198.5202 327.0834,198.6772 327.6534,198.9922 C328.2234,199.3082 328.6684,199.7462 328.9864,200.3082 C329.3054,200.8702 329.4654,201.5022 329.4654,202.2042 C329.4654,202.9072 329.3054,203.5392 328.9864,204.1012 C328.6684,204.6632 328.2234,205.1012 327.6534,205.4172 C327.0834,205.7322 326.4414,205.8892 325.7284,205.8892 L323.2714,205.8892 L323.2714,198.5202 L325.7284,198.5202 Z" id="Fill-114" fill="#748494" mask="url(#mask-2)"></path>
                <polygon id="Fill-115" fill="#748494" mask="url(#mask-2)" points="331.6945 205.0057 335.0605 205.0057 335.0605 205.8897 330.7745 205.8897 330.7745 198.5197 334.9485 198.5197 334.9485 199.3987 331.6945 199.3987 331.6945 201.6747 334.6715 201.6747 334.6715 202.5287 331.6945 202.5287"></polygon>
                <path d="M337.3019,199.3988 L337.3019,202.1328 L339.1269,202.1328 C339.5749,202.1328 339.9389,202.0048 340.2159,201.7498 C340.4939,201.4948 340.6329,201.1668 340.6329,200.7658 C340.6329,200.3678 340.4929,200.0408 340.2139,199.7838 C339.9349,199.5268 339.5729,199.3988 339.1269,199.3988 L337.3019,199.3988 Z M340.6739,205.8898 L338.9829,203.0058 L337.3019,203.0058 L337.3019,205.8898 L336.3819,205.8898 L336.3819,198.5198 L339.1729,198.5198 C339.8649,198.5198 340.4379,198.7318 340.8919,199.1568 C341.3459,199.5818 341.5729,200.1218 341.5729,200.7758 C341.5729,201.2898 341.4259,201.7358 341.1309,202.1148 C340.8359,202.4938 340.4429,202.7548 339.9489,202.8988 L341.7119,205.8898 L340.6739,205.8898 Z" id="Fill-116" fill="#748494" mask="url(#mask-2)"></path>
                <path d="M218.5021,194.0628 C219.3241,194.0628 220.0001,193.7958 220.5301,193.2638 C221.0601,192.7308 221.3241,192.0568 221.3241,191.2408 C221.3241,190.7038 221.2051,190.2208 220.9671,189.7918 C220.7291,189.3638 220.3951,189.0288 219.9651,188.7878 C219.5341,188.5458 219.0471,188.4248 218.5021,188.4248 L216.9961,188.4248 L216.9961,194.0628 L218.5021,194.0628 Z M218.5331,187.5568 C219.2461,187.5568 219.8881,187.7138 220.4581,188.0288 C221.0281,188.3448 221.4731,188.7828 221.7911,189.3448 C222.1101,189.9068 222.2701,190.5388 222.2701,191.2408 C222.2701,191.9438 222.1101,192.5758 221.7911,193.1378 C221.4731,193.6998 221.0281,194.1378 220.4581,194.4538 C219.8881,194.7688 219.2461,194.9258 218.5331,194.9258 L216.0761,194.9258 L216.0761,187.5568 L218.5331,187.5568 Z" id="Fill-117" fill="#748494" mask="url(#mask-2)"></path>
                <polygon id="Fill-118" fill="#748494" mask="url(#mask-2)" points="224.5002 194.0423 227.8662 194.0423 227.8662 194.9263 223.5802 194.9263 223.5802 187.5563 227.7542 187.5563 227.7542 188.4353 224.5002 188.4353 224.5002 190.7113 227.4772 190.7113 227.4772 191.5653 224.5002 191.5653"></polygon>
                <path d="M231.382,195.0184 C230.567,195.0184 229.909,194.8044 229.41,194.3764 C228.912,193.9484 228.663,193.3734 228.663,192.6544 L229.604,192.6544 C229.604,193.1034 229.768,193.4584 230.097,193.7214 C230.426,193.9834 230.851,194.1144 231.371,194.1144 C231.844,194.1144 232.238,193.9984 232.553,193.7674 C232.868,193.5364 233.027,193.2284 233.027,192.8444 C233.027,192.7524 233.014,192.6644 232.99,192.5804 C232.966,192.4964 232.939,192.4224 232.908,192.3594 C232.877,192.2954 232.828,192.2344 232.762,192.1764 C232.694,192.1184 232.635,192.0684 232.581,192.0274 C232.528,191.9864 232.45,191.9444 232.348,191.9014 C232.245,191.8584 232.162,191.8244 232.099,191.7984 C232.035,191.7734 231.939,191.7434 231.808,191.7084 C231.678,191.6744 231.58,191.6494 231.515,191.6314 C231.45,191.6144 231.344,191.5894 231.196,191.5544 C230.57,191.4044 230.12,191.2654 229.85,191.1384 C229.257,190.8544 228.916,190.4274 228.827,189.8584 C228.81,189.7494 228.802,189.6344 228.802,189.5144 C228.802,188.8804 229.028,188.3804 229.48,188.0144 C229.933,187.6474 230.542,187.4634 231.31,187.4634 C232.07,187.4634 232.671,187.6604 233.111,188.0524 C233.551,188.4444 233.772,188.9764 233.772,189.6484 L232.857,189.6484 C232.857,189.2474 232.71,188.9304 232.417,188.6974 C232.124,188.4644 231.748,188.3484 231.289,188.3484 C230.833,188.3484 230.459,188.4504 230.166,188.6534 C229.873,188.8574 229.727,189.1304 229.727,189.4734 C229.727,189.5864 229.744,189.6904 229.78,189.7844 C229.817,189.8784 229.861,189.9604 229.911,190.0314 C229.963,190.1014 230.038,190.1674 230.138,190.2314 C230.237,190.2944 230.328,190.3464 230.41,190.3854 C230.492,190.4254 230.607,190.4674 230.752,190.5114 C230.898,190.5564 231.019,190.5904 231.114,190.6144 C231.21,190.6384 231.344,190.6704 231.515,190.7114 C232.142,190.8664 232.591,191.0064 232.861,191.1334 C233.472,191.4144 233.831,191.8374 233.941,192.4024 C233.968,192.5394 233.982,192.6844 233.982,192.8344 C233.982,193.2864 233.866,193.6804 233.635,194.0144 C233.403,194.3484 233.094,194.5994 232.705,194.7674 C232.316,194.9344 231.875,195.0184 231.382,195.0184" id="Fill-119" fill="#748494" mask="url(#mask-2)"></path>
                <polygon id="Fill-120" fill="#748494" mask="url(#mask-2)" points="235.257 194.926 236.177 194.926 236.177 187.556 235.257 187.556"></polygon>
                <path d="M240.9513,191.2669 L244.9033,191.2669 C244.8933,191.8149 244.7943,192.3229 244.6053,192.7909 C244.4173,193.2589 244.1623,193.6589 243.8423,193.9909 C243.5213,194.3229 243.1363,194.5829 242.6833,194.7689 C242.2313,194.9559 241.7433,195.0499 241.2193,195.0499 C240.5063,195.0499 239.8643,194.8859 239.2943,194.5589 C238.7233,194.2309 238.2783,193.7779 237.9583,193.1969 C237.6383,192.6159 237.4773,191.9639 237.4773,191.2409 C237.4773,190.5219 237.6383,189.8719 237.9583,189.2929 C238.2783,188.7149 238.7223,188.2619 239.2893,187.9339 C239.8553,187.6069 240.4923,187.4429 241.1983,187.4429 C242.0853,187.4429 242.8653,187.6939 243.5363,188.1959 C244.2083,188.6979 244.6243,189.3419 244.7853,190.1259 L243.8353,190.1259 C243.6773,189.5949 243.3573,189.1659 242.8763,188.8389 C242.3943,188.5119 241.8423,188.3479 241.2193,188.3479 C240.4033,188.3479 239.7333,188.6189 239.2093,189.1599 C238.6843,189.7009 238.4233,190.3949 238.4233,191.2409 C238.4233,192.0979 238.6813,192.7959 239.1993,193.3349 C239.7163,193.8749 240.3893,194.1449 241.2193,194.1449 C241.8933,194.1449 242.4753,193.9629 242.9643,193.5979 C243.4523,193.2329 243.7633,192.7489 243.8963,192.1459 L240.9513,192.1459 L240.9513,191.2669 Z" id="Fill-121" fill="#748494" mask="url(#mask-2)"></path>
                <polygon id="Fill-122" fill="#748494" mask="url(#mask-2)" points="251.1379 187.5565 252.0429 187.5565 252.0429 194.9265 251.2669 194.9265 247.0739 189.1755 247.0739 194.9265 246.1679 194.9265 246.1679 187.5565 247.0009 187.5565 251.1379 193.2405"></polygon>
                <polygon id="Fill-123" fill="#748494" mask="url(#mask-2)" points="254.756 194.0423 258.122 194.0423 258.122 194.9263 253.836 194.9263 253.836 187.5563 258.01 187.5563 258.01 188.4353 254.756 188.4353 254.756 190.7113 257.733 190.7113 257.733 191.5653 254.756 191.5653"></polygon>
                <path d="M260.3625,188.4354 L260.3625,191.1694 L262.1875,191.1694 C262.6355,191.1694 262.9995,191.0414 263.2765,190.7864 C263.5545,190.5314 263.6935,190.2034 263.6935,189.8024 C263.6935,189.4044 263.5535,189.0774 263.2745,188.8204 C262.9955,188.5634 262.6335,188.4354 262.1875,188.4354 L260.3625,188.4354 Z M263.7345,194.9264 L262.0435,192.0424 L260.3625,192.0424 L260.3625,194.9264 L259.4425,194.9264 L259.4425,187.5564 L262.2335,187.5564 C262.9255,187.5564 263.4985,187.7684 263.9525,188.1934 C264.4065,188.6184 264.6335,189.1584 264.6335,189.8124 C264.6335,190.3264 264.4865,190.7724 264.1915,191.1514 C263.8965,191.5304 263.5035,191.7914 263.0095,191.9354 L264.7725,194.9264 L263.7345,194.9264 Z" id="Fill-124" fill="#748494" mask="url(#mask-2)"></path>
                <path d="M63.757,121.0413 C63.757,126.4373 59.383,130.8123 53.986,130.8123 C48.59,130.8123 44.215,126.4373 44.215,121.0413 C44.215,115.6453 48.59,111.2703 53.986,111.2703 C59.383,111.2703 63.757,115.6453 63.757,121.0413" id="Fill-125" fill="#19E69B" mask="url(#mask-2)"></path>
                <path d="M69.3146,144.2479 L70.1826,144.2479 C70.1826,135.5629 63.8416,132.0879 57.1546,132.0879 L50.6406,132.0879 C43.9536,132.0879 37.6126,135.5629 37.6126,144.2479 L38.4816,144.2479 L69.3146,144.2479 Z" id="Stroke-126" stroke="#242F4E" stroke-width="1.054" stroke-linecap="round" stroke-linejoin="round" mask="url(#mask-2)"></path>
                <path d="M165.048,155.0394 C165.048,160.4354 160.674,164.8104 155.277,164.8104 C149.881,164.8104 145.506,160.4354 145.506,155.0394 C145.506,149.6434 149.881,145.2684 155.277,145.2684 C160.674,145.2684 165.048,149.6434 165.048,155.0394" id="Fill-127" fill="#19E69B" mask="url(#mask-2)"></path>
                <path d="M170.674,178.2474 L171.542,178.2474 C171.542,169.5614 165.202,166.0874 158.514,166.0874 L152,166.0874 C145.313,166.0874 138.972,169.5614 138.972,178.2474 L139.841,178.2474 L170.674,178.2474 Z" id="Stroke-128" stroke="#242F4E" stroke-width="1.054" stroke-linecap="round" stroke-linejoin="round" mask="url(#mask-2)"></path>
                <path d="M249.7277,155.1102 C249.7277,160.5062 245.3527,164.8812 239.9567,164.8812 C234.5597,164.8812 230.1857,160.5062 230.1857,155.1102 C230.1857,149.7142 234.5597,145.3392 239.9567,145.3392 C245.3527,145.3392 249.7277,149.7142 249.7277,155.1102" id="Fill-129" fill="#19E69B" mask="url(#mask-2)"></path>
                <path d="M255.5314,178.2474 L256.4004,178.2474 C256.4004,169.5614 250.0594,166.0874 243.3724,166.0874 L236.8574,166.0874 C230.1704,166.0874 223.8304,169.5614 223.8304,178.2474 L224.6984,178.2474 L255.5314,178.2474 Z" id="Stroke-130" stroke="#242F4E" stroke-width="1.054" stroke-linecap="round" stroke-linejoin="round" mask="url(#mask-2)"></path>
                <path d="M332.8576,154.9691 C332.8576,160.3651 328.4836,164.7401 323.0866,164.7401 C317.6906,164.7401 313.3156,160.3651 313.3156,154.9691 C313.3156,149.5731 317.6906,145.1981 323.0866,145.1981 C328.4836,145.1981 332.8576,149.5731 332.8576,154.9691" id="Fill-131" fill="#19E69B" mask="url(#mask-2)"></path>
                <path d="M338.509,178.2474 L339.377,178.2474 C339.377,169.5614 333.037,166.0874 326.35,166.0874 L319.835,166.0874 C313.148,166.0874 306.807,169.5614 306.807,178.2474 L307.676,178.2474 L338.509,178.2474 Z" id="Stroke-132" stroke="#242F4E" stroke-width="1.054" stroke-linecap="round" stroke-linejoin="round" mask="url(#mask-2)"></path>
                <path d="M428.799,121.0413 C428.799,126.4373 424.425,130.8123 419.028,130.8123 C413.632,130.8123 409.257,126.4373 409.257,121.0413 C409.257,115.6453 413.632,111.2703 419.028,111.2703 C424.425,111.2703 428.799,115.6453 428.799,121.0413" id="Fill-133" fill="#19E69B" mask="url(#mask-2)"></path>
                <path d="M434.423,144.2479 L435.291,144.2479 C435.291,135.5629 428.951,132.0879 422.264,132.0879 L415.749,132.0879 C409.062,132.0879 402.721,135.5629 402.721,144.2479 L403.59,144.2479 L434.423,144.2479 Z" id="Stroke-134" stroke="#242F4E" stroke-width="1.054" stroke-linecap="round" stroke-linejoin="round" mask="url(#mask-2)"></path>
                <path d="M60.0968,207.6209 C60.0968,213.0169 55.7218,217.3919 50.3258,217.3919 C44.9298,217.3919 40.5548,213.0169 40.5548,207.6209 C40.5548,202.2249 44.9298,197.8499 50.3258,197.8499 C55.7218,197.8499 60.0968,202.2249 60.0968,207.6209" id="Fill-135" fill="#19E69B" mask="url(#mask-2)"></path>
                <path d="M65.8058,230.8114 L66.6738,230.8114 C66.6738,222.1264 60.3338,218.6524 53.6468,218.6524 L47.1318,218.6524 C40.4448,218.6524 34.1048,222.1264 34.1048,230.8114 L34.9728,230.8114 L65.8058,230.8114 Z" id="Stroke-136" stroke="#242F4E" stroke-width="1.054" stroke-linecap="round" stroke-linejoin="round" mask="url(#mask-2)"></path>
                <path d="M423.8723,207.6209 C423.8723,213.0169 419.4973,217.3919 414.1013,217.3919 C408.7043,217.3919 404.3303,213.0169 404.3303,207.6209 C404.3303,202.2249 408.7043,197.8499 414.1013,197.8499 C419.4973,197.8499 423.8723,202.2249 423.8723,207.6209" id="Fill-137" fill="#19E69B" mask="url(#mask-2)"></path>
                <path d="M429.4836,230.8114 L430.3526,230.8114 C430.3526,222.1264 424.0116,218.6524 417.3246,218.6524 L410.8106,218.6524 C404.1226,218.6524 397.7826,222.1264 397.7826,230.8114 L398.6506,230.8114 L429.4836,230.8114 Z" id="Stroke-138" stroke="#242F4E" stroke-width="1.054" stroke-linecap="round" stroke-linejoin="round" mask="url(#mask-2)"></path>
                <path d="M248.4933,83.4256 C248.4933,88.7216 244.2003,93.0146 238.9043,93.0146 C233.6083,93.0146 229.3143,88.7216 229.3143,83.4256 C229.3143,78.1296 233.6083,73.8366 238.9043,73.8366 C244.2003,73.8366 248.4933,78.1296 248.4933,83.4256" id="Fill-139" fill="#19E69B" mask="url(#mask-2)"></path>
                <path d="M254.0343,105.5555 L254.8863,105.5555 C254.8863,97.0315 248.6643,93.6215 242.1003,93.6215 L235.7083,93.6215 C229.1443,93.6215 222.9223,97.0315 222.9223,105.5555 L223.7743,105.5555 L254.0343,105.5555 Z" id="Stroke-140" stroke="#242F4E" stroke-width="1.02" stroke-linecap="round" stroke-linejoin="round" mask="url(#mask-2)"></path>
                <path d="M246.8957,83.4256 C246.8957,87.8396 243.3177,91.4166 238.9047,91.4166 C234.4907,91.4166 230.9137,87.8396 230.9137,83.4256 C230.9137,79.0126 234.4907,75.4346 238.9047,75.4346 C243.3177,75.4346 246.8957,79.0126 246.8957,83.4256 Z" id="Stroke-141" stroke="#242F4E" stroke-width="1.054" stroke-linecap="round" stroke-linejoin="round" mask="url(#mask-2)"></path>
                <path d="M246.8957,50.8328 C246.8957,55.2468 243.3177,58.8238 238.9047,58.8238 C234.4907,58.8238 230.9137,55.2468 230.9137,50.8328 C230.9137,46.4198 234.4907,42.8418 238.9047,42.8418 C243.3177,42.8418 246.8957,46.4198 246.8957,50.8328" id="Fill-142" fill="#19E69B" mask="url(#mask-2)"></path>
                <path d="M231.4172,67.016 C231.4172,71.43 227.8402,75.007 223.4272,75.007 C219.0132,75.007 215.4362,71.43 215.4362,67.016 C215.4362,62.603 219.0132,59.025 223.4272,59.025 C227.8402,59.025 231.4172,62.603 231.4172,67.016" id="Fill-143" fill="#19E69B" mask="url(#mask-2)"></path>
                <path d="M263.6457,67.016 C263.6457,71.43 260.0677,75.007 255.6547,75.007 C251.2407,75.007 247.6637,71.43 247.6637,67.016 C247.6637,62.603 251.2407,59.025 255.6547,59.025 C260.0677,59.025 263.6457,62.603 263.6457,67.016" id="Fill-144" fill="#19E69B" mask="url(#mask-2)"></path>
                <path d="M221.2765,287.0667 L222.1295,287.0667 C222.1295,278.5427 215.9065,275.1327 209.3425,275.1327 L202.9505,275.1327 C196.3865,275.1327 190.1655,278.5427 190.1655,287.0667 L191.0165,287.0667 L221.2765,287.0667 Z" id="Stroke-145" stroke="#242F4E" stroke-width="1.02" stroke-linecap="round" stroke-linejoin="round" mask="url(#mask-2)"></path>
                <path d="M215.7785,264.7811 C215.7785,270.0771 211.4855,274.3701 206.1895,274.3701 C200.8935,274.3701 196.5995,270.0771 196.5995,264.7811 C196.5995,259.4851 200.8935,255.1921 206.1895,255.1921 C211.4855,255.1921 215.7785,259.4851 215.7785,264.7811" id="Fill-146" fill="#19E69B" mask="url(#mask-2)"></path>
                <path d="M214.1379,232.3441 C214.1379,236.7581 210.5609,240.3351 206.1469,240.3351 C201.7339,240.3351 198.1559,236.7581 198.1559,232.3441 C198.1559,227.9311 201.7339,224.3531 206.1469,224.3531 C210.5609,224.3531 214.1379,227.9311 214.1379,232.3441" id="Fill-147" fill="#19E69B" mask="url(#mask-2)"></path>
                <path d="M198.6603,248.5272 C198.6603,252.9412 195.0823,256.5182 190.6693,256.5182 C186.2563,256.5182 182.6783,252.9412 182.6783,248.5272 C182.6783,244.1142 186.2563,240.5362 190.6693,240.5362 C195.0823,240.5362 198.6603,244.1142 198.6603,248.5272" id="Fill-148" fill="#19E69B" mask="url(#mask-2)"></path>
                <path d="M230.8879,248.5272 C230.8879,252.9412 227.3109,256.5182 222.8969,256.5182 C218.4839,256.5182 214.9059,252.9412 214.9059,248.5272 C214.9059,244.1142 218.4839,240.5362 222.8969,240.5362 C227.3109,240.5362 230.8879,244.1142 230.8879,248.5272" id="Fill-149" fill="#19E69B" mask="url(#mask-2)"></path>
                <path d="M294.6594,288.2362 L295.5124,288.2362 C295.5124,279.7122 289.2894,276.3022 282.7254,276.3022 L276.3334,276.3022 C269.7694,276.3022 263.5474,279.7122 263.5474,288.2362 L264.3994,288.2362 L294.6594,288.2362 Z" id="Stroke-150" stroke="#242F4E" stroke-width="1.02" stroke-linecap="round" stroke-linejoin="round" mask="url(#mask-2)"></path>
                <path d="M289.1047,266.1151 C289.1047,271.4111 284.8117,275.7041 279.5157,275.7041 C274.2197,275.7041 269.9257,271.4111 269.9257,266.1151 C269.9257,260.8191 274.2197,256.5261 279.5157,256.5261 C284.8117,256.5261 289.1047,260.8191 289.1047,266.1151" id="Fill-151" fill="#19E69B" mask="url(#mask-2)"></path>
                <path d="M287.5207,233.5135 C287.5207,237.9275 283.9427,241.5045 279.5297,241.5045 C275.1167,241.5045 271.5387,237.9275 271.5387,233.5135 C271.5387,229.1005 275.1167,225.5225 279.5297,225.5225 C283.9427,225.5225 287.5207,229.1005 287.5207,233.5135" id="Fill-152" fill="#19E69B" mask="url(#mask-2)"></path>
                <path d="M272.0432,249.6966 C272.0432,254.1106 268.4652,257.6876 264.0522,257.6876 C259.6392,257.6876 256.0612,254.1106 256.0612,249.6966 C256.0612,245.2836 259.6392,241.7056 264.0522,241.7056 C268.4652,241.7056 272.0432,245.2836 272.0432,249.6966" id="Fill-153" fill="#19E69B" mask="url(#mask-2)"></path>
                <path d="M304.2707,249.6966 C304.2707,254.1106 300.6927,257.6876 296.2797,257.6876 C291.8667,257.6876 288.2887,254.1106 288.2887,249.6966 C288.2887,245.2836 291.8667,241.7056 296.2797,241.7056 C300.6927,241.7056 304.2707,245.2836 304.2707,249.6966" id="Fill-154" fill="#19E69B" mask="url(#mask-2)"></path>
                <path d="M62.0402,121.0912 C62.0402,125.5882 58.3942,129.2342 53.8972,129.2342 C49.4002,129.2342 45.7552,125.5882 45.7552,121.0912 C45.7552,116.5942 49.4002,112.9482 53.8972,112.9482 C58.3942,112.9482 62.0402,116.5942 62.0402,121.0912 Z" id="Stroke-155" stroke="#242F4E" stroke-width="1.054" stroke-linecap="round" stroke-linejoin="round" mask="url(#mask-2)"></path>
                <path d="M163.3996,155.0902 C163.3996,159.5872 159.7536,163.2332 155.2566,163.2332 C150.7596,163.2332 147.1146,159.5872 147.1146,155.0902 C147.1146,150.5932 150.7596,146.9472 155.2566,146.9472 C159.7536,146.9472 163.3996,150.5932 163.3996,155.0902 Z" id="Stroke-156" stroke="#242F4E" stroke-width="1.054" stroke-linecap="round" stroke-linejoin="round" mask="url(#mask-2)"></path>
                <path d="M248.258,155.0902 C248.258,159.5872 244.612,163.2332 240.115,163.2332 C235.618,163.2332 231.973,159.5872 231.973,155.0902 C231.973,150.5932 235.618,146.9472 240.115,146.9472 C244.612,146.9472 248.258,150.5932 248.258,155.0902 Z" id="Stroke-157" stroke="#242F4E" stroke-width="1.054" stroke-linecap="round" stroke-linejoin="round" mask="url(#mask-2)"></path>
                <path d="M331.2346,155.0902 C331.2346,159.5872 327.5886,163.2332 323.0916,163.2332 C318.5946,163.2332 314.9496,159.5872 314.9496,155.0902 C314.9496,150.5932 318.5946,146.9472 323.0916,146.9472 C327.5886,146.9472 331.2346,150.5932 331.2346,155.0902 Z" id="Stroke-158" stroke="#242F4E" stroke-width="1.054" stroke-linecap="round" stroke-linejoin="round" mask="url(#mask-2)"></path>
                <path d="M427.1486,121.0912 C427.1486,125.5882 423.5026,129.2342 419.0056,129.2342 C414.5086,129.2342 410.8636,125.5882 410.8636,121.0912 C410.8636,116.5942 414.5086,112.9482 419.0056,112.9482 C423.5026,112.9482 427.1486,116.5942 427.1486,121.0912 Z" id="Stroke-159" stroke="#242F4E" stroke-width="1.054" stroke-linecap="round" stroke-linejoin="round" mask="url(#mask-2)"></path>
                <path d="M58.5314,207.6546 C58.5314,212.1516 54.8854,215.7976 50.3884,215.7976 C45.8924,215.7976 42.2464,212.1516 42.2464,207.6546 C42.2464,203.1576 45.8924,199.5116 50.3884,199.5116 C54.8854,199.5116 58.5314,203.1576 58.5314,207.6546 Z" id="Stroke-160" stroke="#242F4E" stroke-width="1.054" stroke-linecap="round" stroke-linejoin="round" mask="url(#mask-2)"></path>
                <path d="M422.2101,207.6546 C422.2101,212.1516 418.5641,215.7976 414.0671,215.7976 C409.5701,215.7976 405.9251,212.1516 405.9251,207.6546 C405.9251,203.1576 409.5701,199.5116 414.0671,199.5116 C418.5641,199.5116 422.2101,203.1576 422.2101,207.6546 Z" id="Stroke-161" stroke="#242F4E" stroke-width="1.054" stroke-linecap="round" stroke-linejoin="round" mask="url(#mask-2)"></path>
                <path d="M214.1379,264.9369 C214.1379,269.3509 210.5609,272.9279 206.1469,272.9279 C201.7339,272.9279 198.1559,269.3509 198.1559,264.9369 C198.1559,260.5239 201.7339,256.9459 206.1469,256.9459 C210.5609,256.9459 214.1379,260.5239 214.1379,264.9369 Z" id="Stroke-162" stroke="#242F4E" stroke-width="1.054" stroke-linecap="round" stroke-linejoin="round" mask="url(#mask-2)"></path>
                <path d="M287.507,266.1854 C287.507,270.5984 283.929,274.1764 279.516,274.1764 C275.102,274.1764 271.525,270.5984 271.525,266.1854 C271.525,261.7714 275.102,258.1944 279.516,258.1944 C283.929,258.1944 287.507,261.7714 287.507,266.1854 Z" id="Stroke-163" stroke="#242F4E" stroke-width="1.054" stroke-linecap="round" stroke-linejoin="round" mask="url(#mask-2)"></path>
            </g>
        </g>
    </g>
</svg>