<?xml version="1.0" encoding="UTF-8"?>
<svg width="472px" height="368px" viewBox="0 0 472 368" version="1.1" xmlns="http://www.w3.org/2000/svg" xmlns:xlink="http://www.w3.org/1999/xlink">
    <!-- Generator: Sketch 51.3 (57544) - http://www.bohemiancoding.com/sketch -->
    <title>Group 164</title>
    <desc>Created with Sketch.</desc>
    <defs>
        <polygon id="path-1" points="0 367.031 471.082 367.031 471.082 0 0 0"></polygon>
    </defs>
    <g id="Page-1" stroke="none" stroke-width="1" fill="none" fill-rule="evenodd">
        <g id="Teams" transform="translate(-109.000000, -728.000000)">
            <g id="Group-164" transform="translate(109.000000, 728.000000)">
                <path d="M470.6437,183.5156 C470.6437,284.6256 388.6767,366.5926 287.5667,366.5926 C186.4567,366.5926 104.4897,284.6256 104.4897,183.5156 C104.4897,82.4056 186.4567,0.4386 287.5667,0.4386 C388.6767,0.4386 470.6437,82.4056 470.6437,183.5156 Z" id="Stroke-1" stroke="#DCE2EF" stroke-width="0.877" stroke-linecap="round" stroke-linejoin="round"></path>
                <path d="M366.5919,183.5156 C366.5919,284.6256 284.6259,366.5926 183.5159,366.5926 C82.4049,366.5926 0.4389,284.6256 0.4389,183.5156 C0.4389,82.4056 82.4049,0.4386 183.5159,0.4386 C284.6259,0.4386 366.5919,82.4056 366.5919,183.5156 Z" id="Stroke-3" stroke="#DCE2EF" stroke-width="0.877" stroke-linecap="round" stroke-linejoin="round"></path>
                <path d="M212.4279,119.7939 C213.2499,119.7939 213.9259,119.5269 214.4559,118.9949 C214.9859,118.4619 215.2499,117.7879 215.2499,116.9729 C215.2499,116.4349 215.1309,115.9519 214.8929,115.5229 C214.6549,115.0949 214.3209,114.7599 213.8909,114.5189 C213.4599,114.2769 212.9729,114.1559 212.4279,114.1559 L210.9219,114.1559 L210.9219,119.7939 L212.4279,119.7939 Z M212.4589,113.2879 C213.1719,113.2879 213.8139,113.4449 214.3839,113.7609 C214.9539,114.0759 215.3989,114.5149 215.7169,115.0759 C216.0359,115.6379 216.1959,116.2709 216.1959,116.9729 C216.1959,117.6749 216.0359,118.3079 215.7169,118.8689 C215.3989,119.4309 214.9539,119.8689 214.3839,120.1849 C213.8139,120.4999 213.1719,120.6569 212.4589,120.6569 L210.0019,120.6569 L210.0019,113.2879 L212.4589,113.2879 Z" id="Fill-5" fill="#748494"></path>
                <polygon id="Fill-7" fill="#748494" points="218.4259 119.7734 221.7919 119.7734 221.7919 120.6574 217.5059 120.6574 217.5059 113.2884 221.6799 113.2884 221.6799 114.1674 218.4259 114.1674 218.4259 116.4434 221.4029 116.4434 221.4029 117.2964 218.4259 117.2964"></polygon>
                <polygon id="Fill-9" fill="#748494" points="227.965 113.288 228.977 113.288 226.048 120.657 225.194 120.657 222.214 113.288 223.236 113.288 225.621 119.269"></polygon>
                <polygon id="Fill-11" fill="#748494" points="230.9142 119.7734 234.2802 119.7734 234.2802 120.6574 229.9942 120.6574 229.9942 113.2884 234.1682 113.2884 234.1682 114.1674 230.9142 114.1674 230.9142 116.4434 233.8912 116.4434 233.8912 117.2964 230.9142 117.2964"></polygon>
                <polygon id="Fill-13" fill="#748494" points="236.5216 119.7939 239.7596 119.7939 239.7596 120.6569 235.6016 120.6569 235.6016 113.2879 236.5216 113.2879"></polygon>
                <path d="M243.6867,119.8759 C244.2387,119.8759 244.7367,119.7499 245.1817,119.4989 C245.6267,119.2469 245.9747,118.8989 246.2247,118.4549 C246.4747,118.0119 246.6007,117.5179 246.6007,116.9729 C246.6007,116.4279 246.4747,115.9339 246.2247,115.4899 C245.9747,115.0459 245.6267,114.6979 245.1817,114.4459 C244.7367,114.1949 244.2387,114.0689 243.6867,114.0689 C243.1377,114.0689 242.6417,114.1949 242.1967,114.4489 C241.7497,114.7029 241.4027,115.0509 241.1527,115.4919 C240.9027,115.9349 240.7777,116.4279 240.7777,116.9729 C240.7777,117.5179 240.9027,118.0109 241.1527,118.4529 C241.4027,118.8949 241.7497,119.2419 242.1967,119.4959 C242.6417,119.7499 243.1377,119.8759 243.6867,119.8759 M245.6697,120.2849 C245.0817,120.6149 244.4187,120.7809 243.6867,120.7809 C242.9537,120.7809 242.2927,120.6149 241.7057,120.2849 C241.1177,119.9539 240.6587,119.4989 240.3287,118.9179 C239.9977,118.3369 239.8327,117.6879 239.8327,116.9729 C239.8327,116.2569 239.9977,115.6079 240.3287,115.0269 C240.6587,114.4459 241.1177,113.9909 241.7057,113.6599 C242.2927,113.3299 242.9537,113.1639 243.6867,113.1639 C244.4187,113.1639 245.0817,113.3299 245.6697,113.6599 C246.2587,113.9909 246.7187,114.4459 247.0497,115.0269 C247.3807,115.6079 247.5457,116.2569 247.5457,116.9729 C247.5457,117.6879 247.3807,118.3369 247.0497,118.9179 C246.7187,119.4989 246.2587,119.9539 245.6697,120.2849" id="Fill-15" fill="#748494"></path>
                <path d="M251.4367,117.1162 C251.8887,117.1162 252.2607,116.9772 252.5517,116.7002 C252.8427,116.4232 252.9887,116.0732 252.9887,115.6512 C252.9887,115.2302 252.8427,114.8802 252.5517,114.6002 C252.2607,114.3212 251.8887,114.1812 251.4367,114.1812 L249.7657,114.1812 L249.7657,117.1162 L251.4367,117.1162 Z M251.4877,113.2882 C252.1837,113.2882 252.7647,113.5122 253.2327,113.9642 C253.7007,114.4142 253.9337,114.9762 253.9337,115.6512 C253.9337,116.3272 253.7017,116.8882 253.2357,117.3382 C252.7697,117.7862 252.1867,118.0112 251.4877,118.0112 L249.7657,118.0112 L249.7657,120.6572 L248.8457,120.6572 L248.8457,113.2882 L251.4877,113.2882 Z" id="Fill-17" fill="#748494"></path>
                <polygon id="Fill-19" fill="#748494" points="255.9738 119.7734 259.3398 119.7734 259.3398 120.6574 255.0538 120.6574 255.0538 113.2884 259.2278 113.2884 259.2278 114.1674 255.9738 114.1674 255.9738 116.4434 258.9508 116.4434 258.9508 117.2964 255.9738 117.2964"></polygon>
                <path d="M261.5812,114.167 L261.5812,116.9 L263.4062,116.9 C263.8542,116.9 264.2182,116.773 264.4952,116.518 C264.7732,116.263 264.9122,115.935 264.9122,115.533 C264.9122,115.136 264.7722,114.809 264.4932,114.552 C264.2142,114.295 263.8522,114.167 263.4062,114.167 L261.5812,114.167 Z M264.9532,120.657 L263.2622,117.774 L261.5812,117.774 L261.5812,120.657 L260.6612,120.657 L260.6612,113.288 L263.4522,113.288 C264.1442,113.288 264.7172,113.5 265.1712,113.925 C265.6252,114.35 265.8522,114.89 265.8522,115.544 C265.8522,116.058 265.7052,116.504 265.4102,116.883 C265.1152,117.262 264.7222,117.522 264.2282,117.666 L265.9912,120.657 L264.9532,120.657 Z" id="Fill-21" fill="#748494"></path>
                <path d="M269.4201,120.75 C268.6051,120.75 267.9471,120.536 267.4481,120.107 C266.9501,119.68 266.7011,119.105 266.7011,118.386 L267.6421,118.386 C267.6421,118.835 267.8061,119.19 268.1351,119.452 C268.4641,119.715 268.8891,119.846 269.4091,119.846 C269.8821,119.846 270.2761,119.729 270.5911,119.499 C270.9061,119.268 271.0651,118.96 271.0651,118.576 C271.0651,118.483 271.0521,118.396 271.0281,118.312 C271.0041,118.228 270.9771,118.154 270.9461,118.091 C270.9151,118.027 270.8661,117.966 270.8001,117.908 C270.7321,117.85 270.6731,117.8 270.6191,117.759 C270.5661,117.718 270.4881,117.676 270.3861,117.633 C270.2831,117.59 270.2001,117.556 270.1371,117.53 C270.0731,117.505 269.9771,117.475 269.8461,117.44 C269.7161,117.406 269.6181,117.381 269.5531,117.363 C269.4881,117.346 269.3821,117.32 269.2341,117.286 C268.6081,117.136 268.1581,116.997 267.8881,116.87 C267.2951,116.586 266.9541,116.159 266.8651,115.59 C266.8481,115.48 266.8401,115.366 266.8401,115.246 C266.8401,114.612 267.0661,114.111 267.5181,113.745 C267.9711,113.379 268.5801,113.195 269.3481,113.195 C270.1081,113.195 270.7091,113.392 271.1491,113.784 C271.5891,114.176 271.8101,114.708 271.8101,115.38 L270.8951,115.38 C270.8951,114.979 270.7481,114.662 270.4551,114.429 C270.1621,114.195 269.7861,114.079 269.3271,114.079 C268.8711,114.079 268.4971,114.182 268.2041,114.385 C267.9111,114.589 267.7651,114.862 267.7651,115.205 C267.7651,115.317 267.7821,115.422 267.8181,115.516 C267.8551,115.61 267.8991,115.692 267.9491,115.763 C268.0011,115.833 268.0761,115.899 268.1761,115.963 C268.2751,116.026 268.3661,116.077 268.4481,116.117 C268.5301,116.156 268.6451,116.198 268.7901,116.243 C268.9361,116.287 269.0571,116.321 269.1521,116.346 C269.2481,116.37 269.3821,116.402 269.5531,116.443 C270.1801,116.598 270.6291,116.738 270.8991,116.864 C271.5101,117.146 271.8691,117.568 271.9791,118.134 C272.0061,118.271 272.0201,118.415 272.0201,118.565 C272.0201,119.018 271.9041,119.411 271.6731,119.745 C271.4411,120.079 271.1321,120.33 270.7431,120.498 C270.3541,120.666 269.9131,120.75 269.4201,120.75" id="Fill-23" fill="#748494"></path>
                <path d="M36.0216,156.6298 C36.4736,156.6298 36.8456,156.4908 37.1366,156.2138 C37.4276,155.9358 37.5736,155.5868 37.5736,155.1648 C37.5736,154.7428 37.4276,154.3938 37.1366,154.1138 C36.8456,153.8348 36.4736,153.6948 36.0216,153.6948 L34.3506,153.6948 L34.3506,156.6298 L36.0216,156.6298 Z M36.0726,152.8008 C36.7686,152.8008 37.3496,153.0258 37.8176,153.4768 C38.2856,153.9278 38.5186,154.4898 38.5186,155.1648 C38.5186,155.8398 38.2866,156.4018 37.8206,156.8508 C37.3546,157.2998 36.7716,157.5248 36.0726,157.5248 L34.3506,157.5248 L34.3506,160.1708 L33.4306,160.1708 L33.4306,152.8008 L36.0726,152.8008 Z" id="Fill-25" fill="#748494"></path>
                <path d="M41.7677,154.0752 L40.3547,157.5592 L43.2057,157.5592 L41.7677,154.0752 Z M44.2807,160.1712 L43.5507,158.4082 L40.0097,158.4082 L39.2897,160.1712 L38.3087,160.1712 L41.3207,152.8012 L42.1837,152.8012 L45.2837,160.1712 L44.2807,160.1712 Z" id="Fill-27" fill="#748494"></path>
                <path d="M47.1788,153.6797 L47.1788,156.4137 L49.0038,156.4137 C49.4518,156.4137 49.8158,156.2857 50.0928,156.0317 C50.3708,155.7757 50.5098,155.4477 50.5098,155.0467 C50.5098,154.6497 50.3698,154.3227 50.0908,154.0657 C49.8118,153.8087 49.4498,153.6797 49.0038,153.6797 L47.1788,153.6797 Z M50.5508,160.1707 L48.8598,157.2867 L47.1788,157.2867 L47.1788,160.1707 L46.2588,160.1707 L46.2588,152.8007 L49.0498,152.8007 C49.7418,152.8007 50.3148,153.0137 50.7688,153.4387 C51.2228,153.8637 51.4498,154.4027 51.4498,155.0567 C51.4498,155.5717 51.3028,156.0177 51.0078,156.3957 C50.7128,156.7747 50.3198,157.0357 49.8258,157.1797 L51.5888,160.1707 L50.5508,160.1707 Z" id="Fill-29" fill="#748494"></path>
                <polygon id="Fill-31" fill="#748494" points="57.3244 152.8007 57.3244 153.6697 55.0834 153.6697 55.0834 160.1707 54.1584 160.1707 54.1584 153.6697 51.9174 153.6697 51.9174 152.8007"></polygon>
                <polygon id="Fill-33" fill="#748494" points="63.3117 152.8007 64.2167 152.8007 64.2167 160.1707 63.4407 160.1707 59.2477 154.4197 59.2477 160.1707 58.3417 160.1707 58.3417 152.8007 59.1747 152.8007 63.3117 158.4857"></polygon>
                <polygon id="Fill-35" fill="#748494" points="66.9298 159.2871 70.2958 159.2871 70.2958 160.1711 66.0098 160.1711 66.0098 152.8011 70.1838 152.8011 70.1838 153.6801 66.9298 153.6801 66.9298 155.9561 69.9068 155.9561 69.9068 156.8091 66.9298 156.8091"></polygon>
                <path d="M72.5363,153.6797 L72.5363,156.4137 L74.3613,156.4137 C74.8093,156.4137 75.1733,156.2857 75.4503,156.0317 C75.7283,155.7757 75.8673,155.4477 75.8673,155.0467 C75.8673,154.6497 75.7273,154.3227 75.4483,154.0657 C75.1693,153.8087 74.8073,153.6797 74.3613,153.6797 L72.5363,153.6797 Z M75.9083,160.1707 L74.2173,157.2867 L72.5363,157.2867 L72.5363,160.1707 L71.6163,160.1707 L71.6163,152.8007 L74.4073,152.8007 C75.0993,152.8007 75.6723,153.0137 76.1263,153.4387 C76.5803,153.8637 76.8073,154.4027 76.8073,155.0567 C76.8073,155.5717 76.6603,156.0177 76.3653,156.3957 C76.0703,156.7747 75.6773,157.0357 75.1833,157.1797 L76.9463,160.1707 L75.9083,160.1707 Z" id="Fill-37" fill="#748494"></path>
                <path d="M34.7658,248.1337 C33.9508,248.1337 33.2928,247.9197 32.7938,247.4907 C32.2958,247.0637 32.0468,246.4887 32.0468,245.7697 L32.9878,245.7697 C32.9878,246.2187 33.1518,246.5737 33.4808,246.8357 C33.8098,247.0987 34.2348,247.2297 34.7548,247.2297 C35.2278,247.2297 35.6218,247.1127 35.9368,246.8827 C36.2518,246.6517 36.4108,246.3437 36.4108,245.9597 C36.4108,245.8667 36.3978,245.7797 36.3738,245.6957 C36.3498,245.6117 36.3228,245.5377 36.2918,245.4747 C36.2608,245.4107 36.2118,245.3497 36.1458,245.2917 C36.0778,245.2337 36.0188,245.1837 35.9648,245.1427 C35.9118,245.1017 35.8338,245.0597 35.7318,245.0167 C35.6288,244.9737 35.5458,244.9397 35.4828,244.9137 C35.4188,244.8887 35.3228,244.8587 35.1918,244.8237 C35.0618,244.7897 34.9638,244.7647 34.8988,244.7467 C34.8338,244.7297 34.7278,244.7037 34.5798,244.6697 C33.9538,244.5197 33.5038,244.3807 33.2338,244.2537 C32.6408,243.9697 32.2998,243.5427 32.2108,242.9737 C32.1938,242.8637 32.1858,242.7497 32.1858,242.6297 C32.1858,241.9957 32.4118,241.4947 32.8638,241.1287 C33.3168,240.7627 33.9258,240.5787 34.6938,240.5787 C35.4538,240.5787 36.0548,240.7757 36.4948,241.1677 C36.9348,241.5597 37.1558,242.0917 37.1558,242.7637 L36.2408,242.7637 C36.2408,242.3627 36.0938,242.0457 35.8008,241.8127 C35.5078,241.5787 35.1318,241.4627 34.6728,241.4627 C34.2168,241.4627 33.8428,241.5657 33.5498,241.7687 C33.2568,241.9727 33.1108,242.2457 33.1108,242.5887 C33.1108,242.7007 33.1278,242.8057 33.1638,242.8997 C33.2008,242.9937 33.2448,243.0757 33.2948,243.1467 C33.3468,243.2167 33.4218,243.2827 33.5218,243.3467 C33.6208,243.4097 33.7118,243.4607 33.7938,243.5007 C33.8758,243.5397 33.9908,243.5817 34.1358,243.6267 C34.2818,243.6707 34.4028,243.7047 34.4978,243.7297 C34.5938,243.7537 34.7278,243.7857 34.8988,243.8267 C35.5258,243.9817 35.9748,244.1217 36.2448,244.2477 C36.8558,244.5297 37.2148,244.9517 37.3248,245.5177 C37.3518,245.6547 37.3658,245.7987 37.3658,245.9487 C37.3658,246.4017 37.2498,246.7947 37.0188,247.1287 C36.7868,247.4627 36.4778,247.7137 36.0888,247.8817 C35.6998,248.0497 35.2588,248.1337 34.7658,248.1337" id="Fill-39" fill="#748494"></path>
                <polygon id="Fill-41" fill="#748494" points="44.0265 240.6718 41.3075 245.1018 41.3075 248.0408 40.3575 248.0408 40.3575 245.1018 37.6595 240.6718 38.6665 240.6718 40.8355 244.2338 43.0135 240.6718"></polygon>
                <path d="M47.0333,248.1337 C46.2183,248.1337 45.5603,247.9197 45.0613,247.4907 C44.5633,247.0637 44.3143,246.4887 44.3143,245.7697 L45.2553,245.7697 C45.2553,246.2187 45.4193,246.5737 45.7483,246.8357 C46.0773,247.0987 46.5023,247.2297 47.0223,247.2297 C47.4953,247.2297 47.8893,247.1127 48.2043,246.8827 C48.5193,246.6517 48.6783,246.3437 48.6783,245.9597 C48.6783,245.8667 48.6653,245.7797 48.6413,245.6957 C48.6173,245.6117 48.5903,245.5377 48.5593,245.4747 C48.5283,245.4107 48.4793,245.3497 48.4133,245.2917 C48.3453,245.2337 48.2863,245.1837 48.2323,245.1427 C48.1793,245.1017 48.1013,245.0597 47.9993,245.0167 C47.8963,244.9737 47.8133,244.9397 47.7503,244.9137 C47.6863,244.8887 47.5903,244.8587 47.4593,244.8237 C47.3293,244.7897 47.2313,244.7647 47.1663,244.7467 C47.1013,244.7297 46.9953,244.7037 46.8473,244.6697 C46.2213,244.5197 45.7713,244.3807 45.5013,244.2537 C44.9083,243.9697 44.5673,243.5427 44.4783,242.9737 C44.4613,242.8637 44.4533,242.7497 44.4533,242.6297 C44.4533,241.9957 44.6793,241.4947 45.1313,241.1287 C45.5843,240.7627 46.1933,240.5787 46.9613,240.5787 C47.7213,240.5787 48.3223,240.7757 48.7623,241.1677 C49.2023,241.5597 49.4233,242.0917 49.4233,242.7637 L48.5083,242.7637 C48.5083,242.3627 48.3613,242.0457 48.0683,241.8127 C47.7753,241.5787 47.3993,241.4627 46.9403,241.4627 C46.4843,241.4627 46.1103,241.5657 45.8173,241.7687 C45.5243,241.9727 45.3783,242.2457 45.3783,242.5887 C45.3783,242.7007 45.3953,242.8057 45.4313,242.8997 C45.4683,242.9937 45.5123,243.0757 45.5623,243.1467 C45.6143,243.2167 45.6893,243.2827 45.7893,243.3467 C45.8883,243.4097 45.9793,243.4607 46.0613,243.5007 C46.1433,243.5397 46.2583,243.5817 46.4033,243.6267 C46.5493,243.6707 46.6703,243.7047 46.7653,243.7297 C46.8613,243.7537 46.9953,243.7857 47.1663,243.8267 C47.7933,243.9817 48.2423,244.1217 48.5123,244.2477 C49.1233,244.5297 49.4823,244.9517 49.5923,245.5177 C49.6193,245.6547 49.6333,245.7987 49.6333,245.9487 C49.6333,246.4017 49.5173,246.7947 49.2863,247.1287 C49.0543,247.4627 48.7453,247.7137 48.3563,247.8817 C47.9673,248.0497 47.5263,248.1337 47.0333,248.1337" id="Fill-43" fill="#748494"></path>
                <polygon id="Fill-45" fill="#748494" points="55.4113 240.6718 55.4113 241.5398 53.1703 241.5398 53.1703 248.0408 52.2453 248.0408 52.2453 241.5398 50.0043 241.5398 50.0043 240.6718"></polygon>
                <polygon id="Fill-47" fill="#748494" points="57.3478 247.1572 60.7138 247.1572 60.7138 248.0412 56.4278 248.0412 56.4278 240.6722 60.6018 240.6722 60.6018 241.5512 57.3478 241.5512 57.3478 243.8272 60.3248 243.8272 60.3248 244.6802 57.3478 244.6802"></polygon>
                <polygon id="Fill-49" fill="#748494" points="70.629 248.041 69.688 248.041 68.727 242.285 66.189 247.852 65.942 247.852 63.398 242.29 62.432 248.041 61.491 248.041 62.73 240.672 63.624 240.672 66.055 246.078 68.501 240.672 69.41 240.672"></polygon>
                <path d="M37.4552,254.5761 L36.0422,258.0601 L38.8932,258.0601 L37.4552,254.5761 Z M39.9682,260.6721 L39.2382,258.9091 L35.6972,258.9091 L34.9772,260.6721 L33.9962,260.6721 L37.0082,253.3021 L37.8712,253.3021 L40.9712,260.6721 L39.9682,260.6721 Z" id="Fill-51" fill="#748494"></path>
                <path d="M44.3722,259.8085 C45.1942,259.8085 45.8702,259.5415 46.4002,259.0085 C46.9302,258.4765 47.1942,257.8015 47.1942,256.9865 C47.1942,256.4495 47.0752,255.9655 46.8372,255.5375 C46.5992,255.1095 46.2652,254.7745 45.8352,254.5335 C45.4042,254.2905 44.9172,254.1705 44.3722,254.1705 L42.8662,254.1705 L42.8662,259.8085 L44.3722,259.8085 Z M44.4032,253.3015 C45.1162,253.3015 45.7582,253.4595 46.3282,253.7745 C46.8982,254.0895 47.3432,254.5285 47.6612,255.0905 C47.9802,255.6525 48.1402,256.2845 48.1402,256.9865 C48.1402,257.6895 47.9802,258.3215 47.6612,258.8825 C47.3432,259.4455 46.8982,259.8835 46.3282,260.1995 C45.7582,260.5135 45.1162,260.6715 44.4032,260.6715 L41.9462,260.6715 L41.9462,253.3015 L44.4032,253.3015 Z" id="Fill-53" fill="#748494"></path>
                <polygon id="Fill-55" fill="#748494" points="57.9826 260.6718 57.0416 260.6718 56.0806 254.9158 53.5426 260.4818 53.2956 260.4818 50.7516 254.9208 49.7856 260.6718 48.8446 260.6718 50.0836 253.3018 50.9776 253.3018 53.4086 258.7078 55.8546 253.3018 56.7636 253.3018"></polygon>
                <mask id="mask-2" fill="white">
                    <use xlink:href="#path-1"></use>
                </mask>
                <g id="Clip-58"></g>
                <polygon id="Fill-57" fill="#748494" mask="url(#mask-2)" points="59.246 260.672 60.166 260.672 60.166 253.302 59.246 253.302"></polygon>
                <polygon id="Fill-59" fill="#748494" mask="url(#mask-2)" points="66.9396 253.3017 67.8446 253.3017 67.8446 260.6717 67.0686 260.6717 62.8756 254.9207 62.8756 260.6717 61.9696 260.6717 61.9696 253.3017 62.8026 253.3017 66.9396 258.9867"></polygon>
                <path d="M391.9328,243.331 C392.3848,243.331 392.7568,243.192 393.0478,242.915 C393.3388,242.637 393.4848,242.288 393.4848,241.866 C393.4848,241.444 393.3388,241.095 393.0478,240.815 C392.7568,240.536 392.3848,240.396 391.9328,240.396 L390.2618,240.396 L390.2618,243.331 L391.9328,243.331 Z M391.9838,239.502 C392.6798,239.502 393.2608,239.727 393.7288,240.178 C394.1968,240.629 394.4298,241.191 394.4298,241.866 C394.4298,242.541 394.1978,243.103 393.7318,243.552 C393.2658,244.001 392.6828,244.226 391.9838,244.226 L390.2618,244.226 L390.2618,246.872 L389.3418,246.872 L389.3418,239.502 L391.9838,239.502 Z" id="Fill-60" fill="#748494" mask="url(#mask-2)"></path>
                <path d="M396.4699,240.3808 L396.4699,243.1148 L398.2949,243.1148 C398.7429,243.1148 399.1069,242.9868 399.3839,242.7328 C399.6619,242.4768 399.8009,242.1488 399.8009,241.7478 C399.8009,241.3508 399.6609,241.0238 399.3819,240.7668 C399.1029,240.5098 398.7409,240.3808 398.2949,240.3808 L396.4699,240.3808 Z M399.8419,246.8718 L398.1509,243.9878 L396.4699,243.9878 L396.4699,246.8718 L395.5499,246.8718 L395.5499,239.5018 L398.3409,239.5018 C399.0329,239.5018 399.6059,239.7148 400.0599,240.1398 C400.5139,240.5648 400.7409,241.1038 400.7409,241.7578 C400.7409,242.2728 400.5939,242.7188 400.2989,243.0968 C400.0039,243.4758 399.6109,243.7368 399.1169,243.8808 L400.8799,246.8718 L399.8419,246.8718 Z" id="Fill-61" fill="#748494" mask="url(#mask-2)"></path>
                <path d="M405.465,246.0908 C406.017,246.0908 406.515,245.9648 406.96,245.7128 C407.405,245.4608 407.753,245.1128 408.003,244.6698 C408.253,244.2258 408.379,243.7318 408.379,243.1868 C408.379,242.6428 408.253,242.1488 408.003,241.7038 C407.753,241.2608 407.405,240.9128 406.96,240.6608 C406.515,240.4088 406.017,240.2828 405.465,240.2828 C404.916,240.2828 404.42,240.4098 403.975,240.6638 C403.528,240.9168 403.181,241.2648 402.931,241.7068 C402.681,242.1488 402.556,242.6428 402.556,243.1868 C402.556,243.7318 402.681,244.2258 402.931,244.6668 C403.181,245.1098 403.528,245.4568 403.975,245.7098 C404.42,245.9638 404.916,246.0908 405.465,246.0908 M407.448,246.4988 C406.86,246.8298 406.197,246.9948 405.465,246.9948 C404.732,246.9948 404.071,246.8298 403.484,246.4988 C402.896,246.1688 402.437,245.7128 402.107,245.1318 C401.776,244.5518 401.611,243.9028 401.611,243.1868 C401.611,242.4708 401.776,241.8218 402.107,241.2418 C402.437,240.6608 402.896,240.2048 403.484,239.8748 C404.071,239.5438 404.732,239.3788 405.465,239.3788 C406.197,239.3788 406.86,239.5438 407.448,239.8748 C408.037,240.2048 408.497,240.6608 408.828,241.2418 C409.159,241.8218 409.324,242.4708 409.324,243.1868 C409.324,243.9028 409.159,244.5518 408.828,245.1318 C408.497,245.7128 408.037,246.1688 407.448,246.4988" id="Fill-62" fill="#748494" mask="url(#mask-2)"></path>
                <path d="M413.05,246.0087 C413.872,246.0087 414.548,245.7417 415.078,245.2087 C415.608,244.6767 415.872,244.0017 415.872,243.1867 C415.872,242.6497 415.753,242.1657 415.515,241.7377 C415.277,241.3097 414.943,240.9747 414.513,240.7337 C414.082,240.4907 413.595,240.3707 413.05,240.3707 L411.544,240.3707 L411.544,246.0087 L413.05,246.0087 Z M413.081,239.5017 C413.794,239.5017 414.436,239.6597 415.006,239.9747 C415.576,240.2897 416.021,240.7287 416.339,241.2907 C416.658,241.8527 416.818,242.4847 416.818,243.1867 C416.818,243.8897 416.658,244.5217 416.339,245.0827 C416.021,245.6457 415.576,246.0837 415.006,246.3997 C414.436,246.7137 413.794,246.8717 413.081,246.8717 L410.624,246.8717 L410.624,239.5017 L413.081,239.5017 Z" id="Fill-63" fill="#748494" mask="url(#mask-2)"></path>
                <path d="M420.9396,246.9951 C420.1036,246.9951 419.4116,246.7261 418.8636,246.1881 C418.3156,245.6501 418.0416,244.9641 418.0416,244.1281 L418.0416,239.5021 L418.9766,239.5021 L418.9766,244.0601 C418.9766,244.6641 419.1596,245.1521 419.5236,245.5281 C419.8886,245.9031 420.3606,246.0911 420.9396,246.0911 C421.5116,246.0911 421.9806,245.9031 422.3446,245.5281 C422.7106,245.1521 422.8926,244.6641 422.8926,244.0601 L422.8926,239.5021 L423.8286,239.5021 L423.8286,244.1281 C423.8286,244.6791 423.7036,245.1741 423.4536,245.6121 C423.2026,246.0521 422.8576,246.3911 422.4176,246.6331 C421.9766,246.8741 421.4846,246.9951 420.9396,246.9951" id="Fill-64" fill="#748494" mask="url(#mask-2)"></path>
                <path d="M428.8078,246.9853 C428.0878,246.9853 427.4408,246.8233 426.8648,246.4993 C426.2888,246.1753 425.8398,245.7233 425.5158,245.1453 C425.1928,244.5663 425.0308,243.9133 425.0308,243.1863 C425.0308,242.4613 425.1928,241.8073 425.5158,241.2283 C425.8398,240.6503 426.2888,240.1983 426.8648,239.8753 C427.4408,239.5503 428.0878,239.3883 428.8078,239.3883 C429.6608,239.3883 430.4028,239.6253 431.0328,240.0953 C431.6628,240.5663 432.0838,241.2003 432.2968,241.9953 L431.3568,241.9953 C431.1618,241.4643 430.8378,241.0473 430.3878,240.7463 C429.9378,240.4443 429.4108,240.2943 428.8078,240.2943 C427.9818,240.2943 427.3038,240.5643 426.7728,241.1053 C426.2418,241.6463 425.9758,242.3403 425.9758,243.1863 C425.9758,244.0333 426.2418,244.7273 426.7728,245.2683 C427.3038,245.8093 427.9818,246.0803 428.8078,246.0803 C429.4278,246.0803 429.9658,245.9203 430.4208,245.5993 C430.8768,245.2793 431.2008,244.8373 431.3928,244.2713 L432.3328,244.2713 C432.1238,245.1033 431.7018,245.7643 431.0668,246.2533 C430.4308,246.7413 429.6778,246.9853 428.8078,246.9853" id="Fill-65" fill="#748494" mask="url(#mask-2)"></path>
                <polygon id="Fill-66" fill="#748494" mask="url(#mask-2)" points="437.9923 239.5019 437.9923 240.3709 435.7513 240.3709 435.7513 246.8719 434.8263 246.8719 434.8263 240.3709 432.5853 240.3709 432.5853 239.5019"></polygon>
                <path d="M397.9484,258.7207 C398.5004,258.7207 398.9984,258.5947 399.4434,258.3437 C399.8884,258.0917 400.2364,257.7437 400.4864,257.2997 C400.7364,256.8567 400.8624,256.3627 400.8624,255.8177 C400.8624,255.2727 400.7364,254.7787 400.4864,254.3347 C400.2364,253.8907 399.8884,253.5427 399.4434,253.2907 C398.9984,253.0397 398.5004,252.9137 397.9484,252.9137 C397.3994,252.9137 396.9034,253.0397 396.4584,253.2937 C396.0114,253.5477 395.6644,253.8957 395.4144,254.3367 C395.1644,254.7797 395.0394,255.2727 395.0394,255.8177 C395.0394,256.3627 395.1644,256.8557 395.4144,257.2977 C395.6644,257.7397 396.0114,258.0867 396.4584,258.3407 C396.9034,258.5947 397.3994,258.7207 397.9484,258.7207 M399.9314,259.1297 C399.3434,259.4597 398.6804,259.6257 397.9484,259.6257 C397.2154,259.6257 396.5544,259.4597 395.9674,259.1297 C395.3794,258.7987 394.9204,258.3437 394.5904,257.7627 C394.2594,257.1817 394.0944,256.5327 394.0944,255.8177 C394.0944,255.1017 394.2594,254.4527 394.5904,253.8717 C394.9204,253.2907 395.3794,252.8357 395.9674,252.5047 C396.5544,252.1747 397.2154,252.0087 397.9484,252.0087 C398.6804,252.0087 399.3434,252.1747 399.9314,252.5047 C400.5204,252.8357 400.9804,253.2907 401.3114,253.8717 C401.6424,254.4527 401.8074,255.1017 401.8074,255.8177 C401.8074,256.5327 401.6424,257.1817 401.3114,257.7627 C400.9804,258.3437 400.5204,258.7987 399.9314,259.1297" id="Fill-67" fill="#748494" mask="url(#mask-2)"></path>
                <polygon id="Fill-68" fill="#748494" mask="url(#mask-2)" points="411.547 252.1328 412.524 252.1328 410.2 259.5018 409.383 259.5018 407.359 254.2658 405.38 259.5018 404.568 259.5018 402.193 252.1328 403.175 252.1328 405.01 257.9868 407.168 252.2768 407.538 252.2768 409.758 257.9908"></polygon>
                <polygon id="Fill-69" fill="#748494" mask="url(#mask-2)" points="418.5363 252.1328 419.4413 252.1328 419.4413 259.5018 418.6653 259.5018 414.4723 253.7508 414.4723 259.5018 413.5663 259.5018 413.5663 252.1328 414.3993 252.1328 418.5363 257.8168"></polygon>
                <polygon id="Fill-70" fill="#748494" mask="url(#mask-2)" points="422.1544 258.6181 425.5204 258.6181 425.5204 259.5021 421.2344 259.5021 421.2344 252.1331 425.4084 252.1331 425.4084 253.0121 422.1544 253.0121 422.1544 255.2881 425.1314 255.2881 425.1314 256.1411 422.1544 256.1411"></polygon>
                <path d="M427.7609,253.0117 L427.7609,255.7447 L429.5859,255.7447 C430.0339,255.7447 430.3979,255.6177 430.6749,255.3627 C430.9529,255.1077 431.0919,254.7797 431.0919,254.3777 C431.0919,253.9807 430.9519,253.6537 430.6729,253.3967 C430.3939,253.1397 430.0319,253.0117 429.5859,253.0117 L427.7609,253.0117 Z M431.1329,259.5017 L429.4419,256.6187 L427.7609,256.6187 L427.7609,259.5017 L426.8409,259.5017 L426.8409,252.1327 L429.6319,252.1327 C430.3239,252.1327 430.8969,252.3447 431.3509,252.7697 C431.8049,253.1947 432.0319,253.7347 432.0319,254.3887 C432.0319,254.9027 431.8849,255.3487 431.5899,255.7277 C431.2949,256.1067 430.9019,256.3667 430.4079,256.5107 L432.1709,259.5017 L431.1329,259.5017 Z" id="Fill-71" fill="#748494" mask="url(#mask-2)"></path>
                <polygon id="Fill-72" fill="#748494" mask="url(#mask-2)" points="410.2091 151.8476 410.2091 152.7156 407.9681 152.7156 407.9681 159.2166 407.0431 159.2166 407.0431 152.7156 404.8021 152.7156 404.8021 151.8476"></polygon>
                <polygon id="Fill-73" fill="#748494" mask="url(#mask-2)" points="412.1457 158.333 415.5117 158.333 415.5117 159.217 411.2257 159.217 411.2257 151.848 415.3997 151.848 415.3997 152.727 412.1457 152.727 412.1457 155.003 415.1227 155.003 415.1227 155.856 412.1457 155.856"></polygon>
                <path d="M419.465,153.122 L418.052,156.606 L420.903,156.606 L419.465,153.122 Z M421.978,159.217 L421.248,157.454 L417.707,157.454 L416.987,159.217 L416.006,159.217 L419.018,151.848 L419.881,151.848 L422.981,159.217 L421.978,159.217 Z" id="Fill-74" fill="#748494" mask="url(#mask-2)"></path>
                <polygon id="Fill-75" fill="#748494" mask="url(#mask-2)" points="432.55 159.2168 431.609 159.2168 430.648 153.4608 428.11 159.0278 427.863 159.0278 425.319 153.4658 424.353 159.2168 423.412 159.2168 424.651 151.8478 425.545 151.8478 427.976 157.2538 430.422 151.8478 431.331 151.8478"></polygon>
                <polygon id="Fill-76" fill="#748494" mask="url(#mask-2)" points="401.8312 170.9843 405.0692 170.9843 405.0692 171.8473 400.9112 171.8473 400.9112 164.4773 401.8312 164.4773"></polygon>
                <polygon id="Fill-77" fill="#748494" mask="url(#mask-2)" points="407.007 170.9638 410.373 170.9638 410.373 171.8478 406.087 171.8478 406.087 164.4778 410.261 164.4778 410.261 165.3568 407.007 165.3568 407.007 167.6328 409.984 167.6328 409.984 168.4858 407.007 168.4858"></polygon>
                <path d="M414.3253,165.7519 L412.9123,169.2359 L415.7633,169.2359 L414.3253,165.7519 Z M416.8383,171.8479 L416.1083,170.0849 L412.5673,170.0849 L411.8473,171.8479 L410.8663,171.8479 L413.8783,164.4779 L414.7413,164.4779 L417.8413,171.8479 L416.8383,171.8479 Z" id="Fill-78" fill="#748494" mask="url(#mask-2)"></path>
                <path d="M421.2433,170.9843 C422.0653,170.9843 422.7413,170.7173 423.2713,170.1843 C423.8013,169.6523 424.0653,168.9773 424.0653,168.1623 C424.0653,167.6253 423.9463,167.1413 423.7083,166.7133 C423.4703,166.2853 423.1363,165.9503 422.7063,165.7093 C422.2753,165.4663 421.7883,165.3463 421.2433,165.3463 L419.7373,165.3463 L419.7373,170.9843 L421.2433,170.9843 Z M421.2743,164.4773 C421.9873,164.4773 422.6293,164.6353 423.1993,164.9503 C423.7693,165.2653 424.2143,165.7043 424.5323,166.2663 C424.8513,166.8283 425.0113,167.4603 425.0113,168.1623 C425.0113,168.8653 424.8513,169.4973 424.5323,170.0583 C424.2143,170.6213 423.7693,171.0593 423.1993,171.3753 C422.6293,171.6893 421.9873,171.8473 421.2743,171.8473 L418.8173,171.8473 L418.8173,164.4773 L421.2743,164.4773 Z" id="Fill-79" fill="#748494" mask="url(#mask-2)"></path>
                <polygon id="Fill-80" fill="#748494" mask="url(#mask-2)" points="427.2404 170.9638 430.6064 170.9638 430.6064 171.8478 426.3204 171.8478 426.3204 164.4778 430.4944 164.4778 430.4944 165.3568 427.2404 165.3568 427.2404 167.6328 430.2174 167.6328 430.2174 168.4858 427.2404 168.4858"></polygon>
                <path d="M432.8478,165.3564 L432.8478,168.0904 L434.6728,168.0904 C435.1208,168.0904 435.4848,167.9624 435.7618,167.7084 C436.0398,167.4524 436.1788,167.1244 436.1788,166.7234 C436.1788,166.3264 436.0388,165.9994 435.7598,165.7424 C435.4808,165.4854 435.1188,165.3564 434.6728,165.3564 L432.8478,165.3564 Z M436.2198,171.8474 L434.5288,168.9634 L432.8478,168.9634 L432.8478,171.8474 L431.9278,171.8474 L431.9278,164.4774 L434.7188,164.4774 C435.4108,164.4774 435.9838,164.6904 436.4378,165.1154 C436.8918,165.5404 437.1188,166.0794 437.1188,166.7334 C437.1188,167.2484 436.9718,167.6944 436.6768,168.0724 C436.3818,168.4514 435.9888,168.7124 435.4948,168.8564 L437.2578,171.8474 L436.2198,171.8474 Z" id="Fill-81" fill="#748494" mask="url(#mask-2)"></path>
                <path d="M135.4005,194.0117 C135.7705,194.0117 136.0775,193.8957 136.3205,193.6637 C136.5635,193.4327 136.6845,193.1427 136.6845,192.7927 C136.6845,192.4477 136.5625,192.1577 136.3175,191.9247 C136.0725,191.6917 135.7665,191.5747 135.4005,191.5747 L133.3755,191.5747 L133.3755,194.0117 L135.4005,194.0117 Z M136.5045,189.5657 C136.5045,189.2537 136.3935,188.9917 136.1715,188.7797 C135.9485,188.5677 135.6735,188.4607 135.3485,188.4607 L133.3755,188.4607 L133.3755,190.6707 L135.3535,190.6707 C135.6795,190.6707 135.9525,190.5637 136.1735,190.3497 C136.3945,190.1357 136.5045,189.8737 136.5045,189.5657 Z M136.5415,191.1027 C136.8795,191.2497 137.1485,191.4847 137.3455,191.8067 C137.5425,192.1287 137.6405,192.4917 137.6405,192.8967 C137.6405,193.4677 137.4265,193.9497 136.9985,194.3397 C136.5705,194.7307 136.0415,194.9257 135.4105,194.9257 L132.4605,194.9257 L132.4605,187.5567 L135.3695,187.5567 C135.9685,187.5567 136.4645,187.7367 136.8575,188.0957 C137.2495,188.4557 137.4455,188.9047 137.4455,189.4427 C137.4455,189.7787 137.3635,190.0987 137.1995,190.4037 C137.0345,190.7077 136.8155,190.9417 136.5415,191.1027 Z" id="Fill-82" fill="#748494" mask="url(#mask-2)"></path>
                <path d="M141.8449,195.0498 C141.0089,195.0498 140.3169,194.7798 139.7689,194.2418 C139.2209,193.7048 138.9469,193.0178 138.9469,192.1818 L138.9469,187.5568 L139.8819,187.5568 L139.8819,192.1148 C139.8819,192.7178 140.0649,193.2068 140.4289,193.5818 C140.7939,193.9568 141.2659,194.1448 141.8449,194.1448 C142.4169,194.1448 142.8859,193.9568 143.2499,193.5818 C143.6159,193.2068 143.7979,192.7178 143.7979,192.1148 L143.7979,187.5568 L144.7339,187.5568 L144.7339,192.1818 C144.7339,192.7338 144.6089,193.2288 144.3589,193.6668 C144.1079,194.1058 143.7629,194.4458 143.3229,194.6878 C142.8819,194.9288 142.3899,195.0498 141.8449,195.0498" id="Fill-83" fill="#748494" mask="url(#mask-2)"></path>
                <path d="M148.6349,195.0185 C147.8199,195.0185 147.1619,194.8045 146.6629,194.3755 C146.1649,193.9485 145.9159,193.3735 145.9159,192.6545 L146.8569,192.6545 C146.8569,193.1035 147.0209,193.4585 147.3499,193.7205 C147.6789,193.9835 148.1039,194.1145 148.6239,194.1145 C149.0969,194.1145 149.4909,193.9975 149.8059,193.7675 C150.1209,193.5365 150.2799,193.2285 150.2799,192.8445 C150.2799,192.7515 150.2669,192.6645 150.2429,192.5805 C150.2189,192.4965 150.1919,192.4225 150.1609,192.3595 C150.1299,192.2955 150.0809,192.2345 150.0149,192.1765 C149.9469,192.1185 149.8879,192.0685 149.8339,192.0275 C149.7809,191.9865 149.7029,191.9445 149.6009,191.9015 C149.4979,191.8585 149.4149,191.8245 149.3519,191.7985 C149.2879,191.7735 149.1919,191.7435 149.0609,191.7085 C148.9309,191.6745 148.8329,191.6495 148.7679,191.6315 C148.7029,191.6145 148.5969,191.5885 148.4489,191.5545 C147.8229,191.4045 147.3729,191.2655 147.1029,191.1385 C146.5099,190.8545 146.1689,190.4275 146.0799,189.8585 C146.0629,189.7485 146.0549,189.6345 146.0549,189.5145 C146.0549,188.8805 146.2809,188.3795 146.7329,188.0135 C147.1859,187.6475 147.7949,187.4635 148.5629,187.4635 C149.3229,187.4635 149.9239,187.6605 150.3639,188.0525 C150.8039,188.4445 151.0249,188.9765 151.0249,189.6485 L150.1099,189.6485 C150.1099,189.2475 149.9629,188.9305 149.6699,188.6975 C149.3769,188.4635 149.0009,188.3475 148.5419,188.3475 C148.0859,188.3475 147.7119,188.4505 147.4189,188.6535 C147.1259,188.8575 146.9799,189.1305 146.9799,189.4735 C146.9799,189.5855 146.9969,189.6905 147.0329,189.7845 C147.0699,189.8785 147.1139,189.9605 147.1639,190.0315 C147.2159,190.1015 147.2909,190.1675 147.3909,190.2315 C147.4899,190.2945 147.5809,190.3455 147.6629,190.3855 C147.7449,190.4245 147.8599,190.4665 148.0049,190.5115 C148.1509,190.5555 148.2719,190.5895 148.3669,190.6145 C148.4629,190.6385 148.5969,190.6705 148.7679,190.7115 C149.3949,190.8665 149.8439,191.0065 150.1139,191.1325 C150.7249,191.4145 151.0839,191.8365 151.1939,192.4025 C151.2209,192.5395 151.2349,192.6835 151.2349,192.8335 C151.2349,193.2865 151.1189,193.6795 150.8879,194.0135 C150.6559,194.3475 150.3469,194.5985 149.9579,194.7665 C149.5689,194.9345 149.1279,195.0185 148.6349,195.0185" id="Fill-84" fill="#748494" mask="url(#mask-2)"></path>
                <polygon id="Fill-85" fill="#748494" mask="url(#mask-2)" points="152.509 194.926 153.429 194.926 153.429 187.557 152.509 187.557"></polygon>
                <polygon id="Fill-86" fill="#748494" mask="url(#mask-2)" points="160.2023 187.5566 161.1073 187.5566 161.1073 194.9256 160.3313 194.9256 156.1383 189.1746 156.1383 194.9256 155.2323 194.9256 155.2323 187.5566 156.0653 187.5566 160.2023 193.2406"></polygon>
                <polygon id="Fill-87" fill="#748494" mask="url(#mask-2)" points="163.8204 194.042 167.1864 194.042 167.1864 194.926 162.9004 194.926 162.9004 187.557 167.0744 187.557 167.0744 188.436 163.8204 188.436 163.8204 190.712 166.7974 190.712 166.7974 191.565 163.8204 191.565"></polygon>
                <path d="M170.7033,195.0185 C169.8883,195.0185 169.2303,194.8045 168.7313,194.3755 C168.2333,193.9485 167.9843,193.3735 167.9843,192.6545 L168.9253,192.6545 C168.9253,193.1035 169.0893,193.4585 169.4183,193.7205 C169.7473,193.9835 170.1723,194.1145 170.6923,194.1145 C171.1653,194.1145 171.5593,193.9975 171.8743,193.7675 C172.1893,193.5365 172.3483,193.2285 172.3483,192.8445 C172.3483,192.7515 172.3353,192.6645 172.3113,192.5805 C172.2873,192.4965 172.2603,192.4225 172.2293,192.3595 C172.1983,192.2955 172.1493,192.2345 172.0833,192.1765 C172.0153,192.1185 171.9563,192.0685 171.9023,192.0275 C171.8493,191.9865 171.7713,191.9445 171.6693,191.9015 C171.5663,191.8585 171.4833,191.8245 171.4203,191.7985 C171.3563,191.7735 171.2603,191.7435 171.1293,191.7085 C170.9993,191.6745 170.9013,191.6495 170.8363,191.6315 C170.7713,191.6145 170.6653,191.5885 170.5173,191.5545 C169.8913,191.4045 169.4413,191.2655 169.1713,191.1385 C168.5783,190.8545 168.2373,190.4275 168.1483,189.8585 C168.1313,189.7485 168.1233,189.6345 168.1233,189.5145 C168.1233,188.8805 168.3493,188.3795 168.8013,188.0135 C169.2543,187.6475 169.8633,187.4635 170.6313,187.4635 C171.3913,187.4635 171.9923,187.6605 172.4323,188.0525 C172.8723,188.4445 173.0933,188.9765 173.0933,189.6485 L172.1783,189.6485 C172.1783,189.2475 172.0313,188.9305 171.7383,188.6975 C171.4453,188.4635 171.0693,188.3475 170.6103,188.3475 C170.1543,188.3475 169.7803,188.4505 169.4873,188.6535 C169.1943,188.8575 169.0483,189.1305 169.0483,189.4735 C169.0483,189.5855 169.0653,189.6905 169.1013,189.7845 C169.1383,189.8785 169.1823,189.9605 169.2323,190.0315 C169.2843,190.1015 169.3593,190.1675 169.4593,190.2315 C169.5583,190.2945 169.6493,190.3455 169.7313,190.3855 C169.8133,190.4245 169.9283,190.4665 170.0733,190.5115 C170.2193,190.5555 170.3403,190.5895 170.4353,190.6145 C170.5313,190.6385 170.6653,190.6705 170.8363,190.7115 C171.4633,190.8665 171.9123,191.0065 172.1823,191.1325 C172.7933,191.4145 173.1523,191.8365 173.2623,192.4025 C173.2893,192.5395 173.3033,192.6835 173.3033,192.8335 C173.3033,193.2865 173.1873,193.6795 172.9563,194.0135 C172.7243,194.3475 172.4153,194.5985 172.0263,194.7665 C171.6373,194.9345 171.1963,195.0185 170.7033,195.0185" id="Fill-88" fill="#748494" mask="url(#mask-2)"></path>
                <path d="M176.7726,195.0185 C175.9576,195.0185 175.2996,194.8045 174.8006,194.3755 C174.3026,193.9485 174.0536,193.3735 174.0536,192.6545 L174.9946,192.6545 C174.9946,193.1035 175.1586,193.4585 175.4876,193.7205 C175.8166,193.9835 176.2416,194.1145 176.7616,194.1145 C177.2346,194.1145 177.6286,193.9975 177.9436,193.7675 C178.2586,193.5365 178.4176,193.2285 178.4176,192.8445 C178.4176,192.7515 178.4046,192.6645 178.3806,192.5805 C178.3566,192.4965 178.3296,192.4225 178.2986,192.3595 C178.2676,192.2955 178.2186,192.2345 178.1526,192.1765 C178.0846,192.1185 178.0256,192.0685 177.9716,192.0275 C177.9186,191.9865 177.8406,191.9445 177.7386,191.9015 C177.6356,191.8585 177.5526,191.8245 177.4896,191.7985 C177.4256,191.7735 177.3296,191.7435 177.1986,191.7085 C177.0686,191.6745 176.9706,191.6495 176.9056,191.6315 C176.8406,191.6145 176.7346,191.5885 176.5866,191.5545 C175.9606,191.4045 175.5106,191.2655 175.2406,191.1385 C174.6476,190.8545 174.3066,190.4275 174.2176,189.8585 C174.2006,189.7485 174.1926,189.6345 174.1926,189.5145 C174.1926,188.8805 174.4186,188.3795 174.8706,188.0135 C175.3236,187.6475 175.9326,187.4635 176.7006,187.4635 C177.4606,187.4635 178.0616,187.6605 178.5016,188.0525 C178.9416,188.4445 179.1626,188.9765 179.1626,189.6485 L178.2476,189.6485 C178.2476,189.2475 178.1006,188.9305 177.8076,188.6975 C177.5146,188.4635 177.1386,188.3475 176.6796,188.3475 C176.2236,188.3475 175.8496,188.4505 175.5566,188.6535 C175.2636,188.8575 175.1176,189.1305 175.1176,189.4735 C175.1176,189.5855 175.1346,189.6905 175.1706,189.7845 C175.2076,189.8785 175.2516,189.9605 175.3016,190.0315 C175.3536,190.1015 175.4286,190.1675 175.5286,190.2315 C175.6276,190.2945 175.7186,190.3455 175.8006,190.3855 C175.8826,190.4245 175.9976,190.4665 176.1426,190.5115 C176.2886,190.5555 176.4096,190.5895 176.5046,190.6145 C176.6006,190.6385 176.7346,190.6705 176.9056,190.7115 C177.5326,190.8665 177.9816,191.0065 178.2516,191.1325 C178.8626,191.4145 179.2216,191.8365 179.3316,192.4025 C179.3586,192.5395 179.3726,192.6835 179.3726,192.8335 C179.3726,193.2865 179.2566,193.6795 179.0256,194.0135 C178.7936,194.3475 178.4846,194.5985 178.0956,194.7665 C177.7066,194.9345 177.2656,195.0185 176.7726,195.0185" id="Fill-89" fill="#748494" mask="url(#mask-2)"></path>
                <path d="M137.2589,201.4609 L135.8459,204.9449 L138.6969,204.9449 L137.2589,201.4609 Z M139.7719,207.5569 L139.0419,205.7939 L135.5009,205.7939 L134.7809,207.5569 L133.7999,207.5569 L136.8119,200.1869 L137.6749,200.1869 L140.7749,207.5569 L139.7719,207.5569 Z" id="Fill-90" fill="#748494" mask="url(#mask-2)"></path>
                <polygon id="Fill-91" fill="#748494" mask="url(#mask-2)" points="146.7199 200.1865 147.6249 200.1865 147.6249 207.5565 146.8489 207.5565 142.6559 201.8055 142.6559 207.5565 141.7499 207.5565 141.7499 200.1865 142.5829 200.1865 146.7199 205.8715"></polygon>
                <path d="M152.0499,201.4609 L150.6369,204.9449 L153.4879,204.9449 L152.0499,201.4609 Z M154.5629,207.5569 L153.8329,205.7939 L150.2919,205.7939 L149.5719,207.5569 L148.5909,207.5569 L151.6029,200.1869 L152.4659,200.1869 L155.5659,207.5569 L154.5629,207.5569 Z" id="Fill-92" fill="#748494" mask="url(#mask-2)"></path>
                <polygon id="Fill-93" fill="#748494" mask="url(#mask-2)" points="157.4611 206.6933 160.6991 206.6933 160.6991 207.5563 156.5411 207.5563 156.5411 200.1863 157.4611 200.1863"></polygon>
                <polygon id="Fill-94" fill="#748494" mask="url(#mask-2)" points="166.4298 200.1865 163.7108 204.6175 163.7108 207.5565 162.7608 207.5565 162.7608 204.6175 160.0628 200.1865 161.0698 200.1865 163.2388 203.7485 165.4168 200.1865"></polygon>
                <path d="M169.4376,207.6484 C168.6226,207.6484 167.9646,207.4344 167.4656,207.0064 C166.9676,206.5784 166.7186,206.0034 166.7186,205.2854 L167.6596,205.2854 C167.6596,205.7334 167.8236,206.0884 168.1526,206.3514 C168.4816,206.6134 168.9066,206.7444 169.4266,206.7444 C169.8996,206.7444 170.2936,206.6284 170.6086,206.3974 C170.9236,206.1664 171.0826,205.8584 171.0826,205.4744 C171.0826,205.3824 171.0696,205.2944 171.0456,205.2104 C171.0216,205.1264 170.9946,205.0524 170.9636,204.9894 C170.9326,204.9254 170.8836,204.8654 170.8176,204.8064 C170.7496,204.7494 170.6906,204.6994 170.6366,204.6584 C170.5836,204.6174 170.5056,204.5754 170.4036,204.5324 C170.3006,204.4894 170.2176,204.4554 170.1546,204.4284 C170.0906,204.4034 169.9946,204.3734 169.8636,204.3384 C169.7336,204.3044 169.6356,204.2794 169.5706,204.2614 C169.5056,204.2454 169.3996,204.2194 169.2516,204.1844 C168.6256,204.0344 168.1756,203.8954 167.9056,203.7684 C167.3126,203.4844 166.9716,203.0574 166.8826,202.4894 C166.8656,202.3794 166.8576,202.2644 166.8576,202.1444 C166.8576,201.5104 167.0836,201.0104 167.5356,200.6444 C167.9886,200.2774 168.5976,200.0934 169.3656,200.0934 C170.1256,200.0934 170.7266,200.2904 171.1666,200.6824 C171.6066,201.0754 171.8276,201.6064 171.8276,202.2784 L170.9126,202.2784 C170.9126,201.8774 170.7656,201.5604 170.4726,201.3274 C170.1796,201.0944 169.8036,200.9784 169.3446,200.9784 C168.8886,200.9784 168.5146,201.0804 168.2216,201.2844 C167.9286,201.4884 167.7826,201.7604 167.7826,202.1034 C167.7826,202.2164 167.7996,202.3204 167.8356,202.4154 C167.8726,202.5084 167.9166,202.5904 167.9666,202.6614 C168.0186,202.7314 168.0936,202.7974 168.1936,202.8614 C168.2926,202.9244 168.3836,202.9764 168.4656,203.0154 C168.5476,203.0554 168.6626,203.0974 168.8076,203.1414 C168.9536,203.1864 169.0746,203.2204 169.1696,203.2444 C169.2656,203.2684 169.3996,203.3004 169.5706,203.3414 C170.1976,203.4964 170.6466,203.6364 170.9166,203.7634 C171.5276,204.0444 171.8866,204.4674 171.9966,205.0334 C172.0236,205.1694 172.0376,205.3144 172.0376,205.4644 C172.0376,205.9174 171.9216,206.3104 171.6906,206.6444 C171.4586,206.9784 171.1496,207.2294 170.7606,207.3974 C170.3716,207.5644 169.9306,207.6484 169.4376,207.6484" id="Fill-95" fill="#748494" mask="url(#mask-2)"></path>
                <polygon id="Fill-96" fill="#748494" mask="url(#mask-2)" points="177.8146 200.1865 177.8146 201.0555 175.5736 201.0555 175.5736 207.5565 174.6486 207.5565 174.6486 201.0555 172.4076 201.0555 172.4076 200.1865"></polygon>
                <path d="M198.0587,302.2031 C198.5037,302.2031 198.9117,302.1231 199.2817,301.9621 L197.5597,299.9521 L198.6857,299.9521 L200.0167,301.4991 C200.3177,301.2321 200.5527,300.9091 200.7207,300.5301 C200.8887,300.1521 200.9727,299.7421 200.9727,299.3001 C200.9727,298.7551 200.8467,298.2611 200.5967,297.8171 C200.3467,297.3731 199.9987,297.0251 199.5537,296.7731 C199.1087,296.5221 198.6107,296.3961 198.0587,296.3961 C197.5097,296.3961 197.0137,296.5221 196.5687,296.7761 C196.1217,297.0301 195.7747,297.3781 195.5247,297.8191 C195.2747,298.2621 195.1497,298.7551 195.1497,299.3001 C195.1497,299.8451 195.2747,300.3381 195.5247,300.7801 C195.7747,301.2221 196.1217,301.5691 196.5687,301.8231 C197.0137,302.0771 197.5097,302.2031 198.0587,302.2031 Z M202.0457,303.8631 L200.9207,303.8631 L199.9037,302.6821 C199.3417,302.9661 198.7267,303.1081 198.0587,303.1081 C197.3257,303.1081 196.6647,302.9421 196.0777,302.6121 C195.4897,302.2811 195.0307,301.8261 194.7007,301.2451 C194.3697,300.6641 194.2047,300.0151 194.2047,299.3001 C194.2047,298.5841 194.3697,297.9351 194.7007,297.3541 C195.0307,296.7731 195.4897,296.3181 196.0777,295.9871 C196.6647,295.6571 197.3257,295.4911 198.0587,295.4911 C198.7907,295.4911 199.4537,295.6571 200.0417,295.9871 C200.6307,296.3181 201.0907,296.7731 201.4217,297.3541 C201.7527,297.9351 201.9177,298.5841 201.9177,299.3001 C201.9177,299.8891 201.8047,300.4331 201.5797,300.9331 C201.3527,301.4341 201.0347,301.8591 200.6227,302.2091 L202.0457,303.8631 Z" id="Fill-97" fill="#748494" mask="url(#mask-2)"></path>
                <path d="M205.1974,296.206 C204.8824,296.206 204.6264,296.286 204.4284,296.447 C204.2314,296.608 204.1334,296.819 204.1334,297.08 C204.1334,297.419 204.3734,297.916 204.8524,298.57 C205.0274,298.467 205.1704,298.381 205.2814,298.31 C205.3924,298.24 205.5154,298.153 205.6494,298.049 C205.7834,297.944 205.8874,297.845 205.9654,297.75 C206.0424,297.656 206.1064,297.547 206.1584,297.421 C206.2094,297.296 206.2354,297.167 206.2354,297.033 C206.2354,296.79 206.1374,296.592 205.9444,296.437 C205.7514,296.283 205.5024,296.206 205.1974,296.206 M204.9864,302.291 C205.5864,302.291 206.1064,302.102 206.5494,301.726 C205.6754,300.769 205.0374,300.052 204.6364,299.572 C204.2804,299.802 204.0064,300.035 203.8144,300.271 C203.6224,300.508 203.5264,300.787 203.5264,301.108 C203.5264,301.462 203.6604,301.747 203.9274,301.965 C204.1944,302.182 204.5484,302.291 204.9864,302.291 M208.7274,302.984 L207.7154,302.984 C207.4994,302.752 207.2944,302.53 207.0984,302.321 C206.5124,302.839 205.7834,303.098 204.9094,303.098 C204.2374,303.098 203.6984,302.919 203.2904,302.56 C202.8834,302.203 202.6784,301.728 202.6784,301.14 C202.6784,300.883 202.7174,300.644 202.7944,300.425 C202.8714,300.206 202.9844,300.009 203.1344,299.834 C203.2824,299.659 203.4364,299.507 203.5954,299.377 C203.7554,299.247 203.9444,299.113 204.1644,298.976 C203.8514,298.561 203.6354,298.213 203.5164,297.93 C203.3964,297.647 203.3374,297.364 203.3374,297.08 C203.3374,296.593 203.5064,296.209 203.8454,295.926 C204.1844,295.644 204.6354,295.502 205.1974,295.502 C205.7414,295.502 206.1834,295.644 206.5224,295.926 C206.8624,296.209 207.0314,296.578 207.0314,297.033 C207.0314,297.239 206.9974,297.435 206.9284,297.619 C206.8604,297.805 206.7784,297.963 206.6814,298.095 C206.5864,298.227 206.4544,298.362 206.2864,298.503 C206.1184,298.644 205.9674,298.759 205.8324,298.848 C205.6964,298.936 205.5244,299.043 205.3154,299.166 C205.7634,299.718 206.3384,300.379 207.0374,301.149 C207.2944,300.726 207.4224,300.244 207.4224,299.706 L208.1824,299.706 C208.1824,300.494 207.9854,301.179 207.5924,301.762 C207.6534,301.826 208.0324,302.234 208.7274,302.984" id="Fill-98" fill="#748494" mask="url(#mask-2)"></path>
                <path d="M212.1915,296.8896 L210.7785,300.3736 L213.6295,300.3736 L212.1915,296.8896 Z M214.7045,302.9846 L213.9745,301.2216 L210.4335,301.2216 L209.7135,302.9846 L208.7325,302.9846 L211.7445,295.6156 L212.6075,295.6156 L215.7075,302.9846 L214.7045,302.9846 Z" id="Fill-99" fill="#748494" mask="url(#mask-2)"></path>
                <path d="M261.4298,305.3906 C260.6148,305.3906 259.9568,305.1766 259.4578,304.7476 C258.9598,304.3206 258.7108,303.7456 258.7108,303.0266 L259.6518,303.0266 C259.6518,303.4756 259.8158,303.8306 260.1448,304.0926 C260.4738,304.3556 260.8988,304.4866 261.4188,304.4866 C261.8918,304.4866 262.2858,304.3696 262.6008,304.1396 C262.9158,303.9086 263.0748,303.6006 263.0748,303.2166 C263.0748,303.1236 263.0618,303.0366 263.0378,302.9526 C263.0138,302.8686 262.9868,302.7946 262.9558,302.7316 C262.9248,302.6676 262.8758,302.6066 262.8098,302.5486 C262.7418,302.4906 262.6828,302.4406 262.6288,302.3996 C262.5758,302.3586 262.4978,302.3166 262.3958,302.2736 C262.2928,302.2306 262.2098,302.1966 262.1468,302.1706 C262.0828,302.1456 261.9868,302.1156 261.8558,302.0806 C261.7258,302.0466 261.6278,302.0216 261.5628,302.0036 C261.4978,301.9866 261.3918,301.9606 261.2438,301.9266 C260.6178,301.7766 260.1678,301.6376 259.8978,301.5106 C259.3048,301.2266 258.9638,300.7996 258.8748,300.2306 C258.8578,300.1206 258.8498,300.0066 258.8498,299.8866 C258.8498,299.2526 259.0758,298.7516 259.5278,298.3856 C259.9808,298.0196 260.5898,297.8356 261.3578,297.8356 C262.1178,297.8356 262.7188,298.0326 263.1588,298.4246 C263.5988,298.8166 263.8198,299.3486 263.8198,300.0206 L262.9048,300.0206 C262.9048,299.6196 262.7578,299.3026 262.4648,299.0696 C262.1718,298.8356 261.7958,298.7196 261.3368,298.7196 C260.8808,298.7196 260.5068,298.8226 260.2138,299.0256 C259.9208,299.2296 259.7748,299.5026 259.7748,299.8456 C259.7748,299.9576 259.7918,300.0626 259.8278,300.1566 C259.8648,300.2506 259.9088,300.3326 259.9588,300.4036 C260.0108,300.4736 260.0858,300.5396 260.1858,300.6036 C260.2848,300.6666 260.3758,300.7176 260.4578,300.7576 C260.5398,300.7966 260.6548,300.8386 260.7998,300.8836 C260.9458,300.9276 261.0668,300.9616 261.1618,300.9866 C261.2578,301.0106 261.3918,301.0426 261.5628,301.0836 C262.1898,301.2386 262.6388,301.3786 262.9088,301.5046 C263.5198,301.7856 263.8788,302.2086 263.9888,302.7746 C264.0158,302.9116 264.0298,303.0556 264.0298,303.2056 C264.0298,303.6586 263.9138,304.0516 263.6828,304.3856 C263.4508,304.7196 263.1418,304.9706 262.7528,305.1386 C262.3638,305.3066 261.9228,305.3906 261.4298,305.3906" id="Fill-100" fill="#748494" mask="url(#mask-2)"></path>
                <path d="M268.1154,305.4218 C267.2794,305.4218 266.5874,305.1518 266.0394,304.6138 C265.4914,304.0768 265.2174,303.3898 265.2174,302.5538 L265.2174,297.9288 L266.1524,297.9288 L266.1524,302.4868 C266.1524,303.0898 266.3354,303.5788 266.6994,303.9538 C267.0644,304.3288 267.5364,304.5168 268.1154,304.5168 C268.6874,304.5168 269.1564,304.3288 269.5204,303.9538 C269.8864,303.5788 270.0684,303.0898 270.0684,302.4868 L270.0684,297.9288 L271.0044,297.9288 L271.0044,302.5538 C271.0044,303.1058 270.8794,303.6008 270.6294,304.0388 C270.3784,304.4778 270.0334,304.8178 269.5934,305.0598 C269.1524,305.3008 268.6604,305.4218 268.1154,305.4218" id="Fill-101" fill="#748494" mask="url(#mask-2)"></path>
                <path d="M275.3009,301.7568 C275.7529,301.7568 276.1249,301.6178 276.4159,301.3408 C276.7069,301.0638 276.8529,300.7138 276.8529,300.2918 C276.8529,299.8708 276.7069,299.5208 276.4159,299.2408 C276.1249,298.9618 275.7529,298.8218 275.3009,298.8218 L273.6299,298.8218 L273.6299,301.7568 L275.3009,301.7568 Z M275.3519,297.9288 C276.0479,297.9288 276.6289,298.1528 277.0969,298.6048 C277.5649,299.0548 277.7979,299.6168 277.7979,300.2918 C277.7979,300.9678 277.5659,301.5288 277.0999,301.9788 C276.6339,302.4268 276.0509,302.6518 275.3519,302.6518 L273.6299,302.6518 L273.6299,305.2978 L272.7099,305.2978 L272.7099,297.9288 L275.3519,297.9288 Z" id="Fill-102" fill="#748494" mask="url(#mask-2)"></path>
                <path d="M281.5089,301.7568 C281.9609,301.7568 282.3329,301.6178 282.6239,301.3408 C282.9149,301.0638 283.0609,300.7138 283.0609,300.2918 C283.0609,299.8708 282.9149,299.5208 282.6239,299.2408 C282.3329,298.9618 281.9609,298.8218 281.5089,298.8218 L279.8379,298.8218 L279.8379,301.7568 L281.5089,301.7568 Z M281.5599,297.9288 C282.2559,297.9288 282.8369,298.1528 283.3049,298.6048 C283.7729,299.0548 284.0059,299.6168 284.0059,300.2918 C284.0059,300.9678 283.7739,301.5288 283.3079,301.9788 C282.8419,302.4268 282.2589,302.6518 281.5599,302.6518 L279.8379,302.6518 L279.8379,305.2978 L278.9179,305.2978 L278.9179,297.9288 L281.5599,297.9288 Z" id="Fill-103" fill="#748494" mask="url(#mask-2)"></path>
                <path d="M288.4787,304.5166 C289.0307,304.5166 289.5287,304.3906 289.9737,304.1396 C290.4187,303.8876 290.7667,303.5396 291.0167,303.0956 C291.2667,302.6526 291.3927,302.1586 291.3927,301.6136 C291.3927,301.0686 291.2667,300.5746 291.0167,300.1306 C290.7667,299.6866 290.4187,299.3386 289.9737,299.0866 C289.5287,298.8356 289.0307,298.7096 288.4787,298.7096 C287.9297,298.7096 287.4337,298.8356 286.9887,299.0896 C286.5417,299.3436 286.1947,299.6916 285.9447,300.1326 C285.6947,300.5756 285.5697,301.0686 285.5697,301.6136 C285.5697,302.1586 285.6947,302.6516 285.9447,303.0936 C286.1947,303.5356 286.5417,303.8826 286.9887,304.1366 C287.4337,304.3906 287.9297,304.5166 288.4787,304.5166 M290.4617,304.9256 C289.8737,305.2556 289.2107,305.4216 288.4787,305.4216 C287.7457,305.4216 287.0847,305.2556 286.4977,304.9256 C285.9097,304.5946 285.4507,304.1396 285.1207,303.5586 C284.7897,302.9776 284.6247,302.3286 284.6247,301.6136 C284.6247,300.8976 284.7897,300.2486 285.1207,299.6676 C285.4507,299.0866 285.9097,298.6316 286.4977,298.3006 C287.0847,297.9706 287.7457,297.8046 288.4787,297.8046 C289.2107,297.8046 289.8737,297.9706 290.4617,298.3006 C291.0507,298.6316 291.5107,299.0866 291.8417,299.6676 C292.1727,300.2486 292.3377,300.8976 292.3377,301.6136 C292.3377,302.3286 292.1727,302.9776 291.8417,303.5586 C291.5107,304.1396 291.0507,304.5946 290.4617,304.9256" id="Fill-104" fill="#748494" mask="url(#mask-2)"></path>
                <path d="M294.5578,298.8076 L294.5578,301.5406 L296.3828,301.5406 C296.8308,301.5406 297.1948,301.4136 297.4718,301.1586 C297.7498,300.9036 297.8888,300.5756 297.8888,300.1736 C297.8888,299.7766 297.7488,299.4496 297.4698,299.1926 C297.1908,298.9356 296.8288,298.8076 296.3828,298.8076 L294.5578,298.8076 Z M297.9298,305.2976 L296.2388,302.4146 L294.5578,302.4146 L294.5578,305.2976 L293.6378,305.2976 L293.6378,297.9286 L296.4288,297.9286 C297.1208,297.9286 297.6938,298.1406 298.1478,298.5656 C298.6018,298.9906 298.8288,299.5306 298.8288,300.1846 C298.8288,300.6986 298.6818,301.1446 298.3868,301.5236 C298.0918,301.9026 297.6988,302.1626 297.2048,302.3066 L298.9678,305.2976 L297.9298,305.2976 Z" id="Fill-105" fill="#748494" mask="url(#mask-2)"></path>
                <polygon id="Fill-106" fill="#748494" mask="url(#mask-2)" points="304.7033 297.9287 304.7033 298.7967 302.4623 298.7967 302.4623 305.2977 301.5373 305.2977 301.5373 298.7967 299.2963 298.7967 299.2963 297.9287"></polygon>
                <polygon id="Fill-107" fill="#748494" mask="url(#mask-2)" points="314.6632 185.8896 314.6632 186.7576 312.4222 186.7576 312.4222 193.2586 311.4972 193.2586 311.4972 186.7576 309.2562 186.7576 309.2562 185.8896"></polygon>
                <polygon id="Fill-108" fill="#748494" mask="url(#mask-2)" points="316.5998 192.375 319.9658 192.375 319.9658 193.259 315.6798 193.259 315.6798 185.89 319.8538 185.89 319.8538 186.769 316.5998 186.769 316.5998 189.045 319.5768 189.045 319.5768 189.898 316.5998 189.898"></polygon>
                <path d="M323.9191,187.164 L322.5061,190.648 L325.3571,190.648 L323.9191,187.164 Z M326.4321,193.259 L325.7021,191.496 L322.1611,191.496 L321.4411,193.259 L320.4601,193.259 L323.4721,185.89 L324.3351,185.89 L327.4351,193.259 L326.4321,193.259 Z" id="Fill-109" fill="#748494" mask="url(#mask-2)"></path>
                <polygon id="Fill-110" fill="#748494" mask="url(#mask-2)" points="337.0041 193.2588 336.0631 193.2588 335.1021 187.5028 332.5641 193.0698 332.3171 193.0698 329.7731 187.5078 328.8071 193.2588 327.8661 193.2588 329.1051 185.8898 329.9991 185.8898 332.4301 191.2958 334.8761 185.8898 335.7851 185.8898"></polygon>
                <polygon id="Fill-111" fill="#748494" mask="url(#mask-2)" points="306.2853 205.0263 309.5233 205.0263 309.5233 205.8893 305.3653 205.8893 305.3653 198.5193 306.2853 198.5193"></polygon>
                <polygon id="Fill-112" fill="#748494" mask="url(#mask-2)" points="311.4611 205.0058 314.8271 205.0058 314.8271 205.8898 310.5411 205.8898 310.5411 198.5198 314.7151 198.5198 314.7151 199.3988 311.4611 199.3988 311.4611 201.6748 314.4381 201.6748 314.4381 202.5278 311.4611 202.5278"></polygon>
                <path d="M318.7794,199.7939 L317.3664,203.2779 L320.2174,203.2779 L318.7794,199.7939 Z M321.2924,205.8899 L320.5624,204.1269 L317.0214,204.1269 L316.3014,205.8899 L315.3204,205.8899 L318.3324,198.5199 L319.1954,198.5199 L322.2954,205.8899 L321.2924,205.8899 Z" id="Fill-113" fill="#748494" mask="url(#mask-2)"></path>
                <path d="M325.6974,205.0263 C326.5194,205.0263 327.1954,204.7593 327.7254,204.2263 C328.2554,203.6943 328.5194,203.0193 328.5194,202.2043 C328.5194,201.6673 328.4004,201.1833 328.1624,200.7553 C327.9244,200.3273 327.5904,199.9923 327.1604,199.7513 C326.7294,199.5083 326.2424,199.3883 325.6974,199.3883 L324.1914,199.3883 L324.1914,205.0263 L325.6974,205.0263 Z M325.7284,198.5193 C326.4414,198.5193 327.0834,198.6773 327.6534,198.9923 C328.2234,199.3073 328.6684,199.7463 328.9864,200.3083 C329.3054,200.8703 329.4654,201.5023 329.4654,202.2043 C329.4654,202.9073 329.3054,203.5393 328.9864,204.1003 C328.6684,204.6633 328.2234,205.1013 327.6534,205.4173 C327.0834,205.7313 326.4414,205.8893 325.7284,205.8893 L323.2714,205.8893 L323.2714,198.5193 L325.7284,198.5193 Z" id="Fill-114" fill="#748494" mask="url(#mask-2)"></path>
                <polygon id="Fill-115" fill="#748494" mask="url(#mask-2)" points="331.6945 205.0058 335.0605 205.0058 335.0605 205.8898 330.7745 205.8898 330.7745 198.5198 334.9485 198.5198 334.9485 199.3988 331.6945 199.3988 331.6945 201.6748 334.6715 201.6748 334.6715 202.5278 331.6945 202.5278"></polygon>
                <path d="M337.3019,199.3984 L337.3019,202.1324 L339.1269,202.1324 C339.5749,202.1324 339.9389,202.0044 340.2159,201.7504 C340.4939,201.4944 340.6329,201.1664 340.6329,200.7654 C340.6329,200.3684 340.4929,200.0414 340.2139,199.7844 C339.9349,199.5274 339.5729,199.3984 339.1269,199.3984 L337.3019,199.3984 Z M340.6739,205.8894 L338.9829,203.0054 L337.3019,203.0054 L337.3019,205.8894 L336.3819,205.8894 L336.3819,198.5194 L339.1729,198.5194 C339.8649,198.5194 340.4379,198.7324 340.8919,199.1574 C341.3459,199.5824 341.5729,200.1214 341.5729,200.7754 C341.5729,201.2904 341.4259,201.7364 341.1309,202.1144 C340.8359,202.4934 340.4429,202.7544 339.9489,202.8984 L341.7119,205.8894 L340.6739,205.8894 Z" id="Fill-116" fill="#748494" mask="url(#mask-2)"></path>
                <path d="M218.5021,194.0625 C219.3241,194.0625 220.0001,193.7955 220.5301,193.2635 C221.0601,192.7305 221.3241,192.0565 221.3241,191.2415 C221.3241,190.7035 221.2051,190.2205 220.9671,189.7915 C220.7291,189.3635 220.3951,189.0285 219.9651,188.7875 C219.5341,188.5455 219.0471,188.4245 218.5021,188.4245 L216.9961,188.4245 L216.9961,194.0625 L218.5021,194.0625 Z M218.5331,187.5565 C219.2461,187.5565 219.8881,187.7135 220.4581,188.0295 C221.0281,188.3445 221.4731,188.7835 221.7911,189.3445 C222.1101,189.9065 222.2701,190.5395 222.2701,191.2415 C222.2701,191.9435 222.1101,192.5765 221.7911,193.1375 C221.4731,193.6995 221.0281,194.1375 220.4581,194.4535 C219.8881,194.7685 219.2461,194.9255 218.5331,194.9255 L216.0761,194.9255 L216.0761,187.5565 L218.5331,187.5565 Z" id="Fill-117" fill="#748494" mask="url(#mask-2)"></path>
                <polygon id="Fill-118" fill="#748494" mask="url(#mask-2)" points="224.5001 194.042 227.8661 194.042 227.8661 194.926 223.5801 194.926 223.5801 187.557 227.7541 187.557 227.7541 188.436 224.5001 188.436 224.5001 190.712 227.4771 190.712 227.4771 191.565 224.5001 191.565"></polygon>
                <path d="M231.382,195.0185 C230.567,195.0185 229.909,194.8045 229.41,194.3755 C228.912,193.9485 228.663,193.3735 228.663,192.6545 L229.604,192.6545 C229.604,193.1035 229.768,193.4585 230.097,193.7205 C230.426,193.9835 230.851,194.1145 231.371,194.1145 C231.844,194.1145 232.238,193.9975 232.553,193.7675 C232.868,193.5365 233.027,193.2285 233.027,192.8445 C233.027,192.7515 233.014,192.6645 232.99,192.5805 C232.966,192.4965 232.939,192.4225 232.908,192.3595 C232.877,192.2955 232.828,192.2345 232.762,192.1765 C232.694,192.1185 232.635,192.0685 232.581,192.0275 C232.528,191.9865 232.45,191.9445 232.348,191.9015 C232.245,191.8585 232.162,191.8245 232.099,191.7985 C232.035,191.7735 231.939,191.7435 231.808,191.7085 C231.678,191.6745 231.58,191.6495 231.515,191.6315 C231.45,191.6145 231.344,191.5885 231.196,191.5545 C230.57,191.4045 230.12,191.2655 229.85,191.1385 C229.257,190.8545 228.916,190.4275 228.827,189.8585 C228.81,189.7485 228.802,189.6345 228.802,189.5145 C228.802,188.8805 229.028,188.3795 229.48,188.0135 C229.933,187.6475 230.542,187.4635 231.31,187.4635 C232.07,187.4635 232.671,187.6605 233.111,188.0525 C233.551,188.4445 233.772,188.9765 233.772,189.6485 L232.857,189.6485 C232.857,189.2475 232.71,188.9305 232.417,188.6975 C232.124,188.4635 231.748,188.3475 231.289,188.3475 C230.833,188.3475 230.459,188.4505 230.166,188.6535 C229.873,188.8575 229.727,189.1305 229.727,189.4735 C229.727,189.5855 229.744,189.6905 229.78,189.7845 C229.817,189.8785 229.861,189.9605 229.911,190.0315 C229.963,190.1015 230.038,190.1675 230.138,190.2315 C230.237,190.2945 230.328,190.3455 230.41,190.3855 C230.492,190.4245 230.607,190.4665 230.752,190.5115 C230.898,190.5555 231.019,190.5895 231.114,190.6145 C231.21,190.6385 231.344,190.6705 231.515,190.7115 C232.142,190.8665 232.591,191.0065 232.861,191.1325 C233.472,191.4145 233.831,191.8365 233.941,192.4025 C233.968,192.5395 233.982,192.6835 233.982,192.8335 C233.982,193.2865 233.866,193.6795 233.635,194.0135 C233.403,194.3475 233.094,194.5985 232.705,194.7665 C232.316,194.9345 231.875,195.0185 231.382,195.0185" id="Fill-119" fill="#748494" mask="url(#mask-2)"></path>
                <polygon id="Fill-120" fill="#748494" mask="url(#mask-2)" points="235.257 194.926 236.177 194.926 236.177 187.557 235.257 187.557"></polygon>
                <path d="M240.9513,191.2666 L244.9033,191.2666 C244.8933,191.8156 244.7943,192.3236 244.6053,192.7906 C244.4173,193.2586 244.1623,193.6586 243.8423,193.9906 C243.5213,194.3236 243.1363,194.5826 242.6833,194.7696 C242.2313,194.9556 241.7433,195.0496 241.2193,195.0496 C240.5063,195.0496 239.8643,194.8856 239.2943,194.5586 C238.7233,194.2316 238.2783,193.7776 237.9583,193.1966 C237.6383,192.6166 237.4773,191.9636 237.4773,191.2416 C237.4773,190.5216 237.6383,189.8716 237.9583,189.2926 C238.2783,188.7146 238.7223,188.2616 239.2893,187.9336 C239.8553,187.6066 240.4923,187.4436 241.1983,187.4436 C242.0853,187.4436 242.8653,187.6946 243.5363,188.1966 C244.2083,188.6986 244.6243,189.3416 244.7853,190.1256 L243.8353,190.1256 C243.6773,189.5946 243.3573,189.1656 242.8763,188.8386 C242.3943,188.5116 241.8423,188.3476 241.2193,188.3476 C240.4033,188.3476 239.7333,188.6186 239.2093,189.1606 C238.6843,189.7016 238.4233,190.3946 238.4233,191.2416 C238.4233,192.0976 238.6813,192.7956 239.1993,193.3346 C239.7163,193.8746 240.3893,194.1446 241.2193,194.1446 C241.8933,194.1446 242.4753,193.9626 242.9643,193.5976 C243.4523,193.2326 243.7633,192.7486 243.8963,192.1456 L240.9513,192.1456 L240.9513,191.2666 Z" id="Fill-121" fill="#748494" mask="url(#mask-2)"></path>
                <polygon id="Fill-122" fill="#748494" mask="url(#mask-2)" points="251.1378 187.5566 252.0428 187.5566 252.0428 194.9256 251.2668 194.9256 247.0738 189.1746 247.0738 194.9256 246.1678 194.9256 246.1678 187.5566 247.0008 187.5566 251.1378 193.2406"></polygon>
                <polygon id="Fill-123" fill="#748494" mask="url(#mask-2)" points="254.756 194.042 258.122 194.042 258.122 194.926 253.836 194.926 253.836 187.557 258.01 187.557 258.01 188.436 254.756 188.436 254.756 190.712 257.733 190.712 257.733 191.565 254.756 191.565"></polygon>
                <path d="M260.3625,188.4355 L260.3625,191.1685 L262.1875,191.1685 C262.6355,191.1685 262.9995,191.0415 263.2765,190.7865 C263.5545,190.5315 263.6935,190.2035 263.6935,189.8015 C263.6935,189.4045 263.5535,189.0775 263.2745,188.8205 C262.9955,188.5635 262.6335,188.4355 262.1875,188.4355 L260.3625,188.4355 Z M263.7345,194.9255 L262.0435,192.0425 L260.3625,192.0425 L260.3625,194.9255 L259.4425,194.9255 L259.4425,187.5565 L262.2335,187.5565 C262.9255,187.5565 263.4985,187.7685 263.9525,188.1935 C264.4065,188.6185 264.6335,189.1585 264.6335,189.8125 C264.6335,190.3265 264.4865,190.7725 264.1915,191.1515 C263.8965,191.5305 263.5035,191.7905 263.0095,191.9345 L264.7725,194.9255 L263.7345,194.9255 Z" id="Fill-124" fill="#748494" mask="url(#mask-2)"></path>
                <path d="M63.757,121.041 C63.757,126.437 59.383,130.812 53.986,130.812 C48.59,130.812 44.215,126.437 44.215,121.041 C44.215,115.645 48.59,111.27 53.986,111.27 C59.383,111.27 63.757,115.645 63.757,121.041" id="Fill-125" fill="#19E69B" mask="url(#mask-2)"></path>
                <path d="M69.3146,144.248 L70.1826,144.248 C70.1826,135.562 63.8416,132.089 57.1546,132.089 L50.6406,132.089 C43.9536,132.089 37.6126,135.562 37.6126,144.248 L38.4816,144.248 L69.3146,144.248 Z" id="Stroke-126" stroke="#242F4E" stroke-width="1.054" stroke-linecap="round" stroke-linejoin="round" mask="url(#mask-2)"></path>
                <path d="M165.048,155.04 C165.048,160.436 160.674,164.811 155.277,164.811 C149.881,164.811 145.506,160.436 145.506,155.04 C145.506,149.644 149.881,145.269 155.277,145.269 C160.674,145.269 165.048,149.644 165.048,155.04" id="Fill-127" fill="#19E69B" mask="url(#mask-2)"></path>
                <path d="M170.674,178.247 L171.542,178.247 C171.542,169.561 165.202,166.088 158.514,166.088 L152,166.088 C145.313,166.088 138.972,169.561 138.972,178.247 L139.841,178.247 L170.674,178.247 Z" id="Stroke-128" stroke="#242F4E" stroke-width="1.054" stroke-linecap="round" stroke-linejoin="round" mask="url(#mask-2)"></path>
                <path d="M249.7277,155.1103 C249.7277,160.5063 245.3527,164.8813 239.9567,164.8813 C234.5597,164.8813 230.1857,160.5063 230.1857,155.1103 C230.1857,149.7143 234.5597,145.3393 239.9567,145.3393 C245.3527,145.3393 249.7277,149.7143 249.7277,155.1103" id="Fill-129" fill="#19E69B" mask="url(#mask-2)"></path>
                <path d="M255.5314,178.247 L256.4004,178.247 C256.4004,169.561 250.0594,166.088 243.3724,166.088 L236.8574,166.088 C230.1704,166.088 223.8304,169.561 223.8304,178.247 L224.6984,178.247 L255.5314,178.247 Z" id="Stroke-130" stroke="#242F4E" stroke-width="1.054" stroke-linecap="round" stroke-linejoin="round" mask="url(#mask-2)"></path>
                <path d="M332.8576,154.9697 C332.8576,160.3657 328.4836,164.7407 323.0866,164.7407 C317.6906,164.7407 313.3156,160.3657 313.3156,154.9697 C313.3156,149.5737 317.6906,145.1987 323.0866,145.1987 C328.4836,145.1987 332.8576,149.5737 332.8576,154.9697" id="Fill-131" fill="#19E69B" mask="url(#mask-2)"></path>
                <path d="M338.5089,178.247 L339.3769,178.247 C339.3769,169.561 333.0369,166.088 326.3499,166.088 L319.8349,166.088 C313.1479,166.088 306.8069,169.561 306.8069,178.247 L307.6759,178.247 L338.5089,178.247 Z" id="Stroke-132" stroke="#242F4E" stroke-width="1.054" stroke-linecap="round" stroke-linejoin="round" mask="url(#mask-2)"></path>
                <path d="M428.799,121.041 C428.799,126.437 424.425,130.812 419.028,130.812 C413.632,130.812 409.257,126.437 409.257,121.041 C409.257,115.645 413.632,111.27 419.028,111.27 C424.425,111.27 428.799,115.645 428.799,121.041" id="Fill-133" fill="#19E69B" mask="url(#mask-2)"></path>
                <path d="M434.423,144.248 L435.291,144.248 C435.291,135.562 428.951,132.089 422.264,132.089 L415.749,132.089 C409.062,132.089 402.722,135.562 402.722,144.248 L403.59,144.248 L434.423,144.248 Z" id="Stroke-134" stroke="#242F4E" stroke-width="1.054" stroke-linecap="round" stroke-linejoin="round" mask="url(#mask-2)"></path>
                <path d="M60.0968,207.6211 C60.0968,213.0171 55.7218,217.3921 50.3258,217.3921 C44.9298,217.3921 40.5548,213.0171 40.5548,207.6211 C40.5548,202.2251 44.9298,197.8501 50.3258,197.8501 C55.7218,197.8501 60.0968,202.2251 60.0968,207.6211" id="Fill-135" fill="#19E69B" mask="url(#mask-2)"></path>
                <path d="M65.8058,230.8115 L66.6738,230.8115 C66.6738,222.1255 60.3338,218.6525 53.6468,218.6525 L47.1318,218.6525 C40.4448,218.6525 34.1048,222.1255 34.1048,230.8115 L34.9728,230.8115 L65.8058,230.8115 Z" id="Stroke-136" stroke="#242F4E" stroke-width="1.054" stroke-linecap="round" stroke-linejoin="round" mask="url(#mask-2)"></path>
                <path d="M423.8722,207.6211 C423.8722,213.0171 419.4972,217.3921 414.1012,217.3921 C408.7042,217.3921 404.3302,213.0171 404.3302,207.6211 C404.3302,202.2251 408.7042,197.8501 414.1012,197.8501 C419.4972,197.8501 423.8722,202.2251 423.8722,207.6211" id="Fill-137" fill="#19E69B" mask="url(#mask-2)"></path>
                <path d="M429.4836,230.8115 L430.3526,230.8115 C430.3526,222.1255 424.0116,218.6525 417.3246,218.6525 L410.8106,218.6525 C404.1226,218.6525 397.7826,222.1255 397.7826,230.8115 L398.6506,230.8115 L429.4836,230.8115 Z" id="Stroke-138" stroke="#242F4E" stroke-width="1.054" stroke-linecap="round" stroke-linejoin="round" mask="url(#mask-2)"></path>
                <path d="M248.4933,83.4257 C248.4933,88.7217 244.2003,93.0147 238.9043,93.0147 C233.6083,93.0147 229.3143,88.7217 229.3143,83.4257 C229.3143,78.1297 233.6083,73.8357 238.9043,73.8357 C244.2003,73.8357 248.4933,78.1297 248.4933,83.4257" id="Fill-139" fill="#19E69B" mask="url(#mask-2)"></path>
                <path d="M254.0343,105.5556 L254.8863,105.5556 C254.8863,97.0316 248.6643,93.6216 242.1003,93.6216 L235.7083,93.6216 C229.1443,93.6216 222.9223,97.0316 222.9223,105.5556 L223.7743,105.5556 L254.0343,105.5556 Z" id="Stroke-140" stroke="#242F4E" stroke-width="1.02" stroke-linecap="round" stroke-linejoin="round" mask="url(#mask-2)"></path>
                <path d="M246.8956,83.4257 C246.8956,87.8387 243.3176,91.4167 238.9046,91.4167 C234.4906,91.4167 230.9136,87.8387 230.9136,83.4257 C230.9136,79.0127 234.4906,75.4347 238.9046,75.4347 C243.3176,75.4347 246.8956,79.0127 246.8956,83.4257 Z" id="Stroke-141" stroke="#242F4E" stroke-width="1.054" stroke-linecap="round" stroke-linejoin="round" mask="url(#mask-2)"></path>
                <path d="M246.8956,50.833 C246.8956,55.246 243.3176,58.824 238.9046,58.824 C234.4906,58.824 230.9136,55.246 230.9136,50.833 C230.9136,46.42 234.4906,42.842 238.9046,42.842 C243.3176,42.842 246.8956,46.42 246.8956,50.833" id="Fill-142" fill="#19E69B" mask="url(#mask-2)"></path>
                <path d="M231.4171,67.0156 C231.4171,71.4296 227.8401,75.0066 223.4271,75.0066 C219.0131,75.0066 215.4361,71.4296 215.4361,67.0156 C215.4361,62.6026 219.0131,59.0256 223.4271,59.0256 C227.8401,59.0256 231.4171,62.6026 231.4171,67.0156" id="Fill-143" fill="#19E69B" mask="url(#mask-2)"></path>
                <path d="M263.6457,67.0156 C263.6457,71.4296 260.0677,75.0066 255.6547,75.0066 C251.2407,75.0066 247.6637,71.4296 247.6637,67.0156 C247.6637,62.6026 251.2407,59.0256 255.6547,59.0256 C260.0677,59.0256 263.6457,62.6026 263.6457,67.0156" id="Fill-144" fill="#19E69B" mask="url(#mask-2)"></path>
                <path d="M221.2765,287.0664 L222.1295,287.0664 C222.1295,278.5434 215.9065,275.1334 209.3425,275.1334 L202.9505,275.1334 C196.3865,275.1334 190.1655,278.5434 190.1655,287.0664 L191.0165,287.0664 L221.2765,287.0664 Z" id="Stroke-145" stroke="#242F4E" stroke-width="1.02" stroke-linecap="round" stroke-linejoin="round" mask="url(#mask-2)"></path>
                <path d="M215.7785,264.7812 C215.7785,270.0772 211.4855,274.3702 206.1895,274.3702 C200.8935,274.3702 196.5995,270.0772 196.5995,264.7812 C196.5995,259.4852 200.8935,255.1922 206.1895,255.1922 C211.4855,255.1922 215.7785,259.4852 215.7785,264.7812" id="Fill-146" fill="#19E69B" mask="url(#mask-2)"></path>
                <path d="M214.1378,232.3447 C214.1378,236.7577 210.5608,240.3347 206.1468,240.3347 C201.7338,240.3347 198.1558,236.7577 198.1558,232.3447 C198.1558,227.9307 201.7338,224.3537 206.1468,224.3537 C210.5608,224.3537 214.1378,227.9307 214.1378,232.3447" id="Fill-147" fill="#19E69B" mask="url(#mask-2)"></path>
                <path d="M198.6603,248.5273 C198.6603,252.9403 195.0823,256.5183 190.6693,256.5183 C186.2563,256.5183 182.6783,252.9403 182.6783,248.5273 C182.6783,244.1143 186.2563,240.5363 190.6693,240.5363 C195.0823,240.5363 198.6603,244.1143 198.6603,248.5273" id="Fill-148" fill="#19E69B" mask="url(#mask-2)"></path>
                <path d="M230.8878,248.5273 C230.8878,252.9403 227.3108,256.5183 222.8968,256.5183 C218.4838,256.5183 214.9058,252.9403 214.9058,248.5273 C214.9058,244.1143 218.4838,240.5363 222.8968,240.5363 C227.3108,240.5363 230.8878,244.1143 230.8878,248.5273" id="Fill-149" fill="#19E69B" mask="url(#mask-2)"></path>
                <path d="M294.6593,288.2363 L295.5123,288.2363 C295.5123,279.7123 289.2893,276.3023 282.7253,276.3023 L276.3333,276.3023 C269.7693,276.3023 263.5473,279.7123 263.5473,288.2363 L264.3993,288.2363 L294.6593,288.2363 Z" id="Stroke-150" stroke="#242F4E" stroke-width="1.02" stroke-linecap="round" stroke-linejoin="round" mask="url(#mask-2)"></path>
                <path d="M289.1046,266.1152 C289.1046,271.4112 284.8116,275.7042 279.5156,275.7042 C274.2196,275.7042 269.9256,271.4112 269.9256,266.1152 C269.9256,260.8192 274.2196,256.5252 279.5156,256.5252 C284.8116,256.5252 289.1046,260.8192 289.1046,266.1152" id="Fill-151" fill="#19E69B" mask="url(#mask-2)"></path>
                <path d="M287.5207,233.5136 C287.5207,237.9266 283.9427,241.5046 279.5297,241.5046 C275.1167,241.5046 271.5387,237.9266 271.5387,233.5136 C271.5387,229.1006 275.1167,225.5226 279.5297,225.5226 C283.9427,225.5226 287.5207,229.1006 287.5207,233.5136" id="Fill-152" fill="#19E69B" mask="url(#mask-2)"></path>
                <path d="M272.0431,249.6962 C272.0431,254.1102 268.4651,257.6872 264.0521,257.6872 C259.6391,257.6872 256.0611,254.1102 256.0611,249.6962 C256.0611,245.2832 259.6391,241.7062 264.0521,241.7062 C268.4651,241.7062 272.0431,245.2832 272.0431,249.6962" id="Fill-153" fill="#19E69B" mask="url(#mask-2)"></path>
                <path d="M304.2707,249.6962 C304.2707,254.1102 300.6927,257.6872 296.2797,257.6872 C291.8667,257.6872 288.2887,254.1102 288.2887,249.6962 C288.2887,245.2832 291.8667,241.7062 296.2797,241.7062 C300.6927,241.7062 304.2707,245.2832 304.2707,249.6962" id="Fill-154" fill="#19E69B" mask="url(#mask-2)"></path>
                <path d="M62.0402,121.0908 C62.0402,125.5878 58.3942,129.2338 53.8972,129.2338 C49.4002,129.2338 45.7552,125.5878 45.7552,121.0908 C45.7552,116.5938 49.4002,112.9478 53.8972,112.9478 C58.3942,112.9478 62.0402,116.5938 62.0402,121.0908 Z" id="Stroke-155" stroke="#242F4E" stroke-width="1.054" stroke-linecap="round" stroke-linejoin="round" mask="url(#mask-2)"></path>
                <path d="M163.3996,155.0908 C163.3996,159.5868 159.7536,163.2338 155.2566,163.2338 C150.7596,163.2338 147.1146,159.5868 147.1146,155.0908 C147.1146,150.5938 150.7596,146.9478 155.2566,146.9478 C159.7536,146.9478 163.3996,150.5938 163.3996,155.0908 Z" id="Stroke-156" stroke="#242F4E" stroke-width="1.054" stroke-linecap="round" stroke-linejoin="round" mask="url(#mask-2)"></path>
                <path d="M248.2579,155.0908 C248.2579,159.5868 244.6119,163.2338 240.1149,163.2338 C235.6179,163.2338 231.9729,159.5868 231.9729,155.0908 C231.9729,150.5938 235.6179,146.9478 240.1149,146.9478 C244.6119,146.9478 248.2579,150.5938 248.2579,155.0908 Z" id="Stroke-157" stroke="#242F4E" stroke-width="1.054" stroke-linecap="round" stroke-linejoin="round" mask="url(#mask-2)"></path>
                <path d="M331.2345,155.0908 C331.2345,159.5868 327.5885,163.2338 323.0915,163.2338 C318.5945,163.2338 314.9495,159.5868 314.9495,155.0908 C314.9495,150.5938 318.5945,146.9478 323.0915,146.9478 C327.5885,146.9478 331.2345,150.5938 331.2345,155.0908 Z" id="Stroke-158" stroke="#242F4E" stroke-width="1.054" stroke-linecap="round" stroke-linejoin="round" mask="url(#mask-2)"></path>
                <path d="M427.1486,121.0908 C427.1486,125.5878 423.5026,129.2338 419.0056,129.2338 C414.5096,129.2338 410.8636,125.5878 410.8636,121.0908 C410.8636,116.5938 414.5096,112.9478 419.0056,112.9478 C423.5026,112.9478 427.1486,116.5938 427.1486,121.0908 Z" id="Stroke-159" stroke="#242F4E" stroke-width="1.054" stroke-linecap="round" stroke-linejoin="round" mask="url(#mask-2)"></path>
                <path d="M58.5314,207.6543 C58.5314,212.1513 54.8854,215.7973 50.3884,215.7973 C45.8924,215.7973 42.2474,212.1513 42.2474,207.6543 C42.2474,203.1573 45.8924,199.5113 50.3884,199.5113 C54.8854,199.5113 58.5314,203.1573 58.5314,207.6543 Z" id="Stroke-160" stroke="#242F4E" stroke-width="1.054" stroke-linecap="round" stroke-linejoin="round" mask="url(#mask-2)"></path>
                <path d="M422.2101,207.6543 C422.2101,212.1513 418.5641,215.7973 414.0671,215.7973 C409.5701,215.7973 405.9251,212.1513 405.9251,207.6543 C405.9251,203.1573 409.5701,199.5113 414.0671,199.5113 C418.5641,199.5113 422.2101,203.1573 422.2101,207.6543 Z" id="Stroke-161" stroke="#242F4E" stroke-width="1.054" stroke-linecap="round" stroke-linejoin="round" mask="url(#mask-2)"></path>
                <path d="M214.1378,264.9365 C214.1378,269.3505 210.5608,272.9275 206.1468,272.9275 C201.7338,272.9275 198.1558,269.3505 198.1558,264.9365 C198.1558,260.5235 201.7338,256.9465 206.1468,256.9465 C210.5608,256.9465 214.1378,260.5235 214.1378,264.9365 Z" id="Stroke-162" stroke="#242F4E" stroke-width="1.054" stroke-linecap="round" stroke-linejoin="round" mask="url(#mask-2)"></path>
                <path d="M287.507,266.1855 C287.507,270.5985 283.929,274.1765 279.516,274.1765 C275.102,274.1765 271.525,270.5985 271.525,266.1855 C271.525,261.7715 275.102,258.1945 279.516,258.1945 C283.929,258.1945 287.507,261.7715 287.507,266.1855 Z" id="Stroke-163" stroke="#242F4E" stroke-width="1.054" stroke-linecap="round" stroke-linejoin="round" mask="url(#mask-2)"></path>
            </g>
        </g>
    </g>
</svg>