<?xml version="1.0" encoding="UTF-8"?>
<svg width="866px" height="273px" viewBox="0 0 866 273" version="1.1" xmlns="http://www.w3.org/2000/svg" xmlns:xlink="http://www.w3.org/1999/xlink">
    <!-- Generator: Sketch 51.3 (57544) - http://www.bohemiancoding.com/sketch -->
    <title>Group 121</title>
    <desc>Created with Sketch.</desc>
    <defs>
        <polygon id="path-1" points="0 272.262 865.25 272.262 865.25 0 0 0"></polygon>
    </defs>
    <g id="Page-1" stroke="none" stroke-width="1" fill="none" fill-rule="evenodd">
        <g id="Teams" transform="translate(-282.000000, -3310.000000)">
            <g id="Group-121" transform="translate(282.000000, 3310.000000)">
                <path d="M156.249,85.0077 C156.249,96.8057 146.686,106.3687 134.888,106.3687 C123.091,106.3687 113.527,96.8057 113.527,85.0077 C113.527,73.2107 123.091,63.6477 134.888,63.6477 C146.686,63.6477 156.249,73.2107 156.249,85.0077" id="Fill-1" fill="#50E29D"></path>
                <path d="M161.8984,84.9354 C161.8984,100.0244 149.6674,112.2554 134.5784,112.2554 C119.4904,112.2554 107.2584,100.0244 107.2584,84.9354 C107.2584,69.8474 119.4904,57.6164 134.5784,57.6164 C149.6674,57.6164 161.8984,69.8474 161.8984,84.9354 Z" id="Stroke-3" stroke="#11193A" stroke-width="1.239" stroke-linecap="round" stroke-linejoin="round"></path>
                <path d="M108.3701,136.787 L122.3411,110.339" id="Stroke-5" stroke="#11193A" stroke-width="1.239" stroke-linecap="round" stroke-linejoin="round"></path>
                <polyline id="Stroke-7" stroke="#11193A" stroke-width="1.239" stroke-linecap="round" stroke-linejoin="round" points="145.3428 82.705 149.4338 87.374 153.8968 83.16"></polyline>
                <path d="M147.3223,92.9677 C144.6643,97.0787 140.0393,99.7997 134.7783,99.7997 C126.5343,99.7997 119.8503,93.1157 119.8503,84.8707 C119.8503,76.6257 126.5343,69.9427 134.7783,69.9427 C143.0233,69.9427 149.7073,76.6257 149.7073,84.8707 C149.7073,85.5607 149.6603,86.2397 149.5703,86.9047" id="Stroke-9" stroke="#11193A" stroke-width="1.239" stroke-linecap="round" stroke-linejoin="round"></path>
                <path d="M456.6836,108.8495 C456.6836,119.2575 448.2456,127.6955 437.8376,127.6955 C427.4296,127.6955 418.9926,119.2575 418.9926,108.8495 C418.9926,98.4415 427.4296,90.0035 437.8376,90.0035 C448.2456,90.0035 456.6836,98.4415 456.6836,108.8495" id="Fill-11" fill="#50E29D"></path>
                <path d="M456.9189,137.3085 L457.9909,137.3085 C457.9909,126.5835 450.1619,122.2935 441.9029,122.2935 L433.8599,122.2935 C425.6019,122.2935 417.7729,126.5835 417.7729,137.3085 L418.8449,137.3085 L456.9189,137.3085 Z" id="Stroke-13" stroke="#11193A" stroke-width="1.239" stroke-linecap="round" stroke-linejoin="round"></path>
                <path d="M447.9365,109.4647 C447.9365,115.0177 443.4345,119.5197 437.8815,119.5197 C432.3295,119.5197 427.8275,115.0177 427.8275,109.4647 C427.8275,103.9117 432.3295,99.4097 437.8815,99.4097 C443.4345,99.4097 447.9365,103.9117 447.9365,109.4647 Z" id="Stroke-15" stroke="#11193A" stroke-width="1.239" stroke-linecap="round" stroke-linejoin="round"></path>
                <path d="M447.9365,60.7518 C447.9365,66.3048 443.4345,70.8068 437.8815,70.8068 C432.3295,70.8068 427.8275,66.3048 427.8275,60.7518 C427.8275,55.1988 432.3295,50.6968 437.8815,50.6968 C443.4345,50.6968 447.9365,55.1988 447.9365,60.7518 Z" id="Stroke-17" stroke="#11193A" stroke-width="1.239" stroke-linecap="round" stroke-linejoin="round"></path>
                <path d="M423.3262,84.9657 C423.3262,90.5187 418.8242,95.0207 413.2712,95.0207 C407.7192,95.0207 403.2172,90.5187 403.2172,84.9657 C403.2172,79.4127 407.7192,74.9107 413.2712,74.9107 C418.8242,74.9107 423.3262,79.4127 423.3262,84.9657 Z" id="Stroke-19" stroke="#11193A" stroke-width="1.239" stroke-linecap="round" stroke-linejoin="round"></path>
                <path d="M472.8633,84.9657 C472.8633,90.5187 468.3623,95.0207 462.8083,95.0207 C457.2563,95.0207 452.7553,90.5187 452.7553,84.9657 C452.7553,79.4127 457.2563,74.9107 462.8083,74.9107 C468.3623,74.9107 472.8633,79.4127 472.8633,84.9657 Z" id="Stroke-21" stroke="#11193A" stroke-width="1.239" stroke-linecap="round" stroke-linejoin="round"></path>
                <path d="M79.0996,167.4559 C79.9376,167.4559 80.6216,167.1819 81.1526,166.6329 C81.6836,166.0839 81.9506,165.3789 81.9506,164.5179 C81.9506,163.6559 81.6836,162.9539 81.1526,162.4089 C80.6216,161.8649 79.9376,161.5929 79.0996,161.5929 L77.5616,161.5929 L77.5616,167.4559 L79.0996,167.4559 Z M79.1476,159.6239 C79.8586,159.6239 80.5226,159.7469 81.1396,159.9929 C81.7576,160.2389 82.2836,160.5779 82.7186,161.0079 C83.1536,161.4379 83.4956,161.9569 83.7436,162.5619 C83.9926,163.1689 84.1166,163.8199 84.1166,164.5179 C84.1166,165.2199 83.9906,165.8739 83.7406,166.4819 C83.4896,167.0909 83.1466,167.6099 82.7116,168.0409 C82.2766,168.4719 81.7506,168.8099 81.1336,169.0559 C80.5156,169.3019 79.8536,169.4249 79.1476,169.4249 L75.4436,169.4249 L75.4436,159.6239 L79.1476,159.6239 Z" id="Fill-23" fill="#243647"></path>
                <path d="M89.0986,163.3964 C88.6476,163.3964 88.2646,163.5224 87.9496,163.7724 C87.6366,164.0234 87.4186,164.3744 87.3006,164.8254 L90.9636,164.8254 C90.8236,164.3654 90.5916,164.0114 90.2706,163.7654 C89.9496,163.5194 89.5586,163.3964 89.0986,163.3964 M93.0076,165.6184 C93.0076,165.8234 92.9946,166.0234 92.9666,166.2194 L87.2456,166.2194 C87.3326,166.7344 87.5386,167.1294 87.8656,167.4054 C88.1906,167.6804 88.6016,167.8184 89.0986,167.8184 C89.4496,167.8184 89.7646,167.7414 90.0446,167.5854 C90.3256,167.4314 90.5426,167.2164 90.6986,166.9434 L92.8436,166.9434 C92.5706,167.7684 92.0966,168.4234 91.4216,168.9094 C90.7476,169.3934 89.9726,169.6364 89.0986,169.6364 C88.3646,169.6364 87.6986,169.4624 87.0986,169.1144 C86.4996,168.7654 86.0296,168.2864 85.6876,167.6754 C85.3456,167.0644 85.1756,166.3874 85.1756,165.6454 C85.1756,164.8984 85.3456,164.2184 85.6836,163.6084 C86.0236,162.9984 86.4936,162.5194 87.0926,162.1734 C87.6916,161.8274 88.3606,161.6534 89.0986,161.6534 C89.8546,161.6534 90.5346,161.8334 91.1346,162.1904 C91.7366,162.5474 92.1996,163.0274 92.5226,163.6284 C92.8456,164.2304 93.0076,164.8934 93.0076,165.6184" id="Fill-25" fill="#243647"></path>
                <path d="M98.9668,161.9686 L98.9668,163.6496 L97.0678,163.6496 L97.0678,169.4246 L95.0238,169.4246 L95.0238,163.6496 L93.7118,163.6496 L93.7118,161.9686 L95.0308,161.9686 L95.0308,161.2846 C95.0308,160.5466 95.2368,159.9666 95.6458,159.5456 C96.0558,159.1236 96.6508,158.9126 97.4298,158.9126 L98.9538,158.9126 L98.9538,160.5196 L97.8398,160.5196 C97.2878,160.5196 97.0128,160.7896 97.0128,161.3326 L97.0128,161.9686 L98.9668,161.9686 Z" id="Fill-27" fill="#243647"></path>
                <mask id="mask-2" fill="white">
                    <use xlink:href="#path-1"></use>
                </mask>
                <g id="Clip-30"></g>
                <path d="M100.143,169.425 L102.187,169.425 L102.187,161.865 L100.143,161.865 L100.143,169.425 Z M100.143,160.861 L102.18,160.861 L102.18,158.961 L100.143,158.961 L100.143,160.861 Z" id="Fill-29" fill="#243647" mask="url(#mask-2)"></path>
                <path d="M108.4404,161.6884 C109.2974,161.6884 109.9784,161.9744 110.4844,162.5454 C110.9894,163.1184 111.2434,163.8844 111.2434,164.8454 L111.2434,169.4244 L109.1994,169.4244 L109.1994,165.1734 C109.1994,164.0434 108.7594,163.4784 107.8804,163.4784 C107.3564,163.4784 106.9424,163.6554 106.6394,164.0084 C106.3364,164.3614 106.1854,164.8434 106.1854,165.4544 L106.1854,169.4244 L104.1414,169.4244 L104.1414,161.8654 L105.5434,161.8654 L105.9394,162.8014 C106.2314,162.4564 106.5934,162.1834 107.0294,161.9854 C107.4644,161.7874 107.9354,161.6884 108.4404,161.6884" id="Fill-31" fill="#243647" mask="url(#mask-2)"></path>
                <path d="M116.5322,163.3964 C116.0822,163.3964 115.6982,163.5224 115.3842,163.7724 C115.0702,164.0234 114.8532,164.3744 114.7352,164.8254 L118.3982,164.8254 C118.2572,164.3654 118.0252,164.0114 117.7052,163.7654 C117.3832,163.5194 116.9932,163.3964 116.5322,163.3964 M120.4412,165.6184 C120.4412,165.8234 120.4282,166.0234 120.4002,166.2194 L114.6802,166.2194 C114.7662,166.7344 114.9722,167.1294 115.2992,167.4054 C115.6252,167.6804 116.0362,167.8184 116.5322,167.8184 C116.8842,167.8184 117.1982,167.7414 117.4792,167.5854 C117.7602,167.4314 117.9762,167.2164 118.1322,166.9434 L120.2772,166.9434 C120.0052,167.7684 119.5302,168.4234 118.8552,168.9094 C118.1812,169.3934 117.4072,169.6364 116.5322,169.6364 C115.7992,169.6364 115.1332,169.4624 114.5332,169.1144 C113.9342,168.7654 113.4642,168.2864 113.1222,167.6754 C112.7802,167.0644 112.6092,166.3874 112.6092,165.6454 C112.6092,164.8984 112.7792,164.2184 113.1182,163.6084 C113.4582,162.9984 113.9272,162.5194 114.5262,162.1734 C115.1262,161.8274 115.7942,161.6534 116.5322,161.6534 C117.2892,161.6534 117.9682,161.8334 118.5692,162.1904 C119.1702,162.5474 119.6332,163.0274 119.9562,163.6284 C120.2802,164.2304 120.4412,164.8934 120.4412,165.6184" id="Fill-32" fill="#243647" mask="url(#mask-2)"></path>
                <polygon id="Fill-33" fill="#243647" mask="url(#mask-2)" points="131.7119 159.6239 131.7119 161.5929 128.9849 161.5929 128.9849 169.4249 126.8659 169.4249 126.8659 161.5929 124.1459 161.5929 124.1459 159.6239"></polygon>
                <path d="M135.3828,163.3964 C134.9318,163.3964 134.5488,163.5224 134.2348,163.7724 C133.9198,164.0234 133.7028,164.3744 133.5848,164.8254 L137.2478,164.8254 C137.1078,164.3654 136.8758,164.0114 136.5548,163.7654 C136.2338,163.5194 135.8428,163.3964 135.3828,163.3964 M139.2918,165.6184 C139.2918,165.8234 139.2788,166.0234 139.2508,166.2194 L133.5298,166.2194 C133.6168,166.7344 133.8228,167.1294 134.1498,167.4054 C134.4748,167.6804 134.8858,167.8184 135.3828,167.8184 C135.7338,167.8184 136.0488,167.7414 136.3288,167.5854 C136.6098,167.4314 136.8268,167.2164 136.9828,166.9434 L139.1278,166.9434 C138.8548,167.7684 138.3808,168.4234 137.7058,168.9094 C137.0318,169.3934 136.2568,169.6364 135.3828,169.6364 C134.6498,169.6364 133.9828,169.4624 133.3828,169.1144 C132.7838,168.7654 132.3138,168.2864 131.9728,167.6754 C131.6298,167.0644 131.4598,166.3874 131.4598,165.6454 C131.4598,164.8984 131.6288,164.2184 131.9688,163.6084 C132.3088,162.9984 132.7778,162.5194 133.3768,162.1734 C133.9758,161.8274 134.6448,161.6534 135.3828,161.6534 C136.1388,161.6534 136.8188,161.8334 137.4188,162.1904 C138.0208,162.5474 138.4838,163.0274 138.8068,163.6284 C139.1298,164.2304 139.2918,164.8934 139.2918,165.6184" id="Fill-34" fill="#243647" mask="url(#mask-2)"></path>
                <path d="M142.9033,167.1112 C143.2933,167.5062 143.7843,167.7032 144.3773,167.7032 C144.9683,167.7032 145.4603,167.5072 145.8493,167.1152 C146.2393,166.7222 146.4333,166.2282 146.4333,165.6322 C146.4333,165.0352 146.2393,164.5402 145.8493,164.1482 C145.4603,163.7572 144.9683,163.5602 144.3773,163.5602 C143.7843,163.5602 143.2933,163.7572 142.9033,164.1522 C142.5143,164.5462 142.3193,165.0392 142.3193,165.6322 C142.3193,166.2242 142.5143,166.7162 142.9033,167.1112 Z M146.9123,161.8522 L148.4433,161.8522 L148.4433,169.4112 L146.8373,169.4112 L146.6593,168.7342 C145.9713,169.3362 145.1553,169.6362 144.2133,169.6362 C143.4653,169.6362 142.7883,169.4642 142.1823,169.1172 C141.5763,168.7702 141.1023,168.2922 140.7613,167.6782 C140.4193,167.0652 140.2493,166.3832 140.2493,165.6322 C140.2493,164.8842 140.4193,164.2062 140.7613,163.5982 C141.1023,162.9902 141.5763,162.5132 142.1823,162.1702 C142.7883,161.8262 143.4653,161.6532 144.2133,161.6532 C145.1743,161.6532 146.0013,161.9622 146.6943,162.5772 L146.9123,161.8522 Z" id="Fill-35" fill="#243647" mask="url(#mask-2)"></path>
                <path d="M159.002,161.6884 C159.786,161.6884 160.425,161.9654 160.92,162.5224 C161.414,163.0784 161.661,163.7974 161.661,164.6814 L161.661,169.4244 L159.618,169.4244 L159.618,165.0234 C159.618,164.5174 159.521,164.1334 159.327,163.8724 C159.133,163.6094 158.852,163.4784 158.482,163.4784 C158.027,163.4784 157.671,163.6414 157.413,163.9674 C157.156,164.2924 157.027,164.7504 157.027,165.3374 L157.027,169.4244 L155.038,169.4244 L155.038,165.0234 C155.038,164.5174 154.944,164.1334 154.755,163.8724 C154.565,163.6094 154.289,163.4784 153.925,163.4784 C153.46,163.4784 153.098,163.6414 152.838,163.9674 C152.578,164.2924 152.448,164.7504 152.448,165.3374 L152.448,169.4244 L150.404,169.4244 L150.404,161.8654 L151.826,161.8654 L152.209,162.8014 C152.478,162.4604 152.812,162.1894 153.21,161.9894 C153.608,161.7884 154.027,161.6884 154.464,161.6884 C154.942,161.6884 155.374,161.7934 155.756,162.0054 C156.139,162.2174 156.439,162.5154 156.658,162.8974 C156.922,162.5244 157.261,162.2294 157.673,162.0124 C158.086,161.7954 158.528,161.6884 159.002,161.6884" id="Fill-36" fill="#243647" mask="url(#mask-2)"></path>
                <path d="M170.0273,160.9638 C169.7393,160.9638 169.5103,161.0418 169.3403,161.1988 C169.1693,161.3568 169.0833,161.5628 169.0833,161.8178 C169.0833,162.1098 169.2813,162.5538 169.6783,163.1508 C170.1063,162.9138 170.4283,162.6948 170.6453,162.4948 C170.8623,162.2938 170.9693,162.0668 170.9693,161.8118 C170.9693,161.5558 170.8823,161.3508 170.7113,161.1958 C170.5373,161.0408 170.3083,160.9638 170.0273,160.9638 Z M169.7133,167.8318 C170.1863,167.8318 170.6213,167.7228 171.0173,167.5038 C170.1883,166.5428 169.5803,165.8228 169.1923,165.3448 C168.6413,165.7738 168.3663,166.2338 168.3663,166.7258 C168.3663,167.0578 168.4893,167.3248 168.7353,167.5278 C168.9813,167.7318 169.3063,167.8318 169.7133,167.8318 Z M174.9063,169.4248 L172.7063,169.4248 C172.6413,169.3568 172.5523,169.2568 172.4393,169.1238 C172.3263,168.9918 172.2413,168.8968 172.1863,168.8368 C171.4253,169.3388 170.5373,169.5888 169.5203,169.5888 C168.6003,169.5888 167.8583,169.3338 167.2963,168.8228 C166.7343,168.3138 166.4523,167.6338 166.4523,166.7858 C166.4523,166.4588 166.4973,166.1518 166.5863,165.8668 C166.6743,165.5828 166.8013,165.3268 166.9683,165.1028 C167.1343,164.8758 167.3143,164.6768 167.5073,164.5038 C167.7023,164.3308 167.9233,164.1618 168.1743,163.9978 C167.8243,163.4878 167.5833,163.0678 167.4533,162.7398 C167.3243,162.4128 167.2583,162.1008 167.2583,161.8048 C167.2583,161.1028 167.5113,160.5388 168.0173,160.1118 C168.5233,159.6868 169.1923,159.4738 170.0273,159.4738 C170.8463,159.4738 171.5093,159.6868 172.0153,160.1118 C172.5213,160.5388 172.7743,161.1008 172.7743,161.7978 C172.7743,162.0528 172.7323,162.2938 172.6483,162.5228 C172.5633,162.7498 172.4603,162.9478 172.3373,163.1158 C172.2143,163.2848 172.0503,163.4558 171.8473,163.6288 C171.6453,163.8028 171.4563,163.9458 171.2813,164.0598 C171.1053,164.1738 170.8903,164.3038 170.6353,164.4488 C171.0123,164.9228 171.5233,165.5338 172.1663,166.2808 C172.3883,165.8388 172.5213,165.3428 172.5623,164.7908 L174.2853,164.7908 C174.2393,165.9068 173.9363,166.8678 173.3753,167.6758 L174.9063,169.4248 Z" id="Fill-37" fill="#243647" mask="url(#mask-2)"></path>
                <polygon id="Fill-38" fill="#243647" mask="url(#mask-2)" points="53.7197 186.2528 57.4787 186.2528 57.4787 188.2218 51.6007 188.2218 51.6007 178.4208 53.7197 178.4208"></polygon>
                <path d="M62.0581,182.1932 C61.6071,182.1932 61.2241,182.3182 60.9101,182.5692 C60.5961,182.8192 60.3791,183.1712 60.2611,183.6222 L63.9241,183.6222 C63.7831,183.1612 63.5511,182.8082 63.2301,182.5622 C62.9091,182.3162 62.5181,182.1932 62.0581,182.1932 M65.9671,184.4152 C65.9671,184.6192 65.9541,184.8202 65.9261,185.0152 L60.2061,185.0152 C60.2921,185.5312 60.4981,185.9252 60.8251,186.2022 C61.1501,186.4772 61.5611,186.6152 62.0581,186.6152 C62.4091,186.6152 62.7241,186.5382 63.0051,186.3822 C63.2851,186.2272 63.5021,186.0132 63.6571,185.7402 L65.8031,185.7402 C65.5301,186.5652 65.0561,187.2192 64.3811,187.7052 C63.7071,188.1902 62.9331,188.4332 62.0581,188.4332 C61.3251,188.4332 60.6581,188.2582 60.0581,187.9102 C59.4601,187.5612 58.9891,187.0822 58.6481,186.4712 C58.3061,185.8612 58.1351,185.1842 58.1351,184.4422 C58.1351,183.6942 58.3051,183.0152 58.6441,182.4052 C58.9841,181.7952 59.4531,181.3162 60.0521,180.9692 C60.6511,180.6242 61.3201,180.4502 62.0581,180.4502 C62.8141,180.4502 63.4941,180.6292 64.0951,180.9872 C64.6961,181.3442 65.1591,181.8242 65.4821,182.4252 C65.8061,183.0272 65.9671,183.6902 65.9671,184.4152" id="Fill-39" fill="#243647" mask="url(#mask-2)"></path>
                <path d="M69.5786,185.9081 C69.9686,186.3021 70.4596,186.4991 71.0526,186.4991 C71.6436,186.4991 72.1356,186.3031 72.5246,185.9111 C72.9146,185.5191 73.1096,185.0251 73.1096,184.4281 C73.1096,183.8311 72.9146,183.3371 72.5246,182.9451 C72.1356,182.5531 71.6436,182.3571 71.0526,182.3571 C70.4596,182.3571 69.9686,182.5541 69.5786,182.9481 C69.1896,183.3431 68.9956,183.8361 68.9956,184.4281 C68.9956,185.0201 69.1896,185.5131 69.5786,185.9081 Z M73.5876,180.6481 L75.1186,180.6481 L75.1186,188.2081 L73.5126,188.2081 L73.3346,187.5311 C72.6466,188.1331 71.8306,188.4331 70.8886,188.4331 C70.1406,188.4331 69.4636,188.2601 68.8576,187.9141 C68.2516,187.5671 67.7786,187.0881 67.4366,186.4741 C67.0946,185.8621 66.9246,185.1791 66.9246,184.4281 C66.9246,183.6801 67.0946,183.0031 67.4366,182.3951 C67.7786,181.7871 68.2516,181.3101 68.8576,180.9671 C69.4636,180.6231 70.1406,180.4501 70.8886,180.4501 C71.8496,180.4501 72.6766,180.7581 73.3696,181.3731 L73.5876,180.6481 Z" id="Fill-40" fill="#243647" mask="url(#mask-2)"></path>
                <path d="M80.9414,180.621 L81.6114,180.621 L81.6114,182.549 L80.7304,182.549 C80.1554,182.549 79.7444,182.684 79.4964,182.955 C79.2484,183.226 79.1234,183.672 79.1234,184.292 L79.1234,188.222 L77.0794,188.222 L77.0794,180.662 L78.3854,180.662 L78.7484,181.592 C79.2674,180.945 79.9984,180.621 80.9414,180.621" id="Fill-41" fill="#243647" mask="url(#mask-2)"></path>
                <path d="M87.0723,180.4843 C87.9293,180.4843 88.6103,180.7703 89.1163,181.3423 C89.6213,181.9143 89.8753,182.6803 89.8753,183.6423 L89.8753,188.2213 L87.8313,188.2213 L87.8313,183.9703 C87.8313,182.8393 87.3913,182.2753 86.5123,182.2753 C85.9883,182.2753 85.5743,182.4523 85.2713,182.8043 C84.9683,183.1583 84.8173,183.6393 84.8173,184.2503 L84.8173,188.2213 L82.7733,188.2213 L82.7733,180.6623 L84.1743,180.6623 L84.5713,181.5983 C84.8633,181.2523 85.2253,180.9803 85.6613,180.7823 C86.0963,180.5843 86.5673,180.4843 87.0723,180.4843" id="Fill-42" fill="#243647" mask="url(#mask-2)"></path>
                <path d="M99.709,188.4335 C99.004,188.4335 98.337,188.3015 97.711,188.0395 C97.084,187.7785 96.548,187.4215 96.102,186.9705 C95.654,186.5195 95.301,185.9785 95.042,185.3475 C94.782,184.7165 94.652,184.0455 94.652,183.3345 C94.652,182.6155 94.782,181.9385 95.042,181.3045 C95.301,180.6705 95.654,180.1285 96.102,179.6775 C96.548,179.2275 97.084,178.8705 97.711,178.6085 C98.337,178.3465 99.004,178.2155 99.709,178.2155 C100.899,178.2155 101.93,178.5765 102.803,179.2945 C103.675,180.0155 104.225,180.9555 104.453,182.1185 L102.327,182.1185 C102.122,181.5355 101.789,181.0765 101.326,180.7415 C100.863,180.4065 100.325,180.2385 99.709,180.2385 C98.88,180.2385 98.188,180.5335 97.632,181.1235 C97.076,181.7135 96.798,182.4515 96.798,183.3345 C96.798,184.2135 97.076,184.9465 97.632,185.5325 C98.188,186.1175 98.88,186.4105 99.709,186.4105 C100.352,186.4105 100.908,186.2295 101.378,185.8675 C101.847,185.5045 102.17,185.0115 102.348,184.3875 L104.487,184.3875 C104.264,185.5995 103.715,186.5765 102.84,187.3195 C101.966,188.0615 100.921,188.4335 99.709,188.4335" id="Fill-43" fill="#243647" mask="url(#mask-2)"></path>
                <polygon id="Fill-44" fill="#243647" mask="url(#mask-2)" points="105.874 188.221 107.918 188.221 107.918 177.935 105.874 177.935"></polygon>
                <path d="M109.872,188.222 L111.916,188.222 L111.916,180.662 L109.872,180.662 L109.872,188.222 Z M109.872,179.658 L111.908,179.658 L111.908,177.758 L109.872,177.758 L109.872,179.658 Z" id="Fill-45" fill="#243647" mask="url(#mask-2)"></path>
                <path d="M117.2949,182.1932 C116.8439,182.1932 116.4599,182.3182 116.1459,182.5692 C115.8319,182.8192 115.6149,183.1712 115.4969,183.6222 L119.1599,183.6222 C119.0189,183.1612 118.7879,182.8082 118.4669,182.5622 C118.1459,182.3162 117.7549,182.1932 117.2949,182.1932 M121.2039,184.4152 C121.2039,184.6192 121.1909,184.8202 121.1629,185.0152 L115.4419,185.0152 C115.5279,185.5312 115.7339,185.9252 116.0619,186.2022 C116.3869,186.4772 116.7979,186.6152 117.2949,186.6152 C117.6459,186.6152 117.9609,186.5382 118.2409,186.3822 C118.5219,186.2272 118.7379,186.0132 118.8939,185.7402 L121.0399,185.7402 C120.7669,186.5652 120.2929,187.2192 119.6179,187.7052 C118.9429,188.1902 118.1689,188.4332 117.2949,188.4332 C116.5609,188.4332 115.8949,188.2582 115.2949,187.9102 C114.6959,187.5612 114.2259,187.0822 113.8839,186.4712 C113.5419,185.8612 113.3719,185.1842 113.3719,184.4422 C113.3719,183.6942 113.5409,183.0152 113.8799,182.4052 C114.2199,181.7952 114.6899,181.3162 115.2889,180.9692 C115.8879,180.6242 116.5569,180.4502 117.2949,180.4502 C118.0509,180.4502 118.7299,180.6292 119.3309,180.9872 C119.9329,181.3442 120.3949,181.8242 120.7179,182.4252 C121.0419,183.0272 121.2039,183.6902 121.2039,184.4152" id="Fill-46" fill="#243647" mask="url(#mask-2)"></path>
                <path d="M126.959,180.4843 C127.816,180.4843 128.497,180.7703 129.003,181.3423 C129.508,181.9143 129.762,182.6803 129.762,183.6423 L129.762,188.2213 L127.718,188.2213 L127.718,183.9703 C127.718,182.8393 127.278,182.2753 126.398,182.2753 C125.874,182.2753 125.461,182.4523 125.158,182.8043 C124.855,183.1583 124.703,183.6393 124.703,184.2503 L124.703,188.2213 L122.66,188.2213 L122.66,180.6623 L124.062,180.6623 L124.458,181.5983 C124.749,181.2523 125.112,180.9803 125.548,180.7823 C125.982,180.5843 126.453,180.4843 126.959,180.4843" id="Fill-47" fill="#243647" mask="url(#mask-2)"></path>
                <path d="M135.2627,186.4032 L136.1927,186.4032 L136.1927,188.2212 L134.7427,188.2212 C133.9137,188.2212 133.2587,187.9812 132.7787,187.5012 C132.2967,187.0192 132.0577,186.3602 132.0577,185.5212 L132.0577,182.3022 L130.6897,182.3022 L130.6897,181.8652 L133.6767,178.6862 L134.0667,178.6862 L134.0667,180.6622 L136.1517,180.6622 L136.1517,182.3022 L134.1007,182.3022 L134.1007,185.2482 C134.1007,185.6172 134.2007,185.9022 134.4017,186.1022 C134.6017,186.3022 134.8887,186.4032 135.2627,186.4032" id="Fill-48" fill="#243647" mask="url(#mask-2)"></path>
                <path d="M137.5107,182.4598 L137.5107,181.4618 C137.8717,181.4118 138.1397,181.2758 138.3147,181.0548 C138.4897,180.8348 138.5767,180.5658 138.5767,180.2518 L137.4087,180.2518 L137.4087,178.0648 L139.6097,178.0648 L139.6097,180.0818 C139.6097,180.7698 139.4197,181.3208 139.0387,181.7348 C138.6577,182.1498 138.1497,182.3918 137.5107,182.4598" id="Fill-49" fill="#243647" mask="url(#mask-2)"></path>
                <path d="M143.6768,188.4335 C142.7288,188.4335 141.9638,188.1865 141.3828,187.6915 C140.8028,187.1975 140.5098,186.5445 140.5048,185.7335 L142.4938,185.7335 C142.4988,186.0575 142.6158,186.3055 142.8458,186.4785 C143.0758,186.6515 143.3798,186.7385 143.7578,186.7385 C144.0598,186.7385 144.3128,186.6715 144.5208,186.5395 C144.7278,186.4085 144.8308,186.2215 144.8308,185.9795 C144.8308,185.8565 144.7958,185.7485 144.7258,185.6585 C144.6558,185.5675 144.5438,185.4915 144.3938,185.4295 C144.2438,185.3685 144.0958,185.3205 143.9498,185.2865 C143.8038,185.2515 143.6128,185.2145 143.3758,185.1725 C143.1608,185.1365 142.9818,185.1035 142.8348,185.0745 C142.6898,185.0445 142.5128,184.9995 142.3058,184.9405 C142.0988,184.8815 141.9238,184.8165 141.7828,184.7455 C141.6418,184.6755 141.4918,184.5805 141.3348,184.4615 C141.1778,184.3435 141.0528,184.2125 140.9588,184.0695 C140.8658,183.9255 140.7878,183.7515 140.7278,183.5465 C140.6658,183.3415 140.6348,183.1165 140.6348,182.8705 C140.6348,182.1545 140.9148,181.5725 141.4758,181.1235 C142.0358,180.6745 142.7698,180.4505 143.6768,180.4505 C144.5878,180.4505 145.3188,180.6815 145.8698,181.1445 C146.4208,181.6065 146.6988,182.2155 146.7038,182.9725 L144.7628,182.9725 C144.7588,182.6765 144.6568,182.4535 144.4578,182.3025 C144.2608,182.1525 143.9818,182.0775 143.6208,182.0775 C143.3078,182.0775 143.0608,182.1435 142.8798,182.2755 C142.6998,182.4075 142.6108,182.5825 142.6108,182.8015 C142.6108,182.8835 142.6248,182.9565 142.6548,183.0235 C142.6838,183.0895 142.7368,183.1465 142.8118,183.1945 C142.8868,183.2425 142.9568,183.2835 143.0238,183.3175 C143.0898,183.3515 143.1898,183.3855 143.3238,183.4195 C143.4588,183.4545 143.5688,183.4795 143.6528,183.4955 C143.7368,183.5115 143.8648,183.5355 144.0378,183.5675 C144.7728,183.6995 145.3008,183.8355 145.6238,183.9765 C146.4398,184.3415 146.8478,184.9795 146.8478,185.8905 C146.8478,186.6615 146.5578,187.2775 145.9798,187.7395 C145.4018,188.2025 144.6328,188.4335 143.6768,188.4335" id="Fill-50" fill="#243647" mask="url(#mask-2)"></path>
                <path d="M155.5,183.1981 C155.915,183.1981 156.252,183.0661 156.512,182.8021 C156.771,182.5371 156.9,182.2001 156.9,181.7901 C156.9,181.3801 156.772,181.0441 156.515,180.7821 C156.258,180.5201 155.919,180.3881 155.5,180.3881 L153.942,180.3881 L153.942,183.1981 L155.5,183.1981 Z M155.596,178.4211 C156.242,178.4211 156.829,178.5651 157.355,178.8541 C157.882,179.1441 158.297,179.5471 158.6,180.0641 C158.902,180.5811 159.054,181.1571 159.054,181.7901 C159.054,182.7561 158.724,183.5591 158.063,184.1991 C157.402,184.8391 156.58,185.1591 155.596,185.1591 L153.942,185.1591 L153.942,188.2211 L151.823,188.2211 L151.823,178.4211 L155.596,178.4211 Z" id="Fill-51" fill="#243647" mask="url(#mask-2)"></path>
                <path d="M164.248,180.621 L164.918,180.621 L164.918,182.549 L164.036,182.549 C163.462,182.549 163.051,182.684 162.803,182.955 C162.555,183.226 162.43,183.672 162.43,184.292 L162.43,188.222 L160.387,188.222 L160.387,180.662 L161.691,180.662 L162.055,181.592 C162.573,180.945 163.305,180.621 164.248,180.621" id="Fill-52" fill="#243647" mask="url(#mask-2)"></path>
                <path d="M168.0488,185.9354 C168.4268,186.3204 168.9098,186.5124 169.4978,186.5124 C170.0858,186.5124 170.5688,186.3204 170.9458,185.9354 C171.3238,185.5494 171.5138,185.0524 171.5138,184.4424 C171.5138,183.8314 171.3238,183.3334 170.9458,182.9484 C170.5688,182.5634 170.0858,182.3714 169.4978,182.3714 C168.9098,182.3714 168.4268,182.5634 168.0488,182.9484 C167.6698,183.3334 167.4818,183.8314 167.4818,184.4424 C167.4818,185.0524 167.6698,185.5494 168.0488,185.9354 M169.4978,188.4334 C168.7278,188.4334 168.0298,188.2594 167.4058,187.9144 C166.7818,187.5674 166.2928,187.0884 165.9408,186.4784 C165.5868,185.8684 165.4108,185.1894 165.4108,184.4424 C165.4108,183.6854 165.5868,183.0024 165.9408,182.3954 C166.2928,181.7874 166.7818,181.3104 167.4058,180.9664 C168.0298,180.6234 168.7278,180.4504 169.4978,180.4504 C170.2628,180.4504 170.9578,180.6234 171.5818,180.9664 C172.2058,181.3104 172.6958,181.7884 173.0518,182.3984 C173.4068,183.0084 173.5848,183.6904 173.5848,184.4424 C173.5848,185.1894 173.4068,185.8684 173.0518,186.4784 C172.6958,187.0884 172.2058,187.5674 171.5818,187.9144 C170.9578,188.2594 170.2628,188.4334 169.4978,188.4334" id="Fill-53" fill="#243647" mask="url(#mask-2)"></path>
                <path d="M175.218,179.658 L177.255,179.658 L177.255,177.758 L175.218,177.758 L175.218,179.658 Z M173.441,190.948 L173.441,189.069 L174.097,189.069 C174.84,189.069 175.211,188.697 175.211,187.955 L175.211,180.662 L177.255,180.662 L177.255,188.112 C177.255,188.941 176.991,189.621 176.462,190.152 C175.934,190.683 175.252,190.948 174.419,190.948 L173.441,190.948 Z" id="Fill-54" fill="#243647" mask="url(#mask-2)"></path>
                <path d="M182.6406,182.1932 C182.1896,182.1932 181.8066,182.3182 181.4926,182.5692 C181.1776,182.8192 180.9606,183.1712 180.8426,183.6222 L184.5056,183.6222 C184.3656,183.1612 184.1336,182.8082 183.8126,182.5622 C183.4916,182.3162 183.1006,182.1932 182.6406,182.1932 M186.5496,184.4152 C186.5496,184.6192 186.5366,184.8202 186.5086,185.0152 L180.7876,185.0152 C180.8746,185.5312 181.0806,185.9252 181.4076,186.2022 C181.7326,186.4772 182.1436,186.6152 182.6406,186.6152 C182.9916,186.6152 183.3066,186.5382 183.5866,186.3822 C183.8676,186.2272 184.0846,186.0132 184.2406,185.7402 L186.3856,185.7402 C186.1126,186.5652 185.6386,187.2192 184.9636,187.7052 C184.2896,188.1902 183.5146,188.4332 182.6406,188.4332 C181.9076,188.4332 181.2406,188.2582 180.6406,187.9102 C180.0416,187.5612 179.5716,187.0822 179.2306,186.4712 C178.8876,185.8612 178.7176,185.1842 178.7176,184.4422 C178.7176,183.6942 178.8866,183.0152 179.2266,182.4052 C179.5666,181.7952 180.0356,181.3162 180.6346,180.9692 C181.2336,180.6242 181.9026,180.4502 182.6406,180.4502 C183.3966,180.4502 184.0766,180.6292 184.6766,180.9872 C185.2786,181.3442 185.7416,181.8242 186.0646,182.4252 C186.3876,183.0272 186.5496,183.6902 186.5496,184.4152" id="Fill-55" fill="#243647" mask="url(#mask-2)"></path>
                <path d="M191.5186,188.4335 C190.9576,188.4335 190.4286,188.3295 189.9326,188.1215 C189.4356,187.9145 189.0096,187.6335 188.6546,187.2785 C188.2986,186.9225 188.0196,186.4965 187.8146,185.9995 C187.6086,185.5035 187.5066,184.9775 187.5066,184.4215 C187.5066,183.8655 187.6086,183.3415 187.8146,182.8495 C188.0196,182.3575 188.2986,181.9355 188.6546,181.5845 C189.0096,181.2345 189.4376,180.9565 189.9366,180.7545 C190.4356,180.5515 190.9666,180.4505 191.5316,180.4505 C192.5066,180.4505 193.3436,180.7345 194.0436,181.3015 C194.7436,181.8695 195.1856,182.6195 195.3726,183.5525 L193.3436,183.5525 C193.1796,183.1795 192.9356,182.8895 192.6126,182.6815 C192.2886,182.4745 191.9236,182.3715 191.5186,182.3715 C190.9666,182.3715 190.5056,182.5685 190.1336,182.9615 C189.7626,183.3565 189.5776,183.8445 189.5776,184.4275 C189.5776,185.0115 189.7646,185.5045 190.1376,185.9085 C190.5116,186.3115 190.9716,186.5125 191.5186,186.5125 C191.9326,186.5125 192.2976,186.4035 192.6126,186.1845 C192.9256,185.9655 193.1696,185.6545 193.3436,185.2475 L195.4006,185.2475 C195.2226,186.2005 194.7776,186.9695 194.0646,187.5555 C193.3516,188.1405 192.5026,188.4335 191.5186,188.4335" id="Fill-56" fill="#243647" mask="url(#mask-2)"></path>
                <path d="M200.4033,186.4032 L201.3333,186.4032 L201.3333,188.2212 L199.8833,188.2212 C199.0543,188.2212 198.3993,187.9812 197.9193,187.5012 C197.4373,187.0192 197.1983,186.3602 197.1983,185.5212 L197.1983,182.3022 L195.8313,182.3022 L195.8313,181.8652 L198.8183,178.6862 L199.2083,178.6862 L199.2083,180.6622 L201.2923,180.6622 L201.2923,182.3022 L199.2423,182.3022 L199.2423,185.2482 C199.2423,185.6172 199.3413,185.9022 199.5423,186.1022 C199.7423,186.3022 200.0303,186.4032 200.4033,186.4032" id="Fill-57" fill="#243647" mask="url(#mask-2)"></path>
                <path d="M380.2061,164.1757 C380.6211,164.1757 380.9581,164.0437 381.2181,163.7797 C381.4771,163.5157 381.6061,163.1787 381.6061,162.7677 C381.6061,162.3587 381.4781,162.0227 381.2211,161.7597 C380.9641,161.4977 380.6251,161.3667 380.2061,161.3667 L378.6481,161.3667 L378.6481,164.1757 L380.2061,164.1757 Z M380.3021,159.3987 C380.9481,159.3987 381.5351,159.5437 382.0611,159.8327 C382.5891,160.1217 383.0031,160.5257 383.3061,161.0417 C383.6081,161.5597 383.7601,162.1347 383.7601,162.7677 C383.7601,163.7347 383.4301,164.5367 382.7691,165.1777 C382.1081,165.8177 381.2861,166.1377 380.3021,166.1377 L378.6481,166.1377 L378.6481,169.1987 L376.5291,169.1987 L376.5291,159.3987 L380.3021,159.3987 Z" id="Fill-58" fill="#243647" mask="url(#mask-2)"></path>
                <path d="M388.9541,161.5995 L389.6241,161.5995 L389.6241,163.5275 L388.7421,163.5275 C388.1681,163.5275 387.7571,163.6625 387.5091,163.9335 C387.2611,164.2035 387.1361,164.6505 387.1361,165.2695 L387.1361,169.1995 L385.0931,169.1995 L385.0931,161.6405 L386.3971,161.6405 L386.7611,162.5705 C387.2791,161.9225 388.0111,161.5995 388.9541,161.5995" id="Fill-59" fill="#243647" mask="url(#mask-2)"></path>
                <path d="M394.0391,163.1718 C393.5881,163.1718 393.2051,163.2968 392.8911,163.5478 C392.5771,163.7978 392.3591,164.1488 392.2411,164.5998 L395.9041,164.5998 C395.7641,164.1398 395.5321,163.7868 395.2121,163.5398 C394.8901,163.2938 394.4991,163.1718 394.0391,163.1718 M397.9481,165.3928 C397.9481,165.5978 397.9351,165.7988 397.9071,165.9938 L392.1861,165.9938 C392.2731,166.5088 392.4791,166.9038 392.8061,167.1798 C393.1311,167.4548 393.5421,167.5938 394.0391,167.5938 C394.3901,167.5938 394.7051,167.5158 394.9851,167.3608 C395.2661,167.2058 395.4831,166.9918 395.6391,166.7188 L397.7841,166.7188 C397.5111,167.5428 397.0371,168.1978 396.3621,168.6838 C395.6881,169.1688 394.9141,169.4108 394.0391,169.4108 C393.3061,169.4108 392.6401,169.2368 392.0401,168.8888 C391.4401,168.5398 390.9701,168.0608 390.6291,167.4498 C390.2861,166.8388 390.1161,166.1628 390.1161,165.4198 C390.1161,164.6728 390.2861,163.9938 390.6251,163.3828 C390.9651,162.7728 391.4341,162.2938 392.0331,161.9478 C392.6321,161.6018 393.3011,161.4288 394.0391,161.4288 C394.7961,161.4288 395.4751,161.6078 396.0751,161.9648 C396.6771,162.3228 397.1401,162.8028 397.4631,163.4028 C397.7871,164.0048 397.9481,164.6678 397.9481,165.3928" id="Fill-60" fill="#243647" mask="url(#mask-2)"></path>
                <path d="M401.8818,166.8993 C402.2718,167.2943 402.7628,167.4913 403.3548,167.4913 C403.9468,167.4913 404.4388,167.2953 404.8278,166.9033 C405.2168,166.5113 405.4118,166.0163 405.4118,165.4203 C405.4118,164.8233 405.2168,164.3293 404.8278,163.9363 C404.4388,163.5453 403.9468,163.3483 403.3548,163.3483 C402.7628,163.3483 402.2718,163.5453 401.8818,163.9403 C401.4918,164.3343 401.2978,164.8273 401.2978,165.4203 C401.2978,166.0123 401.4918,166.5053 401.8818,166.8993 M403.5268,161.4283 C404.2728,161.4283 404.9478,161.6003 405.5528,161.9443 C406.1558,162.2893 406.6288,162.7653 406.9708,163.3763 C407.3128,163.9873 407.4828,164.6683 407.4828,165.4203 C407.4828,166.1713 407.3128,166.8543 406.9708,167.4663 C406.6288,168.0803 406.1558,168.5593 405.5528,168.9053 C404.9478,169.2523 404.2728,169.4243 403.5268,169.4243 C402.7608,169.4243 402.0678,169.2123 401.4478,168.7903 L401.4478,171.9263 L399.4038,171.9263 L399.4038,161.6403 L400.7508,161.6403 L401.0998,162.3313 C401.7778,161.7293 402.5868,161.4283 403.5268,161.4283" id="Fill-61" fill="#243647" mask="url(#mask-2)"></path>
                <path d="M411.1016,166.8856 C411.4916,167.2806 411.9826,167.4776 412.5756,167.4776 C413.1656,167.4776 413.6576,167.2816 414.0476,166.8896 C414.4376,166.4966 414.6316,166.0026 414.6316,165.4066 C414.6316,164.8096 414.4376,164.3156 414.0476,163.9226 C413.6576,163.5316 413.1656,163.3356 412.5756,163.3356 C411.9826,163.3356 411.4916,163.5316 411.1016,163.9266 C410.7116,164.3206 410.5176,164.8146 410.5176,165.4066 C410.5176,165.9986 410.7116,166.4916 411.1016,166.8856 Z M415.1106,161.6266 L416.6406,161.6266 L416.6406,169.1856 L415.0356,169.1856 L414.8576,168.5086 C414.1686,169.1106 413.3536,169.4106 412.4116,169.4106 C411.6636,169.4106 410.9866,169.2386 410.3806,168.8916 C409.7746,168.5456 409.3006,168.0666 408.9586,167.4526 C408.6176,166.8406 408.4476,166.1576 408.4476,165.4066 C408.4476,164.6586 408.6176,163.9816 408.9586,163.3726 C409.3006,162.7646 409.7746,162.2886 410.3806,161.9446 C410.9866,161.6006 411.6636,161.4286 412.4116,161.4286 C413.3726,161.4286 414.1986,161.7366 414.8916,162.3516 L415.1106,161.6266 Z" id="Fill-62" fill="#243647" mask="url(#mask-2)"></path>
                <path d="M422.4639,161.5995 L423.1339,161.5995 L423.1339,163.5275 L422.2529,163.5275 C421.6789,163.5275 421.2679,163.6625 421.0189,163.9335 C420.7709,164.2035 420.6469,164.6505 420.6469,165.2695 L420.6469,169.1995 L418.6029,169.1995 L418.6029,161.6405 L419.9079,161.6405 L420.2709,162.5705 C420.7889,161.9225 421.5209,161.5995 422.4639,161.5995" id="Fill-63" fill="#243647" mask="url(#mask-2)"></path>
                <path d="M427.5498,163.1718 C427.0988,163.1718 426.7158,163.2968 426.4018,163.5478 C426.0868,163.7978 425.8698,164.1488 425.7518,164.5998 L429.4148,164.5998 C429.2748,164.1398 429.0428,163.7868 428.7218,163.5398 C428.4008,163.2938 428.0098,163.1718 427.5498,163.1718 M431.4588,165.3928 C431.4588,165.5978 431.4458,165.7988 431.4178,165.9938 L425.6968,165.9938 C425.7838,166.5088 425.9898,166.9038 426.3168,167.1798 C426.6418,167.4548 427.0528,167.5938 427.5498,167.5938 C427.9008,167.5938 428.2158,167.5158 428.4958,167.3608 C428.7768,167.2058 428.9938,166.9918 429.1498,166.7188 L431.2948,166.7188 C431.0218,167.5428 430.5478,168.1978 429.8728,168.6838 C429.1988,169.1688 428.4238,169.4108 427.5498,169.4108 C426.8168,169.4108 426.1508,169.2368 425.5508,168.8888 C424.9508,168.5398 424.4808,168.0608 424.1398,167.4498 C423.7968,166.8388 423.6268,166.1628 423.6268,165.4198 C423.6268,164.6728 423.7968,163.9938 424.1358,163.3828 C424.4758,162.7728 424.9448,162.2938 425.5438,161.9478 C426.1428,161.6018 426.8118,161.4288 427.5498,161.4288 C428.3068,161.4288 428.9858,161.6078 429.5858,161.9648 C430.1878,162.3228 430.6508,162.8028 430.9738,163.4028 C431.2978,164.0048 431.4588,164.6678 431.4588,165.3928" id="Fill-64" fill="#243647" mask="url(#mask-2)"></path>
                <path d="M439.708,167.3817 L440.638,167.3817 L440.638,169.1987 L439.188,169.1987 C438.359,169.1987 437.704,168.9587 437.224,168.4787 C436.743,167.9977 436.503,167.3377 436.503,166.4997 L436.503,163.2807 L435.136,163.2807 L435.136,162.8427 L438.123,159.6647 L438.513,159.6647 L438.513,161.6407 L440.597,161.6407 L440.597,163.2807 L438.547,163.2807 L438.547,166.2267 C438.547,166.5957 438.646,166.8807 438.847,167.0807 C439.047,167.2807 439.335,167.3817 439.708,167.3817" id="Fill-65" fill="#243647" mask="url(#mask-2)"></path>
                <path d="M446.3584,161.4628 C447.2104,161.4628 447.8844,161.7448 448.3844,162.3108 C448.8834,162.8748 449.1324,163.6408 449.1324,164.6068 L449.1324,169.1988 L447.0884,169.1988 L447.0884,164.9478 C447.0884,164.3738 446.9834,163.9478 446.7714,163.6698 C446.5594,163.3928 446.2254,163.2538 445.7704,163.2538 C445.2544,163.2538 444.8434,163.4308 444.5364,163.7828 C444.2284,164.1368 444.0754,164.6178 444.0754,165.2288 L444.0754,169.1988 L442.0314,169.1988 L442.0314,158.9128 L444.0754,158.9128 L444.0754,162.3448 C444.6904,161.7568 445.4514,161.4628 446.3584,161.4628" id="Fill-66" fill="#243647" mask="url(#mask-2)"></path>
                <path d="M454.4229,163.1718 C453.9719,163.1718 453.5889,163.2968 453.2749,163.5478 C452.9609,163.7978 452.7429,164.1488 452.6259,164.5998 L456.2879,164.5998 C456.1479,164.1398 455.9159,163.7868 455.5959,163.5398 C455.2739,163.2938 454.8829,163.1718 454.4229,163.1718 M458.3319,165.3928 C458.3319,165.5978 458.3189,165.7988 458.2909,165.9938 L452.5709,165.9938 C452.6569,166.5088 452.8629,166.9038 453.1899,167.1798 C453.5149,167.4548 453.9259,167.5938 454.4229,167.5938 C454.7739,167.5938 455.0889,167.5158 455.3689,167.3608 C455.6509,167.2058 455.8669,166.9918 456.0229,166.7188 L458.1679,166.7188 C457.8949,167.5428 457.4209,168.1978 456.7459,168.6838 C456.0719,169.1688 455.2979,169.4108 454.4229,169.4108 C453.6899,169.4108 453.0239,169.2368 452.4239,168.8888 C451.8239,168.5398 451.3549,168.0608 451.0129,167.4498 C450.6709,166.8388 450.4999,166.1628 450.4999,165.4198 C450.4999,164.6728 450.6699,163.9938 451.0089,163.3828 C451.3489,162.7728 451.8179,162.2938 452.4169,161.9478 C453.0159,161.6018 453.6849,161.4288 454.4229,161.4288 C455.1799,161.4288 455.8589,161.6078 456.4599,161.9648 C457.0609,162.3228 457.5239,162.8028 457.8469,163.4028 C458.1709,164.0048 458.3319,164.6678 458.3319,165.3928" id="Fill-67" fill="#243647" mask="url(#mask-2)"></path>
                <polygon id="Fill-68" fill="#243647" mask="url(#mask-2)" points="469.6025 159.3983 469.6025 161.3673 466.8755 161.3673 466.8755 169.1993 464.7565 169.1993 464.7565 161.3673 462.0365 161.3673 462.0365 159.3983"></polygon>
                <path d="M473.2734,163.1718 C472.8224,163.1718 472.4394,163.2968 472.1244,163.5478 C471.8104,163.7978 471.5934,164.1488 471.4754,164.5998 L475.1384,164.5998 C474.9984,164.1398 474.7664,163.7868 474.4454,163.5398 C474.1244,163.2938 473.7334,163.1718 473.2734,163.1718 M477.1824,165.3928 C477.1824,165.5978 477.1694,165.7988 477.1414,165.9938 L471.4204,165.9938 C471.5074,166.5088 471.7124,166.9038 472.0404,167.1798 C472.3654,167.4548 472.7764,167.5938 473.2734,167.5938 C473.6244,167.5938 473.9394,167.5158 474.2194,167.3608 C474.5004,167.2058 474.7164,166.9918 474.8724,166.7188 L477.0184,166.7188 C476.7454,167.5428 476.2714,168.1978 475.5964,168.6838 C474.9224,169.1688 474.1474,169.4108 473.2734,169.4108 C472.5404,169.4108 471.8734,169.2368 471.2734,168.8888 C470.6744,168.5398 470.2044,168.0608 469.8634,167.4498 C469.5204,166.8388 469.3504,166.1628 469.3504,165.4198 C469.3504,164.6728 469.5194,163.9938 469.8594,163.3828 C470.1994,162.7728 470.6684,162.2938 471.2674,161.9478 C471.8664,161.6018 472.5354,161.4288 473.2734,161.4288 C474.0294,161.4288 474.7094,161.6078 475.3094,161.9648 C475.9114,162.3228 476.3744,162.8028 476.6974,163.4028 C477.0204,164.0048 477.1824,164.6678 477.1824,165.3928" id="Fill-69" fill="#243647" mask="url(#mask-2)"></path>
                <path d="M480.7939,166.8856 C481.1839,167.2806 481.6749,167.4776 482.2679,167.4776 C482.8589,167.4776 483.3509,167.2816 483.7399,166.8896 C484.1299,166.4966 484.3239,166.0026 484.3239,165.4066 C484.3239,164.8096 484.1299,164.3156 483.7399,163.9226 C483.3509,163.5316 482.8589,163.3356 482.2679,163.3356 C481.6749,163.3356 481.1839,163.5316 480.7939,163.9266 C480.4049,164.3206 480.2099,164.8146 480.2099,165.4066 C480.2099,165.9986 480.4049,166.4916 480.7939,166.8856 Z M484.8029,161.6266 L486.3329,161.6266 L486.3329,169.1856 L484.7279,169.1856 L484.5499,168.5086 C483.8619,169.1106 483.0459,169.4106 482.1039,169.4106 C481.3559,169.4106 480.6789,169.2386 480.0729,168.8916 C479.4669,168.5456 478.9929,168.0666 478.6519,167.4526 C478.3099,166.8406 478.1399,166.1576 478.1399,165.4066 C478.1399,164.6586 478.3099,163.9816 478.6519,163.3726 C478.9929,162.7646 479.4669,162.2886 480.0729,161.9446 C480.6789,161.6006 481.3559,161.4286 482.1039,161.4286 C483.0649,161.4286 483.8919,161.7366 484.5839,162.3516 L484.8029,161.6266 Z" id="Fill-70" fill="#243647" mask="url(#mask-2)"></path>
                <path d="M496.8926,161.4628 C497.6766,161.4628 498.3156,161.7398 498.8096,162.2968 C499.3046,162.8528 499.5516,163.5718 499.5516,164.4558 L499.5516,169.1988 L497.5086,169.1988 L497.5086,164.7978 C497.5086,164.2918 497.4116,163.9078 497.2176,163.6468 C497.0236,163.3838 496.7426,163.2538 496.3726,163.2538 C495.9176,163.2538 495.5616,163.4158 495.3036,163.7418 C495.0456,164.0678 494.9176,164.5248 494.9176,165.1118 L494.9176,169.1988 L492.9286,169.1988 L492.9286,164.7978 C492.9286,164.2918 492.8346,163.9078 492.6456,163.6468 C492.4556,163.3838 492.1796,163.2538 491.8156,163.2538 C491.3506,163.2538 490.9886,163.4158 490.7286,163.7418 C490.4686,164.0678 490.3386,164.5248 490.3386,165.1118 L490.3386,169.1988 L488.2946,169.1988 L488.2946,161.6408 L489.7166,161.6408 L490.0996,162.5768 C490.3686,162.2348 490.7026,161.9638 491.1006,161.7638 C491.4986,161.5638 491.9166,161.4628 492.3546,161.4628 C492.8326,161.4628 493.2636,161.5678 493.6466,161.7798 C494.0296,161.9918 494.3296,162.2898 494.5486,162.6728 C494.8126,162.2988 495.1516,162.0038 495.5636,161.7868 C495.9766,161.5708 496.4186,161.4628 496.8926,161.4628" id="Fill-71" fill="#243647" mask="url(#mask-2)"></path>
                <polygon id="Fill-72" fill="#748494" mask="url(#mask-2)" points="413.498 187.1679 413.498 188.0759 412.627 188.0759 412.627 189.8309 411.622 189.8309 411.622 188.0759 407.374 188.0759 407.374 187.8389 410.293 181.5249 411.366 181.5249 408.764 187.1679 411.634 187.1679 411.804 184.6029 412.627 184.6029 412.627 187.1679"></polygon>
                <polygon id="Fill-73" fill="#748494" mask="url(#mask-2)" points="414.699 186.857 418.66 186.857 418.66 185.834 414.699 185.834"></polygon>
                <path d="M423.0957,182.2626 C422.6127,182.2626 422.2197,182.3876 421.9187,182.6376 C421.6187,182.8876 421.4687,183.2096 421.4687,183.6036 C421.4687,184.0096 421.6187,184.3386 421.9187,184.5906 C422.2197,184.8426 422.6127,184.9686 423.0957,184.9686 C423.5707,184.9686 423.9587,184.8426 424.2587,184.5906 C424.5607,184.3386 424.7107,184.0096 424.7107,183.6036 C424.7107,183.2096 424.5607,182.8876 424.2587,182.6376 C423.9587,182.3876 423.5707,182.2626 423.0957,182.2626 M423.0957,189.0636 C423.6637,189.0636 424.1247,188.9146 424.4787,188.6176 C424.8317,188.3226 425.0087,187.9386 425.0087,187.4666 C425.0087,186.9836 424.8317,186.5926 424.4787,186.2936 C424.1247,185.9946 423.6637,185.8456 423.0957,185.8456 C422.5337,185.8456 422.0767,185.9946 421.7247,186.2936 C421.3707,186.5926 421.1947,186.9836 421.1947,187.4666 C421.1947,187.9386 421.3697,188.3226 421.7207,188.6176 C422.0727,188.9146 422.5307,189.0636 423.0957,189.0636 M424.8807,185.3826 C425.2387,185.5776 425.5217,185.8586 425.7307,186.2236 C425.9407,186.5886 426.0447,186.9916 426.0447,187.4296 C426.0447,188.1736 425.7697,188.7836 425.2187,189.2616 C424.6687,189.7396 423.9597,189.9776 423.0957,189.9776 C422.2137,189.9776 421.5037,189.7436 420.9657,189.2766 C420.4277,188.8096 420.1577,188.1946 420.1577,187.4296 C420.1577,187.0036 420.2647,186.6066 420.4747,186.2396 C420.6867,185.8716 420.9737,185.5856 421.3337,185.3826 C421.0667,185.1926 420.8527,184.9376 420.6947,184.6176 C420.5357,184.2986 420.4567,183.9606 420.4567,183.6036 C420.4567,182.9496 420.7007,182.4156 421.1877,182.0036 C421.6757,181.5916 422.3117,181.3856 423.0957,181.3856 C423.8797,181.3856 424.5147,181.5896 424.9997,181.9976 C425.4857,182.4066 425.7277,182.9416 425.7277,183.6036 C425.7277,183.9686 425.6517,184.3126 425.4957,184.6336 C425.3417,184.9536 425.1367,185.2036 424.8807,185.3826" id="Fill-74" fill="#748494" mask="url(#mask-2)"></path>
                <polygon id="Fill-75" fill="#748494" mask="url(#mask-2)" points="439.0371 183.0917 440.1091 183.0917 437.8121 189.8307 436.9471 189.8307 435.0461 185.2367 433.1391 189.8307 432.2791 189.8307 430.0001 183.0917 431.1091 183.0917 432.7851 188.0577 434.8501 183.1957 435.2341 183.1957 437.3121 188.1007"></polygon>
                <path d="M444.2158,183.9511 C443.6068,183.9511 443.0908,184.1261 442.6688,184.4771 C442.2458,184.8291 441.9798,185.3001 441.8698,185.8881 L446.5508,185.8881 C446.4368,185.2911 446.1688,184.8191 445.7488,184.4721 C445.3278,184.1241 444.8178,183.9511 444.2158,183.9511 M447.6108,186.4921 C447.6108,186.6141 447.6048,186.7401 447.5918,186.8701 L441.8458,186.8701 C441.9278,187.4951 442.1838,187.9971 442.6158,188.3751 C443.0488,188.7531 443.5818,188.9411 444.2158,188.9411 C444.6798,188.9411 445.0908,188.8391 445.4528,188.6341 C445.8148,188.4291 446.1018,188.1431 446.3128,187.7771 L447.4338,187.7771 C447.1458,188.4721 446.7198,189.0131 446.1558,189.3981 C445.5948,189.7841 444.9478,189.9771 444.2158,189.9771 C443.5738,189.9771 442.9898,189.8251 442.4648,189.5201 C441.9388,189.2161 441.5258,188.7961 441.2278,188.2591 C440.9288,187.7221 440.7788,187.1241 440.7788,186.4611 C440.7788,185.8041 440.9288,185.2051 441.2278,184.6671 C441.5258,184.1291 441.9388,183.7071 442.4648,183.4021 C442.9898,183.0971 443.5738,182.9451 444.2158,182.9451 C444.8818,182.9451 445.4758,183.1031 445.9958,183.4211 C446.5158,183.7371 446.9148,184.1651 447.1938,184.7031 C447.4708,185.2421 447.6108,185.8381 447.6108,186.4921" id="Fill-76" fill="#748494" mask="url(#mask-2)"></path>
                <path d="M452.1016,183.9511 C451.4926,183.9511 450.9766,184.1261 450.5536,184.4771 C450.1306,184.8291 449.8656,185.3001 449.7556,185.8881 L454.4356,185.8881 C454.3216,185.2911 454.0546,184.8191 453.6336,184.4721 C453.2126,184.1241 452.7026,183.9511 452.1016,183.9511 M455.4956,186.4921 C455.4956,186.6141 455.4896,186.7401 455.4776,186.8701 L449.7306,186.8701 C449.8126,187.4951 450.0696,187.9971 450.5016,188.3751 C450.9346,188.7531 451.4676,188.9411 452.1016,188.9411 C452.5646,188.9411 452.9766,188.8391 453.3386,188.6341 C453.6996,188.4291 453.9866,188.1431 454.1986,187.7771 L455.3186,187.7771 C455.0306,188.4721 454.6056,189.0131 454.0416,189.3981 C453.4796,189.7841 452.8326,189.9771 452.1016,189.9771 C451.4586,189.9771 450.8756,189.8251 450.3496,189.5201 C449.8236,189.2161 449.4116,188.7961 449.1126,188.2591 C448.8136,187.7221 448.6646,187.1241 448.6646,186.4611 C448.6646,185.8041 448.8136,185.2051 449.1126,184.6671 C449.4116,184.1291 449.8236,183.7071 450.3496,183.4021 C450.8756,183.0971 451.4586,182.9451 452.1016,182.9451 C452.7676,182.9451 453.3606,183.1031 453.8806,183.4211 C454.4006,183.7371 454.7996,184.1651 455.0786,184.7031 C455.3566,185.2421 455.4956,185.8381 455.4956,186.4921" id="Fill-77" fill="#748494" mask="url(#mask-2)"></path>
                <polygon id="Fill-78" fill="#748494" mask="url(#mask-2)" points="461.5283 189.8309 459.2183 186.8089 458.2563 186.8089 458.2563 189.8309 457.1953 189.8309 457.1953 180.6849 458.2563 180.6849 458.2563 185.8269 459.2373 185.8269 461.3143 183.0919 462.6063 183.0919 460.1513 186.3209 462.8573 189.8309"></polygon>
                <path d="M466.0371,189.9774 C465.2401,189.9774 464.6011,189.7784 464.1171,189.3804 C463.6341,188.9824 463.3781,188.4444 463.3491,187.7654 L464.3861,187.7654 C464.4141,188.1554 464.5821,188.4574 464.8881,188.6734 C465.1951,188.8884 465.5901,188.9964 466.0741,188.9964 C466.5411,188.9964 466.9221,188.9024 467.2161,188.7154 C467.5111,188.5294 467.6581,188.2734 467.6581,187.9484 C467.6581,187.8224 467.6381,187.7084 467.5981,187.6074 C467.5561,187.5054 467.4911,187.4184 467.4021,187.3484 C467.3121,187.2774 467.2241,187.2154 467.1341,187.1644 C467.0441,187.1144 466.9221,187.0694 466.7661,187.0284 C466.6081,186.9874 466.4741,186.9564 466.3631,186.9334 C466.2511,186.9114 466.1001,186.8834 465.9091,186.8514 C465.7591,186.8274 465.6421,186.8064 465.5581,186.7894 C465.4751,186.7744 465.3621,186.7494 465.2181,186.7164 C465.0731,186.6844 464.9591,186.6544 464.8731,186.6254 C464.7881,186.5974 464.6831,186.5614 464.5571,186.5164 C464.4311,186.4714 464.3301,186.4224 464.2541,186.3704 C464.1801,186.3174 464.0951,186.2554 464.0021,186.1844 C463.9081,186.1134 463.8351,186.0354 463.7791,185.9494 C463.7241,185.8644 463.6711,185.7694 463.6181,185.6654 C463.5651,185.5624 463.5271,185.4454 463.5051,185.3154 C463.4821,185.1854 463.4721,185.0454 463.4721,184.8954 C463.4721,184.3144 463.7051,183.8434 464.1731,183.4844 C464.6401,183.1244 465.2531,182.9454 466.0131,182.9454 C466.7721,182.9454 467.3811,183.1334 467.8381,183.5084 C468.2951,183.8844 468.5331,184.3914 468.5541,185.0294 L467.5481,185.0294 C467.5271,184.6644 467.3821,184.3824 467.1091,184.1854 C466.8381,183.9884 466.4641,183.8894 465.9881,183.8894 C465.5341,183.8894 465.1721,183.9784 464.9041,184.1554 C464.6361,184.3314 464.5021,184.5664 464.5021,184.8584 C464.5021,184.9724 464.5191,185.0754 464.5571,185.1664 C464.5931,185.2574 464.6531,185.3354 464.7391,185.4014 C464.8251,185.4654 464.9091,185.5214 464.9951,185.5654 C465.0811,185.6104 465.1981,185.6514 465.3491,185.6874 C465.4991,185.7244 465.6261,185.7524 465.7321,185.7734 C465.8381,185.7924 465.9861,185.8174 466.1771,185.8454 C466.8431,185.9554 467.3211,186.0714 467.6091,186.1934 C468.2751,186.4734 468.6381,186.9644 468.6931,187.6674 C468.7021,187.7454 468.7061,187.8224 468.7061,187.8994 C468.7061,188.5294 468.4621,189.0334 467.9751,189.4104 C467.4871,189.7884 466.8421,189.9774 466.0371,189.9774" id="Fill-79" fill="#748494" mask="url(#mask-2)"></path>
                <polygon id="Fill-80" fill="#243647" mask="url(#mask-2)" points="698.2949 161.5507 694.5639 161.5507 694.5639 163.7037 697.9329 163.7037 697.9329 165.6247 694.5639 165.6247 694.5639 169.3767 692.4439 169.3767 692.4439 159.5757 698.2949 159.5757"></polygon>
                <path d="M699.736,169.377 L701.78,169.377 L701.78,161.817 L699.736,161.817 L699.736,169.377 Z M699.736,160.813 L701.773,160.813 L701.773,158.913 L699.736,158.913 L699.736,160.813 Z" id="Fill-81" fill="#243647" mask="url(#mask-2)"></path>
                <path d="M707.5967,161.7772 L708.2667,161.7772 L708.2667,163.7042 L707.3857,163.7042 C706.8117,163.7042 706.4007,163.8402 706.1517,164.1112 C705.9037,164.3812 705.7797,164.8272 705.7797,165.4472 L705.7797,169.3772 L703.7357,169.3772 L703.7357,161.8172 L705.0407,161.8172 L705.4037,162.7472 C705.9217,162.1002 706.6537,161.7772 707.5967,161.7772" id="Fill-82" fill="#243647" mask="url(#mask-2)"></path>
                <path d="M712.0537,169.5888 C711.1057,169.5888 710.3407,169.3418 709.7607,168.8478 C709.1797,168.3538 708.8867,167.6998 708.8817,166.8898 L710.8707,166.8898 C710.8757,167.2128 710.9927,167.4608 711.2227,167.6338 C711.4527,167.8078 711.7567,167.8938 712.1347,167.8938 C712.4367,167.8938 712.6897,167.8278 712.8977,167.6948 C713.1047,167.5638 713.2087,167.3768 713.2087,167.1348 C713.2087,167.0128 713.1727,166.9048 713.1027,166.8138 C713.0327,166.7228 712.9207,166.6468 712.7707,166.5848 C712.6207,166.5238 712.4727,166.4758 712.3267,166.4418 C712.1807,166.4068 711.9897,166.3698 711.7527,166.3288 C711.5377,166.2918 711.3587,166.2598 711.2117,166.2298 C711.0667,166.1998 710.8897,166.1548 710.6837,166.0968 C710.4757,166.0368 710.3017,165.9728 710.1597,165.9008 C710.0187,165.8308 709.8687,165.7358 709.7117,165.6178 C709.5547,165.4988 709.4297,165.3678 709.3367,165.2248 C709.2427,165.0808 709.1647,164.9068 709.1047,164.7018 C709.0427,164.4968 709.0117,164.2718 709.0117,164.0258 C709.0117,163.3108 709.2917,162.7278 709.8527,162.2788 C710.4127,161.8298 711.1467,161.6058 712.0537,161.6058 C712.9647,161.6058 713.6957,161.8368 714.2467,162.2998 C714.7987,162.7628 715.0757,163.3718 715.0807,164.1278 L713.1397,164.1278 C713.1357,163.8318 713.0337,163.6088 712.8347,163.4578 C712.6377,163.3078 712.3587,163.2328 711.9977,163.2328 C711.6847,163.2328 711.4377,163.2988 711.2567,163.4308 C711.0767,163.5628 710.9877,163.7378 710.9877,163.9568 C710.9877,164.0388 711.0017,164.1128 711.0317,164.1788 C711.0607,164.2448 711.1137,164.3028 711.1887,164.3498 C711.2637,164.3978 711.3337,164.4398 711.4007,164.4728 C711.4667,164.5068 711.5667,164.5418 711.7007,164.5748 C711.8357,164.6098 711.9457,164.6348 712.0297,164.6518 C712.1147,164.6668 712.2417,164.6918 712.4157,164.7228 C713.1497,164.8548 713.6777,164.9908 714.0007,165.1328 C714.8167,165.4968 715.2247,166.1348 715.2247,167.0468 C715.2247,167.8168 714.9347,168.4328 714.3567,168.8948 C713.7787,169.3578 713.0097,169.5888 712.0537,169.5888" id="Fill-83" fill="#243647" mask="url(#mask-2)"></path>
                <path d="M720.3428,167.5585 L721.2728,167.5585 L721.2728,169.3765 L719.8238,169.3765 C718.9938,169.3765 718.3398,169.1365 717.8588,168.6565 C717.3778,168.1745 717.1378,167.5155 717.1378,166.6775 L717.1378,163.4575 L715.7708,163.4575 L715.7708,163.0205 L718.7578,159.8425 L719.1478,159.8425 L719.1478,161.8175 L721.2318,161.8175 L721.2318,163.4575 L719.1818,163.4575 L719.1818,166.4045 C719.1818,166.7735 719.2808,167.0575 719.4818,167.2585 C719.6818,167.4585 719.9698,167.5585 720.3428,167.5585" id="Fill-84" fill="#243647" mask="url(#mask-2)"></path>
                <path d="M726.009,169.377 L728.053,169.377 L728.053,161.817 L726.009,161.817 L726.009,169.377 Z M726.009,160.813 L728.046,160.813 L728.046,158.913 L726.009,158.913 L726.009,160.813 Z" id="Fill-85" fill="#243647" mask="url(#mask-2)"></path>
                <path d="M733.6973,167.5585 L734.6283,167.5585 L734.6283,169.3765 L733.1783,169.3765 C732.3493,169.3765 731.6943,169.1365 731.2143,168.6565 C730.7323,168.1745 730.4923,167.5155 730.4923,166.6775 L730.4923,163.4575 L729.1253,163.4575 L729.1253,163.0205 L732.1123,159.8425 L732.5023,159.8425 L732.5023,161.8175 L734.5873,161.8175 L734.5873,163.4575 L732.5363,163.4575 L732.5363,166.4045 C732.5363,166.7735 732.6363,167.0575 732.8373,167.2585 C733.0373,167.4585 733.3243,167.5585 733.6973,167.5585" id="Fill-86" fill="#243647" mask="url(#mask-2)"></path>
                <path d="M739.3779,163.3485 C738.9269,163.3485 738.5429,163.4745 738.2289,163.7245 C737.9149,163.9755 737.6979,164.3265 737.5799,164.7775 L741.2429,164.7775 C741.1019,164.3175 740.8709,163.9635 740.5499,163.7175 C740.2289,163.4715 739.8379,163.3485 739.3779,163.3485 M743.2869,165.5705 C743.2869,165.7755 743.2739,165.9755 743.2459,166.1715 L737.5249,166.1715 C737.6109,166.6865 737.8169,167.0815 738.1449,167.3575 C738.4699,167.6325 738.8809,167.7705 739.3779,167.7705 C739.7289,167.7705 740.0439,167.6935 740.3239,167.5375 C740.6049,167.3835 740.8209,167.1685 740.9769,166.8955 L743.1229,166.8955 C742.8499,167.7205 742.3759,168.3755 741.7009,168.8615 C741.0259,169.3455 740.2519,169.5885 739.3779,169.5885 C738.6439,169.5885 737.9779,169.4145 737.3779,169.0665 C736.7789,168.7175 736.3089,168.2385 735.9669,167.6275 C735.6249,167.0165 735.4549,166.3395 735.4549,165.5975 C735.4549,164.8505 735.6239,164.1705 735.9629,163.5605 C736.3029,162.9505 736.7729,162.4715 737.3719,162.1255 C737.9709,161.7795 738.6399,161.6055 739.3779,161.6055 C740.1339,161.6055 740.8129,161.7855 741.4139,162.1425 C742.0159,162.4995 742.4779,162.9795 742.8009,163.5805 C743.1249,164.1825 743.2869,164.8455 743.2869,165.5705" id="Fill-87" fill="#243647" mask="url(#mask-2)"></path>
                <path d="M748.6045,161.7772 L749.2745,161.7772 L749.2745,163.7042 L748.3925,163.7042 C747.8185,163.7042 747.4075,163.8402 747.1595,164.1112 C746.9115,164.3812 746.7865,164.8272 746.7865,165.4472 L746.7865,169.3772 L744.7435,169.3772 L744.7435,161.8172 L746.0475,161.8172 L746.4115,162.7472 C746.9295,162.1002 747.6615,161.7772 748.6045,161.7772" id="Fill-88" fill="#243647" mask="url(#mask-2)"></path>
                <path d="M752.4209,167.0634 C752.8109,167.4584 753.3019,167.6554 753.8949,167.6554 C754.4859,167.6554 754.9779,167.4594 755.3669,167.0674 C755.7569,166.6744 755.9519,166.1804 755.9519,165.5844 C755.9519,164.9864 755.7569,164.4924 755.3669,164.1004 C754.9779,163.7094 754.4859,163.5124 753.8949,163.5124 C753.3019,163.5124 752.8109,163.7094 752.4209,164.1034 C752.0319,164.4984 751.8369,164.9914 751.8369,165.5844 C751.8369,166.1754 752.0319,166.6684 752.4209,167.0634 Z M756.4309,161.8044 L757.9609,161.8044 L757.9609,169.3634 L756.3559,169.3634 L756.1769,168.6864 C755.4889,169.2884 754.6729,169.5884 753.7309,169.5884 C752.9829,169.5884 752.3069,169.4164 751.6999,169.0694 C751.0949,168.7224 750.6209,168.2444 750.2789,167.6304 C749.9369,167.0174 749.7669,166.3354 749.7669,165.5844 C749.7669,164.8364 749.9369,164.1584 750.2789,163.5504 C750.6209,162.9424 751.0949,162.4654 751.6999,162.1224 C752.3069,161.7784 752.9829,161.6054 753.7309,161.6054 C754.6919,161.6054 755.5189,161.9144 756.2119,162.5284 L756.4309,161.8044 Z" id="Fill-89" fill="#243647" mask="url(#mask-2)"></path>
                <path d="M763.6133,167.5585 L764.5433,167.5585 L764.5433,169.3765 L763.0933,169.3765 C762.2643,169.3765 761.6093,169.1365 761.1293,168.6565 C760.6473,168.1745 760.4083,167.5155 760.4083,166.6775 L760.4083,163.4575 L759.0403,163.4575 L759.0403,163.0205 L762.0273,159.8425 L762.4173,159.8425 L762.4173,161.8175 L764.5023,161.8175 L764.5023,163.4575 L762.4513,163.4575 L762.4513,166.4045 C762.4513,166.7735 762.5513,167.0575 762.7523,167.2585 C762.9523,167.4585 763.2393,167.5585 763.6133,167.5585" id="Fill-90" fill="#243647" mask="url(#mask-2)"></path>
                <path d="M765.937,169.377 L767.98,169.377 L767.98,161.817 L765.937,161.817 L765.937,169.377 Z M765.937,160.813 L767.973,160.813 L767.973,158.913 L765.937,158.913 L765.937,160.813 Z" id="Fill-91" fill="#243647" mask="url(#mask-2)"></path>
                <path d="M772.0742,167.0907 C772.4522,167.4757 772.9352,167.6677 773.5232,167.6677 C774.1112,167.6677 774.5952,167.4757 774.9722,167.0907 C775.3502,166.7057 775.5392,166.2077 775.5392,165.5977 C775.5392,164.9867 775.3502,164.4887 774.9722,164.1037 C774.5952,163.7187 774.1112,163.5267 773.5232,163.5267 C772.9352,163.5267 772.4522,163.7187 772.0742,164.1037 C771.6962,164.4887 771.5082,164.9867 771.5082,165.5977 C771.5082,166.2077 771.6962,166.7057 772.0742,167.0907 M773.5232,169.5887 C772.7542,169.5887 772.0562,169.4157 771.4322,169.0697 C770.8072,168.7227 770.3192,168.2437 769.9662,167.6337 C769.6122,167.0237 769.4362,166.3447 769.4362,165.5977 C769.4362,164.8407 769.6122,164.1577 769.9662,163.5507 C770.3192,162.9427 770.8072,162.4657 771.4322,162.1217 C772.0562,161.7787 772.7542,161.6057 773.5232,161.6057 C774.2892,161.6057 774.9832,161.7787 775.6072,162.1217 C776.2312,162.4657 776.7222,162.9437 777.0772,163.5537 C777.4322,164.1637 777.6102,164.8457 777.6102,165.5977 C777.6102,166.3447 777.4322,167.0237 777.0772,167.6337 C776.7222,168.2437 776.2312,168.7227 775.6072,169.0697 C774.9832,169.4157 774.2892,169.5887 773.5232,169.5887" id="Fill-92" fill="#243647" mask="url(#mask-2)"></path>
                <path d="M783.3721,161.6405 C784.2281,161.6405 784.9101,161.9265 785.4151,162.4975 C785.9211,163.0695 786.1741,163.8365 786.1741,164.7975 L786.1741,169.3765 L784.1311,169.3765 L784.1311,165.1255 C784.1311,163.9955 783.6901,163.4305 782.8111,163.4305 C782.2871,163.4305 781.8741,163.6075 781.5711,163.9605 C781.2681,164.3135 781.1161,164.7955 781.1161,165.4065 L781.1161,169.3765 L779.0721,169.3765 L779.0721,161.8175 L780.4741,161.8175 L780.8711,162.7535 C781.1621,162.4085 781.5251,162.1355 781.9611,161.9375 C782.3951,161.7395 782.8661,161.6405 783.3721,161.6405" id="Fill-93" fill="#243647" mask="url(#mask-2)"></path>
                <path d="M711.2725,188.8505 L714.8255,188.8505 L714.8255,189.8305 L709.2435,189.8305 L709.2435,189.4965 C710.2185,188.4725 710.9735,187.6635 711.5075,187.0675 C712.0415,186.4725 712.4605,185.9615 712.7655,185.5355 C713.0705,185.1085 713.2635,184.7795 713.3445,184.5475 C713.4255,184.3165 713.4665,184.0605 713.4665,183.7805 C713.4665,183.3575 713.3325,183.0165 713.0615,182.7565 C712.7915,182.4965 712.4365,182.3665 711.9985,182.3665 C711.5395,182.3665 711.1685,182.4985 710.8855,182.7625 C710.6035,183.0265 710.4625,183.3705 710.4625,183.7925 L710.4625,183.9935 L709.4385,183.9935 L709.4385,183.7925 C709.4385,183.0695 709.6745,182.4875 710.1455,182.0465 C710.6175,181.6055 711.2345,181.3855 711.9985,181.3855 C712.7375,181.3855 713.3395,181.6095 713.8045,182.0555 C714.2695,182.5025 714.5025,183.0785 714.5025,183.7805 C714.5025,184.0885 714.4655,184.3715 714.3925,184.6295 C714.3195,184.8885 714.1675,185.2085 713.9355,185.5925 C713.7045,185.9765 713.3785,186.4225 712.9605,186.9305 C712.5425,187.4385 711.9795,188.0785 711.2725,188.8505" id="Fill-94" fill="#748494" mask="url(#mask-2)"></path>
                <polygon id="Fill-95" fill="#748494" mask="url(#mask-2)" points="715.88 186.857 719.841 186.857 719.841 185.834 715.88 185.834"></polygon>
                <path d="M724.4531,184.6698 C725.1401,184.7598 725.6941,185.0448 726.1161,185.5258 C726.5391,186.0078 726.7501,186.5888 726.7501,187.2718 C726.7501,188.0558 726.4841,188.7028 725.9521,189.2128 C725.4201,189.7228 724.7561,189.9778 723.9591,189.9778 C723.1911,189.9778 722.5551,189.7368 722.0501,189.2588 C721.5431,188.7788 721.2691,188.1618 721.2291,187.4058 L722.2471,187.4058 C722.2801,187.8848 722.4531,188.2708 722.7671,188.5608 C723.0831,188.8518 723.4801,188.9958 723.9591,188.9958 C724.4671,188.9958 724.8861,188.8308 725.2151,188.4998 C725.5441,188.1688 725.7081,187.7468 725.7081,187.2348 C725.7081,186.7278 725.5321,186.3098 725.1791,185.9808 C724.8241,185.6508 724.3761,185.4858 723.8321,185.4858 L722.9051,185.4858 L722.9051,185.2848 L724.8241,182.4768 L721.4971,182.4768 L721.4971,181.5318 L726.4281,181.5318 L726.4281,181.7698 L724.4531,184.6698 Z" id="Fill-96" fill="#748494" mask="url(#mask-2)"></path>
                <polygon id="Fill-97" fill="#748494" mask="url(#mask-2)" points="739.7051 183.0917 740.7771 183.0917 738.4801 189.8307 737.6151 189.8307 735.7141 185.2367 733.8071 189.8307 732.9471 189.8307 730.6681 183.0917 731.7771 183.0917 733.4531 188.0577 735.5191 183.1957 735.9021 183.1957 737.9801 188.1007"></polygon>
                <path d="M744.8848,183.9511 C744.2758,183.9511 743.7598,184.1261 743.3378,184.4771 C742.9148,184.8291 742.6488,185.3001 742.5388,185.8881 L747.2198,185.8881 C747.1058,185.2911 746.8388,184.8191 746.4178,184.4721 C745.9968,184.1241 745.4868,183.9511 744.8848,183.9511 M748.2798,186.4921 C748.2798,186.6141 748.2738,186.7401 748.2608,186.8701 L742.5148,186.8701 C742.5968,187.4951 742.8538,187.9971 743.2848,188.3751 C743.7178,188.7531 744.2508,188.9411 744.8848,188.9411 C745.3488,188.9411 745.7608,188.8391 746.1218,188.6341 C746.4838,188.4291 746.7708,188.1431 746.9818,187.7771 L748.1028,187.7771 C747.8148,188.4721 747.3888,189.0131 746.8258,189.3981 C746.2638,189.7841 745.6168,189.9771 744.8848,189.9771 C744.2428,189.9771 743.6588,189.8251 743.1338,189.5201 C742.6078,189.2161 742.1948,188.7961 741.8968,188.2591 C741.5978,187.7221 741.4478,187.1241 741.4478,186.4611 C741.4478,185.8041 741.5978,185.2051 741.8968,184.6671 C742.1948,184.1291 742.6078,183.7071 743.1338,183.4021 C743.6588,183.0971 744.2428,182.9451 744.8848,182.9451 C745.5508,182.9451 746.1448,183.1031 746.6648,183.4211 C747.1848,183.7371 747.5838,184.1651 747.8628,184.7031 C748.1398,185.2421 748.2798,185.8381 748.2798,186.4921" id="Fill-98" fill="#748494" mask="url(#mask-2)"></path>
                <path d="M752.7705,183.9511 C752.1615,183.9511 751.6455,184.1261 751.2225,184.4771 C750.7995,184.8291 750.5345,185.3001 750.4245,185.8881 L755.1045,185.8881 C754.9905,185.2911 754.7235,184.8191 754.3025,184.4721 C753.8825,184.1241 753.3715,183.9511 752.7705,183.9511 M756.1645,186.4921 C756.1645,186.6141 756.1585,186.7401 756.1465,186.8701 L750.4005,186.8701 C750.4815,187.4951 750.7385,187.9971 751.1705,188.3751 C751.6035,188.7531 752.1365,188.9411 752.7705,188.9411 C753.2335,188.9411 753.6455,188.8391 754.0075,188.6341 C754.3695,188.4291 754.6555,188.1431 754.8675,187.7771 L755.9885,187.7771 C755.6995,188.4721 755.2745,189.0131 754.7105,189.3981 C754.1485,189.7841 753.5015,189.9771 752.7705,189.9771 C752.1285,189.9771 751.5445,189.8251 751.0185,189.5201 C750.4935,189.2161 750.0805,188.7961 749.7815,188.2591 C749.4825,187.7221 749.3335,187.1241 749.3335,186.4611 C749.3335,185.8041 749.4825,185.2051 749.7815,184.6671 C750.0805,184.1291 750.4935,183.7071 751.0185,183.4021 C751.5445,183.0971 752.1285,182.9451 752.7705,182.9451 C753.4365,182.9451 754.0295,183.1031 754.5495,183.4211 C755.0695,183.7371 755.4685,184.1651 755.7475,184.7031 C756.0255,185.2421 756.1645,185.8381 756.1645,186.4921" id="Fill-99" fill="#748494" mask="url(#mask-2)"></path>
                <polygon id="Fill-100" fill="#748494" mask="url(#mask-2)" points="762.1973 189.8309 759.8863 186.8089 758.9253 186.8089 758.9253 189.8309 757.8633 189.8309 757.8633 180.6849 758.9253 180.6849 758.9253 185.8269 759.9053 185.8269 761.9833 183.0919 763.2753 183.0919 760.8193 186.3209 763.5253 189.8309"></polygon>
                <path d="M766.707,189.9774 C765.91,189.9774 765.27,189.7784 764.786,189.3804 C764.303,188.9824 764.047,188.4444 764.019,187.7654 L765.055,187.7654 C765.083,188.1554 765.251,188.4574 765.558,188.6734 C765.864,188.8884 766.259,188.9964 766.743,188.9964 C767.21,188.9964 767.591,188.9024 767.886,188.7154 C768.18,188.5294 768.327,188.2734 768.327,187.9484 C768.327,187.8224 768.307,187.7084 768.267,187.6074 C768.226,187.5054 768.16,187.4184 768.071,187.3484 C767.982,187.2774 767.893,187.2154 767.803,187.1644 C767.714,187.1144 767.591,187.0694 767.435,187.0284 C767.277,186.9874 767.144,186.9564 767.032,186.9334 C766.921,186.9114 766.769,186.8834 766.578,186.8514 C766.428,186.8274 766.311,186.8064 766.228,186.7894 C766.145,186.7744 766.031,186.7494 765.887,186.7164 C765.742,186.6844 765.628,186.6544 765.542,186.6254 C765.457,186.5974 765.352,186.5614 765.226,186.5164 C765.1,186.4714 764.999,186.4224 764.924,186.3704 C764.849,186.3174 764.765,186.2554 764.671,186.1844 C764.577,186.1134 764.504,186.0354 764.448,185.9494 C764.394,185.8644 764.34,185.7694 764.287,185.6654 C764.234,185.5624 764.196,185.4454 764.174,185.3154 C764.152,185.1854 764.141,185.0454 764.141,184.8954 C764.141,184.3144 764.374,183.8434 764.842,183.4844 C765.309,183.1244 765.922,182.9454 766.682,182.9454 C767.441,182.9454 768.05,183.1334 768.507,183.5084 C768.964,183.8844 769.203,184.3914 769.223,185.0294 L768.217,185.0294 C768.196,184.6644 768.051,184.3824 767.778,184.1854 C767.507,183.9884 767.133,183.8894 766.657,183.8894 C766.203,183.8894 765.841,183.9784 765.573,184.1554 C765.305,184.3314 765.171,184.5664 765.171,184.8584 C765.171,184.9724 765.188,185.0754 765.226,185.1664 C765.262,185.2574 765.322,185.3354 765.408,185.4014 C765.494,185.4654 765.578,185.5214 765.664,185.5654 C765.75,185.6104 765.867,185.6514 766.018,185.6874 C766.168,185.7244 766.296,185.7524 766.401,185.7734 C766.507,185.7924 766.655,185.8174 766.846,185.8454 C767.512,185.9554 767.99,186.0714 768.278,186.1934 C768.944,186.4734 769.307,186.9644 769.362,187.6674 C769.371,187.7454 769.375,187.8224 769.375,187.8994 C769.375,188.5294 769.132,189.0334 768.644,189.4104 C768.156,189.7884 767.511,189.9774 766.707,189.9774" id="Fill-101" fill="#748494" mask="url(#mask-2)"></path>
                <path d="M766.0557,100.8729 C766.0557,114.0819 755.3477,124.7909 742.1387,124.7909 C728.9297,124.7909 718.2217,114.0819 718.2217,100.8729 C718.2217,87.6639 728.9297,76.9559 742.1387,76.9559 C755.3477,76.9559 766.0557,87.6639 766.0557,100.8729" id="Fill-102" fill="#50E29D" mask="url(#mask-2)"></path>
                <path d="M701.8359,84.0966 C708.7989,68.6526 724.3299,57.9016 742.3709,57.9016 C755.5939,57.9016 767.4679,63.6756 775.6089,72.8406" id="Stroke-103" stroke="#11193A" stroke-width="1.239" stroke-linecap="round" stroke-linejoin="round" mask="url(#mask-2)"></path>
                <path d="M745.8896,146.6503 C744.7296,146.7413 743.5556,146.7873 742.3706,146.7873 C717.8266,146.7873 697.9286,126.8893 697.9286,102.3443 C697.9286,98.0933 698.5256,93.9823 699.6396,90.0893" id="Stroke-104" stroke="#11193A" stroke-width="1.239" stroke-linecap="round" stroke-linejoin="round" mask="url(#mask-2)"></path>
                <path d="M778.6006,76.5966 C783.7726,83.8616 786.8146,92.7476 786.8146,102.3446 C786.8146,123.3606 772.2276,140.9696 752.6246,145.5986" id="Stroke-105" stroke="#11193A" stroke-width="1.239" stroke-linecap="round" stroke-linejoin="round" mask="url(#mask-2)"></path>
                <polyline id="Stroke-106" stroke="#11193A" stroke-width="1.239" stroke-linecap="round" stroke-linejoin="round" mask="url(#mask-2)" points="691.8047 94.0028 699.5657 90.0678 704.4947 97.4758"></polyline>
                <polyline id="Stroke-107" stroke="#11193A" stroke-width="1.239" stroke-linecap="round" stroke-linejoin="round" mask="url(#mask-2)" points="775.374 64.7899 775.596 72.8529 767.353 73.0509"></polyline>
                <path d="M752.6104,145.5331 L756.0974,138.4221" id="Stroke-108" stroke="#11193A" stroke-width="1.239" stroke-linecap="round" stroke-linejoin="round" mask="url(#mask-2)"></path>
                <path d="M760.0488,149.9159 L752.6108,145.5329" id="Stroke-109" stroke="#11193A" stroke-width="1.239" stroke-linecap="round" stroke-linejoin="round" mask="url(#mask-2)"></path>
                <path d="M759.9922,101.7196 C759.9922,91.8596 752.0002,83.8666 742.1402,83.8666 C732.2802,83.8666 724.2882,91.8596 724.2882,101.7196 C724.2882,108.2736 727.8302,113.9876 733.0952,117.0916 L733.0952,120.2996 C733.0952,121.0946 733.7392,121.7396 734.5352,121.7396 L749.7462,121.7396 C750.5412,121.7396 751.1852,121.0946 751.1852,120.2996 L751.1852,117.0916 C756.4502,113.9876 759.9922,108.2736 759.9922,101.7196 Z" id="Stroke-110" stroke="#11193A" stroke-width="1.239" stroke-linecap="round" stroke-linejoin="round" mask="url(#mask-2)"></path>
                <polygon id="Stroke-111" stroke="#11193A" stroke-width="1.239" stroke-linecap="round" stroke-linejoin="round" mask="url(#mask-2)" points="748.8535 130.7841 746.0805 130.7841 745.4165 132.9551 738.8435 132.9551 737.7585 130.7841 735.4665 130.7841 735.4665 121.7111 748.8535 121.7111"></polygon>
                <path d="M128.0586,-0.0001 C57.4466,-0.0001 -0.0004,57.4459 -0.0004,128.0569 C-0.0004,201.5919 59.8256,261.4169 133.3606,261.4169 C133.8026,261.4169 134.1626,261.0569 134.1626,260.6129 C134.1626,260.1699 133.8026,259.8099 133.3606,259.8099 C60.7116,259.8099 1.6066,200.7049 1.6066,128.0569 C1.6066,58.3319 58.3326,1.6059 128.0586,1.6059 C194.9766,1.6059 249.4176,56.0489 249.4176,122.9669 C249.4176,187.1899 197.1676,239.4399 132.9446,239.4399 C71.3076,239.4399 21.1616,189.2949 21.1616,127.6579 C21.1616,68.5039 69.2876,20.3789 128.4416,20.3789 C185.2106,20.3789 231.3966,66.5639 231.3966,123.3349 C231.3966,123.7779 231.7566,124.1389 232.2006,124.1389 C232.6426,124.1389 233.0026,123.7779 233.0026,123.3349 C233.0026,65.6789 186.0966,18.7709 128.4416,18.7709 C68.4006,18.7709 19.5546,67.6179 19.5546,127.6579 C19.5546,190.1809 70.4206,241.0469 132.9446,241.0469 C198.0546,241.0469 251.0256,188.0759 251.0256,122.9669 C251.0256,55.1629 195.8626,-0.0001 128.0586,-0.0001" id="Fill-112" fill="#DCE2EF" mask="url(#mask-2)"></path>
                <path d="M386.165,259.8095 L133.36,259.8095 C132.917,259.8095 132.557,260.1695 132.557,260.6135 C132.557,261.0565 132.917,261.4165 133.36,261.4165 L386.165,261.4165 C386.608,261.4165 386.969,261.0565 386.969,260.6135 C386.969,260.1695 386.608,259.8095 386.165,259.8095" id="Fill-113" fill="#DCE2EF" mask="url(#mask-2)"></path>
                <path d="M434.4541,-0.0001 C363.8431,-0.0001 306.3951,57.4459 306.3951,128.0569 C306.3951,201.5919 366.2211,261.4169 439.7561,261.4169 C440.1981,261.4169 440.5581,261.0569 440.5581,260.6129 C440.5581,260.1699 440.1981,259.8099 439.7561,259.8099 C367.1061,259.8099 308.0021,200.7049 308.0021,128.0569 C308.0021,58.3319 364.7281,1.6059 434.4541,1.6059 C501.3721,1.6059 555.8131,56.0489 555.8131,122.9669 C555.8131,187.1899 503.5631,239.4399 439.3401,239.4399 C377.7031,239.4399 327.5581,189.2949 327.5581,127.6579 C327.5581,68.5039 375.6831,20.3789 434.8361,20.3789 C491.6061,20.3789 537.7921,66.5639 537.7921,123.3349 C537.7921,123.7779 538.1521,124.1389 538.5961,124.1389 C539.0381,124.1389 539.3981,123.7779 539.3981,123.3349 C539.3981,65.6789 492.4921,18.7709 434.8361,18.7709 C374.7961,18.7709 325.9501,67.6179 325.9501,127.6579 C325.9501,190.1809 376.8161,241.0469 439.3401,241.0469 C504.4501,241.0469 557.4211,188.0759 557.4211,122.9669 C557.4211,55.1629 502.2581,-0.0001 434.4541,-0.0001" id="Fill-114" fill="#DCE2EF" mask="url(#mask-2)"></path>
                <path d="M689.0254,261.4169 C689.4684,261.4169 689.8294,261.0569 689.8294,260.6129 C689.8294,260.1699 689.4684,259.8099 689.0254,259.8099 L439.7554,259.8099 C439.3124,259.8099 438.9524,260.1699 438.9524,260.6129 C438.9524,261.0569 439.3124,261.4169 439.7554,261.4169 L689.0254,261.4169 Z" id="Fill-115" fill="#DCE2EF" mask="url(#mask-2)"></path>
                <path d="M652.8555,272.162 C653.0475,272.266 653.2635,272.29 653.4665,272.228 L689.2575,261.382 C689.5985,261.278 689.8275,260.97 689.8275,260.613 C689.8275,260.257 689.5975,259.948 689.2565,259.844 L653.4675,248.998 C653.3945,248.975 653.3165,248.965 653.2355,248.965 C653.1055,248.965 652.9735,248.998 652.8555,249.06 C652.6665,249.162 652.5275,249.33 652.4655,249.534 C652.3365,249.958 652.5775,250.408 653.0015,250.537 L686.2535,260.613 L653.0015,270.689 C652.5775,270.818 652.3365,271.268 652.4655,271.692 C652.5255,271.888 652.6675,272.059 652.8555,272.162" id="Fill-116" fill="#DCE2EF" mask="url(#mask-2)"></path>
                <path d="M197.5381,-0.0001 L194.8871,0.8029 L197.5391,1.6059 L434.2091,1.6059 C434.6511,1.6059 435.0121,1.2459 435.0121,0.8029 C435.0121,0.3599 434.6511,-0.0001 434.2091,-0.0001 L197.5381,-0.0001 Z" id="Fill-117" fill="#DCE2EF" mask="url(#mask-2)"></path>
                <path d="M731.8896,261.4169 C805.4246,261.4169 865.2496,201.5919 865.2496,128.0569 C865.2496,57.4459 807.8026,-0.0001 737.1916,-0.0001 C669.3876,-0.0001 614.2246,55.1629 614.2246,122.9669 C614.2246,188.0759 667.1956,241.0469 732.3056,241.0469 C794.8286,241.0469 845.6956,190.1809 845.6956,127.6579 C845.6956,67.6179 796.8496,18.7709 736.8096,18.7709 C679.1536,18.7709 632.2466,65.6789 632.2466,123.3349 C632.2466,123.7779 632.6076,124.1389 633.0496,124.1389 C633.4936,124.1389 633.8536,123.7779 633.8536,123.3349 C633.8536,66.5639 680.0386,20.3789 736.8096,20.3789 C795.9626,20.3789 844.0876,68.5039 844.0876,127.6579 C844.0876,189.2949 793.9426,239.4399 732.3056,239.4399 C668.0816,239.4399 615.8316,187.1899 615.8316,122.9669 C615.8316,56.0489 670.2736,1.6059 737.1916,1.6059 C806.9166,1.6059 863.6436,58.3319 863.6436,128.0569 C863.6436,200.7049 804.5386,259.8099 731.8896,259.8099 C731.4476,259.8099 731.0866,260.1699 731.0866,260.6129 C731.0866,261.0569 731.4476,261.4169 731.8896,261.4169" id="Fill-118" fill="#DCE2EF" mask="url(#mask-2)"></path>
                <path d="M731.8896,259.8095 L701.8106,259.8095 C701.3686,259.8095 701.0076,260.1695 701.0076,260.6135 C701.0076,261.0565 701.3686,261.4165 701.8106,261.4165 L731.8896,261.4165 C732.3326,261.4165 732.6936,261.0565 732.6936,260.6135 C732.6936,260.1695 732.3326,259.8095 731.8896,259.8095" id="Fill-119" fill="#DCE2EF" mask="url(#mask-2)"></path>
                <path d="M737.748,1.6063 C738.19,1.6063 738.551,1.2463 738.551,0.8023 C738.551,0.3603 738.19,0.0003 737.748,0.0003 L487.3,0.0003 C486.856,0.0003 486.496,0.3603 486.496,0.8023 C486.496,1.2463 486.856,1.6063 487.3,1.6063 L737.748,1.6063 Z" id="Fill-120" fill="#DCE2EF" mask="url(#mask-2)"></path>
            </g>
        </g>
    </g>
</svg>