<?xml version="1.0" encoding="UTF-8"?>
<svg width="975px" height="287px" viewBox="0 0 975 287" version="1.1" xmlns="http://www.w3.org/2000/svg" xmlns:xlink="http://www.w3.org/1999/xlink">
    <!-- Generator: Sketch 51.3 (57544) - http://www.bohemiancoding.com/sketch -->
    <title>Group 141</title>
    <desc>Created with Sketch.</desc>
    <defs>
        <polygon id="path-1" points="0 0.446 286.5548 0.446 286.5548 286.9996 0 286.9996"></polygon>
        <polygon id="path-3" points="0.5066 0.446 287.0616 0.446 287.0616 286.9996 0.5066 286.9996"></polygon>
        <polygon id="path-5" points="0.9334 0.446 287.488 0.446 287.488 286.9996 0.9334 286.9996"></polygon>
        <polygon id="path-7" points="0 287.554 974.488 287.554 974.488 1 0 1"></polygon>
    </defs>
    <g id="Page-1" stroke="none" stroke-width="1" fill="none" fill-rule="evenodd">
        <g id="Teams" transform="translate(-202.000000, -3491.000000)">
            <g id="Group-141" transform="translate(202.000000, 3490.000000)">
                <g id="Group-3" transform="translate(0.000000, 0.554000)">
                    <mask id="mask-2" fill="white">
                        <use xlink:href="#path-1"></use>
                    </mask>
                    <g id="Clip-2"></g>
                    <path d="M286.5548,143.7226 C286.5548,222.8526 222.4078,286.9996 143.2778,286.9996 C64.1478,286.9996 -0.0002,222.8526 -0.0002,143.7226 C-0.0002,64.5936 64.1478,0.4456 143.2778,0.4456 C222.4078,0.4456 286.5548,64.5936 286.5548,143.7226" id="Fill-1" fill="#F3F6FD" mask="url(#mask-2)"></path>
                </g>
                <g id="Group-6" transform="translate(346.000000, 0.554000)">
                    <mask id="mask-4" fill="white">
                        <use xlink:href="#path-3"></use>
                    </mask>
                    <g id="Clip-5"></g>
                    <path d="M287.0616,143.7226 C287.0616,222.8526 222.9146,286.9996 143.7846,286.9996 C64.6546,286.9996 0.5066,222.8526 0.5066,143.7226 C0.5066,64.5936 64.6546,0.4456 143.7846,0.4456 C222.9146,0.4456 287.0616,64.5936 287.0616,143.7226" id="Fill-4" fill="#F3F6FD" mask="url(#mask-4)"></path>
                </g>
                <g id="Group-9" transform="translate(687.000000, 0.554000)">
                    <mask id="mask-6" fill="white">
                        <use xlink:href="#path-5"></use>
                    </mask>
                    <g id="Clip-8"></g>
                    <path d="M287.4884,143.7226 C287.4884,222.8526 223.3414,286.9996 144.2114,286.9996 C65.0814,286.9996 0.9334,222.8526 0.9334,143.7226 C0.9334,64.5936 65.0814,0.4456 144.2114,0.4456 C223.3414,0.4456 287.4884,64.5936 287.4884,143.7226" id="Fill-7" fill="#F3F6FD" mask="url(#mask-6)"></path>
                </g>
                <path d="M283.8312,165.9021 L284.0262,151.3081 C284.0942,146.2231 288.2702,142.1571 293.3552,142.2251 L347.8682,142.9531" id="Stroke-10" stroke="#243647" stroke-width="0.805" stroke-linecap="round" stroke-linejoin="round"></path>
                <path d="M283.8195,165.049 L283.8195,171.216 C283.8195,176.301 279.6975,180.424 274.6125,180.424 L254.5815,180.424" id="Stroke-12" stroke="#243647" stroke-width="0.805" stroke-linecap="round" stroke-linejoin="round"></path>
                <path d="M254.0636,180.3742 C254.0636,183.4312 251.5856,185.9082 248.5296,185.9082 C245.4726,185.9082 242.9956,183.4312 242.9956,180.3742 C242.9956,177.3172 245.4726,174.8402 248.5296,174.8402 C251.5856,174.8402 254.0636,177.3172 254.0636,180.3742 Z" id="Stroke-14" stroke="#243647" stroke-width="0.805" stroke-linecap="round" stroke-linejoin="round"></path>
                <path d="M330.5441,131.3498 L348.3531,142.8658" id="Stroke-16" stroke="#243647" stroke-width="0.805" stroke-linecap="round" stroke-linejoin="round"></path>
                <path d="M329.8116,154.9411 L348.3526,142.8661" id="Stroke-18" stroke="#243647" stroke-width="0.805" stroke-linecap="round" stroke-linejoin="round"></path>
                <path d="M624.4025,165.9021 L624.5975,151.3081 C624.6655,146.2231 628.8415,142.1571 633.9265,142.2251 L688.4395,142.9531" id="Stroke-20" stroke="#243647" stroke-width="0.805" stroke-linecap="round" stroke-linejoin="round"></path>
                <path d="M624.3907,165.049 L624.3907,171.216 C624.3907,176.301 620.2687,180.424 615.1837,180.424 L595.1527,180.424" id="Stroke-22" stroke="#243647" stroke-width="0.805" stroke-linecap="round" stroke-linejoin="round"></path>
                <path d="M594.6349,180.3742 C594.6349,183.4312 592.1569,185.9082 589.1009,185.9082 C586.0439,185.9082 583.5669,183.4312 583.5669,180.3742 C583.5669,177.3172 586.0439,174.8402 589.1009,174.8402 C592.1569,174.8402 594.6349,177.3172 594.6349,180.3742 Z" id="Stroke-24" stroke="#243647" stroke-width="0.805" stroke-linecap="round" stroke-linejoin="round"></path>
                <path d="M671.1154,131.3498 L688.9244,142.8658" id="Stroke-26" stroke="#243647" stroke-width="0.805" stroke-linecap="round" stroke-linejoin="round"></path>
                <path d="M670.3829,154.9411 L688.9239,142.8661" id="Stroke-28" stroke="#243647" stroke-width="0.805" stroke-linecap="round" stroke-linejoin="round"></path>
                <path d="M177.0978,90.4904 C177.0978,105.0334 165.3078,116.8234 150.7648,116.8234 C136.2208,116.8234 124.4308,105.0334 124.4308,90.4904 C124.4308,75.9474 136.2208,64.1574 150.7648,64.1574 C165.3078,64.1574 177.0978,75.9474 177.0978,90.4904" id="Fill-30" fill="#50E29D"></path>
                <path d="M184.0626,90.4011 C184.0626,109.0021 168.9836,124.0811 150.3826,124.0811 C131.7826,124.0811 116.7036,109.0021 116.7036,90.4011 C116.7036,71.8001 131.7826,56.7211 150.3826,56.7211 C168.9836,56.7211 184.0626,71.8001 184.0626,90.4011 Z" id="Stroke-32" stroke="#11193A" stroke-width="1.239" stroke-linecap="round" stroke-linejoin="round"></path>
                <path d="M118.0734,154.323 L135.2964,121.718" id="Stroke-34" stroke="#11193A" stroke-width="1.239" stroke-linecap="round" stroke-linejoin="round"></path>
                <polyline id="Stroke-36" stroke="#11193A" stroke-width="1.239" stroke-linecap="round" stroke-linejoin="round" points="163.6535 87.6511 168.6965 93.4071 174.1975 88.2121"></polyline>
                <path d="M166.0939,100.3029 C162.8159,105.3709 157.1149,108.7249 150.6299,108.7249 C140.4659,108.7249 132.2259,100.4859 132.2259,90.3219 C132.2259,80.1569 140.4659,71.9179 150.6299,71.9179 C160.7939,71.9179 169.0329,80.1569 169.0329,90.3219 C169.0329,91.1719 168.9759,92.0089 168.8649,92.8279" id="Stroke-38" stroke="#11193A" stroke-width="1.239" stroke-linecap="round" stroke-linejoin="round"></path>
                <path d="M509.799,117.8816 C509.799,130.7126 499.398,141.1136 486.567,141.1136 C473.736,141.1136 463.334,130.7126 463.334,117.8816 C463.334,105.0506 473.736,94.6496 486.567,94.6496 C499.398,94.6496 509.799,105.0506 509.799,117.8816" id="Fill-40" fill="#50E29D"></path>
                <path d="M510.09,152.966 L511.412,152.966 C511.412,139.744 501.76,134.456 491.579,134.456 L481.663,134.456 C471.483,134.456 461.831,139.744 461.831,152.966 L463.153,152.966 L510.09,152.966 Z" id="Stroke-42" stroke="#11193A" stroke-width="1.239" stroke-linecap="round" stroke-linejoin="round"></path>
                <path d="M499.0167,118.6399 C499.0167,125.4859 493.4667,131.0349 486.6207,131.0349 C479.7757,131.0349 474.2257,125.4859 474.2257,118.6399 C474.2257,111.7939 479.7757,106.2449 486.6207,106.2449 C493.4667,106.2449 499.0167,111.7939 499.0167,118.6399 Z" id="Stroke-44" stroke="#11193A" stroke-width="1.239" stroke-linecap="round" stroke-linejoin="round"></path>
                <path d="M499.0167,58.5876 C499.0167,65.4336 493.4667,70.9826 486.6207,70.9826 C479.7757,70.9826 474.2257,65.4336 474.2257,58.5876 C474.2257,51.7416 479.7757,46.1916 486.6207,46.1916 C493.4667,46.1916 499.0167,51.7416 499.0167,58.5876 Z" id="Stroke-46" stroke="#11193A" stroke-width="1.239" stroke-linecap="round" stroke-linejoin="round"></path>
                <path d="M468.6769,88.4377 C468.6769,95.2837 463.1279,100.8337 456.2819,100.8337 C449.4369,100.8337 443.8869,95.2837 443.8869,88.4377 C443.8869,81.5917 449.4369,76.0427 456.2819,76.0427 C463.1279,76.0427 468.6769,81.5917 468.6769,88.4377 Z" id="Stroke-48" stroke="#11193A" stroke-width="1.239" stroke-linecap="round" stroke-linejoin="round"></path>
                <path d="M529.7462,88.4377 C529.7462,95.2837 524.1972,100.8337 517.3512,100.8337 C510.5062,100.8337 504.9562,95.2837 504.9562,88.4377 C504.9562,81.5917 510.5062,76.0427 517.3512,76.0427 C524.1972,76.0427 529.7462,81.5917 529.7462,88.4377 Z" id="Stroke-50" stroke="#11193A" stroke-width="1.239" stroke-linecap="round" stroke-linejoin="round"></path>
                <path d="M81.9894,184.7346 C83.0224,184.7346 83.8664,184.3966 84.5204,183.7196 C85.1754,183.0426 85.5034,182.1736 85.5034,181.1116 C85.5034,180.0496 85.1754,179.1836 84.5204,178.5126 C83.8664,177.8416 83.0224,177.5056 81.9894,177.5056 L80.0934,177.5056 L80.0934,184.7346 L81.9894,184.7346 Z M82.0484,175.0786 C82.9254,175.0786 83.7434,175.2306 84.5044,175.5336 C85.2654,175.8376 85.9144,176.2546 86.4504,176.7856 C86.9864,177.3166 87.4084,177.9556 87.7144,178.7016 C88.0204,179.4486 88.1744,180.2526 88.1744,181.1116 C88.1744,181.9766 88.0184,182.7846 87.7104,183.5336 C87.4014,184.2836 86.9784,184.9246 86.4424,185.4556 C85.9054,185.9856 85.2574,186.4026 84.4964,186.7066 C83.7344,187.0096 82.9194,187.1616 82.0484,187.1616 L77.4814,187.1616 L77.4814,175.0786 L82.0484,175.0786 Z" id="Fill-52" fill="#243647"></path>
                <path d="M94.3156,179.7302 C93.7596,179.7302 93.2876,179.8842 92.8996,180.1932 C92.5126,180.5022 92.2456,180.9352 92.0996,181.4912 L96.6156,181.4912 C96.4416,180.9232 96.1566,180.4882 95.7606,180.1852 C95.3646,179.8812 94.8826,179.7302 94.3156,179.7302 M99.1346,182.4682 C99.1346,182.7212 99.1186,182.9682 99.0846,183.2092 L92.0326,183.2092 C92.1386,183.8442 92.3926,184.3322 92.7946,184.6712 C93.1966,185.0112 93.7036,185.1812 94.3156,185.1812 C94.7486,185.1812 95.1366,185.0852 95.4826,184.8952 C95.8286,184.7042 96.0956,184.4392 96.2876,184.1032 L98.9326,184.1032 C98.5956,185.1192 98.0116,185.9272 97.1796,186.5252 C96.3486,187.1232 95.3936,187.4222 94.3156,187.4222 C93.4116,187.4222 92.5896,187.2082 91.8506,186.7782 C91.1126,186.3482 90.5326,185.7572 90.1116,185.0042 C89.6896,184.2512 89.4796,183.4182 89.4796,182.5022 C89.4796,181.5812 89.6886,180.7442 90.1066,179.9912 C90.5256,179.2382 91.1036,178.6482 91.8426,178.2222 C92.5816,177.7952 93.4056,177.5812 94.3156,177.5812 C95.2486,177.5812 96.0856,177.8022 96.8266,178.2432 C97.5676,178.6842 98.1376,179.2752 98.5366,180.0162 C98.9356,180.7582 99.1346,181.5752 99.1346,182.4682" id="Fill-54" fill="#243647"></path>
                <path d="M106.4816,177.969 L106.4816,180.042 L104.1396,180.042 L104.1396,187.161 L101.6206,187.161 L101.6206,180.042 L100.0026,180.042 L100.0026,177.969 L101.6286,177.969 L101.6286,177.127 C101.6286,176.217 101.8816,175.502 102.3866,174.982 C102.8926,174.463 103.6266,174.203 104.5856,174.203 L106.4646,174.203 L106.4646,176.183 L105.0916,176.183 C104.4126,176.183 104.0726,176.517 104.0726,177.185 L104.0726,177.969 L106.4816,177.969 Z" id="Fill-56" fill="#243647"></path>
                <mask id="mask-8" fill="white">
                    <use xlink:href="#path-7"></use>
                </mask>
                <g id="Clip-59"></g>
                <path d="M107.931,187.161 L110.451,187.161 L110.451,177.842 L107.931,177.842 L107.931,187.161 Z M107.931,176.604 L110.442,176.604 L110.442,174.262 L107.931,174.262 L107.931,176.604 Z" id="Fill-58" fill="#243647" mask="url(#mask-8)"></path>
                <path d="M118.1603,177.6237 C119.2173,177.6237 120.0563,177.9767 120.6803,178.6807 C121.3033,179.3857 121.6153,180.3317 121.6153,181.5167 L121.6153,187.1617 L119.0963,187.1617 L119.0963,181.9207 C119.0963,180.5277 118.5543,179.8317 117.4703,179.8317 C116.8233,179.8317 116.3133,180.0487 115.9403,180.4837 C115.5663,180.9197 115.3803,181.5137 115.3803,182.2657 L115.3803,187.1617 L112.8603,187.1617 L112.8603,177.8427 L114.5883,177.8427 L115.0773,178.9967 C115.4363,178.5697 115.8843,178.2347 116.4213,177.9897 C116.9573,177.7457 117.5373,177.6237 118.1603,177.6237" id="Fill-60" fill="#243647" mask="url(#mask-8)"></path>
                <path d="M128.1359,179.7302 C127.5799,179.7302 127.1079,179.8842 126.7199,180.1932 C126.3329,180.5022 126.0659,180.9352 125.9199,181.4912 L130.4359,181.4912 C130.2619,180.9232 129.9769,180.4882 129.5809,180.1852 C129.1849,179.8812 128.7029,179.7302 128.1359,179.7302 M132.9549,182.4682 C132.9549,182.7212 132.9389,182.9682 132.9049,183.2092 L125.8529,183.2092 C125.9589,183.8442 126.2129,184.3322 126.6149,184.6712 C127.0169,185.0112 127.5239,185.1812 128.1359,185.1812 C128.5689,185.1812 128.9569,185.0852 129.3029,184.8952 C129.6489,184.7042 129.9159,184.4392 130.1079,184.1032 L132.7529,184.1032 C132.4159,185.1192 131.8319,185.9272 130.9999,186.5252 C130.1689,187.1232 129.2139,187.4222 128.1359,187.4222 C127.2319,187.4222 126.4099,187.2082 125.6709,186.7782 C124.9329,186.3482 124.3529,185.7572 123.9319,185.0042 C123.5099,184.2512 123.2999,183.4182 123.2999,182.5022 C123.2999,181.5812 123.5089,180.7442 123.9269,179.9912 C124.3459,179.2382 124.9239,178.6482 125.6629,178.2222 C126.4019,177.7952 127.2259,177.5812 128.1359,177.5812 C129.0689,177.5812 129.9059,177.8022 130.6469,178.2432 C131.3879,178.6842 131.9579,179.2752 132.3569,180.0162 C132.7559,180.7582 132.9549,181.5752 132.9549,182.4682" id="Fill-61" fill="#243647" mask="url(#mask-8)"></path>
                <polygon id="Fill-62" fill="#243647" mask="url(#mask-8)" points="146.8488 175.0788 146.8488 177.5058 143.4878 177.5058 143.4878 187.1618 140.8748 187.1618 140.8748 177.5058 137.5218 177.5058 137.5218 175.0788"></polygon>
                <path d="M151.3742,179.7302 C150.8182,179.7302 150.3462,179.8842 149.9582,180.1932 C149.5712,180.5022 149.3042,180.9352 149.1582,181.4912 L153.6742,181.4912 C153.5002,180.9232 153.2152,180.4882 152.8192,180.1852 C152.4232,179.8812 151.9412,179.7302 151.3742,179.7302 M156.1932,182.4682 C156.1932,182.7212 156.1772,182.9682 156.1432,183.2092 L149.0912,183.2092 C149.1972,183.8442 149.4512,184.3322 149.8532,184.6712 C150.2552,185.0112 150.7622,185.1812 151.3742,185.1812 C151.8072,185.1812 152.1952,185.0852 152.5412,184.8952 C152.8872,184.7042 153.1542,184.4392 153.3462,184.1032 L155.9912,184.1032 C155.6542,185.1192 155.0702,185.9272 154.2382,186.5252 C153.4072,187.1232 152.4522,187.4222 151.3742,187.4222 C150.4702,187.4222 149.6482,187.2082 148.9092,186.7782 C148.1712,186.3482 147.5912,185.7572 147.1702,185.0042 C146.7482,184.2512 146.5382,183.4182 146.5382,182.5022 C146.5382,181.5812 146.7472,180.7442 147.1652,179.9912 C147.5842,179.2382 148.1622,178.6482 148.9012,178.2222 C149.6402,177.7952 150.4642,177.5812 151.3742,177.5812 C152.3072,177.5812 153.1442,177.8022 153.8852,178.2432 C154.6262,178.6842 155.1962,179.2752 155.5952,180.0162 C155.9942,180.7582 156.1932,181.5752 156.1932,182.4682" id="Fill-63" fill="#243647" mask="url(#mask-8)"></path>
                <path d="M160.6456,184.3093 C161.1256,184.7953 161.7316,185.0383 162.4616,185.0383 C163.1916,185.0383 163.7966,184.7963 164.2776,184.3133 C164.7576,183.8303 164.9986,183.2213 164.9986,182.4853 C164.9986,181.7493 164.7576,181.1403 164.2776,180.6573 C163.7966,180.1733 163.1916,179.9323 162.4616,179.9323 C161.7316,179.9323 161.1256,180.1753 160.6456,180.6613 C160.1666,181.1463 159.9256,181.7553 159.9256,182.4853 C159.9256,183.2153 160.1666,183.8233 160.6456,184.3093 Z M165.5876,177.8263 L167.4746,177.8263 L167.4746,187.1443 L165.4956,187.1443 L165.2756,186.3103 C164.4276,187.0523 163.4216,187.4223 162.2596,187.4223 C161.3376,187.4223 160.5036,187.2093 159.7566,186.7823 C159.0096,186.3553 158.4256,185.7643 158.0046,185.0083 C157.5826,184.2533 157.3736,183.4123 157.3736,182.4853 C157.3736,181.5643 157.5826,180.7283 158.0046,179.9783 C158.4256,179.2283 159.0096,178.6423 159.7566,178.2173 C160.5036,177.7933 161.3376,177.5813 162.2596,177.5813 C163.4446,177.5813 164.4636,177.9603 165.3186,178.7193 L165.5876,177.8263 Z" id="Fill-64" fill="#243647" mask="url(#mask-8)"></path>
                <path d="M180.4923,177.6237 C181.4583,177.6237 182.2463,177.9657 182.8553,178.6517 C183.4653,179.3367 183.7693,180.2247 183.7693,181.3137 L183.7693,187.1617 L181.2513,187.1617 L181.2513,181.7347 C181.2513,181.1117 181.1313,180.6387 180.8923,180.3157 C180.6533,179.9927 180.3063,179.8317 179.8513,179.8317 C179.2903,179.8317 178.8503,180.0317 178.5333,180.4337 C178.2163,180.8347 178.0573,181.3977 178.0573,182.1227 L178.0573,187.1617 L175.6053,187.1617 L175.6053,181.7347 C175.6053,181.1117 175.4893,180.6387 175.2563,180.3157 C175.0223,179.9927 174.6813,179.8317 174.2323,179.8317 C173.6593,179.8317 173.2133,180.0317 172.8923,180.4337 C172.5723,180.8347 172.4123,181.3977 172.4123,182.1227 L172.4123,187.1617 L169.8923,187.1617 L169.8923,177.8427 L171.6453,177.8427 L172.1173,178.9967 C172.4483,178.5757 172.8603,178.2417 173.3513,177.9947 C173.8433,177.7477 174.3583,177.6237 174.8973,177.6237 C175.4873,177.6237 176.0183,177.7537 176.4903,178.0157 C176.9623,178.2767 177.3333,178.6437 177.6023,179.1147 C177.9283,178.6547 178.3453,178.2907 178.8533,178.0237 C179.3623,177.7567 179.9083,177.6237 180.4923,177.6237" id="Fill-65" fill="#243647" mask="url(#mask-8)"></path>
                <path d="M194.0831,176.7307 C193.7291,176.7307 193.4461,176.8277 193.2361,177.0217 C193.0251,177.2147 192.9201,177.4687 192.9201,177.7837 C192.9201,178.1437 193.1641,178.6907 193.6531,179.4267 C194.1811,179.1347 194.5781,178.8647 194.8461,178.6177 C195.1121,178.3707 195.2451,178.0897 195.2451,177.7747 C195.2451,177.4607 195.1391,177.2077 194.9261,177.0167 C194.7121,176.8257 194.4311,176.7307 194.0831,176.7307 Z M193.6951,185.1977 C194.2791,185.1977 194.8151,185.0637 195.3051,184.7937 C194.2821,183.6087 193.5321,182.7207 193.0551,182.1307 C192.3751,182.6597 192.0351,183.2267 192.0351,183.8337 C192.0351,184.2437 192.1871,184.5737 192.4901,184.8237 C192.7941,185.0737 193.1951,185.1977 193.6951,185.1977 Z M200.0991,187.1617 L197.3861,187.1617 C197.3071,187.0767 197.1971,186.9537 197.0571,186.7907 C196.9171,186.6277 196.8121,186.5097 196.7451,186.4367 C195.8081,187.0547 194.7121,187.3637 193.4591,187.3637 C192.3241,187.3637 191.4101,187.0487 190.7171,186.4197 C190.0231,185.7907 189.6761,184.9537 189.6761,183.9087 C189.6761,183.5047 189.7311,183.1267 189.8411,182.7757 C189.9501,182.4247 190.1071,182.1097 190.3121,181.8327 C190.5181,181.5537 190.7391,181.3087 190.9781,181.0947 C191.2171,180.8817 191.4901,180.6737 191.8001,180.4717 C191.3671,179.8427 191.0701,179.3257 190.9101,178.9207 C190.7511,178.5167 190.6711,178.1317 190.6711,177.7667 C190.6711,176.9017 190.9821,176.2067 191.6051,175.6817 C192.2291,175.1567 193.0551,174.8937 194.0831,174.8937 C195.0941,174.8937 195.9111,175.1567 196.5351,175.6817 C197.1581,176.2067 197.4701,176.8987 197.4701,177.7587 C197.4701,178.0727 197.4181,178.3707 197.3141,178.6517 C197.2101,178.9327 197.0821,179.1767 196.9311,179.3847 C196.7791,179.5927 196.5781,179.8027 196.3281,180.0167 C196.0781,180.2307 195.8451,180.4067 195.6291,180.5467 C195.4131,180.6877 195.1471,180.8477 194.8331,181.0277 C195.2991,181.6117 195.9281,182.3647 196.7201,183.2857 C196.9951,182.7407 197.1581,182.1287 197.2091,181.4487 L199.3321,181.4487 C199.2751,182.8247 198.9021,184.0097 198.2111,185.0047 L200.0991,187.1617 Z" id="Fill-66" fill="#243647" mask="url(#mask-8)"></path>
                <polygon id="Fill-67" fill="#243647" mask="url(#mask-8)" points="50.7013 205.4411 55.3353 205.4411 55.3353 207.8681 48.0893 207.8681 48.0893 195.7851 50.7013 195.7851"></polygon>
                <path d="M60.9806,200.4367 C60.4246,200.4367 59.9526,200.5907 59.5646,200.8997 C59.1776,201.2087 58.9106,201.6417 58.7646,202.1977 L63.2806,202.1977 C63.1066,201.6297 62.8216,201.1947 62.4256,200.8917 C62.0296,200.5877 61.5476,200.4367 60.9806,200.4367 M65.7996,203.1747 C65.7996,203.4277 65.7836,203.6747 65.7496,203.9157 L58.6976,203.9157 C58.8036,204.5507 59.0576,205.0387 59.4596,205.3777 C59.8616,205.7177 60.3686,205.8877 60.9806,205.8877 C61.4136,205.8877 61.8016,205.7917 62.1476,205.6017 C62.4936,205.4107 62.7606,205.1457 62.9526,204.8097 L65.5976,204.8097 C65.2606,205.8257 64.6766,206.6337 63.8446,207.2317 C63.0136,207.8297 62.0586,208.1287 60.9806,208.1287 C60.0766,208.1287 59.2546,207.9147 58.5156,207.4847 C57.7776,207.0547 57.1976,206.4637 56.7766,205.7107 C56.3546,204.9577 56.1446,204.1247 56.1446,203.2087 C56.1446,202.2877 56.3536,201.4507 56.7716,200.6977 C57.1906,199.9447 57.7686,199.3547 58.5076,198.9287 C59.2466,198.5017 60.0706,198.2877 60.9806,198.2877 C61.9136,198.2877 62.7506,198.5087 63.4916,198.9497 C64.2326,199.3907 64.8026,199.9817 65.2016,200.7227 C65.6006,201.4647 65.7996,202.2817 65.7996,203.1747" id="Fill-68" fill="#243647" mask="url(#mask-8)"></path>
                <path d="M70.2521,205.0158 C70.7321,205.5018 71.3381,205.7448 72.0681,205.7448 C72.7981,205.7448 73.4031,205.5028 73.8841,205.0198 C74.3641,204.5368 74.6051,203.9278 74.6051,203.1918 C74.6051,202.4558 74.3641,201.8468 73.8841,201.3638 C73.4031,200.8798 72.7981,200.6388 72.0681,200.6388 C71.3381,200.6388 70.7321,200.8818 70.2521,201.3678 C69.7731,201.8528 69.5321,202.4618 69.5321,203.1918 C69.5321,203.9218 69.7731,204.5298 70.2521,205.0158 Z M75.1941,198.5328 L77.0811,198.5328 L77.0811,207.8508 L75.1021,207.8508 L74.8821,207.0168 C74.0341,207.7588 73.0281,208.1288 71.8661,208.1288 C70.9441,208.1288 70.1101,207.9158 69.3631,207.4888 C68.6161,207.0618 68.0321,206.4708 67.6111,205.7148 C67.1891,204.9598 66.9801,204.1188 66.9801,203.1918 C66.9801,202.2708 67.1891,201.4348 67.6111,200.6848 C68.0321,199.9348 68.6161,199.3488 69.3631,198.9238 C70.1101,198.4998 70.9441,198.2878 71.8661,198.2878 C73.0511,198.2878 74.0701,198.6668 74.9251,199.4258 L75.1941,198.5328 Z" id="Fill-69" fill="#243647" mask="url(#mask-8)"></path>
                <path d="M84.2599,198.4987 L85.0859,198.4987 L85.0859,200.8747 L83.9989,200.8747 C83.2909,200.8747 82.7839,201.0417 82.4779,201.3757 C82.1719,201.7097 82.0189,202.2597 82.0189,203.0227 L82.0189,207.8677 L79.4989,207.8677 L79.4989,198.5487 L81.1089,198.5487 L81.5559,199.6947 C82.1959,198.8977 83.0969,198.4987 84.2599,198.4987" id="Fill-70" fill="#243647" mask="url(#mask-8)"></path>
                <path d="M91.8175,198.3303 C92.8745,198.3303 93.7135,198.6833 94.3375,199.3873 C94.9605,200.0923 95.2725,201.0383 95.2725,202.2233 L95.2725,207.8683 L92.7535,207.8683 L92.7535,202.6273 C92.7535,201.2343 92.2115,200.5383 91.1275,200.5383 C90.4805,200.5383 89.9705,200.7553 89.5975,201.1903 C89.2235,201.6263 89.0375,202.2203 89.0375,202.9723 L89.0375,207.8683 L86.5175,207.8683 L86.5175,198.5493 L88.2455,198.5493 L88.7345,199.7033 C89.0935,199.2763 89.5415,198.9413 90.0785,198.6963 C90.6145,198.4523 91.1945,198.3303 91.8175,198.3303" id="Fill-71" fill="#243647" mask="url(#mask-8)"></path>
                <path d="M107.3966,208.1291 C106.5266,208.1291 105.7056,207.9671 104.9326,207.6451 C104.1606,207.3211 103.4996,206.8821 102.9486,206.3261 C102.3976,205.7701 101.9616,205.1031 101.6426,204.3251 C101.3226,203.5471 101.1626,202.7201 101.1626,201.8431 C101.1626,200.9561 101.3226,200.1221 101.6426,199.3411 C101.9616,198.5601 102.3976,197.8921 102.9486,197.3361 C103.4996,196.7801 104.1606,196.3401 104.9326,196.0171 C105.7056,195.6941 106.5266,195.5331 107.3966,195.5331 C108.8636,195.5331 110.1336,195.9771 111.2096,196.8641 C112.2856,197.7521 112.9626,198.9111 113.2446,200.3441 L110.6246,200.3441 C110.3716,199.6251 109.9596,199.0591 109.3896,198.6461 C108.8196,198.2331 108.1556,198.0261 107.3966,198.0261 C106.3746,198.0261 105.5206,198.3901 104.8356,199.1181 C104.1506,199.8451 103.8076,200.7541 103.8076,201.8431 C103.8076,202.9281 104.1506,203.8311 104.8356,204.5521 C105.5206,205.2741 106.3746,205.6351 107.3966,205.6351 C108.1886,205.6351 108.8746,205.4121 109.4536,204.9651 C110.0316,204.5191 110.4296,203.9111 110.6496,203.1411 L113.2866,203.1411 C113.0106,204.6351 112.3336,205.8401 111.2556,206.7551 C110.1776,207.6711 108.8906,208.1291 107.3966,208.1291" id="Fill-72" fill="#243647" mask="url(#mask-8)"></path>
                <polygon id="Fill-73" fill="#243647" mask="url(#mask-8)" points="114.996 207.868 117.516 207.868 117.516 195.187 114.996 195.187"></polygon>
                <path d="M119.925,207.868 L122.445,207.868 L122.445,198.549 L119.925,198.549 L119.925,207.868 Z M119.925,197.31 L122.436,197.31 L122.436,194.968 L119.925,194.968 L119.925,197.31 Z" id="Fill-74" fill="#243647" mask="url(#mask-8)"></path>
                <path d="M129.0753,200.4367 C128.5193,200.4367 128.0473,200.5907 127.6593,200.8997 C127.2723,201.2087 127.0053,201.6417 126.8593,202.1977 L131.3753,202.1977 C131.2013,201.6297 130.9163,201.1947 130.5203,200.8917 C130.1243,200.5877 129.6423,200.4367 129.0753,200.4367 M133.8943,203.1747 C133.8943,203.4277 133.8783,203.6747 133.8443,203.9157 L126.7923,203.9157 C126.8983,204.5507 127.1523,205.0387 127.5543,205.3777 C127.9563,205.7177 128.4633,205.8877 129.0753,205.8877 C129.5083,205.8877 129.8963,205.7917 130.2423,205.6017 C130.5883,205.4107 130.8553,205.1457 131.0473,204.8097 L133.6923,204.8097 C133.3553,205.8257 132.7713,206.6337 131.9393,207.2317 C131.1083,207.8297 130.1533,208.1287 129.0753,208.1287 C128.1713,208.1287 127.3493,207.9147 126.6103,207.4847 C125.8723,207.0547 125.2923,206.4637 124.8713,205.7107 C124.4493,204.9577 124.2393,204.1247 124.2393,203.2087 C124.2393,202.2877 124.4483,201.4507 124.8663,200.6977 C125.2853,199.9447 125.8633,199.3547 126.6023,198.9287 C127.3413,198.5017 128.1653,198.2877 129.0753,198.2877 C130.0083,198.2877 130.8453,198.5087 131.5863,198.9497 C132.3273,199.3907 132.8973,199.9817 133.2963,200.7227 C133.6953,201.4647 133.8943,202.2817 133.8943,203.1747" id="Fill-75" fill="#243647" mask="url(#mask-8)"></path>
                <path d="M140.9894,198.3303 C142.0464,198.3303 142.8854,198.6833 143.5094,199.3873 C144.1324,200.0923 144.4444,201.0383 144.4444,202.2233 L144.4444,207.8683 L141.9254,207.8683 L141.9254,202.6273 C141.9254,201.2343 141.3834,200.5383 140.2994,200.5383 C139.6524,200.5383 139.1424,200.7553 138.7694,201.1903 C138.3954,201.6263 138.2094,202.2203 138.2094,202.9723 L138.2094,207.8683 L135.6894,207.8683 L135.6894,198.5493 L137.4174,198.5493 L137.9064,199.7033 C138.2654,199.2763 138.7134,198.9413 139.2504,198.6963 C139.7864,198.4523 140.3664,198.3303 140.9894,198.3303" id="Fill-76" fill="#243647" mask="url(#mask-8)"></path>
                <path d="M151.2257,205.6267 L152.3717,205.6267 L152.3717,207.8677 L150.5857,207.8677 C149.5637,207.8677 148.7557,207.5717 148.1627,206.9797 C147.5707,206.3867 147.2747,205.5737 147.2747,204.5397 L147.2747,200.5717 L145.5887,200.5717 L145.5887,200.0317 L149.2717,196.1137 L149.7517,196.1137 L149.7517,198.5487 L152.3217,198.5487 L152.3217,200.5717 L149.7937,200.5717 L149.7937,204.2027 C149.7937,204.6577 149.9167,205.0087 150.1637,205.2557 C150.4117,205.5027 150.7657,205.6267 151.2257,205.6267" id="Fill-77" fill="#243647" mask="url(#mask-8)"></path>
                <path d="M153.9982,200.7653 L153.9982,199.5353 C154.4422,199.4733 154.7722,199.3063 154.9882,199.0333 C155.2052,198.7613 155.3122,198.4313 155.3122,198.0433 L153.8722,198.0433 L153.8722,195.3473 L156.5852,195.3473 L156.5852,197.8333 C156.5852,198.6813 156.3512,199.3613 155.8822,199.8713 C155.4122,200.3833 154.7852,200.6813 153.9982,200.7653" id="Fill-78" fill="#243647" mask="url(#mask-8)"></path>
                <path d="M161.5988,208.1291 C160.4298,208.1291 159.4878,207.8241 158.7718,207.2151 C158.0558,206.6061 157.6948,205.8011 157.6888,204.8011 L160.1408,204.8011 C160.1468,205.2001 160.2908,205.5061 160.5748,205.7191 C160.8588,205.9331 161.2338,206.0401 161.6998,206.0401 C162.0708,206.0401 162.3828,205.9581 162.6388,205.7951 C162.8948,205.6321 163.0228,205.4021 163.0228,205.1041 C163.0228,204.9531 162.9788,204.8201 162.8918,204.7081 C162.8048,204.5961 162.6678,204.5021 162.4828,204.4261 C162.2978,204.3501 162.1158,204.2911 161.9358,204.2491 C161.7548,204.2071 161.5198,204.1611 161.2278,204.1101 C160.9628,204.0651 160.7418,204.0251 160.5618,203.9881 C160.3818,203.9511 160.1638,203.8971 159.9098,203.8231 C159.6538,203.7511 159.4388,203.6711 159.2648,203.5841 C159.0898,203.4961 158.9068,203.3801 158.7118,203.2331 C158.5188,203.0871 158.3648,202.9261 158.2488,202.7491 C158.1338,202.5721 158.0378,202.3581 157.9628,202.1051 C157.8868,201.8521 157.8488,201.5741 157.8488,201.2711 C157.8488,200.3891 158.1948,199.6711 158.8848,199.1181 C159.5768,198.5651 160.4808,198.2881 161.5988,198.2881 C162.7218,198.2881 163.6228,198.5731 164.3028,199.1431 C164.9828,199.7131 165.3258,200.4641 165.3308,201.3971 L162.9378,201.3971 C162.9328,201.0321 162.8078,200.7561 162.5628,200.5711 C162.3188,200.3861 161.9748,200.2931 161.5308,200.2931 C161.1438,200.2931 160.8388,200.3751 160.6168,200.5381 C160.3948,200.7001 160.2848,200.9171 160.2848,201.1861 C160.2848,201.2871 160.3018,201.3791 160.3388,201.4601 C160.3748,201.5421 160.4398,201.6121 160.5328,201.6711 C160.6248,201.7301 160.7118,201.7801 160.7938,201.8221 C160.8748,201.8641 160.9978,201.9071 161.1638,201.9491 C161.3298,201.9911 161.4648,202.0221 161.5688,202.0421 C161.6728,202.0611 161.8308,202.0911 162.0448,202.1301 C162.9498,202.2931 163.6008,202.4621 163.9988,202.6351 C165.0048,203.0851 165.5078,203.8711 165.5078,204.9951 C165.5078,205.9441 165.1508,206.7041 164.4378,207.2741 C163.7248,207.8441 162.7778,208.1291 161.5988,208.1291" id="Fill-79" fill="#243647" mask="url(#mask-8)"></path>
                <path d="M176.1749,201.675 C176.6859,201.675 177.1019,201.512 177.4219,201.186 C177.7409,200.861 177.9019,200.445 177.9019,199.939 C177.9019,199.434 177.7429,199.02 177.4259,198.696 C177.1089,198.374 176.6919,198.212 176.1749,198.212 L174.2539,198.212 L174.2539,201.675 L176.1749,201.675 Z M176.2929,195.785 C177.0899,195.785 177.8139,195.964 178.4619,196.321 C179.1119,196.677 179.6219,197.175 179.9949,197.812 C180.3689,198.449 180.5559,199.159 180.5559,199.939 C180.5559,201.13 180.1489,202.12 179.3339,202.909 C178.5199,203.698 177.5059,204.093 176.2929,204.093 L174.2539,204.093 L174.2539,207.868 L171.6419,207.868 L171.6419,195.785 L176.2929,195.785 Z" id="Fill-80" fill="#243647" mask="url(#mask-8)"></path>
                <path d="M186.9591,198.4987 L187.7851,198.4987 L187.7851,200.8747 L186.6981,200.8747 C185.9901,200.8747 185.4831,201.0417 185.1771,201.3757 C184.8711,201.7097 184.7181,202.2597 184.7181,203.0227 L184.7181,207.8677 L182.1981,207.8677 L182.1981,198.5487 L183.8081,198.5487 L184.2551,199.6947 C184.8951,198.8977 185.7961,198.4987 186.9591,198.4987" id="Fill-81" fill="#243647" mask="url(#mask-8)"></path>
                <path d="M191.6447,205.0495 C192.1107,205.5245 192.7067,205.7615 193.4307,205.7615 C194.1557,205.7615 194.7507,205.5245 195.2167,205.0495 C195.6827,204.5745 195.9157,203.9615 195.9157,203.2085 C195.9157,202.4555 195.6827,201.8425 195.2167,201.3675 C194.7507,200.8925 194.1557,200.6555 193.4307,200.6555 C192.7067,200.6555 192.1107,200.8925 191.6447,201.3675 C191.1777,201.8425 190.9457,202.4555 190.9457,203.2085 C190.9457,203.9615 191.1777,204.5745 191.6447,205.0495 M193.4307,208.1295 C192.4817,208.1295 191.6227,207.9155 190.8527,207.4885 C190.0827,207.0615 189.4807,206.4715 189.0447,205.7195 C188.6097,204.9665 188.3927,204.1295 188.3927,203.2085 C188.3927,202.2765 188.6097,201.4345 189.0447,200.6855 C189.4807,199.9355 190.0827,199.3485 190.8527,198.9245 C191.6227,198.5005 192.4817,198.2875 193.4307,198.2875 C194.3737,198.2875 195.2307,198.5005 195.9997,198.9245 C196.7697,199.3485 197.3737,199.9365 197.8117,200.6895 C198.2497,201.4425 198.4687,202.2815 198.4687,203.2085 C198.4687,204.1295 198.2497,204.9665 197.8117,205.7195 C197.3737,206.4715 196.7697,207.0615 195.9997,207.4885 C195.2307,207.9155 194.3737,208.1295 193.4307,208.1295" id="Fill-82" fill="#243647" mask="url(#mask-8)"></path>
                <path d="M200.483,197.31 L202.994,197.31 L202.994,194.968 L200.483,194.968 L200.483,197.31 Z M198.292,211.23 L198.292,208.913 L199.101,208.913 C200.017,208.913 200.474,208.455 200.474,207.539 L200.474,198.549 L202.993,198.549 L202.993,207.733 C202.993,208.756 202.668,209.593 202.016,210.248 C201.364,210.903 200.525,211.23 199.497,211.23 L198.292,211.23 Z" id="Fill-83" fill="#243647" mask="url(#mask-8)"></path>
                <path d="M209.6329,200.4367 C209.0769,200.4367 208.6049,200.5907 208.2169,200.8997 C207.8299,201.2087 207.5629,201.6417 207.4169,202.1977 L211.9329,202.1977 C211.7589,201.6297 211.4739,201.1947 211.0779,200.8917 C210.6819,200.5877 210.1999,200.4367 209.6329,200.4367 M214.4519,203.1747 C214.4519,203.4277 214.4359,203.6747 214.4019,203.9157 L207.3499,203.9157 C207.4559,204.5507 207.7099,205.0387 208.1119,205.3777 C208.5139,205.7177 209.0209,205.8877 209.6329,205.8877 C210.0659,205.8877 210.4539,205.7917 210.7999,205.6017 C211.1459,205.4107 211.4129,205.1457 211.6049,204.8097 L214.2499,204.8097 C213.9129,205.8257 213.3289,206.6337 212.4969,207.2317 C211.6659,207.8297 210.7109,208.1287 209.6329,208.1287 C208.7289,208.1287 207.9069,207.9147 207.1679,207.4847 C206.4299,207.0547 205.8499,206.4637 205.4289,205.7107 C205.0069,204.9577 204.7969,204.1247 204.7969,203.2087 C204.7969,202.2877 205.0059,201.4507 205.4239,200.6977 C205.8429,199.9447 206.4209,199.3547 207.1599,198.9287 C207.8989,198.5017 208.7229,198.2877 209.6329,198.2877 C210.5659,198.2877 211.4029,198.5087 212.1439,198.9497 C212.8849,199.3907 213.4549,199.9817 213.8539,200.7227 C214.2529,201.4647 214.4519,202.2817 214.4519,203.1747" id="Fill-84" fill="#243647" mask="url(#mask-8)"></path>
                <path d="M220.5773,208.1291 C219.8873,208.1291 219.2343,208.0011 218.6223,207.7461 C218.0103,207.4901 217.4853,207.1431 217.0473,206.7051 C216.6083,206.2671 216.2643,205.7421 216.0113,205.1291 C215.7583,204.5171 215.6323,203.8691 215.6323,203.1831 C215.6323,202.4981 215.7583,201.8521 216.0113,201.2451 C216.2643,200.6391 216.6083,200.1191 217.0473,199.6871 C217.4853,199.2541 218.0123,198.9131 218.6273,198.6631 C219.2423,198.4131 219.8973,198.2881 220.5943,198.2881 C221.7963,198.2881 222.8283,198.6371 223.6903,199.3371 C224.5533,200.0361 225.0983,200.9621 225.3293,202.1131 L222.8273,202.1131 C222.6253,201.6521 222.3243,201.2951 221.9263,201.0391 C221.5263,200.7831 221.0773,200.6551 220.5773,200.6551 C219.8973,200.6551 219.3293,200.8991 218.8713,201.3841 C218.4133,201.8701 218.1843,202.4731 218.1843,203.1921 C218.1843,203.9111 218.4153,204.5191 218.8753,205.0161 C219.3363,205.5131 219.9033,205.7611 220.5773,205.7611 C221.0883,205.7611 221.5383,205.6271 221.9263,205.3571 C222.3123,205.0871 222.6133,204.7031 222.8273,204.2031 L225.3633,204.2031 C225.1433,205.3771 224.5953,206.3251 223.7163,207.0461 C222.8373,207.7681 221.7913,208.1291 220.5773,208.1291" id="Fill-85" fill="#243647" mask="url(#mask-8)"></path>
                <path d="M231.5304,205.6267 L232.6764,205.6267 L232.6764,207.8677 L230.8904,207.8677 C229.8684,207.8677 229.0604,207.5717 228.4674,206.9797 C227.8754,206.3867 227.5794,205.5737 227.5794,204.5397 L227.5794,200.5717 L225.8934,200.5717 L225.8934,200.0317 L229.5764,196.1137 L230.0564,196.1137 L230.0564,198.5487 L232.6264,198.5487 L232.6264,200.5717 L230.0984,200.5717 L230.0984,204.2027 C230.0984,204.6577 230.2214,205.0087 230.4684,205.2557 C230.7164,205.5027 231.0704,205.6267 231.5304,205.6267" id="Fill-86" fill="#243647" mask="url(#mask-8)"></path>
                <path d="M415.5197,194.7683 C416.0307,194.7683 416.4467,194.6053 416.7667,194.2793 C417.0857,193.9543 417.2467,193.5383 417.2467,193.0323 C417.2467,192.5273 417.0877,192.1133 416.7707,191.7893 C416.4537,191.4673 416.0367,191.3053 415.5197,191.3053 L413.5987,191.3053 L413.5987,194.7683 L415.5197,194.7683 Z M415.6377,188.8783 C416.4347,188.8783 417.1587,189.0573 417.8067,189.4143 C418.4567,189.7703 418.9667,190.2683 419.3397,190.9053 C419.7137,191.5423 419.9007,192.2523 419.9007,193.0323 C419.9007,194.2233 419.4937,195.2133 418.6787,196.0023 C417.8647,196.7913 416.8507,197.1863 415.6377,197.1863 L413.5987,197.1863 L413.5987,200.9613 L410.9867,200.9613 L410.9867,188.8783 L415.6377,188.8783 Z" id="Fill-87" fill="#243647" mask="url(#mask-8)"></path>
                <path d="M426.3038,191.592 L427.1298,191.592 L427.1298,193.968 L426.0428,193.968 C425.3348,193.968 424.8278,194.135 424.5218,194.469 C424.2158,194.803 424.0628,195.353 424.0628,196.116 L424.0628,200.961 L421.5428,200.961 L421.5428,191.642 L423.1528,191.642 L423.5998,192.788 C424.2398,191.991 425.1408,191.592 426.3038,191.592" id="Fill-88" fill="#243647" mask="url(#mask-8)"></path>
                <path d="M432.5724,193.53 C432.0164,193.53 431.5444,193.684 431.1564,193.993 C430.7694,194.302 430.5024,194.735 430.3564,195.291 L434.8724,195.291 C434.6984,194.723 434.4134,194.288 434.0174,193.985 C433.6214,193.681 433.1394,193.53 432.5724,193.53 M437.3914,196.268 C437.3914,196.521 437.3754,196.768 437.3414,197.009 L430.2894,197.009 C430.3954,197.644 430.6494,198.132 431.0514,198.471 C431.4534,198.811 431.9604,198.981 432.5724,198.981 C433.0054,198.981 433.3934,198.885 433.7394,198.695 C434.0854,198.504 434.3524,198.239 434.5444,197.903 L437.1894,197.903 C436.8524,198.919 436.2684,199.727 435.4364,200.325 C434.6054,200.923 433.6504,201.222 432.5724,201.222 C431.6684,201.222 430.8464,201.008 430.1074,200.578 C429.3694,200.148 428.7894,199.557 428.3684,198.804 C427.9464,198.051 427.7364,197.218 427.7364,196.302 C427.7364,195.381 427.9454,194.544 428.3634,193.791 C428.7824,193.038 429.3604,192.448 430.0994,192.022 C430.8384,191.595 431.6624,191.381 432.5724,191.381 C433.5054,191.381 434.3424,191.602 435.0834,192.043 C435.8244,192.484 436.3944,193.075 436.7934,193.816 C437.1924,194.558 437.3914,195.375 437.3914,196.268" id="Fill-89" fill="#243647" mask="url(#mask-8)"></path>
                <path d="M442.2413,198.1257 C442.7213,198.6117 443.3263,198.8547 444.0563,198.8547 C444.7873,198.8547 445.3923,198.6137 445.8733,198.1297 C446.3523,197.6467 446.5933,197.0377 446.5933,196.3017 C446.5933,195.5657 446.3523,194.9567 445.8733,194.4737 C445.3923,193.9907 444.7873,193.7487 444.0563,193.7487 C443.3263,193.7487 442.7213,193.9917 442.2413,194.4777 C441.7613,194.9637 441.5203,195.5717 441.5203,196.3017 C441.5203,197.0317 441.7613,197.6407 442.2413,198.1257 M444.2673,191.3807 C445.1883,191.3807 446.0213,191.5937 446.7653,192.0177 C447.5103,192.4417 448.0933,193.0297 448.5133,193.7827 C448.9353,194.5357 449.1453,195.3757 449.1453,196.3017 C449.1453,197.2287 448.9353,198.0697 448.5133,198.8257 C448.0933,199.5807 447.5103,200.1717 446.7653,200.5987 C446.0213,201.0257 445.1883,201.2387 444.2673,201.2387 C443.3243,201.2387 442.4703,200.9787 441.7063,200.4557 L441.7063,204.3227 L439.1863,204.3227 L439.1863,191.6427 L440.8463,191.6427 L441.2763,192.4937 C442.1133,191.7517 443.1103,191.3807 444.2673,191.3807" id="Fill-90" fill="#243647" mask="url(#mask-8)"></path>
                <path d="M453.6066,198.1091 C454.0866,198.5951 454.6926,198.8381 455.4226,198.8381 C456.1526,198.8381 456.7576,198.5961 457.2386,198.1131 C457.7186,197.6301 457.9596,197.0211 457.9596,196.2851 C457.9596,195.5491 457.7186,194.9401 457.2386,194.4571 C456.7576,193.9731 456.1526,193.7321 455.4226,193.7321 C454.6926,193.7321 454.0866,193.9751 453.6066,194.4611 C453.1276,194.9461 452.8866,195.5551 452.8866,196.2851 C452.8866,197.0151 453.1276,197.6231 453.6066,198.1091 Z M458.5486,191.6261 L460.4356,191.6261 L460.4356,200.9441 L458.4566,200.9441 L458.2366,200.1101 C457.3886,200.8521 456.3826,201.2221 455.2206,201.2221 C454.2986,201.2221 453.4646,201.0091 452.7176,200.5821 C451.9706,200.1551 451.3866,199.5641 450.9656,198.8081 C450.5436,198.0531 450.3346,197.2121 450.3346,196.2851 C450.3346,195.3641 450.5436,194.5281 450.9656,193.7781 C451.3866,193.0281 451.9706,192.4421 452.7176,192.0171 C453.4646,191.5931 454.2986,191.3811 455.2206,191.3811 C456.4056,191.3811 457.4246,191.7601 458.2796,192.5191 L458.5486,191.6261 Z" id="Fill-91" fill="#243647" mask="url(#mask-8)"></path>
                <path d="M467.6144,191.592 L468.4404,191.592 L468.4404,193.968 L467.3534,193.968 C466.6454,193.968 466.1384,194.135 465.8324,194.469 C465.5264,194.803 465.3734,195.353 465.3734,196.116 L465.3734,200.961 L462.8534,200.961 L462.8534,191.642 L464.4634,191.642 L464.9104,192.788 C465.5504,191.991 466.4514,191.592 467.6144,191.592" id="Fill-92" fill="#243647" mask="url(#mask-8)"></path>
                <path d="M473.8839,193.53 C473.3279,193.53 472.8559,193.684 472.4679,193.993 C472.0809,194.302 471.8139,194.735 471.6679,195.291 L476.1839,195.291 C476.0099,194.723 475.7249,194.288 475.3289,193.985 C474.9329,193.681 474.4509,193.53 473.8839,193.53 M478.7029,196.268 C478.7029,196.521 478.6869,196.768 478.6529,197.009 L471.6009,197.009 C471.7069,197.644 471.9609,198.132 472.3629,198.471 C472.7649,198.811 473.2719,198.981 473.8839,198.981 C474.3169,198.981 474.7049,198.885 475.0509,198.695 C475.3969,198.504 475.6639,198.239 475.8559,197.903 L478.5009,197.903 C478.1639,198.919 477.5799,199.727 476.7479,200.325 C475.9169,200.923 474.9619,201.222 473.8839,201.222 C472.9799,201.222 472.1579,201.008 471.4189,200.578 C470.6809,200.148 470.1009,199.557 469.6799,198.804 C469.2579,198.051 469.0479,197.218 469.0479,196.302 C469.0479,195.381 469.2569,194.544 469.6749,193.791 C470.0939,193.038 470.6719,192.448 471.4109,192.022 C472.1499,191.595 472.9739,191.381 473.8839,191.381 C474.8169,191.381 475.6539,191.602 476.3949,192.043 C477.1359,192.484 477.7059,193.075 478.1049,193.816 C478.5039,194.558 478.7029,195.375 478.7029,196.268" id="Fill-93" fill="#243647" mask="url(#mask-8)"></path>
                <path d="M488.8722,198.7199 L490.0182,198.7199 L490.0182,200.9609 L488.2322,200.9609 C487.2102,200.9609 486.4022,200.6649 485.8092,200.0729 C485.2172,199.4799 484.9212,198.6669 484.9212,197.6329 L484.9212,193.6649 L483.2352,193.6649 L483.2352,193.1249 L486.9182,189.2069 L487.3982,189.2069 L487.3982,191.6419 L489.9682,191.6419 L489.9682,193.6649 L487.4402,193.6649 L487.4402,197.2959 C487.4402,197.7509 487.5632,198.1019 487.8102,198.3489 C488.0582,198.5959 488.4122,198.7199 488.8722,198.7199" id="Fill-94" fill="#243647" mask="url(#mask-8)"></path>
                <path d="M497.0704,191.4236 C498.1204,191.4236 498.9534,191.7716 499.5684,192.4676 C500.1834,193.1646 500.4914,194.1086 500.4914,195.2986 L500.4914,200.9616 L497.9714,200.9616 L497.9714,195.7206 C497.9714,195.0126 497.8414,194.4876 497.5804,194.1446 C497.3184,193.8026 496.9074,193.6316 496.3454,193.6316 C495.7114,193.6316 495.2044,193.8486 494.8244,194.2836 C494.4454,194.7196 494.2564,195.3136 494.2564,196.0656 L494.2564,200.9616 L491.7364,200.9616 L491.7364,188.2806 L494.2564,188.2806 L494.2564,192.5106 C495.0144,191.7856 495.9524,191.4236 497.0704,191.4236" id="Fill-95" fill="#243647" mask="url(#mask-8)"></path>
                <path d="M507.0128,193.53 C506.4568,193.53 505.9848,193.684 505.5968,193.993 C505.2098,194.302 504.9428,194.735 504.7968,195.291 L509.3128,195.291 C509.1388,194.723 508.8538,194.288 508.4578,193.985 C508.0618,193.681 507.5798,193.53 507.0128,193.53 M511.8318,196.268 C511.8318,196.521 511.8158,196.768 511.7818,197.009 L504.7298,197.009 C504.8358,197.644 505.0898,198.132 505.4918,198.471 C505.8938,198.811 506.4008,198.981 507.0128,198.981 C507.4458,198.981 507.8338,198.885 508.1798,198.695 C508.5258,198.504 508.7928,198.239 508.9848,197.903 L511.6298,197.903 C511.2928,198.919 510.7088,199.727 509.8768,200.325 C509.0458,200.923 508.0908,201.222 507.0128,201.222 C506.1088,201.222 505.2868,201.008 504.5478,200.578 C503.8098,200.148 503.2298,199.557 502.8088,198.804 C502.3868,198.051 502.1768,197.218 502.1768,196.302 C502.1768,195.381 502.3858,194.544 502.8038,193.791 C503.2228,193.038 503.8008,192.448 504.5398,192.022 C505.2788,191.595 506.1028,191.381 507.0128,191.381 C507.9458,191.381 508.7828,191.602 509.5238,192.043 C510.2648,192.484 510.8348,193.075 511.2338,193.816 C511.6328,194.558 511.8318,195.375 511.8318,196.268" id="Fill-96" fill="#243647" mask="url(#mask-8)"></path>
                <polygon id="Fill-97" fill="#243647" mask="url(#mask-8)" points="525.7257 188.8786 525.7257 191.3056 522.3647 191.3056 522.3647 200.9616 519.7517 200.9616 519.7517 191.3056 516.3987 191.3056 516.3987 188.8786"></polygon>
                <path d="M530.2511,193.53 C529.6951,193.53 529.2231,193.684 528.8351,193.993 C528.4481,194.302 528.1811,194.735 528.0351,195.291 L532.5511,195.291 C532.3771,194.723 532.0921,194.288 531.6961,193.985 C531.3001,193.681 530.8181,193.53 530.2511,193.53 M535.0701,196.268 C535.0701,196.521 535.0541,196.768 535.0201,197.009 L527.9681,197.009 C528.0741,197.644 528.3281,198.132 528.7301,198.471 C529.1321,198.811 529.6391,198.981 530.2511,198.981 C530.6841,198.981 531.0721,198.885 531.4181,198.695 C531.7641,198.504 532.0311,198.239 532.2231,197.903 L534.8681,197.903 C534.5311,198.919 533.9471,199.727 533.1151,200.325 C532.2841,200.923 531.3291,201.222 530.2511,201.222 C529.3471,201.222 528.5251,201.008 527.7861,200.578 C527.0481,200.148 526.4681,199.557 526.0471,198.804 C525.6251,198.051 525.4151,197.218 525.4151,196.302 C525.4151,195.381 525.6241,194.544 526.0421,193.791 C526.4611,193.038 527.0391,192.448 527.7781,192.022 C528.5171,191.595 529.3411,191.381 530.2511,191.381 C531.1841,191.381 532.0211,191.602 532.7621,192.043 C533.5031,192.484 534.0731,193.075 534.4721,193.816 C534.8711,194.558 535.0701,195.375 535.0701,196.268" id="Fill-98" fill="#243647" mask="url(#mask-8)"></path>
                <path d="M539.5226,198.1091 C540.0026,198.5951 540.6086,198.8381 541.3386,198.8381 C542.0686,198.8381 542.6736,198.5961 543.1546,198.1131 C543.6346,197.6301 543.8756,197.0211 543.8756,196.2851 C543.8756,195.5491 543.6346,194.9401 543.1546,194.4571 C542.6736,193.9731 542.0686,193.7321 541.3386,193.7321 C540.6086,193.7321 540.0026,193.9751 539.5226,194.4611 C539.0436,194.9461 538.8026,195.5551 538.8026,196.2851 C538.8026,197.0151 539.0436,197.6231 539.5226,198.1091 Z M544.4646,191.6261 L546.3516,191.6261 L546.3516,200.9441 L544.3726,200.9441 L544.1526,200.1101 C543.3046,200.8521 542.2986,201.2221 541.1366,201.2221 C540.2146,201.2221 539.3806,201.0091 538.6336,200.5821 C537.8866,200.1551 537.3026,199.5641 536.8816,198.8081 C536.4596,198.0531 536.2506,197.2121 536.2506,196.2851 C536.2506,195.3641 536.4596,194.5281 536.8816,193.7781 C537.3026,193.0281 537.8866,192.4421 538.6336,192.0171 C539.3806,191.5931 540.2146,191.3811 541.1366,191.3811 C542.3216,191.3811 543.3406,191.7601 544.1956,192.5191 L544.4646,191.6261 Z" id="Fill-99" fill="#243647" mask="url(#mask-8)"></path>
                <path d="M559.3693,191.4236 C560.3353,191.4236 561.1233,191.7656 561.7323,192.4516 C562.3423,193.1366 562.6463,194.0246 562.6463,195.1136 L562.6463,200.9616 L560.1283,200.9616 L560.1283,195.5346 C560.1283,194.9116 560.0083,194.4386 559.7693,194.1156 C559.5303,193.7926 559.1833,193.6316 558.7283,193.6316 C558.1673,193.6316 557.7273,193.8316 557.4103,194.2336 C557.0933,194.6346 556.9343,195.1976 556.9343,195.9226 L556.9343,200.9616 L554.4823,200.9616 L554.4823,195.5346 C554.4823,194.9116 554.3663,194.4386 554.1333,194.1156 C553.8993,193.7926 553.5583,193.6316 553.1093,193.6316 C552.5363,193.6316 552.0903,193.8316 551.7693,194.2336 C551.4493,194.6346 551.2893,195.1976 551.2893,195.9226 L551.2893,200.9616 L548.7693,200.9616 L548.7693,191.6426 L550.5223,191.6426 L550.9943,192.7966 C551.3253,192.3756 551.7373,192.0416 552.2283,191.7946 C552.7203,191.5476 553.2353,191.4236 553.7743,191.4236 C554.3643,191.4236 554.8953,191.5536 555.3673,191.8156 C555.8393,192.0766 556.2103,192.4436 556.4793,192.9146 C556.8053,192.4546 557.2223,192.0906 557.7303,191.8236 C558.2393,191.5566 558.7853,191.4236 559.3693,191.4236" id="Fill-100" fill="#243647" mask="url(#mask-8)"></path>
                <polygon id="Fill-101" fill="#748494" mask="url(#mask-8)" points="456.5616 225.5271 456.5616 226.6461 455.4876 226.6461 455.4876 228.8101 454.2486 228.8101 454.2486 226.6461 449.0116 226.6461 449.0116 226.3531 452.6106 218.5711 453.9326 218.5711 450.7246 225.5271 454.2626 225.5271 454.4726 222.3641 455.4876 222.3641 455.4876 225.5271"></polygon>
                <polygon id="Fill-102" fill="#748494" mask="url(#mask-8)" points="458.042 225.144 462.925 225.144 462.925 223.882 458.042 223.882"></polygon>
                <path d="M468.3927,219.4797 C467.7967,219.4797 467.3137,219.6337 466.9427,219.9417 C466.5727,220.2497 466.3867,220.6467 466.3867,221.1327 C466.3867,221.6327 466.5727,222.0387 466.9427,222.3497 C467.3137,222.6597 467.7967,222.8147 468.3927,222.8147 C468.9787,222.8147 469.4567,222.6597 469.8277,222.3497 C470.1987,222.0387 470.3837,221.6327 470.3837,221.1327 C470.3837,220.6467 470.1987,220.2497 469.8277,219.9417 C469.4567,219.6337 468.9787,219.4797 468.3927,219.4797 M468.3927,227.8637 C469.0937,227.8637 469.6627,227.6807 470.0977,227.3147 C470.5337,226.9497 470.7517,226.4767 470.7517,225.8957 C470.7517,225.2987 470.5337,224.8167 470.0977,224.4487 C469.6627,224.0807 469.0937,223.8967 468.3927,223.8967 C467.7017,223.8967 467.1377,224.0807 466.7027,224.4487 C466.2667,224.8167 466.0487,225.2987 466.0487,225.8957 C466.0487,226.4767 466.2657,226.9497 466.6987,227.3147 C467.1317,227.6807 467.6967,227.8637 468.3927,227.8637 M470.5937,223.3257 C471.0347,223.5657 471.3837,223.9117 471.6417,224.3627 C471.8997,224.8127 472.0287,225.3097 472.0287,225.8497 C472.0287,226.7667 471.6897,227.5187 471.0107,228.1077 C470.3317,228.6957 469.4587,228.9897 468.3927,228.9897 C467.3057,228.9897 466.4307,228.7027 465.7677,228.1257 C465.1037,227.5507 464.7717,226.7917 464.7717,225.8497 C464.7717,225.3237 464.9027,224.8347 465.1627,224.3817 C465.4227,223.9287 465.7767,223.5767 466.2217,223.3257 C465.8917,223.0907 465.6277,222.7767 465.4327,222.3827 C465.2377,221.9897 465.1397,221.5727 465.1397,221.1327 C465.1397,220.3267 465.4407,219.6687 466.0407,219.1607 C466.6427,218.6517 467.4257,218.3977 468.3927,218.3977 C469.3597,218.3977 470.1417,218.6497 470.7407,219.1527 C471.3387,219.6567 471.6377,220.3157 471.6377,221.1327 C471.6377,221.5837 471.5427,222.0067 471.3527,222.4017 C471.1627,222.7977 470.9097,223.1057 470.5937,223.3257" id="Fill-103" fill="#748494" mask="url(#mask-8)"></path>
                <polygon id="Fill-104" fill="#748494" mask="url(#mask-8)" points="488.045 220.5012 489.367 220.5012 486.535 228.8102 485.469 228.8102 483.125 223.1462 480.774 228.8102 479.714 228.8102 476.904 220.5012 478.272 220.5012 480.338 226.6242 482.885 220.6292 483.358 220.6292 485.919 226.6762"></polygon>
                <path d="M494.4298,221.5608 C493.6788,221.5608 493.0428,221.7768 492.5228,222.2098 C492.0008,222.6438 491.6728,223.2238 491.5378,223.9498 L497.3078,223.9498 C497.1668,223.2128 496.8378,222.6308 496.3198,222.2028 C495.8008,221.7748 495.1708,221.5608 494.4298,221.5608 M498.6148,224.6928 C498.6148,224.8438 498.6068,224.9988 498.5918,225.1588 L491.5078,225.1588 C491.6088,225.9308 491.9248,226.5488 492.4578,227.0148 C492.9918,227.4798 493.6488,227.7128 494.4298,227.7128 C495.0008,227.7128 495.5088,227.5868 495.9548,227.3338 C496.4008,227.0808 496.7538,226.7288 497.0148,226.2778 L498.3968,226.2778 C498.0408,227.1348 497.5168,227.8008 496.8228,228.2768 C496.1288,228.7518 495.3318,228.9898 494.4298,228.9898 C493.6388,228.9898 492.9188,228.8028 492.2708,228.4268 C491.6218,228.0508 491.1138,227.5328 490.7448,226.8718 C490.3768,226.2108 490.1938,225.4718 490.1938,224.6558 C490.1938,223.8448 490.3768,223.1068 490.7448,222.4428 C491.1138,221.7798 491.6218,221.2598 492.2708,220.8848 C492.9188,220.5088 493.6388,220.3208 494.4298,220.3208 C495.2508,220.3208 495.9828,220.5168 496.6238,220.9068 C497.2648,221.2978 497.7568,221.8248 498.0998,222.4888 C498.4428,223.1518 498.6148,223.8868 498.6148,224.6928" id="Fill-105" fill="#748494" mask="url(#mask-8)"></path>
                <path d="M504.1505,221.5608 C503.3995,221.5608 502.7635,221.7768 502.2435,222.2098 C501.7215,222.6438 501.3935,223.2238 501.2585,223.9498 L507.0285,223.9498 C506.8875,223.2128 506.5585,222.6308 506.0405,222.2028 C505.5215,221.7748 504.8915,221.5608 504.1505,221.5608 M508.3355,224.6928 C508.3355,224.8438 508.3275,224.9988 508.3125,225.1588 L501.2285,225.1588 C501.3295,225.9308 501.6455,226.5488 502.1785,227.0148 C502.7125,227.4798 503.3695,227.7128 504.1505,227.7128 C504.7215,227.7128 505.2295,227.5868 505.6755,227.3338 C506.1215,227.0808 506.4745,226.7288 506.7355,226.2778 L508.1175,226.2778 C507.7615,227.1348 507.2375,227.8008 506.5435,228.2768 C505.8495,228.7518 505.0525,228.9898 504.1505,228.9898 C503.3595,228.9898 502.6395,228.8028 501.9915,228.4268 C501.3425,228.0508 500.8345,227.5328 500.4655,226.8718 C500.0975,226.2108 499.9145,225.4718 499.9145,224.6558 C499.9145,223.8448 500.0975,223.1068 500.4655,222.4428 C500.8345,221.7798 501.3425,221.2598 501.9915,220.8848 C502.6395,220.5088 503.3595,220.3208 504.1505,220.3208 C504.9715,220.3208 505.7035,220.5168 506.3445,220.9068 C506.9855,221.2978 507.4775,221.8248 507.8205,222.4888 C508.1635,223.1518 508.3355,223.8868 508.3355,224.6928" id="Fill-106" fill="#748494" mask="url(#mask-8)"></path>
                <polygon id="Fill-107" fill="#748494" mask="url(#mask-8)" points="515.7726 228.8098 512.9246 225.0838 511.7386 225.0838 511.7386 228.8098 510.4306 228.8098 510.4306 217.5338 511.7386 217.5338 511.7386 223.8738 512.9476 223.8738 515.5086 220.5008 517.1016 220.5008 514.0746 224.4828 517.4106 228.8098"></polygon>
                <path d="M521.3312,228.99 C520.3492,228.99 519.5602,228.745 518.9642,228.254 C518.3682,227.763 518.0532,227.1 518.0182,226.263 L519.2952,226.263 C519.3302,226.744 519.5362,227.117 519.9142,227.383 C520.2932,227.648 520.7792,227.781 521.3762,227.781 C521.9512,227.781 522.4212,227.665 522.7842,227.435 C523.1472,227.205 523.3292,226.889 523.3292,226.489 C523.3292,226.333 523.3042,226.193 523.2542,226.068 C523.2032,225.943 523.1232,225.836 523.0142,225.749 C522.9032,225.661 522.7932,225.586 522.6832,225.523 C522.5722,225.461 522.4212,225.405 522.2282,225.354 C522.0352,225.304 521.8702,225.265 521.7322,225.238 C521.5952,225.21 521.4082,225.177 521.1732,225.136 C520.9872,225.106 520.8442,225.081 520.7412,225.061 C520.6382,225.041 520.4982,225.011 520.3202,224.971 C520.1432,224.931 520.0012,224.893 519.8952,224.859 C519.7912,224.823 519.6602,224.779 519.5052,224.723 C519.3502,224.668 519.2262,224.608 519.1332,224.543 C519.0412,224.478 518.9362,224.402 518.8212,224.314 C518.7062,224.226 518.6152,224.13 518.5472,224.025 C518.4792,223.92 518.4132,223.803 518.3492,223.676 C518.2832,223.548 518.2362,223.404 518.2092,223.243 C518.1822,223.083 518.1682,222.91 518.1682,222.725 C518.1682,222.009 518.4562,221.429 519.0322,220.986 C519.6072,220.543 520.3642,220.321 521.3012,220.321 C522.2372,220.321 522.9872,220.553 523.5512,221.016 C524.1142,221.479 524.4082,222.104 524.4332,222.89 L523.1932,222.89 C523.1682,222.44 522.9882,222.093 522.6522,221.85 C522.3172,221.607 521.8562,221.486 521.2702,221.486 C520.7102,221.486 520.2642,221.594 519.9342,221.812 C519.6022,222.03 519.4372,222.32 519.4372,222.68 C519.4372,222.82 519.4602,222.947 519.5052,223.059 C519.5502,223.172 519.6252,223.268 519.7302,223.348 C519.8362,223.428 519.9402,223.496 520.0462,223.552 C520.1512,223.607 520.2962,223.657 520.4812,223.701 C520.6672,223.747 520.8242,223.782 520.9552,223.807 C521.0852,223.832 521.2682,223.862 521.5032,223.897 C522.3242,224.032 522.9132,224.175 523.2682,224.325 C524.0902,224.671 524.5362,225.277 524.6052,226.143 C524.6162,226.238 524.6212,226.333 524.6212,226.428 C524.6212,227.205 524.3202,227.826 523.7202,228.291 C523.1182,228.757 522.3222,228.99 521.3312,228.99" id="Fill-108" fill="#748494" mask="url(#mask-8)"></path>
                <polygon id="Fill-109" fill="#243647" mask="url(#mask-8)" points="785.757 186.2883 781.157 186.2883 781.157 188.9423 785.311 188.9423 785.311 191.3103 781.157 191.3103 781.157 195.9353 778.545 195.9353 778.545 183.8533 785.757 183.8533"></polygon>
                <path d="M787.534,195.936 L790.054,195.936 L790.054,186.617 L787.534,186.617 L787.534,195.936 Z M787.534,185.378 L790.045,185.378 L790.045,183.036 L787.534,183.036 L787.534,185.378 Z" id="Fill-110" fill="#243647" mask="url(#mask-8)"></path>
                <path d="M797.2247,186.5666 L798.0507,186.5666 L798.0507,188.9426 L796.9637,188.9426 C796.2557,188.9426 795.7487,189.1096 795.4427,189.4436 C795.1367,189.7776 794.9837,190.3276 794.9837,191.0906 L794.9837,195.9356 L792.4637,195.9356 L792.4637,186.6166 L794.0737,186.6166 L794.5207,187.7626 C795.1607,186.9656 796.0617,186.5666 797.2247,186.5666" id="Fill-111" fill="#243647" mask="url(#mask-8)"></path>
                <path d="M802.7189,196.197 C801.5499,196.197 800.6079,195.892 799.8919,195.283 C799.1759,194.674 798.8149,193.869 798.8089,192.869 L801.2609,192.869 C801.2669,193.268 801.4109,193.574 801.6949,193.787 C801.9789,194.001 802.3539,194.108 802.8199,194.108 C803.1909,194.108 803.5029,194.026 803.7589,193.863 C804.0149,193.7 804.1429,193.47 804.1429,193.172 C804.1429,193.021 804.0989,192.888 804.0119,192.776 C803.9249,192.664 803.7879,192.57 803.6029,192.494 C803.4179,192.418 803.2359,192.359 803.0559,192.317 C802.8749,192.275 802.6399,192.229 802.3479,192.178 C802.0829,192.133 801.8619,192.093 801.6819,192.056 C801.5019,192.019 801.2839,191.965 801.0299,191.891 C800.7739,191.819 800.5589,191.739 800.3849,191.652 C800.2099,191.564 800.0269,191.448 799.8319,191.301 C799.6389,191.155 799.4849,190.994 799.3689,190.817 C799.2539,190.64 799.1579,190.426 799.0829,190.173 C799.0069,189.92 798.9689,189.642 798.9689,189.339 C798.9689,188.457 799.3149,187.739 800.0049,187.186 C800.6969,186.633 801.6009,186.356 802.7189,186.356 C803.8419,186.356 804.7429,186.641 805.4229,187.211 C806.1029,187.781 806.4459,188.532 806.4509,189.465 L804.0579,189.465 C804.0529,189.1 803.9279,188.824 803.6829,188.639 C803.4389,188.454 803.0949,188.361 802.6509,188.361 C802.2639,188.361 801.9589,188.443 801.7369,188.606 C801.5149,188.768 801.4049,188.985 801.4049,189.254 C801.4049,189.355 801.4219,189.447 801.4589,189.528 C801.4949,189.61 801.5599,189.68 801.6529,189.739 C801.7449,189.798 801.8319,189.848 801.9139,189.89 C801.9949,189.932 802.1179,189.975 802.2839,190.017 C802.4499,190.059 802.5849,190.09 802.6889,190.11 C802.7929,190.129 802.9509,190.159 803.1649,190.198 C804.0699,190.361 804.7209,190.53 805.1189,190.703 C806.1249,191.153 806.6279,191.939 806.6279,193.063 C806.6279,194.012 806.2709,194.772 805.5579,195.342 C804.8449,195.912 803.8979,196.197 802.7189,196.197" id="Fill-112" fill="#243647" mask="url(#mask-8)"></path>
                <path d="M812.9376,193.6945 L814.0836,193.6945 L814.0836,195.9355 L812.2976,195.9355 C811.2756,195.9355 810.4676,195.6395 809.8746,195.0475 C809.2826,194.4545 808.9866,193.6415 808.9866,192.6075 L808.9866,188.6395 L807.3006,188.6395 L807.3006,188.0995 L810.9836,184.1815 L811.4636,184.1815 L811.4636,186.6165 L814.0336,186.6165 L814.0336,188.6395 L811.5056,188.6395 L811.5056,192.2705 C811.5056,192.7255 811.6286,193.0765 811.8756,193.3235 C812.1236,193.5705 812.4776,193.6945 812.9376,193.6945" id="Fill-113" fill="#243647" mask="url(#mask-8)"></path>
                <path d="M819.923,195.936 L822.443,195.936 L822.443,186.617 L819.923,186.617 L819.923,195.936 Z M819.923,185.378 L822.434,185.378 L822.434,183.036 L819.923,183.036 L819.923,185.378 Z" id="Fill-114" fill="#243647" mask="url(#mask-8)"></path>
                <path d="M829.4015,193.6945 L830.5475,193.6945 L830.5475,195.9355 L828.7615,195.9355 C827.7395,195.9355 826.9315,195.6395 826.3385,195.0475 C825.7465,194.4545 825.4505,193.6415 825.4505,192.6075 L825.4505,188.6395 L823.7645,188.6395 L823.7645,188.0995 L827.4475,184.1815 L827.9275,184.1815 L827.9275,186.6165 L830.4975,186.6165 L830.4975,188.6395 L827.9695,188.6395 L827.9695,192.2705 C827.9695,192.7255 828.0925,193.0765 828.3395,193.3235 C828.5875,193.5705 828.9415,193.6945 829.4015,193.6945" id="Fill-115" fill="#243647" mask="url(#mask-8)"></path>
                <path d="M836.4034,188.5046 C835.8474,188.5046 835.3754,188.6586 834.9874,188.9676 C834.6004,189.2766 834.3334,189.7096 834.1874,190.2656 L838.7034,190.2656 C838.5294,189.6976 838.2444,189.2626 837.8484,188.9596 C837.4524,188.6556 836.9704,188.5046 836.4034,188.5046 M841.2224,191.2426 C841.2224,191.4956 841.2064,191.7426 841.1724,191.9836 L834.1204,191.9836 C834.2264,192.6186 834.4804,193.1066 834.8824,193.4456 C835.2844,193.7856 835.7914,193.9556 836.4034,193.9556 C836.8364,193.9556 837.2244,193.8596 837.5704,193.6696 C837.9164,193.4786 838.1834,193.2136 838.3754,192.8776 L841.0204,192.8776 C840.6834,193.8936 840.0994,194.7016 839.2674,195.2996 C838.4364,195.8976 837.4814,196.1966 836.4034,196.1966 C835.4994,196.1966 834.6774,195.9826 833.9384,195.5526 C833.2004,195.1226 832.6204,194.5316 832.1994,193.7786 C831.7774,193.0256 831.5674,192.1926 831.5674,191.2766 C831.5674,190.3556 831.7764,189.5186 832.1944,188.7656 C832.6134,188.0126 833.1914,187.4226 833.9304,186.9966 C834.6694,186.5696 835.4934,186.3556 836.4034,186.3556 C837.3364,186.3556 838.1734,186.5766 838.9144,187.0176 C839.6554,187.4586 840.2254,188.0496 840.6244,188.7906 C841.0234,189.5326 841.2224,190.3496 841.2224,191.2426" id="Fill-116" fill="#243647" mask="url(#mask-8)"></path>
                <path d="M847.7784,186.5666 L848.6044,186.5666 L848.6044,188.9426 L847.5174,188.9426 C846.8094,188.9426 846.3024,189.1096 845.9964,189.4436 C845.6904,189.7776 845.5374,190.3276 845.5374,191.0906 L845.5374,195.9356 L843.0174,195.9356 L843.0174,186.6166 L844.6274,186.6166 L845.0744,187.7626 C845.7144,186.9656 846.6154,186.5666 847.7784,186.5666" id="Fill-117" fill="#243647" mask="url(#mask-8)"></path>
                <path d="M852.4835,193.0837 C852.9635,193.5697 853.5695,193.8127 854.2995,193.8127 C855.0295,193.8127 855.6345,193.5707 856.1155,193.0877 C856.5955,192.6047 856.8365,191.9957 856.8365,191.2597 C856.8365,190.5237 856.5955,189.9147 856.1155,189.4317 C855.6345,188.9477 855.0295,188.7067 854.2995,188.7067 C853.5695,188.7067 852.9635,188.9497 852.4835,189.4357 C852.0045,189.9207 851.7635,190.5297 851.7635,191.2597 C851.7635,191.9897 852.0045,192.5977 852.4835,193.0837 Z M857.4255,186.6007 L859.3125,186.6007 L859.3125,195.9187 L857.3335,195.9187 L857.1135,195.0847 C856.2655,195.8267 855.2595,196.1967 854.0975,196.1967 C853.1755,196.1967 852.3415,195.9837 851.5945,195.5567 C850.8475,195.1297 850.2635,194.5387 849.8425,193.7827 C849.4205,193.0277 849.2115,192.1867 849.2115,191.2597 C849.2115,190.3387 849.4205,189.5027 849.8425,188.7527 C850.2635,188.0027 850.8475,187.4167 851.5945,186.9917 C852.3415,186.5677 853.1755,186.3557 854.0975,186.3557 C855.2825,186.3557 856.3015,186.7347 857.1565,187.4937 L857.4255,186.6007 Z" id="Fill-118" fill="#243647" mask="url(#mask-8)"></path>
                <path d="M866.2804,193.6945 L867.4264,193.6945 L867.4264,195.9355 L865.6404,195.9355 C864.6184,195.9355 863.8104,195.6395 863.2174,195.0475 C862.6254,194.4545 862.3294,193.6415 862.3294,192.6075 L862.3294,188.6395 L860.6434,188.6395 L860.6434,188.0995 L864.3264,184.1815 L864.8064,184.1815 L864.8064,186.6165 L867.3764,186.6165 L867.3764,188.6395 L864.8484,188.6395 L864.8484,192.2705 C864.8484,192.7255 864.9714,193.0765 865.2184,193.3235 C865.4664,193.5705 865.8204,193.6945 866.2804,193.6945" id="Fill-119" fill="#243647" mask="url(#mask-8)"></path>
                <path d="M869.145,195.936 L871.665,195.936 L871.665,186.617 L869.145,186.617 L869.145,195.936 Z M869.145,185.378 L871.656,185.378 L871.656,183.036 L869.145,183.036 L869.145,185.378 Z" id="Fill-120" fill="#243647" mask="url(#mask-8)"></path>
                <path d="M876.712,193.1174 C877.178,193.5924 877.774,193.8294 878.498,193.8294 C879.223,193.8294 879.818,193.5924 880.284,193.1174 C880.75,192.6424 880.983,192.0294 880.983,191.2764 C880.983,190.5234 880.75,189.9104 880.284,189.4354 C879.818,188.9604 879.223,188.7234 878.498,188.7234 C877.774,188.7234 877.178,188.9604 876.712,189.4354 C876.245,189.9104 876.013,190.5234 876.013,191.2764 C876.013,192.0294 876.245,192.6424 876.712,193.1174 M878.498,196.1974 C877.549,196.1974 876.69,195.9834 875.92,195.5564 C875.15,195.1294 874.548,194.5394 874.112,193.7874 C873.677,193.0344 873.46,192.1974 873.46,191.2764 C873.46,190.3444 873.677,189.5024 874.112,188.7534 C874.548,188.0034 875.15,187.4164 875.92,186.9924 C876.69,186.5684 877.549,186.3554 878.498,186.3554 C879.441,186.3554 880.298,186.5684 881.067,186.9924 C881.837,187.4164 882.441,188.0044 882.879,188.7574 C883.317,189.5104 883.536,190.3494 883.536,191.2764 C883.536,192.1974 883.317,193.0344 882.879,193.7874 C882.441,194.5394 881.837,195.1294 881.067,195.5564 C880.298,195.9834 879.441,196.1974 878.498,196.1974" id="Fill-121" fill="#243647" mask="url(#mask-8)"></path>
                <path d="M890.6388,186.3982 C891.6958,186.3982 892.5348,186.7512 893.1588,187.4552 C893.7818,188.1602 894.0938,189.1062 894.0938,190.2912 L894.0938,195.9362 L891.5748,195.9362 L891.5748,190.6952 C891.5748,189.3022 891.0328,188.6062 889.9488,188.6062 C889.3018,188.6062 888.7918,188.8232 888.4188,189.2582 C888.0448,189.6942 887.8588,190.2882 887.8588,191.0402 L887.8588,195.9362 L885.3388,195.9362 L885.3388,186.6172 L887.0668,186.6172 L887.5558,187.7712 C887.9148,187.3442 888.3628,187.0092 888.8998,186.7642 C889.4358,186.5202 890.0158,186.3982 890.6388,186.3982" id="Fill-122" fill="#243647" mask="url(#mask-8)"></path>
                <path d="M801.757,227.6003 L806.136,227.6003 L806.136,228.8093 L799.255,228.8093 L799.255,228.3963 C800.456,227.1343 801.388,226.1373 802.046,225.4033 C802.704,224.6693 803.222,224.0393 803.597,223.5143 C803.972,222.9883 804.21,222.5823 804.31,222.2963 C804.411,222.0113 804.46,221.6963 804.46,221.3503 C804.46,220.8293 804.294,220.4093 803.962,220.0883 C803.628,219.7673 803.191,219.6073 802.65,219.6073 C802.085,219.6073 801.628,219.7703 801.278,220.0963 C800.931,220.4213 800.757,220.8443 800.757,221.3653 L800.757,221.6133 L799.495,221.6133 L799.495,221.3653 C799.495,220.4743 799.786,219.7563 800.366,219.2133 C800.948,218.6693 801.708,218.3983 802.65,218.3983 C803.562,218.3983 804.304,218.6733 804.878,219.2243 C805.45,219.7753 805.737,220.4843 805.737,221.3503 C805.737,221.7303 805.693,222.0803 805.603,222.3983 C805.513,222.7163 805.325,223.1123 805.038,223.5853 C804.753,224.0583 804.353,224.6083 803.837,225.2343 C803.321,225.8603 802.628,226.6483 801.757,227.6003" id="Fill-123" fill="#748494" mask="url(#mask-8)"></path>
                <polygon id="Fill-124" fill="#748494" mask="url(#mask-8)" points="807.437 225.144 812.32 225.144 812.32 223.882 807.437 223.882"></polygon>
                <path d="M818.005,222.447 C818.851,222.557 819.534,222.909 820.056,223.503 C820.577,224.096 820.837,224.813 820.837,225.655 C820.837,226.621 820.509,227.419 819.853,228.047 C819.196,228.676 818.378,228.99 817.396,228.99 C816.45,228.99 815.665,228.695 815.042,228.104 C814.417,227.513 814.081,226.752 814.03,225.82 L815.286,225.82 C815.325,226.411 815.54,226.885 815.927,227.243 C816.316,227.602 816.806,227.78 817.396,227.78 C818.023,227.78 818.538,227.576 818.944,227.168 C819.349,226.76 819.552,226.24 819.552,225.61 C819.552,224.984 819.335,224.468 818.9,224.062 C818.462,223.656 817.909,223.454 817.239,223.454 L816.097,223.454 L816.097,223.206 L818.462,219.743 L814.36,219.743 L814.36,218.578 L820.439,218.578 L820.439,218.871 L818.005,222.447 Z" id="Fill-125" fill="#748494" mask="url(#mask-8)"></path>
                <polygon id="Fill-126" fill="#748494" mask="url(#mask-8)" points="836.8077 220.5012 838.1297 220.5012 835.2977 228.8102 834.2317 228.8102 831.8877 223.1462 829.5367 228.8102 828.4757 228.8102 825.6667 220.5012 827.0347 220.5012 829.1007 226.6242 831.6477 220.6292 832.1207 220.6292 834.6807 226.6762"></polygon>
                <path d="M843.1925,221.5608 C842.4425,221.5608 841.8055,221.7768 841.2865,222.2098 C840.7645,222.6438 840.4365,223.2238 840.3015,223.9498 L846.0715,223.9498 C845.9305,223.2128 845.6005,222.6308 845.0835,222.2028 C844.5635,221.7748 843.9345,221.5608 843.1925,221.5608 M847.3785,224.6928 C847.3785,224.8438 847.3705,224.9988 847.3545,225.1588 L840.2705,225.1588 C840.3725,225.9308 840.6885,226.5488 841.2215,227.0148 C841.7555,227.4798 842.4115,227.7128 843.1925,227.7128 C843.7645,227.7128 844.2725,227.5868 844.7175,227.3338 C845.1635,227.0808 845.5165,226.7288 845.7785,226.2778 L847.1595,226.2778 C846.8035,227.1348 846.2805,227.8008 845.5855,228.2768 C844.8915,228.7518 844.0945,228.9898 843.1925,228.9898 C842.4015,228.9898 841.6825,228.8028 841.0345,228.4268 C840.3855,228.0508 839.8765,227.5328 839.5085,226.8718 C839.1395,226.2108 838.9565,225.4718 838.9565,224.6558 C838.9565,223.8448 839.1395,223.1068 839.5085,222.4428 C839.8765,221.7798 840.3855,221.2598 841.0345,220.8848 C841.6825,220.5088 842.4015,220.3208 843.1925,220.3208 C844.0145,220.3208 844.7455,220.5168 845.3875,220.9068 C846.0285,221.2978 846.5205,221.8248 846.8625,222.4888 C847.2065,223.1518 847.3785,223.8868 847.3785,224.6928" id="Fill-127" fill="#748494" mask="url(#mask-8)"></path>
                <path d="M852.9132,221.5608 C852.1632,221.5608 851.5262,221.7768 851.0072,222.2098 C850.4852,222.6438 850.1572,223.2238 850.0222,223.9498 L855.7922,223.9498 C855.6512,223.2128 855.3212,222.6308 854.8042,222.2028 C854.2842,221.7748 853.6552,221.5608 852.9132,221.5608 M857.0992,224.6928 C857.0992,224.8438 857.0912,224.9988 857.0752,225.1588 L849.9912,225.1588 C850.0932,225.9308 850.4092,226.5488 850.9422,227.0148 C851.4762,227.4798 852.1322,227.7128 852.9132,227.7128 C853.4852,227.7128 853.9932,227.5868 854.4382,227.3338 C854.8842,227.0808 855.2372,226.7288 855.4992,226.2778 L856.8802,226.2778 C856.5242,227.1348 856.0012,227.8008 855.3062,228.2768 C854.6122,228.7518 853.8152,228.9898 852.9132,228.9898 C852.1222,228.9898 851.4032,228.8028 850.7552,228.4268 C850.1062,228.0508 849.5972,227.5328 849.2292,226.8718 C848.8602,226.2108 848.6772,225.4718 848.6772,224.6558 C848.6772,223.8448 848.8602,223.1068 849.2292,222.4428 C849.5972,221.7798 850.1062,221.2598 850.7552,220.8848 C851.4032,220.5088 852.1222,220.3208 852.9132,220.3208 C853.7352,220.3208 854.4662,220.5168 855.1082,220.9068 C855.7492,221.2978 856.2412,221.8248 856.5832,222.4888 C856.9272,223.1518 857.0992,223.8868 857.0992,224.6928" id="Fill-128" fill="#748494" mask="url(#mask-8)"></path>
                <polygon id="Fill-129" fill="#748494" mask="url(#mask-8)" points="864.5343 228.8098 861.6863 225.0838 860.5013 225.0838 860.5013 228.8098 859.1923 228.8098 859.1923 217.5338 860.5013 217.5338 860.5013 223.8738 861.7103 223.8738 864.2703 220.5008 865.8643 220.5008 862.8373 224.4828 866.1733 228.8098"></polygon>
                <path d="M870.0948,228.99 C869.1128,228.99 868.3238,228.745 867.7278,228.254 C867.1318,227.763 866.8158,227.1 866.7808,226.263 L868.0578,226.263 C868.0928,226.744 868.2998,227.117 868.6768,227.383 C869.0558,227.648 869.5418,227.781 870.1398,227.781 C870.7138,227.781 871.1848,227.665 871.5478,227.435 C871.9108,227.205 872.0928,226.889 872.0928,226.489 C872.0928,226.333 872.0678,226.193 872.0168,226.068 C871.9658,225.943 871.8858,225.836 871.7768,225.749 C871.6668,225.661 871.5558,225.586 871.4468,225.523 C871.3348,225.461 871.1848,225.405 870.9908,225.354 C870.7978,225.304 870.6338,225.265 870.4948,225.238 C870.3588,225.21 870.1708,225.177 869.9368,225.136 C869.7508,225.106 869.6068,225.081 869.5048,225.061 C869.4018,225.041 869.2608,225.011 869.0828,224.971 C868.9058,224.931 868.7648,224.893 868.6588,224.859 C868.5538,224.823 868.4228,224.779 868.2688,224.723 C868.1128,224.668 867.9898,224.608 867.8958,224.543 C867.8038,224.478 867.6998,224.402 867.5848,224.314 C867.4698,224.226 867.3778,224.13 867.3098,224.025 C867.2428,223.92 867.1768,223.803 867.1128,223.676 C867.0458,223.548 866.9988,223.404 866.9718,223.243 C866.9448,223.083 866.9308,222.91 866.9308,222.725 C866.9308,222.009 867.2198,221.429 867.7958,220.986 C868.3698,220.543 869.1278,220.321 870.0638,220.321 C871.0008,220.321 871.7508,220.553 872.3138,221.016 C872.8778,221.479 873.1708,222.104 873.1968,222.89 L871.9558,222.89 C871.9308,222.44 871.7508,222.093 871.4148,221.85 C871.0808,221.607 870.6198,221.486 870.0338,221.486 C869.4738,221.486 869.0268,221.594 868.6968,221.812 C868.3658,222.03 868.1998,222.32 868.1998,222.68 C868.1998,222.82 868.2238,222.947 868.2688,223.059 C868.3138,223.172 868.3878,223.268 868.4928,223.348 C868.5988,223.428 868.7038,223.496 868.8098,223.552 C868.9148,223.607 869.0598,223.657 869.2448,223.701 C869.4308,223.747 869.5868,223.782 869.7178,223.807 C869.8488,223.832 870.0308,223.862 870.2668,223.897 C871.0868,224.032 871.6768,224.175 872.0318,224.325 C872.8528,224.671 873.2998,225.277 873.3678,226.143 C873.3798,226.238 873.3838,226.333 873.3838,226.428 C873.3838,227.205 873.0828,227.826 872.4838,228.291 C871.8818,228.757 871.0848,228.99 870.0948,228.99" id="Fill-130" fill="#748494" mask="url(#mask-8)"></path>
                <path d="M869.2921,102.0486 C869.2921,118.3326 856.0921,131.5336 839.8081,131.5336 C823.5231,131.5336 810.3221,118.3326 810.3221,102.0486 C810.3221,85.7646 823.5231,72.5636 839.8081,72.5636 C856.0921,72.5636 869.2921,85.7646 869.2921,102.0486" id="Fill-131" fill="#50E29D" mask="url(#mask-8)"></path>
                <path d="M790.1222,81.3664 C798.7072,62.3264 817.8522,49.0744 840.0952,49.0744 C856.3942,49.0744 871.0332,56.1924 881.0692,67.4904" id="Stroke-132" stroke="#11193A" stroke-width="1.239" stroke-linecap="round" stroke-linejoin="round" mask="url(#mask-8)"></path>
                <path d="M844.4318,158.4821 C843.0008,158.5941 841.5538,158.6511 840.0948,158.6511 C809.8358,158.6511 785.3058,134.1211 785.3058,103.8621 C785.3058,98.6221 786.0408,93.5541 787.4148,88.7551" id="Stroke-133" stroke="#11193A" stroke-width="1.239" stroke-linecap="round" stroke-linejoin="round" mask="url(#mask-8)"></path>
                <path d="M884.757,72.1208 C891.133,81.0768 894.883,92.0318 894.883,103.8628 C894.883,129.7708 876.901,151.4788 852.736,157.1858" id="Stroke-134" stroke="#11193A" stroke-width="1.239" stroke-linecap="round" stroke-linejoin="round" mask="url(#mask-8)"></path>
                <polyline id="Stroke-135" stroke="#11193A" stroke-width="1.239" stroke-linecap="round" stroke-linejoin="round" mask="url(#mask-8)" points="777.756 93.5793 787.323 88.7283 793.402 97.8593"></polyline>
                <polyline id="Stroke-136" stroke="#11193A" stroke-width="1.239" stroke-linecap="round" stroke-linejoin="round" mask="url(#mask-8)" points="880.7794 57.5652 881.0524 67.5052 870.8904 67.7502"></polyline>
                <path d="M852.7159,157.1042 L857.0159,148.3382" id="Stroke-137" stroke="#11193A" stroke-width="1.239" stroke-linecap="round" stroke-linejoin="round" mask="url(#mask-8)"></path>
                <path d="M861.8868,162.5075 L852.7158,157.1045" id="Stroke-138" stroke="#11193A" stroke-width="1.239" stroke-linecap="round" stroke-linejoin="round" mask="url(#mask-8)"></path>
                <path d="M861.8175,103.0915 C861.8175,90.9365 851.9635,81.0835 839.8095,81.0835 C827.6545,81.0835 817.8005,90.9365 817.8005,103.0915 C817.8005,111.1725 822.1685,118.2155 828.6585,122.0425 L828.6585,125.9975 C828.6585,126.9775 829.4535,127.7725 830.4335,127.7725 L849.1855,127.7725 C850.1655,127.7725 850.9605,126.9775 850.9605,125.9975 L850.9605,122.0425 C857.4505,118.2155 861.8175,111.1725 861.8175,103.0915 Z" id="Stroke-139" stroke="#11193A" stroke-width="1.239" stroke-linecap="round" stroke-linejoin="round" mask="url(#mask-8)"></path>
                <polygon id="Stroke-140" stroke="#11193A" stroke-width="1.239" stroke-linecap="round" stroke-linejoin="round" mask="url(#mask-8)" points="848.0861 138.9226 844.6661 138.9226 843.8491 141.5986 835.7461 141.5986 834.4071 138.9226 831.5831 138.9226 831.5831 127.7366 848.0861 127.7366"></polygon>
            </g>
        </g>
    </g>
</svg>