<?xml version="1.0" encoding="UTF-8"?>
<svg width="201px" height="656px" viewBox="0 0 201 656" version="1.1" xmlns="http://www.w3.org/2000/svg" xmlns:xlink="http://www.w3.org/1999/xlink">
    <!-- Generator: Sketch 51.3 (57544) - http://www.bohemiancoding.com/sketch -->
    <title>Group 220</title>
    <desc>Created with Sketch.</desc>
    <defs>
        <polygon id="path-1" points="0 0.273872898 195.726019 0.273872898 195.726019 195.999919 0 195.999919"></polygon>
    </defs>
    <g id="Page-1" stroke="none" stroke-width="1" fill="none" fill-rule="evenodd">
        <g id="MOBILE-team" transform="translate(-60.000000, -2937.000000)">
            <g id="Group-220" transform="translate(60.000000, 2937.000000)">
                <path d="M200.0375,97.4211 C200.2815,151.4691 156.6655,195.4811 102.6175,195.7251 C48.5695,195.9691 4.5575,152.3531 4.3125,98.3051 C4.0685,44.2571 47.6855,0.2451 101.7325,0.0011 C155.7805,-0.2429 199.7935,43.3741 200.0375,97.4211" id="Fill-1" fill="#F3F6FD"></path>
                <path d="M200.2328,327.3064 C200.4768,381.3544 156.8608,425.3664 102.8128,425.6104 C48.7648,425.8544 4.7538,382.2384 4.5088,328.1904 C4.2648,274.1424 47.8808,230.1304 101.9288,229.8864 C155.9768,229.6424 199.9888,273.2584 200.2328,327.3064" id="Fill-3" fill="#F3F6FD"></path>
                <g id="Group-7" transform="translate(0.000000, 459.359000)">
                    <mask id="mask-2" fill="white">
                        <use xlink:href="#path-1"></use>
                    </mask>
                    <g id="Clip-6"></g>
                    <path d="M195.725,97.6949 C195.969,151.7429 152.353,195.7549 98.305,195.9989 C44.257,196.2429 0.246,152.6269 0.001,98.5789 C-0.243,44.5309 43.373,0.5189 97.421,0.2749 C151.469,0.0299 195.481,43.6469 195.725,97.6949" id="Fill-5" fill="#F3F6FD" mask="url(#mask-2)"></path>
                </g>
                <path d="M86.4428,205.2932 L96.4118,205.3812 C99.8848,205.4122 102.6748,208.2522 102.6448,211.7252 L102.3148,248.9612" id="Stroke-8" stroke="#243647" stroke-width="0.55" stroke-linecap="round" stroke-linejoin="round"></path>
                <path d="M87.0258,205.2824 L82.8128,205.3014 C79.3398,205.3174 76.5118,202.5144 76.4968,199.0414 L76.4338,185.3594" id="Stroke-10" stroke="#243647" stroke-width="0.55" stroke-linecap="round" stroke-linejoin="round"></path>
                <path d="M76.4662,185.0056 C74.3782,185.0156 72.6782,183.3306 72.6692,181.2426 C72.6592,179.1546 74.3442,177.4556 76.4322,177.4456 C78.5202,177.4366 80.2202,179.1206 80.2292,181.2086 C80.2382,183.2966 78.5542,184.9966 76.4662,185.0056 Z" id="Stroke-12" stroke="#243647" stroke-width="0.55" stroke-linecap="round" stroke-linejoin="round"></path>
                <path d="M110.1869,237.093 L102.3759,249.292" id="Stroke-14" stroke="#243647" stroke-width="0.55" stroke-linecap="round" stroke-linejoin="round"></path>
                <path d="M94.0717,236.6652 L102.3767,249.2912" id="Stroke-16" stroke="#243647" stroke-width="0.55" stroke-linecap="round" stroke-linejoin="round"></path>
                <path d="M87.433,434.4289 L97.402,434.5169 C100.874,434.5479 103.665,437.3879 103.634,440.8609 L103.305,478.0969" id="Stroke-18" stroke="#243647" stroke-width="0.55" stroke-linecap="round" stroke-linejoin="round"></path>
                <path d="M88.016,434.4182 L83.803,434.4372 C80.329,434.4532 77.501,431.6502 77.486,428.1772 L77.424,414.4952" id="Stroke-20" stroke="#243647" stroke-width="0.55" stroke-linecap="round" stroke-linejoin="round"></path>
                <path d="M77.4565,414.1413 C75.3685,414.1513 73.6685,412.4663 73.6585,410.3783 C73.6495,408.2903 75.3345,406.5913 77.4225,406.5813 C79.5105,406.5723 81.2095,408.2563 81.2195,410.3443 C81.2285,412.4323 79.5445,414.1323 77.4565,414.1413 Z" id="Stroke-22" stroke="#243647" stroke-width="0.55" stroke-linecap="round" stroke-linejoin="round"></path>
                <path d="M111.1772,466.2287 L103.3662,478.4277" id="Stroke-24" stroke="#243647" stroke-width="0.55" stroke-linecap="round" stroke-linejoin="round"></path>
                <path d="M95.0619,465.801 L103.3669,478.427" id="Stroke-26" stroke="#243647" stroke-width="0.55" stroke-linecap="round" stroke-linejoin="round"></path>
                <path d="M125.1098,61.0217 C125.1548,70.9557 117.1378,79.0437 107.2048,79.0887 C97.2708,79.1337 89.1818,71.1177 89.1368,61.1837 C89.0918,51.2507 97.1088,43.1617 107.0428,43.1167 C116.9758,43.0717 125.0648,51.0877 125.1098,61.0217" id="Fill-28" fill="#50E29D"></path>
                <path d="M129.8666,60.9392 C129.9246,73.6442 119.6716,83.9902 106.9666,84.0472 C94.2626,84.1052 83.9156,73.8522 83.8586,61.1472 C83.8016,48.4422 94.0536,38.0962 106.7586,38.0392 C119.4636,37.9812 129.8086,48.2342 129.8666,60.9392 Z" id="Stroke-30" stroke="#11193A" stroke-width="0.846" stroke-linecap="round" stroke-linejoin="round"></path>
                <path d="M84.9916,104.803 L96.6546,82.48" id="Stroke-32" stroke="#11193A" stroke-width="0.846" stroke-linecap="round" stroke-linejoin="round"></path>
                <polyline id="Stroke-34" stroke="#11193A" stroke-width="0.846" stroke-linecap="round" stroke-linejoin="round" points="115.9184 59.1238 119.3804 63.0398 123.1214 59.4738"></polyline>
                <path d="M117.6244,67.758 C115.4004,71.229 111.5174,73.538 107.0874,73.558 C100.1454,73.589 94.4914,67.987 94.4604,61.045 C94.4294,54.102 100.0314,48.449 106.9744,48.418 C113.9164,48.386 119.5694,53.988 119.6014,60.931 C119.6034,61.512 119.5664,62.084 119.4934,62.644" id="Stroke-36" stroke="#11193A" stroke-width="0.846" stroke-linecap="round" stroke-linejoin="round"></path>
                <path d="M117.9877,309.6486 C118.0267,318.4126 110.9547,325.5496 102.1907,325.5886 C93.4257,325.6286 86.2897,318.5556 86.2507,309.7926 C86.2107,301.0276 93.2837,293.8916 102.0477,293.8526 C110.8107,293.8126 117.9477,300.8846 117.9877,309.6486" id="Fill-38" fill="#50E29D"></path>
                <path d="M118.2934,333.6115 L119.1964,333.6075 C119.1554,324.5765 112.5474,320.9945 105.5944,321.0255 L98.8204,321.0565 C91.8674,321.0875 85.2914,324.7295 85.3312184,333.7605 L86.2344,333.7565 L118.2934,333.6115 Z" id="Stroke-40" stroke="#11193A" stroke-width="0.846" stroke-linecap="round" stroke-linejoin="round"></path>
                <path d="M110.6244,310.1999 C110.6454,314.8759 106.8724,318.6829 102.1964,318.7049 C97.5204,318.7259 93.7134,314.9519 93.6914,310.2769 C93.6714,305.6009 97.4444,301.7929 102.1204,301.7719 C106.7964,301.7509 110.6034,305.5239 110.6244,310.1999 Z" id="Stroke-42" stroke="#11193A" stroke-width="0.846" stroke-linecap="round" stroke-linejoin="round"></path>
                <path d="M110.4389,269.1828 C110.4599,273.8588 106.6869,277.6658 102.0109,277.6868 C97.3349,277.7078 93.5279,273.9348 93.5069,269.2588 C93.4859,264.5828 97.2589,260.7758 101.9349,260.7548 C106.6109,260.7338 110.4179,264.5068 110.4389,269.1828 Z" id="Stroke-44" stroke="#11193A" stroke-width="0.846" stroke-linecap="round" stroke-linejoin="round"></path>
                <path d="M89.809,289.6648 C89.83,294.3408 86.057,298.1478 81.381,298.1698 C76.705,298.1908 72.898,294.4168 72.876,289.7418 C72.855,285.0658 76.628,281.2578 81.304,281.2368 C85.98,281.2158 89.788,284.9888 89.809,289.6648 Z" id="Stroke-46" stroke="#11193A" stroke-width="0.846" stroke-linecap="round" stroke-linejoin="round"></path>
                <path d="M131.5209,289.4768 C131.5419,294.1528 127.7689,297.9598 123.0929,297.9808 C118.4169,298.0018 114.6099,294.2288 114.5879,289.5528 C114.5669,284.8768 118.3399,281.0698 123.0159,281.0488 C127.6919,281.0278 131.4999,284.8008 131.5209,289.4768 Z" id="Stroke-48" stroke="#11193A" stroke-width="0.846" stroke-linecap="round" stroke-linejoin="round"></path>
                <path d="M60.4389,125.6863 C61.1449,125.6833 61.7199,125.4493 62.1649,124.9853 C62.6099,124.5203 62.8319,123.9263 62.8279,123.2013 C62.8249,122.4763 62.5979,121.8853 62.1489,121.4283 C61.6999,120.9723 61.1229,120.7453 60.4169,120.7493 L59.1229,120.7543 L59.1439,125.6923 L60.4389,125.6863 Z M60.4499,119.0913 C61.0479,119.0883 61.6079,119.1893 62.1279,119.3943 C62.6499,119.5993 63.0929,119.8823 63.4609,120.2433 C63.8299,120.6033 64.1199,121.0393 64.3309,121.5483 C64.5429,122.0573 64.6499,122.6053 64.6519,123.1923 C64.6549,123.7833 64.5509,124.3353 64.3429,124.8483 C64.1339,125.3613 63.8469,125.8003 63.4829,126.1653 C63.1179,126.5293 62.6759,126.8153 62.1579,127.0253 C61.6379,127.2343 61.0819,127.3413 60.4869,127.3433 L57.3679,127.3573 L57.3309,119.1053 L60.4499,119.0913 Z" id="Fill-50" fill="#243647"></path>
                <path d="M68.8432,122.2302 C68.4632,122.2312 68.1412,122.3382 67.8772,122.5512 C67.6142,122.7632 67.4322,123.0592 67.3342,123.4392 L70.4192,123.4252 C70.2982,123.0392 70.1022,122.7422 69.8312,122.5362 C69.5602,122.3302 69.2302,122.2282 68.8432,122.2302 M72.1432,124.0852 C72.1442,124.2582 72.1332,124.4272 72.1112,124.5922 L67.2942,124.6132 C67.3682,125.0472 67.5432,125.3792 67.8202,125.6102 C68.0942,125.8402 68.4412,125.9552 68.8602,125.9532 C69.1552,125.9522 69.4202,125.8852 69.6552,125.7542 C69.8912,125.6232 70.0732,125.4412 70.2022,125.2102 L72.0102,125.2022 C71.7822,125.8972 71.3862,126.4512 70.8202,126.8622 C70.2542,127.2732 69.6032,127.4802 68.8662,127.4842 C68.2482,127.4872 67.6872,127.3432 67.1812,127.0512 C66.6752,126.7602 66.2772,126.3582 65.9882,125.8452 C65.6972,125.3332 65.5512,124.7642 65.5482,124.1382 C65.5452,123.5092 65.6862,122.9372 65.9682,122.4212 C66.2522,121.9062 66.6462,121.5012 67.1492,121.2082 C67.6522,120.9142 68.2142,120.7652 68.8362,120.7622 C69.4732,120.7592 70.0452,120.9072 70.5532,121.2062 C71.0612,121.5052 71.4512,121.9072 71.7262,122.4122 C72.0012,122.9172 72.1402,123.4752 72.1432,124.0852" id="Fill-52" fill="#243647"></path>
                <path d="M77.1469,120.9895 L77.1539,122.4055 L75.5539,122.4125 L75.5759,127.2755 L73.8549,127.2835 L73.8339,122.4205 L72.7279,122.4255 L72.7219,121.0095 L73.8329,121.0045 L73.8299,120.4295 C73.8279,119.8075 73.9979,119.3185 74.3409,118.9625 C74.6849,118.6055 75.1849,118.4265 75.8399,118.4235 L77.1249,118.4175 L77.1299,119.7695 L76.1919,119.7745 C75.7279,119.7765 75.4969,120.0055 75.4999,120.4615 L75.5009,120.9965 L77.1469,120.9895 Z" id="Fill-54" fill="#243647"></path>
                <path d="M78.1654,127.2639 L78.1364,120.8989 L79.8564,120.8909 L79.8864,127.2559 L78.1654,127.2639 Z M78.1324,120.0529 L78.1254,118.4529 L79.8404,118.4459 L79.8474,120.0449 L78.1324,120.0529 Z" id="Fill-56" fill="#243647"></path>
                <path d="M85.1225,120.718 C85.8445,120.715 86.4195,120.953 86.8475,121.432 C87.2745,121.912 87.4905,122.556 87.4945,123.366 L87.5125,127.221 L85.7915,127.229 L85.7745,123.65 C85.7705,122.698 85.3985,122.224 84.6575,122.228 C84.2165,122.23 83.8685,122.38 83.6155,122.678 C83.3615,122.977 83.2355,123.383 83.2375,123.897 L83.2535,127.241 L81.5325,127.249 L81.5035,120.884 L82.6835,120.878 L83.0205,121.665 C83.2655,121.372 83.5695,121.142 83.9355,120.973 C84.3015,120.805 84.6975,120.719 85.1225,120.718" id="Fill-58" fill="#243647"></path>
                <path d="M91.9428,122.1257 C91.5628,122.1277 91.2408,122.2337 90.9768,122.4467 C90.7138,122.6587 90.5328,122.9547 90.4348,123.3347 L93.5188,123.3217 C93.3988,122.9347 93.2028,122.6377 92.9308,122.4317 C92.6598,122.2257 92.3308,122.1237 91.9428,122.1257 M95.2428,123.9807 C95.2438,124.1537 95.2328,124.3227 95.2108,124.4877 L90.3938,124.5097 C90.4688,124.9427 90.6438,125.2747 90.9198,125.5057 C91.1948,125.7367 91.5418,125.8507 91.9598,125.8487 C92.2548,125.8477 92.5198,125.7807 92.7558,125.6497 C92.9918,125.5187 93.1728,125.3367 93.3028,125.1057 L95.1098,125.0977 C94.8828,125.7937 94.4868,126.3467 93.9208,126.7577 C93.3538,127.1687 92.7028,127.3767 91.9658,127.3797 C91.3488,127.3827 90.7878,127.2387 90.2808,126.9467 C89.7758,126.6557 89.3778,126.2537 89.0878,125.7417 C88.7968,125.2287 88.6508,124.6597 88.6478,124.0337 C88.6458,123.4047 88.7858,122.8327 89.0688,122.3167 C89.3528,121.8017 89.7458,121.3967 90.2498,121.1037 C90.7528,120.8097 91.3148,120.6607 91.9358,120.6577 C92.5738,120.6547 93.1458,120.8037 93.6528,121.1027 C94.1608,121.4007 94.5518,121.8027 94.8268,122.3087 C95.1018,122.8137 95.2408,123.3717 95.2428,123.9807" id="Fill-60" fill="#243647"></path>
                <polygon id="Fill-62" fill="#243647" points="104.7104 118.8909 104.7174 120.5489 102.4214 120.5589 102.4514 127.1539 100.6674 127.1619 100.6374 120.5669 98.3474 120.5779 98.3394 118.9199"></polygon>
                <path d="M107.8148,122.0539 C107.4358,122.0559 107.1138,122.1629 106.8488,122.3749 C106.5858,122.5869 106.4048,122.8829 106.3068,123.2629 L109.3908,123.2499 C109.2708,122.8629 109.0748,122.5659 108.8038,122.3599 C108.5318,122.1539 108.2028,122.0529 107.8148,122.0539 M111.1158,123.9089 C111.1168,124.0819 111.1058,124.2509 111.0838,124.4159 L106.2658,124.4379 C106.3408,124.8709 106.5158,125.2029 106.7928,125.4339 C107.0668,125.6649 107.4138,125.7789 107.8328,125.7779 C108.1268,125.7759 108.3928,125.7089 108.6278,125.5779 C108.8638,125.4469 109.0448,125.2649 109.1748,125.0339 L110.9828,125.0269 C110.7548,125.7219 110.3588,126.2749 109.7928,126.6859 C109.2268,127.0969 108.5758,127.3049 107.8388,127.3079 C107.2208,127.3109 106.6598,127.1669 106.1538,126.8759 C105.6478,126.5839 105.2498,126.1819 104.9608,125.6699 C104.6688,125.1569 104.5238,124.5879 104.5208,123.9619 C104.5178,123.3329 104.6578,122.7609 104.9408,122.2449 C105.2248,121.7299 105.6178,121.3249 106.1218,121.0319 C106.6248,120.7379 107.1868,120.5889 107.8088,120.5859 C108.4458,120.5829 109.0178,120.7319 109.5258,121.0309 C110.0338,121.3289 110.4238,121.7309 110.6988,122.2369 C110.9738,122.7419 111.1128,123.2999 111.1158,123.9089" id="Fill-64" fill="#243647"></path>
                <path d="M114.1615,125.1531 C114.4915,125.4841 114.9055,125.6481 115.4045,125.6451 C115.9025,125.6431 116.3155,125.4761 116.6425,125.1451 C116.9695,124.8131 117.1315,124.3961 117.1295,123.8941 C117.1275,123.3911 116.9615,122.9761 116.6315,122.6471 C116.3025,122.3191 115.8875,122.1551 115.3895,122.1581 C114.8905,122.1601 114.4765,122.3281 114.1505,122.6611 C113.8245,122.9941 113.6625,123.4111 113.6645,123.9091 C113.6675,124.4081 113.8335,124.8221 114.1615,125.1531 Z M117.5175,120.7101 L118.8065,120.7041 L118.8355,127.0691 L117.4825,127.0741 L117.3305,126.5061 C116.7545,127.0151 116.0675,127.2711 115.2735,127.2751 C114.6445,127.2781 114.0745,127.1341 113.5625,126.8451 C113.0515,126.5551 112.6505,126.1541 112.3605,125.6391 C112.0695,125.1241 111.9245,124.5501 111.9215,123.9171 C111.9185,123.2881 112.0585,122.7161 112.3455,122.2031 C112.6305,121.6901 113.0275,121.2871 113.5365,120.9951 C114.0455,120.7031 114.6135,120.5551 115.2435,120.5521 C116.0535,120.5491 116.7505,120.8051 117.3365,121.3201 L117.5175,120.7101 Z" id="Fill-66" fill="#243647"></path>
                <path d="M127.6977,120.5256 C128.3567,120.5226 128.8957,120.7536 129.3147,121.2196 C129.7327,121.6866 129.9437,122.2916 129.9467,123.0356 L129.9657,127.0296 L128.2447,127.0376 L128.2277,123.3316 C128.2257,122.9056 128.1427,122.5826 127.9787,122.3626 C127.8147,122.1426 127.5777,122.0336 127.2657,122.0356 C126.8837,122.0366 126.5837,122.1756 126.3677,122.4506 C126.1527,122.7256 126.0467,123.1106 126.0487,123.6056 L126.0637,127.0476 L124.3887,127.0546 L124.3727,123.3486 C124.3707,122.9226 124.2897,122.5996 124.1297,122.3796 C123.9687,122.1606 123.7347,122.0506 123.4277,122.0526 C123.0367,122.0546 122.7327,122.1926 122.5147,122.4676 C122.2977,122.7436 122.1897,123.1286 122.1917,123.6236 L122.2077,127.0646 L120.4867,127.0726 L120.4587,120.7076 L121.6557,120.7026 L121.9807,121.4886 C122.2057,121.2006 122.4867,120.9706 122.8207,120.8006 C123.1557,120.6296 123.5077,120.5446 123.8757,120.5426 C124.2787,120.5406 124.6417,120.6286 124.9657,120.8056 C125.2877,120.9826 125.5427,121.2316 125.7277,121.5526 C125.9487,121.2376 126.2327,120.9876 126.5797,120.8036 C126.9267,120.6196 127.2987,120.5266 127.6977,120.5256" id="Fill-68" fill="#243647"></path>
                <path d="M136.977,119.8738 C136.735,119.8748 136.542,119.9418 136.4,120.0748 C136.256,120.2078 136.185,120.3818 136.186,120.5958 C136.187,120.8418 136.356,121.2148 136.692,121.7158 C137.051,121.5148 137.322,121.3298 137.504,121.1608 C137.685,120.9908 137.775,120.7988 137.774,120.5828 C137.773,120.3688 137.7,120.1958 137.554,120.0658 C137.408,119.9368 137.215,119.8728 136.977,119.8738 Z M136.739,125.6578 C137.137,125.6568 137.503,125.5628 137.836,125.3768 C137.134,124.5708 136.62,123.9668 136.291,123.5648 C135.829,123.9288 135.599,124.3168 135.601,124.7308 C135.602,125.0118 135.706,125.2358 135.915,125.4058 C136.123,125.5758 136.397,125.6598 136.739,125.6578 Z M141.119,126.9788 L139.265,126.9878 C139.211,126.9308 139.136,126.8468 139.04,126.7358 C138.944,126.6248 138.872,126.5448 138.826,126.4948 C138.187,126.9198 137.44,127.1338 136.584,127.1378 C135.809,127.1418 135.184,126.9298 134.708,126.5018 C134.233,126.0748 133.993,125.5038 133.99,124.7908 C133.988,124.5138 134.025,124.2558 134.098,124.0158 C134.172,123.7758 134.279,123.5608 134.417,123.3698 C134.557,123.1788 134.707,123.0108 134.87,122.8638 C135.033,122.7178 135.218,122.5748 135.429,122.4358 C135.132,122.0078 134.927,121.6548 134.817,121.3798 C134.707,121.1038 134.651,120.8408 134.65,120.5918 C134.647,120.0008 134.858,119.5248 135.282,119.1648 C135.706,118.8038 136.269,118.6218 136.972,118.6188 C137.662,118.6158 138.221,118.7928 138.649,119.1488 C139.077,119.5058 139.291,119.9778 139.293,120.5648 C139.294,120.7798 139.26,120.9838 139.191,121.1758 C139.12,121.3678 139.034,121.5358 138.93,121.6778 C138.828,121.8198 138.691,121.9638 138.521,122.1108 C138.351,122.2578 138.192,122.3788 138.045,122.4758 C137.898,122.5718 137.717,122.6828 137.503,122.8058 C137.823,123.2038 138.254,123.7158 138.798,124.3428 C138.985,123.9698 139.094,123.5508 139.127,123.0868 L140.578,123.0798 C140.542,124.0198 140.291,124.8308 139.823,125.5118 L141.119,126.9788 Z" id="Fill-70" fill="#243647"></path>
                <polygon id="Fill-72" fill="#243647" points="39.1322 139.926 42.2972 139.912 42.3052 141.569 37.3562 141.592 37.3182 133.339 39.1032 133.331"></polygon>
                <path d="M46.1381,136.4763 C45.7581,136.4773 45.4361,136.5843 45.1721,136.7973 C44.9091,137.0093 44.7281,137.3053 44.6301,137.6853 L47.7141,137.6713 C47.5941,137.2843 47.3981,136.9883 47.1261,136.7823 C46.8551,136.5763 46.5261,136.4743 46.1381,136.4763 M49.4381,138.3313 C49.4391,138.5043 49.4281,138.6733 49.4061,138.8383 L44.5891,138.8593 C44.6631,139.2923 44.8381,139.6253 45.1151,139.8553 C45.3901,140.0863 45.7371,140.2013 46.1551,140.1993 C46.4501,140.1983 46.7151,140.1313 46.9501,140.0003 C47.1871,139.8683 47.3681,139.6873 47.4981,139.4563 L49.3051,139.4483 C49.0781,140.1433 48.6821,140.6973 48.1161,141.1083 C47.5491,141.5193 46.8981,141.7263 46.1611,141.7303 C45.5441,141.7333 44.9831,141.5883 44.4761,141.2973 C43.9701,141.0063 43.5731,140.6043 43.2831,140.0913 C42.9921,139.5793 42.8461,139.0093 42.8431,138.3843 C42.8401,137.7553 42.9811,137.1833 43.2641,136.6673 C43.5471,136.1523 43.9411,135.7473 44.4451,135.4533 C44.9481,135.1603 45.5091,135.0113 46.1311,135.0083 C46.7681,135.0053 47.3401,135.1533 47.8481,135.4523 C48.3561,135.7513 48.7471,136.1533 49.0221,136.6583 C49.2961,137.1633 49.4351,137.7213 49.4381,138.3313" id="Fill-74" fill="#243647"></path>
                <path d="M52.4848,139.5749 C52.8148,139.9059 53.2288,140.0699 53.7278,140.0679 C54.2258,140.0649 54.6388,139.8979 54.9648,139.5669 C55.2928,139.2349 55.4548,138.8179 55.4518,138.3159 C55.4498,137.8129 55.2838,137.3979 54.9548,137.0689 C54.6248,136.7409 54.2108,136.5779 53.7128,136.5799 C53.2138,136.5819 52.7998,136.7499 52.4728,137.0829 C52.1478,137.4159 51.9848,137.8329 51.9878,138.3309 C51.9898,138.8299 52.1558,139.2449 52.4848,139.5749 Z M55.8398,135.1319 L57.1298,135.1259 L57.1578,141.4909 L55.8058,141.4959 L55.6528,140.9279 C55.0768,141.4369 54.3908,141.6929 53.5968,141.6969 C52.9668,141.6999 52.3968,141.5559 51.8848,141.2669 C51.3738,140.9779 50.9728,140.5759 50.6828,140.0609 C50.3928,139.5459 50.2468,138.9719 50.2438,138.3389 C50.2408,137.7099 50.3818,137.1379 50.6678,136.6249 C50.9528,136.1119 51.3498,135.7089 51.8588,135.4169 C52.3678,135.1249 52.9368,134.9779 53.5668,134.9749 C54.3758,134.9709 55.0738,135.2269 55.6598,135.7419 L55.8398,135.1319 Z" id="Fill-76" fill="#243647"></path>
                <path d="M62.0326,135.0803 L62.5966,135.0783 L62.6036,136.7013 L61.8616,136.7043 C61.3786,136.7063 61.0326,136.8223 60.8236,137.0513 C60.6166,137.2803 60.5126,137.6563 60.5146,138.1783 L60.5306,141.4873 L58.8096,141.4943 L58.7806,135.1293 L59.8806,135.1243 L60.1886,135.9063 C60.6236,135.3593 61.2376,135.0843 62.0326,135.0803" id="Fill-78" fill="#243647"></path>
                <path d="M67.1938,134.9421 C67.9158,134.9391 68.4908,135.1771 68.9188,135.6561 C69.3458,136.1361 69.5618,136.7811 69.5658,137.5901 L69.5838,141.4461 L67.8628,141.4541 L67.8458,137.8741 C67.8418,136.9221 67.4688,136.4491 66.7288,136.4521 C66.2878,136.4541 65.9398,136.6041 65.6868,136.9021 C65.4318,137.2011 65.3068,137.6081 65.3088,138.1211 L65.3248,141.4651 L63.6028,141.4731 L63.5748,135.1081 L64.7548,135.1031 L65.0918,135.8891 C65.3368,135.5971 65.6408,135.3661 66.0068,135.1971 C66.3728,135.0291 66.7678,134.9441 67.1938,134.9421" id="Fill-80" fill="#243647"></path>
                <path d="M77.8647,141.5871 C77.2707,141.5891 76.7097,141.4821 76.1807,141.2641 C75.6517,141.0451 75.1987,140.7471 74.8207,140.3691 C74.4427,139.9911 74.1437,139.5371 73.9237,139.0061 C73.7017,138.4761 73.5907,137.9111 73.5877,137.3131 C73.5847,136.7071 73.6917,136.1361 73.9077,135.6021 C74.1237,135.0681 74.4197,134.6101 74.7937,134.2281 C75.1687,133.8471 75.6187,133.5451 76.1447,133.3221 C76.6717,133.0991 77.2317,132.9861 77.8267,132.9831 C78.8277,132.9791 79.6967,133.2781 80.4347,133.8801 C81.1727,134.4831 81.6377,135.2741 81.8357,136.2521 L80.0457,136.2591 C79.8707,135.7691 79.5887,135.3841 79.1967,135.1041 C78.8057,134.8231 78.3517,134.6841 77.8337,134.6871 C77.1357,134.6901 76.5537,134.9411 76.0887,135.4401 C75.6227,135.9391 75.3907,136.5611 75.3937,137.3051 C75.3977,138.0451 75.6347,138.6611 76.1047,139.1521 C76.5747,139.6431 77.1587,139.8861 77.8567,139.8831 C78.3977,139.8811 78.8657,139.7261 79.2607,139.4201 C79.6537,139.1131 79.9247,138.6961 80.0717,138.1701 L81.8727,138.1621 C81.6887,139.1831 81.2307,140.0081 80.4967,140.6371 C79.7627,141.2651 78.8857,141.5821 77.8647,141.5871" id="Fill-82" fill="#243647"></path>
                <polygon id="Fill-84" fill="#243647" points="83.0551 141.385 83.0161 132.724 84.7371 132.716 84.7761 141.377"></polygon>
                <path d="M86.4213,141.3699 L86.3933,135.0049 L88.1133,134.9969 L88.1423,141.3619 L86.4213,141.3699 Z M86.3893,134.1589 L86.3813,132.5589 L88.0963,132.5519 L88.1043,134.1509 L86.3893,134.1589 Z" id="Fill-86" fill="#243647"></path>
                <path d="M92.6488,136.2659 C92.2688,136.2679 91.9468,136.3749 91.6828,136.5869 C91.4198,136.7989 91.2378,137.0949 91.1398,137.4749 L94.2248,137.4619 C94.1038,137.0749 93.9078,136.7779 93.6368,136.5719 C93.3658,136.3659 93.0358,136.2649 92.6488,136.2659 M95.9488,138.1209 C95.9498,138.2939 95.9388,138.4629 95.9168,138.6279 L91.0998,138.6499 C91.1738,139.0829 91.3488,139.4149 91.6258,139.6459 C91.9008,139.8769 92.2478,139.9909 92.6658,139.9899 C92.9608,139.9879 93.2258,139.9209 93.4608,139.7899 C93.6968,139.6589 93.8788,139.4769 94.0078,139.2459 L95.8158,139.2389 C95.5878,139.9339 95.1918,140.4869 94.6258,140.8979 C94.0598,141.3089 93.4088,141.5169 92.6718,141.5199 C92.0538,141.5229 91.4928,141.3789 90.9868,141.0879 C90.4808,140.7959 90.0838,140.3939 89.7938,139.8819 C89.5028,139.3689 89.3568,138.7999 89.3538,138.1739 C89.3508,137.5449 89.4918,136.9729 89.7748,136.4569 C90.0578,135.9419 90.4518,135.5369 90.9548,135.2439 C91.4578,134.9499 92.0198,134.8009 92.6418,134.7979 C93.2788,134.7949 93.8508,134.9439 94.3588,135.2429 C94.8668,135.5409 95.2568,135.9439 95.5328,136.4489 C95.8068,136.9539 95.9458,137.5119 95.9488,138.1209" id="Fill-88" fill="#243647"></path>
                <path d="M100.7797,134.7903 C101.5017,134.7873 102.0757,135.0253 102.5037,135.5043 C102.9307,135.9843 103.1477,136.6293 103.1517,137.4383 L103.1697,141.2943 L101.4477,141.3023 L101.4317,137.7223 C101.4267,136.7703 101.0547,136.2973 100.3147,136.3003 C99.8737,136.3023 99.5257,136.4533 99.2717,136.7513 C99.0177,137.0493 98.8927,137.4563 98.8947,137.9693 L98.9097,141.3133 L97.1887,141.3213 L97.1607,134.9563 L98.3407,134.9513 L98.6777,135.7383 C98.9227,135.4453 99.2267,135.2143 99.5927,135.0463 C99.9587,134.8773 100.3537,134.7923 100.7797,134.7903" id="Fill-90" fill="#243647"></path>
                <path d="M107.7934,139.7424 L108.5764,139.7394 L108.5834,141.2694 L107.3634,141.2754 C106.6654,141.2784 106.1124,141.0784 105.7064,140.6754 C105.2994,140.2724 105.0954,139.7184 105.0914,139.0124 L105.0794,136.3024 L103.9284,136.3064 L103.9264,135.9384 L106.4304,133.2514 L106.7584,133.2494 L106.7654,134.9124 L108.5204,134.9054 L108.5264,136.2864 L106.8004,136.2944 L106.8124,138.7744 C106.8134,139.0854 106.8974,139.3244 107.0674,139.4924 C107.2364,139.6604 107.4804,139.7434 107.7934,139.7424" id="Fill-92" fill="#243647"></path>
                <path d="M109.6723,136.4133 L109.6683,135.5733 C109.9723,135.5293 110.1963,135.4143 110.3433,135.2273 C110.4903,135.0413 110.5633,134.8153 110.5623,134.5503 L109.5773,134.5553 L109.5693,132.7133 L111.4223,132.7053 L111.4303,134.4033 C111.4333,134.9823 111.2753,135.4473 110.9563,135.7973 C110.6373,136.1483 110.2093,136.3533 109.6723,136.4133" id="Fill-94" fill="#243647"></path>
                <path d="M114.8861,141.4197 C114.0881,141.4237 113.4441,141.2177 112.9521,140.8037 C112.4621,140.3897 112.2121,139.8417 112.2051,139.1587 L113.8801,139.1507 C113.8851,139.4237 113.9861,139.6317 114.1791,139.7767 C114.3741,139.9217 114.6301,139.9937 114.9481,139.9927 C115.2021,139.9907 115.4151,139.9347 115.5891,139.8227 C115.7641,139.7107 115.8511,139.5527 115.8501,139.3497 C115.8491,139.2457 115.8191,139.1557 115.7591,139.0797 C115.6991,139.0027 115.6061,138.9387 115.4791,138.8877 C115.3521,138.8367 115.2281,138.7967 115.1051,138.7687 C114.9811,138.7397 114.8211,138.7097 114.6201,138.6757 C114.4401,138.6457 114.2881,138.6187 114.1651,138.5947 C114.0421,138.5697 113.8941,138.5337 113.7191,138.4837 C113.5441,138.4357 113.3971,138.3807 113.2791,138.3227 C113.1581,138.2627 113.0321,138.1847 112.9001,138.0847 C112.7671,137.9857 112.6611,137.8767 112.5821,137.7557 C112.5021,137.6347 112.4371,137.4887 112.3841,137.3157 C112.3311,137.1437 112.3051,136.9537 112.3041,136.7467 C112.3011,136.1447 112.5351,135.6527 113.0051,135.2737 C113.4761,134.8937 114.0921,134.7017 114.8561,134.6977 C115.6231,134.6947 116.2401,134.8867 116.7051,135.2737 C117.1711,135.6617 117.4081,136.1727 117.4151,136.8107 L115.7811,136.8177 C115.7761,136.5677 115.6901,136.3797 115.5221,136.2547 C115.3541,136.1287 115.1191,136.0667 114.8161,136.0677 C114.5511,136.0687 114.3431,136.1257 114.1921,136.2377 C114.0411,136.3497 113.9661,136.4977 113.9671,136.6817 C113.9671,136.7507 113.9801,136.8127 114.0051,136.8687 C114.0311,136.9237 114.0741,136.9717 114.1381,137.0117 C114.2011,137.0517 114.2611,137.0867 114.3181,137.1147 C114.3721,137.1427 114.4571,137.1717 114.5711,137.1997 C114.6841,137.2277 114.7771,137.2487 114.8471,137.2617 C114.9181,137.2747 115.0271,137.2947 115.1731,137.3207 C115.7911,137.4297 116.2371,137.5427 116.5091,137.6597 C117.1981,137.9637 117.5431,138.4997 117.5471,139.2667 C117.5501,139.9157 117.3081,140.4357 116.8231,140.8267 C116.3371,141.2187 115.6921,141.4167 114.8861,141.4197" id="Fill-96" fill="#243647"></path>
                <path d="M124.8227,136.9665 C125.1717,136.9655 125.4557,136.8525 125.6737,136.6285 C125.8897,136.4055 125.9987,136.1205 125.9967,135.7755 C125.9947,135.4305 125.8847,135.1485 125.6677,134.9275 C125.4497,134.7085 125.1647,134.5995 124.8117,134.6015 L123.4997,134.6075 L123.5107,136.9725 L124.8227,136.9665 Z M124.8847,132.9435 C125.4287,132.9405 125.9247,133.0605 126.3687,133.3015 C126.8127,133.5435 127.1637,133.8825 127.4207,134.3165 C127.6767,134.7505 127.8067,135.2345 127.8087,135.7675 C127.8127,136.5805 127.5377,137.2585 126.9837,137.7995 C126.4297,138.3415 125.7387,138.6135 124.9107,138.6175 L123.5177,138.6235 L123.5297,141.2025 L121.7457,141.2105 L121.7087,132.9575 L124.8847,132.9435 Z" id="Fill-98" fill="#243647"></path>
                <path d="M132.1781,134.7639 L132.7421,134.7609 L132.7501,136.3839 L132.0081,136.3879 C131.5241,136.3889 131.1781,136.5049 130.9701,136.7349 C130.7621,136.9639 130.6591,137.3389 130.6611,137.8609 L130.6771,141.1699 L128.9551,141.1779 L128.9271,134.8129 L130.0261,134.8079 L130.3351,135.5889 C130.7701,135.0429 131.3841,134.7669 132.1781,134.7639" id="Fill-100" fill="#243647"></path>
                <path d="M135.3988,139.2234 C135.7188,139.5464 136.1268,139.7064 136.6218,139.7044 C137.1168,139.7024 137.5228,139.5384 137.8388,139.2124 C138.1558,138.8874 138.3128,138.4674 138.3108,137.9524 C138.3088,137.4384 138.1478,137.0204 137.8278,136.6974 C137.5078,136.3744 137.1008,136.2144 136.6058,136.2174 C136.1108,136.2194 135.7048,136.3834 135.3878,136.7084 C135.0708,137.0344 134.9138,137.4544 134.9158,137.9684 C134.9188,138.4824 135.0788,138.9004 135.3988,139.2234 M136.6278,141.3214 C135.9798,141.3244 135.3928,141.1814 134.8658,140.8914 C134.3388,140.6024 133.9248,140.2024 133.6258,139.6894 C133.3258,139.1764 133.1748,138.6054 133.1718,137.9764 C133.1698,137.3394 133.3148,136.7644 133.6098,136.2504 C133.9058,135.7374 134.3148,135.3344 134.8388,135.0424 C135.3638,134.7504 135.9498,134.6024 136.5978,134.5994 C137.2428,134.5974 137.8288,134.7394 138.3548,135.0264 C138.8818,135.3134 139.2958,135.7134 139.5978,136.2264 C139.8998,136.7394 140.0518,137.3124 140.0538,137.9454 C140.0568,138.5744 139.9108,139.1464 139.6138,139.6624 C139.3168,140.1774 138.9058,140.5824 138.3808,140.8764 C137.8568,141.1704 137.2728,141.3184 136.6278,141.3214" id="Fill-102" fill="#243647"></path>
                <path d="M141.4115,133.9104 L141.4045,132.3104 L143.1195,132.3034 L143.1265,133.9024 L141.4115,133.9104 Z M139.9585,143.4244 L139.9515,141.8424 L140.5035,141.8394 C141.1295,141.8364 141.4395,141.5224 141.4365,140.8964 L141.4095,134.7564 L143.1305,134.7484 L143.1585,141.0214 C143.1615,141.7204 142.9425,142.2934 142.4985,142.7424 C142.0565,143.1914 141.4835,143.4174 140.7815,143.4204 L139.9585,143.4244 Z" id="Fill-104" fill="#243647"></path>
                <path d="M147.6713,136.0173 C147.2913,136.0193 146.9693,136.1263 146.7053,136.3383 C146.4423,136.5503 146.2613,136.8463 146.1633,137.2263 L149.2473,137.2133 C149.1273,136.8263 148.9313,136.5293 148.6593,136.3233 C148.3883,136.1173 148.0593,136.0163 147.6713,136.0173 M150.9713,137.8723 C150.9723,138.0453 150.9613,138.2143 150.9393,138.3793 L146.1223,138.4013 C146.1973,138.8343 146.3723,139.1663 146.6483,139.3973 C146.9233,139.6283 147.2703,139.7423 147.6883,139.7413 C147.9833,139.7393 148.2483,139.6723 148.4843,139.5413 C148.7203,139.4103 148.9013,139.2283 149.0313,138.9973 L150.8383,138.9903 C150.6113,139.6853 150.2153,140.2383 149.6493,140.6493 C149.0833,141.0603 148.4313,141.2683 147.6943,141.2713 C147.0773,141.2743 146.5163,141.1303 146.0093,140.8393 C145.5043,140.5473 145.1063,140.1453 144.8163,139.6333 C144.5253,139.1203 144.3793,138.5513 144.3773,137.9253 C144.3743,137.2963 144.5143,136.7243 144.7973,136.2083 C145.0813,135.6933 145.4743,135.2883 145.9783,134.9953 C146.4813,134.7013 147.0433,134.5523 147.6643,134.5493 C148.3023,134.5463 148.8743,134.6953 149.3813,134.9943 C149.8893,135.2923 150.2803,135.6943 150.5553,136.2003 C150.8303,136.7053 150.9693,137.2633 150.9713,137.8723" id="Fill-106" fill="#243647"></path>
                <path d="M155.1703,141.2375 C154.6983,141.2395 154.2533,141.1545 153.8333,140.9825 C153.4143,140.8095 153.0563,140.5735 152.7543,140.2765 C152.4533,139.9775 152.2173,139.6205 152.0423,139.2025 C151.8673,138.7855 151.7793,138.3425 151.7773,137.8745 C151.7743,137.4065 151.8593,136.9655 152.0293,136.5505 C152.2003,136.1345 152.4353,135.7795 152.7323,135.4825 C153.0313,135.1855 153.3903,134.9505 153.8093,134.7785 C154.2293,134.6055 154.6763,134.5175 155.1513,134.5155 C155.9723,134.5115 156.6783,134.7475 157.2703,135.2225 C157.8603,135.6975 158.2363,136.3285 158.3983,137.1135 L156.6893,137.1215 C156.5493,136.8075 156.3423,136.5645 156.0693,136.3905 C155.7963,136.2175 155.4883,136.1315 155.1473,136.1335 C154.6833,136.1345 154.2953,136.3025 153.9843,136.6365 C153.6733,136.9695 153.5193,137.3815 153.5213,137.8725 C153.5233,138.3635 153.6823,138.7785 153.9983,139.1165 C154.3153,139.4545 154.7023,139.6225 155.1633,139.6205 C155.5123,139.6185 155.8183,139.5255 156.0833,139.3405 C156.3463,139.1545 156.5503,138.8915 156.6943,138.5495 L158.4273,138.5415 C158.2803,139.3435 157.9083,139.9925 157.3113,140.4885 C156.7123,140.9845 155.9993,141.2345 155.1703,141.2375" id="Fill-108" fill="#243647"></path>
                <path d="M162.644,139.4949 L163.427,139.4909 L163.434,141.0219 L162.214,141.0279 C161.516,141.0309 160.963,140.8309 160.556,140.4279 C160.15,140.0249 159.945,139.4709 159.942,138.7649 L159.929,136.0539 L158.779,136.0589 L158.777,135.6909 L161.28,133.0029 L161.608,133.0019 L161.616,134.6649 L163.371,134.6569 L163.376,136.0379 L161.651,136.0459 L161.662,138.5269 C161.664,138.8379 161.748,139.0769 161.917,139.2449 C162.087,139.4129 162.33,139.4959 162.644,139.4949" id="Fill-110" fill="#243647"></path>
                <path d="M53.8295,362.4553 C54.1785,362.4543 54.4615,362.3413 54.6795,362.1183 C54.8965,361.8943 55.0045,361.6103 55.0035,361.2643 C55.0015,360.9193 54.8915,360.6373 54.6745,360.4173 C54.4565,360.1973 54.1715,360.0883 53.8185,360.0903 L52.5065,360.0963 L52.5175,362.4613 L53.8295,362.4553 Z M53.8915,358.4323 C54.4355,358.4303 54.9315,358.5493 55.3745,358.7913 C55.8195,359.0333 56.1695,359.3713 56.4265,359.8053 C56.6835,360.2393 56.8135,360.7233 56.8155,361.2563 C56.8195,362.0693 56.5445,362.7473 55.9905,363.2883 C55.4365,363.8303 54.7455,364.1023 53.9175,364.1063 L52.5245,364.1133 L52.5365,366.6913 L50.7525,366.6993 L50.7145,358.4463 L53.8915,358.4323 Z" id="Fill-112" fill="#243647"></path>
                <path d="M61.185,360.2526 L61.749,360.2506 L61.757,361.8726 L61.014,361.8766 C60.531,361.8786 60.185,361.9946 59.977,362.2236 C59.769,362.4526 59.666,362.8286 59.668,363.3496 L59.683,366.6586 L57.962,366.6666 L57.934,360.3016 L59.033,360.2966 L59.342,361.0786 C59.777,360.5316 60.391,360.2556 61.185,360.2526" id="Fill-114" fill="#243647"></path>
                <path d="M65.4731,361.5568 C65.0931,361.5588 64.7711,361.6658 64.5071,361.8778 C64.2441,362.0898 64.0621,362.3868 63.9641,362.7658 L67.0491,362.7528 C66.9281,362.3658 66.7331,362.0698 66.4611,361.8628 C66.1901,361.6578 65.8601,361.5558 65.4731,361.5568 M68.7731,363.4118 C68.7741,363.5848 68.7631,363.7538 68.7411,363.9188 L63.9241,363.9408 C63.9981,364.3738 64.1731,364.7058 64.4501,364.9368 C64.7251,365.1678 65.0721,365.2828 65.4901,365.2808 C65.7851,365.2788 66.0501,365.2128 66.2851,365.0808 C66.5211,364.9498 66.7031,364.7678 66.8321,364.5368 L68.6401,364.5298 C68.4121,365.2248 68.0161,365.7778 67.4501,366.1888 C66.8841,366.5998 66.2331,366.8078 65.4961,366.8108 C64.8781,366.8138 64.3171,366.6698 63.8111,366.3788 C63.3051,366.0868 62.9081,365.6848 62.6181,365.1728 C62.3271,364.6598 62.1811,364.0908 62.1781,363.4658 C62.1751,362.8358 62.3161,362.2638 62.5991,361.7478 C62.8821,361.2328 63.2761,360.8278 63.7791,360.5348 C64.2821,360.2408 64.8441,360.0918 65.4661,360.0888 C66.1031,360.0868 66.6751,360.2348 67.1831,360.5338 C67.6911,360.8318 68.0821,361.2348 68.3571,361.7398 C68.6311,362.2448 68.7701,362.8028 68.7731,363.4118" id="Fill-116" fill="#243647"></path>
                <path d="M72.0912,364.6662 C72.4202,364.9972 72.8342,365.1612 73.3332,365.1582 C73.8322,365.1562 74.2442,364.9892 74.5712,364.6582 C74.8982,364.3272 75.0602,363.9102 75.0582,363.4072 C75.0552,362.9042 74.8892,362.4892 74.5602,362.1602 C74.2312,361.8322 73.8172,361.6682 73.3182,361.6712 C72.8192,361.6732 72.4062,361.8412 72.0792,362.1742 C71.7532,362.5082 71.5912,362.9242 71.5932,363.4222 C71.5952,363.9212 71.7612,364.3362 72.0912,364.6662 M73.4542,360.0532 C74.0832,360.0502 74.6532,360.1932 75.1622,360.4802 C75.6722,360.7682 76.0712,361.1672 76.3622,361.6802 C76.6532,362.1932 76.7982,362.7662 76.8012,363.3992 C76.8042,364.0322 76.6632,364.6072 76.3772,365.1242 C76.0922,365.6422 75.6952,366.0472 75.1892,366.3412 C74.6822,366.6352 74.1132,366.7832 73.4852,366.7862 C72.8402,366.7892 72.2562,366.6142 71.7332,366.2592 L71.7442,368.9002 L70.0242,368.9082 L69.9852,360.2472 L71.1182,360.2422 L71.4142,360.8222 C71.9842,360.3132 72.6632,360.0572 73.4542,360.0532" id="Fill-118" fill="#243647"></path>
                <path d="M79.8539,364.6198 C80.1829,364.9498 80.5979,365.1148 81.0969,365.1118 C81.5949,365.1098 82.0069,364.9428 82.3339,364.6118 C82.6619,364.2798 82.8239,363.8628 82.8209,363.3608 C82.8189,362.8578 82.6529,362.4418 82.3229,362.1138 C81.9939,361.7858 81.5799,361.6218 81.0809,361.6248 C80.5829,361.6268 80.1689,361.7948 79.8419,362.1278 C79.5159,362.4608 79.3539,362.8778 79.3569,363.3758 C79.3589,363.8748 79.5249,364.2888 79.8539,364.6198 Z M83.2089,360.1758 L84.4989,360.1708 L84.5269,366.5348 L83.1749,366.5408 L83.0219,365.9728 C82.4459,366.4818 81.7589,366.7378 80.9659,366.7418 C80.3359,366.7448 79.7659,366.6008 79.2539,366.3108 C78.7429,366.0218 78.3419,365.6198 78.0519,365.1058 C77.7619,364.5908 77.6159,364.0168 77.6129,363.3838 C77.6099,362.7548 77.7509,362.1828 78.0369,361.6698 C78.3219,361.1568 78.7189,360.7538 79.2279,360.4618 C79.7369,360.1698 80.3059,360.0218 80.9359,360.0188 C81.7449,360.0158 82.4419,360.2718 83.0279,360.7868 L83.2089,360.1758 Z" id="Fill-120" fill="#243647"></path>
                <path d="M89.4018,360.1252 L89.9648,360.1232 L89.9728,361.7452 L89.2308,361.7492 C88.7468,361.7512 88.4018,361.8672 88.1928,362.0962 C87.9848,362.3252 87.8818,362.7012 87.8838,363.2222 L87.8998,366.5312 L86.1778,366.5392 L86.1498,360.1742 L87.2498,360.1692 L87.5578,360.9512 C87.9928,360.4042 88.6068,360.1282 89.4018,360.1252" id="Fill-122" fill="#243647"></path>
                <path d="M93.6898,361.4294 C93.3098,361.4314 92.9878,361.5384 92.7238,361.7504 C92.4608,361.9624 92.2788,362.2584 92.1808,362.6384 L95.2658,362.6254 C95.1448,362.2384 94.9498,361.9414 94.6778,361.7354 C94.4068,361.5294 94.0778,361.4284 93.6898,361.4294 M96.9898,363.2844 C96.9908,363.4574 96.9798,363.6264 96.9578,363.7914 L92.1408,363.8134 C92.2148,364.2464 92.3898,364.5784 92.6668,364.8094 C92.9418,365.0404 93.2888,365.1554 93.7068,365.1534 C94.0018,365.1514 94.2668,365.0854 94.5018,364.9534 C94.7378,364.8224 94.9198,364.6404 95.0498,364.4094 L96.8568,364.4024 C96.6288,365.0974 96.2338,365.6504 95.6668,366.0614 C95.1008,366.4724 94.4498,366.6804 93.7128,366.6834 C93.0958,366.6864 92.5338,366.5424 92.0278,366.2514 C91.5218,365.9594 91.1248,365.5574 90.8348,365.0454 C90.5438,364.5324 90.3978,363.9634 90.3948,363.3374 C90.3918,362.7084 90.5328,362.1364 90.8158,361.6204 C91.0988,361.1054 91.4928,360.7004 91.9968,360.4074 C92.4998,360.1134 93.0608,359.9644 93.6828,359.9614 C94.3198,359.9584 94.8918,360.1074 95.3998,360.4064 C95.9078,360.7044 96.2988,361.1074 96.5738,361.6124 C96.8478,362.1174 96.9868,362.6754 96.9898,363.2844" id="Fill-124" fill="#243647"></path>
                <path d="M103.9428,364.9284 L104.7258,364.9244 L104.7328,366.4554 L103.5128,366.4614 C102.8148,366.4644 102.2618,366.2644 101.8548,365.8614 C101.4488,365.4584 101.2448,364.9044 101.2408,364.1984 L101.2288,361.4874 L100.0778,361.4924 L100.0758,361.1244 L102.5788,358.4364 L102.9068,358.4354 L102.9148,360.0984 L104.6698,360.0904 L104.6758,361.4714 L102.9498,361.4794 L102.9608,363.9604 C102.9628,364.2704 103.0468,364.5104 103.2168,364.6784 C103.3858,364.8464 103.6288,364.9294 103.9428,364.9284" id="Fill-126" fill="#243647"></path>
                <path d="M109.5199,359.9192 C110.2369,359.9162 110.8069,360.1512 111.2299,360.6252 C111.6519,361.0992 111.8649,361.7432 111.8689,362.5562 L111.8859,366.4232 L110.1659,366.4312 L110.1489,362.8512 C110.1469,362.3682 110.0559,362.0092 109.8759,361.7762 C109.6969,361.5432 109.4159,361.4272 109.0319,361.4292 C108.5979,361.4312 108.2529,361.5822 107.9949,361.8802 C107.7379,362.1782 107.6099,362.5852 107.6119,363.0992 L107.6269,366.4422 L105.9069,366.4502 L105.8679,357.7892 L107.5879,357.7812 L107.6009,360.6702 C108.1179,360.1732 108.7559,359.9222 109.5199,359.9192" id="Fill-128" fill="#243647"></path>
                <path d="M116.3178,361.3274 C115.9378,361.3294 115.6158,361.4354 115.3518,361.6484 C115.0888,361.8604 114.9068,362.1564 114.8088,362.5364 L117.8938,362.5224 C117.7728,362.1364 117.5778,361.8394 117.3058,361.6334 C117.0348,361.4274 116.7058,361.3254 116.3178,361.3274 M119.6178,363.1824 C119.6188,363.3554 119.6078,363.5244 119.5858,363.6894 L114.7688,363.7114 C114.8428,364.1444 115.0178,364.4764 115.2948,364.7074 C115.5698,364.9384 115.9168,365.0524 116.3348,365.0504 C116.6298,365.0494 116.8948,364.9824 117.1298,364.8514 C117.3658,364.7204 117.5478,364.5384 117.6778,364.3074 L119.4848,364.2994 C119.2568,364.9954 118.8618,365.5484 118.2948,365.9594 C117.7288,366.3704 117.0778,366.5784 116.3408,366.5814 C115.7238,366.5844 115.1618,366.4404 114.6558,366.1484 C114.1498,365.8574 113.7528,365.4554 113.4628,364.9434 C113.1718,364.4304 113.0258,363.8614 113.0228,363.2354 C113.0198,362.6064 113.1608,362.0344 113.4438,361.5184 C113.7268,361.0034 114.1208,360.5984 114.6248,360.3054 C115.1278,360.0114 115.6888,359.8624 116.3108,359.8594 C116.9478,359.8564 117.5198,360.0054 118.0278,360.3044 C118.5358,360.6024 118.9268,361.0044 119.2018,361.5104 C119.4758,362.0154 119.6148,362.5734 119.6178,363.1824" id="Fill-130" fill="#243647"></path>
                <polygon id="Fill-132" fill="#243647" points="129.0844 358.0925 129.0924 359.7505 126.7964 359.7605 126.8254 366.3555 125.0414 366.3635 125.0124 359.7685 122.7214 359.7795 122.7144 358.1215"></polygon>
                <path d="M132.1898,361.2556 C131.8098,361.2576 131.4878,361.3646 131.2238,361.5766 C130.9608,361.7886 130.7798,362.0846 130.6818,362.4646 L133.7658,362.4516 C133.6458,362.0646 133.4498,361.7676 133.1778,361.5616 C132.9068,361.3556 132.5778,361.2546 132.1898,361.2556 M135.4898,363.1106 C135.4908,363.2836 135.4798,363.4526 135.4578,363.6176 L130.6408,363.6396 C130.7158,364.0726 130.8908,364.4046 131.1668,364.6356 C131.4418,364.8666 131.7888,364.9806 132.2068,364.9786 C132.5018,364.9776 132.7668,364.9106 133.0028,364.7796 C133.2388,364.6486 133.4198,364.4666 133.5498,364.2356 L135.3568,364.2276 C135.1298,364.9236 134.7338,365.4766 134.1678,365.8876 C133.6008,366.2986 132.9498,366.5066 132.2128,366.5096 C131.5958,366.5126 131.0348,366.3686 130.5278,366.0776 C130.0228,365.7856 129.6248,365.3836 129.3348,364.8716 C129.0438,364.3586 128.8978,363.7896 128.8948,363.1636 C128.8918,362.5346 129.0328,361.9626 129.3158,361.4466 C129.5998,360.9316 129.9928,360.5266 130.4968,360.2336 C130.9998,359.9396 131.5618,359.7906 132.1828,359.7876 C132.8198,359.7846 133.3928,359.9336 133.8998,360.2326 C134.4078,360.5306 134.7988,360.9326 135.0738,361.4386 C135.3488,361.9436 135.4878,362.5016 135.4898,363.1106" id="Fill-134" fill="#243647"></path>
                <path d="M138.5365,364.3547 C138.8665,364.6857 139.2805,364.8497 139.7795,364.8467 C140.2775,364.8447 140.6905,364.6777 141.0165,364.3467 C141.3445,364.0147 141.5065,363.5977 141.5045,363.0957 C141.5015,362.5927 141.3355,362.1767 141.0065,361.8487 C140.6765,361.5207 140.2625,361.3567 139.7645,361.3597 C139.2655,361.3617 138.8515,361.5297 138.5255,361.8627 C138.1995,362.1957 138.0375,362.6127 138.0395,363.1107 C138.0415,363.6097 138.2075,364.0237 138.5365,364.3547 Z M141.8915,359.9117 L143.1815,359.9057 L143.2095,366.2707 L141.8575,366.2757 L141.7055,365.7077 C141.1285,366.2167 140.4425,366.4727 139.6485,366.4767 C139.0185,366.4797 138.4485,366.3357 137.9365,366.0457 C137.4265,365.7567 137.0245,365.3547 136.7345,364.8407 C136.4445,364.3257 136.2985,363.7517 136.2965,363.1187 C136.2935,362.4897 136.4335,361.9177 136.7205,361.4047 C137.0055,360.8917 137.4015,360.4887 137.9105,360.1967 C138.4195,359.9047 138.9885,359.7567 139.6185,359.7537 C140.4275,359.7507 141.1255,360.0067 141.7115,360.5217 L141.8915,359.9117 Z" id="Fill-136" fill="#243647"></path>
                <path d="M152.0717,359.7273 C152.7317,359.7243 153.2707,359.9553 153.6887,360.4213 C154.1077,360.8883 154.3187,361.4933 154.3217,362.2373 L154.3407,366.2313 L152.6197,366.2393 L152.6027,362.5333 C152.6007,362.1073 152.5167,361.7843 152.3537,361.5643 C152.1887,361.3443 151.9517,361.2353 151.6407,361.2373 C151.2577,361.2383 150.9587,361.3773 150.7427,361.6523 C150.5267,361.9273 150.4207,362.3123 150.4237,362.8073 L150.4377,366.2493 L148.7627,366.2563 L148.7467,362.5503 C148.7447,362.1243 148.6647,361.8013 148.5037,361.5813 C148.3427,361.3623 148.1097,361.2523 147.8027,361.2543 C147.4117,361.2563 147.1067,361.3943 146.8897,361.6693 C146.6727,361.9453 146.5647,362.3303 146.5667,362.8253 L146.5827,366.2663 L144.8617,366.2743 L144.8327,359.9093 L146.0297,359.9033 L146.3557,360.6903 C146.5807,360.4023 146.8607,360.1723 147.1957,360.0023 C147.5307,359.8313 147.8827,359.7463 148.2507,359.7443 C148.6537,359.7423 149.0167,359.8303 149.3397,360.0073 C149.6627,360.1843 149.9177,360.4333 150.1027,360.7543 C150.3237,360.4393 150.6067,360.1893 150.9537,360.0053 C151.3007,359.8213 151.6737,359.7283 152.0717,359.7273" id="Fill-138" fill="#243647"></path>
                <polygon id="Fill-140" fill="#748494" points="81.9565 383.3381 81.9605 384.1021 81.2265 384.1061 81.2325 385.5831 80.3875 385.5871 80.3805 384.1091 76.8035 384.1261 76.8025 383.9251 79.2365 378.5991 80.1405 378.5951 77.9705 383.3561 80.3865 383.3451 80.5195 381.1841 81.2135 381.1811 81.2235 383.3411"></polygon>
                <polygon id="Fill-142" fill="#748494" points="82.9672 383.0715 82.9632 382.2095 86.2982 382.1945 86.3022 383.0565"></polygon>
                <path d="M90.019,379.1706 C89.612,379.1726 89.283,379.2786 89.03,379.4906 C88.778,379.7026 88.653,379.9746 88.654,380.3056 C88.656,380.6476 88.784,380.9246 89.038,381.1356 C89.291,381.3466 89.623,381.4506 90.03,381.4486 C90.429,381.4476 90.756,381.3396 91.007,381.1266 C91.26,380.9136 91.386,380.6356 91.384,380.2936 C91.382,379.9616 91.254,379.6916 91,379.4826 C90.747,379.2726 90.419,379.1696 90.019,379.1706 M90.045,384.8976 C90.524,384.8956 90.912,384.7686 91.207,384.5176 C91.504,384.2666 91.652,383.9426 91.651,383.5456 C91.649,383.1386 91.498,382.8096 91.199,382.5596 C90.901,382.3096 90.511,382.1856 90.033,382.1876 C89.56,382.1906 89.176,382.3176 88.879,382.5696 C88.583,382.8226 88.436,383.1526 88.438,383.5606 C88.44,383.9566 88.589,384.2796 88.886,384.5276 C89.183,384.7756 89.57,384.8996 90.045,384.8976 M91.535,381.7916 C91.836,381.9536 92.076,382.1886 92.253,382.4956 C92.431,382.8026 92.52,383.1416 92.522,383.5106 C92.525,384.1366 92.295,384.6516 91.833,385.0556 C91.373,385.4596 90.777,385.6636 90.048,385.6666 C89.306,385.6706 88.707,385.4766 88.252,385.0846 C87.797,384.6936 87.568,384.1766 87.566,383.5326 C87.564,383.1736 87.652,382.8386 87.828,382.5286 C88.004,382.2186 88.245,381.9776 88.548,381.8046 C88.322,381.6446 88.141,381.4316 88.006,381.1626 C87.872,380.8956 87.803,380.6106 87.802,380.3096 C87.8,379.7586 88.003,379.3086 88.412,378.9606 C88.821,378.6106 89.355,378.4356 90.016,378.4326 C90.676,378.4286 91.211,378.5986 91.622,378.9406 C92.032,379.2826 92.238,379.7326 92.241,380.2896 C92.242,380.5976 92.178,380.8866 92.05,381.1576 C91.921,381.4286 91.749,381.6396 91.535,381.7916" id="Fill-144" fill="#748494"></path>
                <polygon id="Fill-146" fill="#748494" points="103.4447 379.8078 104.3477 379.8038 102.4397 385.4878 101.7117 385.4908 100.0927 381.6298 98.5047 385.5058 97.7807 385.5088 95.8367 379.8428 96.7697 379.8378 98.1997 384.0138 99.9217 379.9118 100.2437 379.9098 102.0117 384.0328"></polygon>
                <path d="M107.809,380.5119 C107.296,380.5139 106.863,380.6639 106.509,380.9609 C106.154,381.2589 105.932,381.6559 105.842,382.1529 L109.783,382.1349 C109.684,381.6319 109.457,381.2359 109.102,380.9449 C108.746,380.6539 108.316,380.5099 107.809,380.5119 M110.677,382.6379 C110.678,382.7409 110.673,382.8469 110.663,382.9569 L105.825,382.9789 C105.896,383.5049 106.114,383.9269 106.48,384.2429 C106.845,384.5589 107.294,384.7169 107.829,384.7139 C108.218,384.7129 108.565,384.6239 108.87,384.4499 C109.172,384.2759 109.413,384.0339 109.589,383.7259 L110.534,383.7219 C110.293,384.3079 109.937,384.7639 109.464,385.0919 C108.993,385.4189 108.449,385.5839 107.832,385.5859 C107.292,385.5889 106.8,385.4629 106.356,385.2079 C105.912,384.9539 105.563,384.6009 105.309,384.1509 C105.056,383.6999 104.928,383.1969 104.925,382.6389 C104.923,382.0849 105.046,381.5809 105.295,381.1259 C105.545,380.6719 105.891,380.3149 106.332,380.0569 C106.774,379.7979 107.265,379.6679 107.806,379.6649 C108.367,379.6629 108.867,379.7939 109.306,380.0589 C109.745,380.3239 110.082,380.6819 110.319,381.1349 C110.555,381.5869 110.675,382.0879 110.677,382.6379" id="Fill-148" fill="#748494"></path>
                <path d="M114.4486,380.4821 C113.9356,380.4841 113.5026,380.6341 113.1476,380.9311 C112.7936,381.2291 112.5706,381.6261 112.4806,382.1221 L116.4226,382.1051 C116.3236,381.6021 116.0966,381.2061 115.7416,380.9151 C115.3856,380.6241 114.9556,380.4801 114.4486,380.4821 M117.3166,382.6081 C117.3166,382.7111 117.3116,382.8171 117.3026,382.9271 L112.4646,382.9481 C112.5356,383.4751 112.7536,383.8971 113.1196,384.2131 C113.4846,384.5291 113.9336,384.6871 114.4686,384.6841 C114.8576,384.6821 115.2046,384.5941 115.5086,384.4201 C115.8116,384.2461 116.0526,384.0041 116.2286,383.6961 L117.1736,383.6911 C116.9326,384.2781 116.5766,384.7341 116.1036,385.0621 C115.6316,385.3881 115.0886,385.5531 114.4716,385.5561 C113.9316,385.5591 113.4396,385.4331 112.9956,385.1781 C112.5516,384.9231 112.2026,384.5711 111.9486,384.1211 C111.6946,383.6701 111.5676,383.1661 111.5646,382.6081 C111.5626,382.0551 111.6856,381.5501 111.9346,381.0961 C112.1836,380.6421 112.5306,380.2851 112.9716,380.0261 C113.4136,379.7681 113.9046,379.6371 114.4446,379.6351 C115.0066,379.6321 115.5066,379.7641 115.9456,380.0281 C116.3846,380.2941 116.7216,380.6521 116.9586,381.1041 C117.1946,381.5561 117.3136,382.0581 117.3166,382.6081" id="Fill-150" fill="#748494"></path>
                <polygon id="Fill-152" fill="#748494" points="122.4096 385.3972 120.4526 382.8612 119.6426 382.8652 119.6536 385.4102 118.7616 385.4142 118.7256 377.7122 119.6196 377.7082 119.6386 382.0392 120.4646 382.0352 122.2036 379.7232 123.2916 379.7182 121.2356 382.4472 123.5276 385.3922"></polygon>
                <path d="M126.2065,385.5031 C125.5355,385.5061 124.9965,385.3411 124.5875,385.0081 C124.1795,384.6741 123.9615,384.2221 123.9355,383.6511 L124.8085,383.6471 C124.8335,383.9751 124.9755,384.2301 125.2335,384.4101 C125.4935,384.5901 125.8265,384.6791 126.2335,384.6771 C126.6265,384.6751 126.9465,384.5951 127.1945,384.4371 C127.4415,384.2781 127.5645,384.0621 127.5635,383.7891 C127.5625,383.6821 127.5455,383.5861 127.5115,383.5021 C127.4765,383.4161 127.4215,383.3431 127.3465,383.2841 C127.2695,383.2241 127.1945,383.1741 127.1195,383.1311 C127.0435,383.0891 126.9395,383.0511 126.8085,383.0171 C126.6765,382.9831 126.5635,382.9581 126.4695,382.9391 C126.3755,382.9201 126.2475,382.8981 126.0865,382.8721 C125.9605,382.8521 125.8615,382.8351 125.7915,382.8211 C125.7215,382.8081 125.6255,382.7881 125.5045,382.7611 C125.3825,382.7341 125.2855,382.7091 125.2135,382.6861 C125.1425,382.6621 125.0525,382.6321 124.9465,382.5951 C124.8405,382.5571 124.7555,382.5171 124.6915,382.4721 C124.6285,382.4281 124.5575,382.3771 124.4775,382.3171 C124.3985,382.2571 124.3365,382.1921 124.2895,382.1201 C124.2435,382.0491 124.1975,381.9691 124.1535,381.8821 C124.1075,381.7951 124.0755,381.6971 124.0565,381.5871 C124.0375,381.4791 124.0275,381.3601 124.0265,381.2331 C124.0245,380.7451 124.2205,380.3481 124.6115,380.0441 C125.0035,379.7391 125.5195,379.5851 126.1595,379.5821 C126.7995,379.5791 127.3115,379.7351 127.6985,380.0501 C128.0845,380.3641 128.2875,380.7911 128.3065,381.3271 L127.4605,381.3311 C127.4405,381.0241 127.3175,380.7871 127.0875,380.6221 C126.8575,380.4581 126.5425,380.3761 126.1425,380.3781 C125.7595,380.3791 125.4545,380.4551 125.2295,380.6051 C125.0045,380.7541 124.8935,380.9531 124.8945,381.1991 C124.8945,381.2951 124.9095,381.3811 124.9405,381.4581 C124.9725,381.5351 125.0235,381.6001 125.0965,381.6551 C125.1685,381.7091 125.2395,381.7551 125.3115,381.7931 C125.3845,381.8301 125.4825,381.8631 125.6095,381.8941 C125.7365,381.9241 125.8445,381.9471 125.9345,381.9641 C126.0225,381.9811 126.1475,382.0011 126.3085,382.0241 C126.8695,382.1141 127.2725,382.2101 127.5165,382.3111 C128.0775,382.5451 128.3845,382.9571 128.4345,383.5481 C128.4415,383.6131 128.4455,383.6781 128.4455,383.7431 C128.4485,384.2741 128.2445,384.6991 127.8365,385.0191 C127.4265,385.3381 126.8845,385.5001 126.2065,385.5031" id="Fill-154" fill="#748494"></path>
                <polygon id="Fill-156" fill="#243647" points="63.4574 586.3469 60.3154 586.3609 60.3234 588.1739 63.1604 588.1609 63.1684 589.7789 60.3314 589.7909 60.3454 592.9509 58.5614 592.9589 58.5234 584.7059 63.4494 584.6839"></polygon>
                <path d="M64.7006,592.9309 L64.6726,586.5659 L66.3926,586.5579 L66.4226,592.9229 L64.7006,592.9309 Z M64.6686,585.7199 L64.6616,584.1199 L66.3766,584.1129 L66.3836,585.7119 L64.6686,585.7199 Z" id="Fill-158" fill="#243647"></path>
                <path d="M71.2904,586.5017 L71.8544,586.4997 L71.8624,588.1217 L71.1204,588.1257 C70.6364,588.1267 70.2904,588.2427 70.0824,588.4727 C69.8744,588.7017 69.7714,589.0777 69.7734,589.5987 L69.7894,592.9077 L68.0674,592.9157 L68.0394,586.5507 L69.1384,586.5457 L69.4474,587.3267 C69.8824,586.7807 70.4964,586.5047 71.2904,586.5017" id="Fill-160" fill="#243647"></path>
                <path d="M75.0736,593.0622 C74.2746,593.0662 73.6306,592.8602 73.1386,592.4472 C72.6486,592.0332 72.3986,591.4842 72.3916,590.8012 L74.0666,590.7932 C74.0726,591.0662 74.1726,591.2742 74.3656,591.4192 C74.5606,591.5642 74.8176,591.6362 75.1356,591.6352 C75.3886,591.6342 75.6016,591.5772 75.7766,591.4652 C75.9506,591.3532 76.0376,591.1952 76.0366,590.9922 C76.0356,590.8882 76.0056,590.7982 75.9456,590.7222 C75.8856,590.6452 75.7926,590.5812 75.6656,590.5302 C75.5396,590.4792 75.4146,590.4392 75.2916,590.4112 C75.1676,590.3832 75.0076,590.3522 74.8066,590.3182 C74.6266,590.2892 74.4746,590.2612 74.3516,590.2372 C74.2286,590.2122 74.0806,590.1762 73.9056,590.1262 C73.7306,590.0782 73.5846,590.0232 73.4656,589.9652 C73.3446,589.9062 73.2196,589.8272 73.0866,589.7282 C72.9536,589.6282 72.8476,589.5192 72.7686,589.3982 C72.6896,589.2772 72.6236,589.1312 72.5716,588.9582 C72.5186,588.7862 72.4916,588.5962 72.4906,588.3892 C72.4876,587.7872 72.7216,587.2952 73.1916,586.9162 C73.6626,586.5362 74.2786,586.3442 75.0436,586.3402 C75.8096,586.3372 76.4266,586.5292 76.8926,586.9162 C77.3586,587.3042 77.5946,587.8152 77.6016,588.4532 L75.9676,588.4602 C75.9626,588.2102 75.8766,588.0232 75.7086,587.8972 C75.5416,587.7712 75.3056,587.7092 75.0026,587.7102 C74.7386,587.7112 74.5306,587.7682 74.3786,587.8802 C74.2276,587.9922 74.1526,588.1402 74.1536,588.3242 C74.1546,588.3932 74.1666,588.4562 74.1916,588.5112 C74.2176,588.5662 74.2616,588.6142 74.3246,588.6542 C74.3876,588.6942 74.4476,588.7282 74.5046,588.7572 C74.5596,588.7862 74.6436,588.8142 74.7576,588.8422 C74.8706,588.8712 74.9636,588.8922 75.0336,588.9042 C75.1046,588.9172 75.2136,588.9372 75.3596,588.9632 C75.9776,589.0722 76.4236,589.1852 76.6956,589.3022 C77.3846,589.6062 77.7296,590.1422 77.7336,590.9092 C77.7366,591.5582 77.4946,592.0782 77.0096,592.4692 C76.5246,592.8612 75.8786,593.0592 75.0736,593.0622" id="Fill-162" fill="#243647"></path>
                <path d="M82.0453,591.3215 L82.8283,591.3185 L82.8353,592.8485 L81.6153,592.8545 C80.9163,592.8575 80.3643,592.6575 79.9573,592.2555 C79.5513,591.8515 79.3463,591.2975 79.3433,590.5915 L79.3303,587.8815 L78.1793,587.8865 L78.1783,587.5175 L80.6813,584.8305 L81.0093,584.8285 L81.0173,586.4915 L82.7723,586.4845 L82.7773,587.8655 L81.0523,587.8735 L81.0633,590.3535 C81.0643,590.6645 81.1493,590.9045 81.3183,591.0715 C81.4883,591.2395 81.7313,591.3225 82.0453,591.3215" id="Fill-164" fill="#243647"></path>
                <path d="M86.8236,592.8308 L86.7946,586.4658 L88.5146,586.4578 L88.5446,592.8228 L86.8236,592.8308 Z M86.7906,585.6208 L86.7836,584.0198 L88.4986,584.0128 L88.5056,585.6128 L86.7906,585.6208 Z" id="Fill-166" fill="#243647"></path>
                <path d="M93.2904,591.2707 L94.0734,591.2677 L94.0804,592.7977 L92.8604,592.8037 C92.1624,592.8067 91.6094,592.6067 91.2024,592.2047 C90.7964,591.8007 90.5914,591.2467 90.5884,590.5407 L90.5764,587.8307 L89.4254,587.8347 L89.4234,587.4667 L91.9264,584.7797 L92.2544,584.7777 L92.2624,586.4407 L94.0174,586.4337 L94.0224,587.8147 L92.2974,587.8227 L92.3084,590.3027 C92.3104,590.6137 92.3944,590.8527 92.5634,591.0207 C92.7334,591.1887 92.9764,591.2717 93.2904,591.2707" id="Fill-168" fill="#243647"></path>
                <path d="M98.057,587.7043 C97.677,587.7063 97.355,587.8123 97.091,588.0253 C96.828,588.2373 96.647,588.5333 96.549,588.9133 L99.633,588.9003 C99.513,588.5133 99.317,588.2163 99.045,588.0103 C98.774,587.8043 98.445,587.7033 98.057,587.7043 M101.357,589.5593 C101.358,589.7323 101.347,589.9013 101.325,590.0663 L96.508,590.0883 C96.582,590.5213 96.758,590.8533 97.034,591.0843 C97.309,591.3153 97.656,591.4293 98.074,591.4273 C98.369,591.4263 98.634,591.3593 98.869,591.2283 C99.106,591.0973 99.287,590.9153 99.417,590.6843 L101.224,590.6763 C100.997,591.3723 100.601,591.9253 100.035,592.3363 C99.468,592.7473 98.817,592.9553 98.08,592.9583 C97.463,592.9613 96.902,592.8173 96.395,592.5253 C95.89,592.2343 95.492,591.8323 95.202,591.3203 C94.911,590.8073 94.765,590.2383 94.762,589.6123 C94.759,588.9833 94.9,588.4113 95.183,587.8953 C95.467,587.3803 95.86,586.9753 96.364,586.6823 C96.867,586.3883 97.429,586.2393 98.05,586.2363 C98.687,586.2333 99.259,586.3823 99.767,586.6813 C100.275,586.9793 100.666,587.3813 100.941,587.8873 C101.216,588.3923 101.354,588.9503 101.357,589.5593" id="Fill-170" fill="#243647"></path>
                <path d="M105.8207,586.3454 L106.3847,586.3434 L106.3917,587.9664 L105.6497,587.9694 C105.1667,587.9714 104.8207,588.0874 104.6117,588.3164 C104.4047,588.5454 104.3007,588.9214 104.3027,589.4424 L104.3187,592.7514 L102.5977,592.7594 L102.5687,586.3944 L103.6687,586.3894 L103.9767,587.1714 C104.4117,586.6244 105.0257,586.3494 105.8207,586.3454" id="Fill-172" fill="#243647"></path>
                <path d="M109.0541,590.7824 C109.3841,591.1124 109.7981,591.2774 110.2971,591.2744 C110.7951,591.2724 111.2081,591.1054 111.5341,590.7744 C111.8621,590.4424 112.0241,590.0254 112.0221,589.5234 C112.0191,589.0204 111.8531,588.6044 111.5241,588.2764 C111.1941,587.9484 110.7801,587.7844 110.2821,587.7874 C109.7831,587.7894 109.3691,587.9574 109.0431,588.2904 C108.7171,588.6234 108.5551,589.0404 108.5571,589.5384 C108.5591,590.0374 108.7251,590.4514 109.0541,590.7824 Z M112.4091,586.3384 L113.6991,586.3334 L113.7271,592.6974 L112.3751,592.7034 L112.2231,592.1354 C111.6461,592.6444 110.9601,592.9004 110.1661,592.9044 C109.5361,592.9074 108.9661,592.7634 108.4541,592.4734 C107.9431,592.1844 107.5421,591.7834 107.2521,591.2684 C106.9621,590.7534 106.8161,590.1794 106.8141,589.5464 C106.8111,588.9174 106.9511,588.3454 107.2381,587.8324 C107.5231,587.3194 107.9191,586.9164 108.4281,586.6244 C108.9371,586.3324 109.5061,586.1844 110.1361,586.1814 C110.9451,586.1784 111.6431,586.4344 112.2291,586.9494 L112.4091,586.3384 Z" id="Fill-174" fill="#243647"></path>
                <path d="M118.4799,591.1569 L119.2629,591.1539 L119.2699,592.6839 L118.0499,592.6899 C117.3509,592.6929 116.7989,592.4929 116.3919,592.0909 C115.9859,591.6869 115.7809,591.1329 115.7779,590.4269 L115.7649,587.7169 L114.6139,587.7209 L114.6129,587.3529 L117.1159,584.6659 L117.4439,584.6639 L117.4519,586.3269 L119.2069,586.3199 L119.2119,587.7009 L117.4869,587.7089 L117.4979,590.1889 C117.4989,590.4999 117.5839,590.7389 117.7529,590.9069 C117.9229,591.0749 118.1659,591.1579 118.4799,591.1569" id="Fill-176" fill="#243647"></path>
                <path d="M120.4428,592.6789 L120.4148,586.3139 L122.1348,586.3059 L122.1638,592.6709 L120.4428,592.6789 Z M120.4108,585.4679 L120.4028,583.8679 L122.1188,583.8609 L122.1258,585.4609 L120.4108,585.4679 Z" id="Fill-178" fill="#243647"></path>
                <path d="M125.6029,590.7307 C125.9219,591.0537 126.3309,591.2137 126.8259,591.2117 C127.3199,591.2097 127.7259,591.0447 128.0429,590.7197 C128.3599,590.3947 128.5169,589.9737 128.5149,589.4597 C128.5119,588.9457 128.3509,588.5277 128.0319,588.2047 C127.7119,587.8817 127.3039,587.7217 126.8089,587.7237 C126.3149,587.7267 125.9089,587.8897 125.5909,588.2157 C125.2739,588.5417 125.1179,588.9607 125.1199,589.4757 C125.1229,589.9897 125.2829,590.4077 125.6029,590.7307 M126.8319,592.8287 C126.1839,592.8317 125.5959,592.6887 125.0699,592.3987 C124.5419,592.1097 124.1289,591.7087 123.8299,591.1957 C123.5299,590.6837 123.3789,590.1127 123.3759,589.4827 C123.3739,588.8467 123.5189,588.2717 123.8139,587.7577 C124.1089,587.2447 124.5189,586.8417 125.0429,586.5487 C125.5679,586.2577 126.1539,586.1097 126.8019,586.1067 C127.4469,586.1037 128.0319,586.2467 128.5589,586.5337 C129.0859,586.8207 129.4999,587.2207 129.8019,587.7337 C130.1039,588.2467 130.2549,588.8187 130.2579,589.4527 C130.2609,590.0817 130.1149,590.6537 129.8179,591.1687 C129.5209,591.6847 129.1099,592.0887 128.5849,592.3827 C128.0609,592.6777 127.4769,592.8257 126.8319,592.8287" id="Fill-180" fill="#243647"></path>
                <path d="M135.0951,586.0983 C135.8171,586.0953 136.3911,586.3333 136.8191,586.8123 C137.2461,587.2923 137.4631,587.9363 137.4661,588.7463 L137.4841,592.6023 L135.7631,592.6093 L135.7461,589.0303 C135.7421,588.0783 135.3701,587.6043 134.6301,587.6083 C134.1881,587.6103 133.8411,587.7603 133.5871,588.0583 C133.3331,588.3573 133.2071,588.7633 133.2101,589.2773 L133.2251,592.6213 L131.5041,592.6293 L131.4751,586.2643 L132.6561,586.2583 L132.9931,587.0453 C133.2381,586.7533 133.5411,586.5223 133.9081,586.3533 C134.2731,586.1853 134.6691,586.1003 135.0951,586.0983" id="Fill-182" fill="#243647"></path>
                <path d="M74.5131,614.5149 L77.5031,614.5009 L77.5071,615.3269 L72.8081,615.3479 L72.8061,615.0659 C73.6231,614.2009 74.2561,613.5159 74.7031,613.0129 C75.1511,612.5099 75.5021,612.0779 75.7571,611.7179 C76.0121,611.3579 76.1731,611.0799 76.2411,610.8839 C76.3081,610.6889 76.3411,610.4729 76.3401,610.2379 C76.3391,609.8819 76.2241,609.5949 75.9951,609.3769 C75.7671,609.1589 75.4681,609.0509 75.0981,609.0529 C74.7121,609.0549 74.4011,609.1669 74.1631,609.3899 C73.9271,609.6139 73.8101,609.9039 73.8111,610.2589 L73.8121,610.4289 L72.9501,610.4319 L72.9491,610.2629 C72.9461,609.6539 73.1431,609.1629 73.5371,608.7899 C73.9331,608.4169 74.4511,608.2299 75.0951,608.2269 C75.7181,608.2239 76.2261,608.4099 76.6181,608.7839 C77.0121,609.1589 77.2101,609.6419 77.2131,610.2339 C77.2141,610.4939 77.1851,610.7319 77.1231,610.9499 C77.0631,611.1669 76.9361,611.4379 76.7421,611.7619 C76.5491,612.0859 76.2771,612.4629 75.9271,612.8919 C75.5751,613.3209 75.1051,613.8619 74.5131,614.5149" id="Fill-184" fill="#748494"></path>
                <polygon id="Fill-186" fill="#748494" points="78.3842 612.8191 78.3802 611.9571 81.7162 611.9431 81.7202 612.8041"></polygon>
                <path d="M85.5951,610.9446 C86.1731,611.0176 86.6411,611.2556 86.9981,611.6596 C87.3571,612.0636 87.5361,612.5516 87.5391,613.1266 C87.5421,613.7876 87.3211,614.3326 86.8741,614.7636 C86.4281,615.1956 85.8691,615.4126 85.1991,615.4156 C84.5531,615.4186 84.0161,615.2186 83.5881,614.8176 C83.1601,614.4156 82.9281,613.8976 82.8911,613.2606 L83.7481,613.2576 C83.7781,613.6606 83.9251,613.9846 84.1911,614.2276 C84.4571,614.4706 84.7921,614.5916 85.1961,614.5896 C85.6231,614.5876 85.9751,614.4466 86.2511,614.1666 C86.5271,613.8866 86.6631,613.5306 86.6611,613.0996 C86.6591,612.6726 86.5091,612.3206 86.2101,612.0456 C85.9111,611.7696 85.5331,611.6326 85.0741,611.6346 L84.2941,611.6386 L84.2931,611.4686 L85.8991,609.0966 L83.0981,609.1096 L83.0941,608.3136 L87.2451,608.2946 L87.2461,608.4946 L85.5951,610.9446 Z" id="Fill-188" fill="#748494"></path>
                <polygon id="Fill-190" fill="#748494" points="98.4311 609.5578 99.3341 609.5538 97.4261 615.2378 96.6981 615.2408 95.0791 611.3788 93.4911 615.2548 92.7671 615.2588 90.8221 609.5918 91.7561 609.5878 93.1861 613.7638 94.9081 609.6608 95.2301 609.6598 96.9981 613.7818"></polygon>
                <path d="M102.7963,610.2615 C102.2833,610.2635 101.8503,610.4135 101.4953,610.7115 C101.1413,611.0095 100.9183,611.4065 100.8283,611.9025 L104.7703,611.8845 C104.6713,611.3815 104.4443,610.9855 104.0893,610.6945 C103.7333,610.4035 103.3033,610.2595 102.7963,610.2615 M105.6643,612.3885 C105.6643,612.4905 105.6593,612.5965 105.6503,612.7065 L100.8123,612.7285 C100.8833,613.2555 101.1013,613.6765 101.4663,613.9925 C101.8323,614.3095 102.2813,614.4665 102.8163,614.4645 C103.2053,614.4625 103.5523,614.3745 103.8563,614.1995 C104.1593,614.0265 104.4003,613.7845 104.5763,613.4755 L105.5203,613.4715 C105.2803,614.0575 104.9243,614.5135 104.4513,614.8415 C103.9793,615.1685 103.4363,615.3335 102.8193,615.3365 C102.2783,615.3385 101.7863,615.2125 101.3433,614.9575 C100.8993,614.7035 100.5493,614.3505 100.2963,613.9005 C100.0423,613.4495 99.9143,612.9465 99.9123,612.3885 C99.9093,611.8345 100.0323,611.3305 100.2823,610.8755 C100.5313,610.4215 100.8773,610.0645 101.3193,609.8065 C101.7613,609.5485 102.2523,609.4175 102.7923,609.4145 C103.3543,609.4125 103.8543,609.5435 104.2933,609.8085 C104.7323,610.0735 105.0693,610.4315 105.3063,610.8845 C105.5423,611.3365 105.6613,611.8375 105.6643,612.3885" id="Fill-192" fill="#748494"></path>
                <path d="M109.4359,610.2317 C108.9229,610.2337 108.4899,610.3837 108.1349,610.6807 C107.7809,610.9787 107.5579,611.3757 107.4679,611.8727 L111.4089,611.8547 C111.3109,611.3517 111.0839,610.9557 110.7289,610.6647 C110.3729,610.3737 109.9419,610.2297 109.4359,610.2317 M112.3039,612.3577 C112.3039,612.4607 112.2989,612.5667 112.2899,612.6767 L107.4519,612.6987 C107.5219,613.2247 107.7409,613.6467 108.1059,613.9627 C108.4719,614.2787 108.9209,614.4367 109.4549,614.4337 C109.8449,614.4327 110.1919,614.3437 110.4959,614.1697 C110.7989,613.9957 111.0399,613.7537 111.2159,613.4457 L112.1599,613.4417 C111.9189,614.0277 111.5639,614.4837 111.0909,614.8117 C110.6189,615.1387 110.0759,615.3037 109.4579,615.3057 C108.9179,615.3087 108.4259,615.1827 107.9819,614.9277 C107.5389,614.6737 107.1889,614.3207 106.9359,613.8707 C106.6819,613.4197 106.5539,612.9167 106.5519,612.3587 C106.5489,611.8047 106.6719,611.3007 106.9219,610.8457 C107.1709,610.3917 107.5169,610.0347 107.9589,609.7767 C108.4009,609.5177 108.8919,609.3877 109.4319,609.3847 C109.9929,609.3827 110.4939,609.5137 110.9329,609.7787 C111.3719,610.0437 111.7089,610.4017 111.9459,610.8547 C112.1819,611.3067 112.3009,611.8077 112.3039,612.3577" id="Fill-194" fill="#748494"></path>
                <polygon id="Fill-196" fill="#748494" points="117.3959 615.1472 115.4389 612.6112 114.6289 612.6142 114.6399 615.1592 113.7479 615.1642 113.7119 607.4612 114.6059 607.4582 114.6249 611.7882 115.4509 611.7852 117.1899 609.4732 118.2779 609.4682 116.2219 612.1972 118.5139 615.1422"></polygon>
                <path d="M121.1938,615.2531 C120.5228,615.2561 119.9838,615.0911 119.5748,614.7571 C119.1668,614.4241 118.9488,613.9721 118.9228,613.4011 L119.7948,613.3971 C119.8198,613.7251 119.9628,613.9791 120.2208,614.1591 C120.4808,614.3391 120.8128,614.4281 121.2208,614.4271 C121.6138,614.4251 121.9338,614.3451 122.1808,614.1871 C122.4288,614.0281 122.5518,613.8121 122.5498,613.5381 C122.5498,613.4321 122.5328,613.3361 122.4988,613.2511 C122.4638,613.1661 122.4078,613.0931 122.3338,613.0341 C122.2568,612.9741 122.1818,612.9231 122.1058,612.8811 C122.0308,612.8381 121.9268,612.8001 121.7958,612.7671 C121.6638,612.7331 121.5498,612.7071 121.4568,612.6891 C121.3618,612.6701 121.2348,612.6481 121.0738,612.6211 C120.9468,612.6011 120.8488,612.5851 120.7788,612.5711 C120.7078,612.5581 120.6128,612.5381 120.4908,612.5111 C120.3698,612.4841 120.2728,612.4591 120.2008,612.4361 C120.1298,612.4121 120.0398,612.3811 119.9328,612.3441 C119.8268,612.3071 119.7418,612.2661 119.6778,612.2221 C119.6158,612.1781 119.5448,612.1261 119.4648,612.0661 C119.3858,612.0071 119.3238,611.9411 119.2768,611.8701 C119.2298,611.7981 119.1848,611.7191 119.1398,611.6321 C119.0948,611.5451 119.0628,611.4471 119.0438,611.3371 C119.0238,611.2281 119.0138,611.1101 119.0138,610.9831 C119.0118,610.4941 119.2068,610.0971 119.5988,609.7931 C119.9908,609.4881 120.5068,609.3351 121.1458,609.3321 C121.7858,609.3291 122.2988,609.4851 122.6848,609.7991 C123.0718,610.1141 123.2738,610.5401 123.2938,611.0771 L122.4468,611.0811 C122.4278,610.7731 122.3038,610.5371 122.0738,610.3721 C121.8438,610.2071 121.5298,610.1261 121.1298,610.1281 C120.7468,610.1291 120.4418,610.2051 120.2168,610.3551 C119.9918,610.5041 119.8798,610.7031 119.8818,610.9491 C119.8818,611.0451 119.8968,611.1311 119.9278,611.2081 C119.9598,611.2851 120.0108,611.3501 120.0838,611.4041 C120.1558,611.4591 120.2268,611.5051 120.2988,611.5421 C120.3718,611.5801 120.4698,611.6131 120.5968,611.6431 C120.7238,611.6741 120.8318,611.6971 120.9218,611.7141 C121.0088,611.7311 121.1338,611.7511 121.2958,611.7741 C121.8568,611.8631 122.2588,611.9591 122.5028,612.0611 C123.0648,612.2941 123.3718,612.7071 123.4218,613.2981 C123.4288,613.3631 123.4328,613.4281 123.4328,613.4931 C123.4348,614.0241 123.2318,614.4481 122.8228,614.7681 C122.4138,615.0881 121.8708,615.2501 121.1938,615.2531" id="Fill-198" fill="#748494"></path>
                <path d="M120.2543,528.551 C120.3043,539.674 111.3283,548.731 100.2063,548.781 C89.0833,548.831 80.0263,539.856 79.9763,528.733 C79.9263,517.611 88.9013,508.553 100.0243,508.503 C111.1473,508.453 120.2033,517.428 120.2543,528.551" id="Fill-200" fill="#50E29D"></path>
                <path d="M66.1156,514.6692 C71.9206,501.6382 84.9566,492.5262 100.1476,492.4582 C111.2816,492.4082 121.3016,497.2252 128.1916,504.9112" id="Stroke-202" stroke="#11193A" stroke-width="0.846" stroke-linecap="round" stroke-linejoin="round"></path>
                <path d="M103.4477,567.1735 C102.4707,567.2545 101.4827,567.2975 100.4857,567.3025 C79.8187,567.3955 62.9887,550.7165 62.8947,530.0485 C62.8787,526.4695 63.3657,523.0065 64.2887,519.7235" id="Stroke-204" stroke="#11193A" stroke-width="0.846" stroke-linecap="round" stroke-linejoin="round"></path>
                <path d="M130.724,508.0617 C135.107,514.1587 137.703,521.6297 137.739,529.7107 C137.819,547.4067 125.603,562.2897 109.116,566.2627" id="Stroke-206" stroke="#11193A" stroke-width="0.846" stroke-linecap="round" stroke-linejoin="round"></path>
                <polyline id="Stroke-208" stroke="#11193A" stroke-width="0.846" stroke-linecap="round" stroke-linejoin="round" points="57.7065 523.049 64.2265 519.706 68.4055 525.924"></polyline>
                <polyline id="Stroke-210" stroke="#11193A" stroke-width="0.846" stroke-linecap="round" stroke-linejoin="round" points="127.9633 498.1325 128.1803 504.9205 121.2393 505.1185"></polyline>
                <path d="M109.102,566.2067 L112.012,560.2067" id="Stroke-212" stroke="#11193A" stroke-width="0.846" stroke-linecap="round" stroke-linejoin="round"></path>
                <path d="M115.3822,569.8693 L109.1022,566.2063" id="Stroke-214" stroke="#11193A" stroke-width="0.846" stroke-linecap="round" stroke-linejoin="round"></path>
                <path d="M115.1518,529.2868 C115.1148,520.9848 108.3538,514.2848 100.0518,514.3228 C91.7498,514.3598 85.0498,521.1208 85.0878,529.4228 C85.1128,534.9418 88.1178,539.7388 92.5618,542.3328 L92.5748,545.0338 C92.5778,545.7038 93.1228,546.2438 93.7928,546.2408 L106.5998,546.1828 C107.2698,546.1798 107.8098,545.6348 107.8068,544.9648 L107.7948,542.2648 C112.2148,539.6298 115.1768,534.8058 115.1518,529.2868 Z" id="Stroke-216" stroke="#11193A" stroke-width="0.846" stroke-linecap="round" stroke-linejoin="round"></path>
                <polygon id="Stroke-218" stroke="#11193A" stroke-width="0.846" stroke-linecap="round" stroke-linejoin="round" points="105.8832 553.8025 103.5482 553.8135 102.9972 555.6435 97.4632 555.6685 96.5402 553.8445 94.6122 553.8535 94.5762 546.2135 105.8492 546.1625"></polygon>
            </g>
        </g>
    </g>
</svg>