<?xml version="1.0" encoding="UTF-8"?>
<svg width="160px" height="160px" viewBox="0 0 160 160" version="1.1" xmlns="http://www.w3.org/2000/svg" xmlns:xlink="http://www.w3.org/1999/xlink">
    <!-- Generator: Sketch 51.3 (57544) - http://www.bohemiancoding.com/sketch -->
    <title>Group 9</title>
    <desc>Created with Sketch.</desc>
    <defs></defs>
    <g id="Page-1" stroke="none" stroke-width="1" fill="none" fill-rule="evenodd">
        <g id="Teams" transform="translate(-109.000000, -1786.000000)">
            <g id="Group-9" transform="translate(109.000000, 1786.000000)">
                <circle id="Oval-4" fill="#19E69B" fill-rule="nonzero" cx="80" cy="80" r="80"></circle>
                <g id="Group-49" transform="translate(8.135593, 7.231638)" stroke="#11193A" stroke-linecap="round" stroke-linejoin="round" stroke-width="1.285">
                    <path d="M72.0670387,143.649632 C53.0678862,143.674594 34.841276,136.124982 21.4244479,122.672863" id="Stroke-1"></path>
                    <path d="M72.0664613,0.412260022 C91.0656138,0.387297821 109.292224,7.93691041 122.709052,21.3890291" id="Stroke-3"></path>
                    <path d="M0.411878169,72.0671671 C0.387554479,53.0680145 7.93716707,34.842046 21.3886441,21.4252179" id="Stroke-5"></path>
                    <path d="M143.649568,72.0662046 C143.67453,91.0659988 136.124918,109.291967 122.672799,122.709437" id="Stroke-7"></path>
                    <path d="M72.0670387,0.412322034 L55.8949806,0.412322034 C53.3425109,0.412322034 51.2744843,2.48099031 51.2744843,5.0328184 C51.2744843,7.58464649 53.3425109,9.65331477 55.8949806,9.65331477 L62.826046,9.65331477" id="Stroke-9"></path>
                    <path d="M62.8258535,9.65357143 L44.3432264,9.65357143 C41.79204,9.65357143 39.72273,11.7222397 39.72273,14.2740678 C39.72273,16.8258959 41.79204,18.8945642 44.3432264,18.8945642 L62.8258535,18.8945642" id="Stroke-11"></path>
                    <path d="M62.8258535,18.8947567 L39.72273,18.8947567 C37.1715436,18.8947567 35.1022337,20.9634249 35.1022337,23.515253 C35.1022337,26.0670811 37.1715436,28.1357494 39.72273,28.1357494 L62.8258535,28.1357494" id="Stroke-13"></path>
                    <path d="M62.8258535,28.1356852 L44.3432264,28.1356852 C41.79204,28.1356852 39.72273,30.2043535 39.72273,32.7561816 C39.72273,35.3080097 41.79204,37.376678 44.3432264,37.376678 L62.8258535,37.376678" id="Stroke-15"></path>
                    <path d="M72.0670387,37.3768705 L62.826046,37.3768705 C60.2735763,37.3768705 58.204908,39.4455387 58.204908,41.9973668 C58.204908,44.5491949 60.2735763,46.6178632 62.826046,46.6178632 L73.8700654,46.6178632 C77.1790363,46.6178632 80.3789274,45.4340254 82.8909734,43.2806598 L95.1695206,32.7563741 C98.1281525,32.7563741 100.965513,33.9312288 103.057281,36.023638 L107.972293,40.9386501" id="Stroke-17"></path>
                    <path d="M72.0670387,143.64957 L88.2384552,143.64957 C90.7909249,143.64957 92.8589516,141.580902 92.8589516,139.029074 C92.8589516,136.477246 90.7909249,134.408577 88.2384552,134.408577 L81.3073898,134.408577" id="Stroke-19"></path>
                    <path d="M81.3076465,134.408385 L99.7902736,134.408385 C102.342102,134.408385 104.41077,132.339717 104.41077,129.787889 C104.41077,127.236061 102.342102,125.167392 99.7902736,125.167392 L81.3076465,125.167392" id="Stroke-21"></path>
                    <path d="M81.3076465,125.167456 L104.41077,125.167456 C106.962598,125.167456 109.031266,123.098788 109.031266,120.54696 C109.031266,117.995132 106.962598,115.926464 104.41077,115.926464 L81.3076465,115.926464" id="Stroke-23"></path>
                    <path d="M81.3076465,115.926271 L99.7902736,115.926271 C102.342102,115.926271 104.41077,113.857603 104.41077,111.305775 C104.41077,108.753947 102.342102,106.685278 99.7902736,106.685278 L81.3076465,106.685278" id="Stroke-25"></path>
                    <path d="M72.0670387,106.685022 L81.3073898,106.685022 C83.8598596,106.685022 85.9285278,104.616354 85.9285278,102.064525 C85.9285278,99.5126973 83.8598596,97.4440291 81.3073898,97.4440291 L70.2633705,97.4440291 C66.9550412,97.4440291 63.7551501,98.6278668 61.2431041,100.781232 L48.9639153,111.305518 C46.0059249,111.305518 43.1685642,110.130663 41.076155,108.038254 L35.8724019,102.834501" id="Stroke-27"></path>
                    <path d="M143.685246,72.0311065 L143.685246,55.8590484 C143.685246,53.3072203 141.616577,51.2385521 139.064749,51.2385521 C136.512921,51.2385521 134.444895,53.3072203 134.444895,55.8590484 L134.444895,62.7901138" id="Stroke-29"></path>
                    <path d="M134.444638,62.7899213 L134.444638,44.3079358 C134.444638,41.7554661 132.375328,39.6874395 129.824142,39.6874395 C127.271672,39.6874395 125.203645,41.7554661 125.203645,44.3079358 L125.203645,62.7899213" id="Stroke-31"></path>
                    <path d="M125.203389,62.7899213 L125.203389,39.6874395 C125.203389,37.1356114 123.134079,35.0663015 120.582892,35.0663015 C118.030423,35.0663015 115.962396,37.1356114 115.962396,39.6874395 L115.962396,62.7899213" id="Stroke-33"></path>
                    <path d="M115.962203,62.7899213 L115.962203,44.3079358 C115.962203,41.7554661 113.893535,39.6874395 111.341707,39.6874395 C108.789237,39.6874395 106.721211,41.7554661 106.721211,44.3079358 L106.721211,62.7899213" id="Stroke-35"></path>
                    <path d="M106.721018,72.0311065 L106.721018,62.7901138 C106.721018,60.2382857 104.65235,58.1689758 102.100522,58.1689758 C99.5486937,58.1689758 97.4800254,60.2382857 97.4800254,62.7901138 L97.4800254,73.8341332 C97.4800254,77.1431041 98.6632215,80.3429952 100.817229,82.8550412 L111.341515,95.1335884 C111.341515,98.0922203 110.166018,100.929581 108.074251,103.021349 L103.832967,107.262632" id="Stroke-37"></path>
                    <path d="M0.448318402,72.0311065 L0.448318402,88.2031646 C0.448318402,90.7549927 2.51698668,92.823661 5.06881477,92.823661 C7.62064286,92.823661 9.68931114,90.7549927 9.68931114,88.2031646 L9.68931114,81.2720993" id="Stroke-39"></path>
                    <path d="M9.68950363,81.2720351 L9.68950363,99.7546622 C9.68950363,102.30649 11.7581719,104.374517 14.31,104.374517 C16.8618281,104.374517 18.9304964,102.30649 18.9304964,99.7546622 L18.9304964,81.2720351" id="Stroke-41"></path>
                    <path d="M18.9306889,81.2720351 L18.9306889,104.374517 C18.9306889,106.926987 20.9993571,108.995655 23.5511852,108.995655 C26.1030133,108.995655 28.17104,106.926987 28.17104,104.374517 L28.17104,81.2720351" id="Stroke-43"></path>
                    <path d="M28.1712966,81.2720351 L28.1712966,99.7546622 C28.1712966,102.30649 30.2406065,104.374517 32.791793,104.374517 C35.3442627,104.374517 37.4122893,102.30649 37.4122893,99.7546622 L37.4122893,81.2720351" id="Stroke-45"></path>
                    <path d="M37.412546,72.0311065 L37.412546,81.2720993 C37.412546,83.8239274 39.4818559,85.8925956 42.0330424,85.8925956 C44.5855121,85.8925956 46.6535387,83.8239274 46.6535387,81.2720993 L46.6535387,70.2280799 C46.6535387,66.919109 45.4703426,63.7192179 43.3163354,61.2065303 L32.7920496,48.9279831 C32.7920496,45.9693511 33.967546,43.132632 36.0593136,41.0402228 L40.9743257,36.1252107" id="Stroke-47"></path>
                </g>
            </g>
        </g>
    </g>
</svg>