<?xml version="1.0" encoding="UTF-8"?>
<svg width="177px" height="177px" viewBox="0 0 177 177" version="1.1" xmlns="http://www.w3.org/2000/svg" xmlns:xlink="http://www.w3.org/1999/xlink">
    <!-- Generator: Sketch 51.3 (57544) - http://www.bohemiancoding.com/sketch -->
    <title>Group 9</title>
    <desc>Created with Sketch.</desc>
    <defs></defs>
    <g id="Page-1" stroke="none" stroke-width="1" fill="none" fill-rule="evenodd">
        <g id="Teams" transform="translate(-109.000000, -1921.000000)">
            <g id="Group-9" transform="translate(109.000000, 1921.000000)">
                <circle id="Oval-4" fill="#19E69B" fill-rule="nonzero" cx="88.5" cy="88.5" r="88.5"></circle>
                <g id="Group-49" transform="translate(9.000000, 8.000000)" stroke="#11193A" stroke-linecap="round" stroke-linejoin="round" stroke-width="1.285">
                    <path d="M79.7241616,158.912406 C58.7063491,158.94002 38.5431616,150.588261 23.7007955,135.706855" id="Stroke-1"></path>
                    <path d="M79.7235228,0.45606265 C100.741335,0.428448214 120.904523,8.78020714 135.746889,23.6616134" id="Stroke-3"></path>
                    <path d="M0.455640224,79.7243036 C0.428732143,58.7064911 8.78049107,38.5440134 23.6611875,23.7016473" id="Stroke-5"></path>
                    <path d="M158.912335,79.7232388 C158.939949,100.741761 150.58819,120.904239 135.706784,135.747315" id="Stroke-7"></path>
                    <path d="M79.7241616,0.45613125 L61.8338223,0.45613125 C59.0101527,0.45613125 56.7223982,2.74459554 56.7223982,5.56755536 C56.7223982,8.39051518 59.0101527,10.6789795 61.8338223,10.6789795 L69.5013134,10.6789795" id="Stroke-9"></path>
                    <path d="M69.5011004,10.6792634 L49.0546942,10.6792634 C46.2324442,10.6792634 43.9432701,12.9677277 43.9432701,15.7906875 C43.9432701,18.6136473 46.2324442,20.9021116 49.0546942,20.9021116 L69.5011004,20.9021116" id="Stroke-11"></path>
                    <path d="M69.5011004,20.9023246 L43.9432701,20.9023246 C41.1210201,20.9023246 38.831846,23.1907888 38.831846,26.0137487 C38.831846,28.8367085 41.1210201,31.1251728 43.9432701,31.1251728 L69.5011004,31.1251728" id="Stroke-13"></path>
                    <path d="M69.5011004,31.1251018 L49.0546942,31.1251018 C46.2324442,31.1251018 43.9432701,33.4135661 43.9432701,36.2365259 C43.9432701,39.0594857 46.2324442,41.34795 49.0546942,41.34795 L69.5011004,41.34795" id="Stroke-15"></path>
                    <path d="M79.7241616,41.3481629 L69.5013134,41.3481629 C66.6776438,41.3481629 64.3891795,43.6366272 64.3891795,46.4595871 C64.3891795,49.2825469 66.6776438,51.5710112 69.5013134,51.5710112 L81.7187598,51.5710112 C85.3793089,51.5710112 88.9191884,50.2613906 91.6981393,47.8792299 L105.281282,36.2367388 C108.554269,36.2367388 111.693099,37.5364219 114.007117,39.8511496 L119.444349,45.2883817" id="Stroke-17"></path>
                    <path d="M79.7241616,158.912337 L97.6137911,158.912337 C100.437461,158.912337 102.725215,156.623873 102.725215,153.800913 C102.725215,150.977953 100.437461,148.689489 97.6137911,148.689489 L89.9463,148.689489" id="Stroke-19"></path>
                    <path d="M89.9465839,148.689276 L110.39299,148.689276 C113.21595,148.689276 115.504414,146.400812 115.504414,143.577852 C115.504414,140.754892 113.21595,138.466428 110.39299,138.466428 L89.9465839,138.466428" id="Stroke-21"></path>
                    <path d="M89.9465839,138.466499 L115.504414,138.466499 C118.327374,138.466499 120.615838,136.178034 120.615838,133.355075 C120.615838,130.532115 118.327374,128.24365 115.504414,128.24365 L89.9465839,128.24365" id="Stroke-23"></path>
                    <path d="M89.9465839,128.243437 L110.39299,128.243437 C113.21595,128.243437 115.504414,125.954973 115.504414,123.132013 C115.504414,120.309054 113.21595,118.020589 110.39299,118.020589 L89.9465839,118.020589" id="Stroke-25"></path>
                    <path d="M79.7241616,118.020305 L89.9463,118.020305 C92.7699696,118.020305 95.0584339,115.731841 95.0584339,112.908881 C95.0584339,110.085921 92.7699696,107.797457 89.9463,107.797457 L77.7288536,107.797457 C74.0690143,107.797457 70.5291348,109.107078 67.7501839,111.489238 L54.1663313,123.131729 C50.8940545,123.131729 47.7552241,121.832046 45.4404964,119.517319 L39.6838446,113.760667" id="Stroke-27"></path>
                    <path d="M158.951803,79.6844116 L158.951803,61.7940723 C158.951803,58.9711125 156.663339,56.6826482 153.840379,56.6826482 C151.017419,56.6826482 148.729665,58.9711125 148.729665,61.7940723 L148.729665,69.4615634" id="Stroke-29"></path>
                    <path d="M148.729381,69.4613504 L148.729381,49.015654 C148.729381,46.1919844 146.440207,43.9042299 143.617957,43.9042299 C140.794287,43.9042299 138.506533,46.1919844 138.506533,49.015654 L138.506533,69.4613504" id="Stroke-31"></path>
                    <path d="M138.506249,69.4613504 L138.506249,43.9042299 C138.506249,41.0812701 136.217075,38.792096 133.394825,38.792096 C130.571155,38.792096 128.2834,41.0812701 128.2834,43.9042299 L128.2834,69.4613504" id="Stroke-33"></path>
                    <path d="M128.283187,69.4613504 L128.283187,49.015654 C128.283187,46.1919844 125.994723,43.9042299 123.171763,43.9042299 C120.348094,43.9042299 118.060339,46.1919844 118.060339,49.015654 L118.060339,69.4613504" id="Stroke-35"></path>
                    <path d="M118.060126,79.6844116 L118.060126,69.4615634 C118.060126,66.6386036 115.771662,64.3494295 112.948702,64.3494295 C110.125742,64.3494295 107.837278,66.6386036 107.837278,69.4615634 L107.837278,81.6790098 C107.837278,85.3395589 109.146189,88.8794384 111.529059,91.6583893 L123.17155,105.241532 C123.17155,108.514519 121.871158,111.653349 119.55714,113.967367 L114.86522,118.659287" id="Stroke-37"></path>
                    <path d="M0.495952232,79.6844116 L0.495952232,97.5747509 C0.495952232,100.397711 2.78441652,102.686175 5.60737634,102.686175 C8.43033616,102.686175 10.7188004,100.397711 10.7188004,97.5747509 L10.7188004,89.9072598" id="Stroke-39"></path>
                    <path d="M10.7190134,89.9071888 L10.7190134,110.353595 C10.7190134,113.176555 13.0074777,115.464309 15.8304375,115.464309 C18.6533973,115.464309 20.9418616,113.176555 20.9418616,110.353595 L20.9418616,89.9071888" id="Stroke-41"></path>
                    <path d="M20.9420746,89.9071888 L20.9420746,115.464309 C20.9420746,118.287979 23.2305388,120.576443 26.0534987,120.576443 C28.8764585,120.576443 31.1642129,118.287979 31.1642129,115.464309 L31.1642129,89.9071888" id="Stroke-43"></path>
                    <path d="M31.1644969,89.9071888 L31.1644969,110.353595 C31.1644969,113.176555 33.453671,115.464309 36.275921,115.464309 C39.0995906,115.464309 41.3873451,113.176555 41.3873451,110.353595 L41.3873451,89.9071888" id="Stroke-45"></path>
                    <path d="M41.387629,79.6844116 L41.387629,89.9072598 C41.387629,92.7302196 43.6768031,95.0186839 46.4990531,95.0186839 C49.3227228,95.0186839 51.6104772,92.7302196 51.6104772,89.9072598 L51.6104772,77.6898134 C51.6104772,74.0292643 50.3015665,70.4893848 47.918696,67.7097241 L36.2762049,54.1265812 C36.2762049,50.8535946 37.5765978,47.7154741 39.8906156,45.4007464 L45.3278478,39.9635143" id="Stroke-47"></path>
                </g>
            </g>
        </g>
    </g>
</svg>