<?xml version="1.0" encoding="UTF-8"?>
<svg width="551px" height="480px" viewBox="0 0 551 480" version="1.1" xmlns="http://www.w3.org/2000/svg" xmlns:xlink="http://www.w3.org/1999/xlink">
    <!-- Generator: Sketch 51.3 (57544) - http://www.bohemiancoding.com/sketch -->
    <title>Group 163</title>
    <desc>Created with Sketch.</desc>
    <defs>
        <polygon id="path-1" points="0 0.164 550.115924 0.164 550.115924 409.126251 0 409.126251"></polygon>
    </defs>
    <g id="Page-1" stroke="none" stroke-width="1" fill="none" fill-rule="evenodd">
        <g id="Contact-Us-Thank-you" transform="translate(-445.000000, -719.000000)">
            <g id="Group-163" transform="translate(445.000000, 718.000000)">
                <g id="Group-12" transform="translate(0.000000, 0.837000)">
                    <g id="Group-3">
                        <mask id="mask-2" fill="white">
                            <use xlink:href="#path-1"></use>
                        </mask>
                        <g id="Clip-2"></g>
                        <path d="M301.9733,60.4694 C220.9173,67.2124 228.1813,11.7964 187.3573,21.1444 C148.3843,30.0694 155.1453,88.1474 123.1013,115.9464 C83.1533,150.6004 56.5593,121.0194 22.8483,151.9194 C-11.2117,183.1394 -1.7377,255.8754 16.1063,299.0004 C37.4263,350.5284 84.6013,393.3864 137.4713,400.8254 C193.4183,408.6984 203.1743,369.5124 270.9733,365.4704 C358.0213,360.2814 381.8573,422.4984 447.6263,406.4834 C508.6603,391.6214 559.1033,320.7604 548.7643,276.3724 C540.9883,242.9904 502.9513,242.2594 497.5213,208.4904 C490.4983,164.8104 550.6353,144.2584 547.4153,99.5934 C544.2533,55.7124 462.9383,8.2234 410.9573,0.5504 C372.0993,-5.1856 371.4223,54.6934 301.9733,60.4694" id="Fill-1" fill="#EAEFFB" mask="url(#mask-2)"></path>
                    </g>
                    <path d="M114.7252,89.9792 C114.5742,89.9792 114.4212,89.9262 114.2992,89.8182 C114.0352,89.5832 114.0102,89.1762 114.2462,88.9122 C115.6852,87.2902 117.7552,86.3592 119.9242,86.3592 C121.9512,86.3592 123.8582,87.1482 125.2912,88.5822 C125.5422,88.8332 125.5422,89.2392 125.2912,89.4902 C125.0402,89.7402 124.6352,89.7402 124.3842,89.4902 C123.1932,88.2982 121.6082,87.6422 119.9242,87.6422 C118.1222,87.6422 116.4022,88.4162 115.2052,89.7642 C115.0792,89.9072 114.9022,89.9792 114.7252,89.9792" id="Fill-4" fill="#242F4E"></path>
                    <path d="M107.839,84.4538 C107.679,84.4538 107.52,84.3948 107.395,84.2758 C107.139,84.0308 107.13,83.6248 107.375,83.3688 C110.718,79.8738 115.222,77.9488 120.056,77.9488 C124.743,77.9488 129.149,79.7738 132.463,83.0888 C132.714,83.3388 132.714,83.7448 132.463,83.9958 C132.213,84.2468 131.806,84.2468 131.556,83.9958 C128.485,80.9238 124.401,79.2318 120.056,79.2318 C115.575,79.2318 111.401,81.0158 108.303,84.2558 C108.177,84.3878 108.008,84.4538 107.839,84.4538" id="Fill-6" fill="#242F4E"></path>
                    <path d="M101.6652,78.3923 C101.5042,78.3923 101.3442,78.3323 101.2202,78.2123 C100.9652,77.9663 100.9572,77.5603 101.2032,77.3053 C106.1932,72.1233 112.9012,69.2703 120.0932,69.2703 C127.0982,69.2703 133.6832,71.9983 138.6372,76.9523 C138.8872,77.2033 138.8872,77.6093 138.6372,77.8593 C138.3862,78.1103 137.9802,78.1103 137.7292,77.8593 C133.0182,73.1483 126.7552,70.5543 120.0932,70.5543 C113.2532,70.5543 106.8732,73.2683 102.1272,78.1953 C102.0012,78.3273 101.8332,78.3923 101.6652,78.3923" id="Fill-8" fill="#242F4E"></path>
                    <path d="M119.8693,96.7194 C118.7363,96.7194 117.8143,97.6414 117.8143,98.7754 C117.8143,99.9074 118.7363,100.8294 119.8693,100.8294 C121.0023,100.8294 121.9253,99.9074 121.9253,98.7754 C121.9253,97.6414 121.0023,96.7194 119.8693,96.7194 M119.8693,102.1144 C118.0283,102.1144 116.5313,100.6154 116.5313,98.7754 C116.5313,96.9334 118.0283,95.4364 119.8693,95.4364 C121.7103,95.4364 123.2083,96.9334 123.2083,98.7754 C123.2083,100.6154 121.7103,102.1144 119.8693,102.1144" id="Fill-10" fill="#242F4E"></path>
                </g>
                <path d="M405.2448,83.448 C405.2448,83.448 401.3608,98.072 413.7888,104.957 C414.7538,105.491 421.4018,100.559 421.4018,100.559 C421.4018,100.559 422.1258,103.763 423.0238,106.158 C423.3598,107.054 421.1668,107.054 421.5388,107.875 C425.6038,116.86 443.0608,107.363 436.7088,104.375 C431.2598,101.811 429.3128,94.867 429.3128,94.867 C429.3128,94.867 415.2388,75.398 405.2448,83.448" id="Fill-13" fill="#C0C6CE"></path>
                <path d="M404.7384,86.8435 C404.7384,86.8435 405.6474,84.9165 408.0094,83.7665 C412.6564,81.5005 420.2134,85.9735 420.2134,85.9735 C421.9394,88.9735 424.8664,92.6275 429.3124,94.8665 C432.4874,92.4035 433.2594,90.2745 433.3474,88.7485 C433.4464,87.0545 432.6604,86.6695 432.3214,83.6145 C431.9414,80.1995 432.7874,79.4795 431.9354,78.0955 C430.8634,76.3515 429.3684,77.2505 427.4434,75.1425 C425.9644,73.5245 426.0944,72.1735 424.4904,71.4205 C423.9674,71.1735 423.3214,71.1245 422.0514,71.0345 C419.3754,70.8475 419.2664,71.2055 417.6874,71.0345 C415.2034,70.7675 414.7824,69.8045 412.1684,69.7515 C411.6044,69.7395 410.9364,69.7315 410.0914,69.9235 C408.1204,70.3715 407.6144,71.6425 406.0224,72.2365 C402.4834,73.5545 400.7644,72.4055 399.7204,73.7925 C398.6164,75.2595 400.3624,76.7725 399.2624,79.4785 C398.4544,81.4665 397.0744,81.7265 397.1694,83.0755 C397.2844,84.7385 399.4784,85.8225 400.1654,86.1605 C402.0844,87.1095 403.9164,86.9625 404.7384,86.8435" id="Fill-15" fill="#242F4E"></path>
                <path d="M419.071,86.199 C418.939,85.964 418.939,85.678 419.075,85.445 C419.544,84.637 420.794,82.968 422.568,84.213 C424.517,85.58 423.667,88.651 422.245,89.966 C421.887,90.297 421.31,90.19 421.072,89.765 L419.071,86.199 Z" id="Fill-17" fill="#C0C6CE"></path>
                <path d="M403.6408,121.5613 C403.6408,121.5613 409.2878,103.4103 422.0818,107.1323 C422.0818,107.1323 423.2808,109.8803 429.8268,109.8803 C436.3728,109.8803 436.7088,104.3743 436.7088,104.3743 C436.7088,104.3743 447.9898,103.7503 450.8138,109.0133 C453.6378,114.2773 454.7288,124.2563 454.7288,124.2563 L403.6408,121.5613 Z" id="Fill-19" fill="#19E69B"></path>
                <path d="M447.5773,376.9197 L102.5383,376.9197 C95.4513,376.9197 89.7043,371.1747 89.7043,364.0857 L89.7043,131.7927 C89.7043,124.7047 95.4513,118.9587 102.5383,118.9587 L447.5773,118.9587 C454.6653,118.9587 460.4113,124.7047 460.4113,131.7927 L460.4113,364.0857 C460.4113,371.1747 454.6653,376.9197 447.5773,376.9197" id="Fill-21" fill="#242F4E"></path>
                <path d="M333.2765,415.7801 L216.8395,415.7801 C216.8395,415.7801 239.7375,393.3191 236.5005,376.9201 L313.6155,376.9201 C310.7105,403.7281 333.2765,415.7801 333.2765,415.7801" id="Fill-23" fill="#242F4E"></path>
                <path d="M333.2765,430.2957 L216.8395,430.2957 C215.4215,430.2957 214.2725,429.1467 214.2725,427.7297 L214.2725,418.3467 C214.2725,416.9297 215.4215,415.7797 216.8395,415.7797 L333.2765,415.7797 C334.6945,415.7797 335.8435,416.9297 335.8435,418.3467 L335.8435,427.7297 C335.8435,429.1467 334.6945,430.2957 333.2765,430.2957" id="Fill-25" fill="#242F4E"></path>
                <path d="M443.8239,358.3113 L106.2919,358.3113 C105.5839,358.3113 105.0089,357.7363 105.0089,357.0273 L105.0089,138.8513 C105.0089,138.1423 105.5839,137.5683 106.2919,137.5683 L443.8239,137.5683 C444.5319,137.5683 445.1069,138.1423 445.1069,138.8513 L445.1069,357.0273 C445.1069,357.7363 444.5319,358.3113 443.8239,358.3113" id="Fill-27" fill="#F3F6FD"></path>
                <path d="M444.7829,116.7371 C443.6059,117.3881 442.9269,121.6161 442.9269,121.6161 C442.8379,121.9161 443.1249,122.2071 443.5589,122.2521 C445.1639,122.4161 448.9289,122.8801 449.3949,122.3741 C451.2109,120.4001 452.6439,117.1061 452.1549,116.7371 C450.7929,115.7111 445.7209,116.2171 444.7829,116.7371" id="Fill-29" fill="#C0C6CE"></path>
                <path d="M399.7277,117.1824 C398.5507,117.8334 397.8717,122.0614 397.8717,122.0614 C397.7827,122.3614 398.0697,122.6524 398.5037,122.6974 C400.1087,122.8614 403.8737,123.3254 404.3397,122.8194 C406.1557,120.8454 407.5887,117.5514 407.0997,117.1824 C405.7387,116.1564 400.6667,116.6624 399.7277,117.1824" id="Fill-31" fill="#C0C6CE"></path>
                <path d="M412.5294,171.0183 C378.6284,153.3633 281.1094,92.4193 281.1094,92.4193 C277.2544,90.0653 272.5774,90.0623 268.7194,92.4123 C268.7194,92.4123 168.2234,150.1943 135.9594,170.6983 C131.4394,173.5703 127.8034,178.7523 127.8034,184.7613 L127.8034,324.9403 C127.8034,332.0283 133.5494,337.7743 140.6374,337.7743 L409.4794,337.7743 C416.5674,337.7743 422.3124,332.0283 422.3124,324.9403 L422.3124,184.7613 C422.3124,178.3943 417.6894,173.7063 412.5294,171.0183" id="Fill-33" fill="#F3F6FD"></path>
                <path d="M274.9088,91.2849 C272.8988,91.2849 270.8878,91.8429 269.0538,92.9599 C268.0348,93.5459 168.1868,150.9769 136.3038,171.2389 C132.5048,173.6539 128.4448,178.4729 128.4448,184.7619 L128.4448,324.9399 C128.4448,331.6629 133.9138,337.1329 140.6368,337.1329 L409.4788,337.1329 C416.2008,337.1329 421.6708,331.6629 421.6708,324.9399 L421.6708,184.7619 C421.6708,177.3059 415.0708,173.0649 412.2328,171.5879 C378.6968,154.1229 281.7448,93.5739 280.7688,92.9649 C278.9358,91.8449 276.9228,91.2849 274.9088,91.2849 M409.4788,338.4159 L140.6368,338.4159 C133.2068,338.4159 127.1608,332.3709 127.1608,324.9399 L127.1608,184.7619 C127.1608,179.0659 130.4018,173.4709 135.6158,170.1559 C167.5218,149.8799 267.3948,92.4329 268.3998,91.8559 C272.4748,89.3729 277.3558,89.3759 281.4438,91.8719 C282.4248,92.4849 379.3338,153.0079 412.8258,170.4499 C419.2628,173.8019 422.9538,179.0169 422.9538,184.7619 L422.9538,324.9399 C422.9538,332.3709 416.9088,338.4159 409.4788,338.4159" id="Fill-35" fill="#19E69B"></path>
                <path d="M394.3429,68.5086 L394.3429,322.7846 C394.3429,323.4816 393.7779,324.0466 393.0809,324.0466 L157.0349,324.0466 C156.3379,324.0466 155.7729,323.4816 155.7729,322.7846 L155.7729,40.5806 C155.7729,39.8836 156.3379,39.3196 157.0349,39.3196 L359.1089,39.3196 L394.3429,68.5086 Z" id="Fill-37" fill="#FFFFFF"></path>
                <path d="M157.0353,39.9607 C156.6933,39.9607 156.4143,40.2387 156.4143,40.5807 L156.4143,322.7847 C156.4143,323.1267 156.6933,323.4047 157.0353,323.4047 L393.0813,323.4047 C393.4233,323.4047 393.7013,323.1267 393.7013,322.7847 L393.7013,68.8107 L358.8773,39.9607 L157.0353,39.9607 Z M393.0813,324.6887 L157.0353,324.6887 C155.9853,324.6887 155.1313,323.8347 155.1313,322.7847 L155.1313,40.5807 C155.1313,39.5307 155.9853,38.6777 157.0353,38.6777 L359.3403,38.6777 L394.9853,68.2067 L394.9853,322.7847 C394.9853,323.8347 394.1303,324.6887 393.0813,324.6887 Z" id="Fill-39" fill="#19E69B"></path>
                <path d="M394.3429,68.1941 L360.6669,68.1941 C359.9809,68.1941 359.4259,67.6201 359.4259,66.9111 L359.4259,39.9611 L394.3429,68.1941 Z" id="Fill-41" fill="#FFFFFF"></path>
                <path d="M360.0675,41.3054 L360.0675,66.9104 C360.0675,67.2644 360.3365,67.5524 360.6665,67.5524 L392.5285,67.5524 L360.0675,41.3054 Z M394.3435,68.8354 L360.6665,68.8354 C359.6295,68.8354 358.7845,67.9724 358.7845,66.9104 L358.7845,39.9604 C358.7845,39.7134 358.9265,39.4884 359.1495,39.3814 C359.3725,39.2754 359.6375,39.3064 359.8295,39.4614 L394.7465,67.6954 C394.9585,67.8664 395.0385,68.1524 394.9475,68.4084 C394.8575,68.6644 394.6155,68.8354 394.3435,68.8354 Z" id="Fill-43" fill="#19E69B"></path>
                <polygon id="Fill-45" fill="#F3F6FD" points="360.4342 68.8357 393.7222 78.7177 393.7222 68.8357"></polygon>
                <path d="M367.6906,104.5838 L187.5966,104.5838 C186.0476,104.5838 184.7916,103.3348 184.7916,101.7938 C184.7916,100.2528 186.0476,99.0028 187.5966,99.0028 L367.6906,99.0028 C369.2396,99.0028 370.4956,100.2528 370.4956,101.7938 C370.4956,103.3348 369.2396,104.5838 367.6906,104.5838" id="Fill-47" fill="#363D5A"></path>
                <path d="M367.6906,123.1834 L187.5966,123.1834 C186.0476,123.1834 184.7916,121.9344 184.7916,120.3924 C184.7916,118.8514 186.0476,117.6024 187.5966,117.6024 L367.6906,117.6024 C369.2396,117.6024 370.4956,118.8514 370.4956,120.3924 C370.4956,121.9344 369.2396,123.1834 367.6906,123.1834" id="Fill-49" fill="#363D5A"></path>
                <path d="M367.6906,141.782 L187.5966,141.782 C186.0476,141.782 184.7916,140.533 184.7916,138.992 C184.7916,137.451 186.0476,136.201 187.5966,136.201 L367.6906,136.201 C369.2396,136.201 370.4956,137.451 370.4956,138.992 C370.4956,140.533 369.2396,141.782 367.6906,141.782" id="Fill-51" fill="#363D5A"></path>
                <path d="M358.4796,160.3816 L187.5966,160.3816 C186.0476,160.3816 184.7916,159.1326 184.7916,157.5906 C184.7916,156.0496 186.0476,154.8006 187.5966,154.8006 L358.4796,154.8006 C360.0286,154.8006 361.2846,156.0496 361.2846,157.5906 C361.2846,159.1326 360.0286,160.3816 358.4796,160.3816" id="Fill-53" fill="#363D5A"></path>
                <path d="M330.8981,178.9802 L187.5971,178.9802 C186.0471,178.9802 184.7921,177.7312 184.7921,176.1902 C184.7921,174.6492 186.0471,173.3992 187.5971,173.3992 L330.8981,173.3992 C332.4471,173.3992 333.7031,174.6492 333.7031,176.1902 C333.7031,177.7312 332.4471,178.9802 330.8981,178.9802" id="Fill-55" fill="#363D5A"></path>
                <path d="M422.3127,184.7615 L422.3127,324.9405 C422.3127,328.5395 420.8317,331.7855 418.4517,334.1155 L262.5337,265.6685 L418.5027,175.6355 C420.8577,177.9655 422.3127,181.1945 422.3127,184.7615" id="Fill-57" fill="#FFFFFF"></path>
                <path d="M263.9528,265.5906 L418.3058,333.3506 C420.4798,331.0706 421.6708,328.1026 421.6708,324.9406 L421.6708,184.7616 C421.6708,181.6436 420.5108,178.7076 418.3908,176.4416 L263.9528,265.5906 Z M418.5908,334.8766 L261.1148,265.7466 L418.6058,174.8346 L418.9538,175.1796 C421.5348,177.7326 422.9538,181.1356 422.9538,184.7616 L422.9538,324.9406 C422.9538,328.5946 421.5158,332.0156 418.8998,334.5736 L418.5908,334.8766 Z" id="Fill-59" fill="#19E69B"></path>
                <path d="M281.2277,260.8553 L131.2797,333.7173 C129.1237,331.4193 127.8037,328.3343 127.8037,324.9403 L127.8037,184.7613 C127.8037,181.2513 129.2137,178.0613 131.5107,175.7453 L281.2277,260.8553 Z" id="Fill-61" fill="#FFFFFF"></path>
                <path d="M131.6295,176.5506 C129.5705,178.7966 128.4445,181.6936 128.4445,184.7616 L128.4445,324.9406 C128.4445,327.8906 129.5015,330.7086 131.4325,332.9296 L279.8505,260.8116 L131.6295,176.5506 Z M131.1345,334.5006 L130.8115,334.1556 C128.4565,331.6476 127.1615,328.3746 127.1615,324.9406 L127.1615,184.7616 C127.1615,181.1896 128.5435,177.8256 131.0555,175.2926 L131.4005,174.9446 L282.6045,260.9006 L131.1345,334.5006 Z" id="Fill-63" fill="#19E69B"></path>
                <path d="M418.4513,333.7254 C416.1343,336.2244 412.9703,337.7744 409.4793,337.7744 L140.6373,337.7744 C136.9473,337.7744 133.6163,336.0474 131.2803,333.2854 L268.5083,249.7004 C272.3663,247.3494 277.0423,247.3534 280.8983,249.7074 L418.4513,333.7254 Z" id="Fill-65" fill="#FFFFFF"></path>
                <path d="M132.2731,333.4314 C134.5201,335.7904 137.5301,337.1324 140.6371,337.1324 L409.4791,337.1324 C412.4141,337.1324 415.2101,335.9724 417.4271,333.8514 L280.5631,250.2554 C276.8951,248.0144 272.5121,248.0114 268.8421,250.2474 L132.2731,333.4314 Z M409.4791,338.4154 L140.6371,338.4154 C136.9141,338.4154 133.3241,336.6964 130.7901,333.6994 L130.3061,333.1264 L268.1741,249.1514 C272.2641,246.6604 277.1461,246.6634 281.2321,249.1604 L419.4551,333.5864 L418.9221,334.1604 C416.3801,336.9044 413.0251,338.4154 409.4791,338.4154 Z" id="Fill-67" fill="#19E69B"></path>
                <path d="M39.3517,216.4597 C27.9647,217.0857 22.2567,218.7777 18.2657,224.2397 C13.0397,231.3907 14.2297,242.7237 21.5307,249.5637 C29.4197,256.9537 40.1897,255.3537 44.2117,254.7567 C46.8727,254.3607 64.5687,251.7317 67.2167,239.1777 C68.9277,231.0717 63.5687,222.6017 57.1727,218.7307 C52.2457,215.7497 47.5457,216.0087 39.3517,216.4597" id="Fill-69" fill="#19E69B"></path>
                <path d="M32.6378,235.5926 C32.6378,236.9526 31.5368,238.0556 30.1788,238.0556 C28.8198,238.0556 27.7188,236.9526 27.7188,235.5926 C27.7188,234.2316 28.8198,233.1286 30.1788,233.1286 C31.5368,233.1286 32.6378,234.2316 32.6378,235.5926" id="Fill-71" fill="#FFFFFF"></path>
                <path d="M42.2868,235.5926 C42.2868,236.9526 41.1858,238.0556 39.8278,238.0556 C38.4688,238.0556 37.3678,236.9526 37.3678,235.5926 C37.3678,234.2316 38.4688,233.1286 39.8278,233.1286 C41.1858,233.1286 42.2868,234.2316 42.2868,235.5926" id="Fill-73" fill="#FFFFFF"></path>
                <path d="M51.9357,235.5926 C51.9357,236.9526 50.8347,238.0556 49.4767,238.0556 C48.1177,238.0556 47.0167,236.9526 47.0167,235.5926 C47.0167,234.2316 48.1177,233.1286 49.4767,233.1286 C50.8347,233.1286 51.9357,234.2316 51.9357,235.5926" id="Fill-75" fill="#FFFFFF"></path>
                <path d="M51.6945,250.3309 C51.6945,250.3309 49.4435,257.6209 62.9895,258.0059 C62.9895,258.0059 59.6945,252.0359 62.4375,243.2009 L51.6945,250.3309 Z" id="Fill-77" fill="#19E69B"></path>
                <path d="M439.3034,48.4129 C438.6714,48.1949 438.2254,47.8699 437.9254,47.5779 C437.2614,46.9339 437.0254,46.1969 437.0254,45.7229 C437.0254,45.5259 437.0634,45.1969 437.3134,45.1969 C437.6844,45.1969 438.0004,45.3499 438.2804,45.6669 C438.7794,46.2299 439.1024,47.2209 439.3034,48.4129 M442.6174,48.3809 C442.7994,47.0559 443.0984,45.9819 443.5714,45.4639 C443.7884,45.2249 443.9754,45.1969 444.0964,45.1969 C444.6004,45.1969 444.6754,45.6529 444.6754,45.9259 C444.6754,46.3809 444.4454,47.0799 443.7994,47.6729 C443.5344,47.9159 443.1504,48.1839 442.6174,48.3809 M446.1554,52.5239 C445.9204,52.9439 445.7294,53.2869 445.6094,53.5259 C445.0534,54.6399 444.7214,56.5439 444.5954,57.3779 L442.5564,57.3779 C442.4064,55.4529 442.2664,52.1039 442.5064,49.3919 C443.3994,49.1489 444.0214,48.7299 444.4264,48.3579 C445.1634,47.6819 445.6044,46.7719 445.6044,45.9259 C445.6044,44.9339 444.9984,44.2669 444.0964,44.2669 C443.6374,44.2669 443.2304,44.4589 442.8854,44.8369 C442.2314,45.5539 441.8564,46.9689 441.6524,48.6159 C441.2284,48.6719 440.7084,48.6779 440.2724,48.6289 C440.0504,47.1259 439.6524,45.8149 438.9744,45.0499 C438.5154,44.5299 437.9564,44.2669 437.3134,44.2669 C436.5864,44.2669 436.0974,44.8519 436.0974,45.7229 C436.0974,46.5699 436.5504,47.5369 437.2784,48.2449 C437.7234,48.6779 438.4214,49.1699 439.4404,49.4229 C439.7304,52.1409 439.5324,55.4899 439.3344,57.3779 L437.1994,57.3779 C437.0734,56.5439 436.7414,54.6399 436.1854,53.5259 C436.0654,53.2869 435.8744,52.9439 435.6394,52.5239 C434.5334,50.5459 432.4744,46.8619 432.4744,44.1469 C432.4744,40.5709 434.6804,36.3949 440.8974,36.3949 C447.1144,36.3949 449.3204,40.5709 449.3204,44.1469 C449.3204,46.8619 447.2614,50.5459 446.1554,52.5239 M440.3874,49.5739 C440.7644,49.6029 441.1874,49.5989 441.5544,49.5619 C441.3064,52.5429 441.5144,55.9519 441.6244,57.3779 L440.2674,57.3779 C440.4044,56.0079 440.6824,52.5749 440.3874,49.5739 M440.8974,35.4659 C437.7254,35.4659 435.1794,36.4999 433.5354,38.4559 C432.2714,39.9589 431.5464,42.0339 431.5464,44.1469 C431.5464,47.1049 433.6824,50.9259 434.8294,52.9779 C435.0554,53.3829 435.2404,53.7119 435.3554,53.9419 C435.9944,55.2239 436.3314,57.8739 436.3354,57.8999 C436.3644,58.1329 436.5614,58.3079 436.7954,58.3079 L444.9994,58.3079 C445.2334,58.3079 445.4304,58.1329 445.4594,57.8999 C445.4634,57.8739 445.7994,55.2249 446.4394,53.9419 C446.5544,53.7119 446.7394,53.3829 446.9654,52.9779 C448.1124,50.9259 450.2484,47.1049 450.2484,44.1469 C450.2484,42.0339 449.5234,39.9589 448.2594,38.4559 C446.6154,36.4999 444.0694,35.4659 440.8974,35.4659" id="Fill-79" fill="#242F4E"></path>
                <path d="M444.8244,59.2 L436.9704,59.2 C436.6234,59.2 436.3404,59.484 436.3404,59.832 C436.3404,60.179 436.6234,60.464 436.9704,60.464 L444.8244,60.464 C445.1714,60.464 445.4544,60.179 445.4544,59.832 C445.4544,59.484 445.1714,59.2 444.8244,59.2" id="Fill-81" fill="#242F4E"></path>
                <path d="M444.8244,61.8211 L436.9704,61.8211 C436.6234,61.8211 436.3404,62.1051 436.3404,62.4531 C436.3404,62.8001 436.6234,63.0841 436.9704,63.0841 L444.8244,63.0841 C445.1714,63.0841 445.4544,62.8001 445.4544,62.4531 C445.4544,62.1051 445.1714,61.8211 444.8244,61.8211" id="Fill-83" fill="#242F4E"></path>
                <path d="M440.9733,66.7156 C443.3663,66.7156 444.0493,64.4426 444.0493,64.4426 L437.5553,64.4426 C437.5553,64.4426 438.5803,66.7156 440.9733,66.7156" id="Fill-85" fill="#242F4E"></path>
                <path d="M440.9733,30.5183 C441.2293,30.5183 441.4373,30.3093 441.4373,30.0523 L441.4373,22.1783 C441.4373,21.9213 441.2293,21.7133 440.9733,21.7133 C440.7173,21.7133 440.5093,21.9213 440.5093,22.1783 L440.5093,30.0523 C440.5093,30.3093 440.7173,30.5183 440.9733,30.5183" id="Fill-87" fill="#242F4E"></path>
                <path d="M431.5524,33.0486 L426.4984,27.0166 C426.3344,26.8196 426.0404,26.7936 425.8444,26.9586 C425.6484,27.1236 425.6224,27.4166 425.7874,27.6136 L430.8414,33.6466 C430.9324,33.7556 431.0644,33.8126 431.1974,33.8126 C431.3024,33.8126 431.4074,33.7766 431.4944,33.7026 C431.6914,33.5376 431.7174,33.2446 431.5524,33.0486" id="Fill-89" fill="#242F4E"></path>
                <path d="M426.2077,41.8504 L418.4657,40.4834 C418.2097,40.4394 417.9727,40.6074 417.9277,40.8604 C417.8827,41.1134 418.0517,41.3544 418.3037,41.3984 L426.0457,42.7664 C426.0737,42.7714 426.1007,42.7734 426.1267,42.7734 C426.3487,42.7734 426.5437,42.6144 426.5837,42.3894 C426.6287,42.1364 426.4597,41.8954 426.2077,41.8504" id="Fill-91" fill="#242F4E"></path>
                <path d="M463.1989,40.8201 L455.4569,42.1871 C455.2039,42.2321 455.0359,42.4731 455.0799,42.7261 C455.1199,42.9521 455.3159,43.1101 455.5369,43.1101 C455.5639,43.1101 455.5909,43.1081 455.6179,43.1031 L463.3599,41.7361 C463.6129,41.6911 463.7809,41.4501 463.7369,41.1971 C463.6919,40.9441 463.4519,40.7761 463.1989,40.8201" id="Fill-93" fill="#242F4E"></path>
                <path d="M456.0216,27.1785 C455.8256,27.0135 455.5326,27.0385 455.3676,27.2365 L450.3136,33.2685 C450.1496,33.4645 450.1746,33.7585 450.3716,33.9235 C450.4586,33.9965 450.5636,34.0325 450.6696,34.0325 C450.8016,34.0325 450.9336,33.9755 451.0256,33.8655 L456.0796,27.8335 C456.2436,27.6375 456.2186,27.3435 456.0216,27.1785" id="Fill-95" fill="#242F4E"></path>
                <path d="M72.3727,304.6629 L110.8837,275.6379 C110.8837,275.6379 116.5177,267.7319 119.3187,269.2039 C119.3187,269.2039 123.4877,265.6019 124.1577,265.8429 C124.8277,266.0819 121.3787,269.4079 121.3787,269.4079 C121.3787,269.4079 125.1017,272.3589 123.4247,274.2769 C121.7477,276.1939 116.3417,280.0369 115.3307,279.7439 C114.3197,279.4509 77.1197,315.0579 77.1197,315.0579 L72.3727,304.6629 Z" id="Fill-97" fill="#C0C6CE"></path>
                <path d="M62.2223,276.0711 C62.2223,276.0711 73.1493,284.1041 68.3473,295.9111 C67.9753,296.8281 60.5653,297.1241 60.5653,297.1241 C60.5653,297.1241 59.5803,302.0711 60.2993,304.2491 C60.5683,305.0641 63.0823,307.3021 62.8583,308.0791 C62.0163,310.9851 46.4323,312.0081 49.1843,306.3431 C51.5463,301.4851 51.8473,297.5971 51.8473,297.5971 C51.8473,297.5971 50.7263,276.0711 62.2223,276.0711" id="Fill-99" fill="#C0C6CE"></path>
                <path d="M39.2496,465.9392 L39.2496,472.5092 C39.2496,473.3342 39.8006,474.0022 40.4786,474.0022 L62.3976,474.0022 L62.3976,473.1742 C62.3976,472.5172 61.9656,471.9402 61.3336,471.7612 C58.6886,471.0142 51.7866,468.8512 48.3696,465.7592 C42.7676,460.6922 39.2496,465.9392 39.2496,465.9392" id="Fill-101" fill="#242F4E"></path>
                <path d="M81.6808,465.9392 L81.6808,472.5092 C81.6808,473.3342 82.2318,474.0022 82.9098,474.0022 L104.8288,474.0022 L104.8288,473.1742 C104.8288,472.5172 104.3968,471.9402 103.7648,471.7612 C101.1198,471.0142 94.2178,468.8512 90.8008,465.7592 C85.1988,460.6922 81.6808,465.9392 81.6808,465.9392" id="Fill-103" fill="#242F4E"></path>
                <path d="M62.4923,264.368 C63.6363,265.979 69.3533,273.514 64.4833,278.159 C64.4833,278.159 63.0253,276.254 60.7303,276.779 C56.2153,277.812 53.1983,286.262 53.1983,286.262 C53.6803,289.329 53.6803,293.056 51.8363,297.124 C51.8363,297.124 42.8783,295.87 42.8783,285.072 C42.8783,274.274 55.2113,270.732 57.4533,269.955 C59.3593,269.294 61.5143,265.512 62.1183,264.392 C62.1973,264.247 62.3963,264.233 62.4923,264.368" id="Fill-105" fill="#242F4E"></path>
                <polygon id="Fill-107" fill="#242F4E" points="39.2496 356.5223 39.2496 465.7593 48.3696 465.7593 58.4886 380.7573 45.3796 350.5803"></polygon>
                <path d="M39.6071,357.0506 C56.0241,381.3166 81.6811,463.5526 81.7161,466.4506 L90.9151,465.8746 C90.9151,465.8746 80.9361,378.2416 72.9771,352.8836 C72.9771,352.8836 39.2501,356.5226 39.6071,357.0506" id="Fill-109" fill="#363D5A"></path>
                <path d="M63.0026,308.9871 C63.0026,308.9871 68.9396,305.4791 72.3836,304.0341 L77.6056,315.0661 L66.9166,323.9661 L63.0026,308.9871 Z" id="Fill-111" fill="#19E69B"></path>
                <path d="M50.2077,303.9881 C50.2077,303.9881 41.7577,311.8511 39.2497,329.4851 C36.1597,351.2161 38.4577,355.8981 39.6067,357.0511 C40.7567,358.2021 73.7227,357.8551 74.2927,357.5601 C76.6657,356.3361 69.5677,309.1161 61.3017,305.6321 C60.6127,305.3421 56.8757,309.8621 50.2077,303.9881" id="Fill-113" fill="#19E69B"></path>
                <path d="M55.1969,284.909 C55.1559,284.67 54.9959,284.471 54.7699,284.385 C53.9889,284.084 52.1789,283.62 51.6409,285.489 C51.0489,287.542 53.3679,289.21 55.0989,289.328 C55.5339,289.357 55.8769,288.958 55.8049,288.527 L55.1969,284.909 Z" id="Fill-115" fill="#C0C6CE"></path>
                <path d="M60.8839,329.4851 C60.8839,329.4851 65.1429,364.1311 70.5619,377.5891 C71.5529,380.0521 75.3649,386.3671 72.9139,388.3691 C72.9139,388.3691 68.2979,391.2351 67.1959,388.9381 C66.0949,386.6401 66.0739,380.2891 65.3879,379.4901 C58.1139,371.0241 49.4759,329.7751 49.4759,329.7751 L60.8839,329.4851 Z" id="Fill-117" fill="#C0C6CE"></path>
                <path d="M49.174,331.8201 C49.174,331.8201 45.448,313.0281 52.4,312.5691 C59.351,312.1101 61.593,329.5601 61.593,329.5601 C61.593,329.5601 53.659,332.5251 49.174,331.8201" id="Fill-119" fill="#19E69B"></path>
                <path d="M499.3576,324.0682 C499.3576,324.0682 511.1126,343.3072 509.4476,346.4982 C507.7826,349.6882 476.0016,351.8152 476.0016,351.8152 L476.6766,346.5572 C476.6766,346.5572 499.6566,343.6992 500.1986,342.8052 C500.7406,341.9112 489.2186,323.9192 489.2186,323.9192 L499.3576,324.0682 Z" id="Fill-121" fill="#C0C6CE"></path>
                <polygon id="Fill-123" fill="#A2ACB8" points="508.4059 338.8318 499.2349 341.7688 492.8049 326.6828 501.7959 324.5318"></polygon>
                <polygon id="Fill-125" fill="#242F4E" points="421.1564 290.8865 422.1004 289.6095 415.7334 284.8865 414.7894 286.1635"></polygon>
                <path d="M510.5832,363.5623 L517.6142,354.0503 C518.1632,353.3083 518.0072,352.2613 517.2662,351.7113 L440.5742,294.8273 L431.5552,307.0263 L508.2482,363.9113 C508.9892,364.4603 510.0342,364.3043 510.5832,363.5623" id="Fill-127" fill="#19E69B"></path>
                <polygon id="Fill-129" fill="#19E69B" points="440.5602 294.8455 421.0592 287.1385 418.5412 290.5445 431.5412 307.0445"></polygon>
                <polygon id="Fill-131" fill="#19E69B" points="462.4191 329.9187 471.4241 317.7377 440.5601 294.8457 431.5551 307.0257"></polygon>
                <path d="M510.5832,363.5623 L517.6012,354.0693 C518.1492,353.3273 517.9942,352.2803 517.2522,351.7303 L508.3042,345.0923 L499.2992,357.2733 L508.2482,363.9113 C508.9892,364.4603 510.0342,364.3043 510.5832,363.5623" id="Fill-133" fill="#242F4E"></path>
                <path d="M491.7077,310.1453 C495.1127,310.1453 499.6497,315.3453 498.6417,323.8053 C497.6327,332.2663 494.2287,351.5853 494.2287,351.5853 L470.6547,351.5853 C470.6547,351.5853 466.9987,317.8713 469.7717,315.2193 C472.5457,312.5673 475.9497,310.1453 475.9497,310.1453 L491.7077,310.1453" id="Fill-135" fill="#A2ACB8"></path>
                <path d="M468.9113,329.9617 C468.9113,329.9617 453.1743,345.4667 449.9303,343.9167 C446.6863,342.3677 435.9173,316.3877 435.9173,316.3877 L439.9623,315.5597 C439.9623,315.5597 451.5023,334.3627 452.4143,334.8727 C453.3263,335.3827 468.6863,319.8077 468.6863,319.8077 L468.9113,329.9617 Z" id="Fill-137" fill="#C0C6CE"></path>
                <path d="M480.2355,309.6873 C471.9205,305.6193 463.5305,322.9503 452.9365,333.6543 L456.7065,342.0803 L481.4825,318.6413 C481.4825,318.6413 481.9945,310.5473 480.2355,309.6873" id="Fill-139" fill="#A2ACB8"></path>
                <path d="M466.9987,286.0506 C466.9987,286.0506 464.4457,293.5166 468.7327,301.4606 C468.9937,301.9446 472.3167,301.3926 473.4367,302.6546 C474.5577,303.9176 476.2017,309.4106 476.2017,309.4106 L482.1267,296.6566 L473.4367,282.7676 L466.9987,286.0506 Z" id="Fill-141" fill="#C0C6CE"></path>
                <path d="M471.0299,277.7039 C474.1129,276.4999 476.8949,275.5769 478.5599,275.8219 C480.6039,276.1229 483.7439,277.9189 486.2319,280.2669 C487.7679,281.7169 490.3049,281.1879 491.8599,282.3249 C493.1169,283.2449 493.3859,285.7959 494.6749,287.1129 C497.4759,289.9759 500.6849,289.4579 501.8099,291.7319 C503.2279,294.5999 500.1819,296.7389 501.1109,301.3289 C501.6389,303.9389 502.5739,302.9419 504.1359,307.0039 C505.9069,311.6089 501.3579,313.4529 503.4579,315.2199 C505.0929,316.5949 508.0799,316.7589 508.9039,318.1499 C509.8939,319.8219 509.5049,323.1549 507.1409,324.2459 C505.3969,325.0509 503.1939,324.9199 501.6299,325.5729 C499.3439,326.5289 500.2379,328.2519 497.6589,329.8039 C495.9089,330.8559 491.2699,331.2469 489.9059,329.3619 C488.4769,327.3859 489.7459,325.4609 488.3929,324.3109 C486.6349,322.8159 483.6229,325.3319 481.9639,323.9329 C480.2149,322.4559 482.3979,318.6749 480.5769,317.1129 C478.9579,315.7249 475.9899,317.6489 475.2819,316.6079 C474.4599,315.3969 473.6609,312.7099 474.1859,308.6529 C474.4819,306.3579 476.5089,307.2889 474.5889,301.5819 C473.2579,297.6219 474.9549,296.0569 473.6439,293.7529 C472.4489,291.6539 471.2959,289.7989 469.6099,288.8279 C465.6569,286.5539 465.6769,287.9389 464.7479,284.0299 C463.9369,280.6199 468.2409,278.7929 471.0299,277.7039" id="Fill-143" fill="#242F4E"></path>
                <path d="M471.7951,292.8504 C471.7651,292.6304 471.8501,292.4134 472.0231,292.2774 C472.6221,291.8014 474.0701,290.9044 475.0481,292.3834 C476.1221,294.0074 474.5581,296.0924 473.0841,296.6684 C472.7131,296.8144 472.3061,296.5604 472.2521,296.1644 L471.7951,292.8504 Z" id="Fill-145" fill="#C0C6CE"></path>
                <path d="M481.7482,351.5857 L493.4722,351.5857 C493.4722,351.5857 501.7962,361.3087 500.6582,370.0847 C499.4482,379.4097 497.7482,474.1877 497.7482,474.1877 L490.2262,474.0397 L484.1382,399.1067 L481.7482,351.5857" id="Fill-147" fill="#C0C6CE"></path>
                <path d="M490.5954,371.7185 C486.5794,383.1315 470.6674,474.0705 470.6674,474.0705 L462.9934,474.0705 L473.2794,352.0485 L490.5954,371.7185 Z" id="Fill-149" fill="#C0C6CE"></path>
                <path d="M494.2287,351.5857 C494.2287,351.5857 501.7967,358.0257 501.7957,368.6337 C501.7957,379.3427 499.9357,407.1327 500.4067,413.8997 C500.4377,414.3477 500.0867,414.7227 499.6387,414.7227 L466.6287,414.7227 C466.0617,414.7227 465.6147,414.2367 465.6597,413.6707 L470.6547,351.5857 L494.2287,351.5857 Z" id="Fill-151" fill="#242F4E"></path>
                <path d="M484.6398,477.24 C486.6878,476.398 488.8168,475.314 490.2258,474.04 C490.5128,473.78 490.7928,473.553 491.0658,473.357 L493.5618,474.187 C493.5618,474.187 488.6398,477.821 484.6398,477.24" id="Fill-153" fill="#C0C6CE"></path>
                <path d="M479.5334,478.99 C480.6234,478.682 482.5924,478.082 484.6394,477.24 C487.4794,477.653 490.1174,475.94 491.4084,474.913 C491.9934,474.446 492.7124,474.187 493.4604,474.187 L497.7474,474.187 L497.7474,479.606 C497.7474,480.286 497.2934,480.837 496.7334,480.837 L495.1984,480.837 C494.6604,480.837 494.2234,480.4 494.2234,479.86 L494.2234,478.427 C494.2234,478.427 493.1494,479.758 490.8474,480.655 C490.5184,480.783 490.1624,480.837 489.8094,480.837 L478.6564,480.837 L478.6564,480.155 C478.6564,479.613 479.0124,479.136 479.5334,478.99" id="Fill-155" fill="#242F4E"></path>
                <path d="M457.4479,477.24 C459.4969,476.398 461.6249,475.314 463.0339,474.04 C463.3209,473.78 463.6009,473.553 463.8739,473.357 L470.5559,474.187 C470.5559,474.187 461.4479,477.821 457.4479,477.24" id="Fill-157" fill="#C0C6CE"></path>
                <path d="M452.3415,478.99 C453.4315,478.682 455.4005,478.082 457.4475,477.24 C460.5975,477.698 464.7065,475.542 466.3105,474.604 C466.7745,474.333 467.3005,474.187 467.8375,474.187 L470.5555,474.187 L470.5555,479.606 C470.5555,480.286 470.1015,480.837 469.5415,480.837 L468.0065,480.837 C467.4685,480.837 467.0315,480.4 467.0315,479.86 L467.0315,478.427 C467.0315,478.427 465.9575,479.758 463.6555,480.655 C463.3265,480.783 462.9705,480.837 462.6175,480.837 L451.4645,480.837 L451.4645,480.155 C451.4645,479.613 451.8205,479.136 452.3415,478.99" id="Fill-159" fill="#242F4E"></path>
                <path d="M437.0397,311.2879 C438.0867,312.0989 438.1087,308.9569 438.7597,308.7619 C439.4107,308.5659 440.0277,315.2409 439.9617,315.5589 C438.6087,315.7369 437.3677,316.2849 435.9177,316.3879 C435.9527,316.0999 435.1427,315.3549 434.5637,314.8639 C434.2007,314.5559 433.9657,314.1269 433.9037,313.6549 C433.6887,312.0179 433.1227,308.2079 432.4637,307.7009 C431.6207,307.0519 435.2577,309.9089 437.0397,311.2879" id="Fill-161" fill="#C0C6CE"></path>
            </g>
        </g>
    </g>
</svg>