<?xml version="1.0" standalone="no"?>
<!DOCTYPE svg PUBLIC "-//W3C//DTD SVG 20010904//EN"
 "http://www.w3.org/TR/2001/REC-SVG-20010904/DTD/svg10.dtd">
<svg version="1.0" xmlns="http://www.w3.org/2000/svg"
 width="260.000000pt" height="260.000000pt" viewBox="0 0 260.000000 260.000000"
 preserveAspectRatio="xMidYMid meet">
<metadata>
Created by potrace 1.11, written by Peter Selinger 2001-2013
</metadata>
<g transform="translate(0.000000,260.000000) scale(0.100000,-0.100000)"
fill="#000000" stroke="none">
<path d="M437 2542 c-16 -3 -17 -59 -16 -775 1 -581 4 -790 14 -843 32 -179
113 -331 250 -469 164 -166 323 -247 530 -271 400 -46 761 143 914 478 47 103
62 156 82 283 11 66 7 254 -6 320 -25 131 -89 275 -168 380 -110 147 -330 279
-517 310 -25 4 -54 9 -65 11 -35 7 -218 6 -260 -1 -22 -4 -47 -9 -55 -10 -77
-14 -198 -61 -264 -103 l-42 -27 1 -218 c0 -212 1 -217 18 -195 120 153 282
230 474 223 309 -12 537 -250 534 -560 -1 -67 -2 -80 -17 -150 -12 -55 -64
-157 -106 -210 -166 -202 -471 -257 -704 -128 -57 31 -140 111 -176 169 -33
51 -75 169 -82 225 -3 24 -5 386 -5 804 l-1 760 -158 0 c-87 0 -166 -1 -175
-3z"/>
<path d="M420 398 l0 -338 129 0 c72 0 132 4 135 9 6 10 23 124 29 196 5 56 4
59 -94 163 -67 70 -136 172 -174 254 l-25 53 0 -337z"/>
</g>
</svg>
