<?xml version="1.0" standalone="no"?>
<!DOCTYPE svg PUBLIC "-//W3C//DTD SVG 20010904//EN"
 "http://www.w3.org/TR/2001/REC-SVG-20010904/DTD/svg10.dtd">
<svg version="1.0" xmlns="http://www.w3.org/2000/svg"
 width="260.000000pt" height="260.000000pt" viewBox="0 0 260.000000 260.000000"
 preserveAspectRatio="xMidYMid meet">
<metadata>
Created by potrace 1.11, written by Peter Selinger 2001-2013
</metadata>
<g transform="translate(0.000000,260.000000) scale(0.100000,-0.100000)"
fill="#000000" stroke="none">
<path d="M0 1300 l0 -1300 1300 0 1300 0 0 1300 0 1300 -1300 0 -1300 0 0
-1300z m1485 587 c79 -26 140 -70 172 -124 26 -45 28 -55 28 -158 0 -94 -3
-116 -22 -151 -24 -45 -72 -90 -111 -105 -24 -9 -23 -11 26 -35 67 -33 136
-110 158 -176 37 -112 0 -262 -83 -339 -97 -89 -187 -109 -510 -109 l-243 0 0
264 0 265 75 -26 75 -25 0 -169 0 -169 153 0 c170 0 235 12 295 54 58 40 85
95 85 175 0 80 -19 121 -71 156 -58 38 -123 45 -444 45 -239 0 -299 3 -295 13
2 7 10 38 17 70 l11 57 50 0 49 0 0 256 0 256 268 -4 c210 -4 278 -8 317 -21z"/>
<path d="M1050 1585 l0 -187 168 3 c154 4 171 6 217 29 71 36 95 76 95 160 0
80 -23 122 -85 154 -35 19 -61 21 -217 24 l-178 4 0 -187z"/>
</g>
</svg>
