<?xml version="1.0" encoding="UTF-8"?>
<svg width="479px" height="495px" viewBox="0 0 479 495" version="1.1" xmlns="http://www.w3.org/2000/svg" xmlns:xlink="http://www.w3.org/1999/xlink">
    <!-- Generator: Sketch 51.3 (57544) - http://www.bohemiancoding.com/sketch -->
    <title>Fill 1</title>
    <desc>Created with Sketch.</desc>
    <defs></defs>
    <g id="Page-1" stroke="none" stroke-width="1" fill="none" fill-rule="evenodd">
        <g id="Support" transform="translate(-117.000000, -2206.000000)" fill="#19E69B">
            <path d="M584.229514,2449.28619 C583.583707,2449.82304 583.03787,2450.47286 582.603999,2451.21964 L582.316085,2451.7155 L409.526669,2405.53057 L409.589651,2404.89775 C409.610644,2404.67281 409.62464,2404.44587 409.62464,2404.21494 C409.62464,2400.25406 406.401602,2397.03097 402.439785,2397.03097 C402.182862,2397.03097 401.929937,2397.04597 401.680012,2397.07196 L401.0502,2397.13894 L384.985996,2339.46825 L351.696934,2219.95305 L352.270763,2219.68413 C352.673642,2219.49318 353.055528,2219.26925 353.405424,2219.01732 L353.92227,2218.64642 L372.957587,2237.61406 L584.863325,2448.75934 L584.229514,2449.28619 Z M358.819807,2686.09022 C358.334952,2686.57308 357.818106,2687.05794 357.294263,2687.54381 L355.062929,2689.57423 L354.560079,2689.01639 C353.851291,2688.23061 353.011541,2687.62478 352.063824,2687.2169 L351.515988,2686.97997 L351.621956,2686.39313 L385.602812,2499.77391 L404.464181,2495.71106 L582.119144,2457.44688 L582.377067,2457.97174 C582.831931,2458.89148 583.455745,2459.68525 584.229514,2460.33007 L584.862325,2460.85692 L358.819807,2686.09022 Z M349.76651,2686.66006 C349.275657,2686.62307 348.870778,2686.62507 348.290951,2686.70104 L347.613153,2686.79102 L310.369272,2522.75441 L310.956097,2522.51348 C313.666288,2521.3978 315.417765,2518.79053 315.417765,2515.86936 C315.417765,2515.80538 315.413766,2515.7424 315.409767,2515.67941 L315.370779,2514.90163 L384.431161,2500.02584 L383.844337,2503.25193 L350.439309,2686.71004 L349.76651,2686.66006 Z M345.843681,2687.48382 C345.199874,2687.82972 344.61005,2688.2766 344.088205,2688.81145 L343.534371,2689.38029 L327.242235,2671.57332 L129.441286,2455.36747 L129.834169,2454.86761 C130.074097,2454.5607 130.285034,2454.24579 130.460981,2453.93088 L130.768889,2453.37703 L281.505889,2506.95788 C284.258067,2507.9366 287.079225,2509.03829 289.805411,2510.10399 C293.340356,2511.4856 296.996264,2512.9142 300.614184,2514.11985 L301.201009,2514.3148 L301.120033,2514.92863 C301.073047,2515.28952 301.050054,2515.58844 301.050054,2515.86936 C301.050054,2519.82924 304.273092,2523.05233 308.233909,2523.05233 C308.292892,2523.05233 308.351874,2523.04833 308.411856,2523.04433 L309.162632,2523.00834 L309.395562,2523.88209 C309.684476,2524.96179 309.970391,2526.03349 310.20832,2527.08419 L331.27703,2619.87195 C333.15147,2628.12661 334.966928,2636.56222 336.724404,2644.71992 C339.693517,2658.50702 342.762601,2672.76399 346.21657,2686.64206 L346.357528,2687.2079 L345.843681,2687.48382 Z M340.428298,2223.27611 C341.370017,2222.28339 342.4307,2221.26768 343.455394,2220.28596 L344.878969,2218.91635 L345.37782,2219.23526 C345.932655,2219.59016 346.51748,2219.86408 347.116301,2220.04903 L347.72312,2220.23697 L321.049083,2417.17827 L131.178767,2448.72435 L130.973828,2448.12452 C130.727902,2447.40972 130.371008,2446.73891 129.912145,2446.13108 L129.52826,2445.62423 L340.428298,2223.27611 Z M309.388565,2503.26892 C309.217616,2504.53157 308.985685,2505.84919 308.759752,2507.12283 L308.488833,2508.6744 L307.889012,2508.70339 C305.393757,2508.82235 303.175419,2510.19896 301.957783,2512.38435 L301.647875,2512.93819 L230.611083,2487.68733 L150.549984,2459.22838 C147.831796,2458.26165 145.06962,2457.22995 142.397418,2456.23223 C138.921456,2454.93359 135.326529,2453.59197 131.77059,2452.36932 L131.178767,2452.16638 L131.273739,2451.54755 C131.33772,2451.12767 131.367711,2450.77877 131.367711,2450.44786 L131.367711,2449.81204 L320.89413,2418.32395 L309.388565,2503.26892 Z M400.495366,2411.80679 L384.647097,2498.84018 L315.140847,2513.81094 L314.906917,2513.22211 C314.106156,2511.21468 312.402665,2509.63712 310.348278,2509.0033 L309.742459,2508.81536 L322.023792,2418.136 L395.442874,2405.93745 L395.648813,2406.53728 C396.349603,2408.57771 397.980117,2410.23424 400.01251,2410.96703 L400.608332,2411.18197 L400.495366,2411.80679 Z M581.695271,2455.69838 L581.782245,2456.38019 L385.819747,2498.58725 L396.416583,2440.38871 L401.698007,2411.38591 L402.448783,2411.39991 C405.23895,2411.39991 407.803184,2409.74538 408.970835,2407.1871 L409.234757,2406.61026 L581.89821,2452.76021 L581.766249,2453.44602 C581.677276,2453.90888 581.632289,2454.36675 581.632289,2454.80863 C581.632289,2455.11054 581.658282,2455.40546 581.695271,2455.69838 Z M348.726821,2221.73355 L348.958751,2220.37793 L349.674538,2220.34594 C349.780506,2220.34094 349.886474,2220.33695 349.990443,2220.32695 L350.621255,2220.25897 L366.685459,2277.93066 L399.974521,2397.44585 L399.401692,2397.71578 C396.883444,2398.89944 395.25693,2401.44972 395.25693,2404.21394 L395.25693,2404.84976 L322.179746,2416.99133 L348.077015,2225.7834 C348.257961,2224.45178 348.49589,2223.06917 348.726821,2221.73355 Z M586.11695,2461.47275 L586.531827,2461.61271 C587.279603,2461.86463 588.047374,2461.9916 588.816145,2461.9916 C592.777962,2461.9916 596,2458.76951 596,2454.80863 C596,2450.84775 592.777962,2447.62366 588.816145,2447.62366 C587.990391,2447.62366 587.164638,2447.77262 586.362877,2448.06554 L585.914011,2448.23049 L510.068654,2372.65686 L359.611571,2222.73827 C358.599873,2221.72955 357.615167,2220.64486 356.572478,2219.49618 C356.146606,2219.02532 355.716734,2218.55245 355.282863,2218.08158 L354.882983,2217.64771 L355.209885,2217.15684 C355.99765,2215.97618 356.414526,2214.60257 356.414526,2213.18397 C356.414526,2209.22209 353.192487,2206 349.23167,2206 C345.270852,2206 342.047815,2209.22209 342.047815,2213.18397 C342.047815,2214.74753 342.551664,2216.2391 343.50438,2217.49975 L343.887265,2218.0076 L132.986227,2440.35472 C132.042509,2441.35044 131.024813,2442.32016 129.946135,2443.34787 L128.526559,2444.70749 L128.028708,2444.39058 C126.873053,2443.65279 125.543449,2443.2629 124.182856,2443.2629 C120.222038,2443.2629 117,2446.48598 117,2450.44686 C117,2454.40874 120.222038,2457.63083 124.182856,2457.63083 C125.568442,2457.63083 126.919039,2457.22895 128.08769,2456.46916 L128.620531,2456.12126 L339.635535,2686.76902 C340.560259,2687.78074 341.45899,2688.88143 342.411706,2690.0471 L342.822583,2690.54896 L342.640638,2690.96784 C342.246755,2691.87358 342.047815,2692.83131 342.047815,2693.81603 C342.047815,2697.77791 345.270852,2701 349.23167,2701 C353.192487,2701 356.414526,2697.77791 356.414526,2693.81603 C356.414526,2692.92528 356.245576,2692.04553 355.913675,2691.19977 L355.734728,2690.7419 L582.135139,2465.1517 C583.145837,2464.14499 584.233513,2463.16727 585.384169,2462.13156 L586.11695,2461.47275 Z" id="Fill-1"></path>
        </g>
    </g>
</svg>