<?xml version="1.0" encoding="UTF-8"?>
<svg width="22px" height="21px" viewBox="0 0 22 21" version="1.1" xmlns="http://www.w3.org/2000/svg" xmlns:xlink="http://www.w3.org/1999/xlink">
    <!-- Generator: Sketch 51.3 (57544) - http://www.bohemiancoding.com/sketch -->
    <title>LinkedIn</title>
    <desc>Created with Sketch.</desc>
    <defs></defs>
    <g id="Page-1" stroke="none" stroke-width="1" fill="none" fill-rule="evenodd">
        <g id="Home" transform="translate(-303.000000, -4793.000000)" fill="#50E29D" fill-rule="nonzero">
            <path d="M325,4805.87508 L325,4814 L320.284688,4814 L320.284688,4806.41924 C320.284688,4804.51489 319.602669,4803.21525 317.895882,4803.21525 C316.592967,4803.21525 315.817601,4804.09111 315.476489,4804.93837 C315.352095,4805.24125 315.320076,4805.66284 315.320076,4806.08682 L315.320076,4814 L310.603178,4814 C310.603178,4814 310.666705,4801.16068 310.603178,4799.83043 L315.319615,4799.83043 L315.319615,4801.83891 C315.310051,4801.85394 315.297621,4801.87013 315.288619,4801.88469 L315.319615,4801.88469 L315.319615,4801.83891 C315.94624,4800.87481 317.065326,4799.49755 319.570189,4799.49755 C322.673545,4799.4975 325,4801.52274 325,4805.87508 Z M305.669102,4793 C304.055457,4793 303,4794.0573 303,4795.44769 C303,4796.80778 304.024921,4797.89717 305.606495,4797.89717 L305.638003,4797.89717 C307.2829,4797.89717 308.305877,4796.80798 308.305877,4795.44769 C308.274881,4794.0573 307.2829,4793 305.669102,4793 Z M303.280142,4814 L307.99525,4814 L307.99525,4799.83043 L303.280142,4799.83043 L303.280142,4814 Z" id="LinkedIn"></path>
        </g>
    </g>
</svg>