<?xml version="1.0" encoding="UTF-8"?>
<svg width="22px" height="18px" viewBox="0 0 22 18" version="1.1" xmlns="http://www.w3.org/2000/svg" xmlns:xlink="http://www.w3.org/1999/xlink">
    <!-- Generator: Sketch 51.3 (57544) - http://www.bohemiancoding.com/sketch -->
    <title>Shape</title>
    <desc>Created with Sketch.</desc>
    <defs></defs>
    <g id="Page-1" stroke="none" stroke-width="1" fill="none" fill-rule="evenodd">
        <g id="Home" transform="translate(-363.000000, -4796.000000)" fill="#50E29D" fill-rule="nonzero">
            <path d="M384.650105,4798.09396 C384.161299,4798.30716 383.653881,4798.47535 383.133214,4798.59712 C383.706929,4798.06088 384.138288,4797.39015 384.381645,4796.6415 C384.451107,4796.42777 384.215098,4796.24296 384.018889,4796.35739 C383.294558,4796.77999 382.514336,4797.09702 381.699839,4797.29977 C381.652583,4797.31154 381.603826,4797.3175 381.554908,4797.3175 C381.406545,4797.3175 381.262311,4797.26332 381.148866,4797.16497 C380.282286,4796.41374 379.167737,4796 378.010598,4796 C377.509885,4796 377.004344,4796.07676 376.507976,4796.22818 C374.970059,4796.69737 373.78342,4797.94518 373.411116,4799.48469 C373.271442,4800.06214 373.233627,4800.64012 373.298637,4801.20253 C373.306093,4801.26716 373.275036,4801.31227 373.255887,4801.33342 C373.222256,4801.37051 373.174572,4801.39177 373.125063,4801.39177 C373.119539,4801.39177 373.113853,4801.39151 373.108221,4801.39098 C369.741776,4801.08334 366.706064,4799.48807 364.560265,4796.89907 C364.450843,4796.76701 364.24101,4796.78321 364.153794,4796.93035 C363.733592,4797.63944 363.511529,4798.45045 363.511529,4799.27571 C363.511529,4800.54045 364.02812,4801.73234 364.925434,4802.60123 C364.548089,4802.51322 364.182866,4802.37463 363.843604,4802.18928 C363.679471,4802.09959 363.477523,4802.21487 363.475216,4802.39953 C363.451723,4804.27839 364.570081,4805.95022 366.245419,4806.70304 C366.21168,4806.70383 366.177942,4806.7042 366.14415,4806.7042 C365.878586,4806.7042 365.609698,4806.67898 365.345047,4806.62923 C365.160209,4806.59451 365.004926,4806.76698 365.062319,4806.94325 C365.606104,4808.61313 367.067854,4809.844 368.817106,4810.12347 C367.365332,4811.08205 365.674707,4811.58769 363.915104,4811.58769 L363.366545,4811.58738 C363.197531,4811.58738 363.054585,4811.69574 363.011513,4811.85676 C362.969086,4812.01536 363.047237,4812.18266 363.191363,4812.26512 C365.174155,4813.40013 367.435813,4814 369.732818,4814 C371.743449,4814 373.624221,4813.60752 375.322945,4812.83355 C376.880225,4812.12399 378.256369,4811.1097 379.413132,4809.81884 C380.490725,4808.61635 381.333382,4807.2282 381.91761,4805.69302 C382.474536,4804.22964 382.768903,4802.66818 382.768903,4801.17741 L382.768903,4801.1064 C382.768849,4800.86703 382.878915,4800.6418 383.07094,4800.48849 C383.799616,4799.90655 384.434157,4799.22153 384.956862,4798.45246 C385.094873,4798.24939 384.877209,4797.99488 384.650105,4798.09396 Z" id="Shape"></path>
        </g>
    </g>
</svg>