<?xml version="1.0" encoding="UTF-8"?>
<svg width="480px" height="496px" viewBox="0 0 480 496" version="1.1" xmlns="http://www.w3.org/2000/svg" xmlns:xlink="http://www.w3.org/1999/xlink">
    <!-- Generator: Sketch 51.3 (57544) - http://www.bohemiancoding.com/sketch -->
    <title>Fill 1</title>
    <desc>Created with Sketch.</desc>
    <defs></defs>
    <g id="Page-1" stroke="none" stroke-width="1" fill="none" fill-rule="evenodd">
        <g id="Support" transform="translate(-117.000000, -2206.000000)" fill="#19E69B">
            <path d="M585.204941,2449.77768 C584.557785,2450.31561 584.010809,2450.96674 583.576033,2451.71504 L583.287518,2452.2119 L410.137372,2405.93366 L410.200485,2405.29956 C410.221523,2405.07417 410.235548,2404.84677 410.235548,2404.61537 C410.235548,2400.64649 407.005781,2397.41689 403.035693,2397.41689 C402.778233,2397.41689 402.524781,2397.43192 402.274334,2397.45796 L401.643207,2397.52508 L385.545466,2339.73788 L352.186907,2219.98124 L352.761933,2219.71177 C353.165654,2219.52044 353.548337,2219.29605 353.898963,2219.04362 L354.416888,2218.67197 L373.491945,2237.67793 L585.840075,2449.24976 L585.204941,2449.77768 Z M359.32465,2687.0601 C358.838783,2687.54394 358.320858,2688.02978 357.795921,2688.51662 L355.559929,2690.55115 L355.056029,2689.99218 C354.345761,2689.20481 353.504259,2688.59776 352.554563,2688.18905 L352.005583,2687.95164 L352.111772,2687.36362 L386.163569,2500.3674 L405.064315,2496.29634 L583.090165,2457.95486 L583.348627,2458.48077 C583.80444,2459.40237 584.429557,2460.19775 585.204941,2460.84387 L585.839073,2461.37178 L359.32465,2687.0601 Z M350.252453,2687.63109 C349.760575,2687.59402 349.35485,2687.59603 348.773813,2687.67216 L348.0946,2687.76231 L310.772965,2523.39432 L311.361015,2523.1529 C314.076864,2522.03496 315.831998,2519.42243 315.831998,2516.49536 C315.831998,2516.43125 315.827991,2516.36814 315.823984,2516.30503 L315.784914,2515.52568 L384.989473,2500.61983 L384.401423,2503.85244 L350.926657,2687.68117 L350.252453,2687.63109 Z M346.321434,2688.45652 C345.676282,2688.80312 345.085227,2689.25089 344.562294,2689.78682 L344.007303,2690.35681 L327.681154,2672.51387 L129.467259,2455.87124 L129.860962,2455.37038 C130.101391,2455.06284 130.312769,2454.7473 130.489084,2454.43175 L130.797635,2453.87679 L281.849325,2507.56588 C284.607249,2508.54658 287.434296,2509.65049 290.166174,2510.71834 C293.708498,2512.10274 297.372039,2513.53422 300.997512,2514.74232 L301.585562,2514.93766 L301.504417,2515.55272 C301.457333,2515.91435 301.434292,2516.21387 301.434292,2516.49536 C301.434292,2520.46324 304.664059,2523.69284 308.633145,2523.69284 C308.692251,2523.69284 308.751356,2523.68883 308.811463,2523.68482 L309.563807,2523.64876 L309.797223,2524.52428 C310.08674,2525.60616 310.373252,2526.68002 310.611678,2527.73284 L331.724372,2620.70805 C333.602726,2628.97939 335.421974,2637.43205 337.183119,2645.60622 C340.158431,2659.42117 343.233922,2673.70694 346.695101,2687.61305 L346.836354,2688.18004 L346.321434,2688.45652 Z M340.894745,2223.31102 C341.83843,2222.31629 342.901328,2221.29853 343.928161,2220.31482 L345.354708,2218.94244 L345.854601,2219.26199 C346.410593,2219.61761 346.99664,2219.89209 347.596711,2220.07741 L348.204797,2220.26573 L321.475073,2417.6049 L131.208368,2449.2147 L131.003001,2448.61366 C130.756561,2447.89742 130.398923,2447.22525 129.939102,2446.6162 L129.554415,2446.10832 L340.894745,2223.31102 Z M309.790211,2503.86947 C309.618905,2505.13466 309.38649,2506.45495 309.160086,2507.73116 L308.888601,2509.28586 L308.287528,2509.31491 C305.787064,2509.43412 303.564095,2510.81351 302.343916,2513.0033 L302.033362,2513.55827 L230.848267,2488.2564 L150.620026,2459.73995 C147.896163,2458.77127 145.128221,2457.73748 142.45044,2456.73775 C138.967221,2455.43649 135.364789,2454.09216 131.801427,2452.86704 L131.208368,2452.66368 L131.303538,2452.04361 C131.367652,2451.62288 131.397706,2451.27327 131.397706,2450.9417 L131.397706,2450.30459 L321.319796,2418.75289 L309.790211,2503.86947 Z M401.087214,2412.22256 L385.205859,2499.43177 L315.554503,2514.43278 L315.320084,2513.84276 C314.517651,2511.83127 312.810604,2510.25053 310.751928,2509.61543 L310.144844,2509.4271 L322.451817,2418.56456 L396.024174,2406.34137 L396.230543,2406.94241 C396.932797,2408.98695 398.566714,2410.64683 400.60335,2411.3811 L401.200416,2411.59648 L401.087214,2412.22256 Z M582.665407,2456.20282 L582.752562,2456.886 L386.380957,2499.17833 L396.999917,2440.86222 L402.292366,2411.80083 L403.044709,2411.81486 C405.840701,2411.81486 408.410289,2410.15698 409.580378,2407.59354 L409.84485,2407.01554 L582.86877,2453.25871 L582.736534,2453.94591 C582.647375,2454.40971 582.602294,2454.86851 582.602294,2455.31127 C582.602294,2455.6138 582.628341,2455.90931 582.665407,2456.20282 Z M349.210593,2221.76534 L349.443008,2220.40698 L350.160288,2220.37492 C350.266478,2220.36992 350.372667,2220.36591 350.476853,2220.35589 L351.108982,2220.28777 L367.206723,2278.07597 L400.565282,2397.83261 L399.991257,2398.10308 C397.467752,2399.28914 395.837842,2401.84457 395.837842,2404.61437 L395.837842,2405.25148 L322.608096,2417.41757 L348.55943,2225.82337 C348.740754,2224.48906 348.979179,2223.10366 349.210593,2221.76534 Z M587.096318,2461.98885 L587.51206,2462.12909 C588.261398,2462.38153 589.030772,2462.50875 589.801147,2462.50875 C593.771235,2462.50875 597,2459.28016 597,2455.31127 C597,2451.34239 593.771235,2448.11179 589.801147,2448.11179 C588.97367,2448.11179 588.146192,2448.26105 587.342758,2448.55456 L586.892955,2448.71984 L510.889256,2372.99355 L360.118067,2222.77208 C359.104257,2221.76133 358.117495,2220.67444 357.07263,2219.52345 C356.645868,2219.05163 356.215099,2218.57781 355.780322,2218.10599 L355.379607,2217.67124 L355.707192,2217.17938 C356.496601,2215.99633 356.914347,2214.61995 356.914347,2213.19848 C356.914347,2209.2286 353.685582,2206 349.716496,2206 C345.747409,2206 342.517643,2209.2286 342.517643,2213.19848 C342.517643,2214.7652 343.022544,2216.25979 343.977249,2217.52298 L344.360934,2218.03186 L133.019602,2440.82816 C132.073913,2441.82589 131.054092,2442.79758 129.973163,2443.82736 L128.550623,2445.18972 L128.051732,2444.87217 C126.893664,2444.13289 125.561285,2443.74221 124.197851,2443.74221 C120.228765,2443.74221 117,2446.97181 117,2450.9407 C117,2454.91058 120.228765,2458.13918 124.197851,2458.13918 C125.58633,2458.13918 126.939747,2457.73648 128.110837,2456.97516 L128.644791,2456.62655 L340.100327,2687.74028 C341.026982,2688.75403 341.927589,2689.85695 342.882294,2691.02497 L343.294029,2691.52784 L343.111704,2691.94757 C342.716999,2692.85514 342.517643,2693.81481 342.517643,2694.80152 C342.517643,2698.7714 345.747409,2702 349.716496,2702 C353.685582,2702 356.914347,2698.7714 356.914347,2694.80152 C356.914347,2693.90897 356.745045,2693.02744 356.412451,2692.17997 L356.233131,2691.72118 L583.106194,2465.67524 C584.119002,2464.66649 585.208948,2463.6868 586.362007,2462.649 L587.096318,2461.98885 Z" id="Fill-1"></path>
        </g>
    </g>
</svg>