<?xml version="1.0" encoding="UTF-8"?>
<svg width="391px" height="465px" viewBox="0 0 391 465" version="1.1" xmlns="http://www.w3.org/2000/svg" xmlns:xlink="http://www.w3.org/1999/xlink">
    <!-- Generator: Sketch 51.3 (57544) - http://www.bohemiancoding.com/sketch -->
    <title>Group 62</title>
    <desc>Created with Sketch.</desc>
    <defs>
        <polygon id="path-1" points="0.877587564 0.131 210.434424 0.131 210.434424 209.6917 0.877587564 209.6917"></polygon>
        <polygon id="path-3" points="0 465.869 390.888 465.869 390.888 1 0 1"></polygon>
    </defs>
    <g id="Page-1" stroke="none" stroke-width="1" fill="none" fill-rule="evenodd">
        <g id="Support" transform="translate(-117.000000, -704.000000)">
            <g id="Group-62" transform="translate(117.000000, 703.000000)">
                <g id="Group-3" transform="translate(149.000000, 0.869000)">
                    <mask id="mask-2" fill="white">
                        <use xlink:href="#path-1"></use>
                    </mask>
                    <g id="Clip-2"></g>
                    <path d="M105.822,140.0837 C86.55,140.0837 70.872,124.4057 70.872,105.1337 C70.872,85.8607 86.55,70.1837 105.822,70.1837 C125.094,70.1837 140.772,85.8607 140.772,105.1337 C140.772,124.4057 125.094,140.0837 105.822,140.0837 M209.779,93.2767 C209.447,90.3307 206.012,88.1167 203.043,88.1167 C193.44,88.1167 184.92,82.4797 181.346,73.7597 C177.695,64.8287 180.05,54.4127 187.206,47.8487 C189.459,45.7897 189.732,42.3427 187.842,39.9477 C182.928,33.7067 177.342,28.0687 171.243,23.1837 C168.855,21.2677 165.351,21.5337 163.28,23.8267 C157.034,30.7437 145.816,33.3137 137.147,29.6977 C128.126,25.9027 122.436,16.7617 122.993,6.9477 C123.176,3.8657 120.924,1.1867 117.851,0.8277 C110.024,-0.0773 102.129,-0.1043 94.278,0.7667 C91.241,1.1017 88.988,3.7177 89.091,6.7617 C89.431,16.4777 83.675,25.4587 74.743,29.1167 C66.177,32.6157 55.038,30.0667 48.804,23.2117 C46.744,20.9537 43.298,20.6767 40.897,22.5467 C34.617,27.4737 28.906,33.1157 23.946,39.3057 C22.011,41.7117 22.296,45.1987 24.571,47.2697 C31.864,53.8737 34.218,64.3797 30.43,73.4137 C26.813,82.0257 17.87,87.5767 7.632,87.5767 C4.308,87.4707 1.942,89.6997 1.579,92.7207 C0.657,100.5927 0.646,108.6137 1.534,116.5497 C1.863,119.5087 5.402,121.7017 8.405,121.7017 C17.529,121.4697 26.289,127.1177 29.964,136.0617 C33.627,144.9917 31.272,155.4007 24.105,161.9717 C21.863,164.0297 21.579,167.4727 23.468,169.8667 C28.337,176.0677 33.924,181.7107 40.044,186.6367 C42.445,188.5707 45.938,188.2987 48.019,186.0057 C54.288,179.0707 65.506,176.5047 74.14,180.1297 C83.184,183.9127 88.874,193.0537 88.317,202.8717 C88.135,205.9547 90.398,208.6397 93.459,208.9917 C97.463,209.4597 101.491,209.6917 105.53,209.6917 C109.364,209.6917 113.198,209.4817 117.032,209.0557 C120.071,208.7207 122.322,206.1037 122.219,203.0547 C121.868,193.3447 127.635,184.3617 136.555,180.7097 C145.178,177.1877 156.272,179.7667 162.506,186.6137 C164.578,188.8677 168.001,189.1397 170.414,187.2747 C176.681,182.3597 182.382,176.7227 187.365,170.5167 C189.299,168.1147 189.025,164.6217 186.739,162.5527 C179.446,155.9487 177.08,145.4407 180.868,136.4137 C184.429,127.9147 193.041,122.2087 202.303,122.2087 L203.599,122.2427 C206.603,122.4867 209.368,120.1727 209.732,117.1057 C210.655,109.2277 210.666,101.2127 209.779,93.2767" id="Fill-1" fill="#19E69B" mask="url(#mask-2)"></path>
                </g>
                <path d="M155.6853,316.0816 C136.5033,317.9596 119.3733,303.8856 117.4963,284.7036 C115.6183,265.5226 129.6933,248.3926 148.8743,246.5146 C168.0553,244.6366 185.1853,258.7126 187.0633,277.8936 C188.9403,297.0746 174.8663,314.2046 155.6853,316.0816 M254.5863,259.3696 C253.9693,256.4706 250.3353,254.6016 247.3793,254.8916 C237.8233,255.8266 228.7933,251.0456 224.3873,242.7156 C219.8833,234.1826 221.2113,223.5876 227.6943,216.3566 C229.7363,214.0876 229.6723,210.6306 227.5583,208.4316 C222.0593,202.6986 215.9513,197.6326 209.4053,193.3646 C206.8413,191.6896 203.3793,192.2966 201.5413,194.7806 C195.9993,202.2726 185.0853,205.9246 176.1053,203.1696 C166.7563,200.2706 160.2053,191.7276 159.8023,181.9076 C159.6843,178.8216 157.1813,176.3746 154.0883,176.3166 C146.2103,176.1796 138.3503,176.9206 130.6223,178.5526 C127.6313,179.1826 125.6443,182.0056 126.0423,185.0236 C127.3293,194.6606 122.4743,204.1606 113.9413,208.6726 C105.7573,212.9886 94.4223,211.5366 87.5513,205.3216 C85.2813,203.2746 81.8233,203.3346 79.6173,205.4306 C73.8463,210.9456 68.7123,217.1176 64.3783,223.7606 C62.6883,226.3446 63.3113,229.7876 65.7773,231.6256 C73.6793,237.4876 77.0463,247.7146 74.1563,257.0746 C71.3953,265.9986 63.0353,272.3946 52.8453,273.3926 C49.5283,273.6096 47.3903,276.0606 47.3233,279.1016 C47.1723,287.0256 47.9433,295.0096 49.5993,302.8216 C50.2153,305.7336 53.9513,307.5726 56.9403,307.2796 C65.9973,306.1586 75.2673,310.9276 79.7953,319.4696 C84.3113,328.0016 82.9823,338.5906 76.4893,345.8276 C74.4583,348.0956 74.5103,351.5486 76.6243,353.7476 C82.0743,359.4446 88.1843,364.5166 94.7553,368.8226 C97.3333,370.5146 100.7833,369.9016 102.6303,367.4176 C108.1953,359.9046 119.1093,356.2586 128.0553,359.0236 C137.4253,361.9076 143.9773,370.4506 144.3803,380.2766 C144.4993,383.3636 147.0143,385.8146 150.0943,385.8676 C154.1243,385.9416 158.1563,385.7816 162.1763,385.3886 C165.9923,385.0156 169.7883,384.4316 173.5613,383.6336 C176.5533,383.0036 178.5393,380.1806 178.1393,377.1556 C176.8433,367.5256 181.7083,358.0246 190.2303,353.5206 C198.4693,349.1756 209.7603,350.6606 216.6323,356.8686 C218.9143,358.9096 222.3463,358.8466 224.5673,356.7566 C230.3263,351.2536 235.4503,345.0876 239.8043,338.4256 C241.4953,335.8476 240.8833,332.3966 238.4063,330.5606 C230.5033,324.6976 227.1243,314.4716 230.0163,305.1176 C232.7333,296.3126 240.7473,289.7946 249.9653,288.8926 L251.2583,288.7996 C254.2723,288.7496 256.7973,286.1776 256.8613,283.0896 C257.0123,275.1576 256.2433,267.1816 254.5863,259.3696" id="Fill-4" fill="#A2ACB8"></path>
                <polygon id="Fill-6" fill="#11193A" points="354.2644 465.8687 321.6124 117.9017 322.8614 117.7857 355.5144 465.7517"></polygon>
                <polygon id="Fill-8" fill="#11193A" points="389.6384 465.8687 356.9854 117.9017 358.2344 117.7857 390.8874 465.7517"></polygon>
                <mask id="mask-4" fill="white">
                    <use xlink:href="#path-3"></use>
                </mask>
                <g id="Clip-11"></g>
                <polygon id="Fill-10" fill="#11193A" mask="url(#mask-4)" points="323.687 132.562 359.243 132.562 359.243 131.308 323.687 131.308"></polygon>
                <polygon id="Fill-12" fill="#11193A" mask="url(#mask-4)" points="324.958 150.046 360.694 150.046 360.694 148.791 324.958 148.791"></polygon>
                <polygon id="Fill-13" fill="#11193A" mask="url(#mask-4)" points="327.316 167.53 361.965 167.53 361.965 166.276 327.316 166.276"></polygon>
                <polygon id="Fill-14" fill="#11193A" mask="url(#mask-4)" points="328.766 185.014 364.141 185.014 364.141 183.76 328.766 183.76"></polygon>
                <polygon id="Fill-15" fill="#11193A" mask="url(#mask-4)" points="330.218 202.498 365.411 202.498 365.411 201.244 330.218 201.244"></polygon>
                <polygon id="Fill-16" fill="#11193A" mask="url(#mask-4)" points="332.032 219.982 367.224 219.982 367.224 218.728 332.032 218.728"></polygon>
                <polygon id="Fill-17" fill="#11193A" mask="url(#mask-4)" points="333.665 237.465 368.857 237.465 368.857 236.211 333.665 236.211"></polygon>
                <polygon id="Fill-18" fill="#11193A" mask="url(#mask-4)" points="335.116 254.95 370.308 254.95 370.308 253.696 335.116 253.696"></polygon>
                <polygon id="Fill-19" fill="#11193A" mask="url(#mask-4)" points="336.749 272.433 371.579 272.433 371.579 271.179 336.749 271.179"></polygon>
                <polygon id="Fill-20" fill="#11193A" mask="url(#mask-4)" points="338.563 289.918 373.574 289.918 373.574 288.664 338.563 288.664"></polygon>
                <polygon id="Fill-21" fill="#11193A" mask="url(#mask-4)" points="339.833 307.401 375.207 307.401 375.207 306.147 339.833 306.147"></polygon>
                <polygon id="Fill-22" fill="#11193A" mask="url(#mask-4)" points="341.828 324.885 376.839 324.885 376.839 323.631 341.828 323.631"></polygon>
                <polygon id="Fill-23" fill="#11193A" mask="url(#mask-4)" points="343.279 342.369 378.653 342.369 378.653 341.115 343.279 341.115"></polygon>
                <polygon id="Fill-24" fill="#11193A" mask="url(#mask-4)" points="344.821 359.853 379.924 359.853 379.924 358.599 344.821 358.599"></polygon>
                <polygon id="Fill-25" fill="#11193A" mask="url(#mask-4)" points="346.725 377.336 382.1 377.336 382.1 376.082 346.725 376.082"></polygon>
                <polygon id="Fill-26" fill="#11193A" mask="url(#mask-4)" points="348.086 394.821 383.188 394.821 383.188 393.567 348.086 393.567"></polygon>
                <polygon id="Fill-27" fill="#11193A" mask="url(#mask-4)" points="349.718 412.304 385.093 412.304 385.093 411.05 349.718 411.05"></polygon>
                <polygon id="Fill-28" fill="#11193A" mask="url(#mask-4)" points="351.352 429.789 386.454 429.789 386.454 428.535 351.352 428.535"></polygon>
                <polygon id="Fill-29" fill="#11193A" mask="url(#mask-4)" points="389.0896 447.272 353.2566 447.272 353.2566 446.018 388.9856 446.018"></polygon>
                <polygon id="Fill-30" fill="#E8EEFB" mask="url(#mask-4)" points="77.4714 213.7417 80.1544 211.6247 79.9644 205.4377 75.5534 203.6467 73.0754 210.8107"></polygon>
                <path d="M18.3484,239.316 C18.3484,239.316 6.5364,258.617 8.2094,261.818 C9.8834,265.018 41.8184,267.152 41.8184,267.152 L41.1394,261.878 C41.1394,261.878 18.0484,259.009 17.5034,258.113 C16.9584,257.216 28.5364,239.167 28.5364,239.167 L18.3484,239.316 Z" id="Fill-31" fill="#E8EEFB" mask="url(#mask-4)"></path>
                <path d="M26.0359,229.149 C22.6149,229.149 18.0559,234.366 19.0689,242.853 C20.0829,251.34 23.5029,270.722 23.5029,270.722 L47.1909,270.722 C47.1909,270.722 50.8649,236.899 48.0779,234.239 C45.2919,231.579 41.8709,229.149 41.8709,229.149 L26.0359,229.149" id="Fill-32" fill="#19E69B" mask="url(#mask-4)"></path>
                <path d="M58.5183,239.8316 C58.5183,239.8316 73.0933,239.4026 74.5993,236.1196 C76.1063,232.8376 78.7843,208.5266 78.7843,208.5266 L73.2363,211.6946 C73.2363,211.6946 68.3533,230.3226 67.9783,231.3026 C67.6023,232.2826 52.1633,231.8666 52.1633,231.8666 L58.5183,239.8316 Z" id="Fill-33" fill="#E8EEFB" mask="url(#mask-4)"></path>
                <path d="M41.0447,230.6353 C44.9367,229.7843 51.8017,229.9943 59.1327,231.1453 L59.8187,240.7843 L45.2857,240.7693 C42.1667,240.9833 39.4037,238.9743 38.5857,235.8963 L38.5857,235.8953 C38.1187,234.1393 39.2877,231.0203 41.0447,230.6353" id="Fill-34" fill="#33D894" mask="url(#mask-4)"></path>
                <path d="M50.865,204.9761 C50.865,204.9761 53.43,212.4661 49.123,220.4361 C48.86,220.9211 45.521,220.3681 44.395,221.6341 C43.269,222.9011 41.618,228.4121 41.618,228.4121 L35.664,215.6171 L44.395,201.6821 L50.865,204.9761 Z" id="Fill-35" fill="#E8EEFB" mask="url(#mask-4)"></path>
                <path d="M41.8708,195.855 C46.1788,195.855 53.6158,198.008 53.1278,202.949 C52.6388,207.889 47.8248,206.623 46.3048,210.169 C44.7848,213.717 41.2378,217.824 41.8708,222.331 C42.5048,226.838 44.1508,234.492 42.3778,237.659 C40.6038,240.826 34.0168,242.98 33.3838,244.626 C32.7498,246.273 26.5428,254.887 19.5758,249.313 C12.6078,243.74 8.3158,238.025 15.2678,231.072 C23.8828,222.458 17.9288,215.11 21.4758,210.296 C25.0228,205.483 30.9758,195.855 41.8708,195.855" id="Fill-36" fill="#000947" mask="url(#mask-4)"></path>
                <path d="M46.1345,212.5581 C46.1645,212.3381 46.0785,212.1211 45.9055,211.9831 C45.3035,211.5061 43.8485,210.6061 42.8655,212.0891 C41.7865,213.7191 43.3585,215.8111 44.8395,216.3891 C45.2115,216.5351 45.6205,216.2801 45.6755,215.8831 L46.1345,212.5581 Z" id="Fill-37" fill="#E8EEFB" mask="url(#mask-4)"></path>
                <path d="M19.2068,393.7173 L19.2068,399.1543 C19.2068,399.8353 19.6628,400.3883 20.2258,400.3883 L38.3918,400.3883 L38.3918,399.7043 C38.3918,399.1603 38.0328,398.6833 37.5098,398.5353 C35.3178,397.9173 29.5968,396.1263 26.7648,393.5693 C22.1218,389.3753 19.2068,393.7173 19.2068,393.7173" id="Fill-38" fill="#000947" mask="url(#mask-4)"></path>
                <path d="M47.1785,393.6001 L47.1785,399.0371 C47.1785,399.7181 47.6345,400.2711 48.1975,400.2711 L66.3635,400.2711 L66.3635,399.5871 C66.3635,399.0431 66.0045,398.5661 65.4815,398.4181 C63.2895,397.8001 57.7225,396.1581 54.8905,393.6001 C50.2475,389.4071 47.1785,393.6001 47.1785,393.6001" id="Fill-39" fill="#000947" mask="url(#mask-4)"></path>
                <path d="M35.2839,270.7222 L23.5029,270.7222 C23.5029,270.7222 15.1899,277.0662 16.2819,289.2812 C17.1379,298.8532 19.2069,393.7172 19.2069,393.7172 L26.7639,393.5692 L35.2839,318.5432 L35.2839,270.7222" id="Fill-40" fill="#242F4E" mask="url(#mask-4)"></path>
                <path d="M47.1911,270.7222 L54.8901,393.6002 L47.1781,393.6002 C47.1781,393.6002 28.7001,303.5312 25.5551,291.3702 C22.6801,280.2522 29.9431,270.7222 29.9431,270.7222" id="Fill-41" fill="#363D5A" mask="url(#mask-4)"></path>
                <path d="M72.9773,204.979 C72.9773,204.979 71.8883,210.58 72.5533,211.625 C74.0153,213.921 77.5883,213.334 77.5883,213.334 C77.5883,213.334 79.8693,212.86 80.1543,211.625 C80.4393,210.39 80.3633,205.088 79.2703,205.088 C78.7863,205.088 78.2353,204.843 77.8073,205.015 C77.0353,205.328 77.1383,206.278 76.1053,206.637 C74.3663,207.242 74.9383,205.879 74.2163,205.259 C73.8343,204.931 73.7363,204.836 72.9773,204.979" id="Fill-42" fill="#E8EEFB" mask="url(#mask-4)"></path>
                <path d="M347.5769,44.4253 C347.5769,44.4253 342.5229,51.3963 347.2379,62.9693 C347.6039,63.8673 354.0899,62.7613 354.0899,62.7613 C354.0899,62.7613 353.5319,66.1683 352.8269,68.3043 C352.5619,69.1033 351.8809,71.2623 352.1009,72.0243 C352.9279,74.8733 368.2289,75.8743 365.5259,70.3233 C363.2079,65.5603 362.9119,61.7493 362.9119,61.7493 C362.9119,61.7493 362.6489,36.8893 347.5769,44.4253" id="Fill-43" fill="#C0C6CE" mask="url(#mask-4)"></path>
                <path d="M376.3923,228.066 L376.3923,234.507 C376.3923,235.315 375.8523,235.969 375.1853,235.969 L357.0513,235.969 L357.0513,235.159 C357.0513,234.514 357.4763,233.949 358.0963,233.774 C360.6933,233.042 364.0833,230.92 367.4393,227.89 C372.9393,222.922 376.3923,228.066 376.3923,228.066" id="Fill-44" fill="#000947" mask="url(#mask-4)"></path>
                <path d="M344.2155,228.066 L344.2155,234.507 C344.2155,235.315 343.6755,235.969 343.0085,235.969 L321.4875,235.969 L321.4875,235.159 C321.4875,234.514 321.9125,233.949 322.5325,233.774 C325.1295,233.042 331.9065,230.92 335.2615,227.89 C340.7615,222.922 344.2155,228.066 344.2155,228.066" id="Fill-45" fill="#000947" mask="url(#mask-4)"></path>
                <polygon id="Fill-46" fill="#242F4E" mask="url(#mask-4)" points="378.1404 119.9839 376.3924 228.0659 367.4394 227.8899 355.4234 131.2179 357.0034 107.6439"></polygon>
                <path d="M360.5915,82.6783 L367.0295,73.5093 C367.0295,73.5093 381.9905,87.9353 382.0855,91.4773 C382.2575,97.8993 358.8895,108.6393 358.8895,108.6393 C358.8895,108.6393 354.1495,118.0223 353.9995,119.7103 C353.8505,121.4003 352.2285,112.0753 351.3865,108.7443 C350.8695,106.6993 347.3395,109.2993 346.5195,108.5903 C345.6985,107.8813 353.2075,102.0953 354.8695,102.9493 C356.0175,103.5393 372.4365,93.4073 372.4885,92.0423 C372.5535,90.3503 360.5915,82.6783 360.5915,82.6783" id="Fill-47" fill="#C0C6CE" mask="url(#mask-4)"></path>
                <polygon id="Fill-48" fill="#363D5A" mask="url(#mask-4)" points="368.696 120.2808 344.216 228.0888 335.03 228.0888 341.179 119.9838"></polygon>
                <path d="M353.8659,67.9175 C353.8659,67.9175 348.8599,66.4405 344.2619,80.3275 C339.6659,94.2145 340.9369,120.8995 340.9369,120.8995 L378.1259,120.8995 C378.1259,120.8995 381.1649,74.7015 364.3329,68.4805 C364.3329,68.4805 362.5029,70.6745 359.4119,70.5055 C356.3219,70.3365 353.8659,67.9175 353.8659,67.9175" id="Fill-49" fill="#929EAC" mask="url(#mask-4)"></path>
                <path d="M321.4489,71.3433 C321.5879,73.4403 327.9959,89.2263 329.3449,89.4323 C331.0189,89.6873 339.2519,78.9293 339.2519,78.9293 L347.6369,86.3593 C347.6369,86.3593 331.6169,99.6003 328.0879,99.2943 C321.8919,98.7593 317.4019,74.9093 316.6969,73.6073 C318.7499,72.2603 321.4489,71.3433 321.4489,71.3433" id="Fill-50" fill="#C0C6CE" mask="url(#mask-4)"></path>
                <path d="M345.3718,89.7242 C345.3718,89.7242 359.7348,77.6252 354.6868,73.0112 C349.6388,68.3962 337.2338,80.3772 337.2338,80.3772 C337.2338,80.3772 341.5018,87.5142 345.3718,89.7242" id="Fill-51" fill="#A2ACB8" mask="url(#mask-4)"></path>
                <path d="M344.6355,36.773 C344.9785,39.491 345.8075,43.612 347.6975,44.409 C347.7045,44.412 347.7085,44.415 347.7185,44.411 C347.9755,44.32 354.3575,42.149 358.3795,48.987 C362.2655,55.592 362.0725,61.329 362.0725,61.329 C362.4475,60.527 370.5405,59.074 370.5405,48.74 C370.5405,45.579 367.7095,44.837 367.3225,44.28 C366.8995,43.668 367.1675,41.356 366.5895,40.668 C363.0525,36.454 354.3965,37.958 351.7995,35.643 C349.8915,33.942 344.1785,33.159 344.6355,36.773" id="Fill-52" fill="#000947" mask="url(#mask-4)"></path>
                <path d="M358.4636,50.3619 C358.5036,50.1279 358.6606,49.9329 358.8826,49.8469 C359.6506,49.5529 361.4266,49.0989 361.9556,50.9309 C362.5366,52.9429 360.2596,54.5779 358.5596,54.6939 C358.1326,54.7219 357.7956,54.3309 357.8666,53.9089 L358.4636,50.3619 Z" id="Fill-53" fill="#C0C6CE" mask="url(#mask-4)"></path>
                <path d="M317.2097,67.1343 C318.6487,67.9553 317.4817,63.9393 318.1657,63.4333 C318.5677,63.1363 319.6327,65.8013 320.9647,67.8713 C321.8957,69.3183 321.4247,71.1783 321.4487,71.3433 C320.2337,72.6663 318.3377,72.8713 316.6727,73.6073 C316.5917,73.2543 316.6977,72.7223 315.8077,72.3893 C315.2497,72.1813 313.8807,71.4903 313.6067,70.9613 C312.6607,69.1273 312.7467,65.4073 312.7307,63.4433 C312.7277,63.1763 314.9497,65.8443 317.2097,67.1343" id="Fill-54" fill="#C0C6CE" mask="url(#mask-4)"></path>
                <path d="M36.8474,465.8687 C36.4144,465.8687 36.0254,465.5687 35.9294,465.1287 L17.3474,401.9837 C17.2374,401.4767 17.5584,400.9747 18.0664,400.8647 C18.5734,400.7527 19.0754,401.0757 19.1864,401.5827 L37.7674,464.7267 C37.8784,465.2347 37.5574,465.7357 37.0494,465.8477 C36.9824,465.8617 36.9134,465.8687 36.8474,465.8687" id="Fill-55" fill="#11193A" mask="url(#mask-4)"></path>
                <path d="M90.3113,465.8687 C89.8743,465.8687 89.4823,465.5617 89.3903,465.1177 L71.6103,400.7207 C71.5053,400.2117 71.8333,399.7137 72.3413,399.6087 C72.8543,399.5057 73.3483,399.8327 73.4533,400.3407 L91.2333,464.7377 C91.3383,465.2467 91.0103,465.7447 90.5013,465.8487 C90.4383,465.8627 90.3733,465.8687 90.3113,465.8687" id="Fill-56" fill="#11193A" mask="url(#mask-4)"></path>
                <path d="M58.9245,440.6792 L8.2785,440.6792 L13.2065,422.2702 C13.2635,422.2802 13.3205,422.2872 13.3805,422.2872 L64.8445,422.2872 L59.2615,440.7412 C59.1545,440.7042 59.0425,440.6792 58.9245,440.6792 Z M18.7065,401.7232 L71.0665,401.7232 L65.4985,420.1252 C65.4815,420.1242 65.4645,420.1192 65.4455,420.1192 L13.7815,420.1192 L18.7065,401.7232 Z M73.6175,400.6242 C73.6115,400.0242 73.1155,399.5342 72.5195,399.5502 L18.3955,399.5502 C18.3495,399.5512 18.3065,399.5572 18.2625,399.5622 C18.2575,399.5612 18.2525,399.5592 18.2475,399.5582 C17.7385,399.4542 17.2435,399.7912 17.1445,400.3012 L0.0175,464.2772 C-0.0815,464.7862 0.2505,465.2812 0.7615,465.3792 C0.8265,465.3932 0.8935,465.3982 0.9585,465.3972 C1.3935,465.3892 1.7785,465.0792 1.8645,464.6362 L7.6945,442.8622 L58.6195,442.8622 L52.0065,464.7212 C51.8935,465.2282 52.2105,465.7312 52.7175,465.8452 C52.7875,465.8612 52.8575,465.8682 52.9255,465.8682 C53.3565,465.8682 53.7435,465.5722 53.8425,465.1352 L73.0715,401.5752 C73.4015,401.3842 73.6235,401.0312 73.6175,400.6242 Z" id="Fill-57" fill="#11193A" mask="url(#mask-4)"></path>
                <path d="M54.9831,136.814 C54.9831,126.135 45.2971,117.719 34.2321,119.871 C27.3781,121.204 21.9081,126.801 20.6971,133.678 C19.4031,141.033 22.7711,147.719 28.3261,151.318 L28.3261,157.68 C28.3261,159.355 29.6841,160.713 31.3591,160.713 L44.0451,160.713 C45.7191,160.713 47.0781,159.355 47.0781,157.68 L47.0781,151.318 C51.8311,148.239 54.9831,142.899 54.9831,136.814" id="Fill-58" fill="#19E69B" mask="url(#mask-4)"></path>
                <path d="M37.9128,132.6724 C37.3128,132.6724 36.6228,133.1134 36.4448,133.9004 C36.1538,135.1904 36.3888,136.5924 37.1418,138.0654 C37.3258,138.4244 37.4938,138.7384 37.6928,139.0014 C38.7568,137.6924 39.2298,135.7584 39.1168,134.1684 C39.0528,133.2694 38.6458,132.7244 38.0018,132.6764 C37.9728,132.6734 37.9418,132.6724 37.9128,132.6724 Z M44.0888,134.6604 C44.0208,134.6604 43.9548,134.6664 43.8918,134.6804 C43.5658,134.7524 43.2458,134.9704 42.9138,135.3464 C41.6788,136.7434 41.3848,137.9144 41.3898,140.1704 C42.1178,140.0964 42.8378,139.8544 43.4338,139.3604 C44.4208,138.5464 44.9518,137.1074 44.8548,135.5084 C44.8428,135.2924 44.8188,135.1214 44.7478,134.9904 C44.6248,134.7624 44.3468,134.6604 44.0888,134.6604 Z M32.2688,134.6554 C32.2208,134.6554 32.1738,134.6594 32.1308,134.6644 C31.6538,134.7154 31.1728,135.0214 30.9318,135.4234 C30.4698,136.1944 30.4978,137.1934 30.5988,138.1574 C30.6558,138.7134 31.1358,139.2874 31.9148,139.7334 C32.3578,139.9854 32.8488,140.1764 33.3488,140.2994 C33.3368,138.3024 33.3218,136.8274 33.3048,136.3394 C33.2838,135.8014 33.2398,135.2494 32.9298,134.9204 C32.7318,134.7114 32.4798,134.6554 32.2688,134.6554 Z M41.4338,160.5984 L40.7398,160.5984 L40.7398,141.9784 C40.7258,141.5934 40.7128,141.2314 40.7048,140.8894 C40.0978,140.8734 39.4688,140.7654 38.8478,140.5584 C38.5388,140.4554 38.0988,140.2884 37.7128,139.9994 C37.3548,140.3274 36.9518,140.6034 36.5028,140.8084 C35.7538,141.1504 34.8878,141.2264 34.0468,141.1284 C34.0808,147.7414 34.0828,158.7754 34.0468,160.4624 L33.3518,160.4464 C33.3898,158.7514 33.3868,147.5974 33.3518,141.0114 C32.6868,140.8624 32.0668,140.6194 31.5698,140.3354 C30.5798,139.7694 29.9898,139.0214 29.9068,138.2294 C29.7958,137.1464 29.7688,136.0134 30.3358,135.0674 C30.6878,134.4784 31.3628,134.0494 32.0558,133.9744 C32.6018,133.9134 33.0928,134.0814 33.4338,134.4444 C33.9098,134.9484 33.9738,135.6444 33.9978,136.3144 C34.0168,136.8154 34.0308,138.3534 34.0428,140.4274 C34.8428,140.5264 35.6198,140.4474 36.2138,140.1764 C36.5808,140.0084 36.9138,139.7814 37.2118,139.5114 C36.9158,139.1474 36.7038,138.7334 36.5238,138.3814 C35.6938,136.7594 35.4398,135.2004 35.7678,133.7464 C36.0098,132.6794 37.0088,131.9044 38.0548,131.9834 C38.8338,132.0424 39.7038,132.6354 39.8088,134.1194 C39.9378,135.9224 39.4088,138.0414 38.1948,139.4924 C38.4188,139.6474 38.6948,139.7764 39.0668,139.9004 C39.5528,140.0614 40.1148,140.1724 40.6958,140.1934 C40.6898,137.7754 41.0118,136.4484 42.3928,134.8864 C42.8268,134.3964 43.2678,134.1074 43.7448,134.0024 C44.3948,133.8594 45.0748,134.1364 45.3588,134.6604 C45.4978,134.9174 45.5318,135.1994 45.5488,135.4664 C45.6578,137.2854 45.0328,138.9424 43.8768,139.8964 C43.2098,140.4474 42.3448,140.7764 41.3988,140.8654 C41.4068,141.2084 41.4188,141.5734 41.4338,141.9654 L41.4338,160.5984 Z" id="Fill-59" fill="#FFFFFF" mask="url(#mask-4)"></path>
                <path d="M45.8542,164.2994 L29.4082,164.2994 C29.0242,164.2994 28.7132,163.9884 28.7132,163.6054 C28.7132,163.2214 29.0242,162.9104 29.4082,162.9104 L45.8542,162.9104 C46.2382,162.9104 46.5482,163.2214 46.5482,163.6054 C46.5482,163.9884 46.2382,164.2994 45.8542,164.2994" id="Fill-60" fill="#242F4E" mask="url(#mask-4)"></path>
                <path d="M43.5769,167.9683 L31.6849,167.9683 C31.3019,167.9683 30.9909,167.6573 30.9909,167.2743 C30.9909,166.8903 31.3019,166.5793 31.6849,166.5793 L43.5769,166.5793 C43.9609,166.5793 44.2709,166.8903 44.2709,167.2743 C44.2709,167.6573 43.9609,167.9683 43.5769,167.9683" id="Fill-61" fill="#242F4E" mask="url(#mask-4)"></path>
            </g>
        </g>
    </g>
</svg>