<?xml version="1.0" encoding="UTF-8"?>
<svg width="43px" height="34px" viewBox="0 0 43 34" version="1.1" xmlns="http://www.w3.org/2000/svg" xmlns:xlink="http://www.w3.org/1999/xlink">
    <!-- Generator: Sketch 51.3 (57544) - http://www.bohemiancoding.com/sketch -->
    <title>Fill 10</title>
    <desc>Created with Sketch.</desc>
    <defs></defs>
    <g id="Page-1" stroke="none" stroke-width="1" fill="none" fill-rule="evenodd">
        <g id="Home" transform="translate(-767.000000, -2346.000000)" fill="#50E29D">
            <path d="M791.72332,2380 L791.72332,2372.90074 C793.70113,2372.90074 795.190913,2372.62285 796.191802,2372.06759 C797.217178,2371.46389 797.852481,2370.77569 798.096321,2370.00299 C798.36517,2369.23012 798.523909,2367.69674 798.572538,2365.40303 L791.72332,2365.40303 L791.72332,2346 L810,2346 L810,2363.44715 C810,2367.52774 809.853592,2370.30475 809.560602,2371.77785 C809.267613,2373.27481 808.413306,2374.75993 806.99664,2376.23302 C805.580842,2377.65751 803.859376,2378.64747 801.832242,2379.20326 C799.854432,2379.73413 796.484791,2380 791.72332,2380 Z M767,2380 L767,2372.90074 C768.953843,2372.90074 770.431122,2372.62285 771.43201,2372.06759 C772.482223,2371.48811 773.129335,2370.79991 773.373175,2370.00299 C773.642024,2369.20607 773.788432,2367.67252 773.812746,2365.40303 L767,2365.40303 L767,2346 L785.240209,2346 L785.240209,2363.44715 C785.240209,2367.52774 785.093801,2370.30475 784.800811,2371.77785 C784.507821,2373.27481 783.653341,2374.75993 782.236848,2376.23302 C780.820877,2377.65751 779.099411,2378.64747 777.072451,2379.20326 C775.094641,2379.73413 771.737331,2380 767,2380 Z" id="Fill-10"></path>
        </g>
    </g>
</svg>