<?xml version="1.0" encoding="UTF-8"?>
<svg width="43px" height="34px" viewBox="0 0 43 34" version="1.1" xmlns="http://www.w3.org/2000/svg" xmlns:xlink="http://www.w3.org/1999/xlink">
    <!-- Generator: Sketch 51.3 (57544) - http://www.bohemiancoding.com/sketch -->
    <title>Fill 10 Copy</title>
    <desc>Created with Sketch.</desc>
    <defs></defs>
    <g id="Page-1" stroke="none" stroke-width="1" fill="none" fill-rule="evenodd">
        <g id="Home" transform="translate(-136.000000, -2346.000000)" fill="#DCE2EF">
            <path d="M160.72332,2380 L160.72332,2372.90074 C162.70113,2372.90074 164.190913,2372.62285 165.191802,2372.06759 C166.217178,2371.46389 166.852481,2370.77569 167.096321,2370.00299 C167.36517,2369.23012 167.523909,2367.69674 167.572538,2365.40303 L160.72332,2365.40303 L160.72332,2346 L179,2346 L179,2363.44715 C179,2367.52774 178.853592,2370.30475 178.560602,2371.77785 C178.267613,2373.27481 177.413306,2374.75993 175.99664,2376.23302 C174.580842,2377.65751 172.859376,2378.64747 170.832242,2379.20326 C168.854432,2379.73413 165.484791,2380 160.72332,2380 Z M136,2380 L136,2372.90074 C137.953843,2372.90074 139.431122,2372.62285 140.43201,2372.06759 C141.482223,2371.48811 142.129335,2370.79991 142.373175,2370.00299 C142.642024,2369.20607 142.788432,2367.67252 142.812746,2365.40303 L136,2365.40303 L136,2346 L154.240209,2346 L154.240209,2363.44715 C154.240209,2367.52774 154.093801,2370.30475 153.800811,2371.77785 C153.507821,2373.27481 152.653341,2374.75993 151.236848,2376.23302 C149.820877,2377.65751 148.099411,2378.64747 146.072451,2379.20326 C144.094641,2379.73413 140.737331,2380 136,2380 Z" id="Fill-10-Copy"></path>
        </g>
    </g>
</svg>