<?xml version="1.0" encoding="UTF-8"?>
<svg width="531px" height="514px" viewBox="0 0 531 514" version="1.1" xmlns="http://www.w3.org/2000/svg" xmlns:xlink="http://www.w3.org/1999/xlink">
    <!-- Generator: Sketch 51.3 (57544) - http://www.bohemiancoding.com/sketch -->
    <title>Group 4</title>
    <desc>Created with Sketch.</desc>
    <defs>
        <polygon id="path-1" points="0.215425808 0.521 33.7196254 0.521 33.7196254 23.7751 0.215425808 23.7751"></polygon>
        <polygon id="path-3" points="0 514.479 530.458 514.479 530.458 1 0 1"></polygon>
    </defs>
    <g id="Page-1" stroke="none" stroke-width="1" fill="none" fill-rule="evenodd">
        <g id="Development-Development" transform="translate(-115.000000, -1247.000000)">
            <g id="Group-4" transform="translate(115.000000, 1246.000000)">
                <g id="Group-135">
                    <path d="M348.2396,13.6836 C348.2396,13.6836 351.8356,27.2216 340.3296,33.5946 C339.4366,34.0896 333.2816,29.5246 333.2816,29.5246 C333.2816,29.5246 332.6116,32.4906 331.7806,34.7066 C331.4686,35.5376 333.4996,35.5376 333.1556,36.2966 C329.3916,44.6156 313.2306,35.8226 319.1116,33.0566 C324.1566,30.6836 325.9586,24.2536 325.9586,24.2536 C325.9586,24.2536 338.9876,6.2316 348.2396,13.6836" id="Fill-1" fill="#C0C6CE"></path>
                    <g id="Group-5" transform="translate(322.000000, 0.479000)">
                        <mask id="mask-2" fill="white">
                            <use xlink:href="#path-1"></use>
                        </mask>
                        <g id="Clip-4"></g>
                        <path d="M26.7084,16.3481 C26.7084,16.3481 25.8664,14.5651 23.6804,13.4991 C19.3784,11.4031 12.3824,15.5421 12.3824,15.5421 C10.7844,18.3201 8.0744,21.7021 3.9584,23.7751 C1.0204,21.4941 0.3064,19.5241 0.2234,18.1121 C0.1314,16.5431 0.8594,16.1871 1.1744,13.3591 C1.5244,10.1981 0.7414,9.5311 1.5304,8.2491 C2.5234,6.6341 3.9064,7.4671 5.6884,5.5161 C7.0584,4.0181 6.9374,2.7681 8.4224,2.0701 C8.9074,1.8421 9.5054,1.7961 10.6804,1.7131 C13.1574,1.5391 13.2594,1.8711 14.7204,1.7131 C17.0204,1.4651 17.4094,0.5751 19.8304,0.5251 C20.3524,0.5151 20.9714,0.5061 21.7534,0.6841 C23.5764,1.1001 24.0454,2.2761 25.5194,2.8251 C28.7954,4.0451 30.3864,2.9821 31.3544,4.2671 C32.3754,5.6241 30.7594,7.0241 31.7774,9.5301 C32.5254,11.3691 33.8024,11.6111 33.7154,12.8601 C33.6074,14.3991 31.5774,15.4021 30.9404,15.7161 C29.1644,16.5931 27.4694,16.4581 26.7084,16.3481" id="Fill-3" fill="#000947" mask="url(#mask-2)"></path>
                    </g>
                    <path d="M335.4398,16.2304 C335.5618,16.0124 335.5618,15.7484 335.4358,15.5324 C335.0018,14.7844 333.8448,13.2394 332.2028,14.3914 C330.3978,15.6574 331.1848,18.5004 332.5018,19.7174 C332.8328,20.0234 333.3668,19.9244 333.5868,19.5324 L335.4398,16.2304 Z" id="Fill-6" fill="#C0C6CE"></path>
                    <path d="M349.724,48.9668 C349.724,48.9668 344.496,32.1628 332.653,35.6098 C332.653,35.6098 331.542,38.1538 325.483,38.1538 C319.423,38.1538 319.112,33.0568 319.112,33.0568 C319.112,33.0568 308.668,32.4788 306.054,37.3508 C303.44,42.2228 302.43,51.4618 302.43,51.4618 L349.724,48.9668 Z" id="Fill-8" fill="#19E69B"></path>
                    <mask id="mask-4" fill="white">
                        <use xlink:href="#path-3"></use>
                    </mask>
                    <g id="Clip-11"></g>
                    <polygon id="Fill-10" fill="#C0C6CE" mask="url(#mask-4)" points="209.886 510.639 338.659 510.639 338.659 399.985 209.886 399.985"></polygon>
                    <polygon id="Fill-12" fill="#F3F6FD" mask="url(#mask-4)" points="0 510.525 211.003 510.525 211.003 399.872 0 399.872"></polygon>
                    <polygon id="Fill-13" fill="#A2ACB8" mask="url(#mask-4)" points="301.642 153.408 408.415 153.408 408.415 46.89 301.642 46.89"></polygon>
                    <polygon id="Fill-14" fill="#242F4E" mask="url(#mask-4)" points="227.292 153.52 301.741 153.52 301.741 86.142 227.292 86.142"></polygon>
                    <polygon id="Fill-15" fill="#242F4E" mask="url(#mask-4)" points="337.987 511.043 447.607 511.043 447.607 260.125 337.987 260.125"></polygon>
                    <polygon id="Fill-16" fill="#A2ACB8" mask="url(#mask-4)" points="101.518 400.308 337.993 400.308 337.993 260.206 101.518 260.206"></polygon>
                    <polygon id="Fill-17" fill="#E8EEFB" mask="url(#mask-4)" points="177.533 260.198 418.672 260.198 418.672 153.68 177.533 153.68"></polygon>
                    <polygon id="Fill-18" fill="#19E69B" mask="url(#mask-4)" points="446.6293 510.7841 409.5003 115.1191 410.9203 114.9861 448.0503 510.6501"></polygon>
                    <polygon id="Fill-19" fill="#19E69B" mask="url(#mask-4)" points="486.8519 510.7841 449.7229 115.1191 451.1429 114.9861 488.2729 510.6501"></polygon>
                    <polygon id="Fill-20" fill="#19E69B" mask="url(#mask-4)" points="411.86 131.789 452.29 131.789 452.29 130.363 411.86 130.363"></polygon>
                    <polygon id="Fill-21" fill="#19E69B" mask="url(#mask-4)" points="413.305 151.669 453.94 151.669 453.94 150.243 413.305 150.243"></polygon>
                    <polygon id="Fill-22" fill="#19E69B" mask="url(#mask-4)" points="415.986 171.55 455.384 171.55 455.384 170.124 415.986 170.124"></polygon>
                    <polygon id="Fill-23" fill="#19E69B" mask="url(#mask-4)" points="417.636 191.431 457.86 191.431 457.86 190.005 417.636 190.005"></polygon>
                    <polygon id="Fill-24" fill="#19E69B" mask="url(#mask-4)" points="419.286 211.311 459.303 211.311 459.303 209.885 419.286 209.885"></polygon>
                    <polygon id="Fill-25" fill="#19E69B" mask="url(#mask-4)" points="421.349 231.191 461.366 231.191 461.366 229.765 421.349 229.765"></polygon>
                    <polygon id="Fill-26" fill="#19E69B" mask="url(#mask-4)" points="423.205 251.072 463.222 251.072 463.222 249.646 423.205 249.646"></polygon>
                    <polygon id="Fill-27" fill="#19E69B" mask="url(#mask-4)" points="424.855 270.952 464.872 270.952 464.872 269.526 424.855 269.526"></polygon>
                    <polygon id="Fill-28" fill="#19E69B" mask="url(#mask-4)" points="426.713 290.833 466.317 290.833 466.317 289.407 426.713 289.407"></polygon>
                    <polygon id="Fill-29" fill="#19E69B" mask="url(#mask-4)" points="428.774 310.714 468.585 310.714 468.585 309.287 428.774 309.287"></polygon>
                    <polygon id="Fill-30" fill="#19E69B" mask="url(#mask-4)" points="430.219 330.594 470.442 330.594 470.442 329.168 430.219 329.168"></polygon>
                    <polygon id="Fill-31" fill="#19E69B" mask="url(#mask-4)" points="432.487 350.475 472.298 350.475 472.298 349.049 432.487 349.049"></polygon>
                    <polygon id="Fill-32" fill="#19E69B" mask="url(#mask-4)" points="434.138 370.355 474.361 370.355 474.361 368.928 434.138 368.928"></polygon>
                    <polygon id="Fill-33" fill="#19E69B" mask="url(#mask-4)" points="435.892 390.235 475.805 390.235 475.805 388.809 435.892 388.809"></polygon>
                    <polygon id="Fill-34" fill="#19E69B" mask="url(#mask-4)" points="438.057 410.116 478.281 410.116 478.281 408.69 438.057 408.69"></polygon>
                    <polygon id="Fill-35" fill="#19E69B" mask="url(#mask-4)" points="439.604 429.997 479.518 429.997 479.518 428.57 439.604 428.57"></polygon>
                    <polygon id="Fill-36" fill="#19E69B" mask="url(#mask-4)" points="441.46 449.877 481.684 449.877 481.684 448.451 441.46 448.451"></polygon>
                    <polygon id="Fill-37" fill="#19E69B" mask="url(#mask-4)" points="443.317 469.758 483.231 469.758 483.231 468.332 443.317 468.332"></polygon>
                    <polygon id="Fill-38" fill="#19E69B" mask="url(#mask-4)" points="486.2279 489.6386 445.4829 489.6386 445.4829 488.2116 486.1089 488.2116"></polygon>
                    <path d="M477.6761,417.6699 C477.6761,417.6699 479.5831,417.1839 479.7681,417.5699 C479.9531,417.9579 478.0511,418.9169 477.6471,418.8499 C477.2431,418.7819 477.1931,417.7389 477.6761,417.6699" id="Fill-39" fill="#FFD6C7" mask="url(#mask-4)"></path>
                    <path d="M477.7933,418.831 C477.7933,418.831 480.0883,418.261 480.1053,418.85 C480.1213,419.439 478.1693,420.079 477.7653,420.012 C477.3603,419.944 476.9063,418.968 477.7933,418.831" id="Fill-40" fill="#FFD6C7" mask="url(#mask-4)"></path>
                    <path d="M478.1322,419.9589 C478.1322,419.9589 480.1572,419.3889 480.1722,419.9779 C480.1872,420.5669 478.4632,421.2069 478.1072,421.1399 C477.7502,421.0719 477.3492,420.0959 478.1322,419.9589" id="Fill-41" fill="#FFD6C7" mask="url(#mask-4)"></path>
                    <path d="M478.4662,421.0976 C478.4662,421.0976 480.0262,420.6576 480.0372,421.1126 C480.0492,421.5686 478.7212,422.0636 478.4462,422.0106 C478.1722,421.9586 477.8622,421.2036 478.4662,421.0976" id="Fill-42" fill="#FFD6C7" mask="url(#mask-4)"></path>
                    <path d="M481.7211,416.2744 L480.2141,415.9814 C480.0071,415.9414 479.7961,415.9234 479.5851,415.9364 C478.9721,415.9754 478.3371,416.0724 478.4721,416.3584 C478.6071,416.6444 478.9651,416.6354 479.4651,416.6444 L480.1291,417.1274 C480.4601,417.3664 480.9421,417.3794 481.2241,417.0854 C481.4091,416.8914 481.7401,416.6444 481.7211,416.2744" id="Fill-43" fill="#FFDDCD" mask="url(#mask-4)"></path>
                    <polygon id="Fill-44" fill="#242F4E" mask="url(#mask-4)" points="279.437 236.803 333.057 236.803 333.057 200.913 279.437 200.913"></polygon>
                    <polygon id="Fill-45" fill="#50E29D" mask="url(#mask-4)" points="274.7064 121.0996 259.0914 111.9246 258.9534 130.0366"></polygon>
                    <path d="M157.3763,295.3632 C157.3763,284.3982 147.4303,275.7562 136.0673,277.9662 C129.0293,279.3342 123.4123,285.0822 122.1693,292.1432 C120.8403,299.6962 124.2993,306.5612 130.0033,310.2572 L130.0033,316.7902 C130.0033,318.5102 131.3973,319.9052 133.1173,319.9052 L146.1443,319.9052 C147.8633,319.9052 149.2583,318.5102 149.2583,316.7902 L149.2583,310.2572 C154.1393,307.0942 157.3763,301.6122 157.3763,295.3632" id="Fill-46" fill="#19E69B" mask="url(#mask-4)"></path>
                    <path d="M139.847,291.1113 C139.232,291.1113 138.523,291.5643 138.34,292.3723 C138.041,293.6963 138.282,295.1353 139.056,296.6483 C139.244,297.0173 139.417,297.3403 139.621,297.6103 C140.714,296.2653 141.201,294.2803 141.084,292.6473 C141.018,291.7233 140.601,291.1643 139.939,291.1153 C139.909,291.1123 139.878,291.1113 139.847,291.1113 Z M146.189,293.1523 C146.119,293.1523 146.051,293.1593 145.988,293.1733 C145.653,293.2473 145.324,293.4703 144.982,293.8563 C143.714,295.2913 143.412,296.4943 143.417,298.8103 C144.165,298.7343 144.905,298.4853 145.517,297.9783 C146.53,297.1433 147.076,295.6643 146.977,294.0233 C146.963,293.8013 146.939,293.6263 146.867,293.4923 C146.74,293.2573 146.454,293.1523 146.189,293.1523 Z M134.052,293.1483 C134.002,293.1483 133.954,293.1513 133.91,293.1563 C133.42,293.2093 132.926,293.5223 132.679,293.9363 C132.204,294.7283 132.234,295.7543 132.336,296.7433 C132.395,297.3133 132.888,297.9033 133.688,298.3613 C134.143,298.6213 134.647,298.8163 135.16,298.9433 C135.148,296.8913 135.133,295.3783 135.115,294.8763 C135.094,294.3243 135.048,293.7573 134.73,293.4203 C134.528,293.2053 134.269,293.1483 134.052,293.1483 Z M143.463,319.7873 L142.75,319.7873 L142.75,300.6673 C142.736,300.2713 142.723,299.8993 142.715,299.5493 C142.09,299.5333 141.445,299.4213 140.807,299.2093 C140.49,299.1033 140.038,298.9313 139.641,298.6343 C139.275,298.9713 138.861,299.2543 138.399,299.4653 C137.63,299.8163 136.741,299.8943 135.877,299.7953 C135.911,306.5853 135.914,317.9153 135.877,319.6473 L135.164,319.6323 C135.202,317.8903 135.2,306.4363 135.164,299.6743 C134.482,299.5213 133.845,299.2713 133.334,298.9793 C132.318,298.3983 131.711,297.6313 131.626,296.8173 C131.512,295.7053 131.486,294.5413 132.067,293.5703 C132.428,292.9653 133.122,292.5243 133.832,292.4473 C134.394,292.3853 134.897,292.5573 135.248,292.9303 C135.737,293.4483 135.802,294.1623 135.826,294.8503 C135.846,295.3653 135.862,296.9443 135.873,299.0743 C136.695,299.1753 137.493,299.0953 138.102,298.8163 C138.48,298.6443 138.822,298.4123 139.127,298.1333 C138.824,297.7593 138.606,297.3353 138.421,296.9733 C137.569,295.3073 137.308,293.7073 137.645,292.2143 C137.893,291.1173 138.919,290.3233 139.993,290.4033 C140.792,290.4643 141.686,291.0723 141.795,292.5973 C141.927,294.4483 141.384,296.6243 140.138,298.1143 C140.367,298.2723 140.651,298.4053 141.033,298.5323 C141.531,298.6983 142.109,298.8123 142.705,298.8343 C142.7,296.3503 143.03,294.9893 144.448,293.3833 C144.894,292.8813 145.347,292.5843 145.835,292.4763 C146.503,292.3303 147.202,292.6143 147.493,293.1533 C147.636,293.4173 147.671,293.7063 147.688,293.9803 C147.801,295.8473 147.159,297.5483 145.971,298.5283 C145.286,299.0943 144.398,299.4313 143.427,299.5243 C143.435,299.8763 143.448,300.2513 143.463,300.6533 L143.463,319.7873 Z" id="Fill-47" fill="#FFFFFF" mask="url(#mask-4)"></path>
                    <path d="M148.0023,323.5879 L131.1133,323.5879 C130.7203,323.5879 130.4003,323.2689 130.4003,322.8739 C130.4003,322.4809 130.7203,322.1609 131.1133,322.1609 L148.0023,322.1609 C148.3963,322.1609 148.7153,322.4809 148.7153,322.8739 C148.7153,323.2689 148.3963,323.5879 148.0023,323.5879" id="Fill-48" fill="#242F4E" mask="url(#mask-4)"></path>
                    <path d="M145.6635,327.3545 L133.4525,327.3545 C133.0595,327.3545 132.7395,327.0365 132.7395,326.6415 C132.7395,326.2485 133.0595,325.9285 133.4525,325.9285 L145.6635,325.9285 C146.0585,325.9285 146.3765,326.2485 146.3765,326.6415 C146.3765,327.0365 146.0585,327.3545 145.6635,327.3545" id="Fill-49" fill="#242F4E" mask="url(#mask-4)"></path>
                    <path d="M249.2269,205.3349 C249.2269,205.3349 254.3719,212.4309 249.5719,224.2119 C249.1999,225.1269 242.5969,224.0009 242.5969,224.0009 C242.5969,224.0009 243.1649,227.4689 243.8829,229.6429 C244.1519,230.4559 244.8449,232.6539 244.6209,233.4299 C243.7809,236.3299 228.2039,237.3499 230.9549,231.6979 C233.3149,226.8499 233.6169,222.9709 233.6169,222.9709 C233.6169,222.9709 233.8839,197.6629 249.2269,205.3349" id="Fill-50" fill="#C0C6CE" mask="url(#mask-4)"></path>
                    <path d="M219.8929,392.2753 L219.8929,398.8323 C219.8929,399.6543 220.4439,400.3203 221.1219,400.3203 L239.5809,400.3203 L239.5809,399.4963 C239.5809,398.8393 239.1489,398.2633 238.5179,398.0863 C235.8739,397.3403 232.4229,395.1813 229.0079,392.0963 C223.4099,387.0403 219.8929,392.2753 219.8929,392.2753" id="Fill-51" fill="#000947" mask="url(#mask-4)"></path>
                    <path d="M252.6488,392.2753 L252.6488,398.8323 C252.6488,399.6543 253.1988,400.3203 253.8778,400.3203 L275.7848,400.3203 L275.7848,399.4963 C275.7848,398.8393 275.3518,398.2633 274.7208,398.0863 C272.0778,397.3403 265.1778,395.1813 261.7628,392.0963 C256.1648,387.0403 252.6488,392.2753 252.6488,392.2753" id="Fill-52" fill="#000947" mask="url(#mask-4)"></path>
                    <polygon id="Fill-53" fill="#242F4E" mask="url(#mask-4)" points="218.1136 282.2509 219.8926 392.2749 229.0086 392.0969 241.2396 293.6879 239.6306 269.6889"></polygon>
                    <path d="M235.9779,244.2754 L229.4239,234.9414 C229.4239,234.9414 214.1949,249.6274 214.0979,253.2324 C213.9229,259.7694 237.7109,270.7034 237.7109,270.7034 C237.7109,270.7034 242.5369,280.2544 242.6889,281.9734 C242.8399,283.6924 244.4929,274.2014 245.3489,270.8104 C245.8749,268.7274 249.4679,271.3754 250.3029,270.6534 C251.1379,269.9314 243.4949,264.0414 241.8029,264.9114 C240.6349,265.5114 223.9199,255.1964 223.8679,253.8074 C223.8009,252.0854 235.9779,244.2754 235.9779,244.2754" id="Fill-54" fill="#C0C6CE" mask="url(#mask-4)"></path>
                    <polygon id="Fill-55" fill="#363D5A" mask="url(#mask-4)" points="227.7279 282.5537 252.6489 392.2977 261.9989 392.2977 255.7399 282.2507"></polygon>
                    <path d="M242.8246,229.249 C242.8246,229.249 247.9206,227.746 252.5996,241.883 C257.2806,256.02 255.9856,283.184 255.9856,283.184 L218.1296,283.184 C218.1296,283.184 215.0356,236.155 232.1706,229.823 C232.1706,229.823 234.0336,232.056 237.1786,231.884 C240.3246,231.711 242.8246,229.249 242.8246,229.249" id="Fill-56" fill="#19E69B" mask="url(#mask-4)"></path>
                    <path d="M275.8246,232.7373 C275.6826,234.8713 269.1596,250.9413 267.7856,251.1503 C266.0816,251.4103 257.7016,240.4593 257.7016,240.4593 L249.1656,248.0223 C249.1656,248.0223 265.4726,261.5013 269.0666,261.1903 C275.3736,260.6453 279.9436,236.3673 280.6616,235.0413 C278.5726,233.6703 275.8246,232.7373 275.8246,232.7373" id="Fill-57" fill="#C0C6CE" mask="url(#mask-4)"></path>
                    <path d="M251.4711,251.4482 C251.4711,251.4482 236.8501,239.1322 241.9891,234.4342 C247.1281,229.7372 259.7551,241.9332 259.7551,241.9332 C259.7551,241.9332 255.4111,249.1972 251.4711,251.4482" id="Fill-58" fill="#33D894" mask="url(#mask-4)"></path>
                    <path d="M252.222,197.5459 C251.872,200.3129 251.029,204.5079 249.105,205.3169 C249.096,205.3209 249.092,205.3239 249.083,205.3199 C248.822,205.2289 242.325,203.0179 238.23,209.9789 C234.275,216.7029 234.47,222.5419 234.47,222.5419 C234.088,221.7269 225.85,220.2469 225.85,209.7269 C225.85,206.5089 228.733,205.7539 229.125,205.1879 C229.557,204.5649 229.285,202.2109 229.872,201.5099 C233.473,197.2209 242.285,198.7509 244.929,196.3949 C246.87,194.6639 252.687,193.8659 252.222,197.5459" id="Fill-59" fill="#000947" mask="url(#mask-4)"></path>
                    <path d="M238.1439,211.3779 C238.1039,211.1399 237.9439,210.9409 237.7179,210.8549 C236.9369,210.5549 235.1279,210.0929 234.5899,211.9569 C233.9979,214.0059 236.3169,215.6699 238.0459,215.7879 C238.4819,215.8169 238.8249,215.4189 238.7519,214.9889 L238.1439,211.3779 Z" id="Fill-60" fill="#C0C6CE" mask="url(#mask-4)"></path>
                    <path d="M280.139,228.4521 C278.674,229.2881 279.863,225.2001 279.166,224.6841 C278.756,224.3821 277.673,227.0961 276.317,229.2031 C275.369,230.6761 275.849,232.5681 275.825,232.7371 C277.061,234.0841 278.991,234.2931 280.686,235.0411 C280.769,234.6811 280.66,234.1401 281.567,233.8021 C282.135,233.5901 283.529,232.8871 283.806,232.3481 C284.77,230.4811 284.683,226.6951 284.7,224.6941 C284.702,224.4231 282.44,227.1391 280.139,228.4521" id="Fill-61" fill="#C0C6CE" mask="url(#mask-4)"></path>
                    <path d="M440.1107,81.1035 C440.1107,81.1035 418.7017,89.6235 415.5957,88.1225 C412.4907,86.6205 400.1957,69.3655 400.1957,69.3655 L404.4017,68.9645 C404.4017,68.9645 417.3477,80.7475 418.2207,81.2405 C419.0927,81.7345 438.7407,73.5185 438.7407,73.5185 L440.1107,81.1035 Z" id="Fill-62" fill="#C0C6CE" mask="url(#mask-4)"></path>
                    <path d="M426.0238,79.83 C426.0238,79.83 441.2468,70.611 443.9318,76.672 C446.9498,83.48 428.5478,87.873 428.5478,87.873 L426.0238,79.83 Z" id="Fill-63" fill="#FF7F8E" mask="url(#mask-4)"></path>
                    <path d="M434.4174,61.5361 C434.4174,61.5361 433.0284,71.3031 431.2104,74.0861 C429.3924,76.8691 447.5424,71.4241 447.5424,71.4241 C447.5424,71.4241 441.2414,66.1281 440.4024,62.8331 C439.5644,59.5391 434.4174,61.5361 434.4174,61.5361" id="Fill-64" fill="#C0C6CE" mask="url(#mask-4)"></path>
                    <path d="M436.5316,44.5625 C436.5316,44.5625 423.9536,56.5825 427.8196,60.8975 C429.1356,62.3665 440.6486,63.1775 440.6486,63.1775 L448.8736,50.7335 L436.5316,44.5625 Z" id="Fill-65" fill="#C0C6CE" mask="url(#mask-4)"></path>
                    <path d="M435.8724,45.2138 C435.8724,45.2138 435.1444,36.6668 443.9114,38.1498 C454.7614,39.9838 455.8914,43.1098 457.5844,48.1928 C459.2784,53.2748 454.0794,64.3398 440.6484,63.1778 C440.6484,63.1778 439.4854,61.6078 441.4614,57.6238 C442.0254,56.4858 444.9354,47.1668 435.8724,45.2138" id="Fill-66" fill="#000947" mask="url(#mask-4)"></path>
                    <path d="M458.976,50.6191 C458.976,50.1361 458.915,43.9571 466.296,43.3351 C474.255,42.6631 491.343,56.9251 505.016,55.2121 C518.689,53.4981 521.171,46.3921 523.892,48.5371 C530.184,53.4981 521.351,58.4591 525.102,65.4771 C529.109,72.9741 521.356,83.0191 509.372,83.0211 C501.507,83.0231 502.746,76.7901 499.813,77.4561 C483.841,81.0861 477.81,70.1461 474.646,65.9611 C470.895,61.0001 462.183,53.7401 458.915,53.9821 L458.976,50.6191 Z" id="Fill-67" fill="#000947" mask="url(#mask-4)"></path>
                    <path d="M457.4838,54.5781 C456.7258,54.4471 456.2178,53.7271 456.3488,52.9711 L456.6978,50.9431 C456.8288,50.1861 457.5478,49.6781 458.3058,49.8081 C459.0628,49.9391 459.5708,50.6591 459.4408,51.4161 L459.0908,53.4431 C458.9608,54.2001 458.2408,54.7091 457.4838,54.5781" id="Fill-68" fill="#A2ACB8" mask="url(#mask-4)"></path>
                    <path d="M441.8324,53.8515 C441.9394,53.6685 442.1344,53.5575 442.3464,53.5585 C443.0784,53.5595 444.7014,53.7525 444.5534,55.4475 C444.3894,57.3065 441.9704,57.9335 440.5194,57.4845 C440.1544,57.3715 440.0004,56.9375 440.1954,56.6085 L441.8324,53.8515 Z" id="Fill-69" fill="#C0C6CE" mask="url(#mask-4)"></path>
                    <path d="M432.5287,71.5517 C432.5287,71.5517 424.8007,79.1607 424.7947,83.4037 C424.7887,86.9117 426.9667,88.4267 428.0607,92.4777 C429.8927,99.2637 431.0827,107.2397 431.0827,107.2397 L453.5917,107.2397 C453.5917,107.2397 457.5067,76.8277 445.0827,69.1647 C445.0827,69.1647 435.0697,73.2447 432.5287,71.5517" id="Fill-70" fill="#929EAC" mask="url(#mask-4)"></path>
                    <path d="M439.7816,87.5771 C439.7816,87.5771 422.3136,101.5271 418.8656,101.4361 C415.4176,101.3461 400.4646,85.3771 400.4646,85.3771 L404.1336,83.2821 C404.1336,83.2821 417.6256,93.7181 418.6236,93.8081 C419.6216,93.8991 435.4136,81.2271 435.4136,81.2271 L439.7816,87.5771 Z" id="Fill-71" fill="#C0C6CE" mask="url(#mask-4)"></path>
                    <path d="M427.9008,86.7236 C427.9008,86.7236 439.8488,73.8036 445.0548,77.9066 C450.9058,82.5156 433.8918,92.6546 433.8918,92.6546 L427.9008,86.7236 Z" id="Fill-72" fill="#A2ACB8" mask="url(#mask-4)"></path>
                    <path d="M500.0902,127.5293 L501.2742,122.4723 C501.4222,121.8393 501.9672,121.4253 502.4902,121.5473 L519.3842,125.5033 L519.2362,126.1393 C519.1162,126.6443 518.6792,127.0103 518.1602,127.0343 C515.9872,127.1323 510.4522,127.4463 507.2622,129.2093 C502.0302,132.0973 500.0902,127.5293 500.0902,127.5293" id="Fill-73" fill="#000947" mask="url(#mask-4)"></path>
                    <polygon id="Fill-74" fill="#C0C6CE" mask="url(#mask-4)" points="504.597 132.1172 507.262 129.2092 500.176 127.3252 499.826 132.1172"></polygon>
                    <path d="M453.5922,107.2392 C453.5922,107.2392 459.1572,112.9872 459.7892,122.5912 C460.4152,132.1022 468.2332,152.2512 470.6532,152.7342 C473.0722,153.2182 500.1762,127.3252 500.1762,127.3252 L505.2582,132.1652 C505.2582,132.1652 480.0902,169.1902 469.6852,169.9172 C459.2792,170.6422 444.2662,141.8442 444.2662,141.8442 L453.5922,107.2392 Z" id="Fill-75" fill="#242F4E" mask="url(#mask-4)"></path>
                    <path d="M442.5013,224.7285 L442.5013,229.9215 C442.5013,230.5735 442.0653,231.1005 441.5273,231.1005 L424.1773,231.1005 L424.1773,230.4475 C424.1773,229.9275 424.5193,229.4715 425.0193,229.3315 C427.1123,228.7405 432.4303,227.1715 435.1353,224.7285 C439.5693,220.7235 442.5013,224.7285 442.5013,224.7285" id="Fill-76" fill="#000947" mask="url(#mask-4)"></path>
                    <path d="M416.3744,60.9365 C416.3744,74.8365 405.1054,86.1065 391.2044,86.1065 C377.3034,86.1065 366.0344,74.8365 366.0344,60.9365 C366.0344,47.0355 377.3034,35.7665 391.2044,35.7665 C405.1054,35.7665 416.3744,47.0355 416.3744,60.9365" id="Fill-77" fill="#19E69B" mask="url(#mask-4)"></path>
                    <path d="M403.5023,82.374 C406.6563,85.742 402.2123,87.37 399.8913,85.013 C398.7703,83.873 393.8883,81.028 395.0763,74.428 C395.1543,73.991 397.0703,73.558 397.8783,73.35 C398.0973,73.294 398.3153,73.435 398.3573,73.655 C398.3573,73.655 398.8273,79.64 399.6783,78.664 C399.7563,78.574 399.5643,74.233 401.0073,77.754 C402.4693,81.323 403.5023,82.374 403.5023,82.374" id="Fill-78" fill="#C0C6CE" mask="url(#mask-4)"></path>
                    <path d="M435.1449,224.7197 C435.1449,224.7197 433.3849,111.8977 431.0829,107.2397 L453.5919,107.2397 C453.5919,107.2397 456.4759,111.6037 454.1769,121.5257 C451.8779,131.4477 442.5109,224.8287 442.5109,224.8287 L435.1449,224.7197 Z" id="Fill-79" fill="#363D5A" mask="url(#mask-4)"></path>
                    <path d="M391.2045,64.4658 C389.2585,64.4658 387.6755,62.8818 387.6755,60.9368 C387.6755,58.9898 389.2585,57.4068 391.2045,57.4068 C393.1505,57.4068 394.7335,58.9898 394.7335,60.9368 C394.7335,62.8818 393.1505,64.4658 391.2045,64.4658 M391.2045,47.8708 C389.7085,47.8708 388.4175,48.7818 387.9155,50.1928 L387.4585,51.4778 C387.4185,51.5898 387.3115,51.6198 387.2555,51.6198 C387.2255,51.6198 387.1945,51.6128 387.1645,51.5998 L385.9335,51.0138 C385.4505,50.7838 384.9425,50.6678 384.4255,50.6678 L384.4245,50.6678 C383.2455,50.6678 382.1155,51.2988 381.4745,52.3138 C380.8365,53.3228 380.7645,54.5748 381.2815,55.6648 L381.8675,56.8968 C381.9005,56.9678 381.8885,57.0298 381.8715,57.0698 C381.8545,57.1108 381.8195,57.1638 381.7455,57.1908 L380.4615,57.6478 C379.0515,58.1488 378.1405,59.4398 378.1405,60.9368 C378.1405,62.4328 379.0515,63.7238 380.4615,64.2258 L381.7455,64.6818 C381.8195,64.7078 381.8545,64.7618 381.8715,64.8018 C381.8885,64.8418 381.9005,64.9048 381.8675,64.9758 L381.2815,66.2068 C380.7645,67.2968 380.8365,68.5488 381.4745,69.5588 C382.1155,70.5738 383.2465,71.2038 384.4245,71.2038 C384.9425,71.2038 385.4505,71.0878 385.9335,70.8588 L387.1645,70.2738 C387.1945,70.2588 387.2255,70.2518 387.2555,70.2518 C387.3115,70.2518 387.4185,70.2818 387.4585,70.3958 L387.9155,71.6798 C388.4175,73.0898 389.7085,74.0008 391.2045,74.0008 C392.7005,74.0008 393.9915,73.0898 394.4935,71.6798 L394.9505,70.3958 C394.9905,70.2818 395.0975,70.2518 395.1535,70.2518 C395.1835,70.2518 395.2145,70.2588 395.2445,70.2738 L396.4755,70.8588 C396.9585,71.0878 397.4665,71.2038 397.9845,71.2038 C399.1635,71.2038 400.2945,70.5738 400.9345,69.5588 C401.5725,68.5488 401.6445,67.2968 401.1275,66.2068 L400.5415,64.9758 C400.5085,64.9048 400.5205,64.8418 400.5375,64.8018 C400.5545,64.7618 400.5895,64.7078 400.6635,64.6818 L401.9475,64.2258 C403.3575,63.7238 404.2685,62.4328 404.2685,60.9368 C404.2685,59.4398 403.3575,58.1488 401.9475,57.6478 L400.6635,57.1908 C400.5895,57.1638 400.5545,57.1108 400.5375,57.0698 C400.5205,57.0298 400.5085,56.9678 400.5415,56.8968 L401.1275,55.6648 C401.6445,54.5758 401.5725,53.3228 400.9345,52.3148 C400.2935,51.2988 399.1635,50.6678 397.9845,50.6678 C397.4665,50.6678 396.9585,50.7838 396.4755,51.0138 L395.2445,51.5988 C395.2145,51.6128 395.1835,51.6198 395.1535,51.6198 C395.0975,51.6198 394.9905,51.5898 394.9505,51.4778 L394.4935,50.1928 C393.9915,48.7818 392.7005,47.8708 391.2045,47.8708 M391.2045,65.9178 C393.9555,65.9178 396.1855,63.6878 396.1855,60.9368 C396.1855,58.1858 393.9555,55.9548 391.2045,55.9548 C388.4535,55.9548 386.2235,58.1858 386.2235,60.9368 C386.2235,63.6878 388.4535,65.9178 391.2045,65.9178 M391.2045,49.3228 C392.0045,49.3228 392.8045,49.7758 393.1255,50.6788 L393.5825,51.9638 C393.8275,52.6528 394.4735,53.0718 395.1535,53.0718 C395.3925,53.0718 395.6365,53.0208 395.8675,52.9098 L397.0995,52.3248 C397.3965,52.1838 397.6965,52.1198 397.9845,52.1198 C399.3745,52.1198 400.4975,53.6068 399.8155,55.0418 L399.2295,56.2738 C398.8065,57.1648 399.2465,58.2278 400.1775,58.5588 L401.4615,59.0158 C403.2685,59.6578 403.2685,62.2148 401.4615,62.8578 L400.1775,63.3138 C399.2465,63.6448 398.8065,64.7068 399.2295,65.5998 L399.8155,66.8308 C400.4975,68.2658 399.3755,69.7528 397.9845,69.7528 C397.6965,69.7528 397.3965,69.6888 397.0995,69.5468 L395.8675,68.9618 C395.6365,68.8518 395.3925,68.7998 395.1535,68.7998 C394.4735,68.7998 393.8275,69.2198 393.5825,69.9078 L393.1255,71.1938 C392.8045,72.0968 392.0045,72.5488 391.2045,72.5488 C390.4045,72.5488 389.6045,72.0968 389.2835,71.1938 L388.8265,69.9078 C388.5815,69.2198 387.9355,68.7998 387.2555,68.7998 C387.0175,68.7998 386.7725,68.8518 386.5415,68.9618 L385.3095,69.5468 C385.0125,69.6888 384.7135,69.7528 384.4245,69.7528 C383.0345,69.7528 381.9115,68.2658 382.5935,66.8308 L383.1795,65.5998 C383.6025,64.7068 383.1625,63.6448 382.2315,63.3138 L380.9475,62.8578 C379.1405,62.2148 379.1405,59.6578 380.9475,59.0158 L382.2315,58.5588 C383.1625,58.2278 383.6025,57.1648 383.1795,56.2738 L382.5935,55.0418 C381.9115,53.6068 383.0345,52.1198 384.4245,52.1198 C384.7125,52.1198 385.0135,52.1838 385.3095,52.3248 L386.5415,52.9098 C386.7735,53.0208 387.0165,53.0718 387.2555,53.0718 C387.9355,53.0718 388.5815,52.6528 388.8265,51.9638 L389.2835,50.6788 C389.6045,49.7758 390.4045,49.3228 391.2045,49.3228" id="Fill-80" fill="#FFFFFF" mask="url(#mask-4)"></path>
                    <path d="M489.7318,504.0019 L489.7318,510.9419 C489.7318,511.8129 489.1488,512.5179 488.4308,512.5179 L465.2398,512.5179 L465.2398,511.6449 C465.2398,510.9499 465.6978,510.3409 466.3658,510.1519 C469.1638,509.3629 476.4668,507.0769 480.0828,503.8129 C486.0098,498.4589 489.7318,504.0019 489.7318,504.0019" id="Fill-81" fill="#000947" mask="url(#mask-4)"></path>
                    <path d="M526.4281,494.1074 L530.1681,499.9554 C530.6371,500.6874 530.5271,501.5954 529.9211,501.9834 L510.3851,514.4794 L509.9141,513.7434 C509.5401,513.1584 509.5971,512.3984 510.0591,511.8794 C511.9901,509.7074 516.9111,503.8454 518.1981,499.1474 C520.3061,491.4444 526.4281,494.1074 526.4281,494.1074" id="Fill-82" fill="#000947" mask="url(#mask-4)"></path>
                    <polygon id="Fill-83" fill="#242F4E" mask="url(#mask-4)" points="471.0619 387.8212 479.7859 504.0702 489.7679 504.0702 494.5129 427.9692 492.3229 381.0692"></polygon>
                    <path d="M510.8461,385.8701 C513.0061,417.0201 500.6761,423.8661 526.6531,494.4591 L517.9841,499.8351 C517.9841,499.8351 483.7451,450.1131 483.7451,387.8211 L510.8461,385.8701 Z" id="Fill-84" fill="#363D5A" mask="url(#mask-4)"></path>
                    <path d="M436.8441,348.8886 C437.5741,350.8046 455.5881,356.7056 457.0591,356.7056 C458.8841,356.7056 466.6531,343.5096 466.6531,343.5096 L476.7911,350.0646 C476.7911,350.0646 461.8721,366.7686 458.0631,367.0166 C451.1551,367.4656 432.6471,354.4246 432.6471,354.4246 C431.9171,354.1276 426.7841,354.8506 426.8071,352.2346 C426.8411,348.3096 426.0771,344.4786 432.7391,345.1176 C432.7391,345.1176 431.9341,340.4146 435.3101,341.1446 C435.3101,341.1446 434.3361,344.3156 435.1411,345.1176 C436.7291,346.6996 436.8441,348.8886 436.8441,348.8886" id="Fill-85" fill="#E8EEFB" mask="url(#mask-4)"></path>
                    <path d="M474.9242,354.0175 C474.9242,354.0175 488.2632,338.7975 482.1362,334.7015 C476.0092,330.6035 464.7382,345.3795 464.7382,345.3795 C464.7382,345.3795 470.4432,352.2895 474.9242,354.0175" id="Fill-86" fill="#A2ACB8" mask="url(#mask-4)"></path>
                    <path d="M479.1869,305.6259 C479.1869,305.6259 473.7419,313.1379 478.8219,325.6079 C479.2159,326.5769 486.2049,325.3859 486.2049,325.3859 C486.2049,325.3859 483.4849,329.3969 481.9209,331.2479 C480.8069,332.5659 476.5459,340.5389 484.2019,337.2699 C487.1419,336.0149 501.4419,339.5169 498.5299,333.5339 C496.0309,328.4009 494.5119,323.9479 494.5119,323.9479 C494.5119,323.9479 495.4289,297.5049 479.1869,305.6259" id="Fill-87" fill="#E8EEFB" mask="url(#mask-4)"></path>
                    <path d="M496.4349,329.1045 C513.7659,340.3555 511.1489,387.8215 511.1489,387.8215 L471.0619,387.8215 C471.0619,387.8215 467.8699,332.0015 481.9209,331.4135 C481.9209,331.4135 483.4329,335.6385 487.7869,335.2455 C492.1409,334.8525 496.4349,329.1045 496.4349,329.1045" id="Fill-88" fill="#929EAC" mask="url(#mask-4)"></path>
                    <path d="M475.7211,297.4873 C476.0911,300.4163 476.9851,304.8573 479.0211,305.7153 C479.0301,305.7183 479.0341,305.7213 479.0431,305.7173 C479.3211,305.6203 486.1981,303.2803 490.5331,310.6483 C492.0931,313.3003 491.8741,316.6193 492.4521,318.7403 C493.4261,322.3113 494.5121,323.9483 494.5121,323.9483 C494.9161,323.0853 503.6381,323.4893 503.6381,308.1923 C503.6381,304.7863 500.5861,303.9873 500.1701,303.3863 C499.7131,302.7273 500.0021,300.2353 499.3791,299.4933 C495.5691,294.9533 486.2401,298.7633 483.4421,296.2693 C481.3851,294.4363 475.2291,293.5923 475.7211,297.4873" id="Fill-89" fill="#150D53" mask="url(#mask-4)"></path>
                    <path d="M489.4779,311.2246 C489.4009,310.9806 489.4559,310.7156 489.6259,310.5256 C490.2169,309.8656 491.6969,308.5546 493.1049,310.0506 C494.6529,311.6926 493.2759,314.3806 491.7039,315.3286 C491.3079,315.5676 490.7919,315.3586 490.6529,314.9176 L489.4779,311.2246 Z" id="Fill-90" fill="#E8EEFB" mask="url(#mask-4)"></path>
                    <path d="M500.0853,399.8496 C501.7973,393.7666 504.0823,381.8146 503.6383,374.6816 C502.9493,363.6346 497.8403,354.2816 497.8403,354.2816 L508.7073,349.0216 C508.7073,349.0216 513.5393,362.0086 512.7623,375.0466 C512.2193,384.1666 505.8673,397.6496 504.7493,402.0396 C504.2083,404.1616 505.0733,412.9286 496.4963,416.2136 C495.9293,416.4306 494.0633,414.4936 493.2473,413.6936 C493.0263,413.4776 493.0363,413.1216 493.2663,412.9156 C493.2663,412.9156 499.9463,408.1236 498.1993,407.8186 C498.0403,407.7906 493.0883,411.0906 496.1913,406.9066 C499.3393,402.6626 500.0853,399.8496 500.0853,399.8496" id="Fill-91" fill="#E8EEFB" mask="url(#mask-4)"></path>
                    <path d="M509.9818,350.7949 C509.9818,350.7949 504.3888,331.3459 497.6298,334.2849 C490.8718,337.2259 497.2098,354.6949 497.2098,354.6949 C497.2098,354.6949 506.1058,353.6319 509.9818,350.7949" id="Fill-92" fill="#A2ACB8" mask="url(#mask-4)"></path>
                    <path d="M74.6332,314.7929 C74.6332,314.7929 76.8812,330.8149 81.5662,331.5789 C86.2502,332.3419 96.1042,324.8369 96.1042,324.8369 L87.0012,309.3609 L74.6332,314.7929 Z" id="Fill-93" fill="#C0C6CE" mask="url(#mask-4)"></path>
                    <path d="M93.9144,359.2187 C93.9144,359.2187 94.4634,372.7877 91.7284,375.2077 C88.9954,377.6287 65.1314,367.5407 65.1314,367.5407 L66.7944,363.2377 C66.7944,363.2377 85.9354,369.1437 86.7744,368.4917 C87.6124,367.8417 84.3434,355.4057 84.3434,355.4057 L93.9144,359.2187 Z" id="Fill-94" fill="#C0C6CE" mask="url(#mask-4)"></path>
                    <path d="M98.9125,326.6523 C98.9125,326.6523 104.4005,324.9853 106.6075,328.4143 C108.8145,331.8423 109.9975,338.7983 114.1035,340.1433 C118.2105,341.4883 120.6255,348.9633 118.6755,353.9063 C116.7245,358.8493 115.9965,360.8273 116.7335,363.5493 C117.4705,366.2733 108.8995,369.9563 104.2595,364.0763 C99.6195,358.1963 91.3485,339.5783 93.9525,332.9203 C96.5585,326.2623 98.9125,326.6523 98.9125,326.6523" id="Fill-95" fill="#000947" mask="url(#mask-4)"></path>
                    <path d="M94.9848,328.0517 C94.5948,327.3377 94.8588,326.4437 95.5738,326.0537 L97.4858,325.0117 C98.1998,324.6217 99.0938,324.8857 99.4838,325.6007 C99.8738,326.3147 99.6098,327.2087 98.8948,327.5987 L96.9828,328.6407 C96.2688,329.0307 95.3748,328.7667 94.9848,328.0517" id="Fill-96" fill="#A2ACB8" mask="url(#mask-4)"></path>
                    <path d="M93.6517,324.6367 C93.6517,324.6367 98.8617,334.4897 100.4677,335.3247 C100.6787,335.4347 99.2667,341.2307 94.2847,341.7107 C87.3477,342.3797 87.0287,337.9947 87.0287,337.9947 C87.0287,337.9947 88.6307,336.3237 88.7017,336.1637 C89.5917,334.1847 87.3807,327.8247 87.3807,327.8247 L93.6517,324.6367 Z" id="Fill-97" fill="#C0C6CE" mask="url(#mask-4)"></path>
                    <path d="M42.6361,456.0605 L42.8471,461.5535 C42.8731,462.2425 42.4341,462.8185 41.8651,462.8405 L23.5101,463.5445 L23.4841,462.8535 C23.4631,462.3035 23.8071,461.8075 24.3291,461.6385 C26.5211,460.9285 32.0821,459.0535 34.8441,456.3595 C39.3721,451.9425 42.6361,456.0605 42.6361,456.0605" id="Fill-98" fill="#000947" mask="url(#mask-4)"></path>
                    <path d="M109.8402,352.6631 C108.1912,338.7561 107.4792,336.4661 100.4682,335.3251 C100.4682,335.3251 95.4602,341.2071 91.2052,340.7491 C88.8652,340.4961 88.7012,336.1641 88.7012,336.1641 C88.7012,336.1641 87.6672,337.1541 84.8782,339.8731 C80.4182,344.2191 75.9172,350.5021 81.0522,354.8721 C82.6032,356.1921 78.5112,377.8371 78.5112,377.8371 L103.1532,380.4941 C103.1532,380.4941 110.8592,361.2461 109.8402,352.6631" id="Fill-99" fill="#19E69B" mask="url(#mask-4)"></path>
                    <path d="M78.5111,377.8369 C78.5111,377.8369 51.4511,386.1329 41.3701,390.8269 C39.3331,391.7759 37.7681,393.6259 37.4611,395.8529 C35.8551,407.4979 34.8441,456.3589 34.8441,456.3589 L42.6361,456.0609 L48.1281,410.4259 L97.4771,379.8819 L78.5111,377.8369 Z" id="Fill-100" fill="#242F4E" mask="url(#mask-4)"></path>
                    <path d="M109.5101,360.8027 C109.5101,360.8027 108.0001,374.4177 104.7291,376.0387 C101.4561,377.6607 80.7401,362.7357 80.7401,362.7357 L82.9071,358.9687 C82.9071,358.9687 100.2521,368.6057 101.2321,368.1967 C102.2101,367.7867 101.2691,354.6197 101.2691,354.6197 L109.5101,360.8027 Z" id="Fill-101" fill="#C0C6CE" mask="url(#mask-4)"></path>
                    <path d="M104.5961,337.872 C101.2681,339.331 100.5041,346.717 100.8411,359.12 C100.8481,359.359 101.0131,359.57 101.2451,359.628 L109.7391,361.059 C109.9461,361.11 110.1501,360.974 110.1741,360.763 C110.4611,358.292 111.5181,345.3 109.2091,341.322 C108.2111,339.601 106.4181,337.072 104.5961,337.872" id="Fill-102" fill="#33D894" mask="url(#mask-4)"></path>
                    <path d="M76.7182,305.707 C79.5442,306.393 79.7622,301.108 88.7402,302.076 C94.9752,302.748 96.9642,305.613 100.0502,313.087 C104.3132,323.41 96.8312,327.936 94.1792,327.024 C87.7072,324.8 88.1292,320.888 88.1292,320.888 C88.1292,320.888 86.1022,316.774 85.6852,316.885 C80.7532,318.191 75.1542,315.17 75.1542,315.17 C75.1542,315.17 74.9012,318.862 72.7672,318.487 C70.6332,318.112 70.8362,313.544 71.1482,311.549 C71.4592,309.554 73.8462,305.011 76.7182,305.707" id="Fill-103" fill="#000947" mask="url(#mask-4)"></path>
                    <path d="M61.1332,367.3789 L77.3952,369.1329 C77.6902,369.1639 77.8772,368.8239 77.6932,368.5919 L59.3782,346.4239 C59.3222,346.3549 59.2412,346.3099 59.1532,346.2999 L42.8912,344.5469 C42.5962,344.5149 42.4082,344.8549 42.5942,345.0869 L60.9072,367.2549 C60.9632,367.3249 61.0442,367.3689 61.1332,367.3789" id="Fill-104" fill="#000947" mask="url(#mask-4)"></path>
                    <path d="M56.7777,362.8232 C56.5047,362.1292 57.5057,360.6772 57.5057,360.6772 C57.5597,360.5562 57.7617,360.6032 57.9477,360.7822 C58.6367,361.4422 60.2757,362.9692 60.3087,363.3112 C60.4397,364.6462 60.0197,366.1752 59.7147,366.0602 C58.8627,365.7432 56.9957,363.3782 56.7777,362.8232" id="Fill-105" fill="#C0C6CE" mask="url(#mask-4)"></path>
                    <path d="M81.5766,363.5214 C84.1856,365.1874 86.1476,361.0834 83.3056,359.0374 C81.9306,358.0474 79.6906,353.5684 72.9786,355.8814 C72.5356,356.0354 72.3916,358.1094 72.3056,358.9884 C72.2826,359.2254 72.4656,359.4314 72.7036,359.4394 C72.7036,359.4394 79.0406,358.9604 78.1566,360.0084 C78.0766,360.1044 73.5046,360.6094 77.4206,361.5464 C81.3916,362.4974 80.6066,362.9024 81.5766,363.5214" id="Fill-106" fill="#C0C6CE" mask="url(#mask-4)"></path>
                    <path d="M76.3246,450.7636 L79.5686,455.3616 C79.9796,455.9146 79.9416,456.6386 79.4846,456.9776 L64.7346,467.9246 L64.3226,467.3686 C63.9956,466.9276 63.9986,466.3236 64.3346,465.8886 C65.7416,464.0656 69.2726,459.3766 70.0306,455.5936 C71.2736,449.3916 76.3246,450.7636 76.3246,450.7636" id="Fill-107" fill="#000947" mask="url(#mask-4)"></path>
                    <path d="M85.3588,317.8642 C85.2898,317.6512 85.3378,317.4192 85.4858,317.2522 C86.0008,316.6712 87.2918,315.5182 88.5318,316.8232 C89.8918,318.2572 88.6948,320.6162 87.3218,321.4522 C86.9758,321.6622 86.5238,321.4802 86.3998,321.0952 L85.3588,317.8642 Z" id="Fill-108" fill="#C0C6CE" mask="url(#mask-4)"></path>
                    <path d="M102.7426,380.4502 C102.9936,380.4762 103.2016,380.6562 103.2656,380.9002 C104.0156,383.7512 107.9196,400.6532 95.1446,401.5162 C79.6506,402.5632 64.7656,406.0222 61.5276,406.8082 C61.1786,406.8932 60.9826,407.2622 61.1026,407.6012 L76.1746,450.3372 C76.2636,450.5902 76.1766,450.8722 75.9596,451.0302 L70.5656,454.9692 C70.2686,455.1842 69.8496,455.0922 69.6746,454.7702 L45.3156,410.4842 C45.2996,410.4542 45.2876,410.4292 45.2756,410.3962 C45.0276,409.6972 42.1426,400.9772 50.6786,396.3362 C59.1756,391.7142 83.2716,379.7402 85.4196,378.6752 C85.5226,378.6232 85.6346,378.6052 85.7496,378.6172 L102.7426,380.4502 Z" id="Fill-109" fill="#363D5A" mask="url(#mask-4)"></path>
                    <path d="M323.8558,196.0947 C323.8558,197.1027 323.0388,197.9197 322.0308,197.9197 C321.0228,197.9197 320.2068,197.1027 320.2068,196.0947 C320.2068,195.0867 321.0228,194.2707 322.0308,194.2707 C323.0388,194.2707 323.8558,195.0867 323.8558,196.0947" id="Fill-110" fill="#19E69B" mask="url(#mask-4)"></path>
                    <path d="M328.4574,196.0947 C328.4574,197.1027 327.6414,197.9197 326.6334,197.9197 C325.6254,197.9197 324.8084,197.1027 324.8084,196.0947 C324.8084,195.0867 325.6254,194.2707 326.6334,194.2707 C327.6414,194.2707 328.4574,195.0867 328.4574,196.0947" id="Fill-111" fill="#19E69B" mask="url(#mask-4)"></path>
                    <path d="M333.059,196.0947 C333.059,197.1027 332.243,197.9197 331.235,197.9197 C330.227,197.9197 329.41,197.1027 329.41,196.0947 C329.41,195.0867 330.227,194.2707 331.235,194.2707 C332.243,194.2707 333.059,195.0867 333.059,196.0947" id="Fill-112" fill="#19E69B" mask="url(#mask-4)"></path>
                    <path d="M316.3549,44.9257 C317.4439,45.5297 318.0739,49.4427 318.0739,49.4427 C318.1559,49.7207 317.8889,49.9887 317.4879,50.0307 C316.0009,50.1837 312.5159,50.6127 312.0849,50.1437 C310.4039,48.3177 309.0779,45.2677 309.5309,44.9257 C310.7909,43.9757 315.4859,44.4457 316.3549,44.9257" id="Fill-113" fill="#C0C6CE" mask="url(#mask-4)"></path>
                    <path d="M358.0638,45.3379 C359.1538,45.9419 359.7828,49.8549 359.7828,49.8549 C359.8648,50.1329 359.5988,50.4009 359.1978,50.4429 C357.7108,50.5949 354.2258,51.0249 353.7938,50.5559 C352.1138,48.7299 350.7868,45.6799 351.2398,45.3379 C352.5008,44.3879 357.1948,44.8579 358.0638,45.3379" id="Fill-114" fill="#C0C6CE" mask="url(#mask-4)"></path>
                    <polygon id="Fill-115" fill="#19E69B" mask="url(#mask-4)" points="358.054 310.187 369.202 310.187 369.202 299.04 358.054 299.04"></polygon>
                    <polygon id="Fill-116" fill="#E8EEFB" mask="url(#mask-4)" points="360.3763 316.0918 363.1953 313.8668 362.9963 307.3648 358.3603 305.4828 355.7563 313.0118"></polygon>
                    <polygon id="Fill-117" fill="#19E69B" mask="url(#mask-4)" points="379.639 298.195 390.786 298.195 390.786 287.048 379.639 287.048"></polygon>
                    <polygon id="Fill-118" fill="#19E69B" mask="url(#mask-4)" points="363.741 279.462 374.889 279.462 374.889 268.315 363.741 268.315"></polygon>
                    <polygon id="Fill-119" fill="#19E69B" mask="url(#mask-4)" points="384.998 278.174 396.146 278.174 396.146 267.026 384.998 267.026"></polygon>
                    <path d="M298.2396,342.9697 C298.2396,342.9697 285.8256,363.2547 287.5846,366.6187 C289.3436,369.9827 322.9056,372.2257 322.9056,372.2257 L322.1926,366.6817 C322.1926,366.6817 297.9246,363.6677 297.3516,362.7257 C296.7786,361.7817 308.9476,342.8127 308.9476,342.8127 L298.2396,342.9697 Z" id="Fill-120" fill="#E8EEFB" mask="url(#mask-4)"></path>
                    <path d="M306.3187,332.2851 C302.7227,332.2851 297.9317,337.7671 298.9967,346.6871 C300.0617,355.6071 303.6567,375.9771 303.6567,375.9771 L328.5527,375.9771 C328.5527,375.9771 332.4137,340.4301 329.4847,337.6341 C326.5557,334.8381 322.9617,332.2851 322.9617,332.2851 L306.3187,332.2851" id="Fill-121" fill="#19E69B" mask="url(#mask-4)"></path>
                    <path d="M340.4574,343.5117 C340.4574,343.5117 355.7744,343.0607 357.3574,339.6117 C358.9414,336.1607 361.7564,310.6117 361.7564,310.6117 L355.9254,313.9417 C355.9254,313.9417 350.7934,333.5187 350.3984,334.5477 C350.0044,335.5777 333.7774,335.1417 333.7774,335.1417 L340.4574,343.5117 Z" id="Fill-122" fill="#E8EEFB" mask="url(#mask-4)"></path>
                    <path d="M322.0922,333.8476 C326.1832,332.9526 333.3982,333.1736 341.1032,334.3826 L341.8232,344.5136 L326.5502,344.4966 C323.2722,344.7216 320.3672,342.6106 319.5082,339.3756 L319.5082,339.3746 C319.0182,337.5296 320.2462,334.2506 322.0922,333.8476" id="Fill-123" fill="#33D894" mask="url(#mask-4)"></path>
                    <path d="M332.4135,306.8798 C332.4135,306.8798 335.1095,314.7508 330.5825,323.1278 C330.3075,323.6378 326.7985,323.0558 325.6145,324.3868 C324.4315,325.7188 322.6945,331.5098 322.6945,331.5098 L316.4375,318.0638 L325.6145,303.4178 L332.4135,306.8798 Z" id="Fill-124" fill="#E8EEFB" mask="url(#mask-4)"></path>
                    <path d="M322.9613,297.2939 C327.4873,297.2939 335.3053,299.5579 334.7913,304.7489 C334.2773,309.9409 329.2193,308.6099 327.6213,312.3379 C326.0243,316.0659 322.2953,320.3819 322.9613,325.1189 C323.6263,329.8569 325.3573,337.8999 323.4933,341.2289 C321.6303,344.5579 314.7063,346.8199 314.0413,348.5509 C313.3753,350.2819 306.8523,359.3349 299.5293,353.4779 C292.2063,347.6189 287.6953,341.6129 295.0023,334.3059 C304.0563,325.2529 297.7983,317.5299 301.5263,312.4719 C305.2543,307.4119 311.5113,297.2939 322.9613,297.2939" id="Fill-125" fill="#000947" mask="url(#mask-4)"></path>
                    <path d="M327.4418,314.8476 C327.4738,314.6176 327.3838,314.3886 327.2018,314.2436 C326.5688,313.7436 325.0398,312.7956 324.0068,314.3556 C322.8728,316.0686 324.5248,318.2666 326.0818,318.8746 C326.4728,319.0276 326.9028,318.7596 326.9608,318.3436 L327.4418,314.8476 Z" id="Fill-126" fill="#E8EEFB" mask="url(#mask-4)"></path>
                    <path d="M299.142,505.2422 L299.142,510.9562 C299.142,511.6732 299.621,512.2542 300.212,512.2542 L319.304,512.2542 L319.304,511.5342 C319.304,510.9632 318.927,510.4612 318.377,510.3052 C316.074,509.6562 310.061,507.7742 307.084,505.0872 C302.205,500.6802 299.142,505.2422 299.142,505.2422" id="Fill-127" fill="#000947" mask="url(#mask-4)"></path>
                    <path d="M328.5394,505.1191 L328.5394,510.8331 C328.5394,511.5501 329.0184,512.1301 329.6094,512.1301 L348.7014,512.1301 L348.7014,511.4111 C348.7014,510.8401 348.3244,510.3381 347.7744,510.1821 C345.4714,509.5331 339.6204,507.8071 336.6434,505.1191 C331.7654,500.7121 328.5394,505.1191 328.5394,505.1191" id="Fill-128" fill="#000947" mask="url(#mask-4)"></path>
                    <path d="M316.0385,375.9775 L303.6565,375.9775 C303.6565,375.9775 294.9205,382.6445 296.0675,395.4815 C296.9675,405.5425 299.1425,505.2425 299.1425,505.2425 L307.0845,505.0865 L316.0385,426.2365 L316.0385,375.9775" id="Fill-129" fill="#242F4E" mask="url(#mask-4)"></path>
                    <path d="M328.5531,375.9775 L336.6441,505.1195 L328.5391,505.1195 C328.5391,505.1195 309.1181,410.4585 305.8141,397.6785 C302.7921,385.9935 310.4251,375.9775 310.4251,375.9775" id="Fill-130" fill="#363D5A" mask="url(#mask-4)"></path>
                    <path d="M355.6527,306.8828 C355.6527,306.8828 354.5087,312.7688 355.2077,313.8668 C356.7437,316.2808 360.5007,315.6648 360.5007,315.6648 C360.5007,315.6648 362.8967,315.1648 363.1957,313.8668 C363.4957,312.5698 363.4157,306.9978 362.2667,306.9978 C361.7577,306.9978 361.1777,306.7388 360.7297,306.9208 C359.9187,307.2488 360.0257,308.2468 358.9407,308.6248 C357.1127,309.2608 357.7137,307.8288 356.9557,307.1768 C356.5547,306.8328 356.4507,306.7328 355.6527,306.8828" id="Fill-131" fill="#E8EEFB" mask="url(#mask-4)"></path>
                    <path d="M302.9496,226.9941 L311.2406,210.8711" id="Stroke-132" stroke="#50E29D" stroke-width="0.891" stroke-linecap="round" stroke-linejoin="round" mask="url(#mask-4)"></path>
                    <polyline id="Stroke-133" stroke="#50E29D" stroke-width="0.891" stroke-linecap="round" stroke-linejoin="round" mask="url(#mask-4)" points="296.5004 210.8711 288.3624 219.0101 296.3474 226.8401"></polyline>
                    <polyline id="Stroke-134" stroke="#50E29D" stroke-width="0.891" stroke-linecap="round" stroke-linejoin="round" mask="url(#mask-4)" points="318.2269 226.8398 326.3649 218.7018 318.3799 210.8708"></polyline>
                </g>
            </g>
        </g>
    </g>
</svg>