<?xml version="1.0" encoding="UTF-8"?>
<svg width="110px" height="110px" viewBox="0 0 110 110" version="1.1" xmlns="http://www.w3.org/2000/svg" xmlns:xlink="http://www.w3.org/1999/xlink">
    <!-- Generator: Sketch 51.3 (57544) - http://www.bohemiancoding.com/sketch -->
    <title>Group 53</title>
    <desc>Created with Sketch.</desc>
    <defs></defs>
    <g id="Page-1" stroke="none" stroke-width="1" fill="none" fill-rule="evenodd">
        <g id="Development-Development" transform="translate(-1118.000000, -2612.000000)">
            <g id="Group-53" transform="translate(1119.000000, 2613.000000)">
                <path d="M72.6293,53.5196 C72.6293,63.8746 64.2343,72.2686 53.8803,72.2686 C43.5253,72.2686 35.1323,63.8746 35.1323,53.5196 C35.1323,43.1656 43.5253,34.7706 53.8803,34.7706 C64.2343,34.7706 72.6293,43.1656 72.6293,53.5196" id="Fill-1" fill="#50E29D"></path>
                <path d="M77.686,53.5196 C77.686,66.6666 67.028,77.3246 53.88,77.3246 C40.734,77.3246 30.076,66.6666 30.076,53.5196 C30.076,40.3726 40.734,29.7146 53.88,29.7146 C67.028,29.7146 77.686,40.3726 77.686,53.5196 Z" id="Stroke-3" stroke="#11193A" stroke-width="2" stroke-linecap="round" stroke-linejoin="round"></path>
                <path d="M54.2563,6.7809 L54.2563,29.3059" id="Stroke-5" stroke="#11193A" stroke-width="2" stroke-linecap="round" stroke-linejoin="round"></path>
                <path d="M66.0815,16.0724 L66.0815,32.4964" id="Stroke-7" stroke="#11193A" stroke-width="2" stroke-linecap="round" stroke-linejoin="round"></path>
                <path d="M31.5668,12.5528 L39.8028,20.6708 C39.8028,20.6708 42.4778,22.7598 42.4068,25.7398 L42.4068,32.4968" id="Stroke-9" stroke="#11193A" stroke-width="2" stroke-linecap="round" stroke-linejoin="round"></path>
                <path d="M32.1303,9.8077 C32.1303,11.5957 30.6803,13.0457 28.8923,13.0457 C27.1043,13.0457 25.6543,11.5957 25.6543,9.8077 C25.6543,8.0197 27.1043,6.5697 28.8923,6.5697 C30.6803,6.5697 32.1303,8.0197 32.1303,9.8077 Z" id="Stroke-11" stroke="#11193A" stroke-width="2" stroke-linecap="round" stroke-linejoin="round"></path>
                <path d="M57.2827,3.2379 C57.2827,5.0269 55.8337,6.4759 54.0457,6.4759 C52.2567,6.4759 50.8067,5.0269 50.8067,3.2379 C50.8067,1.4499 52.2567,-0.0001 54.0457,-0.0001 C55.8337,-0.0001 57.2827,1.4499 57.2827,3.2379 Z" id="Stroke-13" stroke="#11193A" stroke-width="2" stroke-linecap="round" stroke-linejoin="round"></path>
                <path d="M107.8354,53.1446 C107.8354,54.9326 106.3854,56.3826 104.5974,56.3826 C102.8094,56.3826 101.3584,54.9326 101.3584,53.1446 C101.3584,51.3556 102.8094,49.9066 104.5974,49.9066 C106.3854,49.9066 107.8354,51.3556 107.8354,53.1446 Z" id="Stroke-15" stroke="#11193A" stroke-width="2" stroke-linecap="round" stroke-linejoin="round"></path>
                <path d="M57.7172,104.2623 C57.7172,106.0503 56.2682,107.5003 54.4802,107.5003 C52.6912,107.5003 51.2412,106.0503 51.2412,104.2623 C51.2412,102.4733 52.6912,101.0243 54.4802,101.0243 C56.2682,101.0243 57.7172,102.4733 57.7172,104.2623 Z" id="Stroke-17" stroke="#11193A" stroke-width="2" stroke-linecap="round" stroke-linejoin="round"></path>
                <path d="M69.0844,12.8346 C69.0844,14.6226 67.6354,16.0726 65.8474,16.0726 C64.0594,16.0726 62.6084,14.6226 62.6084,12.8346 C62.6084,11.0456 64.0594,9.5966 65.8474,9.5966 C67.6354,9.5966 69.0844,11.0456 69.0844,12.8346 Z" id="Stroke-19" stroke="#11193A" stroke-width="2" stroke-linecap="round" stroke-linejoin="round"></path>
                <path d="M101.1713,53.3233 L78.6473,53.3233" id="Stroke-21" stroke="#11193A" stroke-width="2" stroke-linecap="round" stroke-linejoin="round"></path>
                <path d="M91.8803,65.1485 L75.4553,65.1485" id="Stroke-23" stroke="#11193A" stroke-width="2" stroke-linecap="round" stroke-linejoin="round"></path>
                <path d="M95.3999,30.6344 L87.2809,38.8694 C87.2809,38.8694 85.1929,41.5444 82.2129,41.4744 L75.4559,41.4744" id="Stroke-25" stroke="#11193A" stroke-width="2" stroke-linecap="round" stroke-linejoin="round"></path>
                <path d="M98.145,31.1974 C96.357,31.1974 94.907,29.7474 94.907,27.9594 C94.907,26.1714 96.357,24.7214 98.145,24.7214 C99.933,24.7214 101.382,26.1714 101.382,27.9594 C101.382,29.7474 99.933,31.1974 98.145,31.1974 Z" id="Stroke-27" stroke="#11193A" stroke-width="2" stroke-linecap="round" stroke-linejoin="round"></path>
                <path d="M95.1176,68.1519 C93.3296,68.1519 91.8806,66.7019 91.8806,64.9139 C91.8806,63.1259 93.3296,61.6759 95.1176,61.6759 C96.9056,61.6759 98.3556,63.1259 98.3556,64.9139 C98.3556,66.7019 96.9056,68.1519 95.1176,68.1519 Z" id="Stroke-29" stroke="#11193A" stroke-width="2" stroke-linecap="round" stroke-linejoin="round"></path>
                <path d="M54.4204,100.3849 L54.4204,77.8609" id="Stroke-31" stroke="#11193A" stroke-width="2" stroke-linecap="round" stroke-linejoin="round"></path>
                <path d="M42.5952,91.0934 L42.5952,74.6694" id="Stroke-33" stroke="#11193A" stroke-width="2" stroke-linecap="round" stroke-linejoin="round"></path>
                <path d="M77.1098,94.6129 L68.8738,86.4949 C68.8738,86.4949 66.1988,84.4059 66.2688,81.4269 L66.2688,74.6689" id="Stroke-35" stroke="#11193A" stroke-width="2" stroke-linecap="round" stroke-linejoin="round"></path>
                <path d="M76.5463,97.358 C76.5463,95.57 77.9953,94.12 79.7843,94.12 C81.5723,94.12 83.0223,95.57 83.0223,97.358 C83.0223,99.147 81.5723,100.596 79.7843,100.596 C77.9953,100.596 76.5463,99.147 76.5463,97.358 Z" id="Stroke-37" stroke="#11193A" stroke-width="2" stroke-linecap="round" stroke-linejoin="round"></path>
                <path d="M39.5913,94.3316 C39.5913,92.5426 41.0413,91.0936 42.8293,91.0936 C44.6173,91.0936 46.0683,92.5426 46.0683,94.3316 C46.0683,96.1196 44.6173,97.5696 42.8293,97.5696 C41.0413,97.5696 39.5913,96.1196 39.5913,94.3316 Z" id="Stroke-39" stroke="#11193A" stroke-width="2" stroke-linecap="round" stroke-linejoin="round"></path>
                <path d="M7.1333,52.5904 L29.6573,52.5904" id="Stroke-41" stroke="#11193A" stroke-width="2" stroke-linecap="round" stroke-linejoin="round"></path>
                <path d="M16.4243,40.7647 L32.8493,40.7647" id="Stroke-43" stroke="#11193A" stroke-width="2" stroke-linecap="round" stroke-linejoin="round"></path>
                <path d="M12.9047,75.2794 L21.0227,67.0434 C21.0227,67.0434 23.1117,64.3684 26.0917,64.4394 L32.8487,64.4394" id="Stroke-45" stroke="#11193A" stroke-width="2" stroke-linecap="round" stroke-linejoin="round"></path>
                <path d="M10.1596,74.7159 C11.9476,74.7159 13.3976,76.1659 13.3976,77.9539 C13.3976,79.7419 11.9476,81.1919 10.1596,81.1919 C8.3716,81.1919 6.9216,79.7419 6.9216,77.9539 C6.9216,76.1659 8.3716,74.7159 10.1596,74.7159 Z" id="Stroke-47" stroke="#11193A" stroke-width="2" stroke-linecap="round" stroke-linejoin="round"></path>
                <path d="M13.186,37.7613 C14.975,37.7613 16.424,39.2113 16.424,40.9993 C16.424,42.7873 14.975,44.2373 13.186,44.2373 C11.398,44.2373 9.949,42.7873 9.949,40.9993 C9.949,39.2113 11.398,37.7613 13.186,37.7613 Z" id="Stroke-49" stroke="#11193A" stroke-width="2" stroke-linecap="round" stroke-linejoin="round"></path>
                <path d="M3.2377,49.587 C5.0257,49.587 6.4757,51.037 6.4757,52.825 C6.4757,54.613 5.0257,56.063 3.2377,56.063 C1.4497,56.063 0.0007,54.613 0.0007,52.825 C0.0007,51.037 1.4497,49.587 3.2377,49.587 Z" id="Stroke-51" stroke="#11193A" stroke-width="2" stroke-linecap="round" stroke-linejoin="round"></path>
            </g>
        </g>
    </g>
</svg>