<?xml version="1.0" encoding="UTF-8"?>
<svg width="80px" height="80px" viewBox="0 0 80 80" version="1.1" xmlns="http://www.w3.org/2000/svg" xmlns:xlink="http://www.w3.org/1999/xlink">
    <!-- Generator: Sketch 51.3 (57544) - http://www.bohemiancoding.com/sketch -->
    <title>Group 56</title>
    <desc>Created with Sketch.</desc>
    <defs>
        <polygon id="path-1" points="0.8994 0.682 6.8484 0.682 6.8484 6.6292 0.8994 6.6292"></polygon>
        <polygon id="path-3" points="0.6133 0.9268 6.562 0.9268 6.562 6.8748 0.6133 6.8748"></polygon>
        <polygon id="path-5" points="0.2148 0.0524 6.1628 0.0524 6.1628 6 0.2148 6"></polygon>
    </defs>
    <g id="Page-1" stroke="none" stroke-width="1" fill="none" fill-rule="evenodd">
        <g id="Group-56" transform="translate(0.000000, -1.000000)">
            <path d="M53.3705,40.4921 C53.3705,48.0121 47.2745,54.1081 39.7545,54.1081 C32.2335,54.1081 26.1385,48.0121 26.1385,40.4921 C26.1385,32.9711 32.2335,26.8751 39.7545,26.8751 C47.2745,26.8751 53.3705,32.9711 53.3705,40.4921" id="Fill-1" fill="#50E29D"></path>
            <path d="M39.7543,23.8256 C30.5653,23.8256 23.0873,31.3026 23.0873,40.4926 C23.0873,49.6816 30.5653,57.1586 39.7543,57.1586 C48.9433,57.1586 56.4213,49.6816 56.4213,40.4926 C56.4213,31.3026 48.9433,23.8256 39.7543,23.8256 M39.7543,58.4036 C29.8783,58.4036 21.8433,50.3676 21.8433,40.4926 C21.8433,30.6156 29.8783,22.5806 39.7543,22.5806 C49.6303,22.5806 57.6653,30.6156 57.6653,40.4926 C57.6653,50.3676 49.6303,58.4036 39.7543,58.4036" id="Fill-3" fill="#11193A"></path>
            <path d="M40.0277,23.5282 C39.6837,23.5282 39.4047,23.2492 39.4047,22.9052 L39.4047,6.5472 C39.4047,6.2032 39.6837,5.9242 40.0277,5.9242 C40.3707,5.9242 40.6497,6.2032 40.6497,6.5472 L40.6497,22.9052 C40.6497,23.2492 40.3707,23.5282 40.0277,23.5282" id="Fill-5" fill="#11193A"></path>
            <path d="M48.6156,25.8456 C48.2716,25.8456 47.9926,25.5666 47.9926,25.2236 L47.9926,13.2956 C47.9926,12.9516 48.2716,12.6726 48.6156,12.6726 C48.9586,12.6726 49.2376,12.9516 49.2376,13.2956 L49.2376,25.2236 C49.2376,25.5666 48.9586,25.8456 48.6156,25.8456" id="Fill-7" fill="#11193A"></path>
            <path d="M31.4213,25.8456 C31.0783,25.8456 30.7993,25.5666 30.7993,25.2236 L30.7993,20.3156 C30.8423,18.4706 29.1633,17.1386 29.1473,17.1256 L23.1113,11.1816 C22.8673,10.9406 22.8633,10.5476 23.1053,10.3026 C23.3473,10.0576 23.7423,10.0546 23.9843,10.2956 L29.9663,16.1916 C30.0023,16.2146 32.1013,17.8816 32.0443,20.3306 L32.0443,25.2236 C32.0443,25.5666 31.7653,25.8456 31.4213,25.8456" id="Fill-9" fill="#11193A"></path>
            <path d="M21.6068,7.016 C20.6528,7.016 19.8768,7.792 19.8768,8.745 C19.8768,9.699 20.6528,10.474 21.6068,10.474 C22.5598,10.474 23.3358,9.699 23.3358,8.745 C23.3358,7.792 22.5598,7.016 21.6068,7.016 M21.6068,11.719 C19.9658,11.719 18.6318,10.385 18.6318,8.745 C18.6318,7.105 19.9658,5.771 21.6068,5.771 C23.2468,5.771 24.5798,7.105 24.5798,8.745 C24.5798,10.385 23.2468,11.719 21.6068,11.719" id="Fill-11" fill="#11193A"></path>
            <g id="Group-15" transform="translate(36.000000, 0.318300)">
                <mask id="mask-2" fill="white">
                    <use xlink:href="#path-1"></use>
                </mask>
                <g id="Clip-14"></g>
                <path d="M3.8734,1.9262 C2.9204,1.9262 2.1444,2.7022 2.1444,3.6552 C2.1444,4.6092 2.9204,5.3842 3.8734,5.3842 C4.8264,5.3842 5.6024,4.6092 5.6024,3.6552 C5.6024,2.7022 4.8264,1.9262 3.8734,1.9262 M3.8734,6.6292 C2.2334,6.6292 0.8994,5.2952 0.8994,3.6552 C0.8994,2.0152 2.2334,0.6812 3.8734,0.6812 C5.5134,0.6812 6.8484,2.0152 6.8484,3.6552 C6.8484,5.2952 5.5134,6.6292 3.8734,6.6292" id="Fill-13" fill="#11193A" mask="url(#mask-2)"></path>
            </g>
            <g id="Group-18" transform="translate(73.000000, 36.318300)">
                <mask id="mask-4" fill="white">
                    <use xlink:href="#path-3"></use>
                </mask>
                <g id="Clip-17"></g>
                <path d="M3.5883,2.1718 C2.6343,2.1718 1.8583,2.9468 1.8583,3.9008 C1.8583,4.8548 2.6343,5.6298 3.5883,5.6298 C4.5413,5.6298 5.3173,4.8548 5.3173,3.9008 C5.3173,2.9468 4.5413,2.1718 3.5883,2.1718 M3.5883,6.8748 C1.9483,6.8748 0.6133,5.5408 0.6133,3.9008 C0.6133,2.2608 1.9483,0.9268 3.5883,0.9268 C5.2283,0.9268 6.5623,2.2608 6.5623,3.9008 C6.5623,5.5408 5.2283,6.8748 3.5883,6.8748" id="Fill-16" fill="#11193A" mask="url(#mask-4)"></path>
            </g>
            <g id="Group-21" transform="translate(37.000000, 74.318300)">
                <mask id="mask-6" fill="white">
                    <use xlink:href="#path-5"></use>
                </mask>
                <g id="Clip-20"></g>
                <path d="M3.1898,1.2964 C2.2358,1.2964 1.4598,2.0724 1.4598,3.0264 C1.4598,3.9804 2.2358,4.7554 3.1898,4.7554 C4.1428,4.7554 4.9188,3.9804 4.9188,3.0264 C4.9188,2.0724 4.1428,1.2964 3.1898,1.2964 M3.1898,6.0004 C1.5488,6.0004 0.2148,4.6664 0.2148,3.0264 C0.2148,1.3864 1.5488,0.0524 3.1898,0.0524 C4.8298,0.0524 6.1628,1.3864 6.1628,3.0264 C6.1628,4.6664 4.8298,6.0004 3.1898,6.0004" id="Fill-19" fill="#11193A" mask="url(#mask-6)"></path>
            </g>
            <path d="M48.4447,9.2138 C47.4917,9.2138 46.7157,9.9898 46.7157,10.9438 C46.7157,11.8978 47.4917,12.6728 48.4447,12.6728 C49.3987,12.6728 50.1747,11.8978 50.1747,10.9438 C50.1747,9.9898 49.3987,9.2138 48.4447,9.2138 M48.4447,13.9178 C46.8047,13.9178 45.4707,12.5838 45.4707,10.9438 C45.4707,9.3038 46.8047,7.9698 48.4447,7.9698 C50.0847,7.9698 51.4197,9.3038 51.4197,10.9438 C51.4197,12.5838 50.0847,13.9178 48.4447,13.9178" id="Fill-22" fill="#11193A"></path>
            <path d="M74.1,40.9716 L57.741,40.9716 C57.398,40.9716 57.119,40.6926 57.119,40.3486 C57.119,40.0056 57.398,39.7266 57.741,39.7266 L74.1,39.7266 C74.444,39.7266 74.722,40.0056 74.722,40.3486 C74.722,40.6926 74.444,40.9716 74.1,40.9716" id="Fill-24" fill="#11193A"></path>
            <path d="M67.352,49.5595 L55.424,49.5595 C55.081,49.5595 54.802,49.2815 54.802,48.9375 C54.802,48.5945 55.081,48.3155 55.424,48.3155 L67.352,48.3155 C67.696,48.3155 67.974,48.5945 67.974,48.9375 C67.974,49.2815 67.696,49.5595 67.352,49.5595" id="Fill-26" fill="#11193A"></path>
            <path d="M60.4154,32.3666 C60.3834,32.3666 60.3504,32.3666 60.3164,32.3656 L55.4244,32.3656 C55.0804,32.3656 54.8024,32.0876 54.8024,31.7436 C54.8024,31.4006 55.0804,31.1216 55.4244,31.1216 L60.3314,31.1216 C60.3544,31.1216 60.3774,31.1216 60.3994,31.1216 C62.1954,31.1216 63.5094,29.4846 63.5214,29.4676 L69.4654,23.4336 C69.7064,23.1886 70.1024,23.1866 70.3454,23.4276 C70.5894,23.6686 70.5934,24.0626 70.3514,24.3076 L64.4544,30.2886 C64.4334,30.3246 62.8094,32.3666 60.4154,32.3666" id="Fill-28" fill="#11193A"></path>
            <path d="M71.9018,20.1986 C70.9488,20.1986 70.1728,20.9746 70.1728,21.9286 C70.1728,22.8816 70.9488,23.6576 71.9018,23.6576 C72.8558,23.6576 73.6308,22.8816 73.6308,21.9286 C73.6308,20.9746 72.8558,20.1986 71.9018,20.1986 M71.9018,24.9026 C70.2618,24.9026 68.9278,23.5686 68.9278,21.9286 C68.9278,20.2886 70.2618,18.9536 71.9018,18.9536 C73.5418,18.9536 74.8768,20.2886 74.8768,21.9286 C74.8768,23.5686 73.5418,24.9026 71.9018,24.9026" id="Fill-30" fill="#11193A"></path>
            <path d="M69.7035,47.0375 C68.7505,47.0375 67.9745,47.8135 67.9745,48.7675 C67.9745,49.7215 68.7505,50.4965 69.7035,50.4965 C70.6575,50.4965 71.4325,49.7215 71.4325,48.7675 C71.4325,47.8135 70.6575,47.0375 69.7035,47.0375 M69.7035,51.7415 C68.0635,51.7415 66.7295,50.4075 66.7295,48.7675 C66.7295,47.1275 68.0635,45.7935 69.7035,45.7935 C71.3445,45.7935 72.6775,47.1275 72.6775,48.7675 C72.6775,50.4075 71.3445,51.7415 69.7035,51.7415" id="Fill-32" fill="#11193A"></path>
            <path d="M40.1469,75.1508 C39.8029,75.1508 39.5239,74.8718 39.5239,74.5278 L39.5239,58.1698 C39.5239,57.8258 39.8029,57.5468 40.1469,57.5468 C40.4899,57.5468 40.7689,57.8258 40.7689,58.1698 L40.7689,74.5278 C40.7689,74.8718 40.4899,75.1508 40.1469,75.1508" id="Fill-34" fill="#11193A"></path>
            <path d="M31.558,68.4027 C31.214,68.4027 30.936,68.1237 30.936,67.7807 L30.936,55.8517 C30.936,55.5077 31.214,55.2297 31.558,55.2297 C31.902,55.2297 32.18,55.5077 32.18,55.8517 L32.18,67.7807 C32.18,68.1237 31.902,68.4027 31.558,68.4027" id="Fill-36" fill="#11193A"></path>
            <path d="M56.6244,70.9589 C56.4664,70.9589 56.3094,70.8989 56.1874,70.7799 L50.2064,64.8839 C50.1704,64.8609 48.0724,63.1939 48.1304,60.7459 L48.1304,55.8519 C48.1304,55.5079 48.4084,55.2299 48.7524,55.2299 C49.0964,55.2299 49.3744,55.5079 49.3744,55.8519 L49.3744,60.7599 C49.3314,62.5899 51.0104,63.9379 51.0264,63.9509 L57.0614,69.8939 C57.3064,70.1349 57.3094,70.5289 57.0674,70.7729 C56.9464,70.8969 56.7844,70.9589 56.6244,70.9589" id="Fill-38" fill="#11193A"></path>
            <path d="M58.5678,70.601 C57.6138,70.601 56.8378,71.377 56.8378,72.33 C56.8378,73.284 57.6138,74.059 58.5678,74.059 C59.5208,74.059 60.2968,73.284 60.2968,72.33 C60.2968,71.377 59.5208,70.601 58.5678,70.601 M58.5678,75.304 C56.9268,75.304 55.5928,73.97 55.5928,72.33 C55.5928,70.691 56.9268,69.357 58.5678,69.357 C60.2078,69.357 61.5408,70.691 61.5408,72.33 C61.5408,73.97 60.2078,75.304 58.5678,75.304" id="Fill-40" fill="#11193A"></path>
            <path d="M31.7279,68.4027 C30.7749,68.4027 29.9989,69.1787 29.9989,70.1317 C29.9989,71.0857 30.7749,71.8607 31.7279,71.8607 C32.6809,71.8607 33.4569,71.0857 33.4569,70.1317 C33.4569,69.1787 32.6809,68.4027 31.7279,68.4027 M31.7279,73.1057 C30.0879,73.1057 28.7539,71.7717 28.7539,70.1317 C28.7539,68.4917 30.0879,67.1577 31.7279,67.1577 C33.3679,67.1577 34.7029,68.4917 34.7029,70.1317 C34.7029,71.7717 33.3679,73.1057 31.7279,73.1057" id="Fill-42" fill="#11193A"></path>
            <path d="M22.1625,40.4394 L5.8035,40.4394 C5.4595,40.4394 5.1815,40.1604 5.1815,39.8164 C5.1815,39.4734 5.4595,39.1944 5.8035,39.1944 L22.1625,39.1944 C22.5065,39.1944 22.7845,39.4734 22.7845,39.8164 C22.7845,40.1604 22.5065,40.4394 22.1625,40.4394" id="Fill-44" fill="#11193A"></path>
            <path d="M24.4789,31.8505 L12.5509,31.8505 C12.2079,31.8505 11.9289,31.5715 11.9289,31.2285 C11.9289,30.8845 12.2079,30.6065 12.5509,30.6065 L24.4789,30.6065 C24.8229,30.6065 25.1019,30.8845 25.1019,31.2285 C25.1019,31.5715 24.8229,31.8505 24.4789,31.8505" id="Fill-46" fill="#11193A"></path>
            <path d="M9.9955,56.9174 C9.8375,56.9174 9.6795,56.8574 9.5585,56.7384 C9.3135,56.4974 9.3105,56.1034 9.5525,55.8584 L15.4475,49.8774 C15.4695,49.8424 17.0935,47.7994 19.4875,47.7994 C19.5195,47.7994 19.5535,47.7994 19.5865,47.8004 L24.4785,47.8004 C24.8225,47.8004 25.1015,48.0784 25.1015,48.4224 C25.1015,48.7654 24.8225,49.0444 24.4785,49.0444 L19.5715,49.0444 C19.5485,49.0434 19.5255,49.0434 19.5035,49.0434 C17.7075,49.0434 16.3925,50.6814 16.3805,50.6984 L10.4375,56.7314 C10.3165,56.8554 10.1555,56.9174 9.9955,56.9174" id="Fill-48" fill="#11193A"></path>
            <path d="M8.0014,56.5082 C7.0474,56.5082 6.2724,57.2842 6.2724,58.2372 C6.2724,59.1912 7.0474,59.9672 8.0014,59.9672 C8.9544,59.9672 9.7304,59.1912 9.7304,58.2372 C9.7304,57.2842 8.9544,56.5082 8.0014,56.5082 M8.0014,61.2122 C6.3614,61.2122 5.0264,59.8782 5.0264,58.2372 C5.0264,56.5982 6.3614,55.2632 8.0014,55.2632 C9.6414,55.2632 10.9754,56.5982 10.9754,58.2372 C10.9754,59.8782 9.6414,61.2122 8.0014,61.2122" id="Fill-50" fill="#11193A"></path>
            <path d="M10.1996,29.6693 C9.2456,29.6693 8.4706,30.4453 8.4706,31.3983 C8.4706,32.3523 9.2456,33.1283 10.1996,33.1283 C11.1526,33.1283 11.9286,32.3523 11.9286,31.3983 C11.9286,30.4453 11.1526,29.6693 10.1996,29.6693 M10.1996,34.3723 C8.5596,34.3723 7.2256,33.0383 7.2256,31.3983 C7.2256,29.7593 8.5596,28.4243 10.1996,28.4243 C11.8396,28.4243 13.1736,29.7593 13.1736,31.3983 C13.1736,33.0383 11.8396,34.3723 10.1996,34.3723" id="Fill-52" fill="#11193A"></path>
            <path d="M2.974,38.2577 C2.021,38.2577 1.245,39.0337 1.245,39.9867 C1.245,40.9407 2.021,41.7157 2.974,41.7157 C3.928,41.7157 4.703,40.9407 4.703,39.9867 C4.703,39.0337 3.928,38.2577 2.974,38.2577 M2.974,42.9607 C1.334,42.9607 0,41.6267 0,39.9867 C0,38.3477 1.334,37.0137 2.974,37.0137 C4.614,37.0137 5.949,38.3477 5.949,39.9867 C5.949,41.6267 4.614,42.9607 2.974,42.9607" id="Fill-54" fill="#11193A"></path>
        </g>
    </g>
</svg>