<?xml version="1.0" encoding="UTF-8"?>
<svg width="106px" height="110px" viewBox="0 0 106 110" version="1.1" xmlns="http://www.w3.org/2000/svg" xmlns:xlink="http://www.w3.org/1999/xlink">
    <!-- Generator: Sketch 51.3 (57544) - http://www.bohemiancoding.com/sketch -->
    <title>Group 15</title>
    <desc>Created with Sketch.</desc>
    <defs></defs>
    <g id="Page-1" stroke="none" stroke-width="1" fill="none" fill-rule="evenodd">
        <g id="Development-Development" transform="translate(-226.000000, -2596.000000)">
            <g id="Group-15" transform="translate(226.000000, 2596.000000)">
                <path d="M88.0101,53.6626 C88.0101,64.0166 79.6151,72.4116 69.2611,72.4116 C58.9061,72.4116 50.5121,64.0166 50.5121,53.6626 C50.5121,43.3076 58.9061,34.9136 69.2611,34.9136 C79.6151,34.9136 88.0101,43.3076 88.0101,53.6626" id="Fill-1" fill="#50E29D"></path>
                <path d="M88.2445,81.9756 L89.3105,81.9756 C89.3105,71.3056 81.5215,67.0376 73.3065,67.0376 L65.3045,67.0376 C57.0885,67.0376 49.2995,71.3056 49.2995,81.9756 L50.3665,81.9756 L88.2445,81.9756 Z" id="Stroke-3" stroke="#242F4E" stroke-width="2" stroke-linecap="round" stroke-linejoin="round"></path>
                <path d="M79.308,54.2744 C79.308,59.7984 74.829,64.2774 69.305,64.2774 C63.781,64.2774 59.302,59.7984 59.302,54.2744 C59.302,48.7504 63.781,44.2714 69.305,44.2714 C74.829,44.2714 79.308,48.7504 79.308,54.2744 Z" id="Stroke-5" stroke="#242F4E" stroke-width="2" stroke-linecap="round" stroke-linejoin="round"></path>
                <path d="M25.6165,47.8364 L25.7445,46.9424 L31.2575,46.9424 L31.2575,76.5884 L24.7295,76.5884 C22.8175,76.5884 20.9655,76.0274 19.3745,74.9664 L11.4725,69.6984 L1.6115,69.6984 L1.6115,43.4974 L9.7245,43.4974 L19.5565,37.8794 C21.0125,37.0464 22.6705,36.6064 24.3475,36.6064 L43.9955,36.6064 C46.4705,36.6064 48.4825,38.6194 48.4825,41.0944 C48.4825,43.5684 46.4705,45.5824 43.9955,45.5824 L24.3665,45.5824 L24.3665,46.2624 C24.3665,51.2334 20.5895,55.3394 15.7535,55.8614 L15.7535,57.2284 C20.7425,56.7494 24.8915,52.8724 25.6165,47.8364 M100.8415,7.6844 L89.1015,7.6844 C89.0615,8.1554 89.0335,8.6064 89.1015,9.0454 L100.8415,9.0454 C102.3655,9.0454 103.6055,10.2854 103.6055,11.8104 L103.6055,104.8304 C103.6055,106.3544 102.3655,107.5954 100.8415,107.5954 L35.3825,107.5954 C33.8575,107.5954 32.6175,106.3544 32.6175,104.8304 L32.6175,46.9424 L43.9955,46.9424 C47.2205,46.9424 49.8445,44.3184 49.8445,41.0944 C49.8445,37.8694 47.2205,35.2464 43.9955,35.2464 L32.6175,35.2464 L32.6175,11.8104 C32.6175,10.2854 33.8575,9.0454 35.3825,9.0454 L47.3565,9.0454 L47.3565,7.6844 L35.3825,7.6844 C33.1075,7.6844 31.2575,9.5354 31.2575,11.8104 L31.2575,35.2464 L24.3475,35.2464 C22.4315,35.2464 20.5425,35.7484 18.8815,36.6984 L9.3615,42.1364 L0.2505,42.1364 L0.2505,71.0594 L11.0595,71.0594 L18.6185,76.0984 C20.4325,77.3094 22.5465,77.9494 24.7295,77.9494 L31.2575,77.9494 L31.2575,104.8304 C31.2575,107.1054 33.1075,108.9564 35.3825,108.9564 L100.8415,108.9564 C103.1165,108.9564 104.9675,107.1054 104.9675,104.8304 L104.9675,11.8104 C104.9675,9.5354 103.1165,7.6844 100.8415,7.6844" id="Fill-7" fill="#242F4E"></path>
                <path d="M25.6165,47.8364 L25.7445,46.9424 L31.2575,46.9424 L31.2575,76.5884 L24.7295,76.5884 C22.8175,76.5884 20.9655,76.0274 19.3745,74.9664 L11.4725,69.6984 L1.6115,69.6984 L1.6115,43.4974 L9.7245,43.4974 L19.5565,37.8794 C21.0125,37.0464 22.6705,36.6064 24.3475,36.6064 L43.9955,36.6064 C46.4705,36.6064 48.4825,38.6194 48.4825,41.0944 C48.4825,43.5684 46.4705,45.5824 43.9955,45.5824 L24.3665,45.5824 L24.3665,46.2624 C24.3665,51.2334 20.5895,55.3394 15.7535,55.8614 L15.7535,57.2284 C20.7425,56.7494 24.8915,52.8724 25.6165,47.8364 Z M100.8415,7.6844 L89.1015,7.6844 C89.0615,8.1554 89.0335,8.6064 89.1015,9.0454 L100.8415,9.0454 C102.3655,9.0454 103.6055,10.2854 103.6055,11.8104 L103.6055,104.8304 C103.6055,106.3544 102.3655,107.5954 100.8415,107.5954 L35.3825,107.5954 C33.8575,107.5954 32.6175,106.3544 32.6175,104.8304 L32.6175,46.9424 L43.9955,46.9424 C47.2205,46.9424 49.8445,44.3184 49.8445,41.0944 C49.8445,37.8694 47.2205,35.2464 43.9955,35.2464 L32.6175,35.2464 L32.6175,11.8104 C32.6175,10.2854 33.8575,9.0454 35.3825,9.0454 L47.3565,9.0454 L47.3565,7.6844 L35.3825,7.6844 C33.1075,7.6844 31.2575,9.5354 31.2575,11.8104 L31.2575,35.2464 L24.3475,35.2464 C22.4315,35.2464 20.5425,35.7484 18.8815,36.6984 L9.3615,42.1364 L0.2505,42.1364 L0.2505,71.0594 L11.0595,71.0594 L18.6185,76.0984 C20.4325,77.3094 22.5465,77.9494 24.7295,77.9494 L31.2575,77.9494 L31.2575,104.8304 C31.2575,107.1054 33.1075,108.9564 35.3825,108.9564 L100.8415,108.9564 C103.1165,108.9564 104.9675,107.1054 104.9675,104.8304 L104.9675,11.8104 C104.9675,9.5354 103.1165,7.6844 100.8415,7.6844 Z" id="Stroke-9" stroke="#242F4E" stroke-width="0.5"></path>
                <path d="M52.805,1.5703 C51.819,1.5703 51.017,2.3723 51.017,3.3583 L51.017,12.5073 C51.017,13.4923 51.819,14.2943 52.805,14.2943 L83.092,14.2943 C84.078,14.2943 84.88,13.4923 84.88,12.5073 L84.88,3.3583 C84.88,2.3723 84.078,1.5703 83.092,1.5703 L52.805,1.5703 Z M83.092,15.6143 L52.805,15.6143 C51.091,15.6143 49.697,14.2203 49.697,12.5073 L49.697,3.3583 C49.697,1.6443 51.091,0.2503 52.805,0.2503 L83.092,0.2503 C84.806,0.2503 86.201,1.6443 86.201,3.3583 L86.201,12.5073 C86.201,14.2203 84.806,15.6143 83.092,15.6143 Z" id="Fill-11" fill="#242F4E"></path>
                <path d="M52.805,1.5703 C51.819,1.5703 51.017,2.3723 51.017,3.3583 L51.017,12.5073 C51.017,13.4923 51.819,14.2943 52.805,14.2943 L83.092,14.2943 C84.078,14.2943 84.88,13.4923 84.88,12.5073 L84.88,3.3583 C84.88,2.3723 84.078,1.5703 83.092,1.5703 L52.805,1.5703 Z M83.092,15.6143 L52.805,15.6143 C51.091,15.6143 49.697,14.2203 49.697,12.5073 L49.697,3.3583 C49.697,1.6443 51.091,0.2503 52.805,0.2503 L83.092,0.2503 C84.806,0.2503 86.201,1.6443 86.201,3.3583 L86.201,12.5073 C86.201,14.2203 84.806,15.6143 83.092,15.6143 Z" id="Stroke-13" stroke="#242F4E" stroke-width="0.5"></path>
            </g>
        </g>
    </g>
</svg>