<?xml version="1.0" encoding="UTF-8"?>
<svg width="119px" height="119px" viewBox="0 0 119 119" version="1.1" xmlns="http://www.w3.org/2000/svg" xmlns:xlink="http://www.w3.org/1999/xlink">
    <!-- Generator: Sketch 51.3 (57544) - http://www.bohemiancoding.com/sketch -->
    <title>Group 11</title>
    <desc>Created with Sketch.</desc>
    <defs></defs>
    <g id="Page-1" stroke="none" stroke-width="1" fill="none" fill-rule="evenodd">
        <g id="Development-Development" transform="translate(-681.000000, -2595.000000)">
            <g id="Group-11" transform="translate(681.000000, 2596.000000)">
                <path d="M79.8805,59.6677 C79.8805,70.0227 71.4855,78.4167 61.1315,78.4167 C50.7765,78.4167 42.3825,70.0227 42.3825,59.6677 C42.3825,49.3137 50.7765,40.9187 61.1315,40.9187 C71.4855,40.9187 79.8805,49.3137 79.8805,59.6677" id="Fill-1" fill="#50E29D"></path>
                <path d="M111.86,67.0925 C114.5,67.0925 116.647,69.2395 116.647,71.8805 C116.647,74.5195 114.5,76.6665 111.86,76.6665 C109.219,76.6665 107.072,74.5195 107.072,71.8805 C107.072,69.2395 109.219,67.0925 111.86,67.0925 Z M85.345,66.4255 C84.679,74.6015 80.482,82.0495 73.833,86.8575 L60.379,96.5835 L46.925,86.8575 C45.221,85.6255 43.628,84.1605 42.187,82.5015 L42.095,82.3895 C38.206,77.8605 35.895,72.3365 35.413,66.4095 L32.581,35.4325 L32.806,35.3175 C36.278,33.5385 53.922,24.6675 60.379,24.6675 C61.463,24.6675 62.889,24.9135 64.739,25.4195 L65.801,25.7295 C73.598,28.0915 84.729,33.6655 87.955,35.3175 L88.18,35.4325 L85.345,66.4255 Z M77.697,111.3985 C77.697,114.0375 75.549,116.1855 72.911,116.1855 C70.27,116.1855 68.122,114.0375 68.122,111.3985 C68.122,108.7585 70.27,106.6105 72.911,106.6105 C75.549,106.6105 77.697,108.7585 77.697,111.3985 Z M99.136,101.0335 C99.136,103.6735 96.988,105.8215 94.346,105.8215 C91.708,105.8215 89.561,103.6735 89.561,101.0335 C89.561,98.3935 91.708,96.2465 94.346,96.2465 C96.988,96.2465 99.136,98.3935 99.136,101.0335 Z M31.564,101.7775 C31.564,104.4165 29.417,106.5635 26.777,106.5635 C24.137,106.5635 21.99,104.4165 21.99,101.7775 C21.99,99.1375 24.137,96.9895 26.777,96.9895 C29.417,96.9895 31.564,99.1375 31.564,101.7775 Z M6.332,75.0225 C3.692,75.0225 1.545,72.8755 1.545,70.2355 C1.545,67.5955 3.692,65.4475 6.332,65.4475 C8.972,65.4475 11.12,67.5955 11.12,70.2355 C11.12,72.8755 8.972,75.0225 6.332,75.0225 Z M14.679,37.4585 C14.679,34.8195 16.827,32.6715 19.467,32.6715 C22.106,32.6715 24.253,34.8195 24.253,37.4585 C24.253,40.0985 22.106,42.2465 19.467,42.2465 C16.827,42.2465 14.679,40.0985 14.679,37.4585 Z M35.468,13.1075 C32.83,13.1075 30.682,10.9605 30.682,8.3205 C30.682,5.6815 32.83,3.5345 35.468,3.5345 C38.109,3.5345 40.256,5.6815 40.256,8.3205 C40.256,10.9605 38.109,13.1075 35.468,13.1075 Z M81.229,1.5455 C83.869,1.5455 86.016,3.6925 86.016,6.3315 C86.016,8.9715 83.869,11.1195 81.229,11.1195 C78.589,11.1195 76.441,8.9715 76.441,6.3315 C76.441,3.6925 78.589,1.5455 81.229,1.5455 Z M110.518,32.6715 C113.159,32.6715 115.306,34.8195 115.306,37.4585 C115.306,40.0985 113.159,42.2465 110.518,42.2465 C107.88,42.2465 105.732,40.0985 105.732,37.4585 C105.732,34.8195 107.88,32.6715 110.518,32.6715 Z M111.86,77.9625 C115.214,77.9625 117.943,75.2335 117.943,71.8805 C117.943,69.2365 116.176,66.8455 113.648,66.0655 L112.507,65.7145 L112.507,54.7765 L87.834,54.7765 L89.36,38.1065 L104.354,38.1065 L104.705,39.2475 C105.486,41.7755 107.877,43.5415 110.518,43.5415 C113.873,43.5415 116.601,40.8125 116.601,37.4585 C116.601,34.1045 113.873,31.3755 110.518,31.3755 C107.876,31.3755 105.486,33.1415 104.706,35.6695 L104.353,36.8105 L89.478,36.8105 L89.679,34.6155 L89.259,34.3955 C87.877,33.6735 75.489,27.2615 66.574,24.4915 L66.31,24.4105 L66.31,6.9795 L75.063,6.9795 L75.416,8.1205 C76.196,10.6485 78.587,12.4145 81.229,12.4145 C84.584,12.4145 87.312,9.6855 87.312,6.3315 C87.312,2.9785 84.584,0.2495 81.229,0.2495 C78.587,0.2495 76.196,2.0155 75.415,4.5435 L75.064,5.6845 L65.015,5.6845 L65.015,24.0335 L64.547,23.9125 C62.839,23.4725 61.436,23.2495 60.379,23.2495 C57.79,23.2495 53.356,24.5295 47.202,27.0545 L46.684,27.2665 L46.684,7.6725 L41.635,7.6725 L41.285,6.5315 C40.504,4.0045 38.112,2.2385 35.468,2.2385 C32.114,2.2385 29.385,4.9675 29.385,8.3205 C29.385,11.6745 32.114,14.4035 35.468,14.4035 C38.112,14.4035 40.504,12.6375 41.285,10.1095 L41.637,8.9685 L45.389,8.9685 L45.389,27.8135 L45.162,27.9115 C38.398,30.8095 32.187,34.0375 31.502,34.3955 L31.082,34.6155 L32.774,53.1145 L20.065,53.1145 L20.065,43.6295 L21.216,43.2835 C23.767,42.5145 25.548,40.1195 25.548,37.4585 C25.548,34.1045 22.82,31.3755 19.465,31.3755 C16.112,31.3755 13.384,34.1045 13.384,37.4585 C13.384,40.1245 15.093,42.4555 17.638,43.2605 L18.768,43.6185 L18.768,54.4105 L32.892,54.4105 L34.002,66.5325 C34.067,67.3395 34.178,68.1945 34.341,69.1485 L34.417,69.5875 L12.497,69.5875 L12.146,68.4465 C11.365,65.9185 8.974,64.1525 6.332,64.1525 C2.978,64.1525 0.25,66.8815 0.25,70.2355 C0.25,73.5895 2.978,76.3185 6.332,76.3185 C8.974,76.3185 11.365,74.5525 12.145,72.0245 L12.498,70.8835 L34.685,70.8835 L34.756,71.1685 C35.715,75.0905 37.449,78.7185 39.908,81.9525 L40.365,82.5545 L26.13,82.5545 L26.13,95.6105 L24.989,95.9625 C22.461,96.7415 20.694,99.1325 20.694,101.7755 C20.694,105.1295 23.422,107.8585 26.777,107.8585 C30.131,107.8585 32.859,105.1295 32.859,101.7755 C32.859,99.1325 31.093,96.7415 28.565,95.9625 L27.424,95.6105 L27.424,83.8505 L41.475,83.8505 L41.587,83.9735 C42.96,85.4785 44.476,86.8355 46.094,88.0065 L60.379,98.3315 L72.262,89.7415 L72.262,105.2325 L71.121,105.5845 C68.592,106.3635 66.827,108.7545 66.827,111.3985 C66.827,114.7525 69.556,117.4815 72.911,117.4815 C76.264,117.4815 78.992,114.7525 78.992,111.3985 C78.992,108.7545 77.226,106.3635 74.698,105.5845 L73.557,105.2335 L73.557,88.8055 L74.663,88.0065 C76.599,86.6065 78.379,84.9475 79.952,83.0775 L80.064,82.9445 L93.7,82.9445 L93.7,94.8665 L92.559,95.2185 C90.031,95.9975 88.264,98.3885 88.264,101.0335 C88.264,104.3875 90.993,107.1155 94.346,107.1155 C97.702,107.1155 100.431,104.3875 100.431,101.0335 C100.431,98.3895 98.665,95.9985 96.135,95.2185 L94.995,94.8665 L94.995,81.6495 L81.096,81.6495 L81.511,81.0585 C84.518,76.7755 86.333,71.7575 86.756,66.5475 L87.715,56.0725 L111.213,56.0725 L111.213,65.7135 L110.071,66.0655 C107.543,66.8445 105.777,69.2365 105.777,71.8805 C105.777,75.2335 108.506,77.9625 111.86,77.9625 Z" id="Fill-3" fill="#242F4E"></path>
                <path d="M111.86,67.0925 C114.5,67.0925 116.647,69.2395 116.647,71.8805 C116.647,74.5195 114.5,76.6665 111.86,76.6665 C109.219,76.6665 107.072,74.5195 107.072,71.8805 C107.072,69.2395 109.219,67.0925 111.86,67.0925 Z M85.345,66.4255 C84.679,74.6015 80.482,82.0495 73.833,86.8575 L60.379,96.5835 L46.925,86.8575 C45.221,85.6255 43.628,84.1605 42.187,82.5015 L42.095,82.3895 C38.206,77.8605 35.895,72.3365 35.413,66.4095 L32.581,35.4325 L32.806,35.3175 C36.278,33.5385 53.922,24.6675 60.379,24.6675 C61.463,24.6675 62.889,24.9135 64.739,25.4195 L65.801,25.7295 C73.598,28.0915 84.729,33.6655 87.955,35.3175 L88.18,35.4325 L85.345,66.4255 Z M77.697,111.3985 C77.697,114.0375 75.549,116.1855 72.911,116.1855 C70.27,116.1855 68.122,114.0375 68.122,111.3985 C68.122,108.7585 70.27,106.6105 72.911,106.6105 C75.549,106.6105 77.697,108.7585 77.697,111.3985 Z M99.136,101.0335 C99.136,103.6735 96.988,105.8215 94.346,105.8215 C91.708,105.8215 89.561,103.6735 89.561,101.0335 C89.561,98.3935 91.708,96.2465 94.346,96.2465 C96.988,96.2465 99.136,98.3935 99.136,101.0335 Z M31.564,101.7775 C31.564,104.4165 29.417,106.5635 26.777,106.5635 C24.137,106.5635 21.99,104.4165 21.99,101.7775 C21.99,99.1375 24.137,96.9895 26.777,96.9895 C29.417,96.9895 31.564,99.1375 31.564,101.7775 Z M6.332,75.0225 C3.692,75.0225 1.545,72.8755 1.545,70.2355 C1.545,67.5955 3.692,65.4475 6.332,65.4475 C8.972,65.4475 11.12,67.5955 11.12,70.2355 C11.12,72.8755 8.972,75.0225 6.332,75.0225 Z M14.679,37.4585 C14.679,34.8195 16.827,32.6715 19.467,32.6715 C22.106,32.6715 24.253,34.8195 24.253,37.4585 C24.253,40.0985 22.106,42.2465 19.467,42.2465 C16.827,42.2465 14.679,40.0985 14.679,37.4585 Z M35.468,13.1075 C32.83,13.1075 30.682,10.9605 30.682,8.3205 C30.682,5.6815 32.83,3.5345 35.468,3.5345 C38.109,3.5345 40.256,5.6815 40.256,8.3205 C40.256,10.9605 38.109,13.1075 35.468,13.1075 Z M81.229,1.5455 C83.869,1.5455 86.016,3.6925 86.016,6.3315 C86.016,8.9715 83.869,11.1195 81.229,11.1195 C78.589,11.1195 76.441,8.9715 76.441,6.3315 C76.441,3.6925 78.589,1.5455 81.229,1.5455 Z M110.518,32.6715 C113.159,32.6715 115.306,34.8195 115.306,37.4585 C115.306,40.0985 113.159,42.2465 110.518,42.2465 C107.88,42.2465 105.732,40.0985 105.732,37.4585 C105.732,34.8195 107.88,32.6715 110.518,32.6715 Z M111.86,77.9625 C115.214,77.9625 117.943,75.2335 117.943,71.8805 C117.943,69.2365 116.176,66.8455 113.648,66.0655 L112.507,65.7145 L112.507,54.7765 L87.834,54.7765 L89.36,38.1065 L104.354,38.1065 L104.705,39.2475 C105.486,41.7755 107.877,43.5415 110.518,43.5415 C113.873,43.5415 116.601,40.8125 116.601,37.4585 C116.601,34.1045 113.873,31.3755 110.518,31.3755 C107.876,31.3755 105.486,33.1415 104.706,35.6695 L104.353,36.8105 L89.478,36.8105 L89.679,34.6155 L89.259,34.3955 C87.877,33.6735 75.489,27.2615 66.574,24.4915 L66.31,24.4105 L66.31,6.9795 L75.063,6.9795 L75.416,8.1205 C76.196,10.6485 78.587,12.4145 81.229,12.4145 C84.584,12.4145 87.312,9.6855 87.312,6.3315 C87.312,2.9785 84.584,0.2495 81.229,0.2495 C78.587,0.2495 76.196,2.0155 75.415,4.5435 L75.064,5.6845 L65.015,5.6845 L65.015,24.0335 L64.547,23.9125 C62.839,23.4725 61.436,23.2495 60.379,23.2495 C57.79,23.2495 53.356,24.5295 47.202,27.0545 L46.684,27.2665 L46.684,7.6725 L41.635,7.6725 L41.285,6.5315 C40.504,4.0045 38.112,2.2385 35.468,2.2385 C32.114,2.2385 29.385,4.9675 29.385,8.3205 C29.385,11.6745 32.114,14.4035 35.468,14.4035 C38.112,14.4035 40.504,12.6375 41.285,10.1095 L41.637,8.9685 L45.389,8.9685 L45.389,27.8135 L45.162,27.9115 C38.398,30.8095 32.187,34.0375 31.502,34.3955 L31.082,34.6155 L32.774,53.1145 L20.065,53.1145 L20.065,43.6295 L21.216,43.2835 C23.767,42.5145 25.548,40.1195 25.548,37.4585 C25.548,34.1045 22.82,31.3755 19.465,31.3755 C16.112,31.3755 13.384,34.1045 13.384,37.4585 C13.384,40.1245 15.093,42.4555 17.638,43.2605 L18.768,43.6185 L18.768,54.4105 L32.892,54.4105 L34.002,66.5325 C34.067,67.3395 34.178,68.1945 34.341,69.1485 L34.417,69.5875 L12.497,69.5875 L12.146,68.4465 C11.365,65.9185 8.974,64.1525 6.332,64.1525 C2.978,64.1525 0.25,66.8815 0.25,70.2355 C0.25,73.5895 2.978,76.3185 6.332,76.3185 C8.974,76.3185 11.365,74.5525 12.145,72.0245 L12.498,70.8835 L34.685,70.8835 L34.756,71.1685 C35.715,75.0905 37.449,78.7185 39.908,81.9525 L40.365,82.5545 L26.13,82.5545 L26.13,95.6105 L24.989,95.9625 C22.461,96.7415 20.694,99.1325 20.694,101.7755 C20.694,105.1295 23.422,107.8585 26.777,107.8585 C30.131,107.8585 32.859,105.1295 32.859,101.7755 C32.859,99.1325 31.093,96.7415 28.565,95.9625 L27.424,95.6105 L27.424,83.8505 L41.475,83.8505 L41.587,83.9735 C42.96,85.4785 44.476,86.8355 46.094,88.0065 L60.379,98.3315 L72.262,89.7415 L72.262,105.2325 L71.121,105.5845 C68.592,106.3635 66.827,108.7545 66.827,111.3985 C66.827,114.7525 69.556,117.4815 72.911,117.4815 C76.264,117.4815 78.992,114.7525 78.992,111.3985 C78.992,108.7545 77.226,106.3635 74.698,105.5845 L73.557,105.2335 L73.557,88.8055 L74.663,88.0065 C76.599,86.6065 78.379,84.9475 79.952,83.0775 L80.064,82.9445 L93.7,82.9445 L93.7,94.8665 L92.559,95.2185 C90.031,95.9975 88.264,98.3885 88.264,101.0335 C88.264,104.3875 90.993,107.1155 94.346,107.1155 C97.702,107.1155 100.431,104.3875 100.431,101.0335 C100.431,98.3895 98.665,95.9985 96.135,95.2185 L94.995,94.8665 L94.995,81.6495 L81.096,81.6495 L81.511,81.0585 C84.518,76.7755 86.333,71.7575 86.756,66.5475 L87.715,56.0725 L111.213,56.0725 L111.213,65.7135 L110.071,66.0655 C107.543,66.8445 105.777,69.2365 105.777,71.8805 C105.777,75.2335 108.506,77.9625 111.86,77.9625 Z" id="Stroke-5" stroke="#242F4E" stroke-width="0.5"></path>
                <polygon id="Fill-7" fill="#242F4E" points="53.3951 66.2165 46.4301 59.2505 45.2421 60.4395 53.3951 68.5935 76.3591 45.6325 75.1691 44.4435"></polygon>
                <polygon id="Stroke-9" stroke="#242F4E" stroke-width="0.5" points="53.3951 66.2165 46.4301 59.2505 45.2421 60.4395 53.3951 68.5935 76.3591 45.6325 75.1691 44.4435"></polygon>
            </g>
        </g>
    </g>
</svg>