<?xml version="1.0" encoding="UTF-8"?>
<svg width="86px" height="86px" viewBox="0 0 86 86" version="1.1" xmlns="http://www.w3.org/2000/svg" xmlns:xlink="http://www.w3.org/1999/xlink">
    <!-- Generator: Sketch 51.3 (57544) - http://www.bohemiancoding.com/sketch -->
    <title>Group 12</title>
    <desc>Created with Sketch.</desc>
    <defs>
        <polygon id="path-1" points="0.0002 0.496 85.84 0.496 85.84 85.9999 0.0002 85.9999"></polygon>
    </defs>
    <g id="Page-1" stroke="none" stroke-width="1" fill="none" fill-rule="evenodd">
        <g id="Group-12" transform="translate(0.000000, -1.000000)">
            <path d="M58.0147,44.335 C58.0147,51.856 51.9177,57.952 44.3977,57.952 C36.8777,57.952 30.7817,51.856 30.7817,44.335 C30.7817,36.815 36.8777,30.719 44.3977,30.719 C51.9177,30.719 58.0147,36.815 58.0147,44.335" id="Fill-1" fill="#50E29D"></path>
            <path d="M81.2403,49.7271 C83.1573,49.7271 84.7173,51.2871 84.7173,53.2051 C84.7173,55.1211 83.1573,56.6801 81.2403,56.6801 C79.3233,56.6801 77.7623,55.1211 77.7623,53.2051 C77.7623,51.2871 79.3233,49.7271 81.2403,49.7271 Z M61.9833,49.2431 C61.5003,55.1811 58.4523,60.5901 53.6223,64.0811 L43.8513,71.1451 L34.0813,64.0811 C32.8433,63.1871 31.6853,62.1231 30.6393,60.9181 L30.5733,60.8371 C27.7483,57.5481 26.0693,53.5361 25.7193,49.2311 L23.6623,26.7341 L23.8263,26.6501 C26.3473,25.3581 39.1623,18.9151 43.8513,18.9151 C44.6383,18.9151 45.6753,19.0941 47.0173,19.4611 L47.7903,19.6871 C53.4523,21.4021 61.5363,25.4501 63.8793,26.6501 L64.0433,26.7341 L61.9833,49.2431 Z M56.4283,81.9051 C56.4283,83.8221 54.8693,85.3821 52.9533,85.3821 C51.0353,85.3821 49.4743,83.8221 49.4743,81.9051 C49.4743,79.9881 51.0353,78.4281 52.9533,78.4281 C54.8693,78.4281 56.4283,79.9881 56.4283,81.9051 Z M72.0003,74.3771 C72.0003,76.2951 70.4393,77.8541 68.5203,77.8541 C66.6043,77.8541 65.0463,76.2951 65.0463,74.3771 C65.0463,72.4601 66.6043,70.9011 68.5203,70.9011 C70.4393,70.9011 72.0003,72.4601 72.0003,74.3771 Z M22.9243,74.9171 C22.9243,76.8341 21.3643,78.3941 19.4473,78.3941 C17.5303,78.3941 15.9703,76.8341 15.9703,74.9171 C15.9703,73.0001 17.5303,71.4401 19.4473,71.4401 C21.3643,71.4401 22.9243,73.0001 22.9243,74.9171 Z M4.5983,55.4871 C2.6813,55.4871 1.1223,53.9271 1.1223,52.0101 C1.1223,50.0931 2.6813,48.5331 4.5983,48.5331 C6.5163,48.5331 8.0763,50.0931 8.0763,52.0101 C8.0763,53.9271 6.5163,55.4871 4.5983,55.4871 Z M10.6613,28.2051 C10.6613,26.2881 12.2203,24.7281 14.1383,24.7281 C16.0553,24.7281 17.6143,26.2881 17.6143,28.2051 C17.6143,30.1231 16.0553,31.6821 14.1383,31.6821 C12.2203,31.6821 10.6613,30.1231 10.6613,28.2051 Z M25.7603,10.5201 C23.8443,10.5201 22.2843,8.9601 22.2843,7.0431 C22.2843,5.1261 23.8443,3.5671 25.7603,3.5671 C27.6773,3.5671 29.2373,5.1261 29.2373,7.0431 C29.2373,8.9601 27.6773,10.5201 25.7603,10.5201 Z M58.9943,2.1231 C60.9113,2.1231 62.4703,3.6821 62.4703,5.5991 C62.4703,7.5161 60.9113,9.0761 58.9943,9.0761 C57.0763,9.0761 55.5163,7.5161 55.5163,5.5991 C55.5163,3.6821 57.0763,2.1231 58.9943,2.1231 Z M80.2653,24.7281 C82.1833,24.7281 83.7433,26.2881 83.7433,28.2051 C83.7433,30.1231 82.1833,31.6821 80.2653,31.6821 C78.3493,31.6821 76.7903,30.1231 76.7903,28.2051 C76.7903,26.2881 78.3493,24.7281 80.2653,24.7281 Z M81.2403,57.6221 C83.6773,57.6221 85.6583,55.6401 85.6583,53.2051 C85.6583,51.2841 84.3753,49.5481 82.5393,48.9811 L81.7113,48.7261 L81.7113,40.7831 L63.7913,40.7831 L64.8993,28.6761 L75.7893,28.6761 L76.0443,29.5041 C76.6113,31.3401 78.3473,32.6231 80.2653,32.6231 C82.7023,32.6231 84.6833,30.6411 84.6833,28.2051 C84.6833,25.7691 82.7023,23.7871 80.2653,23.7871 C78.3463,23.7871 76.6113,25.0701 76.0453,26.9061 L75.7893,27.7351 L64.9853,27.7351 L65.1323,26.1401 L64.8263,25.9801 C63.8223,25.4561 54.8253,20.7991 48.3503,18.7881 L48.1593,18.7281 L48.1593,6.0691 L54.5163,6.0691 L54.7723,6.8981 C55.3393,8.7341 57.0753,10.0171 58.9943,10.0171 C61.4303,10.0171 63.4123,8.0351 63.4123,5.5991 C63.4123,3.1631 61.4303,1.1821 58.9943,1.1821 C57.0753,1.1821 55.3393,2.4641 54.7713,4.3001 L54.5163,5.1281 L47.2193,5.1281 L47.2193,18.4551 L46.8783,18.3671 C45.6373,18.0481 44.6193,17.8861 43.8513,17.8861 C41.9703,17.8861 38.7513,18.8151 34.2813,20.6491 L33.9053,20.8031 L33.9053,6.5731 L30.2383,6.5731 L29.9843,5.7441 C29.4173,3.9091 27.6793,2.6261 25.7603,2.6261 C23.3233,2.6261 21.3423,4.6071 21.3423,7.0431 C21.3423,9.4791 23.3233,11.4611 25.7603,11.4611 C27.6793,11.4611 29.4173,10.1781 29.9843,8.3421 L30.2403,7.5141 L32.9653,7.5141 L32.9653,21.2001 L32.8003,21.2711 C27.8873,23.3761 23.3773,25.7201 22.8793,25.9801 L22.5743,26.1401 L23.8023,39.5761 L14.5733,39.5761 L14.5733,32.6871 L15.4093,32.4351 C17.2613,31.8771 18.5553,30.1381 18.5553,28.2051 C18.5553,25.7691 16.5733,23.7871 14.1373,23.7871 C11.7023,23.7871 9.7203,25.7691 9.7203,28.2051 C9.7203,30.1411 10.9623,31.8341 12.8103,32.4191 L13.6313,32.6791 L13.6313,40.5171 L23.8883,40.5171 L24.6943,49.3201 C24.7423,49.9071 24.8233,50.5271 24.9413,51.2211 L24.9963,51.5391 L9.0763,51.5391 L8.8213,50.7101 C8.2543,48.8751 6.5173,47.5921 4.5983,47.5921 C2.1633,47.5921 0.1813,49.5741 0.1813,52.0101 C0.1813,54.4461 2.1633,56.4281 4.5983,56.4281 C6.5173,56.4281 8.2543,55.1451 8.8213,53.3091 L9.0773,52.4801 L25.1913,52.4801 L25.2423,52.6871 C25.9393,55.5361 27.1983,58.1711 28.9843,60.5201 L29.3163,60.9571 L18.9773,60.9571 L18.9773,70.4391 L18.1483,70.6941 C16.3123,71.2601 15.0293,72.9971 15.0293,74.9161 C15.0293,77.3521 17.0113,79.3341 19.4473,79.3341 C21.8833,79.3341 23.8643,77.3521 23.8643,74.9161 C23.8643,72.9971 22.5823,71.2601 20.7463,70.6941 L19.9183,70.4391 L19.9183,61.8981 L30.1223,61.8981 L30.2033,61.9871 C31.2003,63.0811 32.3023,64.0661 33.4773,64.9161 L43.8513,72.4151 L52.4823,66.1761 L52.4823,77.4271 L51.6533,77.6831 C49.8163,78.2491 48.5343,79.9851 48.5343,81.9051 C48.5343,84.3411 50.5163,86.3231 52.9533,86.3231 C55.3883,86.3231 57.3693,84.3411 57.3693,81.9051 C57.3693,79.9851 56.0873,78.2491 54.2513,77.6831 L53.4233,77.4281 L53.4233,65.4971 L54.2253,64.9161 C55.6323,63.8991 56.9243,62.6951 58.0663,61.3371 L58.1483,61.2401 L68.0523,61.2401 L68.0523,69.8981 L67.2223,70.1541 C65.3863,70.7201 64.1033,72.4571 64.1033,74.3771 C64.1033,76.8131 66.0853,78.7951 68.5203,78.7951 C70.9583,78.7951 72.9403,76.8131 72.9403,74.3771 C72.9403,72.4571 71.6573,70.7211 69.8203,70.1541 L68.9923,69.8991 L68.9923,60.2991 L58.8973,60.2991 L59.1993,59.8711 C61.3833,56.7601 62.7013,53.1151 63.0093,49.3311 L63.7053,41.7241 L80.7703,41.7241 L80.7703,48.7261 L79.9413,48.9811 C78.1043,49.5471 76.8223,51.2841 76.8223,53.2051 C76.8223,55.6401 78.8043,57.6221 81.2403,57.6221 Z" id="Fill-3" fill="#242F4E"></path>
            <g id="Group-7" transform="translate(0.000000, 0.504300)">
                <mask id="mask-2" fill="white">
                    <use xlink:href="#path-1"></use>
                </mask>
                <g id="Clip-6"></g>
                <path d="M58.9942,1.7999 C57.1772,1.7999 55.6982,3.2789 55.6982,5.0949 C55.6982,6.9119 57.1772,8.3899 58.9942,8.3899 C60.8102,8.3899 62.2892,6.9119 62.2892,5.0949 C62.2892,3.2789 60.8102,1.7999 58.9942,1.7999 Z M58.9942,8.7529 C56.9762,8.7529 55.3362,7.1119 55.3362,5.0949 C55.3362,3.0779 56.9762,1.4369 58.9942,1.4369 C61.0122,1.4369 62.6522,3.0779 62.6522,5.0949 C62.6522,7.1119 61.0122,8.7529 58.9942,8.7529 Z M25.7602,3.2439 C23.9432,3.2439 22.4652,4.7219 22.4652,6.5389 C22.4652,8.3559 23.9432,9.8339 25.7602,9.8339 C27.5772,9.8339 29.0562,8.3559 29.0562,6.5389 C29.0562,4.7219 27.5772,3.2439 25.7602,3.2439 Z M25.7602,10.1969 C23.7432,10.1969 22.1022,8.5559 22.1022,6.5389 C22.1022,4.5219 23.7432,2.8809 25.7602,2.8809 C27.7772,2.8809 29.4192,4.5219 29.4192,6.5389 C29.4192,8.5559 27.7772,10.1969 25.7602,10.1969 Z M14.1392,24.4059 C12.3222,24.4059 10.8442,25.8839 10.8442,27.7009 C10.8442,29.5179 12.3222,30.9969 14.1392,30.9969 C15.9552,30.9969 17.4322,29.5179 17.4322,27.7009 C17.4322,25.8839 15.9552,24.4059 14.1392,24.4059 Z M14.1392,31.3599 C12.1222,31.3599 10.4802,29.7179 10.4802,27.7009 C10.4802,25.6839 12.1222,24.0429 14.1392,24.0429 C16.1552,24.0429 17.7952,25.6839 17.7952,27.7009 C17.7952,29.7179 16.1552,31.3599 14.1392,31.3599 Z M80.2662,24.4059 C78.4502,24.4059 76.9712,25.8839 76.9712,27.7009 C76.9712,29.5179 78.4502,30.9969 80.2662,30.9969 C82.0832,30.9969 83.5612,29.5179 83.5612,27.7009 C83.5612,25.8839 82.0832,24.4059 80.2662,24.4059 Z M80.2662,31.3599 C78.2492,31.3599 76.6082,29.7179 76.6082,27.7009 C76.6082,25.6839 78.2492,24.0429 80.2662,24.0429 C82.2832,24.0429 83.9252,25.6839 83.9252,27.7009 C83.9252,29.7179 82.2832,31.3599 80.2662,31.3599 Z M4.5982,48.2099 C2.7822,48.2099 1.3042,49.6889 1.3042,51.5059 C1.3042,53.3229 2.7822,54.8009 4.5982,54.8009 C6.4162,54.8009 7.8952,53.3229 7.8952,51.5059 C7.8952,49.6889 6.4162,48.2099 4.5982,48.2099 Z M4.5982,55.1639 C2.5812,55.1639 0.9402,53.5229 0.9402,51.5059 C0.9402,49.4879 2.5812,47.8469 4.5982,47.8469 C6.6162,47.8469 8.2582,49.4879 8.2582,51.5059 C8.2582,53.5229 6.6162,55.1639 4.5982,55.1639 Z M81.2412,49.4039 C79.4242,49.4039 77.9452,50.8829 77.9452,52.6999 C77.9452,54.5159 79.4242,55.9939 81.2412,55.9939 C83.0572,55.9939 84.5362,54.5159 84.5362,52.6999 C84.5362,50.8829 83.0572,49.4039 81.2412,49.4039 Z M81.2412,56.3579 C79.2242,56.3579 77.5822,54.7169 77.5822,52.6999 C77.5822,50.6829 79.2242,49.0419 81.2412,49.0419 C83.2582,49.0419 84.8982,50.6829 84.8982,52.6999 C84.8982,54.7169 83.2582,56.3579 81.2412,56.3579 Z M23.8542,26.3349 L25.9002,48.7109 C26.2472,52.9779 27.9102,56.9549 30.7102,60.2149 L30.7802,60.2999 C31.8162,61.4919 32.9642,62.5469 34.1862,63.4299 L43.8512,70.4169 L53.5162,63.4299 C58.3032,59.9689 61.3232,54.6089 61.8032,48.7239 L61.8032,48.7219 L63.8502,26.3349 L63.7962,26.3069 C61.4582,25.1099 53.3902,21.0689 47.7372,19.3569 L46.9672,19.1319 C45.6422,18.7699 44.6232,18.5929 43.8512,18.5929 C39.2012,18.5929 26.4232,25.0189 23.9092,26.3069 L23.8542,26.3349 Z M43.8512,70.8649 L33.9742,63.7239 C32.7282,62.8249 31.5602,61.7509 30.5022,60.5329 L30.4322,60.4469 C27.5852,57.1329 25.8912,53.0839 25.5392,48.7419 L23.4712,26.1239 L23.7432,25.9839 C26.2702,24.6899 39.1172,18.2299 43.8512,18.2299 C44.6552,18.2299 45.7072,18.4109 47.0662,18.7819 L47.8412,19.0079 C53.5242,20.7299 61.6172,24.7829 63.9612,25.9839 L64.2342,26.1239 L64.2232,26.2459 L62.1642,48.7549 C61.6772,54.7449 58.6022,60.2009 53.7282,63.7239 L43.8512,70.8649 Z M68.5212,70.5779 C66.7052,70.5779 65.2262,72.0559 65.2262,73.8729 C65.2262,75.6909 66.7052,77.1689 68.5212,77.1689 C70.3392,77.1689 71.8182,75.6909 71.8182,73.8729 C71.8182,72.0559 70.3392,70.5779 68.5212,70.5779 Z M68.5212,77.5319 C66.5052,77.5319 64.8642,75.8909 64.8642,73.8729 C64.8642,71.8559 66.5052,70.2149 68.5212,70.2149 C70.5392,70.2149 72.1822,71.8559 72.1822,73.8729 C72.1822,75.8909 70.5392,77.5319 68.5212,77.5319 Z M19.4472,71.1179 C17.6312,71.1179 16.1522,72.5959 16.1522,74.4129 C16.1522,76.2299 17.6312,77.7079 19.4472,77.7079 C21.2652,77.7079 22.7432,76.2299 22.7432,74.4129 C22.7432,72.5959 21.2652,71.1179 19.4472,71.1179 Z M19.4472,78.0709 C17.4302,78.0709 15.7892,76.4299 15.7892,74.4129 C15.7892,72.3959 17.4302,70.7549 19.4472,70.7549 C21.4652,70.7549 23.1062,72.3959 23.1062,74.4129 C23.1062,76.4299 21.4652,78.0709 19.4472,78.0709 Z M52.9532,78.1049 C51.1352,78.1049 49.6562,79.5839 49.6562,81.4009 C49.6562,83.2179 51.1352,84.6959 52.9532,84.6959 C54.7692,84.6959 56.2482,83.2179 56.2482,81.4009 C56.2482,79.5839 54.7692,78.1049 52.9532,78.1049 Z M52.9532,85.0589 C50.9342,85.0589 49.2932,83.4179 49.2932,81.4009 C49.2932,79.3829 50.9342,77.7419 52.9532,77.7419 C54.9702,77.7419 56.6102,79.3829 56.6102,81.4009 C56.6102,83.4179 54.9702,85.0589 52.9532,85.0589 Z M52.6632,65.3169 L52.6632,77.0569 L51.7072,77.3519 C49.9452,77.8949 48.7162,79.5599 48.7162,81.4009 C48.7162,83.7369 50.6162,85.6369 52.9532,85.6369 C55.2882,85.6369 57.1882,83.7369 57.1882,81.4009 C57.1882,79.5599 55.9592,77.8949 54.1972,77.3519 L53.2412,77.0569 L53.2412,64.8999 L54.1192,64.2649 C55.5132,63.2569 56.7952,62.0629 57.9282,60.7159 L58.0642,60.5539 L68.2322,60.5539 L68.2322,69.5289 L67.2762,69.8229 C65.5152,70.3659 64.2852,72.0309 64.2852,73.8729 C64.2852,76.2089 66.1852,78.1099 68.5212,78.1099 C70.8572,78.1099 72.7592,76.2089 72.7592,73.8729 C72.7592,72.0319 71.5282,70.3659 69.7672,69.8229 L68.8102,69.5289 L68.8102,59.9769 L58.5482,59.9769 L59.0512,59.2619 C61.2172,56.1769 62.5222,52.5639 62.8282,48.8129 L63.5392,41.0379 L80.9512,41.0379 L80.9512,48.3559 L79.9952,48.6509 C78.2342,49.1939 77.0042,50.8589 77.0042,52.6999 C77.0042,55.0359 78.9052,56.9359 81.2412,56.9359 C83.5762,56.9359 85.4772,55.0359 85.4772,52.6999 C85.4772,50.8589 84.2472,49.1939 82.4862,48.6509 L81.5292,48.3559 L81.5292,40.4599 L63.5922,40.4599 L63.6102,40.2619 L64.7332,27.9899 L75.9232,27.9899 L76.2182,28.9459 C76.7622,30.7069 78.4262,31.9369 80.2662,31.9369 C82.6012,31.9369 84.5032,30.0369 84.5032,27.7009 C84.5032,25.3649 82.6012,23.4649 80.2662,23.4649 C78.4262,23.4649 76.7622,24.6949 76.2182,26.4549 L75.9222,27.4119 L64.7862,27.4119 L64.9392,25.7399 L64.7422,25.6369 C63.7382,25.1129 54.7472,20.4609 48.2982,18.4569 L47.9772,18.3589 L47.9772,5.3829 L54.6502,5.3829 L54.9462,6.3399 C55.4892,8.1009 57.1532,9.3309 58.9942,9.3309 C61.3302,9.3309 63.2302,7.4299 63.2302,5.0949 C63.2302,2.7589 61.3302,0.8589 58.9942,0.8589 C57.1542,0.8589 55.4882,2.0889 54.9452,3.8489 L54.6512,4.8059 L47.3992,4.8059 L47.3992,18.1849 L46.8332,18.0389 C45.6072,17.7229 44.6032,17.5629 43.8512,17.5629 C41.9952,17.5629 38.7982,18.4879 34.3502,20.3129 L33.7242,20.5699 L33.7242,6.2499 L30.1042,6.2499 L29.8102,5.2939 C29.2662,3.5329 27.6002,2.3029 25.7602,2.3029 C23.4252,2.3029 21.5232,4.2029 21.5232,6.5389 C21.5232,8.8749 23.4252,10.7749 25.7602,10.7749 C27.6002,10.7749 29.2662,9.5459 29.8102,7.7839 L30.1062,6.8279 L33.1462,6.8279 L33.1462,20.8159 L32.8712,20.9339 C27.8322,23.0939 23.1592,25.5339 22.9642,25.6369 L22.7652,25.7409 L24.0022,39.2529 L14.3902,39.2529 L14.3902,32.0479 L15.3562,31.7579 C17.1342,31.2219 18.3742,29.5539 18.3742,27.7009 C18.3742,25.3649 16.4732,23.4649 14.1382,23.4649 C11.8032,23.4649 9.9022,25.3649 9.9022,27.7009 C9.9022,29.5569 11.0942,31.1809 12.8652,31.7409 L13.8122,32.0419 L13.8122,39.8309 L24.0552,39.8309 L24.0692,39.9959 L24.8752,48.7999 C24.9222,49.3759 25.0022,49.9919 25.1202,50.6859 L25.2122,51.2159 L8.9412,51.2159 L8.6482,50.2599 C8.1042,48.4989 6.4382,47.2689 4.5982,47.2689 C2.2632,47.2689 0.3632,49.1699 0.3632,51.5059 C0.3632,53.8419 2.2632,55.7419 4.5982,55.7419 C6.4382,55.7419 8.1042,54.5119 8.6472,52.7519 L8.9432,51.7949 L25.3322,51.7949 L25.4182,52.1389 C26.1092,54.9639 27.3572,57.5759 29.1282,59.9059 L29.6822,60.6339 L19.1592,60.6339 L19.1592,70.0689 L18.2022,70.3629 C16.4402,70.9059 15.2112,72.5709 15.2112,74.4119 C15.2112,76.7479 17.1112,78.6479 19.4472,78.6479 C21.7832,78.6479 23.6822,76.7479 23.6822,74.4119 C23.6822,72.5709 22.4532,70.9059 20.6922,70.3629 L19.7362,70.0689 L19.7362,61.2129 L30.2022,61.2129 L30.3382,61.3609 C31.3282,62.4459 32.4202,63.4239 33.5832,64.2649 L43.8512,71.6869 L52.6632,65.3169 Z M52.9532,85.9999 C50.4162,85.9999 48.3522,83.9369 48.3522,81.4009 C48.3522,79.4019 49.6872,77.5939 51.5992,77.0049 L52.3012,76.7889 L52.3012,66.0279 L43.8512,72.1349 L33.3712,64.5589 C32.1872,63.7029 31.0762,62.7099 30.0682,61.6049 L30.0422,61.5749 L20.0992,61.5749 L20.0992,69.7999 L20.8002,70.0169 C22.7112,70.6059 24.0462,72.4129 24.0462,74.4119 C24.0462,76.9479 21.9832,79.0109 19.4472,79.0109 C16.9112,79.0109 14.8482,76.9479 14.8482,74.4119 C14.8482,72.4139 16.1832,70.6069 18.0952,70.0169 L18.7962,69.7999 L18.7962,60.2719 L28.9502,60.2719 L28.8402,60.1259 C27.0392,57.7559 25.7692,55.0989 25.0652,52.2269 L25.0492,52.1569 L9.2112,52.1569 L8.9942,52.8589 C8.4042,54.7699 6.5972,56.1049 4.5982,56.1049 C2.0622,56.1049 0.0002,54.0419 0.0002,51.5059 C0.0002,48.9689 2.0622,46.9059 4.5982,46.9059 C6.5972,46.9059 8.4042,48.2409 8.9952,50.1529 L9.2112,50.8529 L24.7802,50.8529 L24.7622,50.7469 C24.6422,50.0429 24.5602,49.4159 24.5142,48.8309 L23.7232,40.1939 L13.4492,40.1939 L13.4492,32.3069 L12.7552,32.0879 C10.8322,31.4789 9.5402,29.7159 9.5402,27.7009 C9.5402,25.1649 11.6022,23.1019 14.1382,23.1019 C16.6732,23.1019 18.7362,25.1649 18.7362,27.7009 C18.7362,29.7129 17.3902,31.5239 15.4622,32.1049 L14.7542,32.3179 L14.7542,38.8899 L23.6032,38.8899 L22.3822,25.5309 L22.7952,25.3159 C22.9922,25.2129 27.6762,22.7649 32.7282,20.5999 L32.7832,20.5769 L32.7832,7.1909 L30.3742,7.1909 L30.1582,7.8909 C29.5662,9.8029 27.7582,11.1379 25.7602,11.1379 C23.2242,11.1379 21.1612,9.0749 21.1612,6.5389 C21.1612,4.0039 23.2242,1.9409 25.7602,1.9409 C27.7582,1.9409 29.5662,3.2759 30.1582,5.1869 L30.3732,5.8869 L34.0872,5.8869 L34.0872,20.0289 L34.2132,19.9769 C38.7052,18.1339 41.9472,17.1999 43.8512,17.1999 C44.6352,17.1999 45.6692,17.3639 46.9242,17.6869 L47.0372,17.7169 L47.0372,4.4429 L54.3832,4.4429 L54.5982,3.7419 C55.1882,1.8309 56.9962,0.4959 58.9942,0.4959 C61.5302,0.4959 63.5942,2.5589 63.5942,5.0949 C63.5942,7.6309 61.5302,9.6939 58.9942,9.6939 C56.9962,9.6939 55.1882,8.3589 54.5982,6.4469 L54.3832,5.7459 L48.3412,5.7459 L48.3412,18.0899 L48.4042,18.1099 C54.8852,20.1239 63.9042,24.7899 64.9112,25.3149 L65.3232,25.5319 L65.1842,27.0489 L75.6542,27.0489 L75.8712,26.3479 C76.4622,24.4369 78.2682,23.1019 80.2662,23.1019 C82.8022,23.1019 84.8652,25.1649 84.8652,27.7009 C84.8652,30.2369 82.8022,32.2999 80.2662,32.2999 C78.2682,32.2999 76.4622,30.9649 75.8712,29.0529 L75.6552,28.3529 L65.0652,28.3529 L63.9902,40.0969 L81.8922,40.0969 L81.8922,48.0879 L82.5932,48.3039 C84.5052,48.8939 85.8402,50.7009 85.8402,52.6999 C85.8402,55.2359 83.7762,57.2989 81.2412,57.2989 C78.7052,57.2989 76.6412,55.2359 76.6412,52.6999 C76.6412,50.6999 77.9762,48.8929 79.8882,48.3039 L80.5892,48.0869 L80.5892,41.4009 L63.8712,41.4009 L63.1892,48.8439 C62.8792,52.6579 61.5512,56.3329 59.3482,59.4709 L59.2482,59.6129 L69.1732,59.6129 L69.1732,69.2609 L69.8742,69.4769 C71.7872,70.0659 73.1222,71.8739 73.1222,73.8729 C73.1222,76.4089 71.0572,78.4719 68.5212,78.4719 C65.9852,78.4719 63.9232,76.4089 63.9232,73.8729 C63.9232,71.8739 65.2582,70.0659 67.1702,69.4769 L67.8702,69.2599 L67.8702,60.9169 L58.2322,60.9169 L58.2052,60.9499 C57.0532,62.3199 55.7492,63.5339 54.3322,64.5589 L53.6042,65.0849 L53.6042,76.7889 L54.3042,77.0049 C56.2162,77.5939 57.5522,79.4019 57.5522,81.4009 C57.5522,83.9369 55.4882,85.9999 52.9532,85.9999 Z" id="Fill-5" fill="#242F4E" mask="url(#mask-2)"></path>
            </g>
            <polygon id="Fill-8" fill="#242F4E" points="38.7794 49.0913 33.7204 44.0323 32.8584 44.8953 38.7794 50.8183 55.4574 34.1413 54.5934 33.2783"></polygon>
            <path d="M33.1153,44.8955 L38.7793,50.5615 L55.2003,34.1415 L54.5943,33.5345 L38.7793,49.3475 L33.7203,44.2895 L33.1153,44.8955 Z M38.7793,51.0745 L32.6013,44.8955 L33.7203,43.7755 L38.7793,48.8335 L54.5943,33.0205 L55.7143,34.1415 L55.5853,34.2695 L38.7793,51.0745 Z" id="Fill-10" fill="#242F4E"></path>
        </g>
    </g>
</svg>