<?xml version="1.0" encoding="UTF-8"?>
<svg width="71px" height="73px" viewBox="0 0 71 73" version="1.1" xmlns="http://www.w3.org/2000/svg" xmlns:xlink="http://www.w3.org/1999/xlink">
    <!-- Generator: Sketch 51.3 (57544) - http://www.bohemiancoding.com/sketch -->
    <title>Group 17</title>
    <desc>Created with Sketch.</desc>
    <defs>
        <polygon id="path-1" points="0.0004 0.0155 70.286 0.0155 70.286 68 0.0004 68"></polygon>
        <polygon id="path-3" points="0.0316 0.049 24.7506 0.049 24.7506 10.6468 0.0316 10.6468"></polygon>
    </defs>
    <g id="Page-1" stroke="none" stroke-width="1" fill="none" fill-rule="evenodd">
        <g id="Group-17" transform="translate(0.000000, -1.000000)">
            <path d="M58.7922,36.8472 C58.7922,43.7642 53.1852,49.3712 46.2682,49.3712 C39.3512,49.3712 33.7432,43.7642 33.7432,36.8472 C33.7432,29.9302 39.3512,24.3232 46.2682,24.3232 C53.1852,24.3232 58.7922,29.9302 58.7922,36.8472" id="Fill-1" fill="#50E29D"></path>
            <path d="M33.6223,55.0933 L58.9723,55.0933 C58.8053,52.4003 57.4683,46.4503 48.9703,46.4503 L43.6233,46.4503 C35.1263,46.4503 33.7893,52.4003 33.6223,55.0933 M59.6613,56.4293 L32.9333,56.4293 C32.5633,56.4293 32.2643,56.1303 32.2643,55.7613 C32.2643,47.9113 38.1323,45.1143 43.6233,45.1143 L48.9703,45.1143 C54.4613,45.1143 60.3293,47.9113 60.3293,55.7613 C60.3293,56.1303 60.0293,56.4293 59.6613,56.4293" id="Fill-3" fill="#242F4E"></path>
            <path d="M46.2961,31.2422 C42.9811,31.2422 40.2831,33.9402 40.2831,37.2562 C40.2831,40.5722 42.9811,43.2702 46.2961,43.2702 C49.6121,43.2702 52.3111,40.5722 52.3111,37.2562 C52.3111,33.9402 49.6121,31.2422 46.2961,31.2422 M46.2961,44.6062 C42.2441,44.6062 38.9461,41.3092 38.9461,37.2562 C38.9461,33.2032 42.2441,29.9062 46.2961,29.9062 C50.3501,29.9062 53.6471,33.2032 53.6471,37.2562 C53.6471,41.3092 50.3501,44.6062 46.2961,44.6062" id="Fill-5" fill="#242F4E"></path>
            <path d="M17.1116,32.9551 L17.1976,32.3581 L20.8806,32.3581 L20.8806,52.1621 L16.5196,52.1621 C15.2426,52.1621 14.0056,51.7881 12.9426,51.0791 L7.6646,47.5591 L1.0766,47.5591 L1.0766,30.0571 L6.4966,30.0571 L13.0636,26.3041 C14.0376,25.7481 15.1436,25.4541 16.2646,25.4541 L29.3896,25.4541 C31.0426,25.4541 32.3866,26.7981 32.3866,28.4521 C32.3866,30.1041 31.0426,31.4491 29.3896,31.4491 L16.2776,31.4491 L16.2776,31.9041 C16.2776,35.2251 13.7546,37.9681 10.5236,38.3161 L10.5236,39.2291 C13.8556,38.9101 16.6286,36.3191 17.1116,32.9551 M67.3636,6.1331 L59.5216,6.1331 C59.4946,6.4481 59.4756,6.7491 59.5216,7.0421 L67.3636,7.0421 C68.3816,7.0421 69.2106,7.8711 69.2106,8.8891 L69.2106,71.0281 C69.2106,72.0461 68.3816,72.8751 67.3636,72.8751 L23.6356,72.8751 C22.6176,72.8751 21.7886,72.0461 21.7886,71.0281 L21.7886,32.3581 L29.3896,32.3581 C31.5436,32.3581 33.2966,30.6051 33.2966,28.4521 C33.2966,26.2971 31.5436,24.5451 29.3896,24.5451 L21.7886,24.5451 L21.7886,8.8891 C21.7886,7.8711 22.6176,7.0421 23.6356,7.0421 L31.6346,7.0421 L31.6346,6.1331 L23.6356,6.1331 C22.1166,6.1331 20.8806,7.3701 20.8806,8.8891 L20.8806,24.5451 L16.2646,24.5451 C14.9846,24.5451 13.7216,24.8801 12.6126,25.5151 L6.2536,29.1481 L0.1666,29.1481 L0.1666,48.4681 L7.3876,48.4681 L12.4376,51.8351 C13.6486,52.6441 15.0606,53.0711 16.5196,53.0711 L20.8806,53.0711 L20.8806,71.0281 C20.8806,72.5481 22.1166,73.7841 23.6356,73.7841 L67.3636,73.7841 C68.8826,73.7841 70.1196,72.5481 70.1196,71.0281 L70.1196,8.8891 C70.1196,7.3701 68.8826,6.1331 67.3636,6.1331" id="Fill-7" fill="#242F4E"></path>
            <g id="Group-11" transform="translate(0.000000, 5.951100)">
                <mask id="mask-2" fill="white">
                    <use xlink:href="#path-1"></use>
                </mask>
                <g id="Clip-10"></g>
                <path d="M1.2424,41.4415 L7.7144,41.4415 L13.0344,44.9885 C14.0694,45.6795 15.2744,46.0445 16.5194,46.0445 L20.7134,46.0445 L20.7134,26.5735 L17.3434,26.5735 L17.2764,27.0275 C16.7894,30.4185 13.9564,33.1165 10.5394,33.4445 L10.3564,33.4625 L10.3564,32.2145 L10.5054,32.1985 C13.7004,31.8555 16.1104,29.1695 16.1104,25.9525 L16.1104,25.3315 L29.3894,25.3315 C30.9504,25.3315 32.2204,24.0615 32.2204,22.5005 C32.2204,20.9395 30.9504,19.6695 29.3894,19.6695 L16.2634,19.6695 C15.1734,19.6695 14.0954,19.9565 13.1464,20.4985 L6.5404,24.2735 L1.2424,24.2735 L1.2424,41.4415 Z M21.0474,46.3785 L16.5194,46.3785 C15.2084,46.3785 13.9394,45.9935 12.8494,45.2665 L7.6134,41.7745 L0.9094,41.7745 L0.9094,23.9395 L6.4514,23.9395 L12.9814,20.2085 C13.9794,19.6375 15.1144,19.3355 16.2634,19.3355 L29.3894,19.3355 C31.1344,19.3355 32.5544,20.7555 32.5544,22.5005 C32.5544,24.2455 31.1344,25.6655 29.3894,25.6655 L16.4434,25.6655 L16.4434,25.9525 C16.4434,29.2905 13.9804,32.0845 10.6904,32.5135 L10.6904,33.0915 C13.8734,32.7015 16.4894,30.1595 16.9464,26.9805 L17.0534,26.2395 L21.0474,26.2395 L21.0474,46.3785 Z M0.3344,42.3505 L7.4374,42.3505 L12.5304,45.7445 C13.7144,46.5355 15.0944,46.9535 16.5194,46.9535 L21.0474,46.9535 L21.0474,65.0775 C21.0474,66.5045 22.2084,67.6665 23.6364,67.6665 L67.3634,67.6665 C68.7914,67.6665 69.9524,66.5045 69.9524,65.0775 L69.9524,2.9385 C69.9524,1.5105 68.7914,0.3495 67.3634,0.3495 L59.6754,0.3495 C59.6614,0.5395 59.6534,0.7345 59.6704,0.9245 L67.3634,0.9245 C68.4724,0.9245 69.3764,1.8275 69.3764,2.9385 L69.3764,65.0775 C69.3764,66.1875 68.4724,67.0905 67.3634,67.0905 L23.6364,67.0905 C22.5254,67.0905 21.6224,66.1875 21.6224,65.0775 L21.6224,26.2395 L29.3894,26.2395 C31.4514,26.2395 33.1294,24.5625 33.1294,22.5005 C33.1294,20.4385 31.4514,18.7605 29.3894,18.7605 L21.6224,18.7605 L21.6224,2.9385 C21.6224,1.8275 22.5254,0.9245 23.6364,0.9245 L31.4684,0.9245 L31.4684,0.3495 L23.6364,0.3495 C22.2084,0.3495 21.0474,1.5105 21.0474,2.9385 L21.0474,18.7605 L16.2634,18.7605 C15.0134,18.7605 13.7794,19.0885 12.6954,19.7095 L6.2984,23.3635 L0.3344,23.3635 L0.3344,42.3505 Z M67.3634,68.0005 L23.6364,68.0005 C22.0234,68.0005 20.7134,66.6895 20.7134,65.0775 L20.7134,47.2875 L16.5194,47.2875 C15.0264,47.2875 13.5834,46.8505 12.3454,46.0235 L7.3384,42.6845 L0.0004,42.6845 L0.0004,23.0305 L6.2094,23.0305 L12.5304,19.4195 C13.6634,18.7695 14.9554,18.4265 16.2634,18.4265 L20.7134,18.4265 L20.7134,2.9385 C20.7134,1.3265 22.0234,0.0155 23.6364,0.0155 L31.8024,0.0155 L31.8024,1.2585 L23.6364,1.2585 C22.7094,1.2585 21.9554,2.0115 21.9554,2.9385 L21.9554,18.4265 L29.3894,18.4265 C31.6364,18.4265 33.4634,20.2545 33.4634,22.5005 C33.4634,24.7465 31.6364,26.5735 29.3894,26.5735 L21.9554,26.5735 L21.9554,65.0775 C21.9554,66.0035 22.7094,66.7565 23.6364,66.7565 L67.3634,66.7565 C68.2894,66.7565 69.0434,66.0035 69.0434,65.0775 L69.0434,2.9385 C69.0434,2.0115 68.2894,1.2585 67.3634,1.2585 L59.3774,1.2585 L59.3554,1.1165 C59.3064,0.7975 59.3294,0.4725 59.3544,0.1685 L59.3674,0.0155 L67.3634,0.0155 C68.9754,0.0155 70.2864,1.3265 70.2864,2.9385 L70.2864,65.0775 C70.2864,66.6895 68.9754,68.0005 67.3634,68.0005 Z" id="Fill-9" fill="#242F4E" mask="url(#mask-2)"></path>
            </g>
            <path d="M35.2746,2.0489 C34.6156,2.0489 34.0806,2.5849 34.0806,3.2429 L34.0806,9.3549 C34.0806,10.0129 34.6156,10.5489 35.2746,10.5489 L55.5066,10.5489 C56.1656,10.5489 56.7016,10.0129 56.7016,9.3549 L56.7016,3.2429 C56.7016,2.5849 56.1656,2.0489 55.5066,2.0489 L35.2746,2.0489 Z M55.5066,11.4309 L35.2746,11.4309 C34.1296,11.4309 33.1986,10.4989 33.1986,9.3549 L33.1986,3.2429 C33.1986,2.0979 34.1296,1.1669 35.2746,1.1669 L55.5066,1.1669 C56.6516,1.1669 57.5836,2.0979 57.5836,3.2429 L57.5836,9.3549 C57.5836,10.4989 56.6516,11.4309 55.5066,11.4309 Z" id="Fill-12" fill="#242F4E"></path>
            <g id="Group-16" transform="translate(33.000000, 0.951100)">
                <mask id="mask-4" fill="white">
                    <use xlink:href="#path-3"></use>
                </mask>
                <g id="Clip-15"></g>
                <path d="M2.2746,1.2648 C1.7086,1.2648 1.2466,1.7258 1.2466,2.2918 L1.2466,8.4038 C1.2466,8.9698 1.7086,9.4308 2.2746,9.4308 L22.5056,9.4308 C23.0736,9.4308 23.5346,8.9698 23.5346,8.4038 L23.5346,2.2918 C23.5346,1.7258 23.0736,1.2648 22.5056,1.2648 L2.2746,1.2648 Z M22.5056,9.7648 L2.2746,9.7648 C1.5236,9.7648 0.9136,9.1538 0.9136,8.4038 L0.9136,2.2918 C0.9136,1.5418 1.5236,0.9308 2.2746,0.9308 L22.5056,0.9308 C23.2566,0.9308 23.8686,1.5418 23.8686,2.2918 L23.8686,8.4038 C23.8686,9.1538 23.2566,9.7648 22.5056,9.7648 Z M2.2746,0.3828 C1.2216,0.3828 0.3656,1.2398 0.3656,2.2918 L0.3656,8.4038 C0.3656,9.4558 1.2216,10.3128 2.2746,10.3128 L22.5056,10.3128 C23.5596,10.3128 24.4166,9.4558 24.4166,8.4038 L24.4166,2.2918 C24.4166,1.2398 23.5596,0.3828 22.5056,0.3828 L2.2746,0.3828 Z M22.5056,10.6468 L2.2746,10.6468 C1.0376,10.6468 0.0316,9.6398 0.0316,8.4038 L0.0316,2.2918 C0.0316,1.0558 1.0376,0.0488 2.2746,0.0488 L22.5056,0.0488 C23.7436,0.0488 24.7506,1.0558 24.7506,2.2918 L24.7506,8.4038 C24.7506,9.6398 23.7436,10.6468 22.5056,10.6468 Z" id="Fill-14" fill="#242F4E" mask="url(#mask-4)"></path>
            </g>
        </g>
    </g>
</svg>