<?xml version="1.0" encoding="utf-8"?>
<!-- Generator: Adobe Illustrator 23.0.4, SVG Export Plug-In . SVG Version: 6.00 Build 0)  -->
<svg version="1.1" id="Layer_1" xmlns="http://www.w3.org/2000/svg" xmlns:xlink="http://www.w3.org/1999/xlink" x="0px" y="0px"
	 viewBox="0 0 1010 560" style="enable-background:new 0 0 1010 560;" xml:space="preserve">
<style type="text/css">
	.st0{fill-rule:evenodd;clip-rule:evenodd;fill:#19E69B;}
	.st1{fill:none;}
	.st2{fill-rule:evenodd;clip-rule:evenodd;fill:#00D090;}
	.st3{fill-rule:evenodd;clip-rule:evenodd;fill:#748494;}
	.st4{fill-rule:evenodd;clip-rule:evenodd;fill:#242F4E;}
	.st5{fill-rule:evenodd;clip-rule:evenodd;fill:#C6CCD9;}
	.st6{fill-rule:evenodd;clip-rule:evenodd;fill:#A2ACB8;}
	.st7{fill:#19E69B;}
	.st8{fill:none;stroke:#E8EEFB;stroke-width:3.38;stroke-linecap:round;}
	.st9{fill-rule:evenodd;clip-rule:evenodd;fill:#DBE4F8;}
	.st10{fill-rule:evenodd;clip-rule:evenodd;fill:#33D894;}
	.st11{fill-rule:evenodd;clip-rule:evenodd;fill:#000947;}
	.st12{fill-rule:evenodd;clip-rule:evenodd;fill:#363D5A;}
</style>
<title>Group 268</title>
<desc>Created with Sketch.</desc>
<g id="Page-1">
	<g id="Development-Development" transform="translate(-230.000000, -1341.000000)">
		<g id="Group-268" transform="translate(230.000000, 1340.000000)">
			<g id="Group-5" transform="translate(149.000000, 400.869000)">
				<path id="Fill-1" class="st0" d="M6,135.9c0,1.5-1.2,2.7-2.7,2.7s-2.7-1.2-2.7-2.7s1.2-2.7,2.7-2.7S6,134.4,6,135.9"/>
				<path id="Fill-3" class="st0" d="M107.8,0.4v73.9h381.4c-12.1-25.5-24.9-51-41.4-73.9C447.8,0.4,107.8,0.4,107.8,0.4z"/>
			</g>
			<g id="Group-8" transform="translate(377.000000, 92.869000)">
				<g id="Clip-7">
				</g>
				<path id="Fill-6" class="st1" d="M12.2,124.8C4.6,145.4,0.4,167.7,0.4,191c0,44.3,15.1,85,40.4,117.4
					c34.9,44.7,89.3,73.4,150.4,73.4C296.5,381.8,382,296.4,382,191S296.5,0.2,191.2,0.2C109.1,0.2,39.1,52.1,12.2,124.8 M73.8,191
					c0-24.6,7.6-47.4,20.5-66.2c21.1-30.9,56.7-51.2,96.9-51.2c64.8,0,117.4,52.6,117.4,117.4c0,63.5-50.5,115.3-113.6,117.3v0.1
					h-3.8C126.4,308.4,73.8,255.8,73.8,191"/>
			</g>
			<g id="Group-267" transform="translate(0.000000, 0.869000)">
				<path id="Fill-9" class="st0" d="M389.2,216.8h82.1c21.1-30.9,56.7-51.2,96.9-51.2c64.8,0,117.4,52.6,117.4,117.4
					c0,63.6-50.5,115.3-113.6,117.3v0.1h-3.8H417.8c34.9,44.7,89.3,73.4,150.4,73.4C673.5,473.8,759,388.4,759,283
					S673.5,92.2,568.2,92.2C486.1,92.2,416.1,144.1,389.2,216.8"/>
				<path id="Fill-11" class="st0" d="M568.2,92.2c-7.3,0-14.5,0.4-21.6,1.2v0.1l22.3,72.1c64.5,0.4,116.7,52.8,116.7,117.4
					c0,63.6-50.5,115.3-113.6,117.3v0.1h-3.8H417.8c34.9,44.7,89.3,73.4,150.4,73.4C673.6,473.8,759,388.4,759,283
					S673.6,92.2,568.2,92.2"/>
				<path id="Fill-13" class="st2" d="M450.8,283c0-24.6,7.6-47.4,20.5-66.2c14.2-20.7,40.8-44.4,80.8-50.1l-35-29.2L539,93.8
					c-80.7,15.1-129,66.8-149.7,123c-7.6,20.6-11.8,42.9-11.8,66.2c0,44.3,15.1,85,40.4,117.4h150.4
					C503.4,400.4,450.8,347.8,450.8,283"/>
				<path id="Fill-15" class="st0" d="M504.2,136.6l50.4,44.4c1.2,1.1,3.1,0.2,3-1.4l-3.6-100c-0.1-1.6-2.1-2.4-3.2-1.2l-47.1,50.9
					C501.9,131.4,502.1,134.7,504.2,136.6"/>
				<path id="Fill-17" class="st2" d="M840.8,437.9l-48-47.6c-1.2-1.1-3.2-0.3-3.2,1.4v17.5h-78.4c-35,39.6-86.1,64.7-143.1,64.7
					c-2.2,0-4.3-0.1-6.4-0.2v0.6h227.9v17.4c0,1.7,2.1,2.5,3.2,1.3l48.1-47.6C843,443.3,842.9,439.9,840.8,437.9"/>
				<path id="Fill-19" class="st3" d="M528.4,277.3h3.6v2.4h-8.2v-0.6c1.7-1.9,2.9-3.4,3.6-4.3c0.7-0.9,1.2-1.6,1.5-2.1
					s0.4-0.9,0.4-1.4c0-0.4-0.1-0.7-0.4-1c-0.2-0.2-0.6-0.4-1-0.4s-0.7,0.1-1,0.4c-0.2,0.3-0.4,0.6-0.4,1v0.2H524v-0.3
					c0-1.1,0.3-2,1.1-2.7c0.7-0.7,1.6-1,2.8-1s2.1,0.3,2.8,1s1.1,1.6,1.1,2.6c0,0.8-0.2,1.5-0.7,2.4
					C530.6,274.6,529.7,275.8,528.4,277.3"/>
				<g id="Clip-22">
				</g>
				<polygon id="Fill-21" class="st3" points="537.4,276 543.2,276 543.2,273.5 537.4,273.5 				"/>
				<path id="Fill-23" class="st3" d="M550,272.3c0.9,0.2,1.6,0.6,2.1,1.3c0.5,0.7,0.8,1.4,0.8,2.4c0,1.1-0.4,2.1-1.2,2.8
					c-0.8,0.8-1.8,1.1-3,1.1s-2.1-0.4-2.9-1.1c-0.7-0.7-1.1-1.7-1.2-2.8h2.5c0,0.5,0.2,0.9,0.5,1.1c0.3,0.3,0.6,0.4,1.1,0.4
					s0.9-0.2,1.2-0.5s0.5-0.7,0.5-1.2s-0.2-0.9-0.5-1.2c-0.3-0.3-0.8-0.4-1.3-0.4h-1.7v-0.5l2.1-3.5h-4V268h7.5v0.5L550,272.3z"/>
				<polygon id="Fill-24" class="st3" points="572.1,267.3 574.8,267.3 571,279.7 568.7,279.7 565.9,272.8 563.2,279.7 560.9,279.7 
					557,267.3 559.8,267.3 562.2,275.5 565.5,267.5 566.4,267.5 569.7,275.5 				"/>
				<polygon id="Fill-25" class="st3" points="578.8,277.2 583.7,277.2 583.7,279.7 576.1,279.7 576.1,267.3 583.6,267.3 
					583.6,269.8 578.8,269.8 578.8,272.2 583.1,272.2 583.1,274.7 578.8,274.7 				"/>
				<polygon id="Fill-26" class="st3" points="588.3,277.2 593.2,277.2 593.2,279.7 585.6,279.7 585.6,267.3 593,267.3 593,269.8 
					588.3,269.8 588.3,272.2 592.6,272.2 592.6,274.7 588.3,274.7 				"/>
				<polygon id="Fill-27" class="st3" points="605.4,279.7 602.1,279.7 597.8,273.6 597.8,279.7 595.1,279.7 595.1,267.3 
					597.8,267.3 597.8,273 601.8,267.3 604.9,267.3 600.7,273.2 				"/>
				<path id="Fill-28" class="st3" d="M610,279.9c-1.4,0-2.6-0.4-3.5-1.1c-0.9-0.8-1.3-1.8-1.3-3.1h2.7c0,0.6,0.2,1,0.6,1.3
					c0.4,0.3,0.9,0.5,1.5,0.5c0.5,0,1-0.1,1.4-0.4s0.6-0.6,0.6-1.1c0-0.2,0-0.3-0.1-0.4s-0.1-0.2-0.3-0.3c-0.1-0.1-0.3-0.2-0.4-0.2
					c-0.1-0.1-0.3-0.1-0.5-0.2s-0.4-0.1-0.6-0.2c-0.1,0-0.4-0.1-0.7-0.2c-1-0.3-1.8-0.5-2.2-0.7c-1.1-0.5-1.7-1.3-1.8-2.4
					c0-0.2,0-0.4,0-0.5c0-1.2,0.4-2.1,1.2-2.7s1.9-1,3.3-1c1.4,0,2.5,0.4,3.3,1.1s1.2,1.7,1.2,2.9h-2.6c0-0.5-0.2-0.9-0.5-1.2
					c-0.4-0.3-0.8-0.4-1.3-0.4s-0.9,0.1-1.2,0.3c-0.3,0.2-0.5,0.5-0.5,0.9c0,0.2,0,0.3,0.1,0.5c0.1,0.1,0.2,0.2,0.3,0.3
					c0.1,0.1,0.3,0.2,0.5,0.3c0.2,0.1,0.4,0.2,0.6,0.2c0.2,0,0.4,0.1,0.8,0.2c0.3,0.1,0.5,0.1,0.6,0.2c0.2,0,0.4,0.1,0.6,0.2
					c0.3,0.1,0.5,0.2,0.7,0.2c0.2,0.1,0.4,0.2,0.6,0.3c0.2,0.1,0.4,0.2,0.6,0.4c0.1,0.1,0.3,0.3,0.5,0.5s0.3,0.4,0.4,0.6
					c0.1,0.2,0.2,0.4,0.2,0.7c0.1,0.3,0.1,0.5,0.1,0.8c0,0.6-0.1,1.2-0.4,1.7c-0.2,0.5-0.6,0.9-1,1.2c-0.4,0.3-0.9,0.6-1.5,0.7
					C611.3,279.8,610.7,279.9,610,279.9"/>
				<path id="Fill-29" class="st3" d="M269.5,552.8h5.5c0,1.1-0.2,2-0.7,2.9c-0.4,0.9-1.1,1.5-1.9,2s-1.7,0.7-2.7,0.7
					c-0.8,0-1.5-0.1-2.1-0.4c-0.7-0.3-1.2-0.6-1.7-1.1s-0.9-1-1.1-1.7c-0.3-0.7-0.4-1.4-0.4-2.2s0.1-1.5,0.4-2.2s0.6-1.2,1.1-1.7
					s1-0.9,1.7-1.1c0.7-0.3,1.4-0.4,2.1-0.4c0.9,0,1.6,0.2,2.4,0.5c0.7,0.3,1.4,0.8,1.8,1.4c0.5,0.6,0.8,1.3,1,2.1h-2.3
					c-0.2-0.6-0.6-1-1.1-1.3s-1.1-0.5-1.7-0.5c-0.9,0-1.7,0.3-2.2,0.9c-0.6,0.6-0.9,1.4-0.9,2.4s0.3,1.8,0.9,2.4
					c0.6,0.6,1.3,0.9,2.3,0.9c0.7,0,1.3-0.2,1.8-0.5s0.9-0.8,1.1-1.3h-3.1v-1.8H269.5z"/>
				<path id="Fill-30" class="st3" d="M278.7,549.9v2.7h1.8c0.5,0,0.8-0.1,1.1-0.4c0.3-0.2,0.4-0.6,0.4-1s-0.1-0.7-0.4-1
					s-0.6-0.4-1.1-0.4h-1.8V549.9z M282.2,558.2l-2-3.5h-1.4v3.5h-2.2v-10.4h4.2c1,0,1.9,0.3,2.6,1c0.7,0.6,1,1.5,1,2.5
					c0,0.7-0.2,1.3-0.5,1.8s-0.8,0.9-1.4,1.2l2.3,3.9H282.2z"/>
				<path id="Fill-31" class="st3" d="M288.5,555.3c0.6,0.6,1.4,1,2.3,1s1.7-0.3,2.3-0.9c0.6-0.6,0.9-1.4,0.9-2.4
					c0-0.9-0.3-1.7-0.9-2.4c-0.6-0.6-1.4-0.9-2.3-0.9s-1.7,0.3-2.3,0.9c-0.6,0.6-0.9,1.4-0.9,2.3
					C287.6,553.9,287.9,554.7,288.5,555.3 M290.8,558.4c-0.8,0-1.5-0.1-2.2-0.4c-0.7-0.3-1.3-0.7-1.8-1.1c-0.5-0.5-0.9-1.1-1.2-1.7
					c-0.3-0.7-0.4-1.4-0.4-2.1c0-0.8,0.1-1.5,0.4-2.1c0.3-0.7,0.7-1.2,1.2-1.7s1.1-0.9,1.8-1.1c0.7-0.3,1.4-0.4,2.2-0.4
					c0.8,0,1.5,0.1,2.2,0.4c0.7,0.3,1.3,0.7,1.8,1.1c0.5,0.5,0.9,1.1,1.1,1.7c0.3,0.7,0.4,1.4,0.4,2.1c0,0.8-0.1,1.5-0.4,2.1
					c-0.3,0.7-0.7,1.2-1.1,1.7c-0.5,0.5-1.1,0.9-1.8,1.1C292.3,558.3,291.6,558.4,290.8,558.4"/>
				<path id="Fill-32" class="st3" d="M300.4,555.3c0.6,0.6,1.4,1,2.3,1s1.7-0.3,2.3-0.9c0.6-0.6,0.9-1.4,0.9-2.4
					c0-0.9-0.3-1.7-0.9-2.4c-0.6-0.6-1.4-0.9-2.3-0.9s-1.7,0.3-2.3,0.9c-0.6,0.6-0.9,1.4-0.9,2.3
					C299.5,553.9,299.8,554.7,300.4,555.3 M302.7,558.4c-0.8,0-1.5-0.1-2.2-0.4c-0.7-0.3-1.3-0.7-1.8-1.1c-0.5-0.5-0.9-1.1-1.2-1.7
					c-0.3-0.7-0.4-1.4-0.4-2.1c0-0.8,0.1-1.5,0.4-2.1c0.3-0.7,0.7-1.2,1.2-1.7s1.1-0.9,1.8-1.1c0.7-0.3,1.4-0.4,2.2-0.4
					c0.8,0,1.5,0.1,2.2,0.4c0.7,0.3,1.3,0.7,1.8,1.1c0.5,0.5,0.9,1.1,1.1,1.7c0.3,0.7,0.4,1.4,0.4,2.1c0,0.8-0.1,1.5-0.4,2.1
					c-0.3,0.7-0.7,1.2-1.1,1.7c-0.5,0.5-1.1,0.9-1.8,1.1C304.2,558.3,303.5,558.4,302.7,558.4"/>
				<polygon id="Fill-33" class="st3" points="322.3,558.2 320,558.2 319,551.4 315.9,558.2 315.4,558.2 312.3,551.4 311.2,558.2 
					309,558.2 310.6,547.8 312.8,547.8 315.6,554.2 318.5,547.8 320.7,547.8 				"/>
				<polygon id="Fill-34" class="st3" points="323.8,558.2 326,558.2 326,547.8 323.8,547.8 				"/>
				<polygon id="Fill-35" class="st3" points="334.7,547.8 336.9,547.8 336.9,558.2 335,558.2 330.3,551.7 330.3,558.2 328.1,558.2 
					328.1,547.8 330.1,547.8 334.7,554.1 				"/>
				<path id="Fill-36" class="st3" d="M343.5,552.8h5.5c0,1.1-0.2,2-0.7,2.9c-0.4,0.9-1.1,1.5-1.9,2s-1.7,0.7-2.7,0.7
					c-0.8,0-1.5-0.1-2.1-0.4c-0.7-0.3-1.2-0.6-1.7-1.1s-0.9-1-1.1-1.7c-0.3-0.7-0.4-1.4-0.4-2.2s0.1-1.5,0.4-2.2s0.6-1.2,1.1-1.7
					s1-0.9,1.7-1.1c0.7-0.3,1.4-0.4,2.1-0.4c0.9,0,1.6,0.2,2.4,0.5c0.7,0.3,1.4,0.8,1.8,1.4c0.5,0.6,0.8,1.3,1,2.1h-2.3
					c-0.2-0.6-0.6-1-1.1-1.3s-1.1-0.5-1.7-0.5c-0.9,0-1.7,0.3-2.2,0.9c-0.6,0.6-0.9,1.4-0.9,2.4s0.3,1.8,0.9,2.4
					c0.6,0.6,1.3,0.9,2.3,0.9c0.7,0,1.3-0.2,1.8-0.5s0.9-0.8,1.1-1.3h-3.1v-1.8H343.5z"/>
				<polygon id="Fill-37" class="st3" points="366.4,558.2 364.1,558.2 363.1,551.4 360,558.2 359.5,558.2 356.4,551.4 355.3,558.2 
					353.1,558.2 354.7,547.8 356.9,547.8 359.7,554.2 362.5,547.8 364.8,547.8 				"/>
				<polygon id="Fill-38" class="st3" points="370.1,556.1 374.2,556.1 374.2,558.2 367.8,558.2 367.8,547.8 374.1,547.8 
					374.1,549.9 370.1,549.9 370.1,551.9 373.7,551.9 373.7,554 370.1,554 				"/>
				<polygon id="Fill-39" class="st3" points="378.1,556.1 382.2,556.1 382.2,558.2 375.8,558.2 375.8,547.8 382.1,547.8 
					382.1,549.9 378.1,549.9 378.1,551.9 381.7,551.9 381.7,554 378.1,554 				"/>
				<polygon id="Fill-40" class="st3" points="391,547.8 391,549.9 388.1,549.9 388.1,558.2 385.8,558.2 385.8,549.9 383,549.9 
					383,547.8 				"/>
				<polygon id="Fill-41" class="st3" points="392.2,558.2 394.4,558.2 394.4,547.8 392.2,547.8 				"/>
				<polygon id="Fill-42" class="st3" points="403.1,547.8 405.3,547.8 405.3,558.2 403.4,558.2 398.7,551.7 398.7,558.2 
					396.5,558.2 396.5,547.8 398.5,547.8 403.1,554.1 				"/>
				<path id="Fill-43" class="st3" d="M411.9,552.8h5.5c0,1.1-0.2,2-0.7,2.9c-0.4,0.9-1.1,1.5-1.9,2s-1.7,0.7-2.7,0.7
					c-0.8,0-1.5-0.1-2.1-0.4c-0.7-0.3-1.2-0.6-1.7-1.1s-0.9-1-1.1-1.7c-0.3-0.7-0.4-1.4-0.4-2.2s0.1-1.5,0.4-2.2s0.6-1.2,1.1-1.7
					s1-0.9,1.7-1.1c0.7-0.3,1.4-0.4,2.1-0.4c0.9,0,1.6,0.2,2.4,0.5c0.7,0.3,1.4,0.8,1.8,1.4c0.5,0.6,0.8,1.3,1,2.1H415
					c-0.2-0.6-0.6-1-1.1-1.3s-1.1-0.5-1.7-0.5c-0.9,0-1.7,0.3-2.2,0.9c-0.6,0.6-0.9,1.4-0.9,2.4s0.3,1.8,0.9,2.4
					c0.6,0.6,1.3,0.9,2.3,0.9c0.7,0,1.3-0.2,1.8-0.5s0.9-0.8,1.1-1.3h-3.1v-1.8H411.9z"/>
				<polygon id="Fill-44" class="st3" points="488.5,556.1 492.6,556.1 492.6,558.2 486.2,558.2 486.2,547.8 492.5,547.8 
					492.5,549.9 488.5,549.9 488.5,551.9 492.1,551.9 492.1,554 488.5,554 				"/>
				<path id="Fill-45" class="st3" d="M497.7,558.4c-1.2,0-2.2-0.3-2.9-1c-0.7-0.6-1.1-1.5-1.1-2.6h2.3c0,0.5,0.2,0.8,0.5,1.1
					s0.8,0.4,1.2,0.4c0.4,0,0.8-0.1,1.2-0.3s0.5-0.5,0.5-0.9c0-0.1,0-0.2-0.1-0.4c0-0.1-0.1-0.2-0.2-0.3s-0.2-0.2-0.3-0.2
					c-0.1-0.1-0.2-0.1-0.4-0.2c-0.2-0.1-0.4-0.1-0.5-0.1s-0.3-0.1-0.6-0.1c-0.9-0.2-1.5-0.4-1.9-0.6c-0.9-0.4-1.4-1.1-1.6-2
					c0-0.1,0-0.3,0-0.4c0-1,0.3-1.7,1-2.3c0.7-0.5,1.6-0.8,2.8-0.8c1.2,0,2.1,0.3,2.8,0.9c0.7,0.6,1,1.4,1,2.5h-2.2
					c0-0.4-0.2-0.8-0.5-1s-0.7-0.3-1.1-0.3s-0.7,0.1-1,0.3s-0.4,0.4-0.4,0.7c0,0.1,0,0.3,0.1,0.4c0.1,0.1,0.2,0.2,0.3,0.3
					c0.1,0.1,0.3,0.1,0.5,0.2c0.2,0.1,0.4,0.1,0.5,0.2c0.1,0,0.4,0.1,0.6,0.2c0.2,0.1,0.4,0.1,0.5,0.1s0.3,0.1,0.5,0.2
					c0.2,0.1,0.4,0.1,0.5,0.2c0.1,0.1,0.3,0.1,0.5,0.2c0.2,0.1,0.4,0.2,0.5,0.3s0.2,0.2,0.4,0.4c0.1,0.2,0.2,0.3,0.3,0.5
					c0.1,0.2,0.1,0.4,0.2,0.6c0.1,0.2,0.1,0.5,0.1,0.7c0,0.5-0.1,1-0.3,1.5s-0.5,0.8-0.9,1c-0.4,0.3-0.8,0.5-1.2,0.6
					C498.7,558.3,498.2,558.4,497.7,558.4"/>
				<polygon id="Fill-46" class="st3" points="510.1,547.8 510.1,549.9 507.2,549.9 507.2,558.2 504.9,558.2 504.9,549.9 502,549.9 
					502,547.8 				"/>
				<polygon id="Fill-47" class="st3" points="511.3,558.2 513.5,558.2 513.5,547.8 511.3,547.8 				"/>
				<polygon id="Fill-48" class="st3" points="528.3,558.2 526,558.2 525,551.4 521.9,558.2 521.4,558.2 518.3,551.4 517.2,558.2 
					515,558.2 516.6,547.8 518.8,547.8 521.6,554.2 524.4,547.8 526.7,547.8 				"/>
				<path id="Fill-49" class="st3" d="M533.8,550.5l-1.4,3.7h2.7L533.8,550.5z M536.6,558.2l-0.7-2h-4.1l-0.7,2h-2.4l4.1-10.4h2.1
					l4.2,10.4H536.6z"/>
				<polygon id="Fill-50" class="st3" points="546.3,547.8 546.3,549.9 543.4,549.9 543.4,558.2 541.1,558.2 541.1,549.9 
					538.2,549.9 538.2,547.8 				"/>
				<polygon id="Fill-51" class="st3" points="547.5,558.2 549.7,558.2 549.7,547.8 547.5,547.8 				"/>
				<path id="Fill-52" class="st3" d="M554.4,555.3c0.6,0.6,1.4,1,2.3,1s1.7-0.3,2.3-0.9s0.9-1.4,0.9-2.4c0-0.9-0.3-1.7-0.9-2.4
					c-0.6-0.6-1.4-0.9-2.3-0.9s-1.7,0.3-2.3,0.9c-0.6,0.6-0.9,1.4-0.9,2.3C553.5,553.9,553.8,554.7,554.4,555.3 M556.7,558.4
					c-0.8,0-1.5-0.1-2.2-0.4c-0.7-0.3-1.3-0.7-1.8-1.1c-0.5-0.5-0.9-1.1-1.2-1.7c-0.3-0.7-0.4-1.4-0.4-2.1c0-0.8,0.1-1.5,0.4-2.1
					c0.3-0.7,0.7-1.2,1.2-1.7s1.1-0.9,1.8-1.1c0.7-0.3,1.4-0.4,2.2-0.4s1.5,0.1,2.2,0.4c0.7,0.3,1.3,0.7,1.8,1.1
					c0.5,0.5,0.9,1.1,1.1,1.7c0.3,0.7,0.4,1.4,0.4,2.1c0,0.8-0.1,1.5-0.4,2.1c-0.3,0.7-0.7,1.2-1.1,1.7c-0.5,0.5-1.1,0.9-1.8,1.1
					C558.2,558.3,557.5,558.4,556.7,558.4"/>
				<polygon id="Fill-53" class="st3" points="570.3,547.8 572.5,547.8 572.5,558.2 570.6,558.2 565.9,551.7 565.9,558.2 
					563.7,558.2 563.7,547.8 565.7,547.8 570.3,554.1 				"/>
				<polygon id="Fill-54" class="st3" points="590.5,558.2 588.2,558.2 587.2,551.4 584.1,558.2 583.6,558.2 580.5,551.4 
					579.4,558.2 577.1,558.2 578.8,547.8 581,547.8 583.8,554.2 586.6,547.8 588.9,547.8 				"/>
				<polygon id="Fill-55" class="st3" points="594.2,556.1 598.3,556.1 598.3,558.2 591.9,558.2 591.9,547.8 598.2,547.8 
					598.2,549.9 594.2,549.9 594.2,551.9 597.8,551.9 597.8,554 594.2,554 				"/>
				<polygon id="Fill-56" class="st3" points="602.2,556.1 606.3,556.1 606.3,558.2 599.9,558.2 599.9,547.8 606.2,547.8 
					606.2,549.9 602.2,549.9 602.2,551.9 605.8,551.9 605.8,554 602.2,554 				"/>
				<polygon id="Fill-57" class="st3" points="615.1,547.8 615.1,549.9 612.2,549.9 612.2,558.2 609.9,558.2 609.9,549.9 
					607.1,549.9 607.1,547.8 				"/>
				<polygon id="Fill-58" class="st3" points="616.3,558.2 618.5,558.2 618.5,547.8 616.3,547.8 				"/>
				<polygon id="Fill-59" class="st3" points="627.2,547.8 629.4,547.8 629.4,558.2 627.5,558.2 622.8,551.7 622.8,558.2 
					620.6,558.2 620.6,547.8 622.6,547.8 627.2,554.1 				"/>
				<path id="Fill-60" class="st3" d="M636,552.8h5.5c0,1.1-0.2,2-0.7,2.9c-0.4,0.9-1.1,1.5-1.9,2c-0.8,0.5-1.7,0.7-2.7,0.7
					c-0.8,0-1.5-0.1-2.1-0.4c-0.7-0.3-1.2-0.6-1.7-1.1s-0.9-1-1.1-1.7c-0.3-0.7-0.4-1.4-0.4-2.2s0.1-1.5,0.4-2.2
					c0.3-0.7,0.6-1.2,1.1-1.7s1-0.9,1.7-1.1c0.7-0.3,1.4-0.4,2.1-0.4c0.8,0,1.6,0.2,2.4,0.5c0.7,0.3,1.4,0.8,1.8,1.4
					c0.5,0.6,0.8,1.3,1,2.1h-2.3c-0.2-0.6-0.6-1-1.1-1.3s-1.1-0.5-1.7-0.5c-0.9,0-1.7,0.3-2.2,0.9c-0.6,0.6-0.9,1.4-0.9,2.4
					s0.3,1.8,0.9,2.4c0.6,0.6,1.3,0.9,2.3,0.9c0.7,0,1.3-0.2,1.8-0.5s0.9-0.8,1.1-1.3H636V552.8z"/>
				<path id="Fill-61" class="st3" d="M646.4,558.4c-1.2,0-2.2-0.3-2.9-1c-0.7-0.6-1.1-1.5-1.1-2.6h2.3c0,0.5,0.2,0.8,0.5,1.1
					s0.8,0.4,1.2,0.4c0.5,0,0.8-0.1,1.2-0.3s0.5-0.5,0.5-0.9c0-0.1,0-0.2-0.1-0.4c0-0.1-0.1-0.2-0.2-0.3c-0.1-0.1-0.2-0.2-0.3-0.2
					c-0.1-0.1-0.2-0.1-0.4-0.2c-0.2-0.1-0.4-0.1-0.5-0.1s-0.3-0.1-0.6-0.1c-0.9-0.2-1.5-0.4-1.9-0.6c-0.9-0.4-1.4-1.1-1.5-2
					c0-0.1,0-0.3,0-0.4c0-1,0.3-1.7,1-2.3c0.7-0.5,1.6-0.8,2.8-0.8s2.1,0.3,2.8,0.9s1,1.4,1,2.5H648c0-0.4-0.2-0.8-0.5-1
					s-0.7-0.3-1.1-0.3c-0.4,0-0.7,0.1-1,0.3s-0.4,0.4-0.4,0.7c0,0.1,0,0.3,0.1,0.4c0.1,0.1,0.2,0.2,0.3,0.3s0.3,0.1,0.5,0.2
					c0.2,0.1,0.4,0.1,0.5,0.2c0.1,0,0.4,0.1,0.6,0.2c0.2,0.1,0.4,0.1,0.5,0.1s0.3,0.1,0.5,0.2c0.2,0.1,0.4,0.1,0.5,0.2
					c0.1,0.1,0.3,0.1,0.5,0.2s0.4,0.2,0.5,0.3s0.2,0.2,0.4,0.4c0.1,0.2,0.2,0.3,0.3,0.5s0.1,0.4,0.2,0.6c0.1,0.2,0.1,0.5,0.1,0.7
					c0,0.5-0.1,1-0.3,1.5c-0.2,0.4-0.5,0.8-0.8,1c-0.4,0.3-0.8,0.5-1.2,0.6C647.5,558.3,647,558.4,646.4,558.4"/>
				<path id="Fill-62" class="st3" d="M719.1,558.4c-1.2,0-2.2-0.3-2.9-1c-0.7-0.6-1.1-1.5-1.1-2.6h2.3c0,0.5,0.2,0.8,0.5,1.1
					s0.8,0.4,1.2,0.4s0.8-0.1,1.2-0.3s0.5-0.5,0.5-0.9c0-0.1,0-0.2-0.1-0.4c0-0.1-0.1-0.2-0.2-0.3c-0.1-0.1-0.2-0.2-0.3-0.2
					c-0.1-0.1-0.2-0.1-0.4-0.2c-0.2-0.1-0.4-0.1-0.5-0.1s-0.3-0.1-0.6-0.1c-0.9-0.2-1.5-0.4-1.9-0.6c-0.9-0.4-1.4-1.1-1.5-2
					c0-0.1,0-0.3,0-0.4c0-1,0.3-1.7,1-2.3c0.7-0.5,1.6-0.8,2.8-0.8s2.1,0.3,2.8,0.9c0.7,0.6,1,1.4,1,2.5h-2.2c0-0.4-0.2-0.8-0.5-1
					s-0.7-0.3-1.1-0.3c-0.4,0-0.7,0.1-1,0.3s-0.4,0.4-0.4,0.7c0,0.1,0,0.3,0.1,0.4c0.1,0.1,0.2,0.2,0.3,0.3s0.3,0.1,0.5,0.2
					c0.2,0.1,0.4,0.1,0.5,0.2c0.1,0,0.4,0.1,0.6,0.2c0.2,0.1,0.4,0.1,0.5,0.1s0.3,0.1,0.5,0.2c0.2,0.1,0.4,0.1,0.6,0.2
					c0.1,0.1,0.3,0.1,0.5,0.2c0.2,0.1,0.4,0.2,0.5,0.3s0.2,0.2,0.4,0.4c0.1,0.2,0.2,0.3,0.3,0.5s0.1,0.4,0.2,0.6
					c0.1,0.2,0.1,0.5,0.1,0.7c0,0.5-0.1,1-0.3,1.5c-0.2,0.4-0.5,0.8-0.9,1c-0.4,0.3-0.8,0.5-1.2,0.6
					C720.2,558.3,719.7,558.4,719.1,558.4"/>
				<path id="Fill-63" class="st3" d="M728.4,552.9c0.4,0,0.8-0.1,1.1-0.4c0.3-0.3,0.4-0.6,0.4-1.1c0-0.4-0.1-0.8-0.4-1.1
					c-0.3-0.3-0.6-0.4-1.1-0.4h-1.7v3H728.4z M728.5,547.8c0.7,0,1.3,0.2,1.9,0.5c0.6,0.3,1,0.7,1.3,1.3c0.3,0.5,0.5,1.2,0.5,1.8
					c0,1-0.3,1.9-1,2.6c-0.7,0.7-1.6,1-2.6,1h-1.8v3.2h-2.2v-10.4L728.5,547.8L728.5,547.8z"/>
				<path id="Fill-64" class="st3" d="M735.7,549.9v2.7h1.8c0.5,0,0.8-0.1,1.1-0.4c0.3-0.2,0.4-0.6,0.4-1s-0.1-0.7-0.4-1
					s-0.6-0.4-1.1-0.4h-1.8V549.9z M739.2,558.2l-2-3.5h-1.4v3.5h-2.2v-10.4h4.2c1,0,1.9,0.3,2.6,1c0.7,0.6,1,1.5,1,2.5
					c0,0.7-0.2,1.3-0.5,1.8s-0.8,0.9-1.4,1.2l2.3,3.9H739.2z"/>
				<polygon id="Fill-65" class="st3" points="743,558.2 745.2,558.2 745.2,547.8 743,547.8 				"/>
				<polygon id="Fill-66" class="st3" points="753.9,547.8 756.1,547.8 756.1,558.2 754.2,558.2 749.5,551.7 749.5,558.2 
					747.3,558.2 747.3,547.8 749.3,547.8 753.9,554.1 				"/>
				<path id="Fill-68" class="st3" d="M773.2,549.9v2.7h1.8c0.5,0,0.8-0.1,1.1-0.4c0.3-0.2,0.4-0.6,0.4-1s-0.1-0.7-0.4-1
					s-0.6-0.4-1.1-0.4h-1.8V549.9z M776.6,558.2l-2-3.5h-1.4v3.5H771v-10.4h4.2c1,0,1.9,0.3,2.6,1c0.7,0.6,1,1.5,1,2.5
					c0,0.7-0.2,1.3-0.5,1.8s-0.8,0.9-1.4,1.2l2.3,3.9H776.6z"/>
				<polygon id="Fill-69" class="st3" points="782.7,556.1 786.8,556.1 786.8,558.2 780.4,558.2 780.4,547.8 786.6,547.8 
					786.6,549.9 782.7,549.9 782.7,551.9 786.3,551.9 786.3,554 782.7,554 				"/>
				<polygon id="Fill-70" class="st3" points="795,547.8 797.4,547.8 793.5,558.2 791.4,558.2 787.3,547.8 789.8,547.8 792.4,555.1 
									"/>
				<polygon id="Fill-71" class="st3" points="798.5,558.2 800.7,558.2 800.7,547.8 798.5,547.8 				"/>
				<polygon id="Fill-72" class="st3" points="805.1,556.1 809.2,556.1 809.2,558.2 802.8,558.2 802.8,547.8 809,547.8 809,549.9 
					805.1,549.9 805.1,551.9 808.7,551.9 808.7,554 805.1,554 				"/>
				<polygon id="Fill-73" class="st3" points="822.5,547.8 824.8,547.8 821.6,558.2 819.6,558.2 817.3,552.4 815.1,558.2 
					813.1,558.2 809.8,547.8 812.2,547.8 814.2,554.7 816.9,547.9 817.7,547.9 820.5,554.7 				"/>
				<polygon id="Fill-74" class="st3" points="841.6,558.2 839.4,558.2 838.3,551.4 835.2,558.2 834.7,558.2 831.6,551.4 
					830.6,558.2 828.3,558.2 829.9,547.8 832.1,547.8 835,554.2 837.8,547.8 840,547.8 				"/>
				<polygon id="Fill-75" class="st3" points="845.3,556.1 849.5,556.1 849.5,558.2 843.1,558.2 843.1,547.8 849.3,547.8 
					849.3,549.9 845.3,549.9 845.3,551.9 848.9,551.9 848.9,554 845.3,554 				"/>
				<polygon id="Fill-76" class="st3" points="853.3,556.1 857.5,556.1 857.5,558.2 851.1,558.2 851.1,547.8 857.3,547.8 
					857.3,549.9 853.3,549.9 853.3,551.9 856.9,551.9 856.9,554 853.3,554 				"/>
				<polygon id="Fill-77" class="st3" points="866.2,547.8 866.2,549.9 863.3,549.9 863.3,558.2 861.1,558.2 861.1,549.9 
					858.2,549.9 858.2,547.8 				"/>
				<polygon id="Fill-78" class="st3" points="867.4,558.2 869.7,558.2 869.7,547.8 867.4,547.8 				"/>
				<polygon id="Fill-79" class="st3" points="878.3,547.8 880.5,547.8 880.5,558.2 878.6,558.2 873.9,551.7 873.9,558.2 
					871.7,558.2 871.7,547.8 873.8,547.8 878.3,554.1 				"/>
				<path id="Fill-80" class="st3" d="M887.1,552.8h5.5c0,1.1-0.2,2-0.7,2.9c-0.4,0.9-1.1,1.5-1.9,2c-0.8,0.5-1.7,0.7-2.7,0.7
					c-0.8,0-1.5-0.1-2.1-0.4c-0.7-0.3-1.2-0.6-1.7-1.1s-0.9-1-1.1-1.7c-0.3-0.7-0.4-1.4-0.4-2.2s0.1-1.5,0.4-2.2
					c0.3-0.7,0.6-1.2,1.1-1.7s1-0.9,1.7-1.1c0.7-0.3,1.4-0.4,2.1-0.4c0.8,0,1.6,0.2,2.4,0.5c0.7,0.3,1.4,0.8,1.8,1.4
					c0.5,0.6,0.8,1.3,1,2.1h-2.3c-0.2-0.6-0.6-1-1.1-1.3s-1.1-0.5-1.7-0.5c-0.9,0-1.7,0.3-2.2,0.9c-0.6,0.6-0.9,1.4-0.9,2.4
					s0.3,1.8,0.9,2.4c0.6,0.6,1.3,0.9,2.3,0.9c0.7,0,1.3-0.2,1.8-0.5s0.9-0.8,1.1-1.3h-3.1v-1.8H887.1z"/>
				<polygon id="Fill-81" class="st4" points="104.1,388 168.2,388 168.2,358.8 104.1,358.8 				"/>
				<polygon id="Fill-82" class="st5" points="168.2,358.8 104.1,358.8 134.3,344.2 196.6,344.2 				"/>
				<polygon id="Fill-83" class="st6" points="196.3,372.3 168.2,388 168.2,358.8 196.3,344.6 				"/>
				<polygon id="Fill-84" class="st4" points="104.1,352.3 168.2,352.3 168.2,323.1 104.1,323.1 				"/>
				<polygon id="Fill-85" class="st5" points="168.2,323.1 104.1,323.1 134.3,308.6 196.6,308.6 				"/>
				<polygon id="Fill-86" class="st6" points="196.3,336.6 168.2,352.3 168.2,323.1 196.3,308.9 				"/>
				<polygon id="Fill-87" class="st4" points="104.1,315.5 168.2,315.5 168.2,286.3 104.1,286.3 				"/>
				<polygon id="Fill-88" class="st5" points="168.2,286.3 104.1,286.3 134.3,271.7 196.6,271.7 				"/>
				<polygon id="Fill-89" class="st6" points="196.3,299.7 168.2,315.5 168.2,286.3 196.3,272 				"/>
				<polygon id="Fill-90" class="st4" points="128.2,274.7 192.3,274.7 192.3,245.5 128.2,245.5 				"/>
				<polygon id="Fill-91" class="st5" points="192.3,245.5 128.2,245.5 158.3,231 220.7,231 				"/>
				<polygon id="Fill-92" class="st6" points="220.4,259 192.3,274.7 192.3,245.5 220.4,231.3 				"/>
				<g id="Stroke-93">
					<rect x="156" y="69.3" class="st7" width="1.9" height="151.6"/>
				</g>
				<polygon id="Fill-94" class="st2" points="274.1,400.1 88.2,400.1 110.9,436.4 88.2,474.5 274.1,474.5 296.8,436.4 				"/>
				<polygon id="Fill-95" class="st4" points="235.1,381.5 291.2,381.5 291.2,366.7 235.1,366.7 				"/>
				<polygon id="Fill-96" class="st5" points="291.2,366.7 235.1,366.7 261.5,354 316.1,354 				"/>
				<polygon id="Fill-97" class="st6" points="315.8,367.8 291.2,381.5 291.2,366.7 315.8,354.2 				"/>
				<polygon id="Fill-98" class="st4" points="235.1,359.2 291.2,359.2 291.2,344.4 235.1,344.4 				"/>
				<polygon id="Fill-99" class="st5" points="291.2,344.4 235.1,344.4 261.5,331.6 316.1,331.6 				"/>
				<polygon id="Fill-100" class="st6" points="315.8,345.4 291.2,359.2 291.2,344.4 315.8,331.9 				"/>
				<polygon id="Fill-101" class="st4" points="235.1,336.9 291.2,336.9 291.2,322.1 235.1,322.1 				"/>
				<polygon id="Fill-102" class="st5" points="291.2,322.1 235.1,322.1 261.5,309.3 316.1,309.3 				"/>
				<polygon id="Fill-103" class="st6" points="315.8,323.1 291.2,336.9 291.2,322.1 315.8,309.6 				"/>
				<polygon id="Fill-104" class="st4" points="235.1,314.5 291.2,314.5 291.2,299.7 235.1,299.7 				"/>
				<polygon id="Fill-105" class="st5" points="291.2,299.7 235.1,299.7 261.5,287 316.1,287 				"/>
				<polygon id="Fill-106" class="st6" points="315.8,300.8 291.2,314.5 291.2,299.7 315.8,287.3 				"/>
				<polygon id="Fill-107" class="st4" points="855.8,491.4 939.1,491.4 939.1,401.5 855.8,401.5 				"/>
				<polygon id="Fill-108" class="st5" points="939.1,401.5 855.8,401.5 895.1,382 976,382 				"/>
				<polygon id="Fill-109" class="st6" points="975.6,466.5 939.1,491.4 939.1,401.5 975.6,382.4 				"/>
				<path id="Fill-110" class="st3" d="M4,558.4c-1.2,0-2.2-0.3-2.9-1c-0.7-0.6-1.1-1.5-1.1-2.6h2.3c0,0.5,0.2,0.8,0.5,1.1
					s0.8,0.4,1.2,0.4s0.8-0.1,1.2-0.3c0.3-0.2,0.5-0.5,0.5-0.9c0-0.1,0-0.2-0.1-0.4c0-0.1-0.1-0.2-0.2-0.3s-0.2-0.2-0.3-0.2
					c-0.1-0.1-0.2-0.1-0.4-0.2c-0.2-0.1-0.4-0.1-0.5-0.1s-0.3-0.1-0.6-0.1c-0.9-0.2-1.5-0.4-1.9-0.6c-0.9-0.4-1.4-1.1-1.5-2
					c0-0.1,0-0.3,0-0.4c0-1,0.3-1.7,1-2.3c0.7-0.5,1.6-0.8,2.8-0.8s2.1,0.3,2.8,0.9c0.7,0.6,1,1.4,1,2.5H5.4c0-0.4-0.2-0.8-0.5-1
					s-0.7-0.3-1.1-0.3s-0.7,0.1-1,0.3s-0.4,0.4-0.4,0.7c0,0.1,0,0.3,0.1,0.4c0.1,0.1,0.2,0.2,0.3,0.3s0.3,0.1,0.5,0.2
					c0.2,0.1,0.4,0.1,0.5,0.2c0.1,0,0.4,0.1,0.6,0.2c0.2,0.1,0.4,0.1,0.5,0.1s0.3,0.1,0.5,0.2c0.2,0.1,0.4,0.1,0.6,0.2
					c0.1,0.1,0.3,0.1,0.5,0.2s0.4,0.2,0.5,0.3s0.2,0.2,0.4,0.4c0.1,0.2,0.2,0.3,0.3,0.5c0.1,0.2,0.1,0.4,0.2,0.6
					c0.1,0.2,0.1,0.5,0.1,0.7c0,0.5-0.1,1-0.3,1.5c-0.2,0.4-0.5,0.8-0.8,1c-0.4,0.3-0.8,0.5-1.2,0.6C5.1,558.3,4.6,558.4,4,558.4"/>
				<path id="Fill-111" class="st3" d="M13.4,552.9c0.4,0,0.8-0.1,1.1-0.4c0.3-0.3,0.4-0.6,0.4-1.1c0-0.4-0.1-0.8-0.4-1.1
					c-0.3-0.3-0.6-0.4-1.1-0.4h-1.6v3H13.4z M13.5,547.8c0.7,0,1.3,0.2,1.9,0.5c0.6,0.3,1,0.7,1.3,1.3c0.3,0.5,0.5,1.2,0.5,1.8
					c0,1-0.4,1.9-1.1,2.6c-0.7,0.7-1.6,1-2.6,1h-1.8v3.2H9.5v-10.4L13.5,547.8L13.5,547.8z"/>
				<path id="Fill-112" class="st3" d="M20.6,549.9v2.7h1.8c0.5,0,0.8-0.1,1.1-0.4c0.3-0.2,0.4-0.6,0.4-1s-0.1-0.7-0.4-1
					s-0.6-0.4-1.1-0.4h-1.8V549.9z M24.1,558.2l-2-3.5h-1.4v3.5h-2.2v-10.4h4.2c1,0,1.9,0.3,2.6,1c0.7,0.6,1,1.5,1,2.5
					c0,0.7-0.2,1.3-0.5,1.8s-0.8,0.9-1.4,1.2l2.3,3.9H24.1z"/>
				<polygon id="Fill-113" class="st3" points="27.9,558.2 30.1,558.2 30.1,547.8 27.9,547.8 				"/>
				<polygon id="Fill-114" class="st3" points="38.8,547.8 41,547.8 41,558.2 39.1,558.2 34.4,551.7 34.4,558.2 32.2,558.2 
					32.2,547.8 34.2,547.8 38.8,554.1 				"/>
				<polygon id="Fill-115" class="st3" points="50.2,547.8 50.2,549.9 47.3,549.9 47.3,558.2 45.1,558.2 45.1,549.9 42.2,549.9 
					42.2,547.8 				"/>
				<path id="Fill-116" class="st3" d="M58.1,552.9c0.4,0,0.8-0.1,1.1-0.4c0.3-0.3,0.4-0.6,0.4-1.1c0-0.4-0.1-0.8-0.4-1.1
					c-0.3-0.3-0.6-0.4-1.1-0.4h-1.7v3H58.1z M58.2,547.8c0.7,0,1.3,0.2,1.9,0.5c0.6,0.3,1,0.7,1.3,1.3c0.3,0.5,0.5,1.2,0.5,1.8
					c0,1-0.4,1.9-1.1,2.6c-0.7,0.7-1.6,1-2.6,1h-1.8v3.2h-2.2v-10.4L58.2,547.8L58.2,547.8z"/>
				<polygon id="Fill-117" class="st3" points="65.4,556.1 69.4,556.1 69.4,558.2 63.1,558.2 63.1,547.8 65.4,547.8 				"/>
				<path id="Fill-118" class="st3" d="M74.7,550.5l-1.4,3.7H76L74.7,550.5z M77.5,558.2l-0.7-2h-4.1l-0.7,2h-2.4l4.1-10.4h2.1
					l4.2,10.4H77.5z"/>
				<polygon id="Fill-119" class="st3" points="87.5,547.8 89.7,547.8 89.7,558.2 87.8,558.2 83.1,551.7 83.1,558.2 80.9,558.2 
					80.9,547.8 83,547.8 87.5,554.1 				"/>
				<polygon id="Fill-120" class="st3" points="98.4,547.8 100.6,547.8 100.6,558.2 98.7,558.2 94,551.7 94,558.2 91.8,558.2 
					91.8,547.8 93.8,547.8 98.4,554.1 				"/>
				<polygon id="Fill-121" class="st3" points="102.6,558.2 104.9,558.2 104.9,547.8 102.6,547.8 				"/>
				<polygon id="Fill-122" class="st3" points="113.5,547.8 115.7,547.8 115.7,558.2 113.9,558.2 109.2,551.7 109.2,558.2 
					107,558.2 107,547.8 109,547.8 113.5,554.1 				"/>
				<path id="Fill-123" class="st3" d="M122.4,552.8h5.5c0,1.1-0.2,2-0.7,2.9c-0.4,0.9-1.1,1.5-1.9,2s-1.7,0.7-2.7,0.7
					c-0.8,0-1.5-0.1-2.1-0.4c-0.7-0.3-1.2-0.6-1.7-1.1s-0.9-1-1.1-1.7c-0.3-0.7-0.4-1.4-0.4-2.2s0.1-1.5,0.4-2.2s0.6-1.2,1.1-1.7
					s1-0.9,1.7-1.1c0.7-0.3,1.4-0.4,2.1-0.4c0.8,0,1.6,0.2,2.4,0.5c0.7,0.3,1.4,0.8,1.8,1.4c0.5,0.6,0.8,1.3,1,2.1h-2.3
					c-0.2-0.6-0.6-1-1.1-1.3s-1.1-0.5-1.7-0.5c-0.9,0-1.7,0.3-2.2,0.9c-0.6,0.6-0.9,1.4-0.9,2.4s0.3,1.8,0.9,2.4
					c0.6,0.6,1.3,0.9,2.3,0.9c0.7,0,1.3-0.2,1.8-0.5s0.9-0.8,1.1-1.3h-3.1v-1.8H122.4z"/>
				<polygon id="Fill-124" class="st3" points="145.3,558.2 143,558.2 142,551.4 138.9,558.2 138.3,558.2 135.2,551.4 134.2,558.2 
					131.9,558.2 133.5,547.8 135.8,547.8 138.6,554.2 141.4,547.8 143.7,547.8 				"/>
				<polygon id="Fill-125" class="st3" points="149,556.1 153.1,556.1 153.1,558.2 146.7,558.2 146.7,547.8 153,547.8 153,549.9 
					149,549.9 149,551.9 152.6,551.9 152.6,554 149,554 				"/>
				<polygon id="Fill-126" class="st3" points="157,556.1 161.1,556.1 161.1,558.2 154.7,558.2 154.7,547.8 160.9,547.8 
					160.9,549.9 157,549.9 157,551.9 160.6,551.9 160.6,554 157,554 				"/>
				<polygon id="Fill-127" class="st3" points="169.8,547.8 169.8,549.9 167,549.9 167,558.2 164.7,558.2 164.7,549.9 161.8,549.9 
					161.8,547.8 				"/>
				<polygon id="Fill-128" class="st3" points="171.1,558.2 173.3,558.2 173.3,547.8 171.1,547.8 				"/>
				<polygon id="Fill-129" class="st3" points="182,547.8 184.2,547.8 184.2,558.2 182.3,558.2 177.6,551.7 177.6,558.2 
					175.4,558.2 175.4,547.8 177.4,547.8 182,554.1 				"/>
				<path id="Fill-130" class="st3" d="M190.8,552.8h5.5c0,1.1-0.2,2-0.7,2.9s-1.1,1.5-1.9,2c-0.8,0.5-1.7,0.7-2.7,0.7
					c-0.8,0-1.5-0.1-2.1-0.4c-0.7-0.3-1.2-0.6-1.7-1.1s-0.9-1-1.1-1.7c-0.3-0.7-0.4-1.4-0.4-2.2s0.1-1.5,0.4-2.2
					c0.3-0.7,0.6-1.2,1.1-1.7s1-0.9,1.7-1.1c0.7-0.3,1.4-0.4,2.1-0.4c0.9,0,1.6,0.2,2.4,0.5c0.7,0.3,1.4,0.8,1.8,1.4
					c0.5,0.6,0.8,1.3,1,2.1h-2.3c-0.2-0.6-0.6-1-1.1-1.3s-1.1-0.5-1.7-0.5c-0.9,0-1.7,0.3-2.2,0.9c-0.6,0.6-0.9,1.4-0.9,2.4
					s0.3,1.8,0.9,2.4c0.6,0.6,1.3,0.9,2.3,0.9c0.7,0,1.3-0.2,1.8-0.5s0.9-0.8,1.1-1.3H191v-1.8H190.8z"/>
				<path id="Fill-131" class="st0" d="M757.3,535.9c0,1.5-1.2,2.7-2.7,2.7s-2.7-1.2-2.7-2.7s1.2-2.7,2.7-2.7
					S757.3,534.4,757.3,535.9"/>
				<g id="Stroke-132">
					<rect x="753.8" y="486.8" class="st7" width="1.9" height="49.1"/>
				</g>
				<polygon id="Fill-133" class="st0" points="750.1,488.7 759.2,488.7 754.7,484.1 				"/>
				<g id="Stroke-134">
					<rect x="151.4" y="486.8" class="st7" width="1.9" height="49.1"/>
				</g>
				<polygon id="Fill-135" class="st0" points="147.8,488.7 156.8,488.7 152.3,484.1 				"/>
				<g id="Stroke-136">
					<polygon class="st7" points="298.5,277.4 296.7,277.4 296.7,119 430.1,119 430.1,68.8 431.9,68.8 431.9,120.8 298.5,120.8 
											"/>
				</g>
				<polygon id="Fill-137" class="st0" points="302.3,276.4 293.3,276.4 297.8,281 				"/>
				<polygon id="Fill-138" class="st0" points="161.5,218 152.4,218 156.9,222.6 				"/>
				<path id="Fill-139" class="st3" d="M842.1,128.1c0.4,0,0.8-0.1,1.1-0.4c0.3-0.3,0.4-0.6,0.4-1.1s-0.1-0.8-0.4-1.1
					c-0.3-0.3-0.6-0.4-1.1-0.4h-1.6v3H842.1z M842.2,123c0.7,0,1.3,0.2,1.9,0.5c0.6,0.3,1,0.7,1.3,1.3c0.3,0.5,0.5,1.2,0.5,1.8
					c0,1-0.3,1.9-1,2.6c-0.7,0.7-1.6,1-2.6,1h-1.8v3.2h-2.2V123H842.2z"/>
				<path id="Fill-140" class="st3" d="M849.7,130.5c0.6,0.6,1.4,1,2.3,1s1.7-0.3,2.3-0.9c0.6-0.6,0.9-1.4,0.9-2.4
					c0-0.9-0.3-1.7-0.9-2.4c-0.6-0.6-1.4-0.9-2.3-0.9s-1.7,0.3-2.3,0.9s-0.9,1.4-0.9,2.3C848.8,129.1,849.1,129.9,849.7,130.5
					 M852.1,133.6c-0.8,0-1.5-0.1-2.2-0.4c-0.7-0.3-1.3-0.7-1.8-1.1c-0.5-0.5-0.9-1.1-1.2-1.7c-0.3-0.7-0.4-1.4-0.4-2.1
					c0-0.8,0.1-1.5,0.4-2.1c0.3-0.7,0.7-1.2,1.2-1.7s1.1-0.9,1.8-1.1c0.7-0.3,1.4-0.4,2.2-0.4s1.5,0.1,2.2,0.4s1.3,0.7,1.8,1.1
					c0.5,0.5,0.9,1.1,1.1,1.7c0.3,0.7,0.4,1.4,0.4,2.1c0,0.8-0.1,1.5-0.4,2.1c-0.3,0.7-0.7,1.2-1.1,1.7s-1.1,0.9-1.8,1.1
					C853.6,133.5,852.8,133.6,852.1,133.6"/>
				<polygon id="Fill-141" class="st3" points="865.9,123 865.9,125.1 863,125.1 863,133.4 860.7,133.4 860.7,125.1 857.8,125.1 
					857.8,123 				"/>
				<polygon id="Fill-142" class="st3" points="869.3,131.3 873.5,131.3 873.5,133.4 867.1,133.4 867.1,123 873.3,123 873.3,125.1 
					869.3,125.1 869.3,127.1 872.9,127.1 872.9,129.2 869.3,129.2 				"/>
				<polygon id="Fill-143" class="st3" points="881.6,123 883.8,123 883.8,133.4 882,133.4 877.3,126.9 877.3,133.4 875.1,133.4 
					875.1,123 877.1,123 881.6,129.3 				"/>
				<polygon id="Fill-144" class="st3" points="893.1,123 893.1,125.1 890.2,125.1 890.2,133.4 887.9,133.4 887.9,125.1 885,125.1 
					885,123 				"/>
				<polygon id="Fill-145" class="st3" points="894.3,133.4 896.5,133.4 896.5,123 894.3,123 				"/>
				<path id="Fill-146" class="st3" d="M902.7,125.7l-1.4,3.7h2.7L902.7,125.7z M905.5,133.4l-0.7-2h-4.1l-0.7,2h-2.4l4.1-10.4h2.1
					l4.2,10.4H905.5z"/>
				<polygon id="Fill-147" class="st3" points="911.2,131.3 915.2,131.3 915.2,133.4 908.9,133.4 908.9,123 911.2,123 				"/>
				<polygon id="Fill-148" class="st3" points="918.6,131.3 922.6,131.3 922.6,133.4 916.4,133.4 916.4,123 918.6,123 				"/>
				<polygon id="Fill-149" class="st3" points="931.2,123 927.5,129.2 927.5,133.4 925.2,133.4 925.2,129.2 921.6,123 924,123 
					926.4,127.1 928.8,123 				"/>
				<path id="Fill-150" class="st3" d="M938.7,133.6c-1.2,0-2.2-0.3-2.9-1c-0.7-0.6-1.1-1.5-1.1-2.6h2.3c0,0.5,0.2,0.8,0.5,1.1
					s0.8,0.4,1.2,0.4c0.5,0,0.8-0.1,1.2-0.3c0.3-0.2,0.5-0.5,0.5-0.9c0-0.1,0-0.2-0.1-0.4c0-0.1-0.1-0.2-0.2-0.3
					c-0.1-0.1-0.2-0.2-0.3-0.2c-0.1-0.1-0.2-0.1-0.4-0.2c-0.2-0.1-0.4-0.1-0.5-0.1s-0.3-0.1-0.6-0.1c-0.9-0.2-1.5-0.4-1.9-0.6
					c-0.9-0.4-1.4-1.1-1.6-2c0-0.1,0-0.3,0-0.4c0-1,0.3-1.7,1-2.3c0.7-0.5,1.6-0.8,2.8-0.8s2.1,0.3,2.8,0.9s1,1.4,1,2.4h-2.2
					c0-0.4-0.2-0.7-0.5-1c-0.3-0.2-0.7-0.3-1.1-0.3c-0.4,0-0.7,0.1-1,0.3c-0.3,0.2-0.4,0.4-0.4,0.7c0,0.1,0,0.3,0.1,0.4
					s0.2,0.2,0.3,0.3c0.1,0.1,0.3,0.1,0.5,0.2s0.4,0.1,0.5,0.2c0.1,0,0.4,0.1,0.6,0.2c0.2,0.1,0.4,0.1,0.5,0.1s0.3,0.1,0.5,0.2
					s0.4,0.1,0.6,0.2c0.1,0.1,0.3,0.1,0.5,0.2s0.4,0.2,0.5,0.3c0.1,0.1,0.2,0.2,0.4,0.4c0.1,0.2,0.2,0.3,0.3,0.5s0.1,0.4,0.2,0.6
					c0.1,0.2,0.1,0.5,0.1,0.7c0,0.5-0.1,1-0.3,1.5c-0.2,0.4-0.5,0.8-0.9,1c-0.4,0.3-0.8,0.5-1.2,0.6
					C939.7,133.5,939.2,133.6,938.7,133.6"/>
				<polygon id="Fill-151" class="st3" points="950.2,123 952.5,123 952.5,133.4 950.2,133.4 950.2,129.1 946.3,129.1 946.3,133.4 
					944.1,133.4 944.1,123 946.3,123 946.3,127 950.2,127 				"/>
				<polygon id="Fill-152" class="st3" points="954.6,133.4 956.8,133.4 956.8,123 954.6,123 				"/>
				<path id="Fill-153" class="st3" d="M962.8,128.1c0.4,0,0.8-0.1,1.1-0.4c0.3-0.3,0.4-0.6,0.4-1.1s-0.1-0.8-0.4-1.1
					c-0.3-0.3-0.6-0.4-1.1-0.4h-1.7v3H962.8z M962.9,123c0.7,0,1.3,0.2,1.9,0.5c0.6,0.3,1,0.7,1.3,1.3c0.3,0.5,0.5,1.2,0.5,1.8
					c0,1-0.3,1.9-1,2.6s-1.6,1-2.6,1h-1.8v3.2H959V123H962.9z"/>
				<path id="Fill-154" class="st3" d="M971.7,128.1c0.4,0,0.8-0.1,1.1-0.4c0.3-0.3,0.4-0.6,0.4-1.1s-0.1-0.8-0.4-1.1
					c-0.3-0.3-0.6-0.4-1.1-0.4H970v3H971.7z M971.8,123c0.7,0,1.3,0.2,1.9,0.5c0.6,0.3,1,0.7,1.3,1.3c0.3,0.5,0.5,1.2,0.5,1.8
					c0,1-0.3,1.9-1,2.6c-0.7,0.7-1.6,1-2.6,1h-1.8v3.2h-2.2V123H971.8z"/>
				<path id="Fill-155" class="st3" d="M980,125.7l-1.4,3.7h2.7L980,125.7z M982.8,133.4l-0.7-2H978l-0.7,2h-2.4L979,123h2.1
					l4.2,10.4H982.8z"/>
				<path id="Fill-156" class="st3" d="M990.5,131.3c0.4,0,0.7-0.1,0.9-0.3s0.3-0.5,0.3-0.8s-0.1-0.6-0.3-0.8s-0.5-0.3-0.9-0.3h-2
					v2.3L990.5,131.3L990.5,131.3z M991.2,126.8c0.2-0.2,0.3-0.5,0.3-0.8s-0.1-0.6-0.3-0.8c-0.2-0.2-0.5-0.3-0.8-0.3h-1.9v2.2h1.9
					C990.7,127.1,991,127,991.2,126.8z M992.5,127.9c0.5,0.2,0.8,0.6,1.1,1c0.2,0.4,0.4,0.9,0.4,1.5c0,0.8-0.3,1.5-1,2.1
					c-0.6,0.6-1.4,0.9-2.3,0.9h-4.4V123h4.3c0.9,0,1.6,0.3,2.2,0.8c0.6,0.5,0.9,1.1,0.9,1.9c0,0.4-0.1,0.9-0.3,1.3
					C993.2,127.3,992.9,127.6,992.5,127.9z"/>
				<polygon id="Fill-157" class="st3" points="997.7,131.3 1001.7,131.3 1001.7,133.4 995.5,133.4 995.5,123 997.7,123 				"/>
				<polygon id="Fill-158" class="st3" points="1005.2,131.3 1009.3,131.3 1009.3,133.4 1002.9,133.4 1002.9,123 1009.2,123 
					1009.2,125.1 1005.2,125.1 1005.2,127.1 1008.8,127.1 1008.8,129.2 1005.2,129.2 				"/>
				<path id="Fill-159" class="st3" d="M849.4,151.4c0.4,0,0.8-0.1,1.1-0.4c0.3-0.3,0.4-0.6,0.4-1.1c0-0.4-0.1-0.8-0.4-1.1
					c-0.3-0.3-0.6-0.4-1.1-0.4h-1.7v3H849.4z M849.5,146.3c0.7,0,1.3,0.2,1.9,0.5c0.6,0.3,1,0.7,1.3,1.3c0.3,0.5,0.5,1.2,0.5,1.8
					c0,1-0.3,1.9-1,2.6c-0.7,0.7-1.6,1-2.6,1h-1.8v3.2h-2.2v-10.4L849.5,146.3L849.5,146.3z"/>
				<path id="Fill-160" class="st3" d="M856.6,148.4v2.7h1.8c0.5,0,0.8-0.1,1.1-0.4c0.3-0.2,0.4-0.6,0.4-1s-0.1-0.7-0.4-1
					c-0.3-0.3-0.6-0.4-1.1-0.4L856.6,148.4L856.6,148.4z M860.1,156.7l-2-3.5h-1.4v3.5h-2.2v-10.4h4.2c1,0,1.9,0.3,2.6,1
					c0.7,0.6,1,1.5,1,2.5c0,0.7-0.2,1.3-0.5,1.8s-0.8,0.9-1.4,1.2l2.3,3.9H860.1z"/>
				<path id="Fill-161" class="st3" d="M866.4,153.9c0.6,0.6,1.4,1,2.3,1c0.9,0,1.7-0.3,2.3-0.9s0.9-1.4,0.9-2.4
					c0-0.9-0.3-1.7-0.9-2.4c-0.6-0.6-1.4-0.9-2.3-0.9c-0.9,0-1.7,0.3-2.3,0.9c-0.6,0.6-0.9,1.4-0.9,2.3
					C865.5,152.5,865.8,153.3,866.4,153.9 M868.7,157c-0.8,0-1.5-0.1-2.2-0.4s-1.3-0.7-1.8-1.1c-0.5-0.5-0.9-1.1-1.2-1.7
					c-0.3-0.7-0.4-1.4-0.4-2.1c0-0.8,0.1-1.5,0.4-2.1c0.3-0.7,0.7-1.2,1.2-1.7s1.1-0.9,1.8-1.1c0.7-0.3,1.4-0.4,2.2-0.4
					s1.5,0.1,2.2,0.4c0.7,0.3,1.3,0.7,1.8,1.1c0.5,0.5,0.9,1.1,1.1,1.7c0.3,0.7,0.4,1.4,0.4,2.1c0,0.8-0.1,1.5-0.4,2.1
					c-0.3,0.7-0.7,1.2-1.1,1.7c-0.5,0.5-1.1,0.9-1.8,1.1C870.2,156.8,869.5,157,868.7,157"/>
				<path id="Fill-162" class="st3" d="M879.6,154.6c0.9,0,1.6-0.3,2.2-0.9c0.6-0.6,0.8-1.3,0.8-2.2s-0.3-1.7-0.8-2.2
					c-0.6-0.6-1.3-0.9-2.2-0.9H878v6.2L879.6,154.6L879.6,154.6z M879.6,146.3c0.8,0,1.5,0.1,2.1,0.4c0.7,0.3,1.2,0.6,1.7,1.1
					s0.8,1,1.1,1.6s0.4,1.3,0.4,2.1c0,0.7-0.1,1.4-0.4,2.1s-0.6,1.2-1.1,1.7s-1,0.8-1.7,1.1s-1.4,0.4-2.1,0.4h-3.9v-10.4h3.9V146.3z
					"/>
				<path id="Fill-163" class="st3" d="M893.6,155.8c-0.8,0.8-1.8,1.2-3.1,1.2c-1.2,0-2.3-0.4-3.1-1.2s-1.2-1.8-1.2-3v-6.5h2.3v6.4
					c0,0.6,0.2,1.2,0.6,1.5c0.4,0.4,0.9,0.6,1.5,0.6s1.1-0.2,1.5-0.6c0.4-0.4,0.6-0.9,0.6-1.5v-6.4h2.3v6.5
					C894.9,154,894.5,155,893.6,155.8"/>
				<path id="Fill-164" class="st3" d="M901.6,157c-0.7,0-1.5-0.1-2.1-0.4c-0.7-0.3-1.2-0.7-1.7-1.1c-0.5-0.5-0.8-1.1-1.1-1.7
					c-0.3-0.7-0.4-1.4-0.4-2.1c0-0.8,0.1-1.5,0.4-2.2c0.3-0.7,0.6-1.2,1.1-1.7s1-0.9,1.7-1.1c0.7-0.3,1.4-0.4,2.1-0.4
					c1.3,0,2.4,0.4,3.3,1.1c0.9,0.8,1.5,1.8,1.7,3h-2.3c-0.2-0.6-0.6-1.1-1.1-1.5s-1.1-0.5-1.7-0.5c-0.9,0-1.6,0.3-2.2,0.9
					c-0.6,0.6-0.9,1.4-0.9,2.3c0,0.9,0.3,1.7,0.9,2.3c0.6,0.6,1.3,0.9,2.2,0.9c0.7,0,1.3-0.2,1.8-0.6c0.5-0.4,0.8-0.9,1-1.6h2.3
					c-0.2,1.3-0.8,2.3-1.7,3.1C904,156.6,902.9,157,901.6,157"/>
				<polygon id="Fill-165" class="st3" points="914.9,146.3 914.9,148.4 912,148.4 912,156.7 909.8,156.7 909.8,148.4 906.9,148.4 
					906.9,146.3 				"/>
				<polygon id="Fill-166" class="st3" points="918.9,156.7 921.2,156.7 921.2,146.3 918.9,146.3 				"/>
				<polygon id="Fill-167" class="st3" points="929.8,146.3 932,146.3 932,156.7 930.2,156.7 925.5,150.2 925.5,156.7 923.3,156.7 
					923.3,146.3 925.3,146.3 929.8,152.7 				"/>
				<path id="Fill-168" class="st3" d="M938.9,157c-0.7,0-1.5-0.1-2.1-0.4c-0.7-0.3-1.2-0.7-1.7-1.1c-0.5-0.5-0.8-1.1-1.1-1.7
					c-0.3-0.7-0.4-1.4-0.4-2.1c0-0.8,0.1-1.5,0.4-2.2c0.3-0.7,0.6-1.2,1.1-1.7s1-0.9,1.7-1.1c0.7-0.3,1.4-0.4,2.1-0.4
					c1.3,0,2.4,0.4,3.3,1.1s1.5,1.8,1.7,3h-2.3c-0.2-0.6-0.6-1.1-1.1-1.5s-1.1-0.5-1.7-0.5c-0.9,0-1.6,0.3-2.2,0.9
					c-0.6,0.6-0.9,1.4-0.9,2.3c0,0.9,0.3,1.7,0.9,2.3c0.6,0.6,1.3,0.9,2.2,0.9c0.7,0,1.3-0.2,1.8-0.6c0.5-0.4,0.8-0.9,1-1.6h2.3
					c-0.2,1.3-0.8,2.3-1.7,3.1C941.3,156.6,940.2,157,938.9,157"/>
				<path id="Fill-169" class="st3" d="M947.5,148.4v2.7h1.8c0.5,0,0.8-0.1,1.1-0.4c0.3-0.2,0.4-0.6,0.4-1s-0.1-0.7-0.4-1
					c-0.3-0.3-0.6-0.4-1.1-0.4L947.5,148.4L947.5,148.4z M951,156.7l-2-3.5h-1.4v3.5h-2.2v-10.4h4.2c1,0,1.9,0.3,2.6,1
					c0.7,0.6,1,1.5,1,2.5c0,0.7-0.2,1.3-0.5,1.8s-0.8,0.9-1.4,1.2l2.3,3.9H951z"/>
				<polygon id="Fill-170" class="st3" points="957,154.6 961.1,154.6 961.1,156.7 954.7,156.7 954.7,146.3 961,146.3 961,148.4 
					957,148.4 957,150.5 960.6,150.5 960.6,152.5 957,152.5 				"/>
				<polygon id="Fill-171" class="st3" points="975.5,156.7 973.2,156.7 972.1,150 969,156.7 968.5,156.7 965.4,150 964.4,156.7 
					962.1,156.7 963.7,146.3 966,146.3 968.8,152.7 971.6,146.3 973.8,146.3 				"/>
				<polygon id="Fill-172" class="st3" points="979.1,154.6 983.3,154.6 983.3,156.7 976.9,156.7 976.9,146.3 983.1,146.3 
					983.1,148.4 979.1,148.4 979.1,150.5 982.7,150.5 982.7,152.5 979.1,152.5 				"/>
				<polygon id="Fill-173" class="st3" points="991.5,146.3 993.7,146.3 993.7,156.7 991.8,156.7 987.1,150.2 987.1,156.7 
					984.9,156.7 984.9,146.3 986.9,146.3 991.5,152.7 				"/>
				<polygon id="Fill-174" class="st3" points="1002.9,146.3 1002.9,148.4 1000,148.4 1000,156.7 997.7,156.7 997.7,148.4 
					994.9,148.4 994.9,146.3 				"/>
				<path id="Fill-175" class="st0" d="M926.3,179.1c0,1.5-1.2,2.7-2.7,2.7s-2.7-1.2-2.7-2.7s1.2-2.7,2.7-2.7
					S926.3,177.6,926.3,179.1"/>
				<polygon id="Fill-176" class="st0" points="928.3,362.6 919.2,362.6 923.8,367.1 				"/>
				<g id="Stroke-177">
					<rect x="922.9" y="179.1" class="st7" width="1.9" height="184.7"/>
				</g>
				<polyline id="Stroke-178" class="st8" points="245.3,547.7 252.1,553.2 245.3,558.3 				"/>
				<path id="Stroke-179" class="st8" d="M210.7,552.7h40.6"/>
				<polyline id="Stroke-180" class="st8" points="464,547.7 470.8,553.2 464,558.3 				"/>
				<path id="Stroke-181" class="st8" d="M429.4,552.7H470"/>
				<polyline id="Stroke-182" class="st8" points="696.4,547.7 703.1,553.2 696.4,558.3 				"/>
				<path id="Stroke-183" class="st8" d="M661.7,552.7h40.6"/>
				<path id="Fill-184" class="st0" d="M159.6,68.8c0,1.5-1.2,2.7-2.7,2.7s-2.7-1.2-2.7-2.7s1.2-2.7,2.7-2.7S159.6,67.4,159.6,68.8"
					/>
				<path id="Fill-185" class="st0" d="M433.9,68.8c0,1.5-1.2,2.7-2.7,2.7s-2.7-1.2-2.7-2.7s1.2-2.7,2.7-2.7S433.9,67.4,433.9,68.8"
					/>
				<path id="Fill-186" class="st3" d="M90.7,5.4c0.4,0,0.8-0.1,1.1-0.4c0.3-0.3,0.4-0.6,0.4-1.1c0-0.4-0.1-0.8-0.4-1.1
					s-0.6-0.4-1.1-0.4H89v3H90.7z M90.8,0.4c0.7,0,1.3,0.2,1.9,0.5s1,0.7,1.3,1.3c0.3,0.5,0.5,1.2,0.5,1.8c0,1-0.3,1.9-1.1,2.6
					c-0.7,0.7-1.6,1-2.6,1H89v3.2h-2.2V0.4H90.8z"/>
				<path id="Fill-187" class="st3" d="M98,2.4v2.7h1.8c0.5,0,0.8-0.1,1.1-0.4c0.3-0.2,0.4-0.6,0.4-1s-0.1-0.7-0.4-1
					s-0.6-0.4-1.1-0.4L98,2.4L98,2.4z M101.4,10.7l-2-3.5H98v3.5h-2.2V0.4h4.2c1,0,1.9,0.3,2.6,1c0.7,0.6,1,1.5,1,2.5
					c0,0.7-0.2,1.3-0.5,1.8s-0.8,0.9-1.4,1.2l2.3,3.9L101.4,10.7L101.4,10.7z"/>
				<path id="Fill-188" class="st3" d="M107.8,7.9c0.6,0.6,1.4,1,2.3,1s1.7-0.3,2.3-0.9c0.6-0.6,0.9-1.4,0.9-2.4
					c0-0.9-0.3-1.7-0.9-2.4c-0.6-0.6-1.4-0.9-2.3-0.9s-1.7,0.3-2.3,0.9s-0.9,1.4-0.9,2.3C106.8,6.5,107.1,7.3,107.8,7.9 M110.1,11
					c-0.8,0-1.5-0.1-2.2-0.4s-1.3-0.7-1.8-1.1c-0.5-0.5-0.9-1.1-1.2-1.7c-0.3-0.7-0.4-1.4-0.4-2.1c0-0.8,0.1-1.5,0.4-2.1
					c0.3-0.7,0.7-1.2,1.2-1.7s1.1-0.9,1.8-1.1c0.7-0.3,1.4-0.4,2.2-0.4c0.8,0,1.5,0.1,2.2,0.4s1.3,0.7,1.8,1.1s0.9,1.1,1.1,1.7
					c0.3,0.7,0.4,1.4,0.4,2.1c0,0.8-0.1,1.5-0.4,2.1c-0.3,0.7-0.7,1.2-1.1,1.7c-0.5,0.5-1.1,0.9-1.8,1.1
					C111.6,10.8,110.9,11,110.1,11"/>
				<path id="Fill-189" class="st3" d="M120.9,8.7c0.9,0,1.6-0.3,2.2-0.9s0.8-1.3,0.8-2.2s-0.3-1.7-0.8-2.2
					c-0.6-0.6-1.3-0.9-2.2-0.9h-1.6v6.2C119.3,8.7,120.9,8.7,120.9,8.7z M121,0.4c0.8,0,1.5,0.1,2.1,0.4c0.7,0.3,1.2,0.6,1.7,1.1
					s0.8,1,1.1,1.6c0.3,0.6,0.4,1.3,0.4,2.1c0,0.7-0.1,1.4-0.4,2.1c-0.3,0.6-0.6,1.2-1.1,1.7s-1,0.8-1.7,1.1s-1.4,0.4-2.1,0.4h-3.9
					V0.4H121z"/>
				<path id="Fill-190" class="st3" d="M135,9.8c-0.8,0.8-1.8,1.2-3.1,1.2c-1.2,0-2.3-0.4-3.1-1.2s-1.2-1.8-1.2-3V0.4h2.3v6.4
					c0,0.6,0.2,1.2,0.6,1.5c0.4,0.4,0.9,0.6,1.5,0.6s1.1-0.2,1.5-0.6s0.6-0.9,0.6-1.5V0.4h2.3v6.5C136.2,8,135.8,9,135,9.8"/>
				<path id="Fill-191" class="st3" d="M142.9,11c-0.7,0-1.5-0.1-2.1-0.4c-0.7-0.3-1.2-0.7-1.7-1.1c-0.5-0.5-0.8-1.1-1.1-1.7
					c-0.3-0.7-0.4-1.4-0.4-2.1c0-0.8,0.1-1.5,0.4-2.2c0.3-0.7,0.6-1.2,1.1-1.7s1-0.9,1.7-1.1c0.7-0.3,1.4-0.4,2.1-0.4
					c1.3,0,2.4,0.4,3.3,1.1s1.5,1.8,1.7,3h-2.3c-0.2-0.6-0.6-1.1-1.1-1.5s-1.1-0.5-1.7-0.5c-0.9,0-1.6,0.3-2.2,0.9
					c-0.6,0.6-0.9,1.4-0.9,2.3s0.3,1.7,0.9,2.3c0.6,0.6,1.3,0.9,2.2,0.9c0.7,0,1.3-0.2,1.8-0.6s0.8-0.9,1-1.6h2.3
					c-0.2,1.3-0.8,2.3-1.7,3.1C145.3,10.6,144.2,11,142.9,11"/>
				<polygon id="Fill-192" class="st3" points="156.3,0.4 156.3,2.4 153.4,2.4 153.4,10.7 151.1,10.7 151.1,2.4 148.3,2.4 
					148.3,0.4 				"/>
				<path id="Fill-193" class="st3" d="M162.9,7.9c0.6,0.6,1.4,1,2.3,1c0.9,0,1.7-0.3,2.3-0.9s0.9-1.4,0.9-2.4
					c0-0.9-0.3-1.7-0.9-2.4c-0.6-0.6-1.4-0.9-2.3-0.9c-0.9,0-1.7,0.3-2.3,0.9S162,4.6,162,5.5C162,6.5,162.3,7.3,162.9,7.9
					 M165.2,11c-0.8,0-1.5-0.1-2.2-0.4c-0.7-0.3-1.3-0.7-1.8-1.1c-0.5-0.5-0.9-1.1-1.2-1.7c-0.3-0.7-0.4-1.4-0.4-2.1
					c0-0.8,0.1-1.5,0.4-2.1c0.3-0.7,0.7-1.2,1.2-1.7s1.1-0.9,1.8-1.1c0.7-0.3,1.4-0.4,2.2-0.4s1.5,0.1,2.2,0.4s1.3,0.7,1.8,1.1
					s0.9,1.1,1.1,1.7c0.3,0.7,0.4,1.4,0.4,2.1c0,0.8-0.1,1.5-0.4,2.1c-0.3,0.7-0.7,1.2-1.1,1.7c-0.5,0.5-1.1,0.9-1.8,1.1
					C166.7,10.8,166,11,165.2,11"/>
				<polygon id="Fill-194" class="st3" points="183.6,0.4 186,0.4 182.8,10.7 180.8,10.7 178.4,4.9 176.2,10.7 174.2,10.7 
					170.9,0.4 173.3,0.4 175.3,7.3 178.1,0.5 178.8,0.5 181.6,7.3 				"/>
				<polygon id="Fill-195" class="st3" points="193.6,0.4 195.8,0.4 195.8,10.7 194,10.7 189.3,4.3 189.3,10.7 187.1,10.7 
					187.1,0.4 189.1,0.4 193.6,6.7 				"/>
				<polygon id="Fill-196" class="st3" points="200.2,8.6 204.3,8.6 204.3,10.7 197.9,10.7 197.9,0.4 204.1,0.4 204.1,2.4 
					200.2,2.4 200.2,4.5 203.8,4.5 203.8,6.5 200.2,6.5 				"/>
				<path id="Fill-197" class="st3" d="M208.1,2.4v2.7h1.8c0.5,0,0.8-0.1,1.1-0.4c0.3-0.2,0.4-0.6,0.4-1s-0.1-0.7-0.4-1
					s-0.6-0.4-1.1-0.4L208.1,2.4L208.1,2.4z M211.6,10.7l-2-3.5h-1.4v3.5H206V0.4h4.2c1,0,1.9,0.3,2.6,1c0.7,0.6,1,1.5,1,2.5
					c0,0.7-0.2,1.3-0.5,1.8s-0.8,0.9-1.4,1.2l2.3,3.9L211.6,10.7L211.6,10.7z"/>
				<path id="Fill-198" class="st3" d="M83.3,44.2c0.4,0,0.8-0.1,1.1-0.4c0.3-0.3,0.4-0.6,0.4-1.1c0-0.4-0.1-0.8-0.4-1.1
					s-0.6-0.4-1.1-0.4h-1.7v3H83.3z M83.4,39.1c0.7,0,1.3,0.2,1.9,0.5s1,0.7,1.3,1.3c0.3,0.5,0.5,1.2,0.5,1.8c0,1-0.3,1.9-1.1,2.6
					c-0.7,0.7-1.6,1-2.6,1h-1.8v3.2h-2.2V39.1H83.4z"/>
				<path id="Fill-199" class="st3" d="M90.6,41.2v2.7h1.8c0.5,0,0.8-0.1,1.1-0.4c0.3-0.2,0.4-0.6,0.4-1s-0.1-0.7-0.4-1
					s-0.6-0.4-1.1-0.4h-1.8V41.2z M94,49.5L92,46h-1.4v3.5h-2.2V39.1h4.2c1,0,1.9,0.3,2.6,1c0.7,0.6,1,1.5,1,2.5
					c0,0.7-0.2,1.3-0.5,1.8s-0.8,0.9-1.4,1.2l2.3,3.9H94z"/>
				<path id="Fill-200" class="st3" d="M100.3,46.6c0.6,0.6,1.4,1,2.3,1s1.7-0.3,2.3-0.9c0.6-0.6,0.9-1.4,0.9-2.4
					c0-0.9-0.3-1.7-0.9-2.4c-0.6-0.6-1.4-0.9-2.3-0.9s-1.7,0.3-2.3,0.9c-0.6,0.6-0.9,1.4-0.9,2.3C99.4,45.2,99.7,46,100.3,46.6
					 M102.7,49.7c-0.8,0-1.5-0.1-2.2-0.4c-0.7-0.3-1.3-0.7-1.8-1.1c-0.5-0.5-0.9-1.1-1.2-1.7c-0.3-0.7-0.4-1.4-0.4-2.1
					c0-0.8,0.1-1.5,0.4-2.1c0.3-0.7,0.7-1.2,1.2-1.7s1.1-0.9,1.8-1.1s1.4-0.4,2.2-0.4c0.8,0,1.5,0.1,2.2,0.4
					c0.7,0.3,1.3,0.7,1.8,1.1c0.5,0.5,0.9,1.1,1.1,1.7c0.3,0.7,0.4,1.4,0.4,2.1c0,0.8-0.1,1.5-0.4,2.1c-0.3,0.7-0.7,1.2-1.1,1.7
					c-0.5,0.5-1.1,0.9-1.8,1.1C104.2,49.6,103.4,49.7,102.7,49.7"/>
				<path id="Fill-201" class="st3" d="M113.5,47.4c0.9,0,1.6-0.3,2.2-0.9c0.6-0.6,0.8-1.3,0.8-2.2s-0.3-1.7-0.8-2.2
					c-0.6-0.6-1.3-0.9-2.2-0.9h-1.6v6.2C111.9,47.4,113.5,47.4,113.5,47.4z M113.6,39.1c0.8,0,1.5,0.1,2.1,0.4
					c0.7,0.3,1.2,0.6,1.7,1.1s0.8,1,1.1,1.6c0.3,0.6,0.4,1.3,0.4,2.1c0,0.7-0.1,1.4-0.4,2.1c-0.3,0.6-0.6,1.2-1.1,1.6
					c-0.5,0.5-1,0.8-1.7,1.1s-1.4,0.4-2.1,0.4h-3.9V39.1H113.6z"/>
				<path id="Fill-202" class="st3" d="M127.6,48.5c-0.8,0.8-1.8,1.2-3.1,1.2c-1.2,0-2.3-0.4-3.1-1.2c-0.8-0.8-1.2-1.8-1.2-3V39h2.3
					v6.4c0,0.6,0.2,1.2,0.6,1.5c0.4,0.4,0.9,0.6,1.5,0.6s1.1-0.2,1.5-0.6c0.4-0.4,0.6-0.9,0.6-1.5V39h2.3v6.5
					C128.8,46.8,128.4,47.8,127.6,48.5"/>
				<path id="Fill-203" class="st3" d="M135.5,49.7c-0.7,0-1.5-0.1-2.1-0.4c-0.7-0.3-1.2-0.7-1.7-1.1c-0.5-0.5-0.8-1.1-1.1-1.7
					c-0.3-0.7-0.4-1.4-0.4-2.1c0-0.8,0.1-1.5,0.4-2.2c0.3-0.7,0.6-1.2,1.1-1.7s1-0.9,1.7-1.1c0.7-0.3,1.4-0.4,2.1-0.4
					c1.3,0,2.4,0.4,3.3,1.1c0.9,0.8,1.5,1.8,1.7,3h-2.3c-0.2-0.6-0.6-1.1-1.1-1.5s-1.1-0.5-1.7-0.5c-0.9,0-1.6,0.3-2.2,0.9
					c-0.6,0.6-0.9,1.4-0.9,2.3c0,0.9,0.3,1.7,0.9,2.3c0.6,0.6,1.3,0.9,2.2,0.9c0.7,0,1.3-0.2,1.8-0.6c0.5-0.4,0.8-0.9,1-1.6h2.3
					c-0.2,1.3-0.8,2.3-1.7,3.1S136.8,49.7,135.5,49.7"/>
				<polygon id="Fill-204" class="st3" points="148.9,39.1 148.9,41.2 146,41.2 146,49.5 143.7,49.5 143.7,41.2 140.8,41.2 
					140.8,39.1 				"/>
				<path id="Fill-205" class="st3" d="M157.1,47.4c0.4,0,0.7-0.1,0.9-0.3s0.3-0.5,0.3-0.8s-0.1-0.6-0.3-0.8s-0.5-0.3-0.9-0.3h-2
					v2.3h2V47.4z M157.8,42.9c0.2-0.2,0.3-0.5,0.3-0.8s-0.1-0.6-0.3-0.8S157.3,41,157,41h-1.9v2.2h1.9
					C157.3,43.2,157.6,43.1,157.8,42.9z M159.1,44c0.5,0.2,0.8,0.6,1.1,1s0.4,0.9,0.4,1.5c0,0.8-0.3,1.5-1,2.1
					c-0.6,0.6-1.4,0.9-2.3,0.9h-4.4V39.1h4.3c0.9,0,1.6,0.3,2.2,0.8c0.6,0.5,0.9,1.1,0.9,1.9c0,0.4-0.1,0.9-0.3,1.3
					C159.8,43.4,159.5,43.7,159.1,44z"/>
				<path id="Fill-206" class="st3" d="M165.9,41.8l-1.4,3.7h2.7L165.9,41.8z M168.7,49.5l-0.7-2h-4.1l-0.7,2h-2.4l4.1-10.4h2.1
					l4.2,10.4H168.7z"/>
				<path id="Fill-207" class="st3" d="M176.5,49.7c-0.7,0-1.5-0.1-2.1-0.4c-0.7-0.3-1.2-0.7-1.7-1.1c-0.5-0.5-0.8-1.1-1.1-1.7
					c-0.3-0.7-0.4-1.4-0.4-2.1c0-0.8,0.1-1.5,0.4-2.2c0.3-0.7,0.6-1.2,1.1-1.7s1-0.9,1.7-1.1c0.7-0.3,1.4-0.4,2.1-0.4
					c1.3,0,2.4,0.4,3.3,1.1c0.9,0.8,1.5,1.8,1.7,3h-2.3c-0.2-0.6-0.6-1.1-1.1-1.5s-1.1-0.5-1.7-0.5c-0.9,0-1.6,0.3-2.2,0.9
					c-0.6,0.6-0.9,1.4-0.9,2.3c0,0.9,0.3,1.7,0.9,2.3c0.6,0.6,1.3,0.9,2.2,0.9c0.7,0,1.3-0.2,1.8-0.6c0.5-0.4,0.8-0.9,1-1.6h2.3
					c-0.2,1.3-0.8,2.3-1.7,3.1S177.8,49.7,176.5,49.7"/>
				<polygon id="Fill-208" class="st3" points="191.6,49.5 188.8,49.5 185.1,44.4 185.1,49.5 182.9,49.5 182.9,39.1 185.1,39.1 
					185.1,43.9 188.6,39.1 191.2,39.1 187.6,44.1 				"/>
				<polygon id="Fill-209" class="st3" points="194.6,47.4 198.6,47.4 198.6,49.5 192.3,49.5 192.3,39.1 194.6,39.1 				"/>
				<path id="Fill-210" class="st3" d="M202,46.6c0.6,0.6,1.4,1,2.3,1s1.7-0.3,2.3-0.9c0.6-0.6,0.9-1.4,0.9-2.4
					c0-0.9-0.3-1.7-0.9-2.4c-0.6-0.6-1.4-0.9-2.3-0.9s-1.7,0.3-2.3,0.9c-0.6,0.6-0.9,1.4-0.9,2.3C201.1,45.2,201.4,46,202,46.6
					 M204.3,49.7c-0.8,0-1.5-0.1-2.2-0.4c-0.7-0.3-1.3-0.7-1.8-1.1c-0.5-0.5-0.9-1.1-1.2-1.7c-0.3-0.7-0.4-1.4-0.4-2.1
					c0-0.8,0.1-1.5,0.4-2.1c0.3-0.7,0.7-1.2,1.2-1.7s1.1-0.9,1.8-1.1c0.7-0.3,1.4-0.4,2.2-0.4s1.5,0.1,2.2,0.4
					c0.7,0.3,1.3,0.7,1.8,1.1c0.5,0.5,0.9,1.1,1.1,1.7c0.3,0.7,0.4,1.4,0.4,2.1c0,0.8-0.1,1.5-0.4,2.1c-0.3,0.7-0.7,1.2-1.1,1.7
					c-0.5,0.5-1.1,0.9-1.8,1.1C205.8,49.6,205.1,49.7,204.3,49.7"/>
				<path id="Fill-211" class="st3" d="M215.8,44.1h5.5c0,1.1-0.2,2-0.7,2.9c-0.4,0.9-1.1,1.5-1.9,2c-0.8,0.5-1.7,0.7-2.7,0.7
					c-0.8,0-1.5-0.1-2.1-0.4c-0.7-0.3-1.2-0.6-1.7-1.1s-0.9-1-1.1-1.7c-0.3-0.7-0.4-1.4-0.4-2.2s0.1-1.5,0.4-2.2
					c0.3-0.7,0.6-1.2,1.1-1.7s1-0.9,1.7-1.1c0.7-0.3,1.4-0.4,2.1-0.4c0.8,0,1.6,0.2,2.4,0.5c0.7,0.3,1.4,0.8,1.8,1.4
					c0.5,0.6,0.8,1.3,1,2.1h-2.3c-0.2-0.6-0.6-1-1.1-1.3s-1.1-0.5-1.7-0.5c-0.9,0-1.7,0.3-2.2,0.9c-0.6,0.6-0.9,1.4-0.9,2.4
					s0.3,1.7,0.9,2.4c0.6,0.6,1.3,0.9,2.3,0.9c0.7,0,1.3-0.2,1.8-0.5s0.9-0.8,1.1-1.3H216v-1.8H215.8z"/>
				<path id="Fill-212" class="st3" d="M377.9,49.7c-1.2,0-2.2-0.3-2.9-1s-1.1-1.5-1.1-2.6h2.3c0,0.5,0.2,0.8,0.5,1.1
					s0.8,0.4,1.2,0.4c0.4,0,0.8-0.1,1.2-0.3c0.3-0.2,0.5-0.5,0.5-0.9c0-0.1,0-0.2-0.1-0.4c0-0.1-0.1-0.2-0.2-0.3s-0.2-0.2-0.3-0.2
					c-0.1-0.1-0.2-0.1-0.4-0.2c-0.2-0.1-0.4-0.1-0.5-0.1s-0.3-0.1-0.6-0.1c-0.9-0.2-1.5-0.4-1.9-0.6c-0.9-0.4-1.4-1.1-1.5-2
					c0-0.1,0-0.3,0-0.4c0-1,0.3-1.7,1-2.3s1.6-0.8,2.8-0.8c1.2,0,2.1,0.3,2.8,0.9c0.7,0.6,1,1.4,1,2.5h-2.2c0-0.4-0.2-0.7-0.5-1
					c-0.3-0.2-0.7-0.3-1.1-0.3s-0.7,0.1-1,0.3s-0.4,0.4-0.4,0.7c0,0.1,0,0.3,0.1,0.4c0.1,0.1,0.2,0.2,0.3,0.3
					c0.1,0.1,0.3,0.1,0.5,0.2c0.2,0.1,0.4,0.1,0.5,0.2c0.1,0,0.4,0.1,0.6,0.2c0.2,0.1,0.4,0.1,0.5,0.1s0.3,0.1,0.5,0.2
					c0.2,0.1,0.4,0.1,0.5,0.2c0.1,0.1,0.3,0.1,0.5,0.2c0.2,0.1,0.4,0.2,0.5,0.3s0.2,0.2,0.4,0.4c0.1,0.2,0.2,0.3,0.3,0.5
					c0.1,0.2,0.1,0.4,0.2,0.6c0.1,0.2,0.1,0.5,0.1,0.7c0,0.5-0.1,1-0.3,1.5c-0.2,0.4-0.5,0.8-0.9,1c-0.4,0.3-0.8,0.5-1.2,0.6
					C379,49.6,378.4,49.7,377.9,49.7"/>
				<path id="Fill-213" class="st3" d="M387.2,44.2c0.4,0,0.8-0.1,1.1-0.4c0.3-0.3,0.4-0.6,0.4-1.1c0-0.4-0.1-0.8-0.4-1.1
					s-0.6-0.4-1.1-0.4h-1.7v3H387.2z M387.3,39.1c0.7,0,1.3,0.2,1.9,0.5s1,0.7,1.3,1.3c0.3,0.5,0.5,1.2,0.5,1.8c0,1-0.4,1.9-1.1,2.6
					c-0.7,0.7-1.6,1-2.6,1h-1.8v3.2h-2.2V39.1H387.3z"/>
				<path id="Fill-214" class="st3" d="M394.5,41.2v2.7h1.8c0.5,0,0.8-0.1,1.1-0.4c0.3-0.2,0.4-0.6,0.4-1s-0.1-0.7-0.4-1
					s-0.6-0.4-1.1-0.4h-1.8V41.2z M398,49.5l-2-3.5h-1.4v3.5h-2.2V39.1h4.2c1,0,1.9,0.3,2.6,1c0.7,0.6,1,1.5,1,2.5
					c0,0.7-0.2,1.3-0.5,1.8s-0.8,0.9-1.4,1.2l2.3,3.9H398z"/>
				<polygon id="Fill-215" class="st3" points="401.7,49.5 404,49.5 404,39.1 401.7,39.1 				"/>
				<polygon id="Fill-216" class="st3" points="412.7,39.1 414.9,39.1 414.9,49.5 413,49.5 408.3,43 408.3,49.5 406.1,49.5 
					406.1,39.1 408.1,39.1 412.7,45.4 				"/>
				<polygon id="Fill-217" class="st3" points="424.1,39.1 424.1,41.2 421.2,41.2 421.2,49.5 418.9,49.5 418.9,41.2 416.1,41.2 
					416.1,39.1 				"/>
				<path id="Fill-218" class="st3" d="M432.3,47.4c0.4,0,0.7-0.1,0.9-0.3c0.2-0.2,0.3-0.5,0.3-0.8s-0.1-0.6-0.3-0.8
					c-0.2-0.2-0.5-0.3-0.9-0.3h-2v2.3h2V47.4z M433,42.9c0.2-0.2,0.3-0.5,0.3-0.8s-0.1-0.6-0.3-0.8c-0.2-0.2-0.5-0.3-0.8-0.3h-1.9
					v2.2h1.9C432.5,43.2,432.8,43.1,433,42.9z M434.3,44c0.5,0.2,0.8,0.6,1.1,1c0.2,0.4,0.4,0.9,0.4,1.5c0,0.8-0.3,1.5-1,2.1
					c-0.6,0.6-1.4,0.9-2.3,0.9h-4.4V39.1h4.3c0.9,0,1.6,0.3,2.2,0.8s0.9,1.1,0.9,1.9c0,0.4-0.1,0.9-0.3,1.3
					C435,43.4,434.7,43.7,434.3,44z"/>
				<path id="Fill-219" class="st3" d="M441.2,41.8l-1.4,3.7h2.7L441.2,41.8z M444,49.5l-0.7-2h-4.1l-0.7,2H436l4.1-10.4h2.1
					l4.2,10.4H444z"/>
				<path id="Fill-220" class="st3" d="M451.7,49.7c-0.7,0-1.5-0.1-2.1-0.4c-0.7-0.3-1.2-0.7-1.7-1.1c-0.5-0.5-0.8-1.1-1.1-1.7
					c-0.3-0.7-0.4-1.4-0.4-2.1c0-0.8,0.1-1.5,0.4-2.2s0.6-1.2,1.1-1.7s1-0.9,1.7-1.1c0.7-0.3,1.4-0.4,2.1-0.4c1.3,0,2.4,0.4,3.3,1.1
					c0.9,0.8,1.5,1.8,1.7,3h-2.3c-0.2-0.6-0.6-1.1-1.1-1.5s-1.1-0.5-1.7-0.5c-0.9,0-1.6,0.3-2.2,0.9c-0.6,0.6-0.9,1.4-0.9,2.3
					c0,0.9,0.3,1.7,0.9,2.3s1.3,0.9,2.2,0.9c0.7,0,1.3-0.2,1.8-0.6c0.5-0.4,0.8-0.9,1-1.6h2.3c-0.2,1.3-0.8,2.3-1.7,3.1
					S453,49.7,451.7,49.7"/>
				<polygon id="Fill-221" class="st3" points="466.8,49.5 464,49.5 460.4,44.4 460.4,49.5 458.1,49.5 458.1,39.1 460.4,39.1 
					460.4,43.9 463.8,39.1 466.4,39.1 462.9,44.1 				"/>
				<polygon id="Fill-222" class="st3" points="469.8,47.4 473.8,47.4 473.8,49.5 467.5,49.5 467.5,39.1 469.8,39.1 				"/>
				<path id="Fill-223" class="st3" d="M477.2,46.6c0.6,0.6,1.4,1,2.3,1s1.7-0.3,2.3-0.9c0.6-0.6,0.9-1.4,0.9-2.4
					c0-0.9-0.3-1.7-0.9-2.4c-0.6-0.6-1.4-0.9-2.3-0.9s-1.7,0.3-2.3,0.9c-0.6,0.6-0.9,1.4-0.9,2.3C476.3,45.2,476.6,46,477.2,46.6
					 M479.5,49.7c-0.8,0-1.5-0.1-2.2-0.4c-0.7-0.3-1.3-0.7-1.8-1.1c-0.5-0.5-0.9-1.1-1.2-1.7c-0.3-0.7-0.4-1.4-0.4-2.1
					c0-0.8,0.1-1.5,0.4-2.1c0.3-0.7,0.7-1.2,1.2-1.7s1.1-0.9,1.8-1.1s1.4-0.4,2.2-0.4c0.8,0,1.5,0.1,2.2,0.4
					c0.7,0.3,1.3,0.7,1.8,1.1c0.5,0.5,0.9,1.1,1.1,1.7c0.3,0.7,0.4,1.4,0.4,2.1c0,0.8-0.1,1.5-0.4,2.1c-0.3,0.7-0.7,1.2-1.1,1.7
					c-0.5,0.5-1.1,0.9-1.8,1.1C481,49.6,480.3,49.7,479.5,49.7"/>
				<path id="Fill-224" class="st3" d="M491.1,44.1h5.5c0,1.1-0.2,2-0.7,2.9c-0.4,0.9-1.1,1.5-1.9,2s-1.7,0.7-2.7,0.7
					c-0.8,0-1.5-0.1-2.1-0.4c-0.7-0.3-1.2-0.6-1.7-1.1s-0.9-1-1.1-1.7c-0.3-0.7-0.4-1.4-0.4-2.2s0.1-1.5,0.4-2.2s0.6-1.2,1.1-1.7
					s1-0.9,1.7-1.1c0.7-0.3,1.4-0.4,2.1-0.4c0.9,0,1.6,0.2,2.4,0.5c0.7,0.3,1.4,0.8,1.8,1.4c0.5,0.6,0.8,1.3,1,2.1h-2.3
					c-0.2-0.6-0.6-1-1.1-1.3s-1.1-0.5-1.7-0.5c-0.9,0-1.7,0.3-2.2,0.9c-0.6,0.6-0.9,1.4-0.9,2.4s0.3,1.7,0.9,2.4
					c0.6,0.6,1.3,0.9,2.3,0.9c0.7,0,1.3-0.2,1.8-0.5s0.9-0.8,1.1-1.3h-3.1v-1.8H491.1z"/>
				<path id="Fill-225" class="st3" d="M386.9,9.4c0.4,0,0.7-0.1,0.9-0.3c0.2-0.2,0.3-0.5,0.3-0.8c0-0.3-0.1-0.6-0.3-0.8
					c-0.2-0.2-0.5-0.3-0.9-0.3h-2v2.3L386.9,9.4L386.9,9.4z M387.7,4.9c0.2-0.2,0.3-0.5,0.3-0.8s-0.1-0.6-0.3-0.8
					c-0.2-0.2-0.5-0.3-0.8-0.3H385v2.2h1.9C387.2,5.2,387.4,5.1,387.7,4.9z M389,5.9c0.5,0.2,0.8,0.6,1.1,1c0.3,0.4,0.4,0.9,0.4,1.5
					c0,0.8-0.3,1.5-1,2.1c-0.6,0.6-1.4,0.9-2.3,0.9h-4.4V1h4.3c0.9,0,1.6,0.3,2.2,0.8s0.9,1.1,0.9,1.9c0,0.4-0.1,0.9-0.3,1.3
					C389.6,5.4,389.3,5.7,389,5.9z"/>
				<path id="Fill-226" class="st3" d="M395.8,3.8l-1.4,3.7h2.7L395.8,3.8z M398.6,11.4l-0.7-2h-4.1l-0.7,2h-2.4l4-10.4h2.1
					l4.2,10.4H398.6z"/>
				<polygon id="Fill-227" class="st3" points="401.2,12.6 405.7,0.1 408,0.1 403.5,12.6 				"/>
				<polygon id="Fill-228" class="st3" points="416.3,1 416.3,3.1 413.5,3.1 413.5,11.4 411.2,11.4 411.2,3.1 408.3,3.1 408.3,1 
									"/>
				<polygon id="Fill-229" class="st3" points="419.8,9.3 423.9,9.3 423.9,11.4 417.6,11.4 417.6,1 423.8,1 423.8,3.1 419.8,3.1 
					419.8,5.2 423.4,5.2 423.4,7.2 419.8,7.2 				"/>
				<path id="Fill-230" class="st3" d="M429.6,3.8l-1.4,3.7h2.7L429.6,3.8z M432.4,11.4l-0.7-2h-4.1l-0.7,2h-2.4L428.6,1h2.1
					l4.2,10.4H432.4z"/>
				<polygon id="Fill-231" class="st3" points="448.6,11.4 446.3,11.4 445.3,4.6 442.2,11.4 441.6,11.4 438.5,4.6 437.5,11.4 
					435.2,11.4 436.9,1 439.1,1 441.9,7.4 444.7,1 447,1 				"/>
				<polygon id="Fill-232" class="st3" points="455.5,9.3 459.5,9.3 459.5,11.4 453.3,11.4 453.3,1 455.5,1 				"/>
				<polygon id="Fill-233" class="st3" points="463,9.3 467.1,9.3 467.1,11.4 460.7,11.4 460.7,1 467,1 467,3.1 463,3.1 463,5.2 
					466.6,5.2 466.6,7.2 463,7.2 				"/>
				<path id="Fill-234" class="st3" d="M472.8,3.8l-1.4,3.7h2.7L472.8,3.8z M475.6,11.4l-0.7-2h-4.1l-0.7,2h-2.4l4-10.4h2.1
					l4.2,10.4H475.6z"/>
				<path id="Fill-235" class="st3" d="M482.9,9.3c0.9,0,1.6-0.3,2.2-0.9c0.6-0.6,0.8-1.3,0.8-2.2s-0.3-1.7-0.8-2.2
					c-0.6-0.6-1.3-0.9-2.2-0.9h-1.6v6.2C481.3,9.3,482.9,9.3,482.9,9.3z M483,1c0.8,0,1.5,0.1,2.1,0.4c0.7,0.3,1.2,0.6,1.7,1.1
					s0.8,1,1.1,1.6c0.3,0.6,0.4,1.3,0.4,2.1c0,0.7-0.1,1.4-0.4,2.1c-0.3,0.6-0.6,1.2-1.1,1.7s-1,0.8-1.7,1.1s-1.4,0.4-2.1,0.4h-3.9
					V1H483z"/>
				<polygon id="Fill-236" class="st3" points="656,0.1 656,2.2 653.1,2.2 653.1,10.5 650.9,10.5 650.9,2.2 648,2.2 648,0.1 				"/>
				<polygon id="Fill-237" class="st3" points="659.4,8.4 663.6,8.4 663.6,10.5 657.2,10.5 657.2,0.1 663.4,0.1 663.4,2.2 
					659.4,2.2 659.4,4.3 663,4.3 663,6.3 659.4,6.3 				"/>
				<path id="Fill-238" class="st3" d="M669.3,2.9l-1.4,3.7h2.7L669.3,2.9z M672.1,10.5l-0.7-2h-4.1l-0.7,2h-2.4l4.1-10.4h2.1
					l4.2,10.4H672.1z"/>
				<polygon id="Fill-239" class="st3" points="688.3,10.5 686,10.5 684.9,3.7 681.8,10.5 681.3,10.5 678.2,3.7 677.2,10.5 
					674.9,10.5 676.5,0.1 678.8,0.1 681.6,6.5 684.4,0.1 686.6,0.1 				"/>
				<g id="Stroke-240">
					<rect x="400.3" y="23.5" class="st7" width="69.5" height="1.9"/>
				</g>
				<g id="Stroke-241">
					<rect x="111" y="23.5" class="st7" width="77.8" height="1.9"/>
				</g>
				<polygon id="Fill-242" class="st9" points="107.5,292.5 110.2,290.4 110,284.2 105.6,282.4 103.1,289.5 				"/>
				<path id="Fill-243" class="st9" d="M48.4,318c0,0-11.8,19.3-10.1,22.5s33.6,5.3,33.6,5.3l-0.7-5.3c0,0-23.1-2.9-23.6-3.8
					s11-19,11-19L48.4,318z"/>
				<path id="Fill-244" class="st0" d="M56.1,307.9c-3.4,0-8,5.2-7,13.7s4.4,27.9,4.4,27.9h23.7c0,0,3.7-33.8,0.9-36.5
					c-2.8-2.7-6.2-5.1-6.2-5.1H56.1"/>
				<path id="Fill-245" class="st9" d="M88.6,318.6c0,0,14.6-0.4,16.1-3.7c1.5-3.3,4.2-27.6,4.2-27.6l-5.6,3.2
					c0,0-4.9,18.6-5.3,19.6s-15.8,0.6-15.8,0.6L88.6,318.6z"/>
				<path id="Fill-246" class="st10" d="M71.1,309.4c3.9-0.9,10.8-0.6,18.1,0.5l0.7,9.6H75.4c-3.1,0.2-5.9-1.8-6.7-4.9
					C68.2,312.9,69.3,309.8,71.1,309.4"/>
				<path id="Fill-247" class="st9" d="M80.9,283.7c0,0,2.6,7.5-1.7,15.5c-0.3,0.5-3.6-0.1-4.7,1.2c-1.1,1.3-2.8,6.8-2.8,6.8
					l-6-12.8l8.7-13.9L80.9,283.7z"/>
				<path id="Fill-248" class="st11" d="M71.9,274.6c4.3,0,11.7,2.2,11.3,7.1c-0.5,4.9-5.3,3.7-6.8,7.2s-5.1,7.7-4.4,12.2
					c0.6,4.5,2.3,12.2,0.5,15.3c-1.8,3.2-8.4,5.3-9,7c-0.6,1.6-6.8,10.3-13.8,4.7s-11.3-11.3-4.3-18.2c8.6-8.6,2.7-16,6.2-20.8
					C55.1,284.2,61,274.6,71.9,274.6"/>
				<path id="Fill-249" class="st9" d="M76.2,291.3c0-0.2-0.1-0.4-0.2-0.6c-0.6-0.5-2.1-1.4-3,0.1c-1.1,1.6,0.5,3.7,2,4.3
					c0.4,0.1,0.8-0.1,0.8-0.5L76.2,291.3z"/>
				<path id="Fill-250" class="st11" d="M49.3,472.5v5.4c0,0.7,0.5,1.2,1,1.2h18.2v-0.7c0-0.5-0.4-1-0.9-1.2
					c-2.2-0.6-7.9-2.4-10.7-5C52.2,468.1,49.3,472.5,49.3,472.5"/>
				<path id="Fill-251" class="st11" d="M77.2,472.4v5.4c0,0.7,0.5,1.2,1,1.2h18.2v-0.7c0-0.5-0.4-1-0.9-1.2
					c-2.2-0.6-7.8-2.3-10.6-4.8C80.3,468.2,77.2,472.4,77.2,472.4"/>
				<path id="Fill-252" class="st4" d="M65.3,349.5H53.5c0,0-8.3,6.3-7.2,18.6c0.9,9.6,2.9,104.5,2.9,104.5l7.6-0.1l8.5-75V349.5"/>
				<path id="Fill-253" class="st12" d="M77.2,349.5l7.7,122.9h-7.7c0,0-18.5-90.1-21.6-102.3C52.7,359,60,349.5,60,349.5"/>
				<path id="Fill-254" class="st9" d="M103,283.7c0,0-1.1,5.6-0.4,6.6c1.5,2.3,5,1.7,5,1.7s2.3-0.5,2.6-1.7
					c0.3-1.2,0.2-6.5-0.9-6.5c-0.5,0-1-0.2-1.5-0.1c-0.8,0.3-0.7,1.3-1.7,1.6c-1.7,0.6-1.2-0.8-1.9-1.4
					C103.9,283.7,103.8,283.6,103,283.7"/>
				<path id="Fill-255" class="st9" d="M343.2,270.3c0,0-5.5,7.6-0.4,20.2c0.4,1,7.5-0.2,7.5-0.2s-0.6,3.7-1.4,6
					c-0.3,0.9-1,3.2-0.8,4.1c0.9,3.1,17.6,4.2,14.6-1.9c-2.5-5.2-2.9-9.3-2.9-9.3S359.6,262.1,343.2,270.3"/>
				<path id="Fill-256" class="st11" d="M374.6,470.6v7c0,0.9-0.6,1.6-1.3,1.6h-19.8v-0.9c0-0.7,0.5-1.3,1.1-1.5
					c2.8-0.8,6.5-3.1,10.2-6.4C370.8,465,374.6,470.6,374.6,470.6"/>
				<path id="Fill-257" class="st11" d="M339.5,470.6v7c0,0.9-0.6,1.6-1.3,1.6h-23.5v-0.9c0-0.7,0.5-1.3,1.1-1.5
					c2.8-0.8,10.2-3.1,13.9-6.4C335.7,465,339.5,470.6,339.5,470.6"/>
				<polygon id="Fill-258" class="st4" points="376.5,352.7 374.6,470.6 364.8,470.4 351.7,365 353.5,339.3 				"/>
				<path id="Fill-259" class="st9" d="M357.4,312.1l7-10c0,0,16.3,15.7,16.4,19.6c0.2,7-25.3,18.7-25.3,18.7s-5.2,10.2-5.3,12.1
					c-0.2,1.8-1.9-8.3-2.9-12c-0.6-2.2-4.4,0.6-5.3-0.2c-0.9-0.8,7.3-7.1,9.1-6.2c1.3,0.6,19.2-10.4,19.2-11.9
					C370.4,320.4,357.4,312.1,357.4,312.1"/>
				<polygon id="Fill-260" class="st12" points="366.2,353.1 339.5,470.6 329.5,470.6 336.2,352.7 				"/>
				<path id="Fill-261" class="st0" d="M350,296c0,0-5.5-1.6-10.5,13.5s-3.6,44.2-3.6,44.2h40.6c0,0,3.3-50.4-15-57.2
					c0,0-2,2.4-5.4,2.2C352.7,298.6,350,296,350,296"/>
				<path id="Fill-262" class="st9" d="M314.7,299.7c0.2,2.3,7.1,19.5,8.6,19.7c1.8,0.3,10.8-11.5,10.8-11.5l9.1,8.1
					c0,0-17.5,14.4-21.3,14.1c-6.8-0.6-11.7-26.6-12.4-28C311.7,300.7,314.7,299.7,314.7,299.7"/>
				<path id="Fill-263" class="st10" d="M340.8,319.7c0,0,15.7-13.2,10.2-18.2s-19,8-19,8S336.6,317.3,340.8,319.7"/>
				<path id="Fill-264" class="st11" d="M340,262c0.4,3,1.3,7.5,3.3,8.3l0,0c0.3-0.1,7.2-2.5,11.6,5c4.2,7.2,4,13.5,4,13.5
					c0.4-0.9,9.2-2.5,9.2-13.7c0-3.4-3.1-4.3-3.5-4.9c-0.5-0.7-0.2-3.2-0.8-3.9c-3.9-4.6-13.3-3-16.1-5.5
					C345.7,258.9,339.5,258.1,340,262"/>
				<path id="Fill-265" class="st9" d="M355,276.8c0-0.3,0.2-0.5,0.5-0.6c0.8-0.3,2.8-0.8,3.4,1.2c0.6,2.2-1.9,4-3.7,4.1
					c-0.5,0-0.8-0.4-0.8-0.9L355,276.8z"/>
				<path id="Fill-266" class="st9" d="M310.1,295.1c1.6,0.9,0.3-3.5,1-4c0.4-0.3,1.6,2.6,3.1,4.8c1,1.6,0.5,3.6,0.5,3.8
					c-1.3,1.4-3.4,1.7-5.2,2.5c-0.1-0.4,0-1-0.9-1.3c-0.6-0.2-2.1-1-2.4-1.6c-1-2-0.9-6.1-1-8.2
					C305.2,290.8,307.6,293.7,310.1,295.1"/>
				<polygon id="Fill-50_1_" class="st3" points="765.6,547.8 765.6,549.9 762.7,549.9 762.7,558.2 760.5,558.2 760.5,549.9 
					757.6,549.9 757.6,547.8 				"/>
			</g>
		</g>
	</g>
</g>
</svg>
