<?xml version="1.0" encoding="UTF-8"?>
<svg width="404px" height="380px" viewBox="0 0 404 380" version="1.1" xmlns="http://www.w3.org/2000/svg" xmlns:xlink="http://www.w3.org/1999/xlink">
    <!-- Generator: Sketch 51.3 (57544) - http://www.bohemiancoding.com/sketch -->
    <title>Group 47</title>
    <desc>Created with Sketch.</desc>
    <defs>
        <polygon id="path-1" points="0.368025 0.3114 8.7105 0.3114 8.7105 8.4384 0.368025 8.4384"></polygon>
        <polygon id="path-3" points="0 380 404 380 404 0 0 0"></polygon>
    </defs>
    <g id="Page-1" stroke="none" stroke-width="1" fill="none" fill-rule="evenodd">
        <g id="Development-Development" transform="translate(-887.000000, -3108.000000)">
            <g id="Group-47" transform="translate(887.000000, 3108.000000)">
                <path d="M357.743459,186.546078 C357.29045,186.922414 356.907566,187.377942 356.603223,187.901448 L356.401262,188.249051 L235.196161,155.872943 L235.24034,155.429329 C235.255066,155.272347 235.264883,155.112562 235.264883,154.951375 C235.264883,152.174058 233.004047,149.91464 230.224985,149.91464 C230.044763,149.91464 229.867346,149.925152 229.692033,149.943374 L229.250245,149.990328 L217.981826,109.562592 L194.630835,25.7812316 L195.033353,25.5927132 C195.315958,25.4588581 195.583836,25.3018762 195.829274,25.1259725 L196.191822,24.8652704 L209.544361,38.1617744 L358.188052,186.17675 L357.743459,186.546078 Z M199.627255,352.548091 C199.287148,352.886584 198.924601,353.226477 198.557145,353.567072 L196.99195,354.990421 L196.63922,354.599368 C196.142033,354.04853 195.552981,353.623838 194.888194,353.337906 L194.503908,353.171814 L194.578241,352.760437 L218.414498,221.93848 L231.64502,219.09038 L356.263116,192.266805 L356.444039,192.634732 C356.763108,193.279479 357.20069,193.835923 357.743459,194.287947 L358.187351,194.657275 L199.627255,352.548091 Z M193.276717,352.947554 C192.932402,352.921624 192.648395,352.923026 192.241669,352.976288 L191.76622,353.039361 L165.641076,238.048043 L166.052711,237.879147 C167.953805,237.097041 169.182399,235.269324 169.182399,233.221551 C169.182399,233.1767 169.179594,233.132548 169.176789,233.088397 L169.14944,232.543166 L217.592631,222.115085 L217.180996,224.376605 L193.74866,352.982595 L193.276717,352.947554 Z M190.525004,353.525023 C190.073398,353.767504 189.659659,354.080767 189.293605,354.455701 L188.905112,354.854463 L177.476808,342.371602 L38.7270815,190.809117 L39.0026735,190.458711 C39.170974,190.243561 39.3189382,190.022806 39.4423585,189.80205 L39.6583442,189.4138 L145.394527,226.974514 C147.325074,227.660609 149.304007,228.432904 151.216322,229.179969 C153.695949,230.148491 156.260427,231.149952 158.798259,231.995131 L159.209893,232.131789 L159.153092,232.562087 C159.120133,232.815081 159.104004,233.024623 159.104004,233.221551 C159.104004,235.997467 161.364841,238.256885 164.143202,238.256885 C164.184575,238.256885 164.225949,238.254082 164.268024,238.251278 L164.794665,238.226049 L164.958056,238.838559 C165.160718,239.595436 165.361276,240.346706 165.528174,241.083259 L180.307061,306.128414 C181.621908,311.915018 182.895382,317.828469 184.128183,323.547094 C186.210902,333.211991 188.363745,343.206269 190.786571,352.93494 L190.885448,353.331599 L190.525004,353.525023 Z M186.726322,28.1107303 C187.386901,27.4148241 188.13093,26.7027992 188.849713,26.0146019 L189.848296,25.0544896 L190.198221,25.2780486 C190.587415,25.5268369 190.997648,25.7188593 191.417698,25.8485095 L191.843358,25.9802621 L173.132551,164.038102 L39.9458575,186.152222 L39.8021008,185.731734 C39.6295928,185.230654 39.3792459,184.760409 39.0573712,184.334316 L38.7880904,183.979004 L186.726322,28.1107303 Z M164.953148,224.388518 C164.833234,225.273644 164.670543,226.197314 164.51206,227.090148 L164.322021,228.177808 L163.90127,228.198132 C162.150944,228.281528 160.594866,229.246546 159.740741,230.778521 L159.523353,231.166771 L109.693787,213.465664 L53.534018,193.515652 C51.6273138,192.837967 49.6897544,192.114729 47.8153077,191.415319 C45.3770544,190.504964 42.8553522,189.564475 40.3609987,188.707382 L39.9458575,188.565117 L40.0124764,188.131314 C40.0573566,187.836973 40.0783941,187.59239 40.0783941,187.360421 L40.0783941,186.914705 L173.023857,164.841233 L164.953148,224.388518 Z M228.86105,160.27264 L217.744101,221.283922 L168.988152,231.77858 L168.824059,231.365802 C168.262356,229.958571 167.067422,228.85269 165.62635,228.408375 L165.201391,228.276623 L173.816272,164.70948 L225.316922,156.158173 L225.46138,156.578661 C225.952958,158.009018 227.0967,159.170263 228.522345,159.683958 L228.940291,159.834633 L228.86105,160.27264 Z M355.965785,191.041085 L356.026794,191.519039 L218.56667,221.106616 L225.999942,180.308852 L229.704656,159.977598 L230.231296,159.98741 C232.188491,159.98741 233.987202,158.827566 234.806265,157.034188 L234.991395,156.62982 L356.108139,188.981399 L356.015574,189.462156 C355.953162,189.786632 355.921606,190.107604 355.921606,190.417363 C355.921606,190.629008 355.939838,190.835747 355.965785,191.041085 Z M192.547415,27.0293775 L192.710105,26.0790766 L193.212202,26.0566506 C193.286535,26.0531466 193.360867,26.0503433 193.433797,26.0433352 L193.876287,25.99568 L205.144706,66.4241164 L228.495698,150.206178 L228.09388,150.394696 C226.327426,151.224458 225.186489,153.012229 225.186489,154.949974 L225.186489,155.39569 L173.925667,163.907051 L192.091601,29.8683665 C192.218528,28.9348851 192.385426,27.9656622 192.547415,27.0293775 Z M359.067422,195.088975 L359.358442,195.187089 C359.882979,195.363693 360.42154,195.452696 360.960803,195.452696 C363.739865,195.452696 366,193.193979 366,190.417363 C366,187.640746 363.739865,185.380628 360.960803,185.380628 C360.381569,185.380628 359.802335,185.485049 359.23993,185.690387 L358.925068,185.806021 L305.72248,132.828146 L200.182647,27.7336935 C199.47298,27.0265743 198.782247,26.2661934 198.050841,25.4609605 C197.752107,25.1308781 197.450569,24.7993941 197.146226,24.4693117 L196.865725,24.1651593 L197.095034,23.8210607 C197.647621,22.9941027 197.940043,22.0304863 197.940043,21.0360343 C197.940043,18.2587167 195.679908,16 192.901547,16 C190.123187,16 187.86235,18.2587167 187.86235,21.0360343 C187.86235,22.1321041 188.215781,23.1777154 188.884074,24.0614392 L189.152654,24.4174516 L41.2137212,180.285024 C40.5517393,180.983033 39.8378647,181.662821 39.0812138,182.383255 L38.0854359,183.336359 L37.7362124,183.114202 C36.925565,182.597003 35.9928998,182.323686 35.0384958,182.323686 C32.2601353,182.323686 30,184.583104 30,187.35972 C30,190.137038 32.2601353,192.395755 35.0384958,192.395755 C36.0104311,192.395755 36.9578226,192.114028 37.7775862,191.581411 L38.1513536,191.337529 L186.170229,353.023943 C186.818887,353.733164 187.449313,354.504758 188.117606,355.321905 L188.40582,355.673712 L188.278193,355.967353 C188.001899,356.602288 187.86235,357.273666 187.86235,357.963966 C187.86235,360.741283 190.123187,363 192.901547,363 C195.679908,363 197.940043,360.741283 197.940043,357.963966 C197.940043,357.339542 197.821531,356.722828 197.588716,356.129941 L197.463192,355.808969 L356.274336,197.667963 C356.983301,196.962245 357.746264,196.276851 358.553405,195.55081 L359.067422,195.088975 Z" id="Fill-1" fill="#19E69B"></path>
                <path d="M3.55955171,186.387026 C3.96036679,186.387026 4.28772287,186.265935 4.53876719,186.023076 C4.79052471,185.780893 4.91533367,185.471061 4.91533367,185.094257 C4.91533367,184.717453 4.7912379,184.408975 4.54233316,184.168145 C4.29271523,183.927992 3.96535914,183.807577 3.55955171,183.807577 L2.0511462,183.807577 L2.0511462,186.387026 L3.55955171,186.387026 Z M3.65226694,182 C4.27845135,182 4.84686704,182.132592 5.35608762,182.398452 C5.8653082,182.664311 6.26683647,183.034351 6.55995925,183.509922 C6.85308202,183.98414 7,184.512477 7,185.094257 C7,185.981133 6.68048905,186.718506 6.04075395,187.306374 C5.40101885,187.894242 4.60509424,188.188515 3.65226694,188.188515 L2.0511462,188.188515 L2.0511462,191 L0,191 L0,182 L3.65226694,182 Z" id="Fill-3" fill="#19E69B"></path>
                <polygon id="Fill-5" fill="#19E69B" points="14.8621074 182 17 182 17 191 14.8621074 191 14.8621074 187.277962 11.1378926 187.277962 11.1378926 191 9 191 9 182 11.1378926 182 11.1378926 185.470385 14.8621074 185.470385"></polygon>
                <path d="M21.5595517,186.387026 C21.9603668,186.387026 22.2877229,186.265935 22.5387672,186.023076 C22.7905247,185.780893 22.9153337,185.471061 22.9153337,185.094257 C22.9153337,184.717453 22.7912379,184.408975 22.5423332,184.168145 C22.2927152,183.927992 21.9653591,183.807577 21.5595517,183.807577 L20.0511462,183.807577 L20.0511462,186.387026 L21.5595517,186.387026 Z M21.6522669,182 C22.2784513,182 22.846867,182.132592 23.3560876,182.398452 C23.8653082,182.664311 24.2668365,183.034351 24.5599592,183.509922 C24.853082,183.98414 25,184.512477 25,185.094257 C25,185.981133 24.680489,186.718506 24.0407539,187.306374 C23.4010188,187.894242 22.6050942,188.188515 21.6522669,188.188515 L20.0511462,188.188515 L20.0511462,191 L18,191 L18,182 L21.6522669,182 Z" id="Fill-7" fill="#19E69B"></path>
                <polygon id="Fill-9" fill="#19E69B" points="185 9 182.9457 9 182.029252 3.12537583 179.246978 8.98105833 178.753022 8.98105833 175.970748 3.13214071 175.0543 9 173 9 174.455947 0 176.478017 0 179.00035 5.51676188 181.528289 0 183.555964 0"></polygon>
                <path d="M190.904644,2 L193,2 L189.824292,9.2496777 C189.520998,9.94012319 189.225517,10.4772955 188.937139,10.8604784 C188.649472,11.2436614 188.314925,11.529437 187.932789,11.7178055 C187.549942,11.9061739 187.086833,12 186.54204,12 L185.731599,12 L185.731599,10.2130067 L186.417029,10.2130067 C186.88298,10.2130067 187.215396,10.1263429 187.415697,9.95373156 C187.615289,9.78112018 187.829797,9.41082939 188.0578,8.84429165 L188.084081,8.78412835 L185,2 L187.142236,2 L189.08559,6.5186936 L190.904644,2 Z" id="Fill-11" fill="#19E69B"></path>
                <path d="M196.54154,9 C195.480039,9 194.623835,8.73270554 193.974988,8.19876856 C193.32408,7.66417965 193,6.93726911 193,6.01803694 L194.987052,6.01803694 C194.987052,6.41767476 195.136047,6.72473741 195.43335,6.94052879 C195.729966,7.15632017 196.095929,7.26388989 196.528494,7.26388989 C196.923982,7.26388989 197.267974,7.17131474 197.560471,6.98616443 C197.853654,6.80036219 198.000589,6.55262586 198.000589,6.24230351 C198.000589,6.13342992 197.97999,6.03433539 197.93948,5.94567186 C197.899657,5.85700833 197.831682,5.77877581 197.735557,5.70967041 C197.640804,5.64121695 197.548798,5.58254256 197.462285,5.53429917 C197.375086,5.48605578 197.246003,5.43781239 197.07641,5.38891706 C196.906817,5.34067367 196.767435,5.30351322 196.659637,5.27743571 C196.551153,5.2513582 196.388426,5.21354582 196.172143,5.16530243 C195.407945,4.98797537 194.85591,4.82042738 194.516037,4.66331039 C193.709269,4.29692141 193.254733,3.73169142 193.152428,2.96957624 C193.135949,2.84896777 193.127023,2.72444766 193.127023,2.59471206 C193.127023,1.77261862 193.423639,1.1343716 194.015498,0.680622963 C194.60873,0.226874321 195.416184,0 196.439922,0 C197.484257,0 198.294458,0.24708439 198.869838,0.741253169 C199.445218,1.23477001 199.732908,1.91734879 199.732908,2.78833756 L197.77744,2.78833756 C197.77744,2.43368345 197.644237,2.16247736 197.379205,1.97537124 C197.113487,1.78761318 196.783914,1.69373415 196.388426,1.69373415 C196.036194,1.69373415 195.733399,1.76414343 195.480726,1.90561391 C195.228053,2.04643245 195.101717,2.24983702 195.101717,2.51647954 C195.101717,2.63317639 195.134674,2.74009417 195.200589,2.83658095 C195.266503,2.93371967 195.34409,3.01195219 195.43335,3.0725824 C195.522609,3.1332126 195.656498,3.19449475 195.835017,3.25708077 C196.012849,3.31966679 196.16665,3.36725824 196.29642,3.39920319 C196.425503,3.43180007 196.613634,3.47613184 196.860128,3.53219848 C197.068171,3.58044187 197.228151,3.61955813 197.340755,3.64759145 C197.453359,3.67562477 197.611967,3.71995654 197.815204,3.78058674 C198.019127,3.84056501 198.181167,3.89597972 198.299951,3.94683086 C198.418048,3.99703006 198.564983,4.06548352 198.739382,4.15219124 C198.913095,4.23889895 199.05179,4.32560666 199.156842,4.41231438 C199.26052,4.49902209 199.373124,4.60724375 199.493968,4.73567548 C199.615498,4.86541108 199.707504,5.00036219 199.770672,5.14118073 C199.835213,5.28265121 199.888769,5.44563564 199.933399,5.63143788 C199.978028,5.81658819 200,6.01412532 200,6.22404926 C200,6.67975371 199.908681,7.08656284 199.726729,7.44578051 C199.54409,7.80499819 199.294164,8.0957624 198.978323,8.31937704 C198.661795,8.54364361 198.296518,8.71314741 197.882491,8.82723651 C197.468465,8.94262948 197.021481,9 196.54154,9" id="Fill-13" fill="#19E69B"></path>
                <path d="M206.833174,8.1804261 C207.098053,8.1804261 207.367697,8.13941411 207.641427,8.0581225 L205.841073,5.81564581 L207.837532,5.81564581 L208.936538,7.18881491 C209.416587,6.60878828 209.656271,5.90719041 209.656271,5.08255659 C209.656271,4.19860186 209.387308,3.46331558 208.848019,2.87376831 C208.308729,2.28568575 207.637342,1.99054594 206.833174,1.99054594 C206.028326,1.99054594 205.352172,2.28788282 204.804712,2.88109188 C204.257933,3.47430093 203.983522,4.2081225 203.983522,5.08255659 C203.983522,5.95625832 204.257933,6.69154461 204.804712,7.28695073 C205.352172,7.88235686 206.028326,8.1804261 206.833174,8.1804261 Z M212,11 L210.003541,11 L208.948795,9.68908123 C208.292387,10.0054594 207.586273,10.1643808 206.833174,10.1643808 C206.150892,10.1643808 205.510827,10.0340213 204.912978,9.77330226 C204.314449,9.51331558 203.803078,9.15885486 203.377502,8.71065246 C202.951927,8.26171771 202.616233,7.72270306 202.36974,7.09360852 C202.123247,6.46378162 202,5.7936751 202,5.08255659 C202,4.37143808 202.123247,3.7005992 202.36974,3.0707723 C202.616233,2.44167776 202.951927,1.90266312 203.377502,1.45372836 C203.803078,1.00552597 204.314449,0.651065246 204.912978,0.391078562 C205.510827,0.130359521 206.150892,0 206.833174,0 C207.51069,0 208.148032,0.128894807 208.743838,0.387416778 C209.339643,0.645206391 209.849653,0.999667111 210.272504,1.45079893 C210.696037,1.9011984 211.029688,2.44021305 211.273458,3.06784288 C211.517908,3.69474035 211.640474,4.36631158 211.640474,5.08255659 C211.640474,5.81198402 211.514504,6.4930759 211.264606,7.12729694 C211.014027,7.76151798 210.663353,8.30932091 210.212583,8.77143808 L212,11 Z" id="Fill-15" fill="#19E69B"></path>
                <polygon id="Fill-17" fill="#19E69B" points="215.802231 7.19242333 219 7.19242333 219 9 214 9 214 0 215.802231 0"></polygon>
                <path d="M374.526641,193 C373.493417,193 372.648118,192.701346 371.988583,192.103377 C371.329768,191.505408 371,190.739239 371,189.805533 L371,189.485689 L373.044127,189.485689 L373.044127,189.706865 C373.044127,190.161798 373.17877,190.525348 373.448056,190.797513 C373.717342,191.069678 374.07735,191.206092 374.526641,191.206092 C374.95433,191.206092 375.299218,191.071003 375.562024,190.800824 C375.82555,190.530645 375.956593,190.165771 375.956593,189.706865 L375.956593,184 L378,184 L378,189.805533 C378,190.743212 377.681033,191.510043 377.041658,192.106026 C376.402283,192.702009 375.564184,193 374.526641,193" id="Fill-19" fill="#19E69B"></path>
                <path d="M381.591873,191.469177 C381.972312,191.864157 382.451277,192.062016 383.029486,192.062016 C383.608414,192.062016 384.087379,191.865633 384.467817,191.472868 C384.847537,191.080103 385.038116,190.584718 385.038116,189.986711 C385.038116,189.388704 384.847537,188.893319 384.467817,188.500554 C384.087379,188.107789 383.608414,187.911406 383.029486,187.911406 C382.451277,187.911406 381.972312,188.108527 381.591873,188.503507 C381.212154,188.898487 381.021575,189.393134 381.021575,189.986711 C381.021575,190.580288 381.212154,191.074197 381.591873,191.469177 Z M385.504854,186.198597 L387,186.198597 L387,193.774086 L385.431499,193.774086 L385.2589,193.096346 C384.58648,193.698782 383.791082,194 382.869112,194 C382.140597,194 381.479684,193.826504 380.88781,193.479513 C380.296656,193.132521 379.834232,192.651901 379.500539,192.038391 C379.166846,191.423403 379,190.739756 379,189.986711 C379,189.238095 379.166846,188.558878 379.500539,187.94832 C379.834232,187.33924 380.296656,186.862311 380.88781,186.517534 C381.479684,186.172757 382.140597,186 382.869112,186 C383.808342,186 384.615246,186.308601 385.291981,186.925065 L385.504854,186.198597 Z" id="Fill-21" fill="#19E69B"></path>
                <polygon id="Fill-23" fill="#19E69B" points="393.871947 186 396 186 392.985936 193 391.090303 193 388 186 390.19097 186 392.044412 190.690089"></polygon>
                <g id="Group-27" transform="translate(395.000000, 186.000000)">
                    <mask id="mask-2" fill="white">
                        <use xlink:href="#path-1"></use>
                    </mask>
                    <g id="Clip-26"></g>
                    <path d="M3.071025,5.8674 C3.467775,6.26865 3.967275,6.46965 4.570275,6.46965 C5.174025,6.46965 5.673525,6.27015 6.070275,5.87115 C6.466275,5.47215 6.665025,4.9689 6.665025,4.3614 C6.665025,3.7539 6.466275,3.25065 6.070275,2.85165 C5.673525,2.45265 5.174025,2.25315 4.570275,2.25315 C3.967275,2.25315 3.467775,2.4534 3.071025,2.85465 C2.675025,3.2559 2.476275,3.7584 2.476275,4.3614 C2.476275,4.9644 2.675025,5.46615 3.071025,5.8674 Z M7.151775,0.51315 L8.711025,0.51315 L8.711025,8.2089 L7.075275,8.2089 L6.895275,7.5204 C6.194025,8.1324 5.364525,8.4384 4.403025,8.4384 C3.643275,8.4384 2.954025,8.26215 2.336775,7.90965 C1.720275,7.55715 1.238025,7.0689 0.890025,6.44565 C0.542025,5.8209 0.368025,5.1264 0.368025,4.3614 C0.368025,3.6009 0.542025,2.9109 0.890025,2.29065 C1.238025,1.6719 1.720275,1.1874 2.336775,0.83715 C2.954025,0.4869 3.643275,0.3114 4.403025,0.3114 C5.382525,0.3114 6.224025,0.6249 6.929775,1.25115 L7.151775,0.51315 Z" id="Fill-25" fill="#19E69B" mask="url(#mask-2)"></path>
                </g>
                <path d="M180.54154,377 C179.480039,377 178.623835,376.732706 177.974988,376.198769 C177.32408,375.66418 177,374.937269 177,374.018037 L178.987052,374.018037 C178.987052,374.417675 179.136047,374.724737 179.43335,374.940529 C179.729966,375.15632 180.095929,375.26389 180.528494,375.26389 C180.923982,375.26389 181.267974,375.171315 181.560471,374.986164 C181.853654,374.800362 182.000589,374.552626 182.000589,374.242304 C182.000589,374.13343 181.97999,374.034335 181.93948,373.945672 C181.899657,373.857008 181.831682,373.778776 181.735557,373.70967 C181.640804,373.641217 181.548798,373.582543 181.462285,373.534299 C181.375086,373.486056 181.246003,373.437812 181.07641,373.388917 C180.906817,373.340674 180.767435,373.303513 180.659637,373.277436 C180.551153,373.251358 180.388426,373.213546 180.172143,373.165302 C179.407945,372.987975 178.85591,372.820427 178.516037,372.66331 C177.709269,372.296921 177.254733,371.731691 177.152428,370.969576 C177.135949,370.848968 177.127023,370.724448 177.127023,370.594712 C177.127023,369.772619 177.423639,369.134372 178.015498,368.680623 C178.60873,368.226874 179.416184,368 180.439922,368 C181.484257,368 182.294458,368.247084 182.869838,368.741253 C183.445218,369.23477 183.732908,369.917349 183.732908,370.788338 L181.77744,370.788338 C181.77744,370.433683 181.644237,370.162477 181.379205,369.975371 C181.113487,369.787613 180.783914,369.693734 180.388426,369.693734 C180.036194,369.693734 179.733399,369.764143 179.480726,369.905614 C179.228053,370.046432 179.101717,370.249837 179.101717,370.51648 C179.101717,370.633176 179.134674,370.740094 179.200589,370.836581 C179.266503,370.93372 179.34409,371.011952 179.43335,371.072582 C179.522609,371.133213 179.656498,371.194495 179.835017,371.257081 C180.012849,371.319667 180.16665,371.367258 180.29642,371.399203 C180.425503,371.4318 180.613634,371.476132 180.860128,371.532198 C181.068171,371.580442 181.228151,371.619558 181.340755,371.647591 C181.453359,371.675625 181.611967,371.719957 181.815204,371.780587 C182.019127,371.840565 182.181167,371.89598 182.299951,371.946831 C182.418048,371.99703 182.564983,372.065484 182.739382,372.152191 C182.913095,372.238899 183.05179,372.325607 183.156842,372.412314 C183.26052,372.499022 183.373124,372.607244 183.493968,372.735675 C183.615498,372.865411 183.707504,373.000362 183.770672,373.141181 C183.835213,373.282651 183.888769,373.445636 183.933399,373.631438 C183.978028,373.816588 184,374.014125 184,374.224049 C184,374.679754 183.908681,375.086563 183.726729,375.445781 C183.54409,375.804998 183.294164,376.095762 182.978323,376.319377 C182.661795,376.543644 182.296518,376.713147 181.882491,376.827237 C181.468465,376.942629 181.021481,377 180.54154,377" id="Fill-28" fill="#19E69B"></path>
                <path d="M190.904644,370 L193,370 L189.824292,377.249678 C189.520998,377.940123 189.225517,378.477296 188.937139,378.860478 C188.649472,379.243661 188.314925,379.529437 187.932789,379.717805 C187.549942,379.906174 187.086833,380 186.54204,380 L185.731599,380 L185.731599,378.213007 L186.417029,378.213007 C186.88298,378.213007 187.215396,378.126343 187.415697,377.953732 C187.615289,377.78112 187.829797,377.410829 188.0578,376.844292 L188.084081,376.784128 L185,370 L187.142236,370 L189.08559,374.518694 L190.904644,370 Z" id="Fill-30" fill="#19E69B"></path>
                <path d="M202.402448,370 C203.167747,370 203.792657,370.251285 204.276458,370.754523 C204.758819,371.25776 205,371.90897 205,372.708151 L205,377 L203.0036,377 L203.0036,373.017425 C203.0036,372.560179 202.908567,372.212912 202.719222,371.975624 C202.530598,371.738336 202.25558,371.620358 201.894888,371.620358 C201.449964,371.620358 201.100792,371.767663 200.849532,372.062274 C200.597552,372.356884 200.472282,372.770139 200.472282,373.302038 L200.472282,377 L198.528438,377 L198.528438,373.017425 C198.528438,372.560179 198.435565,372.212912 198.25126,371.975624 C198.066955,371.738336 197.796256,371.620358 197.439165,371.620358 C196.985601,371.620358 196.631389,371.767663 196.37797,372.062274 C196.12383,372.356884 195.99712,372.770139 195.99712,373.302038 L195.99712,377 L194,377 L194,370.160636 L195.389489,370.160636 L195.763139,371.007808 C196.026638,370.698534 196.352052,370.453914 196.742261,370.271948 C197.131749,370.090649 197.539957,370 197.967603,370 C198.434845,370 198.855292,370.095982 199.229662,370.287945 C199.603312,370.479242 199.897768,370.748524 200.110871,371.094458 C200.37005,370.756523 200.700504,370.48924 201.102952,370.293277 C201.50612,370.097981 201.938805,370 202.402448,370" id="Fill-32" fill="#19E69B"></path>
                <path d="M211,370.9063 L211,372.505572 L209.192011,372.505572 L209.192011,378 L207.248073,378 L207.248073,372.505572 L206,372.505572 L206,370.9063 L207.255081,370.9063 L207.255081,370.255939 C207.255081,369.553718 207.449895,369.002173 207.839523,368.601304 C208.229853,368.200435 208.795375,368 209.53679,368 L210.985985,368 L210.985985,369.527788 L209.92712,369.527788 C209.402943,369.527788 209.140154,369.785689 209.140154,370.301493 L209.140154,370.9063 L211,370.9063 Z" id="Fill-34" fill="#19E69B"></path>
                <path d="M213.582552,375.496493 C213.952415,375.882614 214.424658,376.075305 215.000721,376.075305 C215.575342,376.075305 216.048306,375.882614 216.41889,375.496493 C216.788032,375.111111 216.973324,374.612034 216.973324,374 C216.973324,373.388704 216.788032,372.889627 216.41889,372.503507 C216.048306,372.117386 215.575342,371.924695 215.000721,371.924695 C214.424658,371.924695 213.952415,372.117386 213.582552,372.503507 C213.211968,372.889627 213.026676,373.388704 213.026676,374 C213.026676,374.612034 213.211968,375.111111 213.582552,375.496493 M215.000721,378 C214.246575,378 213.564528,377.826504 212.953136,377.479513 C212.342466,377.132521 211.863735,376.653378 211.519106,376.041344 C211.173035,375.42931 211,374.749354 211,374 C211,373.242525 211.173035,372.558878 211.519106,371.94832 C211.863735,371.33924 212.342466,370.862311 212.953136,370.517534 C213.564528,370.172757 214.246575,370 215.000721,370 C215.74982,370 216.428983,370.172757 217.040375,370.517534 C217.651766,370.862311 218.131218,371.340716 218.478731,371.952012 C218.826244,372.564046 219,373.246955 219,374 C219,374.749354 218.826244,375.42931 218.478731,376.041344 C218.131218,376.653378 217.651766,377.132521 217.040375,377.479513 C216.428983,377.826504 215.74982,378 215.000721,378" id="Fill-36" fill="#19E69B"></path>
                <path d="M225.238199,370 C226.082062,370 226.753813,370.258617 227.251997,370.775852 C227.750908,371.293087 228,371.986955 228,372.856789 L228,377 L225.985476,377 L225.985476,373.153399 C225.985476,372.131594 225.552651,371.620358 224.684822,371.620358 C224.168482,371.620358 223.761075,371.779661 223.4626,372.098934 C223.164125,372.418873 223.013798,372.85479 223.013798,373.407351 L223.013798,377 L221,377 L221,370.160636 L222.381264,370.160636 L222.771968,371.007808 C223.05955,370.694534 223.417574,370.448581 223.846768,370.268616 C224.275236,370.089983 224.739288,370 225.238199,370" id="Fill-38" fill="#19E69B"></path>
                <path d="M233.904644,370 L236,370 L232.824292,377.249678 C232.520998,377.940123 232.225517,378.477296 231.937139,378.860478 C231.649472,379.243661 231.314925,379.529437 230.932789,379.717805 C230.549942,379.906174 230.086833,380 229.54204,380 L228.731599,380 L228.731599,378.213007 L229.417029,378.213007 C229.88298,378.213007 230.215396,378.126343 230.415697,377.953732 C230.615289,377.78112 230.829797,377.410829 231.0578,376.844292 L231.084081,376.784128 L228,370 L230.142236,370 L232.08559,374.518694 L233.904644,370 Z" id="Fill-40" fill="#19E69B"></path>
                <mask id="mask-4" fill="white">
                    <use xlink:href="#path-3"></use>
                </mask>
                <g id="Clip-43"></g>
                <polygon id="Fill-42" fill="#19E69B" mask="url(#mask-4)" points="195 173 197 173 197 171 195 171"></polygon>
                <polygon id="Fill-44" fill="#19E69B" mask="url(#mask-4)" points="204.995379 163 207 163 207 172 205.291807 172 201.005331 166.376353 201.005331 172 199 172 199 163 200.84681 163 204.995379 168.491732"></polygon>
                <path d="M212.007148,167.74677 C211.545942,167.74677 211.154707,167.872278 210.834195,168.123293 C210.512931,168.375046 210.292486,168.726467 210.171353,169.178295 L213.91216,169.178295 C213.768457,168.71687 213.531459,168.363234 213.204176,168.116648 C212.875388,167.870063 212.476629,167.74677 212.007148,167.74677 M216,169.972684 C216,170.177925 215.984953,170.379476 215.957115,170.575858 L210.114925,170.575858 C210.203705,171.091916 210.41437,171.487634 210.74692,171.76375 C211.07947,172.039867 211.499295,172.177925 212.007148,172.177925 C212.365278,172.177925 212.687294,172.100406 212.973197,171.945367 C213.259851,171.790329 213.481802,171.575489 213.639801,171.301587 L215.83222,171.301587 C215.553089,172.128461 215.06856,172.784053 214.380137,173.27058 C213.690962,173.757106 212.900216,174 212.007148,174 C211.257782,174 210.576883,173.825028 209.965203,173.47656 C209.353522,173.126615 208.872755,172.646733 208.523653,172.034699 C208.174551,171.422665 208,170.744924 208,170 C208,169.251384 208.173046,168.571429 208.519891,167.959395 C208.866736,167.347361 209.345998,166.868217 209.957679,166.520487 C210.570112,166.174234 211.253268,166 212.007148,166 C212.779084,166 213.472021,166.179402 214.086711,166.537468 C214.700649,166.896272 215.17314,167.376892 215.503433,167.979328 C215.834478,168.582503 216,169.246955 216,169.972684" id="Fill-45" fill="#19E69B" mask="url(#mask-4)"></path>
                <path d="M220.155175,171.283727 L221,171.283727 L221,173 L219.683224,173 C218.929442,173 218.334315,172.773296 217.897844,172.319193 C217.460704,171.86509 217.241799,171.242698 217.241799,170.451321 L217.241799,167.413074 L216,167.413074 L216,167 L218.714553,164 L219.068684,164 L219.068684,165.864395 L220.962512,165.864395 L220.962512,167.413074 L219.099478,167.413074 L219.099478,170.193324 C219.099478,170.541725 219.190521,170.810848 219.372607,171 C219.555362,171.189152 219.815772,171.283727 220.155175,171.283727" id="Fill-46" fill="#19E69B" mask="url(#mask-4)"></path>
            </g>
        </g>
    </g>
</svg>