<?xml version="1.0" encoding="UTF-8"?>
<svg width="576px" height="542px" viewBox="0 0 576 542" version="1.1" xmlns="http://www.w3.org/2000/svg" xmlns:xlink="http://www.w3.org/1999/xlink">
    <!-- Generator: Sketch 51.3 (57544) - http://www.bohemiancoding.com/sketch -->
    <title>Group 47</title>
    <desc>Created with Sketch.</desc>
    <defs>
        <polygon id="path-1" points="0.4907 0.4152 11.614 0.4152 11.614 11.2512 0.4907 11.2512"></polygon>
        <polygon id="path-3" points="0 541.705 575.614 541.705 575.614 0 0 0"></polygon>
    </defs>
    <g id="Page-1" stroke="none" stroke-width="1" fill="none" fill-rule="evenodd">
        <g id="Development-Development" transform="translate(-830.000000, -1868.000000)">
            <g id="Group-47" transform="translate(830.000000, 1868.000000)">
                <path d="M509.8037,265.5219 C509.1577,266.0589 508.6117,266.7089 508.1777,267.4559 L507.8897,267.9519 L335.0487,221.7539 L335.1117,221.1209 C335.1327,220.8969 335.1467,220.6689 335.1467,220.4389 C335.1467,216.4759 331.9227,213.2519 327.9597,213.2519 C327.7027,213.2519 327.4497,213.2669 327.1997,213.2929 L326.5697,213.3599 L310.5007,155.6729 L277.2017,36.1239 L277.7757,35.8549 C278.1787,35.6639 278.5607,35.4399 278.9107,35.1889 L279.4277,34.8169 L298.4687,53.7899 L510.4377,264.9949 L509.8037,265.5219 Z M284.3267,502.3929 C283.8417,502.8759 283.3247,503.3609 282.8007,503.8469 L280.5687,505.8779 L280.0657,505.3199 C279.3567,504.5339 278.5167,503.9279 277.5687,503.5199 L277.0207,503.2829 L277.1267,502.6959 L311.1177,316.0239 L329.9847,311.9599 L507.6927,273.6849 L507.9507,274.2099 C508.4057,275.1299 509.0297,275.9239 509.8037,276.5689 L510.4367,277.0959 L284.3267,502.3929 Z M275.2707,502.9629 C274.7797,502.9259 274.3747,502.9279 273.7947,503.0039 L273.1167,503.0939 L235.8617,339.0109 L236.4487,338.7699 C239.1597,337.6539 240.9117,335.0459 240.9117,332.1239 C240.9117,332.0599 240.9077,331.9969 240.9037,331.9339 L240.8647,331.1559 L309.9457,316.2759 L309.3587,319.5029 L275.9437,503.0129 L275.2707,502.9629 Z M271.3467,503.7869 C270.7027,504.1329 270.1127,504.5799 269.5907,505.1149 L269.0367,505.6839 L252.7397,487.8719 L54.8797,271.6049 L55.2727,271.1049 C55.5127,270.7979 55.7237,270.4829 55.8997,270.1679 L56.2077,269.6139 L206.9897,323.2099 C209.7427,324.1889 212.5647,325.2909 215.2917,326.3569 C218.8277,327.7389 222.4847,329.1679 226.1037,330.3739 L226.6907,330.5689 L226.6097,331.1829 C226.5627,331.5439 226.5397,331.8429 226.5397,332.1239 C226.5397,336.0849 229.7637,339.3089 233.7257,339.3089 C233.7847,339.3089 233.8437,339.3049 233.9037,339.3009 L234.6547,339.2649 L234.8877,340.1389 C235.1767,341.2189 235.4627,342.2909 235.7007,343.3419 L256.7757,436.1559 C258.6507,444.4129 260.4667,452.8509 262.2247,461.0109 C265.1947,474.8019 268.2647,489.0629 271.7197,502.9449 L271.8607,503.5109 L271.3467,503.7869 Z M265.9297,39.4479 C266.8717,38.4549 267.9327,37.4389 268.9577,36.4569 L270.3817,35.0869 L270.8807,35.4059 C271.4357,35.7609 272.0207,36.0349 272.6197,36.2199 L273.2267,36.4079 L246.5447,233.4049 L56.6177,264.9599 L56.4127,264.3599 C56.1667,263.6449 55.8097,262.9739 55.3507,262.3659 L54.9667,261.8589 L265.9297,39.4479 Z M234.8807,319.5199 C234.7097,320.7829 234.4777,322.1009 234.2517,323.3749 L233.9807,324.9269 L233.3807,324.9559 C230.8847,325.0749 228.6657,326.4519 227.4477,328.6379 L227.1377,329.1919 L156.0797,303.9339 L75.9947,275.4669 C73.2757,274.4999 70.5127,273.4679 67.8397,272.4699 C64.3627,271.1709 60.7667,269.8289 57.2097,268.6059 L56.6177,268.4029 L56.7127,267.7839 C56.7767,267.3639 56.8067,267.0149 56.8067,266.6839 L56.8067,266.0479 L246.3897,234.5509 L234.8807,319.5199 Z M326.0147,228.0319 L310.1617,315.0899 L240.6347,330.0649 L240.4007,329.4759 C239.5997,327.4679 237.8957,325.8899 235.8407,325.2559 L235.2347,325.0679 L247.5197,234.3629 L320.9607,222.1609 L321.1667,222.7609 C321.8677,224.8019 323.4987,226.4589 325.5317,227.1919 L326.1277,227.4069 L326.0147,228.0319 Z M507.2687,271.9359 L507.3557,272.6179 L311.3347,314.8369 L321.9347,256.6219 L327.2177,227.6109 L327.9687,227.6249 C330.7597,227.6249 333.3247,225.9699 334.4927,223.4109 L334.7567,222.8339 L507.4717,268.9969 L507.3397,269.6829 C507.2507,270.1459 507.2057,270.6039 507.2057,271.0459 C507.2057,271.3479 507.2317,271.6429 507.2687,271.9359 Z M274.2307,37.9049 L274.4627,36.5489 L275.1787,36.5169 C275.2847,36.5119 275.3907,36.5079 275.4947,36.4979 L276.1257,36.4299 L292.1947,94.1179 L325.4937,213.6679 L324.9207,213.9369 C322.4017,215.1209 320.7747,217.6719 320.7747,220.4369 L320.7747,221.0729 L247.6757,233.2179 L273.5807,41.9559 C273.7617,40.6239 273.9997,39.2409 274.2307,37.9049 Z M511.6917,277.7119 L512.1067,277.8519 C512.8547,278.1039 513.6227,278.2309 514.3917,278.2309 C518.3547,278.2309 521.5777,275.0079 521.5777,271.0459 C521.5777,267.0839 518.3547,263.8589 514.3917,263.8589 C513.5657,263.8589 512.7397,264.0079 511.9377,264.3009 L511.4887,264.4659 L435.6207,188.8709 L285.1187,38.9099 C284.1067,37.9009 283.1217,36.8159 282.0787,35.6669 C281.6527,35.1959 281.2227,34.7229 280.7887,34.2519 L280.3887,33.8179 L280.7157,33.3269 C281.5037,32.1469 281.9207,30.7719 281.9207,29.3529 C281.9207,25.3899 278.6977,22.1669 274.7357,22.1669 C270.7737,22.1669 267.5497,25.3899 267.5497,29.3529 C267.5497,30.9169 268.0537,32.4089 269.0067,33.6699 L269.3897,34.1779 L58.4257,256.5879 C57.4817,257.5839 56.4637,258.5539 55.3847,259.5819 L53.9647,260.9419 L53.4667,260.6249 C52.3107,259.8869 50.9807,259.4969 49.6197,259.4969 C45.6577,259.4969 42.4347,262.7209 42.4347,266.6829 C42.4347,270.6459 45.6577,273.8689 49.6197,273.8689 C51.0057,273.8689 52.3567,273.4669 53.5257,272.7069 L54.0587,272.3589 L265.1367,503.0719 C266.0617,504.0839 266.9607,505.1849 267.9137,506.3509 L268.3247,506.8529 L268.1427,507.2719 C267.7487,508.1779 267.5497,509.1359 267.5497,510.1209 C267.5497,514.0839 270.7737,517.3069 274.7357,517.3069 C278.6977,517.3069 281.9207,514.0839 281.9207,510.1209 C281.9207,509.2299 281.7517,508.3499 281.4197,507.5039 L281.2407,507.0459 L507.7087,281.3919 C508.7197,280.3849 509.8077,279.4069 510.9587,278.3709 L511.6917,277.7119 Z" id="Fill-1" fill="#19E69B"></path>
                <path d="M4.9912,266.0087 C5.5532,266.0087 6.0122,265.8297 6.3642,265.4707 C6.7172,265.1127 6.8922,264.6547 6.8922,264.0977 C6.8922,263.5407 6.7182,263.0847 6.3692,262.7287 C6.0192,262.3737 5.5602,262.1957 4.9912,262.1957 L2.8762,262.1957 L2.8762,266.0087 L4.9912,266.0087 Z M5.1212,259.5237 C5.9992,259.5237 6.7962,259.7197 7.5102,260.1127 C8.2242,260.5057 8.7872,261.0527 9.1982,261.7557 C9.6092,262.4567 9.8152,263.2377 9.8152,264.0977 C9.8152,265.4087 9.3672,266.4987 8.4702,267.3677 C7.5732,268.2367 6.4572,268.6717 5.1212,268.6717 L2.8762,268.6717 L2.8762,272.8277 L0.0002,272.8277 L0.0002,259.5237 L5.1212,259.5237 Z" id="Fill-3" fill="#19E69B"></path>
                <polygon id="Fill-5" fill="#19E69B" points="19.6963 259.5238 22.5723 259.5238 22.5723 272.8278 19.6963 272.8278 19.6963 267.3258 14.6863 267.3258 14.6863 272.8278 11.8103 272.8278 11.8103 259.5238 14.6863 259.5238 14.6863 264.6538 19.6963 264.6538"></polygon>
                <path d="M30.6064,266.0087 C31.1684,266.0087 31.6274,265.8297 31.9794,265.4707 C32.3324,265.1127 32.5074,264.6547 32.5074,264.0977 C32.5074,263.5407 32.3334,263.0847 31.9844,262.7287 C31.6344,262.3737 31.1754,262.1957 30.6064,262.1957 L28.4914,262.1957 L28.4914,266.0087 L30.6064,266.0087 Z M30.7364,259.5237 C31.6144,259.5237 32.4114,259.7197 33.1254,260.1127 C33.8394,260.5057 34.4024,261.0527 34.8134,261.7557 C35.2244,262.4567 35.4304,263.2377 35.4304,264.0977 C35.4304,265.4087 34.9824,266.4987 34.0854,267.3677 C33.1884,268.2367 32.0724,268.6717 30.7364,268.6717 L28.4914,268.6717 L28.4914,272.8277 L25.6154,272.8277 L25.6154,259.5237 L30.7364,259.5237 Z" id="Fill-7" fill="#19E69B"></path>
                <polygon id="Fill-9" fill="#19E69B" points="263.8281 13.5917 260.8961 13.5917 259.5881 4.9077 255.6171 13.5637 254.9121 13.5637 250.9411 4.9177 249.6331 13.5917 246.7011 13.5917 248.7791 0.2877 251.6651 0.2877 255.2651 8.4427 258.8731 0.2877 261.7671 0.2877"></polygon>
                <path d="M272.4922,3.331 L275.4422,3.331 L270.9712,13.453 C270.5442,14.417 270.1282,15.167 269.7222,15.702 C269.3172,16.237 268.8462,16.636 268.3082,16.899 C267.7692,17.162 267.1172,17.293 266.3502,17.293 L265.2092,17.293 L265.2092,14.798 L266.1742,14.798 C266.8302,14.798 267.2982,14.677 267.5802,14.436 C267.8612,14.195 268.1632,13.678 268.4842,12.887 L268.5212,12.803 L264.1792,3.331 L267.1952,3.331 L269.9312,9.64 L272.4922,3.331 Z" id="Fill-11" fill="#19E69B"></path>
                <path d="M281.418,13.8515 C279.872,13.8515 278.625,13.4415 277.68,12.6225 C276.732,11.8025 276.26,10.6875 276.26,9.2775 L279.154,9.2775 C279.154,9.8905 279.371,10.3615 279.804,10.6925 C280.236,11.0235 280.769,11.1885 281.399,11.1885 C281.975,11.1885 282.476,11.0465 282.902,10.7625 C283.329,10.4775 283.543,10.0975 283.543,9.6215 C283.543,9.4545 283.513,9.3025 283.454,9.1665 C283.396,9.0305 283.297,8.9105 283.157,8.8045 C283.019,8.6995 282.885,8.6095 282.759,8.5355 C282.632,8.4615 282.444,8.3875 282.197,8.3125 C281.95,8.2385 281.747,8.1815 281.59,8.1415 C281.432,8.1015 281.195,8.0435 280.88,7.9695 C279.767,7.6975 278.963,7.4405 278.468,7.1995 C277.293,6.6375 276.631,5.7705 276.482,4.6015 C276.458,4.4165 276.445,4.2255 276.445,4.0265 C276.445,2.7655 276.877,1.7865 277.739,1.0905 C278.603,0.3945 279.779,0.0465 281.27,0.0465 C282.791,0.0465 283.971,0.4255 284.809,1.1835 C285.647,1.9405 286.066,2.9875 286.066,4.3235 L283.218,4.3235 C283.218,3.7795 283.024,3.3635 282.638,3.0765 C282.251,2.7885 281.771,2.6445 281.195,2.6445 C280.682,2.6445 280.241,2.7525 279.873,2.9695 C279.505,3.1855 279.321,3.4975 279.321,3.9065 C279.321,4.0855 279.369,4.2495 279.465,4.3975 C279.561,4.5465 279.674,4.6665 279.804,4.7595 C279.934,4.8525 280.129,4.9465 280.389,5.0425 C280.648,5.1385 280.872,5.2115 281.061,5.2605 C281.249,5.3105 281.523,5.3785 281.882,5.4645 C282.185,5.5385 282.418,5.5985 282.582,5.6415 C282.746,5.6845 282.977,5.7525 283.273,5.8455 C283.57,5.9375 283.806,6.0225 283.979,6.1005 C284.151,6.1775 284.365,6.2825 284.619,6.4155 C284.872,6.5485 285.074,6.6815 285.227,6.8145 C285.378,6.9475 285.542,7.1135 285.718,7.3105 C285.895,7.5095 286.029,7.7165 286.121,7.9325 C286.215,8.1495 286.293,8.3995 286.358,8.6845 C286.423,8.9685 286.455,9.2715 286.455,9.5935 C286.455,10.2925 286.322,10.9165 286.057,11.4675 C285.791,12.0185 285.427,12.4645 284.967,12.8075 C284.506,13.1515 283.974,13.4115 283.371,13.5865 C282.768,13.7635 282.117,13.8515 281.418,13.8515" id="Fill-13" fill="#19E69B"></path>
                <path d="M295.0742,11.1703 C295.4632,11.1703 295.8592,11.1143 296.2612,11.0033 L293.6172,7.9413 L296.5492,7.9413 L298.1632,9.8163 C298.8682,9.0243 299.2202,8.0663 299.2202,6.9403 C299.2202,5.7333 298.8252,4.7293 298.0332,3.9243 C297.2412,3.1213 296.2552,2.7183 295.0742,2.7183 C293.8922,2.7183 292.8992,3.1243 292.0952,3.9343 C291.2922,4.7443 290.8892,5.7463 290.8892,6.9403 C290.8892,8.1333 291.2922,9.1373 292.0952,9.9503 C292.8992,10.7633 293.8922,11.1703 295.0742,11.1703 Z M302.6622,15.0203 L299.7302,15.0203 L298.1812,13.2303 C297.2172,13.6623 296.1802,13.8793 295.0742,13.8793 C294.0722,13.8793 293.1322,13.7013 292.2542,13.3453 C291.3752,12.9903 290.6242,12.5063 289.9992,11.8943 C289.3742,11.2813 288.8812,10.5453 288.5192,9.6863 C288.1572,8.8263 287.9762,7.9113 287.9762,6.9403 C287.9762,5.9693 288.1572,5.0533 288.5192,4.1933 C288.8812,3.3343 289.3742,2.5983 289.9992,1.9853 C290.6242,1.3733 291.3752,0.8893 292.2542,0.5343 C293.1322,0.1783 294.0722,0.0003 295.0742,0.0003 C296.0692,0.0003 297.0052,0.1763 297.8802,0.5293 C298.7552,0.8813 299.5042,1.3653 300.1252,1.9813 C300.7472,2.5963 301.2372,3.3323 301.5952,4.1893 C301.9542,5.0453 302.1342,5.9623 302.1342,6.9403 C302.1342,7.9363 301.9492,8.8663 301.5822,9.7323 C301.2142,10.5983 300.6992,11.3463 300.0372,11.9773 L302.6622,15.0203 Z" id="Fill-15" fill="#19E69B"></path>
                <polygon id="Fill-17" fill="#19E69B" points="307.3018 10.9198 312.4048 10.9198 312.4048 13.5918 304.4258 13.5918 304.4258 0.2878 307.3018 0.2878"></polygon>
                <path d="M533.9023,275.9565 C532.4673,275.9565 531.2933,275.5055 530.3773,274.6025 C529.4623,273.6995 529.0043,272.5425 529.0043,271.1325 L529.0043,270.6495 L531.8433,270.6495 L531.8433,270.9835 C531.8433,271.6705 532.0303,272.2195 532.4043,272.6305 C532.7783,273.0415 533.2783,273.2475 533.9023,273.2475 C534.4963,273.2475 534.9753,273.0435 535.3403,272.6355 C535.7063,272.2275 535.8883,271.6765 535.8883,270.9835 L535.8883,262.3655 L538.7263,262.3655 L538.7263,271.1325 C538.7263,272.5485 538.2833,273.7065 537.3953,274.6065 C536.5073,275.5065 535.3433,275.9565 533.9023,275.9565" id="Fill-19" fill="#19E69B"></path>
                <path d="M544.2695,272.5282 C544.7985,273.0632 545.4645,273.3312 546.2685,273.3312 C547.0735,273.3312 547.7395,273.0652 548.2685,272.5332 C548.7965,272.0012 549.0615,271.3302 549.0615,270.5202 C549.0615,269.7102 548.7965,269.0392 548.2685,268.5072 C547.7395,267.9752 547.0735,267.7092 546.2685,267.7092 C545.4645,267.7092 544.7985,267.9762 544.2695,268.5112 C543.7415,269.0462 543.4765,269.7162 543.4765,270.5202 C543.4765,271.3242 543.7415,271.9932 544.2695,272.5282 Z M549.7105,265.3892 L551.7895,265.3892 L551.7895,275.6502 L549.6085,275.6502 L549.3685,274.7322 C548.4335,275.5482 547.3275,275.9562 546.0455,275.9562 C545.0325,275.9562 544.1135,275.7212 543.2905,275.2512 C542.4685,274.7812 541.8255,274.1302 541.3615,273.2992 C540.8975,272.4662 540.6655,271.5402 540.6655,270.5202 C540.6655,269.5062 540.8975,268.5862 541.3615,267.7592 C541.8255,266.9342 542.4685,266.2882 543.2905,265.8212 C544.1135,265.3542 545.0325,265.1202 546.0455,265.1202 C547.3515,265.1202 548.4735,265.5382 549.4145,266.3732 L549.7105,265.3892 Z" id="Fill-21" fill="#19E69B"></path>
                <polygon id="Fill-23" fill="#19E69B" points="561.1787 265.4081 564.0537 265.4081 559.9817 275.6691 557.4207 275.6691 553.2457 265.4081 556.2057 265.4081 558.7097 272.2831"></polygon>
                <g id="Group-27" transform="translate(564.000000, 264.705000)">
                    <mask id="mask-2" fill="white">
                        <use xlink:href="#path-1"></use>
                    </mask>
                    <g id="Clip-26"></g>
                    <path d="M4.0947,7.8232 C4.6237,8.3582 5.2897,8.6262 6.0937,8.6262 C6.8987,8.6262 7.5647,8.3602 8.0937,7.8282 C8.6217,7.2962 8.8867,6.6252 8.8867,5.8152 C8.8867,5.0052 8.6217,4.3342 8.0937,3.8022 C7.5647,3.2702 6.8987,3.0042 6.0937,3.0042 C5.2897,3.0042 4.6237,3.2712 4.0947,3.8062 C3.5667,4.3412 3.3017,5.0112 3.3017,5.8152 C3.3017,6.6192 3.5667,7.2882 4.0947,7.8232 Z M9.5357,0.6842 L11.6147,0.6842 L11.6147,10.9452 L9.4337,10.9452 L9.1937,10.0272 C8.2587,10.8432 7.1527,11.2512 5.8707,11.2512 C4.8577,11.2512 3.9387,11.0162 3.1157,10.5462 C2.2937,10.0762 1.6507,9.4252 1.1867,8.5942 C0.7227,7.7612 0.4907,6.8352 0.4907,5.8152 C0.4907,4.8012 0.7227,3.8812 1.1867,3.0542 C1.6507,2.2292 2.2937,1.5832 3.1157,1.1162 C3.9387,0.6492 4.8577,0.4152 5.8707,0.4152 C7.1767,0.4152 8.2987,0.8332 9.2397,1.6682 L9.5357,0.6842 Z" id="Fill-25" fill="#19E69B" mask="url(#mask-2)"></path>
                </g>
                <path d="M258.209,538.2631 C256.663,538.2631 255.416,537.8531 254.471,537.0341 C253.523,536.2141 253.051,535.0991 253.051,533.6891 L255.945,533.6891 C255.945,534.3021 256.162,534.7731 256.595,535.1041 C257.027,535.4351 257.56,535.6001 258.19,535.6001 C258.766,535.6001 259.267,535.4581 259.693,535.1741 C260.12,534.8891 260.334,534.5091 260.334,534.0331 C260.334,533.8661 260.304,533.7141 260.245,533.5781 C260.187,533.4421 260.088,533.3221 259.948,533.2161 C259.81,533.1111 259.676,533.0211 259.55,532.9471 C259.423,532.8731 259.235,532.7991 258.988,532.7241 C258.741,532.6501 258.538,532.5931 258.381,532.5531 C258.223,532.5131 257.986,532.4551 257.671,532.3811 C256.558,532.1091 255.754,531.8521 255.259,531.6111 C254.084,531.0491 253.422,530.1821 253.273,529.0131 C253.249,528.8281 253.236,528.6371 253.236,528.4381 C253.236,527.1771 253.668,526.1981 254.53,525.5021 C255.394,524.8061 256.57,524.4581 258.061,524.4581 C259.582,524.4581 260.762,524.8371 261.6,525.5951 C262.438,526.3521 262.857,527.3991 262.857,528.7351 L260.009,528.7351 C260.009,528.1911 259.815,527.7751 259.429,527.4881 C259.042,527.2001 258.562,527.0561 257.986,527.0561 C257.473,527.0561 257.032,527.1641 256.664,527.3811 C256.296,527.5971 256.112,527.9091 256.112,528.3181 C256.112,528.4971 256.16,528.6611 256.256,528.8091 C256.352,528.9581 256.465,529.0781 256.595,529.1711 C256.725,529.2641 256.92,529.3581 257.18,529.4541 C257.439,529.5501 257.663,529.6231 257.852,529.6721 C258.04,529.7221 258.314,529.7901 258.673,529.8761 C258.976,529.9501 259.209,530.0101 259.373,530.0531 C259.537,530.0961 259.768,530.1641 260.064,530.2571 C260.361,530.3491 260.597,530.4341 260.77,530.5121 C260.942,530.5891 261.156,530.6941 261.41,530.8271 C261.663,530.9601 261.865,531.0931 262.018,531.2261 C262.169,531.3591 262.333,531.5251 262.509,531.7221 C262.686,531.9211 262.82,532.1281 262.912,532.3441 C263.006,532.5611 263.084,532.8111 263.149,533.0961 C263.214,533.3801 263.246,533.6831 263.246,534.0051 C263.246,534.7041 263.113,535.3281 262.848,535.8791 C262.582,536.4301 262.218,536.8761 261.758,537.2191 C261.297,537.5631 260.765,537.8231 260.162,537.9981 C259.559,538.1751 258.908,538.2631 258.209,538.2631" id="Fill-28" fill="#19E69B"></path>
                <path d="M272.3008,527.7426 L275.2508,527.7426 L270.7798,537.8646 C270.3528,538.8286 269.9368,539.5786 269.5308,540.1136 C269.1258,540.6486 268.6548,541.0476 268.1168,541.3106 C267.5778,541.5736 266.9258,541.7046 266.1588,541.7046 L265.0178,541.7046 L265.0178,539.2096 L265.9828,539.2096 C266.6388,539.2096 267.1068,539.0886 267.3888,538.8476 C267.6698,538.6066 267.9718,538.0896 268.2928,537.2986 L268.3298,537.2146 L263.9878,527.7426 L267.0038,527.7426 L269.7398,534.0516 L272.3008,527.7426 Z" id="Fill-30" fill="#19E69B"></path>
                <path d="M288.3135,527.5014 C289.3765,527.5014 290.2445,527.8784 290.9165,528.6334 C291.5865,529.3884 291.9215,530.3654 291.9215,531.5644 L291.9215,538.0034 L289.1485,538.0034 L289.1485,532.0284 C289.1485,531.3424 289.0165,530.8214 288.7535,530.4654 C288.4915,530.1094 288.1095,529.9324 287.6085,529.9324 C286.9905,529.9324 286.5055,530.1534 286.1565,530.5954 C285.8065,531.0374 285.6325,531.6574 285.6325,532.4554 L285.6325,538.0034 L282.9325,538.0034 L282.9325,532.0284 C282.9325,531.3424 282.8035,530.8214 282.5475,530.4654 C282.2915,530.1094 281.9155,529.9324 281.4195,529.9324 C280.7895,529.9324 280.2975,530.1534 279.9455,530.5954 C279.5925,531.0374 279.4165,531.6574 279.4165,532.4554 L279.4165,538.0034 L276.6425,538.0034 L276.6425,527.7424 L278.5725,527.7424 L279.0915,529.0134 C279.4575,528.5494 279.9095,528.1824 280.4515,527.9094 C280.9925,527.6374 281.5595,527.5014 282.1535,527.5014 C282.8025,527.5014 283.3865,527.6454 283.9065,527.9334 C284.4255,528.2204 284.8345,528.6244 285.1305,529.1434 C285.4905,528.6364 285.9495,528.2354 286.5085,527.9414 C287.0685,527.6484 287.6695,527.5014 288.3135,527.5014" id="Fill-32" fill="#19E69B"></path>
                <path d="M300.6162,527.8818 L300.6162,530.1638 L298.0362,530.1638 L298.0362,538.0038 L295.2622,538.0038 L295.2622,530.1638 L293.4812,530.1638 L293.4812,527.8818 L295.2722,527.8818 L295.2722,526.9538 C295.2722,525.9518 295.5502,525.1648 296.1062,524.5928 C296.6632,524.0208 297.4702,523.7348 298.5282,523.7348 L300.5962,523.7348 L300.5962,525.9148 L299.0852,525.9148 C298.3372,525.9148 297.9622,526.2828 297.9622,527.0188 L297.9622,527.8818 L300.6162,527.8818 Z" id="Fill-34" fill="#19E69B"></path>
                <path d="M304.9023,534.8998 C305.4153,535.4228 306.0703,535.6838 306.8693,535.6838 C307.6663,535.6838 308.3223,535.4228 308.8363,534.8998 C309.3483,534.3778 309.6053,533.7018 309.6053,532.8728 C309.6053,532.0448 309.3483,531.3688 308.8363,530.8458 C308.3223,530.3228 307.6663,530.0618 306.8693,530.0618 C306.0703,530.0618 305.4153,530.3228 304.9023,530.8458 C304.3883,531.3688 304.1313,532.0448 304.1313,532.8728 C304.1313,533.7018 304.3883,534.3778 304.9023,534.8998 M306.8693,538.2908 C305.8233,538.2908 304.8773,538.0558 304.0293,537.5858 C303.1823,537.1158 302.5183,536.4668 302.0403,535.6378 C301.5603,534.8088 301.3203,533.8878 301.3203,532.8728 C301.3203,531.8468 301.5603,530.9208 302.0403,530.0938 C302.5183,529.2688 303.1823,528.6228 304.0293,528.1558 C304.8773,527.6888 305.8233,527.4548 306.8693,527.4548 C307.9083,527.4548 308.8503,527.6888 309.6983,528.1558 C310.5463,528.6228 311.2113,529.2708 311.6933,530.0988 C312.1753,530.9278 312.4163,531.8528 312.4163,532.8728 C312.4163,533.8878 312.1753,534.8088 311.6933,535.6378 C311.2113,536.4668 310.5463,537.1158 309.6983,537.5858 C308.8503,538.0558 307.9083,538.2908 306.8693,538.2908" id="Fill-36" fill="#19E69B"></path>
                <path d="M320.2383,527.5014 C321.4003,527.5014 322.3253,527.8894 323.0113,528.6654 C323.6983,529.4414 324.0413,530.4824 324.0413,531.7874 L324.0413,538.0034 L321.2673,538.0034 L321.2673,532.2324 C321.2673,530.6994 320.6713,529.9324 319.4763,529.9324 C318.7653,529.9324 318.2043,530.1714 317.7933,530.6504 C317.3823,531.1304 317.1753,531.7844 317.1753,532.6134 L317.1753,538.0034 L314.4023,538.0034 L314.4023,527.7424 L316.3043,527.7424 L316.8423,529.0134 C317.2383,528.5434 317.7313,528.1744 318.3223,527.9044 C318.9123,527.6364 319.5513,527.5014 320.2383,527.5014" id="Fill-38" fill="#19E69B"></path>
                <path d="M333.3008,527.7426 L336.2508,527.7426 L331.7798,537.8646 C331.3528,538.8286 330.9368,539.5786 330.5308,540.1136 C330.1258,540.6486 329.6548,541.0476 329.1168,541.3106 C328.5778,541.5736 327.9258,541.7046 327.1588,541.7046 L326.0178,541.7046 L326.0178,539.2096 L326.9828,539.2096 C327.6388,539.2096 328.1068,539.0886 328.3888,538.8476 C328.6698,538.6066 328.9718,538.0896 329.2928,537.2986 L329.3298,537.2146 L324.9878,527.7426 L328.0038,527.7426 L330.7398,534.0516 L333.3008,527.7426 Z" id="Fill-40" fill="#19E69B"></path>
                <mask id="mask-4" fill="white">
                    <use xlink:href="#path-3"></use>
                </mask>
                <g id="Clip-43"></g>
                <polygon id="Fill-42" fill="#19E69B" mask="url(#mask-4)" points="277.8 246.308 280.732 246.308 280.732 243.339 277.8 243.339"></polygon>
                <polygon id="Fill-44" fill="#19E69B" mask="url(#mask-4)" points="291.8193 233.0038 294.6393 233.0038 294.6393 246.3078 292.2363 246.3078 286.2063 237.9948 286.2063 246.3078 283.3853 246.3078 283.3853 233.0038 285.9833 233.0038 291.8193 241.1218"></polygon>
                <path d="M301.9873,238.1249 C301.3743,238.1249 300.8543,238.2949 300.4283,238.6349 C300.0013,238.9759 299.7083,239.4519 299.5473,240.0639 L304.5193,240.0639 C304.3283,239.4389 304.0133,238.9599 303.5783,238.6259 C303.1413,238.2919 302.6113,238.1249 301.9873,238.1249 M307.2943,241.1399 C307.2943,241.4179 307.2743,241.6909 307.2373,241.9569 L299.4723,241.9569 C299.5903,242.6559 299.8703,243.1919 300.3123,243.5659 C300.7543,243.9399 301.3123,244.1269 301.9873,244.1269 C302.4633,244.1269 302.8913,244.0219 303.2713,243.8119 C303.6523,243.6019 303.9473,243.3109 304.1573,242.9399 L307.0713,242.9399 C306.7003,244.0599 306.0563,244.9479 305.1413,245.6069 C304.2253,246.2659 303.1743,246.5949 301.9873,246.5949 C300.9913,246.5949 300.0863,246.3579 299.2733,245.8859 C298.4603,245.4119 297.8213,244.7619 297.3573,243.9329 C296.8933,243.1039 296.6613,242.1859 296.6613,241.1769 C296.6613,240.1629 296.8913,239.2419 297.3523,238.4129 C297.8133,237.5839 298.4503,236.9349 299.2633,236.4639 C300.0773,235.9949 300.9853,235.7589 301.9873,235.7589 C303.0133,235.7589 303.9343,236.0019 304.7513,236.4869 C305.5673,236.9729 306.1953,237.6239 306.6343,238.4399 C307.0743,239.2569 307.2943,240.1569 307.2943,241.1399" id="Fill-45" fill="#19E69B" mask="url(#mask-4)"></path>
                <path d="M314.1309,243.8398 L315.3929,243.8398 L315.3929,246.3078 L313.4259,246.3078 C312.2999,246.3078 311.4109,245.9818 310.7589,245.3288 C310.1059,244.6758 309.7789,243.7808 309.7789,242.6428 L309.7789,238.2738 L307.9239,238.2738 L307.9239,237.6798 L311.9789,233.3658 L312.5079,233.3658 L312.5079,236.0468 L315.3369,236.0468 L315.3369,238.2738 L312.5539,238.2738 L312.5539,242.2718 C312.5539,242.7728 312.6899,243.1598 312.9619,243.4318 C313.2349,243.7038 313.6239,243.8398 314.1309,243.8398" id="Fill-46" fill="#19E69B" mask="url(#mask-4)"></path>
            </g>
        </g>
    </g>
</svg>