<?xml version="1.0" encoding="UTF-8"?>
<svg width="72px" height="89px" viewBox="0 0 72 89" version="1.1" xmlns="http://www.w3.org/2000/svg" xmlns:xlink="http://www.w3.org/1999/xlink">
    <!-- Generator: Sketch 51.3 (57544) - http://www.bohemiancoding.com/sketch -->
    <title>Group 13 Copy</title>
    <desc>Created with Sketch.</desc>
    <defs></defs>
    <g id="Page-1" stroke="none" stroke-width="1" fill="none" fill-rule="evenodd">
        <g id="AppsCo" transform="translate(-1016.000000, -2484.000000)">
            <g id="Group-13-Copy" transform="translate(1016.000000, 2485.000000)">
                <path d="M54.191,57.8529 C54.191,68.2069 45.797,76.6019 35.443,76.6019 C25.088,76.6019 16.694,68.2069 16.694,57.8529 C16.694,47.4989 25.088,39.1039 35.443,39.1039 C45.797,39.1039 54.191,47.4989 54.191,57.8529" id="Fill-1" fill="#50E29D"></path>
                <path d="M54.4254,86.1664 L55.4924,86.1664 C55.4924,75.4964 47.7034,71.2284 39.4874,71.2284 L31.4864,71.2284 C23.2704,71.2284 15.4814,75.4964 15.4814,86.1664 L16.5474,86.1664 L54.4254,86.1664 Z" id="Stroke-3" stroke="#11193A" stroke-width="2" stroke-linecap="round" stroke-linejoin="round"></path>
                <path d="M45.4898,58.4652 C45.4898,63.9892 41.0108,68.4682 35.4868,68.4682 C29.9628,68.4682 25.4838,63.9892 25.4838,58.4652 C25.4838,52.9412 29.9628,48.4622 35.4868,48.4622 C41.0108,48.4622 45.4898,52.9412 45.4898,58.4652 Z" id="Stroke-5" stroke="#11193A" stroke-width="2" stroke-linecap="round" stroke-linejoin="round"></path>
                <path d="M45.4898,10.0028 C45.4898,15.5268 41.0108,20.0058 35.4868,20.0058 C29.9628,20.0058 25.4838,15.5268 25.4838,10.0028 C25.4838,4.4788 29.9628,-0.0002 35.4868,-0.0002 C41.0108,-0.0002 45.4898,4.4788 45.4898,10.0028 Z" id="Stroke-7" stroke="#11193A" stroke-width="2" stroke-linecap="round" stroke-linejoin="round"></path>
                <path d="M21.0054,34.0922 C21.0054,39.6162 16.5264,44.0952 11.0024,44.0952 C5.4784,44.0952 0.9994,39.6162 0.9994,34.0922 C0.9994,28.5682 5.4784,24.0892 11.0024,24.0892 C16.5264,24.0892 21.0054,28.5682 21.0054,34.0922 Z" id="Stroke-9" stroke="#11193A" stroke-width="2" stroke-linecap="round" stroke-linejoin="round"></path>
                <path d="M70.2887,34.0922 C70.2887,39.6162 65.8097,44.0952 60.2857,44.0952 C54.7617,44.0952 50.2827,39.6162 50.2827,34.0922 C50.2827,28.5682 54.7617,24.0892 60.2857,24.0892 C65.8097,24.0892 70.2887,28.5682 70.2887,34.0922 Z" id="Stroke-11" stroke="#11193A" stroke-width="2" stroke-linecap="round" stroke-linejoin="round"></path>
            </g>
        </g>
    </g>
</svg>