<?xml version="1.0" encoding="UTF-8"?>
<svg width="97px" height="96px" viewBox="0 0 97 96" version="1.1" xmlns="http://www.w3.org/2000/svg" xmlns:xlink="http://www.w3.org/1999/xlink">
    <!-- Generator: Sketch 51.3 (57544) - http://www.bohemiancoding.com/sketch -->
    <title>Group 61 Copy</title>
    <desc>Created with Sketch.</desc>
    <defs></defs>
    <g id="Page-1" stroke="none" stroke-width="1" fill="none" fill-rule="evenodd">
        <g id="AppsCo" transform="translate(-1003.000000, -2087.000000)">
            <g id="Group-61-Copy" transform="translate(1004.000000, 2088.000000)">
                <path d="M65.7073,46.9499 C65.7073,57.3049 57.3133,65.6989 46.9593,65.6989 C36.6043,65.6989 28.2103,57.3049 28.2103,46.9499 C28.2103,36.5959 36.6043,28.2009 46.9593,28.2009 C57.3133,28.2009 65.7073,36.5959 65.7073,46.9499" id="Fill-1" fill="#50E29D"></path>
                <path d="M70.7639,46.9499 C70.7639,60.0969 60.1059,70.7549 46.9589,70.7549 C33.8119,70.7549 23.1539,60.0969 23.1539,46.9499 C23.1539,33.8029 33.8119,23.1449 46.9589,23.1449 C60.1059,23.1449 70.7639,33.8029 70.7639,46.9499 Z" id="Stroke-3" stroke="#11193A" stroke-width="2" stroke-linecap="round" stroke-linejoin="round"></path>
                <path d="M47.3342,0.2111 L47.3342,22.7361" id="Stroke-5" stroke="#11193A" stroke-width="2" stroke-linecap="round" stroke-linejoin="round"></path>
                <path d="M41.1399,16.401 L41.1399,23.674" id="Stroke-7" stroke="#11193A" stroke-width="2" stroke-linecap="round" stroke-linejoin="round"></path>
                <path d="M52.9661,16.401 L52.9661,23.674" id="Stroke-9" stroke="#11193A" stroke-width="2" stroke-linecap="round" stroke-linejoin="round"></path>
                <path d="M59.1604,9.5026 L59.1604,25.9266" id="Stroke-11" stroke="#11193A" stroke-width="2" stroke-linecap="round" stroke-linejoin="round"></path>
                <path d="M24.6458,5.9831 L32.8808,14.1011 C32.8808,14.1011 35.5558,16.1901 35.4858,19.1701 L35.4858,25.9271" id="Stroke-13" stroke="#11193A" stroke-width="2" stroke-linecap="round" stroke-linejoin="round"></path>
                <path d="M25.2083,3.2379 C25.2083,5.0259 23.7593,6.4759 21.9713,6.4759 C20.1823,6.4759 18.7323,5.0259 18.7323,3.2379 C18.7323,1.4499 20.1823,-0.0001 21.9713,-0.0001 C23.7593,-0.0001 25.2083,1.4499 25.2083,3.2379 Z" id="Stroke-15" stroke="#11193A" stroke-width="2" stroke-linecap="round" stroke-linejoin="round"></path>
                <path d="M62.1633,6.2648 C62.1633,8.0528 60.7133,9.5028 58.9253,9.5028 C57.1373,9.5028 55.6873,8.0528 55.6873,6.2648 C55.6873,4.4758 57.1373,3.0268 58.9253,3.0268 C60.7133,3.0268 62.1633,4.4758 62.1633,6.2648 Z" id="Stroke-17" stroke="#11193A" stroke-width="2" stroke-linecap="round" stroke-linejoin="round"></path>
                <path d="M94.2502,46.7536 L71.7252,46.7536" id="Stroke-19" stroke="#11193A" stroke-width="2" stroke-linecap="round" stroke-linejoin="round"></path>
                <path d="M78.0598,40.5592 L70.7868,40.5592" id="Stroke-21" stroke="#11193A" stroke-width="2" stroke-linecap="round" stroke-linejoin="round"></path>
                <path d="M78.0598,52.3844 L70.7868,52.3844" id="Stroke-23" stroke="#11193A" stroke-width="2" stroke-linecap="round" stroke-linejoin="round"></path>
                <path d="M84.9583,58.5788 L68.5343,58.5788" id="Stroke-25" stroke="#11193A" stroke-width="2" stroke-linecap="round" stroke-linejoin="round"></path>
                <path d="M88.4778,24.0646 L80.3598,32.2996 C80.3598,32.2996 78.2718,34.9746 75.2908,34.9046 L68.5348,34.9046" id="Stroke-27" stroke="#11193A" stroke-width="2" stroke-linecap="round" stroke-linejoin="round"></path>
                <path d="M91.2229,24.6276 C89.4349,24.6276 87.9849,23.1776 87.9849,21.3896 C87.9849,19.6016 89.4349,18.1516 91.2229,18.1516 C93.0109,18.1516 94.4609,19.6016 94.4609,21.3896 C94.4609,23.1776 93.0109,24.6276 91.2229,24.6276 Z" id="Stroke-29" stroke="#11193A" stroke-width="2" stroke-linecap="round" stroke-linejoin="round"></path>
                <path d="M88.1965,61.5822 C86.4085,61.5822 84.9585,60.1322 84.9585,58.3442 C84.9585,56.5562 86.4085,55.1062 88.1965,55.1062 C89.9845,55.1062 91.4335,56.5562 91.4335,58.3442 C91.4335,60.1322 89.9845,61.5822 88.1965,61.5822 Z" id="Stroke-31" stroke="#11193A" stroke-width="2" stroke-linecap="round" stroke-linejoin="round"></path>
                <path d="M47.4983,93.8151 L47.4983,71.2911" id="Stroke-33" stroke="#11193A" stroke-width="2" stroke-linecap="round" stroke-linejoin="round"></path>
                <path d="M53.6926,77.6256 L53.6926,70.3516" id="Stroke-35" stroke="#11193A" stroke-width="2" stroke-linecap="round" stroke-linejoin="round"></path>
                <path d="M41.8674,77.6256 L41.8674,70.3516" id="Stroke-37" stroke="#11193A" stroke-width="2" stroke-linecap="round" stroke-linejoin="round"></path>
                <path d="M35.6731,84.5236 L35.6731,68.0996" id="Stroke-39" stroke="#11193A" stroke-width="2" stroke-linecap="round" stroke-linejoin="round"></path>
                <path d="M70.1877,88.0431 L61.9527,79.9251 C61.9527,79.9251 59.2777,77.8361 59.3477,74.8571 L59.3477,68.0991" id="Stroke-41" stroke="#11193A" stroke-width="2" stroke-linecap="round" stroke-linejoin="round"></path>
                <path d="M69.6243,90.7882 C69.6243,89.0002 71.0743,87.5502 72.8623,87.5502 C74.6503,87.5502 76.1013,89.0002 76.1013,90.7882 C76.1013,92.5772 74.6503,94.0262 72.8623,94.0262 C71.0743,94.0262 69.6243,92.5772 69.6243,90.7882 Z" id="Stroke-43" stroke="#11193A" stroke-width="2" stroke-linecap="round" stroke-linejoin="round"></path>
                <path d="M32.6702,87.7619 C32.6702,85.9729 34.1192,84.5239 35.9072,84.5239 C37.6962,84.5239 39.1462,85.9729 39.1462,87.7619 C39.1462,89.5499 37.6962,90.9999 35.9072,90.9999 C34.1192,90.9999 32.6702,89.5499 32.6702,87.7619 Z" id="Stroke-45" stroke="#11193A" stroke-width="2" stroke-linecap="round" stroke-linejoin="round"></path>
                <path d="M0.2112,46.0207 L22.7352,46.0207" id="Stroke-47" stroke="#11193A" stroke-width="2" stroke-linecap="round" stroke-linejoin="round"></path>
                <path d="M16.4006,52.215 L23.6736,52.215" id="Stroke-49" stroke="#11193A" stroke-width="2" stroke-linecap="round" stroke-linejoin="round"></path>
                <path d="M16.4006,40.3893 L23.6736,40.3893" id="Stroke-51" stroke="#11193A" stroke-width="2" stroke-linecap="round" stroke-linejoin="round"></path>
                <path d="M9.5022,34.195 L25.9272,34.195" id="Stroke-53" stroke="#11193A" stroke-width="2" stroke-linecap="round" stroke-linejoin="round"></path>
                <path d="M5.9827,68.7096 L14.1017,60.4736 C14.1017,60.4736 16.1897,57.7986 19.1697,57.8696 L25.9267,57.8696" id="Stroke-55" stroke="#11193A" stroke-width="2" stroke-linecap="round" stroke-linejoin="round"></path>
                <path d="M3.2375,68.1462 C5.0265,68.1462 6.4755,69.5962 6.4755,71.3842 C6.4755,73.1722 5.0265,74.6222 3.2375,74.6222 C1.4495,74.6222 0.0005,73.1722 0.0005,71.3842 C0.0005,69.5962 1.4495,68.1462 3.2375,68.1462 Z" id="Stroke-57" stroke="#11193A" stroke-width="2" stroke-linecap="round" stroke-linejoin="round"></path>
                <path d="M6.2649,31.1916 C8.0529,31.1916 9.5019,32.6416 9.5019,34.4296 C9.5019,36.2176 8.0529,37.6676 6.2649,37.6676 C4.4769,37.6676 3.0269,36.2176 3.0269,34.4296 C3.0269,32.6416 4.4769,31.1916 6.2649,31.1916 Z" id="Stroke-59" stroke="#11193A" stroke-width="2" stroke-linecap="round" stroke-linejoin="round"></path>
            </g>
        </g>
    </g>
</svg>