<?xml version="1.0" encoding="UTF-8"?>
<svg width="34px" height="41px" viewBox="0 0 34 41" version="1.1" xmlns="http://www.w3.org/2000/svg" xmlns:xlink="http://www.w3.org/1999/xlink">
    <!-- Generator: Sketch 51.3 (57544) - http://www.bohemiancoding.com/sketch -->
    <title>Group 11</title>
    <desc>Created with Sketch.</desc>
    <defs></defs>
    <g id="Page-1" stroke="none" stroke-width="1" fill="none" fill-rule="evenodd" stroke-linecap="round" stroke-linejoin="round">
        <g id="Home-Copy" transform="translate(-630.000000, -124.000000)" stroke="#11193A" stroke-width="1.227">
            <g id="Group-11" transform="translate(630.000000, 124.000000)">
                <path d="M25.1922,40.2541 L25.6822,40.2541 C25.6822,35.3451 22.0992,33.3821 18.3202,33.3821 L14.6382,33.3821 C10.8582,33.3821 7.2752,35.3451 7.2752,40.2541 L7.7662,40.2541 L25.1922,40.2541 Z" id="Stroke-1"></path>
                <path d="M21.0809,27.5105 C21.0809,30.0525 19.0199,32.1125 16.4789,32.1125 C13.9369,32.1125 11.8769,30.0525 11.8769,27.5105 C11.8769,24.9685 13.9369,22.9085 16.4789,22.9085 C19.0199,22.9085 21.0809,24.9685 21.0809,27.5105 Z" id="Stroke-3"></path>
                <path d="M21.0809,5.2156 C21.0809,7.7576 19.0199,9.8176 16.4789,9.8176 C13.9369,9.8176 11.8769,7.7576 11.8769,5.2156 C11.8769,2.6736 13.9369,0.6136 16.4789,0.6136 C19.0199,0.6136 21.0809,2.6736 21.0809,5.2156 Z" id="Stroke-5"></path>
                <path d="M9.8172,16.2976 C9.8172,18.8396 7.7562,20.8996 5.2152,20.8996 C2.6732,20.8996 0.6132,18.8396 0.6132,16.2976 C0.6132,13.7556 2.6732,11.6956 5.2152,11.6956 C7.7562,11.6956 9.8172,13.7556 9.8172,16.2976 Z" id="Stroke-7"></path>
                <path d="M32.4891,16.2976 C32.4891,18.8396 30.4291,20.8996 27.8871,20.8996 C25.3461,20.8996 23.2861,18.8396 23.2861,16.2976 C23.2861,13.7556 25.3461,11.6956 27.8871,11.6956 C30.4291,11.6956 32.4891,13.7556 32.4891,16.2976 Z" id="Stroke-9"></path>
            </g>
        </g>
    </g>
</svg>