<?xml version="1.0" encoding="UTF-8"?>
<svg width="46px" height="36px" viewBox="0 0 46 36" version="1.1" xmlns="http://www.w3.org/2000/svg" xmlns:xlink="http://www.w3.org/1999/xlink">
    <!-- Generator: Sketch 51.3 (57544) - http://www.bohemiancoding.com/sketch -->
    <title>Group 18</title>
    <desc>Created with Sketch.</desc>
    <defs></defs>
    <g id="Page-1" stroke="none" stroke-width="1" fill="none" fill-rule="evenodd" stroke-linecap="round" stroke-linejoin="round">
        <g id="Home-Copy" transform="translate(-1026.000000, -127.000000)" stroke="#11193A" stroke-width="1.227">
            <g id="Group-18" transform="translate(1026.000000, 127.000000)">
                <g id="Group-9" transform="translate(0.000000, 0.016700)">
                    <polyline id="Stroke-1" points="9.4706 34.3864 4.2226 34.3864 4.2226 0.5964 9.4706 0.5964"></polyline>
                    <polyline id="Stroke-3" points="36.244 0.5968 41.493 0.5968 41.493 34.3868 36.244 34.3868"></polyline>
                    <path d="M0.6132,17.4371 L4.1442,17.4371" id="Stroke-5"></path>
                    <path d="M41.62,17.4371 L45.339,17.4371" id="Stroke-7"></path>
                </g>
                <path d="M39.7616,17.4538 L6.0806,17.4538" id="Stroke-10"></path>
                <g id="Group-17" transform="translate(5.000000, 5.016700)">
                    <path d="M0.7528,12.5465 C0.7528,12.5465 6.8778,0.4535 18.2488,0.6275 C29.0208,0.7915 35.0898,12.4375 35.0898,12.4375" id="Stroke-11"></path>
                    <path d="M35.0898,12.5993 C35.0898,12.5993 28.9648,24.6913 17.5938,24.5183 C6.8218,24.3543 0.7528,12.7083 0.7528,12.7083" id="Stroke-13"></path>
                    <path d="M25.0194,12.4371 C25.0194,16.3171 21.8734,19.4621 17.9944,19.4621 C14.1144,19.4621 10.9684,16.3171 10.9684,12.4371 C10.9684,8.5571 14.1144,5.4111 17.9944,5.4111 C21.8734,5.4111 25.0194,8.5571 25.0194,12.4371 Z" id="Stroke-15"></path>
                </g>
            </g>
        </g>
    </g>
</svg>