<?xml version="1.0" encoding="UTF-8"?>
<svg width="43px" height="38px" viewBox="0 0 43 38" version="1.1" xmlns="http://www.w3.org/2000/svg" xmlns:xlink="http://www.w3.org/1999/xlink">
    <!-- Generator: Sketch 51.3 (57544) - http://www.bohemiancoding.com/sketch -->
    <title>Group 15</title>
    <desc>Created with Sketch.</desc>
    <defs></defs>
    <g id="Page-1" stroke="none" stroke-width="1" fill="none" fill-rule="evenodd">
        <g id="Home-Copy" transform="translate(-625.000000, -260.000000)">
            <g id="Group-15" transform="translate(625.000000, 260.000000)">
                <g id="Group-4" transform="translate(0.000000, 0.458600)" stroke="#11193A" stroke-linecap="round" stroke-linejoin="round" stroke-width="1.227">
                    <polygon id="Stroke-1" points="0.613 36.387 42.301 36.387 42.301 0.155 0.613 0.155"></polygon>
                    <path d="M0.7323,10.1255 L42.1603,10.1255" id="Stroke-3"></path>
                </g>
                <path d="M18.5672,29.8233 L24.2542,18.7643" id="Stroke-5" stroke="#11193A" stroke-width="1.227" stroke-linecap="round" stroke-linejoin="round"></path>
                <polyline id="Stroke-6" stroke="#11193A" stroke-width="1.227" stroke-linecap="round" stroke-linejoin="round" points="14.1434 18.7642 8.5614 24.3472 14.0384 29.7182"></polyline>
                <polyline id="Stroke-7" stroke="#11193A" stroke-width="1.227" stroke-linecap="round" stroke-linejoin="round" points="29.0467 29.7184 34.6287 24.1354 29.1517 18.7644"></polyline>
                <g id="Group-14" transform="translate(27.000000, 4.458600)" fill="#11193A">
                    <path d="M1.7489,0.9931 C1.7489,1.2521 1.5389,1.4631 1.2789,1.4631 C1.0199,1.4631 0.8109,1.2521 0.8109,0.9931 C0.8109,0.7341 1.0199,0.5241 1.2789,0.5241 C1.5389,0.5241 1.7489,0.7341 1.7489,0.9931" id="Fill-8"></path>
                    <path d="M6.2557,0.9931 C6.2557,1.2521 6.0457,1.4631 5.7857,1.4631 C5.5267,1.4631 5.3177,1.2521 5.3177,0.9931 C5.3177,0.7341 5.5267,0.5241 5.7857,0.5241 C6.0457,0.5241 6.2557,0.7341 6.2557,0.9931" id="Fill-10"></path>
                    <path d="M11.0438,0.9931 C11.0438,1.2521 10.8338,1.4631 10.5748,1.4631 C10.3148,1.4631 10.1058,1.2521 10.1058,0.9931 C10.1058,0.7341 10.3148,0.5241 10.5748,0.5241 C10.8338,0.5241 11.0438,0.7341 11.0438,0.9931" id="Fill-12"></path>
                </g>
            </g>
        </g>
    </g>
</svg>