<?xml version="1.0" encoding="UTF-8"?>
<svg width="47px" height="46px" viewBox="0 0 47 46" version="1.1" xmlns="http://www.w3.org/2000/svg">
    <!-- Generator: Sketch 51.3 (57544) - http://www.bohemiancoding.com/sketch -->
    <title>Group 19</title>
    <desc>Created with Sketch.</desc>
    <defs></defs>
    <g id="Page-1" stroke="none" stroke-width="1" fill="none" fill-rule="evenodd">
        <g id="Home-Copy" transform="translate(-1025.000000, -253.000000)">
            <g id="Group-19" transform="translate(1026.000000, 253.000000)">
                <path d="M44.5952,25.7444 L44.2112,25.7444 C44.0592,25.8754 43.8742,25.9604 43.6722,25.9914 L39.5512,26.6784 C39.3562,26.7114 39.1982,26.8554 39.1492,27.0454 C38.7512,28.5844 38.1462,30.0444 37.3472,31.3854 C37.2442,31.5594 37.2542,31.7724 37.3712,31.9394 L39.8002,35.3614 C40.0992,35.7884 40.0472,36.3854 39.6812,36.7504 L36.7502,39.6814 C36.6062,39.8274 36.3552,40.0004 35.9832,40.0004 C35.7492,40.0004 35.5292,39.9264 35.3422,39.7864 L31.9462,37.3694 C31.7862,37.2534 31.5692,37.2454 31.3912,37.3494 C30.0522,38.1454 28.5942,38.7514 27.0582,39.1484 C26.8662,39.1964 26.7182,39.3534 26.6902,39.5404 L25.9902,43.6854 C25.9082,44.2054 25.4612,44.5854 24.9252,44.5854 L20.7832,44.5854 C20.2452,44.5854 19.7972,44.2024 19.7162,43.6744 L19.0302,39.5514 C18.9962,39.3554 18.8522,39.1974 18.6612,39.1484 C17.1962,38.7694 15.7702,38.1854 14.4222,37.4124 C14.2572,37.3184 14.0202,37.3264 13.8822,37.4294 L10.4262,39.8884 C9.9142,40.2034 9.4242,40.1594 9.0342,39.7694 L6.1042,36.8384 C5.7422,36.4784 5.6842,35.9204 5.9632,35.4824 L8.4072,32.0534 C8.5232,31.8894 8.5312,31.6674 8.4262,31.4894 C7.6092,30.1264 6.9972,28.6724 6.6082,27.1664 C6.5562,26.9784 6.3922,26.8284 6.1992,26.7954 L2.0402,26.0874 C1.5212,26.0074 1.1412,25.5594 1.1412,25.0224 L1.1412,20.8804 C1.1412,20.3444 1.5252,19.8954 2.0532,19.8144 L6.1452,19.1274 C6.3472,19.0934 6.5092,18.9464 6.5582,18.7534 C6.9482,17.2044 7.5432,15.7414 8.3282,14.4044 C8.4272,14.2364 8.4162,14.0234 8.3012,13.8624 L5.8492,10.4154 C5.5482,9.9894 5.6002,9.3914 5.9672,9.0254 L8.8982,6.0944 C9.0422,5.9494 9.2932,5.7754 9.6642,5.7754 C9.8982,5.7754 10.1192,5.8494 10.3062,5.9894 L13.6832,8.3964 C13.8482,8.5134 14.0712,8.5204 14.2472,8.4164 C15.6102,7.5994 17.0652,6.9874 18.5712,6.5984 C18.7582,6.5464 18.9082,6.3824 18.9422,6.1894 L19.6502,2.0304 C19.7302,1.5104 20.1772,1.1314 20.7132,1.1314 L24.8562,1.1314 C25.3952,1.1314 25.8432,1.5154 25.9222,2.0464 L26.6092,6.1354 C26.6432,6.3374 26.7902,6.4994 26.9832,6.5474 C28.5452,6.9404 30.0382,7.5534 31.4212,8.3684 C31.5972,8.4714 31.8112,8.4624 31.9792,8.3454 L35.3662,5.9094 C35.8902,5.5904 36.3672,5.6334 36.7582,6.0244 L39.6922,8.9564 C40.0512,9.3184 40.1102,9.8744 39.8342,10.3104 L37.3792,13.7614 C37.2632,13.9224 37.2552,14.1404 37.3592,14.3164 C38.1542,15.6514 38.7592,17.1084 39.1582,18.6484 C39.2062,18.8414 39.3652,18.9894 39.5522,19.0174 L43.6962,19.7184 C44.2162,19.7974 44.5952,20.2444 44.5952,20.7824 L44.5952,25.7444 Z M45.5822,24.9244 L45.5822,20.7824 C45.5962,19.7554 44.8702,18.8884 43.8562,18.7184 L40.0512,18.0734 L39.9032,17.5914 C39.5732,16.5264 39.1462,15.4944 38.6332,14.5244 L38.3962,14.0774 L40.6392,10.9394 C41.2362,10.1014 41.1412,8.9704 40.4142,8.2504 L37.4792,5.3154 C36.7762,4.6124 35.5982,4.5124 34.7992,5.0864 L31.6492,7.3294 L31.2022,7.0944 C30.1692,6.5484 29.1002,6.1084 28.0252,5.7864 L27.5352,5.6404 L26.9002,1.8714 C26.7312,0.8594 25.8622,0.1254 24.8352,0.1254 L20.6942,0.1254 C19.6672,0.1254 18.8002,0.8594 18.6302,1.8704 L17.9752,5.7134 L17.4942,5.8634 C16.4482,6.1904 15.4202,6.6224 14.4422,7.1504 L13.9912,7.3934 L10.8682,5.1454 C10.0722,4.5724 8.8672,4.6724 8.1842,5.3694 L5.2372,8.3074 C4.5112,9.0324 4.4162,10.1644 5.0102,10.9994 L7.2702,14.1744 L7.0362,14.6204 C6.5312,15.5844 6.1112,16.6184 5.7862,17.6934 L5.6402,18.1814 L1.8712,18.8164 C0.8592,18.9864 0.1242,19.8544 0.1242,20.8804 L0.1242,25.0224 C0.1242,26.0494 0.8592,26.9174 1.8712,27.0874 L5.7132,27.7424 L5.8632,28.2214 C6.1902,29.2684 6.6232,30.2964 7.1502,31.2754 L7.3932,31.7264 L5.1562,34.8384 C4.5602,35.6754 4.6552,36.8054 5.3812,37.5254 L8.3172,40.4604 C9.0222,41.1644 10.1982,41.2654 10.9952,40.6894 L14.1742,38.4274 L14.6202,38.6614 C15.5422,39.1444 16.5412,39.5564 17.5932,39.8834 L18.0742,40.0334 L18.7082,43.8374 C18.8782,44.8484 19.7462,45.5814 20.7732,45.5814 L24.9252,45.5814 C25.9502,45.5814 26.8192,44.8484 26.9892,43.8364 L27.6342,40.0324 L28.1162,39.8834 C29.1822,39.5524 30.2142,39.1244 31.1822,38.6134 L31.6302,38.3764 L34.7672,40.6194 C35.5732,41.1974 36.7542,41.0974 37.4592,40.3914 L40.3912,37.4594 C41.1162,36.7334 41.2122,35.6014 40.6182,34.7664 L38.3772,31.6204 L38.6122,31.1754 C39.1482,30.1514 39.5742,29.1194 39.8822,28.1104 L40.0302,27.6234 L43.8372,26.9884 C44.8482,26.8194 45.5822,25.9514 45.5822,24.9244 Z" id="Fill-1" fill="#11193A"></path>
                <path d="M44.5952,25.7444 L44.2112,25.7444 C44.0592,25.8754 43.8742,25.9604 43.6722,25.9914 L39.5512,26.6784 C39.3562,26.7114 39.1982,26.8554 39.1492,27.0454 C38.7512,28.5844 38.1462,30.0444 37.3472,31.3854 C37.2442,31.5594 37.2542,31.7724 37.3712,31.9394 L39.8002,35.3614 C40.0992,35.7884 40.0472,36.3854 39.6812,36.7504 L36.7502,39.6814 C36.6062,39.8274 36.3552,40.0004 35.9832,40.0004 C35.7492,40.0004 35.5292,39.9264 35.3422,39.7864 L31.9462,37.3694 C31.7862,37.2534 31.5692,37.2454 31.3912,37.3494 C30.0522,38.1454 28.5942,38.7514 27.0582,39.1484 C26.8662,39.1964 26.7182,39.3534 26.6902,39.5404 L25.9902,43.6854 C25.9082,44.2054 25.4612,44.5854 24.9252,44.5854 L20.7832,44.5854 C20.2452,44.5854 19.7972,44.2024 19.7162,43.6744 L19.0302,39.5514 C18.9962,39.3554 18.8522,39.1974 18.6612,39.1484 C17.1962,38.7694 15.7702,38.1854 14.4222,37.4124 C14.2572,37.3184 14.0202,37.3264 13.8822,37.4294 L10.4262,39.8884 C9.9142,40.2034 9.4242,40.1594 9.0342,39.7694 L6.1042,36.8384 C5.7422,36.4784 5.6842,35.9204 5.9632,35.4824 L8.4072,32.0534 C8.5232,31.8894 8.5312,31.6674 8.4262,31.4894 C7.6092,30.1264 6.9972,28.6724 6.6082,27.1664 C6.5562,26.9784 6.3922,26.8284 6.1992,26.7954 L2.0402,26.0874 C1.5212,26.0074 1.1412,25.5594 1.1412,25.0224 L1.1412,20.8804 C1.1412,20.3444 1.5252,19.8954 2.0532,19.8144 L6.1452,19.1274 C6.3472,19.0934 6.5092,18.9464 6.5582,18.7534 C6.9482,17.2044 7.5432,15.7414 8.3282,14.4044 C8.4272,14.2364 8.4162,14.0234 8.3012,13.8624 L5.8492,10.4154 C5.5482,9.9894 5.6002,9.3914 5.9672,9.0254 L8.8982,6.0944 C9.0422,5.9494 9.2932,5.7754 9.6642,5.7754 C9.8982,5.7754 10.1192,5.8494 10.3062,5.9894 L13.6832,8.3964 C13.8482,8.5134 14.0712,8.5204 14.2472,8.4164 C15.6102,7.5994 17.0652,6.9874 18.5712,6.5984 C18.7582,6.5464 18.9082,6.3824 18.9422,6.1894 L19.6502,2.0304 C19.7302,1.5104 20.1772,1.1314 20.7132,1.1314 L24.8562,1.1314 C25.3952,1.1314 25.8432,1.5154 25.9222,2.0464 L26.6092,6.1354 C26.6432,6.3374 26.7902,6.4994 26.9832,6.5474 C28.5452,6.9404 30.0382,7.5534 31.4212,8.3684 C31.5972,8.4714 31.8112,8.4624 31.9792,8.3454 L35.3662,5.9094 C35.8902,5.5904 36.3672,5.6334 36.7582,6.0244 L39.6922,8.9564 C40.0512,9.3184 40.1102,9.8744 39.8342,10.3104 L37.3792,13.7614 C37.2632,13.9224 37.2552,14.1404 37.3592,14.3164 C38.1542,15.6514 38.7592,17.1084 39.1582,18.6484 C39.2062,18.8414 39.3652,18.9894 39.5522,19.0174 L43.6962,19.7184 C44.2162,19.7974 44.5952,20.2444 44.5952,20.7824 L44.5952,25.7444 Z M45.5822,24.9244 L45.5822,20.7824 C45.5962,19.7554 44.8702,18.8884 43.8562,18.7184 L40.0512,18.0734 L39.9032,17.5914 C39.5732,16.5264 39.1462,15.4944 38.6332,14.5244 L38.3962,14.0774 L40.6392,10.9394 C41.2362,10.1014 41.1412,8.9704 40.4142,8.2504 L37.4792,5.3154 C36.7762,4.6124 35.5982,4.5124 34.7992,5.0864 L31.6492,7.3294 L31.2022,7.0944 C30.1692,6.5484 29.1002,6.1084 28.0252,5.7864 L27.5352,5.6404 L26.9002,1.8714 C26.7312,0.8594 25.8622,0.1254 24.8352,0.1254 L20.6942,0.1254 C19.6672,0.1254 18.8002,0.8594 18.6302,1.8704 L17.9752,5.7134 L17.4942,5.8634 C16.4482,6.1904 15.4202,6.6224 14.4422,7.1504 L13.9912,7.3934 L10.8682,5.1454 C10.0722,4.5724 8.8672,4.6724 8.1842,5.3694 L5.2372,8.3074 C4.5112,9.0324 4.4162,10.1644 5.0102,10.9994 L7.2702,14.1744 L7.0362,14.6204 C6.5312,15.5844 6.1112,16.6184 5.7862,17.6934 L5.6402,18.1814 L1.8712,18.8164 C0.8592,18.9864 0.1242,19.8544 0.1242,20.8804 L0.1242,25.0224 C0.1242,26.0494 0.8592,26.9174 1.8712,27.0874 L5.7132,27.7424 L5.8632,28.2214 C6.1902,29.2684 6.6232,30.2964 7.1502,31.2754 L7.3932,31.7264 L5.1562,34.8384 C4.5602,35.6754 4.6552,36.8054 5.3812,37.5254 L8.3172,40.4604 C9.0222,41.1644 10.1982,41.2654 10.9952,40.6894 L14.1742,38.4274 L14.6202,38.6614 C15.5422,39.1444 16.5412,39.5564 17.5932,39.8834 L18.0742,40.0334 L18.7082,43.8374 C18.8782,44.8484 19.7462,45.5814 20.7732,45.5814 L24.9252,45.5814 C25.9502,45.5814 26.8192,44.8484 26.9892,43.8364 L27.6342,40.0324 L28.1162,39.8834 C29.1822,39.5524 30.2142,39.1244 31.1822,38.6134 L31.6302,38.3764 L34.7672,40.6194 C35.5732,41.1974 36.7542,41.0974 37.4592,40.3914 L40.3912,37.4594 C41.1162,36.7334 41.2122,35.6014 40.6182,34.7664 L38.3772,31.6204 L38.6122,31.1754 C39.1482,30.1514 39.5742,29.1194 39.8822,28.1104 L40.0302,27.6234 L43.8372,26.9884 C44.8482,26.8194 45.5822,25.9514 45.5822,24.9244 Z" id="Stroke-3" stroke="#11193A" stroke-width="0.25"></path>
                <path d="M12.9888,15.8064 C15.6868,12.0714 20.4128,10.0554 25.2198,11.0404 C28.7438,11.7634 31.5928,13.9504 33.2598,16.8374" id="Stroke-5" stroke="#11193A" stroke-width="1.227" stroke-linecap="round" stroke-linejoin="round"></path>
                <path d="M21.3101,34.8806 C20.9961,34.8416 20.6801,34.7896 20.3651,34.7246 C13.8251,33.3836 9.6101,26.9956 10.9511,20.4556 C11.1831,19.3226 11.5661,18.2596 12.0761,17.2836" id="Stroke-7" stroke="#11193A" stroke-width="1.227" stroke-linecap="round" stroke-linejoin="round"></path>
                <path d="M33.8521,18.0012 C34.8331,20.2192 35.1591,22.7532 34.6341,25.3112 C33.4871,30.9102 28.6381,34.8062 23.1621,34.9682" id="Stroke-9" stroke="#11193A" stroke-width="1.227" stroke-linecap="round" stroke-linejoin="round"></path>
                <polyline id="Stroke-11" stroke="#11193A" stroke-width="1.227" stroke-linecap="round" stroke-linejoin="round" points="10.2769 17.7141 12.0569 17.2741 12.6619 19.0291"></polyline>
                <polyline id="Stroke-13" stroke="#11193A" stroke-width="1.227" stroke-linecap="round" stroke-linejoin="round" points="33.6324 14.9587 33.2564 16.8397 31.2474 16.5207"></polyline>
                <path d="M23.1617,34.9499 L24.3397,33.4209" id="Stroke-15" stroke="#11193A" stroke-width="1.227" stroke-linecap="round" stroke-linejoin="round"></path>
                <path d="M24.6685,36.3401 L23.1615,34.9501" id="Stroke-17" stroke="#11193A" stroke-width="1.227" stroke-linecap="round" stroke-linejoin="round"></path>
            </g>
        </g>
    </g>
</svg>