<?xml version="1.0" encoding="UTF-8"?>
<svg width="280px" height="91px" viewBox="0 0 280 91" version="1.1" xmlns="http://www.w3.org/2000/svg" xmlns:xlink="http://www.w3.org/1999/xlink">
    <!-- Generator: Sketch 51.3 (57544) - http://www.bohemiancoding.com/sketch -->
    <title>Group 24</title>
    <desc>Created with Sketch.</desc>
    <defs>
        <polygon id="path-1" points="0.0717312427 0.585121495 31.6504364 0.585121495 31.6504364 56.1549645 0.0717312427 56.1549645"></polygon>
        <polygon id="path-3" points="0.438751515 0.252843925 29.0063879 0.252843925 29.0063879 39.1214953 0.438751515 39.1214953"></polygon>
        <polygon id="path-5" points="0.679042424 0.252843925 29.2466788 0.252843925 29.2466788 39.1214953 0.679042424 39.1214953"></polygon>
    </defs>
    <g id="Page-1" stroke="none" stroke-width="1" fill="none" fill-rule="evenodd">
        <g id="AppsCo" transform="translate(-99.000000, -736.000000)">
            <g id="Group-24" transform="translate(99.000000, 736.000000)">
                <path d="M59.6674061,1.53721963 C59.2363758,1.01333178 58.6780727,1.03459346 58.4209818,1.60100467 L24.1532242,76.9770701 C23.8935879,77.5400794 24.2236485,77.968715 24.9024364,77.9415 L67.2452242,78.0282477 C67.929103,78.0018832 68.6952848,77.5162664 68.9481333,76.9481542 L88.0958909,35.1281262 C88.3546788,34.5668178 88.2121333,33.6670234 87.7819515,33.1448364 L59.6674061,1.53721963 Z" id="Fill-1" fill="#39C1D7"></path>
                <path d="M7.65214545,47.0492963 L26.0506909,6.58151121 L21.6971152,1.26268879 C21.2609939,0.758361682 20.695903,0.794931776 20.4481455,1.35198785 L0.0794181818,46.1478009 C-0.172581818,46.7023056 0.19990303,47.2729692 0.860872727,47.3954364 L7.65214545,47.0492963 Z" id="Fill-3" fill="#006D92"></path>
                <g id="Group-7" transform="translate(6.787879, 0.265346)">
                    <mask id="mask-2" fill="white">
                        <use xlink:href="#path-1"></use>
                    </mask>
                    <g id="Clip-6"></g>
                    <path d="M24.809103,1.01817944 L0.163163636,55.2252636 C-0.0888363636,55.7695626 0.193709091,56.1777869 0.8428,56.1539738 L9.76886061,55.8979832 L31.6504364,7.77259065 L26.0606182,0.939085981 C25.624497,0.433908411 25.0670424,0.477282243 24.809103,1.01817944" id="Fill-5" fill="#0D82A3" mask="url(#mask-2)"></path>
                </g>
                <path d="M44.2446667,1.76727103 L15.1687879,65.7266636 C14.9167879,66.2803178 15.2044242,66.6868411 15.8696364,66.6664299 L25.7731515,66.2377944 L51.6341212,9.34918692 L45.4766667,1.70348598 C45.0507273,1.18980374 44.4966667,1.22127103 44.2446667,1.76727103" id="Fill-8" fill="#289EBB"></path>
                <path d="M109.779345,51.1861393 L105.136436,63.7449897 L114.315345,63.7449897 L109.779345,51.1861393 Z M119.575952,78.0115785 L116.741164,70.8251299 L102.609648,70.8251299 L99.9284364,78.0115785 L90.3380121,78.0115785 L105.652315,41.4151206 L114.213527,41.4151206 L129.374255,78.0115785 L119.575952,78.0115785 Z" id="Fill-10" fill="#404041"></path>
                <g id="Group-14" transform="translate(131.515152, 51.293383)">
                    <mask id="mask-4" fill="white">
                        <use xlink:href="#path-3"></use>
                    </mask>
                    <g id="Clip-13"></g>
                    <path d="M14.7747515,7.17904953 C10.9582667,7.17904953 8.58505455,10.5400963 8.58505455,13.7939841 C8.58505455,17.1541804 10.9582667,20.4106196 14.7747515,20.4106196 C18.7957212,20.4106196 20.8083273,17.1040028 20.8083273,13.7429561 C20.8083273,10.4380402 18.7957212,7.17904953 14.7747515,7.17904953 M16.7839636,27.4380308 C13.6386303,27.4380308 10.5968121,26.0976944 8.9965697,23.8745729 L8.89475152,23.8745729 L8.89475152,39.1217505 L0.438751515,39.1217505 L0.438751515,0.974890654 L8.48323636,0.974890654 L8.48323636,4.13097477 L8.63681212,4.13097477 C10.1844485,2.06178785 13.0709939,0.252843925 16.8357212,0.252843925 C24.3125697,0.252843925 29.0063879,6.55990935 29.0063879,13.7429561 C29.0063879,20.9294047 24.5196,27.4380308 16.7839636,27.4380308" id="Fill-12" fill="#404041" mask="url(#mask-4)"></path>
                </g>
                <g id="Group-17" transform="translate(162.060606, 51.293383)">
                    <mask id="mask-6" fill="white">
                        <use xlink:href="#path-5"></use>
                    </mask>
                    <g id="Clip-16"></g>
                    <path d="M15.0141939,7.17904953 C11.1977091,7.17904953 8.82704242,10.5400963 8.82704242,13.7939841 C8.82704242,17.1541804 11.1977091,20.4106196 15.0141939,20.4106196 C19.0368606,20.4106196 21.0477697,17.1040028 21.0477697,13.7429561 C21.0477697,10.4380402 19.0368606,7.17904953 15.0141939,7.17904953 M17.0234061,27.4380308 C13.8789212,27.4380308 10.8379515,26.0976944 9.23940606,23.8745729 L9.13504242,23.8745729 L9.13504242,39.1217505 L0.679042424,39.1217505 L0.679042424,0.974890654 L8.72437576,0.974890654 L8.72437576,4.13097477 L8.87795152,4.13097477 C10.4255879,2.06178785 13.3129818,0.252843925 17.0777091,0.252843925 C24.5554061,0.252843925 29.2466788,6.55990935 29.2466788,13.7429561 C29.2466788,20.9294047 24.7598909,27.4380308 17.0234061,27.4380308" id="Fill-15" fill="#404041" mask="url(#mask-6)"></path>
                </g>
                <path d="M209.666885,59.8685598 C208.326279,58.5749991 206.366279,57.5425318 204.302764,57.5425318 C202.705067,57.5425318 201.106521,58.1106439 201.106521,59.6083168 C201.106521,61.0566626 202.499733,61.4699897 205.797794,62.191186 C209.717794,63.0722701 213.997552,65.0368495 213.997552,70.0495037 C213.997552,76.5640832 208.272824,78.8365318 203.014764,78.8365318 C198.837673,78.8365318 194.506158,77.4434664 191.823248,74.8580458 L196.567976,69.8428402 C198.063006,71.4995505 200.383612,72.7369804 202.859491,72.7369804 C204.251006,72.7369804 205.902158,72.1705692 205.902158,70.5138589 C205.902158,68.9115785 204.302764,68.3970458 200.797673,67.5703916 C197.238279,66.7428869 193.319127,64.9356439 193.319127,60.0735224 C193.319127,53.9246439 199.095612,51.4446813 203.993067,51.4446813 C207.8104,51.4446813 211.778764,52.6838121 214.308097,55.0608682 L209.666885,59.8685598 Z" id="Fill-18" fill="#404041"></path>
                <path d="M236.276473,78.9903813 C225.0332,78.9903813 216.629806,71.1380168 216.629806,59.6592598 C216.629806,47.9270636 225.294533,40.4344467 236.4292,40.4344467 C241.535382,40.4344467 247.05223,42.2944187 250.095745,45.8085495 L244.113927,51.8034935 C242.462776,49.5310449 239.524473,48.4441477 236.738897,48.4441477 C230.602655,48.4441477 226.219382,53.2016617 226.219382,59.6592598 C226.219382,66.3286243 230.500836,70.8769234 236.58617,70.8769234 C240.038655,70.8769234 242.772473,69.3290729 244.320109,67.154428 L250.456352,72.9469607 C247.259261,76.6660542 242.412715,78.9903813 236.276473,78.9903813" id="Fill-20" fill="#404041"></path>
                <path d="M265.052073,58.4724327 C261.079467,58.4724327 259.0168,61.7314234 259.0168,65.0363393 C259.0168,68.344657 261.132073,71.7040028 265.102133,71.7040028 C269.073891,71.7040028 271.187467,68.344657 271.187467,65.0363393 C271.187467,61.7314234 269.021285,58.4724327 265.052073,58.4724327 M265.052073,78.8360215 C257.316436,78.8360215 250.820436,73.4610682 250.820436,65.0363393 C250.820436,56.6124607 257.316436,51.4450215 265.052073,51.4450215 C272.836921,51.4450215 279.334618,56.6124607 279.334618,65.0363393 C279.334618,73.4610682 272.836921,78.8360215 265.052073,78.8360215" id="Fill-22" fill="#404041"></path>
            </g>
        </g>
    </g>
</svg>