<?xml version="1.0" encoding="UTF-8"?>
<svg width="143px" height="44px" viewBox="0 0 143 44" version="1.1" xmlns="http://www.w3.org/2000/svg" xmlns:xlink="http://www.w3.org/1999/xlink">
    <!-- Generator: Sketch 51.3 (57544) - http://www.bohemiancoding.com/sketch -->
    <title>Group 34</title>
    <desc>Created with Sketch.</desc>
    <defs>
        <polygon id="path-1" points="0 43.7279 142.037 43.7279 142.037 -0.0001 0 -0.0001"></polygon>
    </defs>
    <g id="Page-1" stroke="none" stroke-width="1" fill="none" fill-rule="evenodd">
        <g id="Home" transform="translate(-53.000000, -4605.000000)">
            <g id="Group-34" transform="translate(53.000000, 4605.000000)">
                <path d="M44.3105,9.6727 C44.7755,10.1377 45.3585,10.3697 46.0615,10.3697 C46.7635,10.3697 47.3465,10.1377 47.8095,9.6727 C48.2705,9.2077 48.5025,8.6267 48.5025,7.9297 C48.5025,7.2217 48.2705,6.6347 47.8095,6.1697 C47.3465,5.7057 46.7635,5.4727 46.0615,5.4727 C45.3585,5.4727 44.7755,5.7067 44.3105,6.1737 C43.8455,6.6417 43.6135,7.2267 43.6135,7.9297 C43.6135,8.6267 43.8455,9.2077 44.3105,9.6727 M46.2565,3.1947 C47.1535,3.1947 47.9615,3.3987 48.6805,3.8067 C49.3995,4.2147 49.9595,4.7797 50.3635,5.5017 C50.7655,6.2227 50.9665,7.0327 50.9665,7.9297 C50.9665,8.8267 50.7655,9.6357 50.3635,10.3577 C49.9595,11.0797 49.3995,11.6447 48.6805,12.0527 C47.9615,12.4607 47.1535,12.6647 46.2565,12.6647 C45.1805,12.6647 44.2465,12.3317 43.4515,11.6677 L43.1595,12.4127 L41.3745,12.4127 L41.3745,0.2107 L43.7995,0.2107 L43.7995,3.9317 C44.5185,3.4407 45.3365,3.1947 46.2565,3.1947" id="Fill-1" fill="#FFFFFF"></path>
                <path d="M56.4716,12.6644 C55.2076,12.6644 54.1876,12.2944 53.4116,11.5534 C52.6356,10.8134 52.2476,9.8374 52.2476,8.6264 L52.2476,3.4454 L54.6716,3.4454 L54.6716,8.3514 C54.6716,8.9884 54.8316,9.4874 55.1516,9.8474 C55.4696,10.2064 55.9096,10.3864 56.4716,10.3864 C57.0336,10.3864 57.4716,10.2054 57.7856,9.8434 C58.0986,9.4804 58.2556,8.9834 58.2556,8.3514 L58.2556,3.4454 L60.6806,3.4454 L60.6806,8.6264 C60.6806,9.8374 60.2956,10.8134 59.5296,11.5534 C58.7616,12.2944 57.7426,12.6644 56.4716,12.6644" id="Fill-3" fill="#FFFFFF"></path>
                <path d="M66.0644,12.6644 C64.9404,12.6644 64.0334,12.3714 63.3444,11.7854 C62.6554,11.1984 62.3074,10.4244 62.3024,9.4624 L64.6624,9.4624 C64.6674,9.8464 64.8064,10.1404 65.0804,10.3454 C65.3524,10.5514 65.7124,10.6534 66.1624,10.6534 C66.5184,10.6534 66.8194,10.5754 67.0654,10.4184 C67.3114,10.2624 67.4354,10.0404 67.4354,9.7534 C67.4354,9.6074 67.3924,9.4804 67.3094,9.3724 C67.2244,9.2654 67.0944,9.1744 66.9164,9.1014 C66.7374,9.0284 66.5614,8.9714 66.3884,8.9314 C66.2154,8.8904 65.9894,8.8454 65.7084,8.7964 C65.4544,8.7534 65.2404,8.7144 65.0674,8.6794 C64.8944,8.6444 64.6844,8.5914 64.4384,8.5214 C64.1924,8.4514 63.9864,8.3734 63.8194,8.2904 C63.6514,8.2064 63.4744,8.0944 63.2884,7.9544 C63.1014,7.8134 62.9524,7.6584 62.8414,7.4874 C62.7314,7.3174 62.6384,7.1104 62.5654,6.8674 C62.4934,6.6244 62.4564,6.3564 62.4564,6.0644 C62.4564,5.2164 62.7894,4.5254 63.4544,3.9934 C64.1184,3.4604 64.9894,3.1944 66.0644,3.1944 C67.1454,3.1944 68.0134,3.4694 68.6684,4.0174 C69.3214,4.5654 69.6514,5.2894 69.6564,6.1864 L67.3534,6.1864 C67.3484,5.8354 67.2274,5.5704 66.9934,5.3924 C66.7574,5.2134 66.4264,5.1244 66.0004,5.1244 C65.6274,5.1244 65.3344,5.2024 65.1204,5.3594 C64.9064,5.5164 64.7994,5.7244 64.7994,5.9834 C64.7994,6.0814 64.8174,6.1684 64.8524,6.2474 C64.8874,6.3254 64.9504,6.3934 65.0394,6.4494 C65.1284,6.5064 65.2114,6.5554 65.2904,6.5954 C65.3694,6.6364 65.4874,6.6764 65.6474,6.7174 C65.8064,6.7574 65.9364,6.7874 66.0364,6.8064 C66.1364,6.8254 66.2894,6.8534 66.4944,6.8914 C67.3644,7.0484 67.9914,7.2104 68.3754,7.3774 C69.3424,7.8104 69.8274,8.5674 69.8274,9.6484 C69.8274,10.5614 69.4834,11.2924 68.7964,11.8414 C68.1104,12.3904 67.2004,12.6644 66.0644,12.6644" id="Fill-5" fill="#FFFFFF"></path>
                <mask id="mask-2" fill="white">
                    <use xlink:href="#path-1"></use>
                </mask>
                <g id="Clip-8"></g>
                <path d="M71.602,12.4129 L74.027,12.4129 L74.027,3.4459 L71.602,3.4459 L71.602,12.4129 Z M71.602,2.2539 L74.018,2.2539 L74.018,-0.0001 L71.602,-0.0001 L71.602,2.2539 Z" id="Fill-7" fill="#FFFFFF" mask="url(#mask-2)"></path>
                <path d="M81.4453,3.2347 C82.4613,3.2347 83.2693,3.5737 83.8693,4.2527 C84.4693,4.9307 84.7683,5.8397 84.7683,6.9807 L84.7683,12.4127 L82.3443,12.4127 L82.3443,7.3697 C82.3443,6.0297 81.8233,5.3597 80.7803,5.3597 C80.1583,5.3597 79.6683,5.5687 79.3083,5.9877 C78.9493,6.4067 78.7693,6.9777 78.7693,7.7027 L78.7693,12.4127 L76.3443,12.4127 L76.3443,3.4457 L78.0073,3.4457 L78.4763,4.5567 C78.8233,4.1457 79.2543,3.8227 79.7703,3.5877 C80.2873,3.3527 80.8443,3.2347 81.4453,3.2347" id="Fill-9" fill="#FFFFFF" mask="url(#mask-2)"></path>
                <path d="M91.0449,5.262 C90.5099,5.262 90.0559,5.411 89.6829,5.708 C89.3109,6.005 89.0529,6.422 88.9129,6.956 L93.2589,6.956 C93.0909,6.41 92.8159,5.991 92.4359,5.7 C92.0549,5.408 91.5909,5.262 91.0449,5.262 M95.6829,7.897 C95.6829,8.14 95.6659,8.378 95.6339,8.611 L88.8479,8.611 C88.9499,9.221 89.1949,9.69 89.5819,10.017 C89.9679,10.345 90.4559,10.508 91.0449,10.508 C91.4609,10.508 91.8359,10.416 92.1679,10.232 C92.4999,10.049 92.7589,9.794 92.9419,9.47 L95.4879,9.47 C95.1639,10.449 94.6019,11.225 93.8019,11.801 C93.0009,12.377 92.0829,12.664 91.0449,12.664 C90.1739,12.664 89.3849,12.458 88.6729,12.044 C87.9629,11.631 87.4039,11.062 86.9989,10.338 C86.5939,9.613 86.3909,8.81 86.3909,7.929 C86.3909,7.043 86.5929,6.238 86.9949,5.513 C87.3979,4.789 87.9549,4.221 88.6649,3.811 C89.3759,3.4 90.1689,3.195 91.0449,3.195 C91.9419,3.195 92.7479,3.407 93.4609,3.831 C94.1749,4.255 94.7239,4.824 95.1069,5.538 C95.4909,6.251 95.6829,7.038 95.6829,7.897" id="Fill-10" fill="#FFFFFF" mask="url(#mask-2)"></path>
                <path d="M100.5888,12.6644 C99.4638,12.6644 98.5568,12.3714 97.8678,11.7854 C97.1788,11.1984 96.8308,10.4244 96.8258,9.4624 L99.1858,9.4624 C99.1918,9.8464 99.3298,10.1404 99.6038,10.3454 C99.8758,10.5514 100.2358,10.6534 100.6858,10.6534 C101.0418,10.6534 101.3438,10.5754 101.5888,10.4184 C101.8348,10.2624 101.9588,10.0404 101.9588,9.7534 C101.9588,9.6074 101.9168,9.4804 101.8328,9.3724 C101.7488,9.2654 101.6178,9.1744 101.4398,9.1014 C101.2608,9.0284 101.0848,8.9714 100.9118,8.9314 C100.7388,8.8904 100.5128,8.8454 100.2318,8.7964 C99.9778,8.7534 99.7638,8.7144 99.5918,8.6794 C99.4178,8.6444 99.2078,8.5914 98.9618,8.5214 C98.7168,8.4514 98.5098,8.3734 98.3428,8.2904 C98.1748,8.2064 97.9978,8.0944 97.8118,7.9544 C97.6248,7.8134 97.4768,7.6584 97.3648,7.4874 C97.2548,7.3174 97.1618,7.1104 97.0898,6.8674 C97.0168,6.6244 96.9808,6.3564 96.9808,6.0644 C96.9808,5.2164 97.3128,4.5254 97.9778,3.9934 C98.6418,3.4604 99.5128,3.1944 100.5888,3.1944 C101.6688,3.1944 102.5368,3.4694 103.1918,4.0174 C103.8448,4.5654 104.1748,5.2894 104.1798,6.1864 L101.8768,6.1864 C101.8718,5.8354 101.7518,5.5704 101.5168,5.3924 C101.2808,5.2134 100.9498,5.1244 100.5238,5.1244 C100.1508,5.1244 99.8578,5.2024 99.6438,5.3594 C99.4298,5.5164 99.3228,5.7244 99.3228,5.9834 C99.3228,6.0814 99.3408,6.1684 99.3758,6.2474 C99.4108,6.3254 99.4738,6.3934 99.5628,6.4494 C99.6518,6.5064 99.7348,6.5554 99.8138,6.5954 C99.8928,6.6364 100.0108,6.6764 100.1708,6.7174 C100.3298,6.7574 100.4598,6.7874 100.5598,6.8064 C100.6598,6.8254 100.8128,6.8534 101.0188,6.8914 C101.8878,7.0484 102.5148,7.2104 102.8988,7.3774 C103.8658,7.8104 104.3508,8.5674 104.3508,9.6484 C104.3508,10.5614 104.0068,11.2924 103.3198,11.8414 C102.6348,12.3904 101.7238,12.6644 100.5888,12.6644" id="Fill-11" fill="#FFFFFF" mask="url(#mask-2)"></path>
                <path d="M108.9716,12.6644 C107.8476,12.6644 106.9406,12.3714 106.2506,11.7854 C105.5626,11.1984 105.2146,10.4244 105.2096,9.4624 L107.5686,9.4624 C107.5746,9.8464 107.7136,10.1404 107.9876,10.3454 C108.2586,10.5514 108.6196,10.6534 109.0696,10.6534 C109.4256,10.6534 109.7266,10.5754 109.9726,10.4184 C110.2186,10.2624 110.3416,10.0404 110.3416,9.7534 C110.3416,9.6074 110.2996,9.4804 110.2166,9.3724 C110.1316,9.2654 110.0006,9.1744 109.8236,9.1014 C109.6446,9.0284 109.4686,8.9714 109.2956,8.9314 C109.1226,8.8904 108.8966,8.8454 108.6156,8.7964 C108.3606,8.7534 108.1466,8.7144 107.9746,8.6794 C107.8006,8.6444 107.5916,8.5914 107.3456,8.5214 C107.0996,8.4514 106.8936,8.3734 106.7256,8.2904 C106.5576,8.2064 106.3816,8.0944 106.1946,7.9544 C106.0076,7.8134 105.8596,7.6584 105.7486,7.4874 C105.6376,7.3174 105.5456,7.1104 105.4726,6.8674 C105.4006,6.6244 105.3636,6.3564 105.3636,6.0644 C105.3636,5.2164 105.6966,4.5254 106.3606,3.9934 C107.0256,3.4604 107.8966,3.1944 108.9716,3.1944 C110.0526,3.1944 110.9206,3.4694 111.5746,4.0174 C112.2286,4.5654 112.5586,5.2894 112.5636,6.1864 L110.2606,6.1864 C110.2556,5.8354 110.1346,5.5704 109.8996,5.3924 C109.6636,5.2134 109.3336,5.1244 108.9076,5.1244 C108.5336,5.1244 108.2406,5.2024 108.0276,5.3594 C107.8136,5.5164 107.7066,5.7244 107.7066,5.9834 C107.7066,6.0814 107.7246,6.1684 107.7596,6.2474 C107.7946,6.3254 107.8566,6.3934 107.9466,6.4494 C108.0346,6.5064 108.1186,6.5554 108.1976,6.5954 C108.2756,6.6364 108.3946,6.6764 108.5546,6.7174 C108.7126,6.7574 108.8426,6.7874 108.9436,6.8064 C109.0426,6.8254 109.1956,6.8534 109.4016,6.8914 C110.2716,7.0484 110.8986,7.2104 111.2826,7.3774 C112.2496,7.8104 112.7346,8.5674 112.7346,9.6484 C112.7346,10.5614 112.3896,11.2924 111.7036,11.8414 C111.0176,12.3904 110.1076,12.6644 108.9716,12.6644" id="Fill-12" fill="#FFFFFF" mask="url(#mask-2)"></path>
                <path d="M44.5771,25.2327 C45.0251,25.6897 45.5981,25.9177 46.2961,25.9177 C46.9931,25.9177 47.5661,25.6897 48.0151,25.2327 C48.4631,24.7757 48.6871,24.1857 48.6871,23.4617 C48.6871,22.7367 48.4631,22.1467 48.0151,21.6897 C47.5661,21.2327 46.9931,21.0037 46.2961,21.0037 C45.5981,21.0037 45.0251,21.2327 44.5771,21.6897 C44.1291,22.1467 43.9041,22.7367 43.9041,23.4617 C43.9041,24.1857 44.1291,24.7757 44.5771,25.2327 M46.2961,28.1957 C45.3831,28.1957 44.5561,27.9907 43.8141,27.5797 C43.0741,27.1697 42.4941,26.6017 42.0751,25.8777 C41.6571,25.1527 41.4471,24.3477 41.4471,23.4617 C41.4471,22.5637 41.6571,21.7537 42.0751,21.0327 C42.4941,20.3117 43.0741,19.7467 43.8141,19.3377 C44.5561,18.9297 45.3831,18.7257 46.2961,18.7257 C47.2041,18.7257 48.0281,18.9297 48.7691,19.3377 C49.5101,19.7467 50.0911,20.3127 50.5121,21.0367 C50.9331,21.7607 51.1441,22.5687 51.1441,23.4617 C51.1441,24.3477 50.9331,25.1527 50.5121,25.8777 C50.0911,26.6017 49.5101,27.1697 48.7691,27.5797 C48.0281,27.9907 47.2041,28.1957 46.2961,28.1957" id="Fill-13" fill="#FFFFFF" mask="url(#mask-2)"></path>
                <path d="M56.9736,28.1961 C55.7086,28.1961 54.6896,27.8261 53.9136,27.0851 C53.1376,26.3451 52.7496,25.3691 52.7496,24.1581 L52.7496,18.9771 L55.1736,18.9771 L55.1736,23.8831 C55.1736,24.5201 55.3326,25.0191 55.6536,25.3791 C55.9716,25.7381 56.4116,25.9181 56.9736,25.9181 C57.5356,25.9181 57.9736,25.7371 58.2876,25.3751 C58.6006,25.0121 58.7576,24.5151 58.7576,23.8831 L58.7576,18.9771 L61.1816,18.9771 L61.1816,24.1581 C61.1816,25.3691 60.7976,26.3451 60.0316,27.0851 C59.2636,27.8261 58.2446,28.1961 56.9736,28.1961" id="Fill-14" fill="#FFFFFF" mask="url(#mask-2)"></path>
                <path d="M67.7656,25.7879 L68.8686,25.7879 L68.8686,27.9449 L67.1496,27.9449 C66.1656,27.9449 65.3886,27.6599 64.8186,27.0899 C64.2476,26.5189 63.9626,25.7369 63.9626,24.7419 L63.9626,20.9239 L62.3416,20.9239 L62.3416,20.4049 L65.8846,16.6339 L66.3466,16.6339 L66.3466,18.9769 L68.8206,18.9769 L68.8206,20.9239 L66.3876,20.9239 L66.3876,24.4179 C66.3876,24.8559 66.5056,25.1929 66.7446,25.4319 C66.9826,25.6689 67.3226,25.7879 67.7656,25.7879" id="Fill-15" fill="#FFFFFF" mask="url(#mask-2)"></path>
                <path d="M74.0332,28.1961 C72.9082,28.1961 72.0022,27.9031 71.3122,27.3161 C70.6232,26.7301 70.2762,25.9561 70.2702,24.9931 L72.6302,24.9931 C72.6362,25.3771 72.7752,25.6721 73.0482,25.8771 C73.3202,26.0831 73.6812,26.1851 74.1302,26.1851 C74.4872,26.1851 74.7882,26.1071 75.0342,25.9501 C75.2792,25.7931 75.4032,25.5721 75.4032,25.2851 C75.4032,25.1391 75.3612,25.0121 75.2772,24.9041 C75.1932,24.7961 75.0622,24.7051 74.8852,24.6331 C74.7062,24.5601 74.5302,24.5031 74.3562,24.4631 C74.1832,24.4221 73.9572,24.3771 73.6772,24.3281 C73.4222,24.2851 73.2082,24.2461 73.0362,24.2111 C72.8622,24.1751 72.6522,24.1231 72.4072,24.0531 C72.1612,23.9831 71.9542,23.9051 71.7872,23.8221 C71.6192,23.7381 71.4422,23.6261 71.2562,23.4851 C71.0692,23.3451 70.9212,23.1891 70.8092,23.0191 C70.6992,22.8491 70.6062,22.6421 70.5342,22.3991 C70.4612,22.1551 70.4252,21.8881 70.4252,21.5961 C70.4252,20.7471 70.7572,20.0571 71.4222,19.5251 C72.0872,18.9921 72.9572,18.7261 74.0332,18.7261 C75.1142,18.7261 75.9812,19.0001 76.6362,19.5491 C77.2902,20.0971 77.6192,20.8211 77.6242,21.7181 L75.3222,21.7181 C75.3162,21.3661 75.1962,21.1021 74.9612,20.9241 C74.7252,20.7451 74.3942,20.6551 73.9682,20.6551 C73.5952,20.6551 73.3022,20.7341 73.0882,20.8911 C72.8742,21.0481 72.7672,21.2561 72.7672,21.5151 C72.7672,21.6131 72.7852,21.7001 72.8202,21.7791 C72.8552,21.8571 72.9182,21.9251 73.0072,21.9811 C73.0962,22.0381 73.1802,22.0871 73.2582,22.1271 C73.3372,22.1681 73.4552,22.2081 73.6152,22.2491 C73.7742,22.2891 73.9042,22.3191 74.0052,22.3381 C74.1042,22.3571 74.2572,22.3851 74.4632,22.4231 C75.3332,22.5801 75.9592,22.7421 76.3442,22.9091 C77.3112,23.3421 77.7952,24.0991 77.7952,25.1801 C77.7952,26.0931 77.4512,26.8241 76.7642,27.3731 C76.0792,27.9221 75.1682,28.1961 74.0332,28.1961" id="Fill-16" fill="#FFFFFF" mask="url(#mask-2)"></path>
                <path d="M82.1093,25.2327 C82.5573,25.6897 83.1303,25.9177 83.8273,25.9177 C84.5253,25.9177 85.0973,25.6897 85.5473,25.2327 C85.9953,24.7757 86.2183,24.1857 86.2183,23.4617 C86.2183,22.7367 85.9953,22.1467 85.5473,21.6897 C85.0973,21.2327 84.5253,21.0037 83.8273,21.0037 C83.1303,21.0037 82.5573,21.2327 82.1093,21.6897 C81.6603,22.1467 81.4353,22.7367 81.4353,23.4617 C81.4353,24.1857 81.6603,24.7757 82.1093,25.2327 M83.8273,28.1957 C82.9143,28.1957 82.0873,27.9907 81.3463,27.5797 C80.6053,27.1697 80.0263,26.6017 79.6073,25.8777 C79.1883,25.1527 78.9783,24.3477 78.9783,23.4617 C78.9783,22.5637 79.1883,21.7537 79.6073,21.0327 C80.0263,20.3117 80.6053,19.7467 81.3463,19.3377 C82.0873,18.9297 82.9143,18.7257 83.8273,18.7257 C84.7363,18.7257 85.5603,18.9297 86.3003,19.3377 C87.0413,19.7467 87.6223,20.3127 88.0433,21.0367 C88.4643,21.7607 88.6753,22.5687 88.6753,23.4617 C88.6753,24.3477 88.4643,25.1527 88.0433,25.8777 C87.6223,26.6017 87.0413,27.1697 86.3003,27.5797 C85.5603,27.9907 84.7363,28.1957 83.8273,28.1957" id="Fill-17" fill="#FFFFFF" mask="url(#mask-2)"></path>
                <path d="M94.5058,28.1961 C93.2408,28.1961 92.2208,27.8261 91.4448,27.0851 C90.6688,26.3451 90.2808,25.3691 90.2808,24.1581 L90.2808,18.9771 L92.7048,18.9771 L92.7048,23.8831 C92.7048,24.5201 92.8648,25.0191 93.1848,25.3791 C93.5028,25.7381 93.9438,25.9181 94.5058,25.9181 C95.0678,25.9181 95.5058,25.7371 95.8188,25.3751 C96.1318,25.0121 96.2898,24.5151 96.2898,23.8831 L96.2898,18.9771 L98.7138,18.9771 L98.7138,24.1581 C98.7138,25.3691 98.3298,26.3451 97.5628,27.0851 C96.7948,27.8261 95.7758,28.1961 94.5058,28.1961" id="Fill-18" fill="#FFFFFF" mask="url(#mask-2)"></path>
                <path d="M105.5,18.9285 L106.295,18.9285 L106.295,21.2155 L105.248,21.2155 C104.568,21.2155 104.08,21.3755 103.785,21.6975 C103.49,22.0195 103.344,22.5475 103.344,23.2825 L103.344,27.9445 L100.919,27.9445 L100.919,18.9775 L102.468,18.9775 L102.897,20.0795 C103.514,19.3125 104.381,18.9285 105.5,18.9285" id="Fill-19" fill="#FFFFFF" mask="url(#mask-2)"></path>
                <path d="M111.9726,28.1961 C111.3076,28.1961 110.6806,28.0731 110.0916,27.8271 C109.5026,27.5811 108.9976,27.2471 108.5766,26.8251 C108.1546,26.4041 107.8216,25.8991 107.5786,25.3091 C107.3346,24.7201 107.2136,24.0961 107.2136,23.4371 C107.2136,22.7771 107.3346,22.1551 107.5786,21.5711 C107.8216,20.9881 108.1546,20.4881 108.5766,20.0721 C108.9976,19.6551 109.5046,19.3271 110.0966,19.0871 C110.6886,18.8461 111.3186,18.7261 111.9896,18.7261 C113.1456,18.7261 114.1396,19.0621 114.9686,19.7351 C115.7986,20.4081 116.3246,21.2991 116.5456,22.4071 L114.1376,22.4071 C113.9436,21.9641 113.6546,21.6191 113.2706,21.3731 C112.8856,21.1271 112.4536,21.0041 111.9726,21.0041 C111.3186,21.0041 110.7716,21.2381 110.3306,21.7061 C109.8906,22.1731 109.6696,22.7531 109.6696,23.4451 C109.6696,24.1371 109.8916,24.7221 110.3346,25.2001 C110.7786,25.6781 111.3246,25.9181 111.9726,25.9181 C112.4646,25.9181 112.8976,25.7881 113.2706,25.5291 C113.6436,25.2691 113.9316,24.8991 114.1376,24.4181 L116.5776,24.4181 C116.3676,25.5481 115.8386,26.4601 114.9936,27.1541 C114.1476,27.8491 113.1406,28.1961 111.9726,28.1961" id="Fill-20" fill="#FFFFFF" mask="url(#mask-2)"></path>
                <path d="M117.852,27.9439 L120.277,27.9439 L120.277,18.9769 L117.852,18.9769 L117.852,27.9439 Z M117.852,17.7859 L120.268,17.7859 L120.268,15.5319 L117.852,15.5319 L117.852,17.7859 Z" id="Fill-21" fill="#FFFFFF" mask="url(#mask-2)"></path>
                <path d="M127.6953,18.7664 C128.7113,18.7664 129.5193,19.1054 130.1193,19.7844 C130.7193,20.4624 131.0183,21.3714 131.0183,22.5124 L131.0183,27.9444 L128.5943,27.9444 L128.5943,22.9014 C128.5943,21.5604 128.0733,20.8914 127.0303,20.8914 C126.4083,20.8914 125.9183,21.1004 125.5583,21.5194 C125.1993,21.9384 125.0193,22.5094 125.0193,23.2344 L125.0193,27.9444 L122.5943,27.9444 L122.5943,18.9774 L124.2573,18.9774 L124.7273,20.0884 C125.0733,19.6774 125.5043,19.3544 126.0203,19.1194 C126.5373,18.8844 127.0953,18.7664 127.6953,18.7664" id="Fill-22" fill="#FFFFFF" mask="url(#mask-2)"></path>
                <path d="M137.3837,25.553 C138.0427,25.553 138.5887,25.333 139.0217,24.892 C139.4537,24.452 139.6697,23.896 139.6697,23.226 C139.6697,22.561 139.4547,22.011 139.0257,21.576 C138.5957,21.141 138.0487,20.924 137.3837,20.924 C136.7237,20.924 136.1777,21.141 135.7457,21.576 C135.3137,22.011 135.0967,22.561 135.0967,23.226 C135.0967,23.896 135.3127,24.452 135.7417,24.892 C136.1717,25.333 136.7187,25.553 137.3837,25.553 Z M140.4647,18.977 L142.0367,18.977 L142.0367,26.907 C142.0367,28.307 141.6287,29.411 140.8137,30.219 C139.9967,31.027 138.8787,31.431 137.4567,31.431 C136.2397,31.431 135.2277,31.139 134.4157,30.555 C133.6057,29.971 133.0967,29.166 132.8917,28.139 L135.2997,28.139 C135.4297,28.523 135.6967,28.822 136.0987,29.035 C136.5007,29.248 136.9407,29.355 137.4157,29.355 C138.0487,29.355 138.5807,29.165 139.0137,28.784 C139.4467,28.403 139.6617,27.893 139.6617,27.256 L139.6617,26.915 C138.8997,27.45 138.0457,27.718 137.0997,27.718 C136.2787,27.718 135.5257,27.52 134.8417,27.126 C134.1577,26.731 133.6197,26.189 133.2287,25.5 C132.8357,24.811 132.6407,24.053 132.6407,23.226 C132.6407,22.404 132.8357,21.649 133.2287,20.96 C133.6197,20.27 134.1577,19.726 134.8417,19.326 C135.5257,18.926 136.2787,18.726 137.0997,18.726 C138.2627,18.726 139.2537,19.107 140.0757,19.869 L140.4647,18.977 Z" id="Fill-23" fill="#FFFFFF" mask="url(#mask-2)"></path>
                <path d="M45.2177,43.7279 C44.0937,43.7279 43.1867,43.4349 42.4967,42.8489 C41.8087,42.2619 41.4607,41.4879 41.4557,40.5259 L43.8147,40.5259 C43.8207,40.9099 43.9597,41.2039 44.2337,41.4089 C44.5047,41.6149 44.8657,41.7169 45.3157,41.7169 C45.6717,41.7169 45.9727,41.6389 46.2187,41.4819 C46.4647,41.3259 46.5877,41.1039 46.5877,40.8169 C46.5877,40.6709 46.5457,40.5439 46.4627,40.4359 C46.3777,40.3289 46.2467,40.2379 46.0697,40.1649 C45.8907,40.0919 45.7147,40.0349 45.5417,39.9949 C45.3687,39.9539 45.1427,39.9089 44.8617,39.8599 C44.6067,39.8169 44.3937,39.7779 44.2207,39.7429 C44.0467,39.7079 43.8377,39.6549 43.5917,39.5849 C43.3457,39.5149 43.1397,39.4369 42.9717,39.3539 C42.8037,39.2699 42.6277,39.1579 42.4407,39.0179 C42.2537,38.8769 42.1057,38.7219 41.9947,38.5509 C41.8837,38.3809 41.7917,38.1739 41.7187,37.9309 C41.6467,37.6879 41.6097,37.4199 41.6097,37.1279 C41.6097,36.2799 41.9427,35.5889 42.6067,35.0569 C43.2717,34.5239 44.1427,34.2579 45.2177,34.2579 C46.2987,34.2579 47.1667,34.5329 47.8207,35.0809 C48.4747,35.6289 48.8047,36.3529 48.8097,37.2499 L46.5067,37.2499 C46.5017,36.8989 46.3807,36.6339 46.1457,36.4559 C45.9097,36.2769 45.5797,36.1879 45.1537,36.1879 C44.7797,36.1879 44.4867,36.2659 44.2737,36.4229 C44.0597,36.5799 43.9527,36.7879 43.9527,37.0469 C43.9527,37.1449 43.9707,37.2319 44.0057,37.3109 C44.0407,37.3889 44.1027,37.4569 44.1927,37.5139 C44.2807,37.5699 44.3647,37.6189 44.4437,37.6589 C44.5217,37.6999 44.6407,37.7399 44.8007,37.7809 C44.9587,37.8209 45.0887,37.8509 45.1897,37.8699 C45.2887,37.8889 45.4417,37.9169 45.6477,37.9549 C46.5177,38.1119 47.1447,38.2739 47.5287,38.4409 C48.4957,38.8739 48.9807,39.6309 48.9807,40.7119 C48.9807,41.6249 48.6357,42.3559 47.9497,42.9049 C47.2637,43.4539 46.3537,43.7279 45.2177,43.7279" id="Fill-24" fill="#FFFFFF" mask="url(#mask-2)"></path>
                <path d="M54.4853,36.3255 C53.9503,36.3255 53.4963,36.4745 53.1233,36.7715 C52.7513,37.0685 52.4933,37.4855 52.3533,38.0195 L56.6993,38.0195 C56.5313,37.4735 56.2563,37.0545 55.8763,36.7635 C55.4953,36.4715 55.0313,36.3255 54.4853,36.3255 M59.1233,38.9605 C59.1233,39.2035 59.1063,39.4415 59.0753,39.6745 L52.2883,39.6745 C52.3913,40.2845 52.6353,40.7535 53.0223,41.0805 C53.4083,41.4085 53.8963,41.5715 54.4853,41.5715 C54.9013,41.5715 55.2763,41.4795 55.6083,41.2955 C55.9413,41.1125 56.1993,40.8575 56.3823,40.5335 L58.9283,40.5335 C58.6043,41.5125 58.0433,42.2885 57.2423,42.8645 C56.4423,43.4405 55.5233,43.7275 54.4853,43.7275 C53.6153,43.7275 52.8253,43.5215 52.1143,43.1075 C51.4033,42.6945 50.8443,42.1255 50.4393,41.4015 C50.0343,40.6765 49.8313,39.8735 49.8313,38.9925 C49.8313,38.1065 50.0333,37.3015 50.4353,36.5765 C50.8393,35.8525 51.3953,35.2845 52.1053,34.8745 C52.8163,34.4635 53.6103,34.2585 54.4853,34.2585 C55.3823,34.2585 56.1883,34.4705 56.9013,34.8945 C57.6153,35.3185 58.1643,35.8885 58.5473,36.6015 C58.9313,37.3145 59.1233,38.1015 59.1233,38.9605" id="Fill-25" fill="#FFFFFF" mask="url(#mask-2)"></path>
                <path d="M65.0996,34.4608 L65.8946,34.4608 L65.8946,36.7468 L64.8476,36.7468 C64.1666,36.7468 63.6786,36.9078 63.3846,37.2298 C63.0896,37.5508 62.9426,38.0798 62.9426,38.8148 L62.9426,43.4768 L60.5176,43.4768 L60.5176,34.5088 L62.0676,34.5088 L62.4956,35.6118 C63.1126,34.8448 63.9806,34.4608 65.0996,34.4608" id="Fill-26" fill="#FFFFFF" mask="url(#mask-2)"></path>
                <polygon id="Fill-27" fill="#FFFFFF" mask="url(#mask-2)" points="73.8144 34.5091 76.3274 34.5091 72.7684 43.4771 70.5304 43.4771 66.8814 34.5091 69.4674 34.5091 71.6574 40.5171"></polygon>
                <path d="M77.633,43.4769 L80.058,43.4769 L80.058,34.5089 L77.633,34.5089 L77.633,43.4769 Z M77.633,33.3169 L80.049,33.3169 L80.049,31.0629 L77.633,31.0629 L77.633,33.3169 Z" id="Fill-28" fill="#FFFFFF" mask="url(#mask-2)"></path>
                <path d="M86.2109,43.7279 C85.5469,43.7279 84.9199,43.6049 84.3309,43.3589 C83.7409,43.1129 83.2359,42.7789 82.8149,42.3579 C82.3929,41.9359 82.0609,41.4309 81.8169,40.8419 C81.5729,40.2519 81.4519,39.6279 81.4519,38.9689 C81.4519,38.3099 81.5729,37.6879 81.8169,37.1039 C82.0609,36.5199 82.3929,36.0199 82.8149,35.6039 C83.2359,35.1879 83.7429,34.8589 84.3349,34.6189 C84.9269,34.3779 85.5579,34.2579 86.2279,34.2579 C87.3849,34.2579 88.3779,34.5939 89.2079,35.2679 C90.0369,35.9399 90.5639,36.8309 90.7849,37.9389 L88.3769,37.9389 C88.1819,37.4959 87.8929,37.1509 87.5089,36.9049 C87.1249,36.6599 86.6919,36.5359 86.2109,36.5359 C85.5579,36.5359 85.0109,36.7699 84.5699,37.2379 C84.1289,37.7059 83.9089,38.2849 83.9089,38.9769 C83.9089,39.6689 84.1309,40.2539 84.5729,40.7319 C85.0169,41.2099 85.5639,41.4499 86.2109,41.4499 C86.7029,41.4499 87.1369,41.3199 87.5089,41.0609 C87.8819,40.8009 88.1709,40.4309 88.3769,39.9499 L90.8169,39.9499 C90.6069,41.0799 90.0779,41.9919 89.2319,42.6859 C88.3859,43.3809 87.3789,43.7279 86.2109,43.7279" id="Fill-29" fill="#FFFFFF" mask="url(#mask-2)"></path>
                <path d="M96.1523,36.3255 C95.6173,36.3255 95.1633,36.4745 94.7903,36.7715 C94.4173,37.0685 94.1603,37.4855 94.0203,38.0195 L98.3663,38.0195 C98.1983,37.4735 97.9233,37.0545 97.5433,36.7635 C97.1623,36.4715 96.6983,36.3255 96.1523,36.3255 M100.7903,38.9605 C100.7903,39.2035 100.7733,39.4415 100.7413,39.6745 L93.9553,39.6745 C94.0573,40.2845 94.3023,40.7535 94.6893,41.0805 C95.0753,41.4085 95.5633,41.5715 96.1523,41.5715 C96.5683,41.5715 96.9433,41.4795 97.2753,41.2955 C97.6073,41.1125 97.8663,40.8575 98.0493,40.5335 L100.5953,40.5335 C100.2713,41.5125 99.7093,42.2885 98.9093,42.8645 C98.1083,43.4405 97.1903,43.7275 96.1523,43.7275 C95.2813,43.7275 94.4923,43.5215 93.7803,43.1075 C93.0703,42.6945 92.5113,42.1255 92.1063,41.4015 C91.7013,40.6765 91.4983,39.8735 91.4983,38.9925 C91.4983,38.1065 91.7003,37.3015 92.1023,36.5765 C92.5053,35.8525 93.0623,35.2845 93.7723,34.8745 C94.4833,34.4635 95.2763,34.2585 96.1523,34.2585 C97.0493,34.2585 97.8553,34.4705 98.5683,34.8945 C99.2823,35.3185 99.8313,35.8885 100.2143,36.6015 C100.5983,37.3145 100.7903,38.1015 100.7903,38.9605" id="Fill-30" fill="#FFFFFF" mask="url(#mask-2)"></path>
                <path d="M105.6962,43.7279 C104.5712,43.7279 103.6642,43.4349 102.9752,42.8489 C102.2862,42.2619 101.9382,41.4879 101.9332,40.5259 L104.2932,40.5259 C104.2992,40.9099 104.4372,41.2039 104.7112,41.4089 C104.9832,41.6149 105.3432,41.7169 105.7932,41.7169 C106.1492,41.7169 106.4512,41.6389 106.6962,41.4819 C106.9422,41.3259 107.0662,41.1039 107.0662,40.8169 C107.0662,40.6709 107.0242,40.5439 106.9402,40.4359 C106.8562,40.3289 106.7252,40.2379 106.5472,40.1649 C106.3682,40.0919 106.1922,40.0349 106.0192,39.9949 C105.8462,39.9539 105.6202,39.9089 105.3392,39.8599 C105.0852,39.8169 104.8712,39.7779 104.6982,39.7429 C104.5252,39.7079 104.3152,39.6549 104.0692,39.5849 C103.8242,39.5149 103.6172,39.4369 103.4502,39.3539 C103.2822,39.2699 103.1052,39.1579 102.9192,39.0179 C102.7322,38.8769 102.5842,38.7219 102.4722,38.5509 C102.3622,38.3809 102.2692,38.1739 102.1972,37.9309 C102.1242,37.6879 102.0882,37.4199 102.0882,37.1279 C102.0882,36.2799 102.4202,35.5889 103.0852,35.0569 C103.7492,34.5239 104.6202,34.2579 105.6962,34.2579 C106.7762,34.2579 107.6442,34.5329 108.2992,35.0809 C108.9522,35.6289 109.2822,36.3529 109.2872,37.2499 L106.9842,37.2499 C106.9792,36.8989 106.8582,36.6339 106.6242,36.4559 C106.3882,36.2769 106.0572,36.1879 105.6312,36.1879 C105.2582,36.1879 104.9652,36.2659 104.7512,36.4229 C104.5372,36.5799 104.4302,36.7879 104.4302,37.0469 C104.4302,37.1449 104.4482,37.2319 104.4832,37.3109 C104.5182,37.3889 104.5812,37.4569 104.6702,37.5139 C104.7592,37.5699 104.8422,37.6189 104.9212,37.6589 C105.0002,37.6999 105.1182,37.7399 105.2782,37.7809 C105.4372,37.8209 105.5672,37.8509 105.6672,37.8699 C105.7672,37.8889 105.9202,37.9169 106.1252,37.9549 C106.9952,38.1119 107.6222,38.2739 108.0062,38.4409 C108.9732,38.8739 109.4582,39.6309 109.4582,40.7119 C109.4582,41.6249 109.1142,42.3559 108.4272,42.9049 C107.7412,43.4539 106.8312,43.7279 105.6962,43.7279" id="Fill-31" fill="#FFFFFF" mask="url(#mask-2)"></path>
                <path d="M28.2031,15.9622 C26.1341,13.2662 22.9091,11.3812 19.3491,10.6272 C15.3521,9.7792 10.9361,10.3632 7.2531,12.8182 L7.2531,20.4082 C8.9831,17.7762 11.9611,16.0972 15.4741,16.1042 C16.8661,16.1062 18.1731,16.3742 19.3491,16.8612 C22.8671,18.3182 25.2221,21.7422 25.2191,25.9302 C25.2151,31.5582 21.0721,35.7252 15.4771,35.7282 C9.8551,35.7312 6.0801,31.5352 6.0731,25.9272 C6.0721,24.8652 6.0731,22.9062 6.0731,22.9062 L6.0731,13.6802 L6.0731,0.3222 L0.0001,0.3222 L0.0001,26.2022 L0.0361,26.2022 C0.1151,30.7892 2.1861,34.7202 5.3711,37.5632 C11.8481,43.6332 22.0391,42.4482 27.1121,37.1502 C32.4431,31.5832 32.8891,22.0692 28.2031,15.9622" id="Fill-32" fill="#19E499" mask="url(#mask-2)"></path>
                <path d="M0,31.9407 L0,43.6727 C1.354,43.6727 2.663,43.6487 3.969,43.6857 C4.49,43.6997 4.664,43.5077 4.752,43.0187 C4.853,42.4597 5.004,40.5947 5.154,39.1627 C5.154,39.1627 5.102,39.1007 4.128,38.0187 C2.283,36.2577 0.891,34.1907 0,31.9407" id="Fill-33" fill="#19E499" mask="url(#mask-2)"></path>
            </g>
        </g>
    </g>
</svg>