<?xml version="1.0" encoding="UTF-8"?>
<svg width="168px" height="52px" viewBox="0 0 168 52" version="1.1" xmlns="http://www.w3.org/2000/svg" xmlns:xlink="http://www.w3.org/1999/xlink">
    <!-- Generator: Sketch 51.3 (57544) - http://www.bohemiancoding.com/sketch -->
    <title>Group 34 Copy</title>
    <desc>Created with Sketch.</desc>
    <defs>
        <polygon id="path-1" points="0 51.7211 168 51.7211 168 0.0001 0 0.0001"></polygon>
    </defs>
    <g id="Page-1" stroke="none" stroke-width="1" fill="none" fill-rule="evenodd">
        <g id="Home" transform="translate(-71.000000, -22.000000)">
            <g id="Group-34-Copy" transform="translate(71.000000, 22.000000)">
                <path d="M52.41,11.4411 C52.96,11.9911 53.65,12.2661 54.481,12.2661 C55.312,12.2661 56.002,11.9911 56.549,11.4411 C57.095,10.8911 57.369,10.2041 57.369,9.3791 C57.369,8.5421 57.095,7.8481 56.549,7.2981 C56.002,6.7481 55.312,6.4731 54.481,6.4731 C53.65,6.4731 52.96,6.7501 52.41,7.3031 C51.86,7.8561 51.585,8.5481 51.585,9.3791 C51.585,10.2041 51.86,10.8911 52.41,11.4411 M54.712,3.7781 C55.772,3.7781 56.728,4.0201 57.58,4.5031 C58.43,4.9851 59.093,5.6531 59.568,6.5071 C60.046,7.3601 60.284,8.3181 60.284,9.3791 C60.284,10.4411 60.046,11.3981 59.568,12.2521 C59.093,13.1051 58.43,13.7731 57.58,14.2551 C56.728,14.7381 55.772,14.9801 54.712,14.9801 C53.439,14.9801 52.334,14.5871 51.393,13.8001 L51.048,14.6821 L48.938,14.6821 L48.938,0.2501 L51.806,0.2501 L51.806,4.6511 C52.657,4.0691 53.625,3.7781 54.712,3.7781" id="Fill-1" fill="#11193A"></path>
                <path d="M66.7958,14.9797 C65.3008,14.9797 64.0928,14.5427 63.1758,13.6667 C62.2588,12.7897 61.7998,11.6357 61.7998,10.2037 L61.7998,4.0767 L64.6668,4.0767 L64.6668,9.8777 C64.6668,10.6317 64.8558,11.2227 65.2338,11.6467 C65.6088,12.0717 66.1308,12.2857 66.7958,12.2857 C67.4598,12.2857 67.9788,12.0707 68.3488,11.6427 C68.7198,11.2137 68.9058,10.6257 68.9058,9.8777 L68.9058,4.0767 L71.7738,4.0767 L71.7738,10.2037 C71.7738,11.6357 71.3178,12.7897 70.4108,13.6667 C69.5038,14.5427 68.2988,14.9797 66.7958,14.9797" id="Fill-3" fill="#11193A"></path>
                <path d="M78.1405,14.9797 C76.8105,14.9797 75.7395,14.6327 74.9235,13.9397 C74.1075,13.2457 73.6975,12.3297 73.6915,11.1917 L76.4815,11.1917 C76.4885,11.6457 76.6525,11.9947 76.9755,12.2367 C77.2975,12.4797 77.7255,12.6017 78.2555,12.6017 C78.6775,12.6017 79.0345,12.5087 79.3255,12.3237 C79.6165,12.1377 79.7615,11.8757 79.7615,11.5367 C79.7615,11.3647 79.7115,11.2137 79.6125,11.0857 C79.5135,10.9587 79.3595,10.8517 79.1475,10.7647 C78.9365,10.6787 78.7285,10.6117 78.5245,10.5637 C78.3205,10.5157 78.0505,10.4627 77.7185,10.4057 C77.4185,10.3547 77.1655,10.3087 76.9615,10.2667 C76.7565,10.2247 76.5085,10.1627 76.2175,10.0797 C75.9265,9.9957 75.6825,9.9047 75.4845,9.8057 C75.2865,9.7067 75.0775,9.5737 74.8565,9.4087 C74.6355,9.2417 74.4595,9.0577 74.3275,8.8567 C74.1975,8.6547 74.0885,8.4107 74.0025,8.1227 C73.9165,7.8357 73.8725,7.5187 73.8725,7.1737 C73.8725,6.1697 74.2655,5.3537 75.0535,4.7237 C75.8385,4.0937 76.8685,3.7787 78.1405,3.7787 C79.4185,3.7787 80.4465,4.1037 81.2185,4.7517 C81.9925,5.4007 82.3825,6.2557 82.3885,7.3167 L79.6655,7.3167 C79.6595,6.9017 79.5175,6.5887 79.2385,6.3777 C78.9605,6.1667 78.5695,6.0607 78.0645,6.0607 C77.6225,6.0607 77.2755,6.1537 77.0235,6.3397 C76.7705,6.5247 76.6445,6.7707 76.6445,7.0777 C76.6445,7.1927 76.6655,7.2967 76.7065,7.3897 C76.7475,7.4817 76.8225,7.5617 76.9275,7.6287 C77.0345,7.6957 77.1315,7.7537 77.2245,7.8017 C77.3175,7.8497 77.4585,7.8977 77.6475,7.9447 C77.8345,7.9937 77.9885,8.0287 78.1075,8.0507 C78.2255,8.0737 78.4065,8.1067 78.6495,8.1517 C79.6785,8.3367 80.4195,8.5287 80.8745,8.7277 C82.0185,9.2387 82.5905,10.1337 82.5905,11.4127 C82.5905,12.4927 82.1845,13.3577 81.3725,14.0057 C80.5605,14.6557 79.4835,14.9797 78.1405,14.9797" id="Fill-5" fill="#11193A"></path>
                <mask id="mask-2" fill="white">
                    <use xlink:href="#path-1"></use>
                </mask>
                <g id="Clip-8"></g>
                <path d="M84.69,14.6821 L87.557,14.6821 L87.557,4.0761 L84.69,4.0761 L84.69,14.6821 Z M84.69,2.6661 L87.547,2.6661 L87.547,0.0001 L84.69,0.0001 L84.69,2.6661 Z" id="Fill-7" fill="#11193A" mask="url(#mask-2)"></path>
                <path d="M96.3329,3.8264 C97.5339,3.8264 98.4899,4.2274 99.1999,5.0304 C99.9089,5.8324 100.2649,6.9084 100.2649,8.2574 L100.2649,14.6824 L97.3959,14.6824 L97.3959,8.7184 C97.3959,7.1324 96.7799,6.3394 95.5459,6.3394 C94.8109,6.3394 94.2299,6.5874 93.8059,7.0824 C93.3799,7.5784 93.1669,8.2544 93.1669,9.1114 L93.1669,14.6824 L90.3009,14.6824 L90.3009,4.0764 L92.2669,4.0764 L92.8229,5.3894 C93.2309,4.9044 93.7409,4.5214 94.3529,4.2434 C94.9629,3.9664 95.6219,3.8264 96.3329,3.8264" id="Fill-9" fill="#11193A" mask="url(#mask-2)"></path>
                <path d="M107.6874,6.2243 C107.0534,6.2243 106.5164,6.4003 106.0764,6.7513 C105.6344,7.1033 105.3324,7.5953 105.1654,8.2283 L110.3054,8.2283 C110.1074,7.5823 109.7824,7.0873 109.3324,6.7423 C108.8804,6.3963 108.3334,6.2243 107.6874,6.2243 M113.1724,9.3413 C113.1724,9.6283 113.1534,9.9103 113.1144,10.1843 L105.0884,10.1843 C105.2094,10.9073 105.4994,11.4623 105.9564,11.8483 C106.4134,12.2353 106.9904,12.4283 107.6874,12.4283 C108.1794,12.4283 108.6224,12.3203 109.0154,12.1023 C109.4084,11.8863 109.7134,11.5843 109.9314,11.2013 L112.9424,11.2013 C112.5584,12.3583 111.8944,13.2773 110.9474,13.9583 C110.0004,14.6393 108.9154,14.9793 107.6874,14.9793 C106.6574,14.9793 105.7224,14.7353 104.8814,14.2463 C104.0414,13.7573 103.3804,13.0843 102.9014,12.2273 C102.4214,11.3703 102.1824,10.4213 102.1824,9.3793 C102.1824,8.3303 102.4204,7.3783 102.8964,6.5213 C103.3744,5.6643 104.0324,4.9933 104.8724,4.5073 C105.7124,4.0213 106.6514,3.7783 107.6874,3.7783 C108.7494,3.7783 109.7014,4.0293 110.5444,4.5323 C111.3884,5.0333 112.0384,5.7063 112.4914,6.5503 C112.9464,7.3943 113.1724,8.3243 113.1724,9.3413" id="Fill-10" fill="#11193A" mask="url(#mask-2)"></path>
                <path d="M118.9745,14.9797 C117.6445,14.9797 116.5735,14.6327 115.7575,13.9397 C114.9415,13.2457 114.5315,12.3297 114.5255,11.1917 L117.3155,11.1917 C117.3225,11.6457 117.4865,11.9947 117.8095,12.2367 C118.1315,12.4797 118.5595,12.6017 119.0885,12.6017 C119.5115,12.6017 119.8685,12.5087 120.1595,12.3237 C120.4505,12.1377 120.5955,11.8757 120.5955,11.5367 C120.5955,11.3647 120.5455,11.2137 120.4465,11.0857 C120.3475,10.9587 120.1935,10.8517 119.9815,10.7647 C119.7705,10.6787 119.5625,10.6117 119.3585,10.5637 C119.1545,10.5157 118.8845,10.4627 118.5525,10.4057 C118.2525,10.3547 117.9995,10.3087 117.7955,10.2667 C117.5905,10.2247 117.3425,10.1627 117.0515,10.0797 C116.7605,9.9957 116.5165,9.9047 116.3185,9.8057 C116.1205,9.7067 115.9115,9.5737 115.6905,9.4087 C115.4695,9.2417 115.2935,9.0577 115.1615,8.8567 C115.0315,8.6547 114.9225,8.4107 114.8365,8.1227 C114.7505,7.8357 114.7065,7.5187 114.7065,7.1737 C114.7065,6.1697 115.0995,5.3537 115.8865,4.7237 C116.6725,4.0937 117.7025,3.7787 118.9745,3.7787 C120.2525,3.7787 121.2805,4.1037 122.0525,4.7517 C122.8265,5.4007 123.2165,6.2557 123.2225,7.3167 L120.4995,7.3167 C120.4935,6.9017 120.3515,6.5887 120.0725,6.3777 C119.7945,6.1667 119.4035,6.0607 118.8985,6.0607 C118.4565,6.0607 118.1095,6.1537 117.8575,6.3397 C117.6045,6.5247 117.4785,6.7707 117.4785,7.0777 C117.4785,7.1927 117.4985,7.2967 117.5405,7.3897 C117.5815,7.4817 117.6565,7.5617 117.7615,7.6287 C117.8685,7.6957 117.9655,7.7537 118.0585,7.8017 C118.1515,7.8497 118.2925,7.8977 118.4815,7.9447 C118.6685,7.9937 118.8225,8.0287 118.9415,8.0507 C119.0595,8.0737 119.2405,8.1067 119.4835,8.1517 C120.5125,8.3367 121.2535,8.5287 121.7075,8.7277 C122.8525,9.2387 123.4245,10.1337 123.4245,11.4127 C123.4245,12.4927 123.0185,13.3577 122.2055,14.0057 C121.3945,14.6557 120.3165,14.9797 118.9745,14.9797" id="Fill-11" fill="#11193A" mask="url(#mask-2)"></path>
                <path d="M128.8905,14.9797 C127.5605,14.9797 126.4885,14.6327 125.6725,13.9397 C124.8575,13.2457 124.4465,12.3297 124.4405,11.1917 L127.2315,11.1917 C127.2385,11.6457 127.4025,11.9947 127.7255,12.2367 C128.0475,12.4797 128.4755,12.6017 129.0045,12.6017 C129.4275,12.6017 129.7845,12.5087 130.0745,12.3237 C130.3665,12.1377 130.5105,11.8757 130.5105,11.5367 C130.5105,11.3647 130.4615,11.2137 130.3625,11.0857 C130.2635,10.9587 130.1085,10.8517 129.8975,10.7647 C129.6865,10.6787 129.4785,10.6117 129.2745,10.5637 C129.0705,10.5157 128.8005,10.4627 128.4675,10.4057 C128.1675,10.3547 127.9155,10.3087 127.7115,10.2667 C127.5055,10.2247 127.2575,10.1627 126.9675,10.0797 C126.6765,9.9957 126.4315,9.9047 126.2335,9.8057 C126.0355,9.7067 125.8265,9.5737 125.6055,9.4087 C125.3845,9.2417 125.2085,9.0577 125.0785,8.8567 C124.9475,8.6547 124.8385,8.4107 124.7525,8.1227 C124.6655,7.8357 124.6225,7.5187 124.6225,7.1737 C124.6225,6.1697 125.0155,5.3537 125.8025,4.7237 C126.5885,4.0937 127.6185,3.7787 128.8905,3.7787 C130.1685,3.7787 131.1955,4.1037 131.9685,4.7517 C132.7425,5.4007 133.1325,6.2557 133.1385,7.3167 L130.4155,7.3167 C130.4085,6.9017 130.2665,6.5887 129.9885,6.3777 C129.7105,6.1667 129.3195,6.0607 128.8135,6.0607 C128.3715,6.0607 128.0255,6.1537 127.7725,6.3397 C127.5205,6.5247 127.3935,6.7707 127.3935,7.0777 C127.3935,7.1927 127.4145,7.2967 127.4565,7.3897 C127.4975,7.4817 127.5725,7.5617 127.6775,7.6287 C127.7835,7.6957 127.8815,7.7537 127.9745,7.8017 C128.0665,7.8497 128.2075,7.8977 128.3975,7.9447 C128.5845,7.9937 128.7385,8.0287 128.8575,8.0507 C128.9755,8.0737 129.1565,8.1067 129.3995,8.1517 C130.4285,8.3367 131.1695,8.5287 131.6235,8.7277 C132.7675,9.2387 133.3405,10.1337 133.3405,11.4127 C133.3405,12.4927 132.9345,13.3577 132.1215,14.0057 C131.3105,14.6557 130.2325,14.9797 128.8905,14.9797" id="Fill-12" fill="#11193A" mask="url(#mask-2)"></path>
                <path d="M52.7255,29.8444 C53.2565,30.3854 53.9335,30.6554 54.7585,30.6554 C55.5825,30.6554 56.2605,30.3854 56.7915,29.8444 C57.3225,29.3044 57.5865,28.6064 57.5865,27.7494 C57.5865,26.8924 57.3225,26.1944 56.7915,25.6544 C56.2605,25.1144 55.5825,24.8444 54.7585,24.8444 C53.9335,24.8444 53.2565,25.1144 52.7255,25.6544 C52.1945,26.1944 51.9295,26.8924 51.9295,27.7494 C51.9295,28.6064 52.1945,29.3044 52.7255,29.8444 M54.7585,33.3504 C53.6775,33.3504 52.6995,33.1074 51.8235,32.6214 C50.9485,32.1354 50.2615,31.4644 49.7675,30.6074 C49.2715,29.7504 49.0235,28.7984 49.0235,27.7494 C49.0235,26.6884 49.2715,25.7304 49.7675,24.8774 C50.2615,24.0244 50.9485,23.3564 51.8235,22.8734 C52.6995,22.3904 53.6775,22.1494 54.7585,22.1494 C55.8325,22.1494 56.8075,22.3904 57.6835,22.8734 C58.5595,23.3564 59.2465,24.0254 59.7465,24.8824 C60.2445,25.7394 60.4935,26.6944 60.4935,27.7494 C60.4935,28.7984 60.2445,29.7504 59.7465,30.6074 C59.2465,31.4644 58.5595,32.1354 57.6835,32.6214 C56.8075,33.1074 55.8325,33.3504 54.7585,33.3504" id="Fill-13" fill="#11193A" mask="url(#mask-2)"></path>
                <path d="M67.3886,33.3503 C65.8926,33.3503 64.6856,32.9123 63.7686,32.0363 C62.8516,31.1603 62.3916,30.0063 62.3916,28.5743 L62.3916,22.4463 L65.2586,22.4463 L65.2586,28.2483 C65.2586,29.0023 65.4486,29.5923 65.8256,30.0173 C66.2016,30.4423 66.7236,30.6553 67.3886,30.6553 C68.0526,30.6553 68.5716,30.4413 68.9416,30.0133 C69.3126,29.5843 69.4986,28.9963 69.4986,28.2483 L69.4986,22.4463 L72.3656,22.4463 L72.3656,28.5743 C72.3656,30.0063 71.9106,31.1603 71.0036,32.0363 C70.0956,32.9123 68.8906,33.3503 67.3886,33.3503" id="Fill-14" fill="#11193A" mask="url(#mask-2)"></path>
                <path d="M80.1522,30.5022 L81.4562,30.5022 L81.4562,33.0532 L79.4232,33.0532 C78.2592,33.0532 77.3402,32.7162 76.6672,32.0412 C75.9932,31.3672 75.6552,30.4412 75.6552,29.2642 L75.6552,24.7482 L73.7372,24.7482 L73.7372,24.1342 L77.9272,19.6742 L78.4742,19.6742 L78.4742,22.4462 L81.3992,22.4462 L81.3992,24.7482 L78.5222,24.7482 L78.5222,28.8812 C78.5222,29.3992 78.6632,29.7982 78.9442,30.0802 C79.2252,30.3612 79.6282,30.5022 80.1522,30.5022" id="Fill-15" fill="#11193A" mask="url(#mask-2)"></path>
                <path d="M87.5653,33.3503 C86.2353,33.3503 85.1643,33.0033 84.3483,32.3093 C83.5323,31.6163 83.1223,30.7003 83.1163,29.5623 L85.9063,29.5623 C85.9133,30.0163 86.0773,30.3643 86.4003,30.6073 C86.7223,30.8503 87.1503,30.9723 87.6793,30.9723 C88.1023,30.9723 88.4593,30.8793 88.7503,30.6943 C89.0413,30.5083 89.1863,30.2463 89.1863,29.9073 C89.1863,29.7353 89.1363,29.5843 89.0373,29.4563 C88.9383,29.3293 88.7843,29.2213 88.5723,29.1353 C88.3613,29.0493 88.1533,28.9813 87.9493,28.9343 C87.7453,28.8853 87.4753,28.8333 87.1433,28.7763 C86.8433,28.7253 86.5903,28.6783 86.3863,28.6363 C86.1813,28.5953 85.9333,28.5333 85.6423,28.4493 C85.3513,28.3663 85.1073,28.2753 84.9093,28.1763 C84.7113,28.0773 84.5023,27.9443 84.2813,27.7783 C84.0603,27.6123 83.8843,27.4283 83.7523,27.2263 C83.6223,27.0253 83.5133,26.7813 83.4273,26.4933 C83.3413,26.2053 83.2973,25.8893 83.2973,25.5433 C83.2973,24.5403 83.6903,23.7243 84.4773,23.0943 C85.2633,22.4643 86.2933,22.1493 87.5653,22.1493 C88.8433,22.1493 89.8713,22.4743 90.6433,23.1223 C91.4173,23.7713 91.8073,24.6263 91.8133,25.6873 L89.0903,25.6873 C89.0843,25.2723 88.9423,24.9583 88.6633,24.7483 C88.3853,24.5373 87.9943,24.4313 87.4893,24.4313 C87.0473,24.4313 86.7003,24.5243 86.4483,24.7093 C86.1953,24.8953 86.0693,25.1413 86.0693,25.4483 C86.0693,25.5633 86.0893,25.6673 86.1313,25.7593 C86.1723,25.8523 86.2473,25.9323 86.3523,25.9993 C86.4593,26.0663 86.5563,26.1233 86.6493,26.1723 C86.7423,26.2203 86.8833,26.2673 87.0723,26.3153 C87.2593,26.3643 87.4133,26.3983 87.5323,26.4213 C87.6503,26.4433 87.8313,26.4773 88.0743,26.5223 C89.1033,26.7073 89.8443,26.8993 90.2983,27.0973 C91.4433,27.6093 92.0153,28.5033 92.0153,29.7833 C92.0153,30.8633 91.6093,31.7273 90.7973,32.3763 C89.9853,33.0253 88.9073,33.3503 87.5653,33.3503" id="Fill-16" fill="#11193A" mask="url(#mask-2)"></path>
                <path d="M97.1171,29.8444 C97.6471,30.3854 98.3251,30.6554 99.1501,30.6554 C99.9741,30.6554 100.6511,30.3854 101.1821,29.8444 C101.7141,29.3044 101.9781,28.6064 101.9781,27.7494 C101.9781,26.8924 101.7141,26.1944 101.1821,25.6544 C100.6511,25.1144 99.9741,24.8444 99.1501,24.8444 C98.3251,24.8444 97.6471,25.1144 97.1171,25.6544 C96.5861,26.1944 96.3211,26.8924 96.3211,27.7494 C96.3211,28.6064 96.5861,29.3044 97.1171,29.8444 M99.1501,33.3504 C98.0691,33.3504 97.0911,33.1074 96.2151,32.6214 C95.3391,32.1354 94.6531,31.4644 94.1591,30.6074 C93.6631,29.7504 93.4151,28.7984 93.4151,27.7494 C93.4151,26.6884 93.6631,25.7304 94.1591,24.8774 C94.6531,24.0244 95.3391,23.3564 96.2151,22.8734 C97.0911,22.3904 98.0691,22.1494 99.1501,22.1494 C100.2241,22.1494 101.1991,22.3904 102.0751,22.8734 C102.9511,23.3564 103.6381,24.0254 104.1371,24.8824 C104.6361,25.7394 104.8851,26.6944 104.8851,27.7494 C104.8851,28.7984 104.6361,29.7504 104.1371,30.6074 C103.6381,31.4644 102.9511,32.1354 102.0751,32.6214 C101.1991,33.1074 100.2241,33.3504 99.1501,33.3504" id="Fill-17" fill="#11193A" mask="url(#mask-2)"></path>
                <path d="M111.7792,33.3503 C110.2842,33.3503 109.0772,32.9123 108.1602,32.0363 C107.2422,31.1603 106.7832,30.0063 106.7832,28.5743 L106.7832,22.4463 L109.6502,22.4463 L109.6502,28.2483 C109.6502,29.0023 109.8392,29.5923 110.2172,30.0173 C110.5932,30.4423 111.1152,30.6553 111.7792,30.6553 C112.4442,30.6553 112.9622,30.4413 113.3332,30.0133 C113.7032,29.5843 113.8892,28.9963 113.8892,28.2483 L113.8892,22.4463 L116.7572,22.4463 L116.7572,28.5743 C116.7572,30.0063 116.3022,31.1603 115.3942,32.0363 C114.4872,32.9123 113.2822,33.3503 111.7792,33.3503" id="Fill-18" fill="#11193A" mask="url(#mask-2)"></path>
                <path d="M124.7841,22.3889 L125.7231,22.3889 L125.7231,25.0939 L124.4871,25.0939 C123.6801,25.0939 123.1031,25.2839 122.7561,25.6629 C122.4071,26.0439 122.2321,26.6689 122.2321,27.5379 L122.2321,33.0529 L119.3651,33.0529 L119.3651,22.4469 L121.1971,22.4469 L121.7051,23.7509 C122.4341,22.8429 123.4601,22.3889 124.7841,22.3889" id="Fill-19" fill="#11193A" mask="url(#mask-2)"></path>
                <path d="M132.4393,33.3503 C131.6533,33.3503 130.9123,33.2043 130.2143,32.9133 C129.5183,32.6233 128.9193,32.2283 128.4213,31.7293 C127.9223,31.2313 127.5293,30.6333 127.2423,29.9363 C126.9553,29.2393 126.8103,28.5003 126.8103,27.7213 C126.8103,26.9413 126.9553,26.2053 127.2423,25.5153 C127.5293,24.8253 127.9223,24.2333 128.4213,23.7413 C128.9193,23.2483 129.5193,22.8603 130.2193,22.5763 C130.9193,22.2913 131.6673,22.1493 132.4593,22.1493 C133.8283,22.1493 135.0023,22.5473 135.9833,23.3433 C136.9643,24.1393 137.5863,25.1923 137.8493,26.5023 L135.0013,26.5023 C134.7703,25.9783 134.4283,25.5713 133.9743,25.2803 C133.5203,24.9893 133.0083,24.8443 132.4393,24.8443 C131.6673,24.8443 131.0183,25.1203 130.4983,25.6733 C129.9763,26.2263 129.7163,26.9123 129.7163,27.7303 C129.7163,28.5483 129.9783,29.2413 130.5023,29.8063 C131.0273,30.3723 131.6723,30.6553 132.4393,30.6553 C133.0213,30.6553 133.5333,30.5023 133.9743,30.1953 C134.4163,29.8883 134.7573,29.4503 135.0013,28.8813 L137.8863,28.8813 C137.6373,30.2173 137.0123,31.2963 136.0123,32.1183 C135.0113,32.9393 133.8203,33.3503 132.4393,33.3503" id="Fill-20" fill="#11193A" mask="url(#mask-2)"></path>
                <path d="M139.392,33.0521 L142.259,33.0521 L142.259,22.4461 L139.392,22.4461 L139.392,33.0521 Z M139.392,21.0371 L142.25,21.0371 L142.25,18.3701 L139.392,18.3701 L139.392,21.0371 Z" id="Fill-21" fill="#11193A" mask="url(#mask-2)"></path>
                <path d="M151.035,22.197 C152.237,22.197 153.193,22.598 153.902,23.401 C154.612,24.203 154.967,25.279 154.967,26.628 L154.967,33.053 L152.098,33.053 L152.098,27.088 C152.098,25.502 151.482,24.71 150.248,24.71 C149.513,24.71 148.933,24.958 148.509,25.453 C148.082,25.948 147.87,26.624 147.87,27.481 L147.87,33.053 L145.003,33.053 L145.003,22.447 L146.97,22.447 L147.525,23.76 C147.933,23.275 148.443,22.892 149.055,22.614 C149.665,22.336 150.325,22.197 151.035,22.197" id="Fill-22" fill="#11193A" mask="url(#mask-2)"></path>
                <path d="M162.495,30.2233 C163.275,30.2233 163.921,29.9633 164.432,29.4423 C164.943,28.9213 165.199,28.2643 165.199,27.4723 C165.199,26.6843 164.945,26.0353 164.436,25.5203 C163.93,25.0053 163.281,24.7483 162.495,24.7483 C161.715,24.7483 161.069,25.0053 160.558,25.5203 C160.046,26.0353 159.791,26.6843 159.791,27.4723 C159.791,28.2643 160.045,28.9213 160.554,29.4423 C161.061,29.9633 161.709,30.2233 162.495,30.2233 Z M166.139,22.4463 L168,22.4463 L168,31.8253 C168,33.4813 167.517,34.7863 166.552,35.7433 C165.586,36.6983 164.264,37.1763 162.581,37.1763 C161.142,37.1763 159.944,36.8303 158.985,36.1403 C158.026,35.4503 157.426,34.4973 157.183,33.2833 L160.03,33.2833 C160.184,33.7363 160.499,34.0903 160.974,34.3433 C161.452,34.5953 161.971,34.7213 162.533,34.7213 C163.281,34.7213 163.911,34.4963 164.423,34.0453 C164.933,33.5943 165.189,32.9923 165.189,32.2383 L165.189,31.8343 C164.288,32.4683 163.277,32.7843 162.16,32.7843 C161.187,32.7843 160.298,32.5513 159.489,32.0843 C158.681,31.6173 158.044,30.9763 157.58,30.1613 C157.116,29.3463 156.885,28.4493 156.885,27.4723 C156.885,26.4993 157.116,25.6063 157.58,24.7913 C158.044,23.9753 158.681,23.3313 159.489,22.8583 C160.298,22.3863 161.187,22.1493 162.16,22.1493 C163.534,22.1493 164.707,22.5993 165.679,23.5013 L166.139,22.4463 Z" id="Fill-23" fill="#11193A" mask="url(#mask-2)"></path>
                <path d="M53.4833,51.7209 C52.1533,51.7209 51.0813,51.3739 50.2653,50.6809 C49.4503,49.9869 49.0393,49.0709 49.0333,47.9329 L51.8233,47.9329 C51.8313,48.3869 51.9953,48.7359 52.3183,48.9779 C52.6403,49.2209 53.0673,49.3429 53.5973,49.3429 C54.0203,49.3429 54.3773,49.2499 54.6673,49.0649 C54.9593,48.8789 55.1033,48.6169 55.1033,48.2779 C55.1033,48.1059 55.0533,47.9549 54.9553,47.8269 C54.8553,47.6999 54.7013,47.5929 54.4903,47.5059 C54.2783,47.4199 54.0713,47.3529 53.8673,47.3049 C53.6623,47.2569 53.3933,47.2039 53.0603,47.1469 C52.7603,47.0959 52.5073,47.0499 52.3033,47.0079 C52.0983,46.9659 51.8503,46.9039 51.5603,46.8209 C51.2683,46.7369 51.0243,46.6459 50.8263,46.5469 C50.6283,46.4479 50.4193,46.3149 50.1983,46.1499 C49.9773,45.9829 49.8013,45.7989 49.6703,45.5979 C49.5403,45.3959 49.4303,45.1519 49.3443,44.8639 C49.2583,44.5769 49.2143,44.2599 49.2143,43.9149 C49.2143,42.9109 49.6083,42.0949 50.3953,41.4649 C51.1813,40.8349 52.2113,40.5199 53.4833,40.5199 C54.7613,40.5199 55.7883,40.8449 56.5613,41.4929 C57.3343,42.1419 57.7253,42.9969 57.7313,44.0579 L55.0073,44.0579 C55.0013,43.6429 54.8593,43.3299 54.5813,43.1189 C54.3033,42.9079 53.9113,42.8019 53.4063,42.8019 C52.9643,42.8019 52.6183,42.8949 52.3653,43.0809 C52.1123,43.2659 51.9863,43.5119 51.9863,43.8189 C51.9863,43.9339 52.0073,44.0379 52.0483,44.1309 C52.0903,44.2229 52.1653,44.3029 52.2693,44.3699 C52.3763,44.4369 52.4733,44.4949 52.5673,44.5429 C52.6593,44.5909 52.8003,44.6389 52.9903,44.6859 C53.1773,44.7349 53.3313,44.7699 53.4503,44.7919 C53.5683,44.8149 53.7493,44.8479 53.9923,44.8929 C55.0213,45.0779 55.7623,45.2699 56.2163,45.4689 C57.3603,45.9799 57.9323,46.8749 57.9323,48.1539 C57.9323,49.2339 57.5263,50.0989 56.7143,50.7469 C55.9023,51.3969 54.8253,51.7209 53.4833,51.7209" id="Fill-24" fill="#11193A" mask="url(#mask-2)"></path>
                <path d="M64.4442,42.9655 C63.8102,42.9655 63.2732,43.1415 62.8342,43.4925 C62.3912,43.8445 62.0892,44.3365 61.9222,44.9695 L67.0622,44.9695 C66.8642,44.3235 66.5402,43.8285 66.0892,43.4835 C65.6372,43.1375 65.0902,42.9655 64.4442,42.9655 M69.9292,46.0825 C69.9292,46.3695 69.9102,46.6515 69.8722,46.9255 L61.8452,46.9255 C61.9662,47.6485 62.2562,48.2035 62.7132,48.5895 C63.1702,48.9765 63.7472,49.1695 64.4442,49.1695 C64.9362,49.1695 65.3802,49.0615 65.7722,48.8435 C66.1652,48.6275 66.4712,48.3255 66.6882,47.9425 L69.6992,47.9425 C69.3152,49.0995 68.6512,50.0185 67.7052,50.6995 C66.7572,51.3805 65.6722,51.7205 64.4442,51.7205 C63.4142,51.7205 62.4792,51.4765 61.6382,50.9875 C60.7982,50.4985 60.1372,49.8255 59.6582,48.9685 C59.1792,48.1115 58.9392,47.1625 58.9392,46.1205 C58.9392,45.0715 59.1772,44.1195 59.6532,43.2625 C60.1312,42.4055 60.7892,41.7345 61.6302,41.2485 C62.4692,40.7625 63.4082,40.5195 64.4442,40.5195 C65.5062,40.5195 66.4582,40.7705 67.3012,41.2735 C68.1462,41.7745 68.7952,42.4475 69.2482,43.2915 C69.7032,44.1355 69.9292,45.0655 69.9292,46.0825" id="Fill-25" fill="#11193A" mask="url(#mask-2)"></path>
                <path d="M76.9979,40.7595 L77.9369,40.7595 L77.9369,43.4645 L76.7009,43.4645 C75.8939,43.4645 75.3169,43.6545 74.9699,44.0345 C74.6209,44.4145 74.4459,45.0395 74.4459,45.9095 L74.4459,51.4235 L71.5799,51.4235 L71.5799,40.8175 L73.4109,40.8175 L73.9189,42.1215 C74.6479,41.2135 75.6739,40.7595 76.9979,40.7595" id="Fill-26" fill="#11193A" mask="url(#mask-2)"></path>
                <polygon id="Fill-27" fill="#11193A" mask="url(#mask-2)" points="87.3075 40.8176 90.2795 40.8176 86.0695 51.4236 83.4225 51.4236 79.1075 40.8176 82.1665 40.8176 84.7555 47.9236"></polygon>
                <path d="M91.823,51.4231 L94.69,51.4231 L94.69,40.8171 L91.823,40.8171 L91.823,51.4231 Z M91.823,39.4071 L94.68,39.4071 L94.68,36.7411 L91.823,36.7411 L91.823,39.4071 Z" id="Fill-28" fill="#11193A" mask="url(#mask-2)"></path>
                <path d="M101.9696,51.7209 C101.1836,51.7209 100.4426,51.5749 99.7446,51.2839 C99.0486,50.9939 98.4496,50.5989 97.9516,50.0999 C97.4526,49.6019 97.0606,49.0039 96.7726,48.3069 C96.4856,47.6099 96.3406,46.8719 96.3406,46.0919 C96.3406,45.3119 96.4856,44.5769 96.7726,43.8869 C97.0606,43.1959 97.4526,42.6039 97.9516,42.1119 C98.4496,41.6189 99.0496,41.2309 99.7496,40.9469 C100.4496,40.6619 101.1976,40.5199 101.9896,40.5199 C103.3586,40.5199 104.5326,40.9179 105.5136,41.7139 C106.4946,42.5099 107.1166,43.5629 107.3796,44.8739 L104.5316,44.8739 C104.3006,44.3489 103.9586,43.9419 103.5046,43.6509 C103.0516,43.3609 102.5386,43.2149 101.9696,43.2149 C101.1976,43.2149 100.5486,43.4919 100.0286,44.0439 C99.5066,44.5969 99.2466,45.2829 99.2466,46.1009 C99.2466,46.9199 99.5086,47.6119 100.0326,48.1779 C100.5576,48.7429 101.2026,49.0269 101.9696,49.0269 C102.5516,49.0269 103.0636,48.8729 103.5046,48.5659 C103.9466,48.2599 104.2876,47.8219 104.5316,47.2519 L107.4166,47.2519 C107.1676,48.5889 106.5426,49.6669 105.5426,50.4889 C104.5416,51.3099 103.3516,51.7209 101.9696,51.7209" id="Fill-29" fill="#11193A" mask="url(#mask-2)"></path>
                <path d="M113.7284,42.9655 C113.0944,42.9655 112.5574,43.1415 112.1174,43.4925 C111.6754,43.8445 111.3724,44.3365 111.2064,44.9695 L116.3464,44.9695 C116.1484,44.3235 115.8234,43.8285 115.3724,43.4835 C114.9214,43.1375 114.3744,42.9655 113.7284,42.9655 M119.2124,46.0825 C119.2124,46.3695 119.1944,46.6515 119.1554,46.9255 L111.1284,46.9255 C111.2504,47.6485 111.5404,48.2035 111.9974,48.5895 C112.4544,48.9765 113.0314,49.1695 113.7284,49.1695 C114.2204,49.1695 114.6634,49.0615 115.0564,48.8435 C115.4494,48.6275 115.7544,48.3255 115.9714,47.9425 L118.9834,47.9425 C118.5994,49.0995 117.9344,50.0185 116.9884,50.6995 C116.0414,51.3805 114.9564,51.7205 113.7284,51.7205 C112.6984,51.7205 111.7624,51.4765 110.9224,50.9875 C110.0824,50.4985 109.4214,49.8255 108.9424,48.9685 C108.4624,48.1115 108.2234,47.1625 108.2234,46.1205 C108.2234,45.0715 108.4614,44.1195 108.9374,43.2625 C109.4144,42.4055 110.0734,41.7345 110.9134,41.2485 C111.7534,40.7625 112.6924,40.5195 113.7284,40.5195 C114.7894,40.5195 115.7424,40.7705 116.5854,41.2735 C117.4294,41.7745 118.0794,42.4475 118.5324,43.2915 C118.9864,44.1355 119.2124,45.0655 119.2124,46.0825" id="Fill-30" fill="#11193A" mask="url(#mask-2)"></path>
                <path d="M125.0155,51.7209 C123.6855,51.7209 122.6135,51.3739 121.7975,50.6809 C120.9825,49.9869 120.5725,49.0709 120.5655,47.9329 L123.3565,47.9329 C123.3635,48.3869 123.5275,48.7359 123.8505,48.9779 C124.1725,49.2209 124.6005,49.3429 125.1295,49.3429 C125.5525,49.3429 125.9095,49.2499 126.1995,49.0649 C126.4915,48.8789 126.6365,48.6169 126.6365,48.2779 C126.6365,48.1059 126.5865,47.9549 126.4875,47.8269 C126.3885,47.6999 126.2335,47.5929 126.0225,47.5059 C125.8115,47.4199 125.6035,47.3529 125.3995,47.3049 C125.1955,47.2569 124.9255,47.2039 124.5925,47.1469 C124.2925,47.0959 124.0405,47.0499 123.8365,47.0079 C123.6305,46.9659 123.3835,46.9039 123.0925,46.8209 C122.8015,46.7369 122.5565,46.6459 122.3585,46.5469 C122.1605,46.4479 121.9515,46.3149 121.7305,46.1499 C121.5095,45.9829 121.3335,45.7989 121.2025,45.5979 C121.0725,45.3959 120.9635,45.1519 120.8775,44.8639 C120.7905,44.5769 120.7475,44.2599 120.7475,43.9149 C120.7475,42.9109 121.1405,42.0949 121.9275,41.4649 C122.7135,40.8349 123.7435,40.5199 125.0155,40.5199 C126.2935,40.5199 127.3215,40.8449 128.0935,41.4929 C128.8675,42.1419 129.2575,42.9969 129.2635,44.0579 L126.5405,44.0579 C126.5335,43.6429 126.3915,43.3299 126.1135,43.1189 C125.8355,42.9079 125.4445,42.8019 124.9385,42.8019 C124.4965,42.8019 124.1505,42.8949 123.8975,43.0809 C123.6455,43.2659 123.5185,43.5119 123.5185,43.8189 C123.5185,43.9339 123.5395,44.0379 123.5815,44.1309 C123.6225,44.2229 123.6975,44.3029 123.8025,44.3699 C123.9085,44.4369 124.0065,44.4949 124.0995,44.5429 C124.1915,44.5909 124.3325,44.6389 124.5225,44.6859 C124.7095,44.7349 124.8635,44.7699 124.9825,44.7919 C125.1005,44.8149 125.2815,44.8479 125.5245,44.8929 C126.5535,45.0779 127.2945,45.2699 127.7485,45.4689 C128.8925,45.9799 129.4655,46.8749 129.4655,48.1539 C129.4655,49.2339 129.0595,50.0989 128.2465,50.7469 C127.4355,51.3969 126.3575,51.7209 125.0155,51.7209" id="Fill-31" fill="#11193A" mask="url(#mask-2)"></path>
                <path d="M33.3573,18.8806 C30.9113,15.6916 27.0963,13.4626 22.8853,12.5696 C18.1593,11.5686 12.9353,12.2586 8.5783,15.1616 L8.5783,24.1396 C10.6263,21.0266 14.1463,19.0396 18.3023,19.0476 C19.9493,19.0506 21.4943,19.3676 22.8853,19.9436 C27.0463,21.6676 29.8313,25.7166 29.8283,30.6706 C29.8243,37.3266 24.9233,42.2556 18.3063,42.2586 C11.6563,42.2626 7.1913,37.2996 7.1833,30.6666 C7.1823,29.4106 7.1833,27.0936 7.1833,27.0936 L7.1833,16.1806 L7.1833,0.3816 L0.0003,0.3816 L0.0003,30.9926 L0.0423,30.9926 C0.1363,36.4176 2.5863,41.0676 6.3533,44.4296 C14.0123,51.6096 26.0673,50.2076 32.0683,43.9416 C38.3743,37.3566 38.9003,26.1036 33.3573,18.8806" id="Fill-32" fill="#50E29D" mask="url(#mask-2)"></path>
                <path d="M-0.0001,37.7795 L-0.0001,51.6565 C1.6029,51.6565 3.1489,51.6275 4.6939,51.6705 C5.3109,51.6875 5.5169,51.4615 5.6209,50.8825 C5.7399,50.2205 5.9179,48.0155 6.0969,46.3215 C6.0969,46.3215 6.0339,46.2475 4.8819,44.9685 C2.6999,42.8855 1.0539,40.4415 -0.0001,37.7795" id="Fill-33" fill="#50E29D" mask="url(#mask-2)"></path>
            </g>
        </g>
    </g>
</svg>